G04 Layer_Color=255*
%FSLAX25Y25*%
%MOIN*%
G70*
G01*
G75*
%ADD28R,0.05906X0.05906*%
%ADD29C,0.06000*%
%ADD30C,0.07000*%
%ADD31C,0.05906*%
%ADD32R,0.05400X0.05400*%
%ADD33C,0.05400*%
%ADD34C,0.15000*%
G04:AMPARAMS|DCode=35|XSize=290mil|YSize=80mil|CornerRadius=20mil|HoleSize=0mil|Usage=FLASHONLY|Rotation=90.000|XOffset=0mil|YOffset=0mil|HoleType=Round|Shape=RoundedRectangle|*
%AMROUNDEDRECTD35*
21,1,0.29000,0.04000,0,0,90.0*
21,1,0.25000,0.08000,0,0,90.0*
1,1,0.04000,0.02000,0.12500*
1,1,0.04000,0.02000,-0.12500*
1,1,0.04000,-0.02000,-0.12500*
1,1,0.04000,-0.02000,0.12500*
%
%ADD35ROUNDEDRECTD35*%
%ADD36C,0.06000*%
%ADD37C,0.02000*%
%ADD38C,0.05512*%
D28*
X232000Y137500D02*
D03*
X161067Y119100D02*
D03*
X42067Y227500D02*
D03*
Y156108D02*
D03*
Y84608D02*
D03*
Y12000D02*
D03*
D29*
X383000Y11500D02*
D03*
X150000D02*
D03*
X10500Y290000D02*
D03*
X150000D02*
D03*
X383000Y288500D02*
D03*
D30*
X385500Y227000D02*
D03*
X375500D02*
D03*
X359500Y257000D02*
D03*
X349500D02*
D03*
D31*
X206933Y119100D02*
D03*
X87933Y227500D02*
D03*
Y156108D02*
D03*
Y84608D02*
D03*
Y12000D02*
D03*
D32*
X190500Y194000D02*
D03*
X292000Y234500D02*
D03*
D33*
X190500Y184000D02*
D03*
Y174000D02*
D03*
Y164000D02*
D03*
X220500D02*
D03*
Y174000D02*
D03*
Y184000D02*
D03*
Y194000D02*
D03*
X292000Y224500D02*
D03*
Y214500D02*
D03*
Y204500D02*
D03*
X322000D02*
D03*
Y214500D02*
D03*
Y224500D02*
D03*
Y234500D02*
D03*
D34*
X260000Y171500D02*
D03*
X300000Y171000D02*
D03*
X327500Y133500D02*
D03*
X328000Y173500D02*
D03*
X257500Y121000D02*
D03*
X297500Y120500D02*
D03*
X308000Y145000D02*
D03*
X268000Y145500D02*
D03*
X119500Y233500D02*
D03*
X120000Y273500D02*
D03*
X120500Y161000D02*
D03*
X121000Y201000D02*
D03*
X119000Y89000D02*
D03*
X119500Y129000D02*
D03*
Y19500D02*
D03*
X120000Y59500D02*
D03*
D35*
X227500Y280500D02*
D03*
X327500D02*
D03*
D36*
X172500Y160500D02*
D03*
Y140500D02*
D03*
X152500Y150500D02*
D03*
D37*
X299376Y76885D02*
D03*
X296276D02*
D03*
X293176D02*
D03*
X299376Y79984D02*
D03*
X296276D02*
D03*
X293176D02*
D03*
X299376Y83084D02*
D03*
X296276D02*
D03*
X293176D02*
D03*
X169600Y76900D02*
D03*
X166500D02*
D03*
X163400D02*
D03*
X169600Y80000D02*
D03*
X166500D02*
D03*
X163400D02*
D03*
X169600Y83100D02*
D03*
X166500D02*
D03*
X163400D02*
D03*
D38*
X194500Y224500D02*
D03*
X164500D02*
D03*
X39000Y251500D02*
D03*
Y281500D02*
D03*
Y180108D02*
D03*
Y210108D02*
D03*
Y108608D02*
D03*
Y138608D02*
D03*
Y37108D02*
D03*
Y67108D02*
D03*
M02*
