M48
;Layer_Color=9474304
;FILE_FORMAT=2:5
INCH,LZ
;TYPE=PLATED
T1F00S00C0.01000
T2F00S00C0.02800
T3F00S00C0.03000
T4F00S00C0.03346
T5F00S00C0.03400
T6F00S00C0.03543
T8F00S00C0.05000
T9F00S00C0.06400
T10F00S00C0.12900
%
T01
X03125Y02639
X03156
Y0267
X03125
Y02701
X03156
X0439176Y0270085
Y0266985
Y0263884
X0442276
X0445376
Y0266985
X0442276
Y0270085
X0445376
X03094Y02701
Y0267
Y02639
T02
X0494276Y0257984
X04885Y03015
X03645Y0258
X03975Y0346
X04345Y0333
X03725Y04015
T03
X02985Y03375
X03185Y03475
Y03275
T04
X0185Y0224108
Y0254108
Y0295608
Y0325608
Y0367108
Y0397108
Y04385
Y04685
X03105Y04115
X03405
T05
X0336Y0351
Y0361
Y0371
Y0381
X0366
Y0371
Y0361
Y0351
T06
X0352933Y03061
X0307067
X0233933Y0271608
X0188067
Y0200108
X0233933
Y0343108
X0188067
Y04145
X0233933
X0378Y03245
T08
X0474Y0404
X0484
X0502Y04035
X0512
T09
X04035Y0308
X04435Y03075
X02655Y0277608
X0266Y0246108
X02655Y0206108
X0266Y0317608
X02655Y0349108
X0266Y0389108
X02655Y04205
X0266Y04605
X0406Y03585
X0414Y03325
X0454Y0332
X0446Y0358
X0475Y03605
X04745Y03205
T10
X0529Y01985
X0296
X016884Y01965
X0529Y04755
X0296Y0477
X01565
M30
