G04 Layer_Color=32768*
%FSLAX25Y25*%
%MOIN*%
G70*
G01*
G75*
%ADD74C,0.00394*%
D74*
X166350Y216512D02*
X172650D01*
X166350Y205488D02*
X172650D01*
Y216512D01*
X166350Y205488D02*
Y216512D01*
X169500Y209032D02*
Y212968D01*
X167532Y211000D02*
X171468D01*
X359012Y111350D02*
Y117650D01*
X347988Y111350D02*
Y117650D01*
Y111350D02*
X359012D01*
X347988Y117650D02*
X359012D01*
X351532Y114500D02*
X355469D01*
X353500Y112531D02*
Y116469D01*
X323850Y194512D02*
X330150D01*
X323850Y183488D02*
X330150D01*
Y194512D01*
X323850Y183488D02*
Y194512D01*
X327000Y187031D02*
Y190969D01*
X325031Y189000D02*
X328969D01*
X236350Y165512D02*
X242650D01*
X236350Y154488D02*
X242650D01*
Y165512D01*
X236350Y154488D02*
Y165512D01*
X239500Y158031D02*
Y161969D01*
X237531Y160000D02*
X241469D01*
X161350Y237488D02*
X167650D01*
X161350Y248512D02*
X167650D01*
X161350Y237488D02*
Y248512D01*
X167650Y237488D02*
Y248512D01*
X164500Y241032D02*
Y244969D01*
X162531Y243000D02*
X166469D01*
X243012Y174547D02*
Y180453D01*
X231988Y174547D02*
Y180453D01*
Y174547D02*
X243012D01*
X231988Y180453D02*
X243012D01*
X235531Y177500D02*
X239469D01*
X237500Y175531D02*
Y179469D01*
X274764Y57032D02*
Y62937D01*
X285787Y57032D02*
Y62937D01*
X274764D02*
X285787D01*
X274764Y57032D02*
X285787D01*
X278307Y59984D02*
X282244D01*
X280276Y58016D02*
Y61953D01*
X144988Y57047D02*
Y62953D01*
X156012Y57047D02*
Y62953D01*
X144988D02*
X156012D01*
X144988Y57047D02*
X156012D01*
X148531Y60000D02*
X152469D01*
X150500Y58031D02*
Y61968D01*
X274532Y202500D02*
X278468D01*
X276500Y200532D02*
Y204468D01*
X271579Y193839D02*
Y211161D01*
X281421Y193839D02*
Y211161D01*
X271579Y193839D02*
X281421D01*
X271579Y211161D02*
X281421D01*
X201500Y144532D02*
Y148468D01*
X199531Y146500D02*
X203468D01*
X192839Y151421D02*
X210161D01*
X192839Y141579D02*
X210161D01*
X192839D02*
Y151421D01*
X210161Y141579D02*
Y151421D01*
X306500Y187031D02*
Y190969D01*
X304532Y189000D02*
X308469D01*
X297839Y184079D02*
X315161D01*
X297839Y193921D02*
X315161D01*
Y184079D02*
Y193921D01*
X297839Y184079D02*
Y193921D01*
X193000Y204532D02*
Y208469D01*
X191032Y206500D02*
X194968D01*
X184339Y201579D02*
X201661D01*
X184339Y211421D02*
X201661D01*
Y201579D02*
Y211421D01*
X184339Y201579D02*
Y211421D01*
X201500Y135531D02*
Y139469D01*
X199531Y137500D02*
X203468D01*
X192839Y132579D02*
X210161D01*
X192839Y142421D02*
X210161D01*
Y132579D02*
Y142421D01*
X192839Y132579D02*
Y142421D01*
X361531Y203500D02*
X365469D01*
X363500Y201532D02*
Y205469D01*
X368421Y194839D02*
Y212161D01*
X358579Y194839D02*
Y212161D01*
X368421D01*
X358579Y194839D02*
X368421D01*
X350532Y211500D02*
X354468D01*
X352500Y209531D02*
Y213469D01*
X347579Y202839D02*
Y220161D01*
X357421Y202839D02*
Y220161D01*
X347579Y202839D02*
X357421D01*
X347579Y220161D02*
X357421D01*
X182032Y243000D02*
X185968D01*
X184000Y241032D02*
Y244969D01*
X179079Y234339D02*
Y251661D01*
X188921Y234339D02*
Y251661D01*
X179079Y234339D02*
X188921D01*
X179079Y251661D02*
X188921D01*
X256500Y218531D02*
Y222468D01*
X254532Y220500D02*
X258469D01*
X247839Y225421D02*
X265161D01*
X247839Y215579D02*
X265161D01*
X247839D02*
Y225421D01*
X265161Y215579D02*
Y225421D01*
X376850Y52441D02*
X380787D01*
X378819Y50473D02*
Y54410D01*
X383740Y43780D02*
Y61103D01*
X373898Y43780D02*
Y61103D01*
X383740D01*
X373898Y43780D02*
X383740D01*
X247075Y52457D02*
X251012D01*
X249043Y50488D02*
Y54425D01*
X253965Y43795D02*
Y61118D01*
X244122Y43795D02*
Y61118D01*
X253965D01*
X244122Y43795D02*
X253965D01*
X358307Y87441D02*
X362244D01*
X360276Y85473D02*
Y89410D01*
X365197Y78780D02*
Y96103D01*
X355354Y78780D02*
Y96103D01*
X365197D01*
X355354Y78780D02*
X365197D01*
X228532Y87457D02*
X232469D01*
X230500Y85488D02*
Y89425D01*
X235421Y78795D02*
Y96118D01*
X225579Y78795D02*
Y96118D01*
X235421D01*
X225579Y78795D02*
X235421D01*
X376807Y88941D02*
X380744D01*
X378776Y86973D02*
Y90910D01*
X383697Y80280D02*
Y97603D01*
X373854Y80280D02*
Y97603D01*
X383697D01*
X373854Y80280D02*
X383697D01*
X247031Y88957D02*
X250969D01*
X249000Y86988D02*
Y90925D01*
X253921Y80295D02*
Y97618D01*
X244079Y80295D02*
Y97618D01*
X253921D01*
X244079Y80295D02*
X253921D01*
X376850Y69941D02*
X380787D01*
X378819Y67973D02*
Y71910D01*
X383740Y61280D02*
Y78603D01*
X373898Y61280D02*
Y78603D01*
X383740D01*
X373898Y61280D02*
X383740D01*
X247075Y69957D02*
X251012D01*
X249043Y67988D02*
Y71925D01*
X253965Y61295D02*
Y78618D01*
X244122Y61295D02*
Y78618D01*
X253965D01*
X244122Y61295D02*
X253965D01*
X216500Y135531D02*
Y139469D01*
X214531Y137500D02*
X218468D01*
X207839Y132579D02*
X225161D01*
X207839Y142421D02*
X225161D01*
Y132579D02*
Y142421D01*
X207839Y132579D02*
Y142421D01*
X327276Y73016D02*
Y76953D01*
X325307Y74985D02*
X329244D01*
X318614Y79906D02*
X335937D01*
X318614Y70063D02*
X335937D01*
X318614D02*
Y79906D01*
X335937Y70063D02*
Y79906D01*
X197500Y73032D02*
Y76968D01*
X195531Y75000D02*
X199469D01*
X188839Y79921D02*
X206161D01*
X188839Y70079D02*
X206161D01*
X188839D02*
Y79921D01*
X206161Y70079D02*
Y79921D01*
X30012Y248350D02*
Y254650D01*
X18988Y248350D02*
Y254650D01*
Y248350D02*
X30012D01*
X18988Y254650D02*
X30012D01*
X22532Y251500D02*
X26469D01*
X24500Y249532D02*
Y253468D01*
X30012Y176959D02*
Y183258D01*
X18988Y176959D02*
Y183258D01*
Y176959D02*
X30012D01*
X18988Y183258D02*
X30012D01*
X22532Y180108D02*
X26469D01*
X24500Y178140D02*
Y182077D01*
X30012Y105458D02*
Y111758D01*
X18988Y105458D02*
Y111758D01*
Y105458D02*
X30012D01*
X18988Y111758D02*
X30012D01*
X22532Y108608D02*
X26469D01*
X24500Y106640D02*
Y110577D01*
X30012Y33959D02*
Y40258D01*
X18988Y33959D02*
Y40258D01*
Y33959D02*
X30012D01*
X18988Y40258D02*
X30012D01*
X22532Y37108D02*
X26469D01*
X24500Y35140D02*
Y39077D01*
X363626Y57996D02*
X369925D01*
X363626Y46973D02*
X369925D01*
Y57996D01*
X363626Y46973D02*
Y57996D01*
X366776Y50516D02*
Y54453D01*
X364807Y52485D02*
X368744D01*
X233850Y58012D02*
X240150D01*
X233850Y46988D02*
X240150D01*
Y58012D01*
X233850Y46988D02*
Y58012D01*
X237000Y50532D02*
Y54469D01*
X235032Y52500D02*
X238968D01*
X320626Y93453D02*
X326925D01*
X320626Y82429D02*
X326925D01*
Y93453D01*
X320626Y82429D02*
Y93453D01*
X323776Y85973D02*
Y89910D01*
X321807Y87941D02*
X325744D01*
X190850Y93468D02*
X197150D01*
X190850Y82445D02*
X197150D01*
Y93468D01*
X190850Y82445D02*
Y93468D01*
X194000Y85988D02*
Y89925D01*
X192032Y87957D02*
X195968D01*
X340126Y82429D02*
X346425D01*
X340126Y93453D02*
X346425D01*
X340126Y82429D02*
Y93453D01*
X346425Y82429D02*
Y93453D01*
X343276Y85973D02*
Y89910D01*
X341307Y87941D02*
X345244D01*
X210350Y82445D02*
X216650D01*
X210350Y93468D02*
X216650D01*
X210350Y82445D02*
Y93468D01*
X216650Y82445D02*
Y93468D01*
X213500Y85988D02*
Y89925D01*
X211531Y87957D02*
X215469D01*
X292764Y46835D02*
Y53134D01*
X303787Y46835D02*
Y53134D01*
X292764D02*
X303787D01*
X292764Y46835D02*
X303787D01*
X296307Y49984D02*
X300244D01*
X298276Y48016D02*
Y51953D01*
X162988Y46850D02*
Y53150D01*
X174012Y46850D02*
Y53150D01*
X162988D02*
X174012D01*
X162988Y46850D02*
X174012D01*
X166532Y50000D02*
X170468D01*
X168500Y48031D02*
Y51968D01*
X293012Y93850D02*
Y100150D01*
X281988Y93850D02*
Y100150D01*
Y93850D02*
X293012D01*
X281988Y100150D02*
X293012D01*
X285531Y97000D02*
X289469D01*
X287500Y95031D02*
Y98968D01*
X163555Y93807D02*
Y100106D01*
X152532Y93807D02*
Y100106D01*
Y93807D02*
X163555D01*
X152532Y100106D02*
X163555D01*
X156075Y96957D02*
X160012D01*
X158043Y94988D02*
Y98925D01*
X354287Y51835D02*
Y58134D01*
X343264Y51835D02*
Y58134D01*
Y51835D02*
X354287D01*
X343264Y58134D02*
X354287D01*
X346807Y54984D02*
X350744D01*
X348776Y53016D02*
Y56953D01*
X224512Y51850D02*
Y58150D01*
X213488Y51850D02*
Y58150D01*
Y51850D02*
X224512D01*
X213488Y58150D02*
X224512D01*
X217032Y55000D02*
X220969D01*
X219000Y53031D02*
Y56968D01*
X324126Y47429D02*
X330425D01*
X324126Y58453D02*
X330425D01*
X324126Y47429D02*
Y58453D01*
X330425Y47429D02*
Y58453D01*
X327276Y50973D02*
Y54910D01*
X325307Y52941D02*
X329244D01*
X194350Y47445D02*
X200650D01*
X194350Y58469D02*
X200650D01*
X194350Y47445D02*
Y58469D01*
X200650Y47445D02*
Y58469D01*
X197500Y50988D02*
Y54925D01*
X195531Y52957D02*
X199469D01*
X308764Y46792D02*
Y53091D01*
X319787Y46792D02*
Y53091D01*
X308764D02*
X319787D01*
X308764Y46792D02*
X319787D01*
X312307Y49941D02*
X316244D01*
X314276Y47973D02*
Y51910D01*
X178988Y46807D02*
Y53106D01*
X190012Y46807D02*
Y53106D01*
X178988D02*
X190012D01*
X178988Y46807D02*
X190012D01*
X182531Y49957D02*
X186469D01*
X184500Y47988D02*
Y51925D01*
M02*
