G04 Layer_Color=32768*
%FSLAX25Y25*%
%MOIN*%
G70*
G01*
G75*
%ADD76C,0.00394*%
D76*
X356350Y389488D02*
X362650D01*
X356350Y400512D02*
X362650D01*
X356350Y389488D02*
Y400512D01*
X362650Y389488D02*
Y400512D01*
X359500Y393032D02*
Y396969D01*
X357531Y395000D02*
X361469D01*
X505012Y298350D02*
Y304650D01*
X493988Y298350D02*
Y304650D01*
Y298350D02*
X505012D01*
X493988Y304650D02*
X505012D01*
X497532Y301500D02*
X501469D01*
X499500Y299532D02*
Y303468D01*
X469850Y381512D02*
X476150D01*
X469850Y370488D02*
X476150D01*
Y381512D01*
X469850Y370488D02*
Y381512D01*
X473000Y374031D02*
Y377969D01*
X471032Y376000D02*
X474968D01*
X382350Y352512D02*
X388650D01*
X382350Y341488D02*
X388650D01*
Y352512D01*
X382350Y341488D02*
Y352512D01*
X385500Y345031D02*
Y348969D01*
X383531Y347000D02*
X387469D01*
X307350Y424488D02*
X313650D01*
X307350Y435512D02*
X313650D01*
X307350Y424488D02*
Y435512D01*
X313650Y424488D02*
Y435512D01*
X310500Y428031D02*
Y431968D01*
X308531Y430000D02*
X312469D01*
X389012Y361547D02*
Y367453D01*
X377988Y361547D02*
Y367453D01*
Y361547D02*
X389012D01*
X377988Y367453D02*
X389012D01*
X381532Y364500D02*
X385469D01*
X383500Y362531D02*
Y366469D01*
X420764Y244032D02*
Y249937D01*
X431787Y244032D02*
Y249937D01*
X420764D02*
X431787D01*
X420764Y244032D02*
X431787D01*
X424307Y246985D02*
X428244D01*
X426276Y245016D02*
Y248953D01*
X290988Y244047D02*
Y249953D01*
X302012Y244047D02*
Y249953D01*
X290988D02*
X302012D01*
X290988Y244047D02*
X302012D01*
X294531Y247000D02*
X298468D01*
X296500Y245031D02*
Y248969D01*
X410532Y386500D02*
X414468D01*
X412500Y384531D02*
Y388469D01*
X407579Y377839D02*
Y395161D01*
X417421Y377839D02*
Y395161D01*
X407579Y377839D02*
X417421D01*
X407579Y395161D02*
X417421D01*
X347500Y331532D02*
Y335469D01*
X345532Y333500D02*
X349468D01*
X338839Y338421D02*
X356161D01*
X338839Y328579D02*
X356161D01*
X338839D02*
Y338421D01*
X356161Y328579D02*
Y338421D01*
X437000Y395532D02*
Y399468D01*
X435032Y397500D02*
X438969D01*
X428339Y392579D02*
X445661D01*
X428339Y402421D02*
X445661D01*
Y392579D02*
Y402421D01*
X428339Y392579D02*
Y402421D01*
X339000Y391531D02*
Y395468D01*
X337032Y393500D02*
X340968D01*
X330339Y388579D02*
X347661D01*
X330339Y398421D02*
X347661D01*
Y388579D02*
Y398421D01*
X330339Y388579D02*
Y398421D01*
X347500Y322532D02*
Y326468D01*
X345532Y324500D02*
X349468D01*
X338839Y319579D02*
X356161D01*
X338839Y329421D02*
X356161D01*
Y319579D02*
Y329421D01*
X338839Y319579D02*
Y329421D01*
X455000Y394032D02*
Y397969D01*
X453031Y396000D02*
X456968D01*
X446339Y400921D02*
X463661D01*
X446339Y391079D02*
X463661D01*
X446339D02*
Y400921D01*
X463661Y391079D02*
Y400921D01*
X454500Y404531D02*
Y408468D01*
X452531Y406500D02*
X456468D01*
X445839Y411421D02*
X463161D01*
X445839Y401579D02*
X463161D01*
X445839D02*
Y411421D01*
X463161Y401579D02*
Y411421D01*
X328031Y430000D02*
X331968D01*
X330000Y428031D02*
Y431968D01*
X325079Y421339D02*
Y438661D01*
X334921Y421339D02*
Y438661D01*
X325079Y421339D02*
X334921D01*
X325079Y438661D02*
X334921D01*
X402500Y405532D02*
Y409469D01*
X400531Y407500D02*
X404468D01*
X393839Y412421D02*
X411161D01*
X393839Y402579D02*
X411161D01*
X393839D02*
Y412421D01*
X411161Y402579D02*
Y412421D01*
X522850Y239441D02*
X526787D01*
X524819Y237473D02*
Y241410D01*
X529740Y230780D02*
Y248103D01*
X519898Y230780D02*
Y248103D01*
X529740D01*
X519898Y230780D02*
X529740D01*
X393075Y239457D02*
X397012D01*
X395043Y237488D02*
Y241425D01*
X399965Y230795D02*
Y248118D01*
X390122Y230795D02*
Y248118D01*
X399965D01*
X390122Y230795D02*
X399965D01*
X504307Y274441D02*
X508244D01*
X506276Y272473D02*
Y276410D01*
X511197Y265780D02*
Y283103D01*
X501354Y265780D02*
Y283103D01*
X511197D01*
X501354Y265780D02*
X511197D01*
X374532Y274457D02*
X378468D01*
X376500Y272488D02*
Y276425D01*
X381421Y265795D02*
Y283118D01*
X371579Y265795D02*
Y283118D01*
X381421D01*
X371579Y265795D02*
X381421D01*
X522807Y275941D02*
X526744D01*
X524776Y273973D02*
Y277910D01*
X529697Y267280D02*
Y284603D01*
X519854Y267280D02*
Y284603D01*
X529697D01*
X519854Y267280D02*
X529697D01*
X393032Y275957D02*
X396969D01*
X395000Y273988D02*
Y277925D01*
X399921Y267295D02*
Y284618D01*
X390079Y267295D02*
Y284618D01*
X399921D01*
X390079Y267295D02*
X399921D01*
X522850Y256941D02*
X526787D01*
X524819Y254973D02*
Y258910D01*
X529740Y248280D02*
Y265603D01*
X519898Y248280D02*
Y265603D01*
X529740D01*
X519898Y248280D02*
X529740D01*
X393075Y256957D02*
X397012D01*
X395043Y254988D02*
Y258925D01*
X399965Y248295D02*
Y265618D01*
X390122Y248295D02*
Y265618D01*
X399965D01*
X390122Y248295D02*
X399965D01*
X362500Y322532D02*
Y326468D01*
X360531Y324500D02*
X364469D01*
X353839Y319579D02*
X371161D01*
X353839Y329421D02*
X371161D01*
Y319579D02*
Y329421D01*
X353839Y319579D02*
Y329421D01*
X473276Y260016D02*
Y263953D01*
X471307Y261984D02*
X475244D01*
X464614Y266906D02*
X481937D01*
X464614Y257063D02*
X481937D01*
X464614D02*
Y266906D01*
X481937Y257063D02*
Y266906D01*
X343500Y260032D02*
Y263968D01*
X341531Y262000D02*
X345468D01*
X334839Y266921D02*
X352161D01*
X334839Y257079D02*
X352161D01*
X334839D02*
Y266921D01*
X352161Y257079D02*
Y266921D01*
X176012Y435350D02*
Y441650D01*
X164988Y435350D02*
Y441650D01*
Y435350D02*
X176012D01*
X164988Y441650D02*
X176012D01*
X168532Y438500D02*
X172468D01*
X170500Y436531D02*
Y440469D01*
X176012Y363959D02*
Y370258D01*
X164988Y363959D02*
Y370258D01*
Y363959D02*
X176012D01*
X164988Y370258D02*
X176012D01*
X168532Y367108D02*
X172468D01*
X170500Y365140D02*
Y369077D01*
X176012Y292459D02*
Y298758D01*
X164988Y292459D02*
Y298758D01*
Y292459D02*
X176012D01*
X164988Y298758D02*
X176012D01*
X168532Y295608D02*
X172468D01*
X170500Y293640D02*
Y297577D01*
X176012Y220958D02*
Y227258D01*
X164988Y220958D02*
Y227258D01*
Y220958D02*
X176012D01*
X164988Y227258D02*
X176012D01*
X168532Y224108D02*
X172468D01*
X170500Y222140D02*
Y226077D01*
X509626Y244996D02*
X515925D01*
X509626Y233973D02*
X515925D01*
Y244996D01*
X509626Y233973D02*
Y244996D01*
X512776Y237516D02*
Y241453D01*
X510807Y239485D02*
X514744D01*
X379850Y245012D02*
X386150D01*
X379850Y233988D02*
X386150D01*
Y245012D01*
X379850Y233988D02*
Y245012D01*
X383000Y237531D02*
Y241469D01*
X381031Y239500D02*
X384968D01*
X466626Y280453D02*
X472925D01*
X466626Y269429D02*
X472925D01*
Y280453D01*
X466626Y269429D02*
Y280453D01*
X469776Y272973D02*
Y276910D01*
X467807Y274941D02*
X471744D01*
X336850Y280469D02*
X343150D01*
X336850Y269445D02*
X343150D01*
Y280469D01*
X336850Y269445D02*
Y280469D01*
X340000Y272988D02*
Y276925D01*
X338032Y274957D02*
X341968D01*
X486126Y269429D02*
X492425D01*
X486126Y280453D02*
X492425D01*
X486126Y269429D02*
Y280453D01*
X492425Y269429D02*
Y280453D01*
X489276Y272973D02*
Y276910D01*
X487307Y274941D02*
X491244D01*
X356350Y269445D02*
X362650D01*
X356350Y280469D02*
X362650D01*
X356350Y269445D02*
Y280469D01*
X362650Y269445D02*
Y280469D01*
X359500Y272988D02*
Y276925D01*
X357531Y274957D02*
X361469D01*
X438764Y233835D02*
Y240134D01*
X449787Y233835D02*
Y240134D01*
X438764D02*
X449787D01*
X438764Y233835D02*
X449787D01*
X442307Y236984D02*
X446244D01*
X444276Y235016D02*
Y238953D01*
X308988Y233850D02*
Y240150D01*
X320012Y233850D02*
Y240150D01*
X308988D02*
X320012D01*
X308988Y233850D02*
X320012D01*
X312531Y237000D02*
X316469D01*
X314500Y235032D02*
Y238968D01*
X439012Y280850D02*
Y287150D01*
X427988Y280850D02*
Y287150D01*
Y280850D02*
X439012D01*
X427988Y287150D02*
X439012D01*
X431531Y284000D02*
X435468D01*
X433500Y282031D02*
Y285968D01*
X309555Y280807D02*
Y287106D01*
X298532Y280807D02*
Y287106D01*
Y280807D02*
X309555D01*
X298532Y287106D02*
X309555D01*
X302075Y283957D02*
X306012D01*
X304043Y281988D02*
Y285925D01*
X500287Y238835D02*
Y245134D01*
X489264Y238835D02*
Y245134D01*
Y238835D02*
X500287D01*
X489264Y245134D02*
X500287D01*
X492807Y241985D02*
X496744D01*
X494776Y240016D02*
Y243953D01*
X370512Y238850D02*
Y245150D01*
X359488Y238850D02*
Y245150D01*
Y238850D02*
X370512D01*
X359488Y245150D02*
X370512D01*
X363032Y242000D02*
X366968D01*
X365000Y240032D02*
Y243969D01*
X470126Y234429D02*
X476425D01*
X470126Y245453D02*
X476425D01*
X470126Y234429D02*
Y245453D01*
X476425Y234429D02*
Y245453D01*
X473276Y237973D02*
Y241910D01*
X471307Y239941D02*
X475244D01*
X340350Y234445D02*
X346650D01*
X340350Y245468D02*
X346650D01*
X340350Y234445D02*
Y245468D01*
X346650Y234445D02*
Y245468D01*
X343500Y237988D02*
Y241925D01*
X341531Y239957D02*
X345468D01*
X454764Y233792D02*
Y240091D01*
X465787Y233792D02*
Y240091D01*
X454764D02*
X465787D01*
X454764Y233792D02*
X465787D01*
X458307Y236941D02*
X462244D01*
X460276Y234973D02*
Y238910D01*
X324988Y233807D02*
Y240106D01*
X336012Y233807D02*
Y240106D01*
X324988D02*
X336012D01*
X324988Y233807D02*
X336012D01*
X328532Y236957D02*
X332469D01*
X330500Y234988D02*
Y238925D01*
M02*
