G04 Layer_Physical_Order=2*
G04 Layer_Color=16711680*
%FSLAX25Y25*%
%MOIN*%
G70*
G01*
G75*
%ADD29R,0.05906X0.05906*%
%ADD30C,0.06000*%
%ADD31C,0.07000*%
%ADD32C,0.05906*%
%ADD33R,0.05400X0.05400*%
%ADD34C,0.05400*%
%ADD35C,0.15000*%
G04:AMPARAMS|DCode=36|XSize=290mil|YSize=80mil|CornerRadius=20mil|HoleSize=0mil|Usage=FLASHONLY|Rotation=90.000|XOffset=0mil|YOffset=0mil|HoleType=Round|Shape=RoundedRectangle|*
%AMROUNDEDRECTD36*
21,1,0.29000,0.04000,0,0,90.0*
21,1,0.25000,0.08000,0,0,90.0*
1,1,0.04000,0.02000,0.12500*
1,1,0.04000,0.02000,-0.12500*
1,1,0.04000,-0.02000,-0.12500*
1,1,0.04000,-0.02000,0.12500*
%
%ADD36ROUNDEDRECTD36*%
%ADD37C,0.06000*%
%ADD38C,0.02000*%
%ADD39C,0.05512*%
%ADD40C,0.05000*%
G36*
X542470Y190530D02*
X534973D01*
X534794Y191030D01*
X535714Y191786D01*
X536895Y193225D01*
X537773Y194866D01*
X538313Y196648D01*
X538496Y198500D01*
X538313Y200353D01*
X537773Y202134D01*
X536895Y203776D01*
X535714Y205215D01*
X534275Y206395D01*
X532634Y207273D01*
X530853Y207813D01*
X529000Y207996D01*
X527147Y207813D01*
X525366Y207273D01*
X523725Y206395D01*
X522286Y205215D01*
X521105Y203776D01*
X520227Y202134D01*
X519687Y200353D01*
X519504Y198500D01*
X519687Y196648D01*
X520227Y194866D01*
X521105Y193225D01*
X522286Y191786D01*
X523206Y191030D01*
X523027Y190530D01*
X301973D01*
X301794Y191030D01*
X302714Y191786D01*
X303895Y193225D01*
X304773Y194866D01*
X305313Y196648D01*
X305496Y198500D01*
X305313Y200353D01*
X304773Y202134D01*
X303895Y203776D01*
X302714Y205215D01*
X301275Y206395D01*
X299634Y207273D01*
X297852Y207813D01*
X296000Y207996D01*
X294147Y207813D01*
X292366Y207273D01*
X290724Y206395D01*
X289285Y205215D01*
X288105Y203776D01*
X287227Y202134D01*
X286687Y200353D01*
X286504Y198500D01*
X286687Y196648D01*
X287227Y194866D01*
X288105Y193225D01*
X289285Y191786D01*
X290206Y191030D01*
X290027Y190530D01*
X176751D01*
X176537Y190982D01*
X176736Y191225D01*
X177613Y192866D01*
X178153Y194648D01*
X178336Y196500D01*
X178153Y198353D01*
X177613Y200134D01*
X176736Y201776D01*
X175555Y203215D01*
X174116Y204395D01*
X172474Y205273D01*
X170693Y205813D01*
X168840Y205996D01*
X166988Y205813D01*
X165206Y205273D01*
X163565Y204395D01*
X162126Y203215D01*
X160945Y201776D01*
X160067Y200134D01*
X159527Y198353D01*
X159344Y196500D01*
X159527Y194648D01*
X160067Y192866D01*
X160945Y191225D01*
X161144Y190982D01*
X160930Y190530D01*
X149530D01*
Y469848D01*
X150030Y470085D01*
X151225Y469105D01*
X152866Y468227D01*
X154648Y467687D01*
X156500Y467504D01*
X158352Y467687D01*
X160134Y468227D01*
X161776Y469105D01*
X163215Y470286D01*
X164395Y471725D01*
X165273Y473366D01*
X165813Y475147D01*
X165996Y477000D01*
X165813Y478853D01*
X165273Y480634D01*
X164395Y482275D01*
X163786Y483018D01*
X164000Y483470D01*
X288500D01*
X288714Y483018D01*
X288105Y482275D01*
X287227Y480634D01*
X286687Y478853D01*
X286504Y477000D01*
X286687Y475147D01*
X287227Y473366D01*
X288105Y471725D01*
X289285Y470286D01*
X290724Y469105D01*
X292366Y468227D01*
X294147Y467687D01*
X296000Y467504D01*
X297852Y467687D01*
X299634Y468227D01*
X301275Y469105D01*
X302714Y470286D01*
X303895Y471725D01*
X304773Y473366D01*
X305313Y475147D01*
X305496Y477000D01*
X305313Y478853D01*
X304773Y480634D01*
X303895Y482275D01*
X303286Y483018D01*
X303500Y483470D01*
X367295D01*
X367516Y483021D01*
X367132Y482522D01*
X366629Y481305D01*
X366457Y480000D01*
Y455000D01*
X366629Y453695D01*
X367132Y452478D01*
X367934Y451434D01*
X368978Y450632D01*
X370195Y450129D01*
X371500Y449957D01*
X375500D01*
X376805Y450129D01*
X378022Y450632D01*
X379066Y451434D01*
X379868Y452478D01*
X380371Y453695D01*
X380543Y455000D01*
Y480000D01*
X380371Y481305D01*
X379868Y482522D01*
X379484Y483021D01*
X379705Y483470D01*
X467295D01*
X467516Y483021D01*
X467133Y482522D01*
X466629Y481305D01*
X466457Y480000D01*
Y455000D01*
X466629Y453695D01*
X467133Y452478D01*
X467934Y451434D01*
X468978Y450632D01*
X470195Y450129D01*
X471500Y449957D01*
X475500D01*
X476805Y450129D01*
X478022Y450632D01*
X479066Y451434D01*
X479868Y452478D01*
X480371Y453695D01*
X480543Y455000D01*
Y480000D01*
X480371Y481305D01*
X479868Y482522D01*
X479484Y483021D01*
X479705Y483470D01*
X523027D01*
X523206Y482970D01*
X522286Y482214D01*
X521105Y480775D01*
X520227Y479134D01*
X519687Y477353D01*
X519504Y475500D01*
X519687Y473647D01*
X520227Y471866D01*
X521105Y470225D01*
X522286Y468785D01*
X523725Y467605D01*
X525366Y466727D01*
X527147Y466187D01*
X529000Y466004D01*
X530853Y466187D01*
X532634Y466727D01*
X534275Y467605D01*
X535714Y468785D01*
X536895Y470225D01*
X537773Y471866D01*
X538313Y473647D01*
X538496Y475500D01*
X538313Y477353D01*
X537773Y479134D01*
X536895Y480775D01*
X535714Y482214D01*
X534794Y482970D01*
X534973Y483470D01*
X542470D01*
Y190530D01*
D02*
G37*
%LPC*%
G36*
X352933Y312082D02*
X351766Y311967D01*
X350644Y311626D01*
X349610Y311073D01*
X348704Y310330D01*
X347960Y309423D01*
X347407Y308389D01*
X347066Y307267D01*
X346952Y306100D01*
X347066Y304933D01*
X347407Y303811D01*
X347960Y302777D01*
X348704Y301870D01*
X349610Y301127D01*
X350644Y300574D01*
X351766Y300233D01*
X352933Y300118D01*
X354100Y300233D01*
X355222Y300574D01*
X356256Y301127D01*
X357163Y301870D01*
X357907Y302777D01*
X358459Y303811D01*
X358800Y304933D01*
X358915Y306100D01*
X358800Y307267D01*
X358459Y308389D01*
X357907Y309423D01*
X357163Y310330D01*
X356256Y311073D01*
X355222Y311626D01*
X354100Y311967D01*
X352933Y312082D01*
D02*
G37*
G36*
X451992Y307000D02*
X444000D01*
Y299008D01*
X445166Y299123D01*
X446769Y299609D01*
X448245Y300398D01*
X449540Y301461D01*
X450602Y302755D01*
X451391Y304231D01*
X451877Y305834D01*
X451992Y307000D01*
D02*
G37*
G36*
X443000D02*
X435008D01*
X435123Y305834D01*
X435609Y304231D01*
X436398Y302755D01*
X437461Y301461D01*
X438755Y300398D01*
X440232Y299609D01*
X441834Y299123D01*
X443000Y299008D01*
Y307000D01*
D02*
G37*
G36*
X313020Y312053D02*
X301114D01*
Y300147D01*
X313020D01*
Y312053D01*
D02*
G37*
G36*
X266000Y328141D02*
X264352Y328011D01*
X262745Y327625D01*
X261218Y326993D01*
X259809Y326129D01*
X258552Y325056D01*
X257479Y323799D01*
X256615Y322390D01*
X255983Y320863D01*
X255597Y319256D01*
X255468Y317608D01*
X255597Y315961D01*
X255983Y314353D01*
X256615Y312826D01*
X257479Y311417D01*
X258552Y310161D01*
X259809Y309087D01*
X261218Y308224D01*
X262745Y307591D01*
X264352Y307205D01*
X266000Y307076D01*
X267648Y307205D01*
X269255Y307591D01*
X270782Y308224D01*
X272191Y309087D01*
X273448Y310161D01*
X274521Y311417D01*
X275384Y312826D01*
X276017Y314353D01*
X276403Y315961D01*
X276533Y317608D01*
X276403Y319256D01*
X276017Y320863D01*
X275384Y322390D01*
X274521Y323799D01*
X273448Y325056D01*
X272191Y326129D01*
X270782Y326993D01*
X269255Y327625D01*
X267648Y328011D01*
X266000Y328141D01*
D02*
G37*
G36*
X489000Y304964D02*
Y302000D01*
X491964D01*
X491910Y302414D01*
X491557Y303265D01*
X490996Y303996D01*
X490265Y304557D01*
X489414Y304910D01*
X489000Y304964D01*
D02*
G37*
G36*
X488000D02*
X487586Y304910D01*
X486735Y304557D01*
X486004Y303996D01*
X485443Y303265D01*
X485090Y302414D01*
X485036Y302000D01*
X488000D01*
Y304964D01*
D02*
G37*
G36*
X184500Y299331D02*
X184019Y299267D01*
X183106Y298889D01*
X182321Y298287D01*
X181719Y297502D01*
X181341Y296589D01*
X181278Y296108D01*
X184500D01*
Y299331D01*
D02*
G37*
G36*
X188723Y295108D02*
X185500D01*
Y291886D01*
X185980Y291949D01*
X186894Y292327D01*
X187679Y292929D01*
X188281Y293714D01*
X188659Y294628D01*
X188723Y295108D01*
D02*
G37*
G36*
X184500D02*
X181278D01*
X181341Y294628D01*
X181719Y293714D01*
X182321Y292929D01*
X183106Y292327D01*
X184019Y291949D01*
X184500Y291886D01*
Y295108D01*
D02*
G37*
G36*
X185500Y299331D02*
Y296108D01*
X188723D01*
X188659Y296589D01*
X188281Y297502D01*
X187679Y298287D01*
X186894Y298889D01*
X185980Y299267D01*
X185500Y299331D01*
D02*
G37*
G36*
X491964Y301000D02*
X489000D01*
Y298036D01*
X489414Y298090D01*
X490265Y298443D01*
X490996Y299004D01*
X491557Y299735D01*
X491910Y300586D01*
X491964Y301000D01*
D02*
G37*
G36*
X488000D02*
X485036D01*
X485090Y300586D01*
X485443Y299735D01*
X486004Y299004D01*
X486735Y298443D01*
X487586Y298090D01*
X488000Y298036D01*
Y301000D01*
D02*
G37*
G36*
X403500Y318532D02*
X401852Y318403D01*
X400245Y318017D01*
X398718Y317385D01*
X397309Y316521D01*
X396052Y315448D01*
X394979Y314191D01*
X394115Y312782D01*
X393483Y311255D01*
X393097Y309648D01*
X392968Y308000D01*
X393097Y306352D01*
X393483Y304745D01*
X394115Y303218D01*
X394979Y301809D01*
X396052Y300552D01*
X397309Y299479D01*
X398718Y298616D01*
X400245Y297983D01*
X401852Y297597D01*
X403500Y297467D01*
X405148Y297597D01*
X406755Y297983D01*
X408282Y298616D01*
X409691Y299479D01*
X410948Y300552D01*
X412021Y301809D01*
X412885Y303218D01*
X413517Y304745D01*
X413903Y306352D01*
X414033Y308000D01*
X413903Y309648D01*
X413517Y311255D01*
X412885Y312782D01*
X412021Y314191D01*
X410948Y315448D01*
X409691Y316521D01*
X408282Y317385D01*
X406755Y318017D01*
X405148Y318403D01*
X403500Y318532D01*
D02*
G37*
G36*
X434000Y332500D02*
X431036D01*
X431090Y332086D01*
X431443Y331235D01*
X432004Y330504D01*
X432735Y329943D01*
X433586Y329590D01*
X434000Y329536D01*
Y332500D01*
D02*
G37*
G36*
X422492Y332000D02*
X414500D01*
Y324008D01*
X415666Y324123D01*
X417269Y324609D01*
X418745Y325398D01*
X420040Y326461D01*
X421102Y327755D01*
X421891Y329231D01*
X422377Y330834D01*
X422492Y332000D01*
D02*
G37*
G36*
X413500D02*
X405508D01*
X405623Y330834D01*
X406109Y329231D01*
X406898Y327755D01*
X407961Y326461D01*
X409255Y325398D01*
X410732Y324609D01*
X412334Y324123D01*
X413500Y324008D01*
Y332000D01*
D02*
G37*
G36*
X437964Y332500D02*
X435000D01*
Y329536D01*
X435414Y329590D01*
X436265Y329943D01*
X436996Y330504D01*
X437557Y331235D01*
X437910Y332086D01*
X437964Y332500D01*
D02*
G37*
G36*
X414500Y340992D02*
Y333000D01*
X422492D01*
X422377Y334166D01*
X421891Y335769D01*
X421102Y337245D01*
X420040Y338540D01*
X418745Y339602D01*
X417269Y340391D01*
X415666Y340877D01*
X414500Y340992D01*
D02*
G37*
G36*
X413500D02*
X412334Y340877D01*
X410732Y340391D01*
X409255Y339602D01*
X407961Y338540D01*
X406898Y337245D01*
X406109Y335769D01*
X405623Y334166D01*
X405508Y333000D01*
X413500D01*
Y340992D01*
D02*
G37*
G36*
X298500Y343529D02*
X297324Y343413D01*
X296193Y343070D01*
X295150Y342513D01*
X294237Y341763D01*
X293487Y340849D01*
X292930Y339807D01*
X292587Y338676D01*
X292471Y337500D01*
X292587Y336324D01*
X292930Y335193D01*
X293487Y334151D01*
X294237Y333237D01*
X295150Y332487D01*
X296193Y331930D01*
X297324Y331587D01*
X298500Y331471D01*
X299676Y331587D01*
X300807Y331930D01*
X301850Y332487D01*
X302763Y333237D01*
X303513Y334151D01*
X304070Y335193D01*
X304413Y336324D01*
X304529Y337500D01*
X304413Y338676D01*
X304070Y339807D01*
X303513Y340849D01*
X302763Y341763D01*
X301850Y342513D01*
X300807Y343070D01*
X299676Y343413D01*
X298500Y343529D01*
D02*
G37*
G36*
X474500Y331032D02*
X472852Y330903D01*
X471245Y330517D01*
X469718Y329885D01*
X468309Y329021D01*
X467052Y327948D01*
X465979Y326691D01*
X465115Y325282D01*
X464483Y323755D01*
X464097Y322148D01*
X463968Y320500D01*
X464097Y318852D01*
X464483Y317245D01*
X465115Y315718D01*
X465979Y314309D01*
X467052Y313052D01*
X468309Y311979D01*
X469718Y311116D01*
X471245Y310483D01*
X472852Y310097D01*
X474500Y309967D01*
X476148Y310097D01*
X477755Y310483D01*
X479282Y311116D01*
X480691Y311979D01*
X481948Y313052D01*
X483021Y314309D01*
X483884Y315718D01*
X484517Y317245D01*
X484903Y318852D01*
X485033Y320500D01*
X484903Y322148D01*
X484517Y323755D01*
X483884Y325282D01*
X483021Y326691D01*
X481948Y327948D01*
X480691Y329021D01*
X479282Y329885D01*
X477755Y330517D01*
X476148Y330903D01*
X474500Y331032D01*
D02*
G37*
G36*
X444000Y315992D02*
Y308000D01*
X451992D01*
X451877Y309166D01*
X451391Y310769D01*
X450602Y312245D01*
X449540Y313540D01*
X448245Y314602D01*
X446769Y315391D01*
X445166Y315877D01*
X444000Y315992D01*
D02*
G37*
G36*
X443000D02*
X441834Y315877D01*
X440232Y315391D01*
X438755Y314602D01*
X437461Y313540D01*
X436398Y312245D01*
X435609Y310769D01*
X435123Y309166D01*
X435008Y308000D01*
X443000D01*
Y315992D01*
D02*
G37*
G36*
X383953Y330453D02*
X372047D01*
Y318547D01*
X383953D01*
Y330453D01*
D02*
G37*
G36*
X318500Y333529D02*
X317324Y333413D01*
X316193Y333070D01*
X315150Y332513D01*
X314237Y331763D01*
X313487Y330850D01*
X312930Y329807D01*
X312587Y328676D01*
X312471Y327500D01*
X312587Y326324D01*
X312930Y325193D01*
X313487Y324150D01*
X314237Y323237D01*
X315150Y322487D01*
X316193Y321930D01*
X317324Y321587D01*
X318500Y321471D01*
X319676Y321587D01*
X320807Y321930D01*
X321849Y322487D01*
X322763Y323237D01*
X323513Y324150D01*
X324070Y325193D01*
X324413Y326324D01*
X324529Y327500D01*
X324413Y328676D01*
X324070Y329807D01*
X323513Y330850D01*
X322763Y331763D01*
X321849Y332513D01*
X320807Y333070D01*
X319676Y333413D01*
X318500Y333529D01*
D02*
G37*
G36*
X454000Y342532D02*
X452352Y342403D01*
X450745Y342017D01*
X449218Y341385D01*
X447809Y340521D01*
X446552Y339448D01*
X445479Y338191D01*
X444616Y336782D01*
X443983Y335255D01*
X443597Y333648D01*
X443468Y332000D01*
X443597Y330352D01*
X443983Y328745D01*
X444616Y327218D01*
X445479Y325809D01*
X446552Y324552D01*
X447809Y323479D01*
X449218Y322616D01*
X450745Y321983D01*
X452352Y321597D01*
X454000Y321467D01*
X455648Y321597D01*
X457255Y321983D01*
X458782Y322616D01*
X460191Y323479D01*
X461448Y324552D01*
X462521Y325809D01*
X463384Y327218D01*
X464017Y328745D01*
X464403Y330352D01*
X464533Y332000D01*
X464403Y333648D01*
X464017Y335255D01*
X463384Y336782D01*
X462521Y338191D01*
X461448Y339448D01*
X460191Y340521D01*
X458782Y341385D01*
X457255Y342017D01*
X455648Y342403D01*
X454000Y342532D01*
D02*
G37*
G36*
X185000Y331414D02*
X183497Y331216D01*
X182097Y330636D01*
X180895Y329713D01*
X179972Y328511D01*
X179392Y327111D01*
X179194Y325608D01*
X179392Y324106D01*
X179972Y322705D01*
X180895Y321503D01*
X182097Y320580D01*
X183497Y320000D01*
X185000Y319803D01*
X186503Y320000D01*
X187903Y320580D01*
X189105Y321503D01*
X190028Y322705D01*
X190608Y324106D01*
X190806Y325608D01*
X190608Y327111D01*
X190028Y328511D01*
X189105Y329713D01*
X187903Y330636D01*
X186503Y331216D01*
X185000Y331414D01*
D02*
G37*
G36*
X185500Y227831D02*
Y224608D01*
X188723D01*
X188659Y225089D01*
X188281Y226002D01*
X187679Y226787D01*
X186894Y227389D01*
X185980Y227767D01*
X185500Y227831D01*
D02*
G37*
G36*
X184500D02*
X184019Y227767D01*
X183106Y227389D01*
X182321Y226787D01*
X181719Y226002D01*
X181341Y225089D01*
X181278Y224608D01*
X184500D01*
Y227831D01*
D02*
G37*
G36*
X188723Y223608D02*
X185500D01*
Y220386D01*
X185980Y220449D01*
X186894Y220827D01*
X187679Y221429D01*
X188281Y222214D01*
X188659Y223128D01*
X188723Y223608D01*
D02*
G37*
G36*
X266000Y256641D02*
X264352Y256511D01*
X262745Y256125D01*
X261218Y255493D01*
X259809Y254629D01*
X258552Y253556D01*
X257479Y252299D01*
X256615Y250890D01*
X255983Y249363D01*
X255597Y247756D01*
X255468Y246108D01*
X255597Y244461D01*
X255983Y242853D01*
X256615Y241326D01*
X257479Y239917D01*
X258552Y238661D01*
X259809Y237587D01*
X261218Y236724D01*
X262745Y236091D01*
X264352Y235705D01*
X266000Y235576D01*
X267648Y235705D01*
X269255Y236091D01*
X270782Y236724D01*
X272191Y237587D01*
X273448Y238661D01*
X274521Y239917D01*
X275384Y241326D01*
X276017Y242853D01*
X276403Y244461D01*
X276533Y246108D01*
X276403Y247756D01*
X276017Y249363D01*
X275384Y250890D01*
X274521Y252299D01*
X273448Y253556D01*
X272191Y254629D01*
X270782Y255493D01*
X269255Y256125D01*
X267648Y256511D01*
X266000Y256641D01*
D02*
G37*
G36*
X497740Y257485D02*
X494776D01*
Y254520D01*
X495189Y254575D01*
X496041Y254927D01*
X496772Y255488D01*
X497333Y256219D01*
X497685Y257071D01*
X497740Y257485D01*
D02*
G37*
G36*
X493776D02*
X490811D01*
X490866Y257071D01*
X491218Y256219D01*
X491779Y255488D01*
X492511Y254927D01*
X493362Y254575D01*
X493776Y254520D01*
Y257485D01*
D02*
G37*
G36*
X185000Y259914D02*
X183497Y259716D01*
X182097Y259136D01*
X180895Y258213D01*
X179972Y257011D01*
X179392Y255611D01*
X179194Y254108D01*
X179392Y252606D01*
X179972Y251205D01*
X180895Y250003D01*
X182097Y249080D01*
X183497Y248500D01*
X185000Y248303D01*
X186503Y248500D01*
X187903Y249080D01*
X189105Y250003D01*
X190028Y251205D01*
X190608Y252606D01*
X190806Y254108D01*
X190608Y255611D01*
X190028Y257011D01*
X189105Y258213D01*
X187903Y259136D01*
X186503Y259716D01*
X185000Y259914D01*
D02*
G37*
G36*
X265000Y205608D02*
X257008D01*
X257123Y204442D01*
X257609Y202840D01*
X258398Y201363D01*
X259460Y200069D01*
X260755Y199006D01*
X262231Y198217D01*
X263834Y197731D01*
X265000Y197616D01*
Y205608D01*
D02*
G37*
G36*
X194020Y206061D02*
X182114D01*
Y194155D01*
X194020D01*
Y206061D01*
D02*
G37*
G36*
X233933Y206090D02*
X232766Y205975D01*
X231644Y205634D01*
X230610Y205082D01*
X229703Y204338D01*
X228960Y203431D01*
X228407Y202397D01*
X228066Y201275D01*
X227952Y200108D01*
X228066Y198941D01*
X228407Y197819D01*
X228960Y196785D01*
X229703Y195879D01*
X230610Y195135D01*
X231644Y194582D01*
X232766Y194241D01*
X233933Y194127D01*
X235100Y194241D01*
X236222Y194582D01*
X237256Y195135D01*
X238163Y195879D01*
X238907Y196785D01*
X239459Y197819D01*
X239800Y198941D01*
X239915Y200108D01*
X239800Y201275D01*
X239459Y202397D01*
X238907Y203431D01*
X238163Y204338D01*
X237256Y205082D01*
X236222Y205634D01*
X235100Y205975D01*
X233933Y206090D01*
D02*
G37*
G36*
X273992Y205608D02*
X266000D01*
Y197616D01*
X267166Y197731D01*
X268769Y198217D01*
X270245Y199006D01*
X271539Y200069D01*
X272602Y201363D01*
X273391Y202840D01*
X273877Y204442D01*
X273992Y205608D01*
D02*
G37*
G36*
X184500Y223608D02*
X181278D01*
X181341Y223128D01*
X181719Y222214D01*
X182321Y221429D01*
X183106Y220827D01*
X184019Y220449D01*
X184500Y220386D01*
Y223608D01*
D02*
G37*
G36*
X266000Y214600D02*
Y206608D01*
X273992D01*
X273877Y207774D01*
X273391Y209377D01*
X272602Y210853D01*
X271539Y212148D01*
X270245Y213210D01*
X268769Y213999D01*
X267166Y214485D01*
X266000Y214600D01*
D02*
G37*
G36*
X265000D02*
X263834Y214485D01*
X262231Y213999D01*
X260755Y213210D01*
X259460Y212148D01*
X258398Y210853D01*
X257609Y209377D01*
X257123Y207774D01*
X257008Y206608D01*
X265000D01*
Y214600D01*
D02*
G37*
G36*
X273992Y277108D02*
X266000D01*
Y269116D01*
X267166Y269231D01*
X268769Y269717D01*
X270245Y270507D01*
X271539Y271569D01*
X272602Y272863D01*
X273391Y274340D01*
X273877Y275942D01*
X273992Y277108D01*
D02*
G37*
G36*
X265000D02*
X257008D01*
X257123Y275942D01*
X257609Y274340D01*
X258398Y272863D01*
X259460Y271569D01*
X260755Y270507D01*
X262231Y269717D01*
X263834Y269231D01*
X265000Y269116D01*
Y277108D01*
D02*
G37*
G36*
X194020Y277561D02*
X182114D01*
Y265655D01*
X194020D01*
Y277561D01*
D02*
G37*
G36*
X445376Y274119D02*
X444331Y273982D01*
X443826Y273772D01*
X443320Y273982D01*
X442276Y274119D01*
X441231Y273982D01*
X440726Y273772D01*
X440220Y273982D01*
X439176Y274119D01*
X438131Y273982D01*
X437158Y273579D01*
X436323Y272937D01*
X435682Y272102D01*
X435279Y271129D01*
X435141Y270085D01*
X435279Y269040D01*
X435488Y268534D01*
X435279Y268029D01*
X435141Y266985D01*
X435279Y265940D01*
X435488Y265435D01*
X435279Y264929D01*
X435141Y263884D01*
X435279Y262840D01*
X435682Y261867D01*
X436323Y261032D01*
X437158Y260390D01*
X438131Y259987D01*
X439176Y259850D01*
X440220Y259987D01*
X440726Y260197D01*
X441231Y259987D01*
X442276Y259850D01*
X443320Y259987D01*
X443826Y260197D01*
X444331Y259987D01*
X445376Y259850D01*
X446420Y259987D01*
X447393Y260390D01*
X448228Y261032D01*
X448870Y261867D01*
X449273Y262840D01*
X449410Y263884D01*
X449273Y264929D01*
X449063Y265435D01*
X449273Y265940D01*
X449410Y266985D01*
X449273Y268029D01*
X449063Y268534D01*
X449273Y269040D01*
X449410Y270085D01*
X449273Y271129D01*
X448870Y272102D01*
X448228Y272937D01*
X447393Y273579D01*
X446420Y273982D01*
X445376Y274119D01*
D02*
G37*
G36*
X266000Y286100D02*
Y278108D01*
X273992D01*
X273877Y279274D01*
X273391Y280877D01*
X272602Y282353D01*
X271539Y283648D01*
X270245Y284710D01*
X268769Y285499D01*
X267166Y285985D01*
X266000Y286100D01*
D02*
G37*
G36*
X265000D02*
X263834Y285985D01*
X262231Y285499D01*
X260755Y284710D01*
X259460Y283648D01*
X258398Y282353D01*
X257609Y280877D01*
X257123Y279274D01*
X257008Y278108D01*
X265000D01*
Y286100D01*
D02*
G37*
G36*
X315600Y274134D02*
X314556Y273997D01*
X314050Y273788D01*
X313544Y273997D01*
X312500Y274134D01*
X311456Y273997D01*
X310950Y273788D01*
X310444Y273997D01*
X309400Y274134D01*
X308356Y273997D01*
X307383Y273594D01*
X306547Y272953D01*
X305906Y272117D01*
X305503Y271144D01*
X305365Y270100D01*
X305503Y269056D01*
X305712Y268550D01*
X305503Y268044D01*
X305365Y267000D01*
X305503Y265956D01*
X305712Y265450D01*
X305503Y264944D01*
X305365Y263900D01*
X305503Y262856D01*
X305906Y261883D01*
X306547Y261047D01*
X307383Y260406D01*
X308356Y260003D01*
X309400Y259865D01*
X310444Y260003D01*
X310950Y260212D01*
X311456Y260003D01*
X312500Y259865D01*
X313544Y260003D01*
X314050Y260212D01*
X314556Y260003D01*
X315600Y259865D01*
X316644Y260003D01*
X317617Y260406D01*
X318453Y261047D01*
X319094Y261883D01*
X319497Y262856D01*
X319635Y263900D01*
X319497Y264944D01*
X319288Y265450D01*
X319497Y265956D01*
X319635Y267000D01*
X319497Y268044D01*
X319288Y268550D01*
X319497Y269056D01*
X319635Y270100D01*
X319497Y271144D01*
X319094Y272117D01*
X318453Y272953D01*
X317617Y273594D01*
X316644Y273997D01*
X315600Y274134D01*
D02*
G37*
G36*
X493776Y261449D02*
X493362Y261394D01*
X492511Y261042D01*
X491779Y260481D01*
X491218Y259750D01*
X490866Y258898D01*
X490811Y258485D01*
X493776D01*
Y261449D01*
D02*
G37*
G36*
X367964Y257500D02*
X365000D01*
Y254536D01*
X365414Y254590D01*
X366265Y254943D01*
X366996Y255504D01*
X367557Y256235D01*
X367910Y257086D01*
X367964Y257500D01*
D02*
G37*
G36*
X364000D02*
X361036D01*
X361090Y257086D01*
X361443Y256235D01*
X362004Y255504D01*
X362735Y254943D01*
X363586Y254590D01*
X364000Y254536D01*
Y257500D01*
D02*
G37*
G36*
X494776Y261449D02*
Y258485D01*
X497740D01*
X497685Y258898D01*
X497333Y259750D01*
X496772Y260481D01*
X496041Y261042D01*
X495189Y261394D01*
X494776Y261449D01*
D02*
G37*
G36*
X233933Y277590D02*
X232766Y277475D01*
X231644Y277134D01*
X230610Y276582D01*
X229703Y275838D01*
X228960Y274931D01*
X228407Y273897D01*
X228066Y272775D01*
X227952Y271608D01*
X228066Y270441D01*
X228407Y269319D01*
X228960Y268285D01*
X229703Y267379D01*
X230610Y266635D01*
X231644Y266082D01*
X232766Y265741D01*
X233933Y265627D01*
X235100Y265741D01*
X236222Y266082D01*
X237256Y266635D01*
X238163Y267379D01*
X238907Y268285D01*
X239459Y269319D01*
X239800Y270441D01*
X239915Y271608D01*
X239800Y272775D01*
X239459Y273897D01*
X238907Y274931D01*
X238163Y275838D01*
X237256Y276582D01*
X236222Y277134D01*
X235100Y277475D01*
X233933Y277590D01*
D02*
G37*
G36*
X365000Y261464D02*
Y258500D01*
X367964D01*
X367910Y258914D01*
X367557Y259765D01*
X366996Y260496D01*
X366265Y261057D01*
X365414Y261410D01*
X365000Y261464D01*
D02*
G37*
G36*
X364000D02*
X363586Y261410D01*
X362735Y261057D01*
X362004Y260496D01*
X361443Y259765D01*
X361090Y258914D01*
X361036Y258500D01*
X364000D01*
Y261464D01*
D02*
G37*
G36*
X488473Y403500D02*
X484500D01*
Y399527D01*
X485175Y399616D01*
X486269Y400069D01*
X487209Y400791D01*
X487931Y401731D01*
X488384Y402825D01*
X488473Y403500D01*
D02*
G37*
G36*
X474000Y410532D02*
X472726Y410406D01*
X471500Y410034D01*
X470371Y409431D01*
X469382Y408618D01*
X468569Y407629D01*
X467966Y406499D01*
X467594Y405274D01*
X467469Y404000D01*
X467594Y402726D01*
X467966Y401501D01*
X468569Y400371D01*
X469382Y399382D01*
X470371Y398569D01*
X471500Y397966D01*
X472726Y397594D01*
X474000Y397469D01*
X475274Y397594D01*
X476500Y397966D01*
X477629Y398569D01*
X478618Y399382D01*
X479431Y400371D01*
X479862Y401179D01*
X480455Y401228D01*
X480791Y400791D01*
X481731Y400069D01*
X482825Y399616D01*
X483500Y399527D01*
Y404000D01*
Y408473D01*
X482825Y408384D01*
X481731Y407931D01*
X480791Y407209D01*
X480455Y406773D01*
X479862Y406821D01*
X479431Y407629D01*
X478618Y408618D01*
X477629Y409431D01*
X476500Y410034D01*
X475274Y410406D01*
X474000Y410532D01*
D02*
G37*
G36*
X375964Y401000D02*
X373000D01*
Y398036D01*
X373414Y398090D01*
X374265Y398443D01*
X374996Y399004D01*
X375557Y399735D01*
X375910Y400586D01*
X375964Y401000D01*
D02*
G37*
G36*
X372000Y404964D02*
X371586Y404910D01*
X370735Y404557D01*
X370004Y403996D01*
X369443Y403265D01*
X369090Y402414D01*
X369036Y402000D01*
X372000D01*
Y404964D01*
D02*
G37*
G36*
X310500Y417306D02*
X308997Y417108D01*
X307597Y416528D01*
X306395Y415605D01*
X305472Y414403D01*
X304892Y413003D01*
X304694Y411500D01*
X304892Y409997D01*
X305472Y408597D01*
X306395Y407395D01*
X307597Y406472D01*
X308997Y405892D01*
X310500Y405694D01*
X312003Y405892D01*
X313403Y406472D01*
X314605Y407395D01*
X315528Y408597D01*
X316108Y409997D01*
X316306Y411500D01*
X316108Y413003D01*
X315528Y414403D01*
X314605Y415605D01*
X313403Y416528D01*
X312003Y417108D01*
X310500Y417306D01*
D02*
G37*
G36*
X484500Y408473D02*
Y404500D01*
X488473D01*
X488384Y405175D01*
X487931Y406269D01*
X487209Y407209D01*
X486269Y407931D01*
X485175Y408384D01*
X484500Y408473D01*
D02*
G37*
G36*
X373000Y404964D02*
Y402000D01*
X375964D01*
X375910Y402414D01*
X375557Y403265D01*
X374996Y403996D01*
X374265Y404557D01*
X373414Y404910D01*
X373000Y404964D01*
D02*
G37*
G36*
X184500Y370831D02*
X184019Y370767D01*
X183106Y370389D01*
X182321Y369787D01*
X181719Y369002D01*
X181341Y368089D01*
X181278Y367608D01*
X184500D01*
Y370831D01*
D02*
G37*
G36*
X188723Y366608D02*
X185500D01*
Y363386D01*
X185980Y363449D01*
X186894Y363827D01*
X187679Y364429D01*
X188281Y365214D01*
X188659Y366128D01*
X188723Y366608D01*
D02*
G37*
G36*
X184500D02*
X181278D01*
X181341Y366128D01*
X181719Y365214D01*
X182321Y364429D01*
X183106Y363827D01*
X184019Y363449D01*
X184500Y363386D01*
Y366608D01*
D02*
G37*
G36*
X185500Y370831D02*
Y367608D01*
X188723D01*
X188659Y368089D01*
X188281Y369002D01*
X187679Y369787D01*
X186894Y370389D01*
X185980Y370767D01*
X185500Y370831D01*
D02*
G37*
G36*
X372000Y401000D02*
X369036D01*
X369090Y400586D01*
X369443Y399735D01*
X370004Y399004D01*
X370735Y398443D01*
X371586Y398090D01*
X372000Y398036D01*
Y401000D01*
D02*
G37*
G36*
X185000Y402914D02*
X183497Y402716D01*
X182097Y402136D01*
X180895Y401213D01*
X179972Y400011D01*
X179392Y398611D01*
X179194Y397108D01*
X179392Y395606D01*
X179972Y394205D01*
X180895Y393003D01*
X182097Y392080D01*
X183497Y391500D01*
X185000Y391303D01*
X186503Y391500D01*
X187903Y392080D01*
X189105Y393003D01*
X190028Y394205D01*
X190608Y395606D01*
X190806Y397108D01*
X190608Y398611D01*
X190028Y400011D01*
X189105Y401213D01*
X187903Y402136D01*
X186503Y402716D01*
X185000Y402914D01*
D02*
G37*
G36*
X266000Y399641D02*
X264352Y399511D01*
X262745Y399125D01*
X261218Y398493D01*
X259809Y397629D01*
X258552Y396556D01*
X257479Y395299D01*
X256615Y393890D01*
X255983Y392363D01*
X255597Y390756D01*
X255468Y389108D01*
X255597Y387460D01*
X255983Y385854D01*
X256615Y384327D01*
X257479Y382917D01*
X258552Y381661D01*
X259809Y380587D01*
X261218Y379724D01*
X262745Y379091D01*
X264352Y378705D01*
X266000Y378576D01*
X267648Y378705D01*
X269255Y379091D01*
X270782Y379724D01*
X272191Y380587D01*
X273448Y381661D01*
X274521Y382917D01*
X275384Y384327D01*
X276017Y385854D01*
X276403Y387460D01*
X276533Y389108D01*
X276403Y390756D01*
X276017Y392363D01*
X275384Y393890D01*
X274521Y395299D01*
X273448Y396556D01*
X272191Y397629D01*
X270782Y398493D01*
X269255Y399125D01*
X267648Y399511D01*
X266000Y399641D01*
D02*
G37*
G36*
X188723Y438000D02*
X185500D01*
Y434777D01*
X185980Y434841D01*
X186894Y435219D01*
X187679Y435821D01*
X188281Y436606D01*
X188659Y437520D01*
X188723Y438000D01*
D02*
G37*
G36*
X184500D02*
X181278D01*
X181341Y437520D01*
X181719Y436606D01*
X182321Y435821D01*
X183106Y435219D01*
X184019Y434841D01*
X184500Y434777D01*
Y438000D01*
D02*
G37*
G36*
X266000Y428992D02*
Y421000D01*
X273992D01*
X273877Y422166D01*
X273391Y423769D01*
X272602Y425245D01*
X271539Y426540D01*
X270245Y427602D01*
X268769Y428391D01*
X267166Y428877D01*
X266000Y428992D01*
D02*
G37*
G36*
X184500Y442222D02*
X184019Y442159D01*
X183106Y441781D01*
X182321Y441179D01*
X181719Y440394D01*
X181341Y439480D01*
X181278Y439000D01*
X184500D01*
Y442222D01*
D02*
G37*
G36*
X185000Y474306D02*
X183497Y474108D01*
X182097Y473528D01*
X180895Y472605D01*
X179972Y471403D01*
X179392Y470003D01*
X179194Y468500D01*
X179392Y466997D01*
X179972Y465597D01*
X180895Y464395D01*
X182097Y463472D01*
X183497Y462892D01*
X185000Y462694D01*
X186503Y462892D01*
X187903Y463472D01*
X189105Y464395D01*
X190028Y465597D01*
X190608Y466997D01*
X190806Y468500D01*
X190608Y470003D01*
X190028Y471403D01*
X189105Y472605D01*
X187903Y473528D01*
X186503Y474108D01*
X185000Y474306D01*
D02*
G37*
G36*
X266000Y471032D02*
X264352Y470903D01*
X262745Y470517D01*
X261218Y469884D01*
X259809Y469021D01*
X258552Y467948D01*
X257479Y466691D01*
X256615Y465282D01*
X255983Y463755D01*
X255597Y462148D01*
X255468Y460500D01*
X255597Y458852D01*
X255983Y457245D01*
X256615Y455718D01*
X257479Y454309D01*
X258552Y453052D01*
X259809Y451979D01*
X261218Y451116D01*
X262745Y450483D01*
X264352Y450097D01*
X266000Y449967D01*
X267648Y450097D01*
X269255Y450483D01*
X270782Y451116D01*
X272191Y451979D01*
X273448Y453052D01*
X274521Y454309D01*
X275384Y455718D01*
X276017Y457245D01*
X276403Y458852D01*
X276533Y460500D01*
X276403Y462148D01*
X276017Y463755D01*
X275384Y465282D01*
X274521Y466691D01*
X273448Y467948D01*
X272191Y469021D01*
X270782Y469884D01*
X269255Y470517D01*
X267648Y470903D01*
X266000Y471032D01*
D02*
G37*
G36*
X185500Y442222D02*
Y439000D01*
X188723D01*
X188659Y439480D01*
X188281Y440394D01*
X187679Y441179D01*
X186894Y441781D01*
X185980Y442159D01*
X185500Y442222D01*
D02*
G37*
G36*
X233933Y420481D02*
X232766Y420367D01*
X231644Y420026D01*
X230610Y419474D01*
X229703Y418730D01*
X228960Y417823D01*
X228407Y416789D01*
X228066Y415667D01*
X227952Y414500D01*
X228066Y413333D01*
X228407Y412211D01*
X228960Y411177D01*
X229703Y410270D01*
X230610Y409526D01*
X231644Y408974D01*
X232766Y408633D01*
X233933Y408518D01*
X235100Y408633D01*
X236222Y408974D01*
X237256Y409526D01*
X238163Y410270D01*
X238907Y411177D01*
X239459Y412211D01*
X239800Y413333D01*
X239915Y414500D01*
X239800Y415667D01*
X239459Y416789D01*
X238907Y417823D01*
X238163Y418730D01*
X237256Y419474D01*
X236222Y420026D01*
X235100Y420367D01*
X233933Y420481D01*
D02*
G37*
G36*
X512000Y410032D02*
X510726Y409906D01*
X509501Y409534D01*
X508371Y408931D01*
X507382Y408118D01*
X507250Y407958D01*
X506750D01*
X506618Y408118D01*
X505629Y408931D01*
X504499Y409534D01*
X503274Y409906D01*
X502000Y410032D01*
X500726Y409906D01*
X499501Y409534D01*
X498371Y408931D01*
X497382Y408118D01*
X496569Y407129D01*
X495966Y406000D01*
X495594Y404774D01*
X495469Y403500D01*
X495594Y402226D01*
X495966Y401000D01*
X496569Y399871D01*
X497382Y398882D01*
X498371Y398069D01*
X499501Y397466D01*
X500726Y397094D01*
X502000Y396969D01*
X503274Y397094D01*
X504499Y397466D01*
X505629Y398069D01*
X506618Y398882D01*
X506750Y399042D01*
X507250D01*
X507382Y398882D01*
X508371Y398069D01*
X509501Y397466D01*
X510726Y397094D01*
X512000Y396969D01*
X513274Y397094D01*
X514500Y397466D01*
X515629Y398069D01*
X516618Y398882D01*
X517431Y399871D01*
X518034Y401000D01*
X518406Y402226D01*
X518532Y403500D01*
X518406Y404774D01*
X518034Y406000D01*
X517431Y407129D01*
X516618Y408118D01*
X515629Y408931D01*
X514500Y409534D01*
X513274Y409906D01*
X512000Y410032D01*
D02*
G37*
G36*
X340500Y417306D02*
X338997Y417108D01*
X337597Y416528D01*
X336395Y415605D01*
X335472Y414403D01*
X334892Y413003D01*
X334694Y411500D01*
X334892Y409997D01*
X335472Y408597D01*
X336395Y407395D01*
X337597Y406472D01*
X338997Y405892D01*
X340500Y405694D01*
X342003Y405892D01*
X343403Y406472D01*
X344605Y407395D01*
X345528Y408597D01*
X346108Y409997D01*
X346306Y411500D01*
X346108Y413003D01*
X345528Y414403D01*
X344605Y415605D01*
X343403Y416528D01*
X342003Y417108D01*
X340500Y417306D01*
D02*
G37*
G36*
X194020Y420453D02*
X182114D01*
Y408547D01*
X194020D01*
Y420453D01*
D02*
G37*
G36*
X265000Y428992D02*
X263834Y428877D01*
X262231Y428391D01*
X260755Y427602D01*
X259460Y426540D01*
X258398Y425245D01*
X257609Y423769D01*
X257123Y422166D01*
X257008Y421000D01*
X265000D01*
Y428992D01*
D02*
G37*
G36*
X273992Y420000D02*
X266000D01*
Y412008D01*
X267166Y412123D01*
X268769Y412609D01*
X270245Y413398D01*
X271539Y414461D01*
X272602Y415755D01*
X273391Y417232D01*
X273877Y418834D01*
X273992Y420000D01*
D02*
G37*
G36*
X265000D02*
X257008D01*
X257123Y418834D01*
X257609Y417232D01*
X258398Y415755D01*
X259460Y414461D01*
X260755Y413398D01*
X262231Y412609D01*
X263834Y412123D01*
X265000Y412008D01*
Y420000D01*
D02*
G37*
G36*
X366000Y386749D02*
X364512Y386553D01*
X363125Y385979D01*
X361935Y385065D01*
X361021Y383875D01*
X360447Y382488D01*
X360251Y381000D01*
X360447Y379512D01*
X361021Y378125D01*
X361935Y376935D01*
X362742Y376315D01*
Y375685D01*
X361935Y375065D01*
X361021Y373875D01*
X360447Y372488D01*
X360251Y371000D01*
X360447Y369512D01*
X361021Y368125D01*
X361935Y366935D01*
X362742Y366315D01*
Y365685D01*
X361935Y365065D01*
X361021Y363875D01*
X360447Y362488D01*
X360251Y361000D01*
X360447Y359512D01*
X361021Y358125D01*
X361935Y356935D01*
X362742Y356315D01*
Y355685D01*
X361935Y355065D01*
X361021Y353875D01*
X360447Y352488D01*
X360251Y351000D01*
X360447Y349512D01*
X361021Y348125D01*
X361935Y346935D01*
X363125Y346021D01*
X364512Y345447D01*
X366000Y345251D01*
X367488Y345447D01*
X368875Y346021D01*
X370065Y346935D01*
X370979Y348125D01*
X371553Y349512D01*
X371749Y351000D01*
X371553Y352488D01*
X370979Y353875D01*
X370065Y355065D01*
X369258Y355685D01*
Y356315D01*
X370065Y356935D01*
X370979Y358125D01*
X371553Y359512D01*
X371749Y361000D01*
X371553Y362488D01*
X370979Y363875D01*
X370065Y365065D01*
X369258Y365685D01*
Y366315D01*
X370065Y366935D01*
X370979Y368125D01*
X371553Y369512D01*
X371749Y371000D01*
X371553Y372488D01*
X370979Y373875D01*
X370065Y375065D01*
X369258Y375685D01*
Y376315D01*
X370065Y376935D01*
X370979Y378125D01*
X371553Y379512D01*
X371749Y381000D01*
X371553Y382488D01*
X370979Y383875D01*
X370065Y385065D01*
X368875Y385979D01*
X367488Y386553D01*
X366000Y386749D01*
D02*
G37*
G36*
X400964Y345500D02*
X398000D01*
Y342536D01*
X398414Y342590D01*
X399265Y342943D01*
X399996Y343504D01*
X400557Y344235D01*
X400910Y345086D01*
X400964Y345500D01*
D02*
G37*
G36*
X397000D02*
X394036D01*
X394090Y345086D01*
X394443Y344235D01*
X395004Y343504D01*
X395735Y342943D01*
X396586Y342590D01*
X397000Y342536D01*
Y345500D01*
D02*
G37*
G36*
Y349464D02*
X396586Y349410D01*
X395735Y349057D01*
X395004Y348496D01*
X394443Y347765D01*
X394090Y346914D01*
X394036Y346500D01*
X397000D01*
Y349464D01*
D02*
G37*
G36*
X339666Y350500D02*
X336500D01*
Y347334D01*
X336966Y347395D01*
X337866Y347768D01*
X338639Y348361D01*
X339232Y349134D01*
X339605Y350034D01*
X339666Y350500D01*
D02*
G37*
G36*
X335500D02*
X332334D01*
X332395Y350034D01*
X332768Y349134D01*
X333361Y348361D01*
X334134Y347768D01*
X335034Y347395D01*
X335500Y347334D01*
Y350500D01*
D02*
G37*
G36*
X398000Y349464D02*
Y346500D01*
X400964D01*
X400910Y346914D01*
X400557Y347765D01*
X399996Y348496D01*
X399265Y349057D01*
X398414Y349410D01*
X398000Y349464D01*
D02*
G37*
G36*
X233933Y349090D02*
X232766Y348975D01*
X231644Y348634D01*
X230610Y348082D01*
X229703Y347338D01*
X228960Y346431D01*
X228407Y345397D01*
X228066Y344275D01*
X227952Y343108D01*
X228066Y341941D01*
X228407Y340819D01*
X228960Y339785D01*
X229703Y338879D01*
X230610Y338135D01*
X231644Y337582D01*
X232766Y337242D01*
X233933Y337127D01*
X235100Y337242D01*
X236222Y337582D01*
X237256Y338135D01*
X238163Y338879D01*
X238907Y339785D01*
X239459Y340819D01*
X239800Y341941D01*
X239915Y343108D01*
X239800Y344275D01*
X239459Y345397D01*
X238907Y346431D01*
X238163Y347338D01*
X237256Y348082D01*
X236222Y348634D01*
X235100Y348975D01*
X233933Y349090D01*
D02*
G37*
G36*
X435000Y336464D02*
Y333500D01*
X437964D01*
X437910Y333914D01*
X437557Y334765D01*
X436996Y335496D01*
X436265Y336057D01*
X435414Y336410D01*
X435000Y336464D01*
D02*
G37*
G36*
X434000D02*
X433586Y336410D01*
X432735Y336057D01*
X432004Y335496D01*
X431443Y334765D01*
X431090Y333914D01*
X431036Y333500D01*
X434000D01*
Y336464D01*
D02*
G37*
G36*
X194020Y349061D02*
X182114D01*
Y337155D01*
X194020D01*
Y349061D01*
D02*
G37*
G36*
X318500Y353529D02*
X317324Y353413D01*
X316193Y353070D01*
X315150Y352513D01*
X314237Y351763D01*
X313487Y350850D01*
X312930Y349807D01*
X312587Y348676D01*
X312471Y347500D01*
X312587Y346324D01*
X312930Y345193D01*
X313487Y344150D01*
X314237Y343237D01*
X315150Y342487D01*
X316193Y341930D01*
X317324Y341587D01*
X318500Y341471D01*
X319676Y341587D01*
X320807Y341930D01*
X321849Y342487D01*
X322763Y343237D01*
X323513Y344150D01*
X324070Y345193D01*
X324413Y346324D01*
X324529Y347500D01*
X324413Y348676D01*
X324070Y349807D01*
X323513Y350850D01*
X322763Y351763D01*
X321849Y352513D01*
X320807Y353070D01*
X319676Y353413D01*
X318500Y353529D01*
D02*
G37*
G36*
X273992Y348608D02*
X266000D01*
Y340616D01*
X267166Y340731D01*
X268769Y341217D01*
X270245Y342006D01*
X271539Y343069D01*
X272602Y344363D01*
X273391Y345840D01*
X273877Y347442D01*
X273992Y348608D01*
D02*
G37*
G36*
X265000D02*
X257008D01*
X257123Y347442D01*
X257609Y345840D01*
X258398Y344363D01*
X259460Y343069D01*
X260755Y342006D01*
X262231Y341217D01*
X263834Y340731D01*
X265000Y340616D01*
Y348608D01*
D02*
G37*
G36*
X341700Y386700D02*
X330300D01*
Y375300D01*
X331485D01*
X331731Y374800D01*
X331021Y373875D01*
X330447Y372488D01*
X330251Y371000D01*
X330447Y369512D01*
X331021Y368125D01*
X331935Y366935D01*
X332742Y366315D01*
Y365685D01*
X331935Y365065D01*
X331021Y363875D01*
X330447Y362488D01*
X330251Y361000D01*
X330447Y359512D01*
X331021Y358125D01*
X331935Y356935D01*
X333125Y356021D01*
X334512Y355447D01*
X336000Y355251D01*
X337488Y355447D01*
X338875Y356021D01*
X340065Y356935D01*
X340979Y358125D01*
X341553Y359512D01*
X341749Y361000D01*
X341553Y362488D01*
X340979Y363875D01*
X340065Y365065D01*
X339258Y365685D01*
Y366315D01*
X340065Y366935D01*
X340979Y368125D01*
X341553Y369512D01*
X341749Y371000D01*
X341553Y372488D01*
X340979Y373875D01*
X340269Y374800D01*
X340515Y375300D01*
X341700D01*
Y386700D01*
D02*
G37*
G36*
X483492Y360000D02*
X475500D01*
Y352008D01*
X476666Y352123D01*
X478268Y352609D01*
X479745Y353398D01*
X481039Y354461D01*
X482102Y355755D01*
X482891Y357231D01*
X483377Y358834D01*
X483492Y360000D01*
D02*
G37*
G36*
X474500D02*
X466508D01*
X466623Y358834D01*
X467109Y357231D01*
X467898Y355755D01*
X468961Y354461D01*
X470255Y353398D01*
X471732Y352609D01*
X473334Y352123D01*
X474500Y352008D01*
Y360000D01*
D02*
G37*
G36*
X445500Y366492D02*
X444334Y366377D01*
X442732Y365891D01*
X441255Y365102D01*
X439960Y364039D01*
X438898Y362745D01*
X438109Y361269D01*
X437623Y359666D01*
X437508Y358500D01*
X445500D01*
Y366492D01*
D02*
G37*
G36*
X475500Y368992D02*
Y361000D01*
X483492D01*
X483377Y362166D01*
X482891Y363769D01*
X482102Y365245D01*
X481039Y366540D01*
X479745Y367602D01*
X478268Y368391D01*
X476666Y368877D01*
X475500Y368992D01*
D02*
G37*
G36*
X474500D02*
X473334Y368877D01*
X471732Y368391D01*
X470255Y367602D01*
X468961Y366540D01*
X467898Y365245D01*
X467109Y363769D01*
X466623Y362166D01*
X466508Y361000D01*
X474500D01*
Y368992D01*
D02*
G37*
G36*
X446500Y366492D02*
Y358500D01*
X454492D01*
X454377Y359666D01*
X453891Y361269D01*
X453102Y362745D01*
X452039Y364039D01*
X450745Y365102D01*
X449268Y365891D01*
X447666Y366377D01*
X446500Y366492D01*
D02*
G37*
G36*
X454492Y357500D02*
X446500D01*
Y349508D01*
X447666Y349623D01*
X449268Y350109D01*
X450745Y350898D01*
X452039Y351960D01*
X453102Y353255D01*
X453891Y354731D01*
X454377Y356334D01*
X454492Y357500D01*
D02*
G37*
G36*
X445500D02*
X437508D01*
X437623Y356334D01*
X438109Y354731D01*
X438898Y353255D01*
X439960Y351960D01*
X441255Y350898D01*
X442732Y350109D01*
X444334Y349623D01*
X445500Y349508D01*
Y357500D01*
D02*
G37*
G36*
X406000Y369033D02*
X404352Y368903D01*
X402745Y368517D01*
X401218Y367884D01*
X399809Y367021D01*
X398552Y365948D01*
X397479Y364691D01*
X396616Y363282D01*
X395983Y361755D01*
X395597Y360148D01*
X395467Y358500D01*
X395597Y356852D01*
X395983Y355245D01*
X396616Y353718D01*
X397479Y352309D01*
X398552Y351052D01*
X399809Y349979D01*
X401218Y349115D01*
X402745Y348483D01*
X404352Y348097D01*
X406000Y347968D01*
X407648Y348097D01*
X409255Y348483D01*
X410782Y349115D01*
X412191Y349979D01*
X413448Y351052D01*
X414521Y352309D01*
X415384Y353718D01*
X416017Y355245D01*
X416403Y356852D01*
X416533Y358500D01*
X416403Y360148D01*
X416017Y361755D01*
X415384Y363282D01*
X414521Y364691D01*
X413448Y365948D01*
X412191Y367021D01*
X410782Y367884D01*
X409255Y368517D01*
X407648Y368903D01*
X406000Y369033D01*
D02*
G37*
G36*
X265000Y357600D02*
X263834Y357485D01*
X262231Y356999D01*
X260755Y356210D01*
X259460Y355148D01*
X258398Y353853D01*
X257609Y352377D01*
X257123Y350774D01*
X257008Y349608D01*
X265000D01*
Y357600D01*
D02*
G37*
G36*
X336500Y354666D02*
Y351500D01*
X339666D01*
X339605Y351966D01*
X339232Y352866D01*
X338639Y353639D01*
X337866Y354232D01*
X336966Y354605D01*
X336500Y354666D01*
D02*
G37*
G36*
X335500D02*
X335034Y354605D01*
X334134Y354232D01*
X333361Y353639D01*
X332768Y352866D01*
X332395Y351966D01*
X332334Y351500D01*
X335500D01*
Y354666D01*
D02*
G37*
G36*
X266000Y357600D02*
Y349608D01*
X273992D01*
X273877Y350774D01*
X273391Y352377D01*
X272602Y353853D01*
X271539Y355148D01*
X270245Y356210D01*
X268769Y356999D01*
X267166Y357485D01*
X266000Y357600D01*
D02*
G37*
%LPD*%
D29*
X378000Y324500D02*
D03*
X307067Y306100D02*
D03*
X188067Y414500D02*
D03*
Y343108D02*
D03*
Y271608D02*
D03*
Y200108D02*
D03*
D30*
X529000Y198500D02*
D03*
X296000D02*
D03*
X168840Y196500D02*
D03*
X156500Y477000D02*
D03*
X296000D02*
D03*
X529000Y475500D02*
D03*
D31*
X512000Y403500D02*
D03*
X502000D02*
D03*
X484000Y404000D02*
D03*
X474000D02*
D03*
D32*
X352933Y306100D02*
D03*
X233933Y414500D02*
D03*
Y343108D02*
D03*
Y271608D02*
D03*
Y200108D02*
D03*
D33*
X336000Y381000D02*
D03*
D34*
Y371000D02*
D03*
Y361000D02*
D03*
Y351000D02*
D03*
X366000D02*
D03*
Y361000D02*
D03*
Y371000D02*
D03*
Y381000D02*
D03*
D35*
X406000Y358500D02*
D03*
X446000Y358000D02*
D03*
X474500Y320500D02*
D03*
X475000Y360500D02*
D03*
X403500Y308000D02*
D03*
X443500Y307500D02*
D03*
X454000Y332000D02*
D03*
X414000Y332500D02*
D03*
X265500Y420500D02*
D03*
X266000Y460500D02*
D03*
X265500Y349108D02*
D03*
X266000Y389108D02*
D03*
X265500Y277608D02*
D03*
X266000Y317608D02*
D03*
X265500Y206108D02*
D03*
X266000Y246108D02*
D03*
D36*
X373500Y467500D02*
D03*
X473500D02*
D03*
D37*
X318500Y347500D02*
D03*
Y327500D02*
D03*
X298500Y337500D02*
D03*
D38*
X445376Y263884D02*
D03*
X442276D02*
D03*
X439176D02*
D03*
X445376Y266985D02*
D03*
X442276D02*
D03*
X439176D02*
D03*
X445376Y270085D02*
D03*
X442276D02*
D03*
X439176D02*
D03*
X315600Y263900D02*
D03*
X312500D02*
D03*
X309400D02*
D03*
X315600Y267000D02*
D03*
X312500D02*
D03*
X309400D02*
D03*
X315600Y270100D02*
D03*
X312500D02*
D03*
X309400D02*
D03*
D39*
X340500Y411500D02*
D03*
X310500D02*
D03*
X185000Y438500D02*
D03*
Y468500D02*
D03*
Y367108D02*
D03*
Y397108D02*
D03*
Y295608D02*
D03*
Y325608D02*
D03*
Y224108D02*
D03*
Y254108D02*
D03*
D40*
X488500Y301500D02*
D03*
X364500Y258000D02*
D03*
X494276Y257984D02*
D03*
X434500Y333000D02*
D03*
X397500Y346000D02*
D03*
X372500Y401500D02*
D03*
M02*
