G04 Layer_Color=16711935*
%FSLAX25Y25*%
%MOIN*%
G70*
G01*
G75*
%ADD63R,0.06706X0.06706*%
%ADD64C,0.06800*%
%ADD65C,0.07800*%
%ADD66C,0.06706*%
%ADD67R,0.06200X0.06200*%
%ADD68C,0.06200*%
%ADD69C,0.15800*%
G04:AMPARAMS|DCode=70|XSize=298mil|YSize=88mil|CornerRadius=24mil|HoleSize=0mil|Usage=FLASHONLY|Rotation=90.000|XOffset=0mil|YOffset=0mil|HoleType=Round|Shape=RoundedRectangle|*
%AMROUNDEDRECTD70*
21,1,0.29800,0.04000,0,0,90.0*
21,1,0.25000,0.08800,0,0,90.0*
1,1,0.04800,0.02000,0.12500*
1,1,0.04800,0.02000,-0.12500*
1,1,0.04800,-0.02000,-0.12500*
1,1,0.04800,-0.02000,0.12500*
%
%ADD70ROUNDEDRECTD70*%
%ADD71C,0.06800*%
%ADD72C,0.02800*%
%ADD73C,0.06312*%
%ADD74C,0.05800*%
D63*
X378000Y324500D02*
D03*
X307067Y306100D02*
D03*
X188067Y414500D02*
D03*
Y343108D02*
D03*
Y271608D02*
D03*
Y200108D02*
D03*
D64*
X529000Y198500D02*
D03*
X296000D02*
D03*
X168840Y196500D02*
D03*
X156500Y477000D02*
D03*
X296000D02*
D03*
X529000Y475500D02*
D03*
D65*
X512000Y403500D02*
D03*
X502000D02*
D03*
X484000Y404000D02*
D03*
X474000D02*
D03*
D66*
X352933Y306100D02*
D03*
X233933Y414500D02*
D03*
Y343108D02*
D03*
Y271608D02*
D03*
Y200108D02*
D03*
D67*
X336000Y381000D02*
D03*
D68*
Y371000D02*
D03*
Y361000D02*
D03*
Y351000D02*
D03*
X366000D02*
D03*
Y361000D02*
D03*
Y371000D02*
D03*
Y381000D02*
D03*
D69*
X406000Y358500D02*
D03*
X446000Y358000D02*
D03*
X474500Y320500D02*
D03*
X475000Y360500D02*
D03*
X403500Y308000D02*
D03*
X443500Y307500D02*
D03*
X454000Y332000D02*
D03*
X414000Y332500D02*
D03*
X265500Y420500D02*
D03*
X266000Y460500D02*
D03*
X265500Y349108D02*
D03*
X266000Y389108D02*
D03*
X265500Y277608D02*
D03*
X266000Y317608D02*
D03*
X265500Y206108D02*
D03*
X266000Y246108D02*
D03*
D70*
X373500Y467500D02*
D03*
X473500D02*
D03*
D71*
X318500Y347500D02*
D03*
Y327500D02*
D03*
X298500Y337500D02*
D03*
D72*
X445376Y263884D02*
D03*
X442276D02*
D03*
X439176D02*
D03*
X445376Y266985D02*
D03*
X442276D02*
D03*
X439176D02*
D03*
X445376Y270085D02*
D03*
X442276D02*
D03*
X439176D02*
D03*
X315600Y263900D02*
D03*
X312500D02*
D03*
X309400D02*
D03*
X315600Y267000D02*
D03*
X312500D02*
D03*
X309400D02*
D03*
X315600Y270100D02*
D03*
X312500D02*
D03*
X309400D02*
D03*
D73*
X340500Y411500D02*
D03*
X310500D02*
D03*
X185000Y438500D02*
D03*
Y468500D02*
D03*
Y367108D02*
D03*
Y397108D02*
D03*
Y295608D02*
D03*
Y325608D02*
D03*
Y224108D02*
D03*
Y254108D02*
D03*
D74*
X488500Y301500D02*
D03*
X364500Y258000D02*
D03*
X494276Y257984D02*
D03*
X434500Y333000D02*
D03*
X397500Y346000D02*
D03*
X372500Y401500D02*
D03*
M02*
