G04 Layer_Color=65535*
%FSLAX25Y25*%
%MOIN*%
G70*
G01*
G75*
%ADD24C,0.01000*%
%ADD40C,0.00984*%
%ADD41C,0.00500*%
%ADD42C,0.00600*%
%ADD43C,0.00787*%
%ADD44C,0.00300*%
G36*
X177949Y76297D02*
X176949D01*
Y77797D01*
X177949D01*
Y76297D01*
D02*
G37*
G36*
X307724Y76281D02*
X306724D01*
Y77781D01*
X307724D01*
Y76281D01*
D02*
G37*
G36*
X156051Y78266D02*
X155051D01*
Y79765D01*
X156051D01*
Y78266D01*
D02*
G37*
G36*
X285827Y78250D02*
X284827D01*
Y79750D01*
X285827D01*
Y78250D01*
D02*
G37*
D24*
X231099Y155598D02*
X229099D01*
X230099D01*
Y150600D01*
X229099Y149600D01*
X228100D01*
X227100Y150600D01*
X233098Y149600D02*
X235097D01*
X234098D01*
Y155598D01*
X233098Y154598D01*
X150100Y166900D02*
Y172898D01*
X153099D01*
X154099Y171898D01*
Y169899D01*
X153099Y168899D01*
X150100D01*
X152099D02*
X154099Y166900D01*
X156098D02*
X158097D01*
X157098D01*
Y172898D01*
X156098Y171898D01*
X296002Y190764D02*
X301000D01*
X302000Y191764D01*
Y193763D01*
X301000Y194763D01*
X296002D01*
Y200761D02*
Y196762D01*
X299001D01*
X298001Y198761D01*
Y199761D01*
X299001Y200761D01*
X301000D01*
X302000Y199761D01*
Y197762D01*
X301000Y196762D01*
X210450Y144450D02*
Y150448D01*
X213449D01*
X214449Y149448D01*
Y147449D01*
X213449Y146449D01*
X210450D01*
X212449D02*
X214449Y144450D01*
X216448D02*
X218447D01*
X217448D01*
Y150448D01*
X216448Y149448D01*
X224446Y144450D02*
Y150448D01*
X221446Y147449D01*
X225445D01*
X215052Y270549D02*
X214052Y269549D01*
Y267550D01*
X215052Y266550D01*
X216051D01*
X217051Y267550D01*
Y269549D01*
X218051Y270549D01*
X219050D01*
X220050Y269549D01*
Y267550D01*
X219050Y266550D01*
X220050Y272548D02*
Y274547D01*
Y273548D01*
X214052D01*
X215052Y272548D01*
X189050Y211850D02*
Y217848D01*
X192049D01*
X193049Y216848D01*
Y214849D01*
X192049Y213849D01*
X189050D01*
X191049D02*
X193049Y211850D01*
X198047D02*
Y217848D01*
X195048Y214849D01*
X199047D01*
X285876Y101183D02*
X289874Y97184D01*
X285876D02*
X289874Y101183D01*
X285876Y99183D02*
X289874D01*
X287875Y97184D02*
Y101183D01*
X291874Y95185D02*
X295872D01*
X297872Y102183D02*
X301870D01*
X299871D01*
Y96184D01*
X303870D02*
Y102183D01*
X306869D01*
X307869Y101183D01*
Y99183D01*
X306869Y98184D01*
X303870D01*
X313867Y101183D02*
X312867Y102183D01*
X310868D01*
X309868Y101183D01*
Y100183D01*
X310868Y99183D01*
X312867D01*
X313867Y98184D01*
Y97184D01*
X312867Y96184D01*
X310868D01*
X309868Y97184D01*
X319865Y102183D02*
X315866D01*
Y99183D01*
X317865Y100183D01*
X318865D01*
X319865Y99183D01*
Y97184D01*
X318865Y96184D01*
X316866D01*
X315866Y97184D01*
X156100Y101198D02*
X160099Y97200D01*
X156100D02*
X160099Y101198D01*
X156100Y99199D02*
X160099D01*
X158099Y97200D02*
Y101198D01*
X162098Y95200D02*
X166097D01*
X168096Y102198D02*
X172095D01*
X170096D01*
Y96200D01*
X174094D02*
Y102198D01*
X177093D01*
X178093Y101198D01*
Y99199D01*
X177093Y98199D01*
X174094D01*
X184091Y101198D02*
X183091Y102198D01*
X181092D01*
X180092Y101198D01*
Y100199D01*
X181092Y99199D01*
X183091D01*
X184091Y98199D01*
Y97200D01*
X183091Y96200D01*
X181092D01*
X180092Y97200D01*
X190089Y102198D02*
X188090Y101198D01*
X186090Y99199D01*
Y97200D01*
X187090Y96200D01*
X189089D01*
X190089Y97200D01*
Y98199D01*
X189089Y99199D01*
X186090D01*
X80350Y279948D02*
Y274950D01*
X81350Y273950D01*
X83349D01*
X84349Y274950D01*
Y279948D01*
X86348Y278948D02*
X87348Y279948D01*
X89347D01*
X90347Y278948D01*
Y277949D01*
X89347Y276949D01*
X88347D01*
X89347D01*
X90347Y275949D01*
Y274950D01*
X89347Y273950D01*
X87348D01*
X86348Y274950D01*
X92346Y272950D02*
X96345D01*
X99344Y273950D02*
X101343D01*
X102343Y274950D01*
Y276949D01*
X101343Y277949D01*
X99344D01*
X98344Y276949D01*
Y274950D01*
X99344Y273950D01*
X104342Y277949D02*
Y273950D01*
Y275949D01*
X105342Y276949D01*
X106342Y277949D01*
X107341D01*
X110340Y273950D02*
X112340D01*
X111340D01*
Y277949D01*
X110340D01*
X115339Y273950D02*
Y277949D01*
X118338D01*
X119337Y276949D01*
Y273950D01*
X123336Y271951D02*
X124336D01*
X125335Y272950D01*
Y277949D01*
X122336D01*
X121337Y276949D01*
Y274950D01*
X122336Y273950D01*
X125335D01*
X127335D02*
Y277949D01*
X129334Y279948D01*
X131333Y277949D01*
Y273950D01*
Y276949D01*
X127335D01*
X80350Y208556D02*
Y203558D01*
X81350Y202558D01*
X83349D01*
X84349Y203558D01*
Y208556D01*
X86348Y207557D02*
X87348Y208556D01*
X89347D01*
X90347Y207557D01*
Y206557D01*
X89347Y205557D01*
X88347D01*
X89347D01*
X90347Y204557D01*
Y203558D01*
X89347Y202558D01*
X87348D01*
X86348Y203558D01*
X92346Y201558D02*
X96345D01*
X99344Y202558D02*
X101343D01*
X102343Y203558D01*
Y205557D01*
X101343Y206557D01*
X99344D01*
X98344Y205557D01*
Y203558D01*
X99344Y202558D01*
X104342Y206557D02*
Y202558D01*
Y204557D01*
X105342Y205557D01*
X106342Y206557D01*
X107341D01*
X110340Y202558D02*
X112340D01*
X111340D01*
Y206557D01*
X110340D01*
X115339Y202558D02*
Y206557D01*
X118338D01*
X119337Y205557D01*
Y202558D01*
X123336Y200559D02*
X124336D01*
X125335Y201558D01*
Y206557D01*
X122336D01*
X121337Y205557D01*
Y203558D01*
X122336Y202558D01*
X125335D01*
X127335Y208556D02*
Y202558D01*
X130334D01*
X131333Y203558D01*
Y204557D01*
X130334Y205557D01*
X127335D01*
X130334D01*
X131333Y206557D01*
Y207557D01*
X130334Y208556D01*
X127335D01*
X80350Y137056D02*
Y132058D01*
X81350Y131058D01*
X83349D01*
X84349Y132058D01*
Y137056D01*
X86348Y136056D02*
X87348Y137056D01*
X89347D01*
X90347Y136056D01*
Y135057D01*
X89347Y134057D01*
X88347D01*
X89347D01*
X90347Y133057D01*
Y132058D01*
X89347Y131058D01*
X87348D01*
X86348Y132058D01*
X92346Y130059D02*
X96345D01*
X99344Y131058D02*
X101343D01*
X102343Y132058D01*
Y134057D01*
X101343Y135057D01*
X99344D01*
X98344Y134057D01*
Y132058D01*
X99344Y131058D01*
X104342Y135057D02*
Y131058D01*
Y133057D01*
X105342Y134057D01*
X106342Y135057D01*
X107341D01*
X110340Y131058D02*
X112340D01*
X111340D01*
Y135057D01*
X110340D01*
X115339Y131058D02*
Y135057D01*
X118338D01*
X119337Y134057D01*
Y131058D01*
X123336Y129059D02*
X124336D01*
X125335Y130059D01*
Y135057D01*
X122336D01*
X121337Y134057D01*
Y132058D01*
X122336Y131058D01*
X125335D01*
X131333Y136056D02*
X130334Y137056D01*
X128334D01*
X127335Y136056D01*
Y132058D01*
X128334Y131058D01*
X130334D01*
X131333Y132058D01*
X80350Y65556D02*
Y60558D01*
X81350Y59558D01*
X83349D01*
X84349Y60558D01*
Y65556D01*
X86348Y64556D02*
X87348Y65556D01*
X89347D01*
X90347Y64556D01*
Y63557D01*
X89347Y62557D01*
X88347D01*
X89347D01*
X90347Y61558D01*
Y60558D01*
X89347Y59558D01*
X87348D01*
X86348Y60558D01*
X92346Y58558D02*
X96345D01*
X99344Y59558D02*
X101343D01*
X102343Y60558D01*
Y62557D01*
X101343Y63557D01*
X99344D01*
X98344Y62557D01*
Y60558D01*
X99344Y59558D01*
X104342Y63557D02*
Y59558D01*
Y61558D01*
X105342Y62557D01*
X106342Y63557D01*
X107341D01*
X110340Y59558D02*
X112340D01*
X111340D01*
Y63557D01*
X110340D01*
X115339Y59558D02*
Y63557D01*
X118338D01*
X119337Y62557D01*
Y59558D01*
X123336Y57559D02*
X124336D01*
X125335Y58558D01*
Y63557D01*
X122336D01*
X121337Y62557D01*
Y60558D01*
X122336Y59558D01*
X125335D01*
X127335Y65556D02*
Y59558D01*
X130334D01*
X131333Y60558D01*
Y64556D01*
X130334Y65556D01*
X127335D01*
D40*
X232492Y145571D02*
G03*
X232492Y145571I-492J0D01*
G01*
D41*
X390000Y257500D02*
G03*
X371000Y257500I-9500J0D01*
G01*
X364000Y287500D02*
G03*
X345000Y287500I-9500J0D01*
G01*
X368500Y212000D02*
X373000D01*
Y222000D01*
X388000D01*
Y212000D02*
Y222000D01*
Y212000D02*
X392500D01*
X371000Y247500D02*
Y257500D01*
X390000Y247500D02*
Y257500D01*
X368500Y212000D02*
Y247500D01*
X392500D01*
Y212000D02*
Y247500D01*
X342500Y242000D02*
X347000D01*
Y252000D01*
X362000D01*
Y242000D02*
Y252000D01*
Y242000D02*
X366500D01*
X345000Y277500D02*
Y287500D01*
X364000Y277500D02*
Y287500D01*
X342500Y242000D02*
Y277500D01*
X366500D01*
Y242000D02*
Y277500D01*
X164500Y226500D02*
X163833D01*
X164167D01*
Y224501D01*
X164500Y224834D01*
X284517Y204550D02*
X285850D01*
X284517Y203217D01*
Y202884D01*
X284850Y202551D01*
X285517D01*
X285850Y202884D01*
X356917Y106484D02*
X357250Y106151D01*
X357917D01*
X358250Y106484D01*
Y107817D01*
X357917Y108150D01*
X357250D01*
X356917Y107817D01*
X356251Y108150D02*
X355584D01*
X355917D01*
Y106151D01*
X356251Y106484D01*
X335016Y192417D02*
X335349Y192750D01*
Y193417D01*
X335016Y193750D01*
X333683D01*
X333350Y193417D01*
Y192750D01*
X333683Y192417D01*
X333350Y190418D02*
Y191751D01*
X334683Y190418D01*
X335016D01*
X335349Y190751D01*
Y191417D01*
X335016Y191751D01*
X247516Y163417D02*
X247849Y163750D01*
Y164417D01*
X247516Y164750D01*
X246183D01*
X245850Y164417D01*
Y163750D01*
X246183Y163417D01*
X247516Y162751D02*
X247849Y162417D01*
Y161751D01*
X247516Y161418D01*
X247183D01*
X246850Y161751D01*
Y162084D01*
Y161751D01*
X246516Y161418D01*
X246183D01*
X245850Y161751D01*
Y162417D01*
X246183Y162751D01*
X156484Y239583D02*
X156151Y239250D01*
Y238583D01*
X156484Y238250D01*
X157817D01*
X158150Y238583D01*
Y239250D01*
X157817Y239583D01*
X158150Y241249D02*
X156151D01*
X157150Y240249D01*
Y241582D01*
X14484Y245983D02*
X14151Y245650D01*
Y244983D01*
X14484Y244650D01*
X15817D01*
X16150Y244983D01*
Y245650D01*
X15817Y245983D01*
X14151Y247982D02*
Y246649D01*
X15150D01*
X14817Y247316D01*
Y247649D01*
X15150Y247982D01*
X15817D01*
X16150Y247649D01*
Y246983D01*
X15817Y246649D01*
X16483Y248649D02*
Y249982D01*
X16150Y250981D02*
Y251648D01*
X15817Y251981D01*
X15150D01*
X14817Y251648D01*
Y250981D01*
X15150Y250648D01*
X15817D01*
X16150Y250981D01*
X14817Y252647D02*
X16150D01*
X15484D01*
X15150Y252981D01*
X14817Y253314D01*
Y253647D01*
X16150Y254647D02*
Y255313D01*
Y254980D01*
X14817D01*
Y254647D01*
X16150Y256313D02*
X14817D01*
Y257313D01*
X15150Y257646D01*
X16150D01*
X16816Y258979D02*
Y259312D01*
X16483Y259645D01*
X14817D01*
Y258646D01*
X15150Y258312D01*
X15817D01*
X16150Y258646D01*
Y259645D01*
Y260312D02*
X14817D01*
X14151Y260978D01*
X14817Y261645D01*
X16150D01*
X15150D01*
Y260312D01*
X14484Y174591D02*
X14151Y174258D01*
Y173591D01*
X14484Y173258D01*
X15817D01*
X16150Y173591D01*
Y174258D01*
X15817Y174591D01*
X14151Y176590D02*
Y175258D01*
X15150D01*
X14817Y175924D01*
Y176257D01*
X15150Y176590D01*
X15817D01*
X16150Y176257D01*
Y175591D01*
X15817Y175258D01*
X16483Y177257D02*
Y178590D01*
X16150Y179589D02*
Y180256D01*
X15817Y180589D01*
X15150D01*
X14817Y180256D01*
Y179589D01*
X15150Y179256D01*
X15817D01*
X16150Y179589D01*
X14817Y181256D02*
X16150D01*
X15484D01*
X15150Y181589D01*
X14817Y181922D01*
Y182255D01*
X16150Y183255D02*
Y183921D01*
Y183588D01*
X14817D01*
Y183255D01*
X16150Y184921D02*
X14817D01*
Y185921D01*
X15150Y186254D01*
X16150D01*
X16816Y187587D02*
Y187920D01*
X16483Y188253D01*
X14817D01*
Y187254D01*
X15150Y186920D01*
X15817D01*
X16150Y187254D01*
Y188253D01*
X14151Y188920D02*
X16150D01*
Y189919D01*
X15817Y190253D01*
X15484D01*
X15150Y189919D01*
Y188920D01*
Y189919D01*
X14817Y190253D01*
X14484D01*
X14151Y189919D01*
Y188920D01*
X14484Y103091D02*
X14151Y102758D01*
Y102091D01*
X14484Y101758D01*
X15817D01*
X16150Y102091D01*
Y102758D01*
X15817Y103091D01*
X14151Y105090D02*
Y103758D01*
X15150D01*
X14817Y104424D01*
Y104757D01*
X15150Y105090D01*
X15817D01*
X16150Y104757D01*
Y104091D01*
X15817Y103758D01*
X16483Y105757D02*
Y107090D01*
X16150Y108089D02*
Y108756D01*
X15817Y109089D01*
X15150D01*
X14817Y108756D01*
Y108089D01*
X15150Y107756D01*
X15817D01*
X16150Y108089D01*
X14817Y109756D02*
X16150D01*
X15484D01*
X15150Y110089D01*
X14817Y110422D01*
Y110755D01*
X16150Y111755D02*
Y112421D01*
Y112088D01*
X14817D01*
Y111755D01*
X16150Y113421D02*
X14817D01*
Y114421D01*
X15150Y114754D01*
X16150D01*
X16816Y116087D02*
Y116420D01*
X16483Y116753D01*
X14817D01*
Y115754D01*
X15150Y115420D01*
X15817D01*
X16150Y115754D01*
Y116753D01*
X14484Y118753D02*
X14151Y118419D01*
Y117753D01*
X14484Y117420D01*
X15817D01*
X16150Y117753D01*
Y118419D01*
X15817Y118753D01*
X14484Y31591D02*
X14151Y31258D01*
Y30591D01*
X14484Y30258D01*
X15817D01*
X16150Y30591D01*
Y31258D01*
X15817Y31591D01*
X14151Y33590D02*
Y32258D01*
X15150D01*
X14817Y32924D01*
Y33257D01*
X15150Y33590D01*
X15817D01*
X16150Y33257D01*
Y32591D01*
X15817Y32258D01*
X16483Y34257D02*
Y35590D01*
X16150Y36589D02*
Y37256D01*
X15817Y37589D01*
X15150D01*
X14817Y37256D01*
Y36589D01*
X15150Y36256D01*
X15817D01*
X16150Y36589D01*
X14817Y38256D02*
X16150D01*
X15484D01*
X15150Y38589D01*
X14817Y38922D01*
Y39255D01*
X16150Y40255D02*
Y40921D01*
Y40588D01*
X14817D01*
Y40255D01*
X16150Y41921D02*
X14817D01*
Y42921D01*
X15150Y43254D01*
X16150D01*
X16816Y44587D02*
Y44920D01*
X16483Y45253D01*
X14817D01*
Y44254D01*
X15150Y43920D01*
X15817D01*
X16150Y44254D01*
Y45253D01*
X14151Y45920D02*
X16150D01*
Y46919D01*
X15817Y47253D01*
X14484D01*
X14151Y46919D01*
Y45920D01*
X373442Y57152D02*
X373775Y57485D01*
Y58151D01*
X373442Y58485D01*
X372109D01*
X371776Y58151D01*
Y57485D01*
X372109Y57152D01*
X373775Y55152D02*
X373442Y55819D01*
X372775Y56485D01*
X372109D01*
X371776Y56152D01*
Y55485D01*
X372109Y55152D01*
X372442D01*
X372775Y55485D01*
Y56485D01*
X371442Y54486D02*
Y53153D01*
X373775Y52486D02*
Y51154D01*
Y51820D01*
X371776D01*
Y50487D02*
X373775D01*
Y49487D01*
X373442Y49154D01*
X372775D01*
X372442Y49487D01*
Y50487D01*
X373442Y47155D02*
X373775Y47488D01*
Y48155D01*
X373442Y48488D01*
X373109D01*
X372775Y48155D01*
Y47488D01*
X372442Y47155D01*
X372109D01*
X371776Y47488D01*
Y48155D01*
X372109Y48488D01*
X373775Y45156D02*
Y46488D01*
X372775D01*
X373109Y45822D01*
Y45489D01*
X372775Y45156D01*
X372109D01*
X371776Y45489D01*
Y46155D01*
X372109Y46488D01*
X243666Y57167D02*
X243999Y57500D01*
Y58167D01*
X243666Y58500D01*
X242333D01*
X242000Y58167D01*
Y57500D01*
X242333Y57167D01*
X243999Y55168D02*
X243666Y55834D01*
X243000Y56501D01*
X242333D01*
X242000Y56167D01*
Y55501D01*
X242333Y55168D01*
X242666D01*
X243000Y55501D01*
Y56501D01*
X241667Y54501D02*
Y53168D01*
X243999Y52502D02*
Y51169D01*
Y51836D01*
X242000D01*
Y50503D02*
X243999D01*
Y49503D01*
X243666Y49170D01*
X243000D01*
X242666Y49503D01*
Y50503D01*
X243666Y47170D02*
X243999Y47504D01*
Y48170D01*
X243666Y48503D01*
X243333D01*
X243000Y48170D01*
Y47504D01*
X242666Y47170D01*
X242333D01*
X242000Y47504D01*
Y48170D01*
X242333Y48503D01*
X243999Y45171D02*
X243666Y45838D01*
X243000Y46504D01*
X242333D01*
X242000Y46171D01*
Y45504D01*
X242333Y45171D01*
X242666D01*
X243000Y45504D01*
Y46504D01*
X330442Y92108D02*
X330775Y92441D01*
Y93108D01*
X330442Y93441D01*
X329109D01*
X328776Y93108D01*
Y92441D01*
X329109Y92108D01*
X330775Y91442D02*
Y90109D01*
X330442D01*
X329109Y91442D01*
X328776D01*
X328442Y89442D02*
Y88110D01*
X330775Y87443D02*
Y86110D01*
Y86777D01*
X328776D01*
Y85444D02*
X330775D01*
Y84444D01*
X330442Y84111D01*
X329775D01*
X329442Y84444D01*
Y85444D01*
X330442Y82112D02*
X330775Y82445D01*
Y83111D01*
X330442Y83444D01*
X330108D01*
X329775Y83111D01*
Y82445D01*
X329442Y82112D01*
X329109D01*
X328776Y82445D01*
Y83111D01*
X329109Y83444D01*
X330775Y80112D02*
Y81445D01*
X329775D01*
X330108Y80779D01*
Y80445D01*
X329775Y80112D01*
X329109D01*
X328776Y80445D01*
Y81112D01*
X329109Y81445D01*
X200666Y92124D02*
X200999Y92457D01*
Y93124D01*
X200666Y93457D01*
X199333D01*
X199000Y93124D01*
Y92457D01*
X199333Y92124D01*
X200999Y91457D02*
Y90124D01*
X200666D01*
X199333Y91457D01*
X199000D01*
X198667Y89458D02*
Y88125D01*
X200999Y87459D02*
Y86126D01*
Y86792D01*
X199000D01*
Y85459D02*
X200999D01*
Y84460D01*
X200666Y84126D01*
X200000D01*
X199666Y84460D01*
Y85459D01*
X200666Y82127D02*
X200999Y82460D01*
Y83127D01*
X200666Y83460D01*
X200333D01*
X200000Y83127D01*
Y82460D01*
X199666Y82127D01*
X199333D01*
X199000Y82460D01*
Y83127D01*
X199333Y83460D01*
X200999Y80128D02*
X200666Y80794D01*
X200000Y81461D01*
X199333D01*
X199000Y81127D01*
Y80461D01*
X199333Y80128D01*
X199666D01*
X200000Y80461D01*
Y81461D01*
X335610Y83774D02*
X335276Y83441D01*
Y82774D01*
X335610Y82441D01*
X336942D01*
X337276Y82774D01*
Y83441D01*
X336942Y83774D01*
X335610Y84441D02*
X335276Y84774D01*
Y85440D01*
X335610Y85773D01*
X335943D01*
X336276Y85440D01*
X336609Y85773D01*
X336942D01*
X337276Y85440D01*
Y84774D01*
X336942Y84441D01*
X336609D01*
X336276Y84774D01*
X335943Y84441D01*
X335610D01*
X336276Y84774D02*
Y85440D01*
X337609Y86440D02*
Y87773D01*
X335276Y88439D02*
Y89772D01*
Y89106D01*
X337276D01*
Y90439D02*
X335276D01*
Y91438D01*
X335610Y91772D01*
X336276D01*
X336609Y91438D01*
Y90439D01*
X335610Y93771D02*
X335276Y93438D01*
Y92771D01*
X335610Y92438D01*
X335943D01*
X336276Y92771D01*
Y93438D01*
X336609Y93771D01*
X336942D01*
X337276Y93438D01*
Y92771D01*
X336942Y92438D01*
X335276Y95770D02*
Y94437D01*
X336276D01*
X335943Y95104D01*
Y95437D01*
X336276Y95770D01*
X336942D01*
X337276Y95437D01*
Y94770D01*
X336942Y94437D01*
X205834Y83790D02*
X205501Y83456D01*
Y82790D01*
X205834Y82457D01*
X207167D01*
X207500Y82790D01*
Y83456D01*
X207167Y83790D01*
X205834Y84456D02*
X205501Y84789D01*
Y85456D01*
X205834Y85789D01*
X206167D01*
X206500Y85456D01*
X206834Y85789D01*
X207167D01*
X207500Y85456D01*
Y84789D01*
X207167Y84456D01*
X206834D01*
X206500Y84789D01*
X206167Y84456D01*
X205834D01*
X206500Y84789D02*
Y85456D01*
X207833Y86455D02*
Y87788D01*
X205501Y88455D02*
Y89788D01*
Y89121D01*
X207500D01*
Y90454D02*
X205501D01*
Y91454D01*
X205834Y91787D01*
X206500D01*
X206834Y91454D01*
Y90454D01*
X205834Y93786D02*
X205501Y93453D01*
Y92787D01*
X205834Y92453D01*
X206167D01*
X206500Y92787D01*
Y93453D01*
X206834Y93786D01*
X207167D01*
X207500Y93453D01*
Y92787D01*
X207167Y92453D01*
X205501Y95786D02*
X205834Y95119D01*
X206500Y94453D01*
X207167D01*
X207500Y94786D01*
Y95452D01*
X207167Y95786D01*
X206834D01*
X206500Y95452D01*
Y94453D01*
X306443Y42318D02*
X306776Y41985D01*
X307442D01*
X307776Y42318D01*
Y43651D01*
X307442Y43984D01*
X306776D01*
X306443Y43651D01*
X305776Y41985D02*
Y43984D01*
X304777D01*
X304443Y43651D01*
Y43318D01*
Y42985D01*
X304777Y42652D01*
X305776D01*
X303777Y43984D02*
X302777D01*
X302444Y43651D01*
X302777Y43318D01*
X303444D01*
X303777Y42985D01*
X303444Y42652D01*
X302444D01*
X301444Y42318D02*
Y42652D01*
X301778D01*
X301111D01*
X301444D01*
Y43651D01*
X301111Y43984D01*
X300111D02*
X299445D01*
X299778D01*
Y41985D01*
X300111Y42318D01*
X298445Y44318D02*
X297112D01*
X296446Y41985D02*
X295113D01*
X295779D01*
Y43984D01*
X294447D02*
Y41985D01*
X293447D01*
X293114Y42318D01*
Y42985D01*
X293447Y43318D01*
X294447D01*
X291114Y42318D02*
X291448Y41985D01*
X292114D01*
X292447Y42318D01*
Y42652D01*
X292114Y42985D01*
X291448D01*
X291114Y43318D01*
Y43651D01*
X291448Y43984D01*
X292114D01*
X292447Y43651D01*
X289115Y41985D02*
X290448D01*
Y42985D01*
X289781Y42652D01*
X289448D01*
X289115Y42985D01*
Y43651D01*
X289448Y43984D01*
X290115D01*
X290448Y43651D01*
X176667Y42334D02*
X177000Y42001D01*
X177667D01*
X178000Y42334D01*
Y43667D01*
X177667Y44000D01*
X177000D01*
X176667Y43667D01*
X176001Y42001D02*
Y44000D01*
X175001D01*
X174668Y43667D01*
Y43334D01*
Y43000D01*
X175001Y42667D01*
X176001D01*
X174001Y44000D02*
X173002D01*
X172668Y43667D01*
X173002Y43334D01*
X173668D01*
X174001Y43000D01*
X173668Y42667D01*
X172668D01*
X171669Y42334D02*
Y42667D01*
X172002D01*
X171335D01*
X171669D01*
Y43667D01*
X171335Y44000D01*
X170336D02*
X169669D01*
X170003D01*
Y42001D01*
X170336Y42334D01*
X168670Y44333D02*
X167337D01*
X166670Y42001D02*
X165337D01*
X166004D01*
Y44000D01*
X164671D02*
Y42001D01*
X163671D01*
X163338Y42334D01*
Y43000D01*
X163671Y43334D01*
X164671D01*
X161339Y42334D02*
X161672Y42001D01*
X162338D01*
X162672Y42334D01*
Y42667D01*
X162338Y43000D01*
X161672D01*
X161339Y43334D01*
Y43667D01*
X161672Y44000D01*
X162338D01*
X162672Y43667D01*
X159339Y42001D02*
X160006Y42334D01*
X160672Y43000D01*
Y43667D01*
X160339Y44000D01*
X159673D01*
X159339Y43667D01*
Y43334D01*
X159673Y43000D01*
X160672D01*
X293667Y103334D02*
X294000Y103001D01*
X294667D01*
X295000Y103334D01*
Y104667D01*
X294667Y105000D01*
X294000D01*
X293667Y104667D01*
X293001Y103001D02*
X292334D01*
X292667D01*
Y105000D01*
X293001D01*
X292334D01*
X291335D02*
Y103001D01*
X290002Y105000D01*
Y103001D01*
X289335Y105000D02*
X288669D01*
X289002D01*
Y103001D01*
X289335Y103334D01*
X287669Y105333D02*
X286336D01*
X285670Y103001D02*
X284337D01*
X285003D01*
Y105000D01*
X283670D02*
Y103001D01*
X282671D01*
X282337Y103334D01*
Y104000D01*
X282671Y104333D01*
X283670D01*
X280338Y103334D02*
X280671Y103001D01*
X281338D01*
X281671Y103334D01*
Y103667D01*
X281338Y104000D01*
X280671D01*
X280338Y104333D01*
Y104667D01*
X280671Y105000D01*
X281338D01*
X281671Y104667D01*
X278339Y103001D02*
X279672D01*
Y104000D01*
X279005Y103667D01*
X278672D01*
X278339Y104000D01*
Y104667D01*
X278672Y105000D01*
X279338D01*
X279672Y104667D01*
X164210Y103291D02*
X164544Y102957D01*
X165210D01*
X165543Y103291D01*
Y104623D01*
X165210Y104957D01*
X164544D01*
X164210Y104623D01*
X163544Y102957D02*
X162878D01*
X163211D01*
Y104957D01*
X163544D01*
X162878D01*
X161878D02*
Y102957D01*
X160545Y104957D01*
Y102957D01*
X159879Y104957D02*
X159212D01*
X159545D01*
Y102957D01*
X159879Y103291D01*
X158212Y105290D02*
X156879D01*
X156213Y102957D02*
X154880D01*
X155546D01*
Y104957D01*
X154214D02*
Y102957D01*
X153214D01*
X152881Y103291D01*
Y103957D01*
X153214Y104290D01*
X154214D01*
X150881Y103291D02*
X151215Y102957D01*
X151881D01*
X152214Y103291D01*
Y103624D01*
X151881Y103957D01*
X151215D01*
X150881Y104290D01*
Y104623D01*
X151215Y104957D01*
X151881D01*
X152214Y104623D01*
X148882Y102957D02*
X149548Y103291D01*
X150215Y103957D01*
Y104623D01*
X149882Y104957D01*
X149215D01*
X148882Y104623D01*
Y104290D01*
X149215Y103957D01*
X150215D01*
X343608Y62651D02*
X343275Y62984D01*
X342609D01*
X342276Y62651D01*
Y61318D01*
X342609Y60984D01*
X343275D01*
X343608Y61318D01*
X344608Y60984D02*
X345275D01*
X345608Y61318D01*
Y61984D01*
X345275Y62317D01*
X344608D01*
X344275Y61984D01*
Y61318D01*
X344608Y60984D01*
X346274Y62317D02*
Y61318D01*
X346607Y60984D01*
X347607D01*
Y62317D01*
X348607Y62651D02*
Y62317D01*
X348274D01*
X348940D01*
X348607D01*
Y61318D01*
X348940Y60984D01*
X349940D02*
X350606D01*
X350273D01*
Y62984D01*
X349940Y62651D01*
X351606Y60651D02*
X352939D01*
X353605Y62984D02*
X354938D01*
X354272D01*
Y60984D01*
X355605D02*
Y62984D01*
X356604D01*
X356938Y62651D01*
Y61984D01*
X356604Y61651D01*
X355605D01*
X358937Y62651D02*
X358604Y62984D01*
X357937D01*
X357604Y62651D01*
Y62317D01*
X357937Y61984D01*
X358604D01*
X358937Y61651D01*
Y61318D01*
X358604Y60984D01*
X357937D01*
X357604Y61318D01*
X360936Y62984D02*
X359603D01*
Y61984D01*
X360270Y62317D01*
X360603D01*
X360936Y61984D01*
Y61318D01*
X360603Y60984D01*
X359936D01*
X359603Y61318D01*
X213833Y62666D02*
X213500Y62999D01*
X212833D01*
X212500Y62666D01*
Y61333D01*
X212833Y61000D01*
X213500D01*
X213833Y61333D01*
X214833Y61000D02*
X215499D01*
X215832Y61333D01*
Y62000D01*
X215499Y62333D01*
X214833D01*
X214499Y62000D01*
Y61333D01*
X214833Y61000D01*
X216499Y62333D02*
Y61333D01*
X216832Y61000D01*
X217832D01*
Y62333D01*
X218831Y62666D02*
Y62333D01*
X218498D01*
X219164D01*
X218831D01*
Y61333D01*
X219164Y61000D01*
X220164D02*
X220831D01*
X220497D01*
Y62999D01*
X220164Y62666D01*
X221830Y60667D02*
X223163D01*
X223830Y62999D02*
X225163D01*
X224496D01*
Y61000D01*
X225829D02*
Y62999D01*
X226829D01*
X227162Y62666D01*
Y62000D01*
X226829Y61666D01*
X225829D01*
X229161Y62666D02*
X228828Y62999D01*
X228162D01*
X227828Y62666D01*
Y62333D01*
X228162Y62000D01*
X228828D01*
X229161Y61666D01*
Y61333D01*
X228828Y61000D01*
X228162D01*
X227828Y61333D01*
X231161Y62999D02*
X230494Y62666D01*
X229828Y62000D01*
Y61333D01*
X230161Y61000D01*
X230827D01*
X231161Y61333D01*
Y61666D01*
X230827Y62000D01*
X229828D01*
X333942Y58608D02*
X334275Y58942D01*
Y59608D01*
X333942Y59941D01*
X332609D01*
X332276Y59608D01*
Y58942D01*
X332609Y58608D01*
X333609Y57942D02*
X332276Y56609D01*
X332942Y57275D01*
X333609Y56609D01*
X332276Y57942D01*
Y55942D02*
Y55276D01*
Y55609D01*
X334275D01*
X333942Y55942D01*
X331942Y54276D02*
Y52943D01*
X334275Y52277D02*
Y50944D01*
Y51611D01*
X332276D01*
Y50278D02*
X334275D01*
Y49278D01*
X333942Y48945D01*
X333275D01*
X332942Y49278D01*
Y50278D01*
X333942Y46945D02*
X334275Y47279D01*
Y47945D01*
X333942Y48278D01*
X333609D01*
X333275Y47945D01*
Y47279D01*
X332942Y46945D01*
X332609D01*
X332276Y47279D01*
Y47945D01*
X332609Y48278D01*
X334275Y44946D02*
Y46279D01*
X333275D01*
X333609Y45612D01*
Y45279D01*
X333275Y44946D01*
X332609D01*
X332276Y45279D01*
Y45946D01*
X332609Y46279D01*
X204166Y58624D02*
X204499Y58957D01*
Y59623D01*
X204166Y59957D01*
X202833D01*
X202500Y59623D01*
Y58957D01*
X202833Y58624D01*
X203833Y57957D02*
X202500Y56625D01*
X203166Y57291D01*
X203833Y56625D01*
X202500Y57957D01*
Y55958D02*
Y55291D01*
Y55625D01*
X204499D01*
X204166Y55958D01*
X202167Y54292D02*
Y52959D01*
X204499Y52293D02*
Y50960D01*
Y51626D01*
X202500D01*
Y50293D02*
X204499D01*
Y49294D01*
X204166Y48960D01*
X203500D01*
X203166Y49294D01*
Y50293D01*
X204166Y46961D02*
X204499Y47294D01*
Y47961D01*
X204166Y48294D01*
X203833D01*
X203500Y47961D01*
Y47294D01*
X203166Y46961D01*
X202833D01*
X202500Y47294D01*
Y47961D01*
X202833Y48294D01*
X204499Y44962D02*
X204166Y45628D01*
X203500Y46295D01*
X202833D01*
X202500Y45961D01*
Y45295D01*
X202833Y44962D01*
X203166D01*
X203500Y45295D01*
Y46295D01*
X319943Y43275D02*
X320276Y42942D01*
X320942D01*
X321276Y43275D01*
Y44608D01*
X320942Y44941D01*
X320276D01*
X319943Y44608D01*
X319276Y43608D02*
Y44608D01*
X318943Y44941D01*
X317943D01*
Y45274D01*
X318277Y45608D01*
X318610D01*
X317943Y44941D02*
Y43608D01*
X317277Y44941D02*
X316610D01*
X316944D01*
Y42942D01*
X317277Y43275D01*
X315611Y45274D02*
X314278D01*
X313611Y42942D02*
X312279D01*
X312945D01*
Y44941D01*
X311612D02*
Y42942D01*
X310612D01*
X310279Y43275D01*
Y43942D01*
X310612Y44275D01*
X311612D01*
X308280Y43275D02*
X308613Y42942D01*
X309279D01*
X309613Y43275D01*
Y43608D01*
X309279Y43942D01*
X308613D01*
X308280Y44275D01*
Y44608D01*
X308613Y44941D01*
X309279D01*
X309613Y44608D01*
X306280Y42942D02*
X307613D01*
Y43942D01*
X306947Y43608D01*
X306614D01*
X306280Y43942D01*
Y44608D01*
X306614Y44941D01*
X307280D01*
X307613Y44608D01*
X190167Y43291D02*
X190500Y42957D01*
X191167D01*
X191500Y43291D01*
Y44624D01*
X191167Y44957D01*
X190500D01*
X190167Y44624D01*
X189501Y43624D02*
Y44624D01*
X189167Y44957D01*
X188168D01*
Y45290D01*
X188501Y45623D01*
X188834D01*
X188168Y44957D02*
Y43624D01*
X187501Y44957D02*
X186835D01*
X187168D01*
Y42957D01*
X187501Y43291D01*
X185835Y45290D02*
X184502D01*
X183836Y42957D02*
X182503D01*
X183169D01*
Y44957D01*
X181836D02*
Y42957D01*
X180837D01*
X180504Y43291D01*
Y43957D01*
X180837Y44290D01*
X181836D01*
X178504Y43291D02*
X178837Y42957D01*
X179504D01*
X179837Y43291D01*
Y43624D01*
X179504Y43957D01*
X178837D01*
X178504Y44290D01*
Y44624D01*
X178837Y44957D01*
X179504D01*
X179837Y44624D01*
X176505Y42957D02*
X177171Y43291D01*
X177838Y43957D01*
Y44624D01*
X177505Y44957D01*
X176838D01*
X176505Y44624D01*
Y44290D01*
X176838Y43957D01*
X177838D01*
X391750Y206751D02*
Y208750D01*
X390750D01*
X390417Y208417D01*
Y207084D01*
X390750Y206751D01*
X391750D01*
X388418Y208750D02*
X389751D01*
X388418Y207417D01*
Y207084D01*
X388751Y206751D01*
X389417D01*
X389751Y207084D01*
X365750Y236751D02*
Y238750D01*
X364750D01*
X364417Y238417D01*
Y237084D01*
X364750Y236751D01*
X365750D01*
X363751Y237084D02*
X363417Y236751D01*
X362751D01*
X362418Y237084D01*
Y237417D01*
X362751Y237750D01*
X363084D01*
X362751D01*
X362418Y238084D01*
Y238417D01*
X362751Y238750D01*
X363417D01*
X363751Y238417D01*
X168501Y210500D02*
X170500D01*
Y211500D01*
X170167Y211833D01*
X168834D01*
X168501Y211500D01*
Y210500D01*
X170500Y213499D02*
X168501D01*
X169500Y212499D01*
Y213832D01*
X33550Y290049D02*
Y288050D01*
X34550D01*
X34883Y288383D01*
Y289716D01*
X34550Y290049D01*
X33550D01*
X36882D02*
X35549D01*
Y289050D01*
X36216Y289383D01*
X36549D01*
X36882Y289050D01*
Y288383D01*
X36549Y288050D01*
X35883D01*
X35549Y288383D01*
X37549Y287717D02*
X38882D01*
X39881Y288050D02*
X40548D01*
X40881Y288383D01*
Y289050D01*
X40548Y289383D01*
X39881D01*
X39548Y289050D01*
Y288383D01*
X39881Y288050D01*
X41547Y289383D02*
Y288050D01*
Y288716D01*
X41881Y289050D01*
X42214Y289383D01*
X42547D01*
X43547Y288050D02*
X44213D01*
X43880D01*
Y289383D01*
X43547D01*
X45213Y288050D02*
Y289383D01*
X46213D01*
X46546Y289050D01*
Y288050D01*
X47879Y287384D02*
X48212D01*
X48545Y287717D01*
Y289383D01*
X47545D01*
X47212Y289050D01*
Y288383D01*
X47545Y288050D01*
X48545D01*
X49212D02*
Y289383D01*
X49878Y290049D01*
X50545Y289383D01*
Y288050D01*
Y289050D01*
X49212D01*
X33550Y218657D02*
Y216658D01*
X34550D01*
X34883Y216991D01*
Y218324D01*
X34550Y218657D01*
X33550D01*
X36882D02*
X35549D01*
Y217658D01*
X36216Y217991D01*
X36549D01*
X36882Y217658D01*
Y216991D01*
X36549Y216658D01*
X35883D01*
X35549Y216991D01*
X37549Y216325D02*
X38882D01*
X39881Y216658D02*
X40548D01*
X40881Y216991D01*
Y217658D01*
X40548Y217991D01*
X39881D01*
X39548Y217658D01*
Y216991D01*
X39881Y216658D01*
X41547Y217991D02*
Y216658D01*
Y217325D01*
X41881Y217658D01*
X42214Y217991D01*
X42547D01*
X43547Y216658D02*
X44213D01*
X43880D01*
Y217991D01*
X43547D01*
X45213Y216658D02*
Y217991D01*
X46213D01*
X46546Y217658D01*
Y216658D01*
X47879Y215992D02*
X48212D01*
X48545Y216325D01*
Y217991D01*
X47545D01*
X47212Y217658D01*
Y216991D01*
X47545Y216658D01*
X48545D01*
X49212Y218657D02*
Y216658D01*
X50211D01*
X50545Y216991D01*
Y217325D01*
X50211Y217658D01*
X49212D01*
X50211D01*
X50545Y217991D01*
Y218324D01*
X50211Y218657D01*
X49212D01*
X33550Y147158D02*
Y145158D01*
X34550D01*
X34883Y145491D01*
Y146824D01*
X34550Y147158D01*
X33550D01*
X36882D02*
X35549D01*
Y146158D01*
X36216Y146491D01*
X36549D01*
X36882Y146158D01*
Y145491D01*
X36549Y145158D01*
X35883D01*
X35549Y145491D01*
X37549Y144825D02*
X38882D01*
X39881Y145158D02*
X40548D01*
X40881Y145491D01*
Y146158D01*
X40548Y146491D01*
X39881D01*
X39548Y146158D01*
Y145491D01*
X39881Y145158D01*
X41547Y146491D02*
Y145158D01*
Y145825D01*
X41881Y146158D01*
X42214Y146491D01*
X42547D01*
X43547Y145158D02*
X44213D01*
X43880D01*
Y146491D01*
X43547D01*
X45213Y145158D02*
Y146491D01*
X46213D01*
X46546Y146158D01*
Y145158D01*
X47879Y144492D02*
X48212D01*
X48545Y144825D01*
Y146491D01*
X47545D01*
X47212Y146158D01*
Y145491D01*
X47545Y145158D01*
X48545D01*
X50545Y146824D02*
X50211Y147158D01*
X49545D01*
X49212Y146824D01*
Y145491D01*
X49545Y145158D01*
X50211D01*
X50545Y145491D01*
X33550Y75657D02*
Y73658D01*
X34550D01*
X34883Y73991D01*
Y75324D01*
X34550Y75657D01*
X33550D01*
X36882D02*
X35549D01*
Y74658D01*
X36216Y74991D01*
X36549D01*
X36882Y74658D01*
Y73991D01*
X36549Y73658D01*
X35883D01*
X35549Y73991D01*
X37549Y73325D02*
X38882D01*
X39881Y73658D02*
X40548D01*
X40881Y73991D01*
Y74658D01*
X40548Y74991D01*
X39881D01*
X39548Y74658D01*
Y73991D01*
X39881Y73658D01*
X41547Y74991D02*
Y73658D01*
Y74325D01*
X41881Y74658D01*
X42214Y74991D01*
X42547D01*
X43547Y73658D02*
X44213D01*
X43880D01*
Y74991D01*
X43547D01*
X45213Y73658D02*
Y74991D01*
X46213D01*
X46546Y74658D01*
Y73658D01*
X47879Y72992D02*
X48212D01*
X48545Y73325D01*
Y74991D01*
X47545D01*
X47212Y74658D01*
Y73991D01*
X47545Y73658D01*
X48545D01*
X49212Y75657D02*
Y73658D01*
X50211D01*
X50545Y73991D01*
Y75324D01*
X50211Y75657D01*
X49212D01*
X215249Y122717D02*
Y124050D01*
X214250D01*
Y123383D01*
Y124050D01*
X213250D01*
Y122051D02*
Y121384D01*
Y121717D01*
X215249D01*
X214916Y122051D01*
X98249Y231117D02*
Y232450D01*
X97250D01*
Y231784D01*
Y232450D01*
X96250D01*
Y229118D02*
Y230451D01*
X97583Y229118D01*
X97916D01*
X98249Y229451D01*
Y230117D01*
X97916Y230451D01*
X95917Y228451D02*
Y227118D01*
X96250Y226119D02*
Y225452D01*
X96583Y225119D01*
X97250D01*
X97583Y225452D01*
Y226119D01*
X97250Y226452D01*
X96583D01*
X96250Y226119D01*
X97583Y224453D02*
X96250D01*
X96916D01*
X97250Y224119D01*
X97583Y223786D01*
Y223453D01*
X96250Y222453D02*
Y221787D01*
Y222120D01*
X97583D01*
Y222453D01*
X96250Y220787D02*
X97583D01*
Y219787D01*
X97250Y219454D01*
X96250D01*
X95583Y218121D02*
Y217788D01*
X95917Y217455D01*
X97583D01*
Y218455D01*
X97250Y218788D01*
X96583D01*
X96250Y218455D01*
Y217455D01*
Y216788D02*
X97583D01*
X98249Y216122D01*
X97583Y215456D01*
X96250D01*
X97250D01*
Y216788D01*
X98249Y159725D02*
Y161058D01*
X97250D01*
Y160392D01*
Y161058D01*
X96250D01*
Y157726D02*
Y159059D01*
X97583Y157726D01*
X97916D01*
X98249Y158059D01*
Y158726D01*
X97916Y159059D01*
X95917Y157060D02*
Y155727D01*
X96250Y154727D02*
Y154060D01*
X96583Y153727D01*
X97250D01*
X97583Y154060D01*
Y154727D01*
X97250Y155060D01*
X96583D01*
X96250Y154727D01*
X97583Y153061D02*
X96250D01*
X96916D01*
X97250Y152727D01*
X97583Y152394D01*
Y152061D01*
X96250Y151061D02*
Y150395D01*
Y150728D01*
X97583D01*
Y151061D01*
X96250Y149395D02*
X97583D01*
Y148396D01*
X97250Y148062D01*
X96250D01*
X95583Y146730D02*
Y146396D01*
X95917Y146063D01*
X97583D01*
Y147063D01*
X97250Y147396D01*
X96583D01*
X96250Y147063D01*
Y146063D01*
X98249Y145397D02*
X96250D01*
Y144397D01*
X96583Y144064D01*
X96916D01*
X97250Y144397D01*
Y145397D01*
Y144397D01*
X97583Y144064D01*
X97916D01*
X98249Y144397D01*
Y145397D01*
Y88225D02*
Y89558D01*
X97250D01*
Y88892D01*
Y89558D01*
X96250D01*
Y86226D02*
Y87559D01*
X97583Y86226D01*
X97916D01*
X98249Y86559D01*
Y87226D01*
X97916Y87559D01*
X95917Y85559D02*
Y84227D01*
X96250Y83227D02*
Y82560D01*
X96583Y82227D01*
X97250D01*
X97583Y82560D01*
Y83227D01*
X97250Y83560D01*
X96583D01*
X96250Y83227D01*
X97583Y81561D02*
X96250D01*
X96916D01*
X97250Y81227D01*
X97583Y80894D01*
Y80561D01*
X96250Y79561D02*
Y78895D01*
Y79228D01*
X97583D01*
Y79561D01*
X96250Y77895D02*
X97583D01*
Y76896D01*
X97250Y76562D01*
X96250D01*
X95583Y75230D02*
Y74896D01*
X95917Y74563D01*
X97583D01*
Y75563D01*
X97250Y75896D01*
X96583D01*
X96250Y75563D01*
Y74563D01*
X97916Y72564D02*
X98249Y72897D01*
Y73563D01*
X97916Y73897D01*
X96583D01*
X96250Y73563D01*
Y72897D01*
X96583Y72564D01*
X98249Y15617D02*
Y16950D01*
X97250D01*
Y16284D01*
Y16950D01*
X96250D01*
Y13618D02*
Y14951D01*
X97583Y13618D01*
X97916D01*
X98249Y13951D01*
Y14617D01*
X97916Y14951D01*
X95917Y12951D02*
Y11618D01*
X96250Y10619D02*
Y9952D01*
X96583Y9619D01*
X97250D01*
X97583Y9952D01*
Y10619D01*
X97250Y10952D01*
X96583D01*
X96250Y10619D01*
X97583Y8953D02*
X96250D01*
X96916D01*
X97250Y8619D01*
X97583Y8286D01*
Y7953D01*
X96250Y6953D02*
Y6287D01*
Y6620D01*
X97583D01*
Y6953D01*
X96250Y5287D02*
X97583D01*
Y4287D01*
X97250Y3954D01*
X96250D01*
X95583Y2621D02*
Y2288D01*
X95917Y1955D01*
X97583D01*
Y2954D01*
X97250Y3288D01*
X96583D01*
X96250Y2954D01*
Y1955D01*
X98249Y1288D02*
X96250D01*
Y289D01*
X96583Y-45D01*
X97916D01*
X98249Y289D01*
Y1288D01*
X241250Y170951D02*
Y172950D01*
X239917D01*
X239251D02*
X238584D01*
X238917D01*
Y170951D01*
X239251Y171284D01*
X274276Y67484D02*
Y65484D01*
X275608D01*
X277608D02*
X276275D01*
X277608Y66817D01*
Y67151D01*
X277275Y67484D01*
X276608D01*
X276275Y67151D01*
X278274Y65151D02*
X279607D01*
X280274Y67484D02*
X281607D01*
X280940D01*
Y65484D01*
X282273D02*
Y67484D01*
X283273D01*
X283606Y67151D01*
Y66484D01*
X283273Y66151D01*
X282273D01*
X285605Y67151D02*
X285272Y67484D01*
X284606D01*
X284272Y67151D01*
Y66817D01*
X284606Y66484D01*
X285272D01*
X285605Y66151D01*
Y65818D01*
X285272Y65484D01*
X284606D01*
X284272Y65818D01*
X287605Y67484D02*
X286272D01*
Y66484D01*
X286938Y66817D01*
X287271D01*
X287605Y66484D01*
Y65818D01*
X287271Y65484D01*
X286605D01*
X286272Y65818D01*
X144500Y67499D02*
Y65500D01*
X145833D01*
X147832D02*
X146499D01*
X147832Y66833D01*
Y67166D01*
X147499Y67499D01*
X146833D01*
X146499Y67166D01*
X148499Y65167D02*
X149832D01*
X150498Y67499D02*
X151831D01*
X151164D01*
Y65500D01*
X152497D02*
Y67499D01*
X153497D01*
X153830Y67166D01*
Y66500D01*
X153497Y66166D01*
X152497D01*
X155830Y67166D02*
X155496Y67499D01*
X154830D01*
X154497Y67166D01*
Y66833D01*
X154830Y66500D01*
X155496D01*
X155830Y66166D01*
Y65833D01*
X155496Y65500D01*
X154830D01*
X154497Y65833D01*
X157829Y67499D02*
X157163Y67166D01*
X156496Y66500D01*
Y65833D01*
X156829Y65500D01*
X157496D01*
X157829Y65833D01*
Y66166D01*
X157496Y66500D01*
X156496D01*
X192500Y150000D02*
Y151999D01*
X193500D01*
X193833Y151666D01*
Y151000D01*
X193500Y150666D01*
X192500D01*
X193166D02*
X193833Y150000D01*
X195832D02*
X194499D01*
X195832Y151333D01*
Y151666D01*
X195499Y151999D01*
X194833D01*
X194499Y151666D01*
X302550Y194350D02*
Y196349D01*
X303550D01*
X303883Y196016D01*
Y195350D01*
X303550Y195017D01*
X302550D01*
X303216D02*
X303883Y194350D01*
X304549Y196016D02*
X304883Y196349D01*
X305549D01*
X305882Y196016D01*
Y195683D01*
X305549Y195350D01*
X305216D01*
X305549D01*
X305882Y195017D01*
Y194683D01*
X305549Y194350D01*
X304883D01*
X304549Y194683D01*
X192000Y140500D02*
Y142499D01*
X193000D01*
X193333Y142166D01*
Y141500D01*
X193000Y141166D01*
X192000D01*
X192666D02*
X193333Y140500D01*
X195332Y142499D02*
X193999D01*
Y141500D01*
X194666Y141833D01*
X194999D01*
X195332Y141500D01*
Y140833D01*
X194999Y140500D01*
X194333D01*
X193999Y140833D01*
X358150Y199550D02*
X356151D01*
Y200550D01*
X356484Y200883D01*
X357150D01*
X357484Y200550D01*
Y199550D01*
Y200217D02*
X358150Y200883D01*
X356151Y202882D02*
X356484Y202216D01*
X357150Y201549D01*
X357817D01*
X358150Y201883D01*
Y202549D01*
X357817Y202882D01*
X357484D01*
X357150Y202549D01*
Y201549D01*
X357850Y215450D02*
X359849D01*
Y214450D01*
X359516Y214117D01*
X358850D01*
X358516Y214450D01*
Y215450D01*
Y214784D02*
X357850Y214117D01*
X359849Y213451D02*
Y212118D01*
X359516D01*
X358183Y213451D01*
X357850D01*
X189350Y246950D02*
X191349D01*
Y245950D01*
X191016Y245617D01*
X190350D01*
X190016Y245950D01*
Y246950D01*
Y246284D02*
X189350Y245617D01*
X191016Y244951D02*
X191349Y244617D01*
Y243951D01*
X191016Y243618D01*
X190683D01*
X190350Y243951D01*
X190016Y243618D01*
X189683D01*
X189350Y243951D01*
Y244617D01*
X189683Y244951D01*
X190016D01*
X190350Y244617D01*
X190683Y244951D01*
X191016D01*
X190350Y244617D02*
Y243951D01*
X260450Y215150D02*
Y213151D01*
X259450D01*
X259117Y213484D01*
Y214150D01*
X259450Y214484D01*
X260450D01*
X259784D02*
X259117Y215150D01*
X258451Y214817D02*
X258117Y215150D01*
X257451D01*
X257118Y214817D01*
Y213484D01*
X257451Y213151D01*
X258117D01*
X258451Y213484D01*
Y213817D01*
X258117Y214150D01*
X257118D01*
X384819Y58441D02*
X386818D01*
Y57442D01*
X386485Y57108D01*
X385819D01*
X385485Y57442D01*
Y58441D01*
Y57775D02*
X384819Y57108D01*
Y56442D02*
Y55775D01*
Y56109D01*
X386818D01*
X386485Y56442D01*
Y54776D02*
X386818Y54443D01*
Y53776D01*
X386485Y53443D01*
X385152D01*
X384819Y53776D01*
Y54443D01*
X385152Y54776D01*
X386485D01*
X384486Y52776D02*
Y51443D01*
X386818Y50777D02*
Y49444D01*
Y50111D01*
X384819D01*
Y48778D02*
X386818D01*
Y47778D01*
X386485Y47445D01*
X385819D01*
X385485Y47778D01*
Y48778D01*
X386485Y45445D02*
X386818Y45779D01*
Y46445D01*
X386485Y46778D01*
X386152D01*
X385819Y46445D01*
Y45779D01*
X385485Y45445D01*
X385152D01*
X384819Y45779D01*
Y46445D01*
X385152Y46778D01*
X386818Y43446D02*
Y44779D01*
X385819D01*
X386152Y44113D01*
Y43779D01*
X385819Y43446D01*
X385152D01*
X384819Y43779D01*
Y44446D01*
X385152Y44779D01*
X255043Y58457D02*
X257043D01*
Y57457D01*
X256709Y57124D01*
X256043D01*
X255710Y57457D01*
Y58457D01*
Y57790D02*
X255043Y57124D01*
Y56457D02*
Y55791D01*
Y56124D01*
X257043D01*
X256709Y56457D01*
Y54791D02*
X257043Y54458D01*
Y53791D01*
X256709Y53458D01*
X255377D01*
X255043Y53791D01*
Y54458D01*
X255377Y54791D01*
X256709D01*
X254710Y52792D02*
Y51459D01*
X257043Y50792D02*
Y49460D01*
Y50126D01*
X255043D01*
Y48793D02*
X257043D01*
Y47793D01*
X256709Y47460D01*
X256043D01*
X255710Y47793D01*
Y48793D01*
X256709Y45461D02*
X257043Y45794D01*
Y46461D01*
X256709Y46794D01*
X256376D01*
X256043Y46461D01*
Y45794D01*
X255710Y45461D01*
X255377D01*
X255043Y45794D01*
Y46461D01*
X255377Y46794D01*
X257043Y43462D02*
X256709Y44128D01*
X256043Y44794D01*
X255377D01*
X255043Y44461D01*
Y43795D01*
X255377Y43462D01*
X255710D01*
X256043Y43795D01*
Y44794D01*
X354776Y81441D02*
X352776D01*
Y82441D01*
X353110Y82774D01*
X353776D01*
X354109Y82441D01*
Y81441D01*
Y82108D02*
X354776Y82774D01*
Y83441D02*
Y84107D01*
Y83774D01*
X352776D01*
X353110Y83441D01*
X354776Y85107D02*
Y85773D01*
Y85440D01*
X352776D01*
X353110Y85107D01*
X355109Y86773D02*
Y88106D01*
X352776Y88772D02*
Y90105D01*
Y89439D01*
X354776D01*
Y90772D02*
X352776D01*
Y91771D01*
X353110Y92104D01*
X353776D01*
X354109Y91771D01*
Y90772D01*
X353110Y94104D02*
X352776Y93771D01*
Y93104D01*
X353110Y92771D01*
X353443D01*
X353776Y93104D01*
Y93771D01*
X354109Y94104D01*
X354442D01*
X354776Y93771D01*
Y93104D01*
X354442Y92771D01*
X352776Y96103D02*
Y94770D01*
X353776D01*
X353443Y95437D01*
Y95770D01*
X353776Y96103D01*
X354442D01*
X354776Y95770D01*
Y95104D01*
X354442Y94770D01*
X225000Y81457D02*
X223001D01*
Y82456D01*
X223334Y82790D01*
X224000D01*
X224334Y82456D01*
Y81457D01*
Y82123D02*
X225000Y82790D01*
Y83456D02*
Y84123D01*
Y83789D01*
X223001D01*
X223334Y83456D01*
X225000Y85122D02*
Y85789D01*
Y85455D01*
X223001D01*
X223334Y85122D01*
X225333Y86788D02*
Y88121D01*
X223001Y88788D02*
Y90121D01*
Y89454D01*
X225000D01*
Y90787D02*
X223001D01*
Y91787D01*
X223334Y92120D01*
X224000D01*
X224334Y91787D01*
Y90787D01*
X223334Y94119D02*
X223001Y93786D01*
Y93120D01*
X223334Y92786D01*
X223667D01*
X224000Y93120D01*
Y93786D01*
X224334Y94119D01*
X224667D01*
X225000Y93786D01*
Y93120D01*
X224667Y92786D01*
X223001Y96119D02*
X223334Y95452D01*
X224000Y94786D01*
X224667D01*
X225000Y95119D01*
Y95785D01*
X224667Y96119D01*
X224334D01*
X224000Y95785D01*
Y94786D01*
X384276Y95941D02*
X386275D01*
Y94942D01*
X385942Y94608D01*
X385275D01*
X384942Y94942D01*
Y95941D01*
Y95275D02*
X384276Y94608D01*
Y93942D02*
Y93275D01*
Y93609D01*
X386275D01*
X385942Y93942D01*
X384276Y90943D02*
Y92276D01*
X385609Y90943D01*
X385942D01*
X386275Y91276D01*
Y91943D01*
X385942Y92276D01*
X383942Y90276D02*
Y88943D01*
X386275Y88277D02*
Y86944D01*
Y87611D01*
X384276D01*
Y86278D02*
X386275D01*
Y85278D01*
X385942Y84945D01*
X385275D01*
X384942Y85278D01*
Y86278D01*
X385942Y82945D02*
X386275Y83279D01*
Y83945D01*
X385942Y84278D01*
X385609D01*
X385275Y83945D01*
Y83279D01*
X384942Y82945D01*
X384609D01*
X384276Y83279D01*
Y83945D01*
X384609Y84278D01*
X386275Y80946D02*
Y82279D01*
X385275D01*
X385609Y81612D01*
Y81279D01*
X385275Y80946D01*
X384609D01*
X384276Y81279D01*
Y81946D01*
X384609Y82279D01*
X254500Y95957D02*
X256499D01*
Y94957D01*
X256166Y94624D01*
X255500D01*
X255166Y94957D01*
Y95957D01*
Y95290D02*
X254500Y94624D01*
Y93957D02*
Y93291D01*
Y93624D01*
X256499D01*
X256166Y93957D01*
X254500Y90958D02*
Y92291D01*
X255833Y90958D01*
X256166D01*
X256499Y91291D01*
Y91958D01*
X256166Y92291D01*
X254167Y90292D02*
Y88959D01*
X256499Y88292D02*
Y86960D01*
Y87626D01*
X254500D01*
Y86293D02*
X256499D01*
Y85294D01*
X256166Y84960D01*
X255500D01*
X255166Y85294D01*
Y86293D01*
X256166Y82961D02*
X256499Y83294D01*
Y83961D01*
X256166Y84294D01*
X255833D01*
X255500Y83961D01*
Y83294D01*
X255166Y82961D01*
X254833D01*
X254500Y83294D01*
Y83961D01*
X254833Y84294D01*
X256499Y80962D02*
X256166Y81628D01*
X255500Y82294D01*
X254833D01*
X254500Y81961D01*
Y81295D01*
X254833Y80962D01*
X255166D01*
X255500Y81295D01*
Y82294D01*
X384819Y76941D02*
X386818D01*
Y75941D01*
X386485Y75608D01*
X385819D01*
X385485Y75941D01*
Y76941D01*
Y76275D02*
X384819Y75608D01*
Y74942D02*
Y74275D01*
Y74609D01*
X386818D01*
X386485Y74942D01*
Y73276D02*
X386818Y72943D01*
Y72276D01*
X386485Y71943D01*
X386152D01*
X385819Y72276D01*
Y72609D01*
Y72276D01*
X385485Y71943D01*
X385152D01*
X384819Y72276D01*
Y72943D01*
X385152Y73276D01*
X384486Y71276D02*
Y69943D01*
X386818Y69277D02*
Y67944D01*
Y68611D01*
X384819D01*
Y67278D02*
X386818D01*
Y66278D01*
X386485Y65945D01*
X385819D01*
X385485Y66278D01*
Y67278D01*
X386485Y63945D02*
X386818Y64279D01*
Y64945D01*
X386485Y65278D01*
X386152D01*
X385819Y64945D01*
Y64279D01*
X385485Y63945D01*
X385152D01*
X384819Y64279D01*
Y64945D01*
X385152Y65278D01*
X386818Y61946D02*
Y63279D01*
X385819D01*
X386152Y62612D01*
Y62279D01*
X385819Y61946D01*
X385152D01*
X384819Y62279D01*
Y62946D01*
X385152Y63279D01*
X255043Y76957D02*
X257043D01*
Y75957D01*
X256709Y75624D01*
X256043D01*
X255710Y75957D01*
Y76957D01*
Y76290D02*
X255043Y75624D01*
Y74957D02*
Y74291D01*
Y74624D01*
X257043D01*
X256709Y74957D01*
Y73291D02*
X257043Y72958D01*
Y72291D01*
X256709Y71958D01*
X256376D01*
X256043Y72291D01*
Y72625D01*
Y72291D01*
X255710Y71958D01*
X255377D01*
X255043Y72291D01*
Y72958D01*
X255377Y73291D01*
X254710Y71292D02*
Y69959D01*
X257043Y69292D02*
Y67960D01*
Y68626D01*
X255043D01*
Y67293D02*
X257043D01*
Y66294D01*
X256709Y65960D01*
X256043D01*
X255710Y66294D01*
Y67293D01*
X256709Y63961D02*
X257043Y64294D01*
Y64961D01*
X256709Y65294D01*
X256376D01*
X256043Y64961D01*
Y64294D01*
X255710Y63961D01*
X255377D01*
X255043Y64294D01*
Y64961D01*
X255377Y65294D01*
X257043Y61962D02*
X256709Y62628D01*
X256043Y63295D01*
X255377D01*
X255043Y62961D01*
Y62295D01*
X255377Y61962D01*
X255710D01*
X256043Y62295D01*
Y63295D01*
X335776Y67984D02*
Y65985D01*
X334776D01*
X334443Y66318D01*
Y66985D01*
X334776Y67318D01*
X335776D01*
X335109D02*
X334443Y67984D01*
X333776Y65985D02*
X332443D01*
X333110D01*
Y67984D01*
X331777D02*
X331111D01*
X331444D01*
Y65985D01*
X331777Y66318D01*
X330111Y68318D02*
X328778D01*
X328111Y65985D02*
X326779D01*
X327445D01*
Y67984D01*
X326112D02*
Y65985D01*
X325112D01*
X324779Y66318D01*
Y66985D01*
X325112Y67318D01*
X326112D01*
X322780Y66318D02*
X323113Y65985D01*
X323780D01*
X324113Y66318D01*
Y66652D01*
X323780Y66985D01*
X323113D01*
X322780Y67318D01*
Y67651D01*
X323113Y67984D01*
X323780D01*
X324113Y67651D01*
X320780Y65985D02*
X322113D01*
Y66985D01*
X321447Y66652D01*
X321114D01*
X320780Y66985D01*
Y67651D01*
X321114Y67984D01*
X321780D01*
X322113Y67651D01*
X206000Y68000D02*
Y66001D01*
X205000D01*
X204667Y66334D01*
Y67000D01*
X205000Y67334D01*
X206000D01*
X205334D02*
X204667Y68000D01*
X204001Y66001D02*
X202668D01*
X203334D01*
Y68000D01*
X202001D02*
X201335D01*
X201668D01*
Y66001D01*
X202001Y66334D01*
X200335Y68333D02*
X199002D01*
X198336Y66001D02*
X197003D01*
X197669D01*
Y68000D01*
X196336D02*
Y66001D01*
X195337D01*
X195004Y66334D01*
Y67000D01*
X195337Y67334D01*
X196336D01*
X193004Y66334D02*
X193337Y66001D01*
X194004D01*
X194337Y66334D01*
Y66667D01*
X194004Y67000D01*
X193337D01*
X193004Y67334D01*
Y67667D01*
X193337Y68000D01*
X194004D01*
X194337Y67667D01*
X191005Y66001D02*
X191671Y66334D01*
X192338Y67000D01*
Y67667D01*
X192005Y68000D01*
X191338D01*
X191005Y67667D01*
Y67334D01*
X191338Y67000D01*
X192338D01*
X358050Y191649D02*
Y189983D01*
X358383Y189650D01*
X359050D01*
X359383Y189983D01*
Y191649D01*
X360049Y189650D02*
X360716D01*
X360383D01*
Y191649D01*
X360049Y191316D01*
X188350Y209149D02*
Y207483D01*
X188683Y207150D01*
X189350D01*
X189683Y207483D01*
Y209149D01*
X191682Y207150D02*
X190349D01*
X191682Y208483D01*
Y208816D01*
X191349Y209149D01*
X190683D01*
X190349Y208816D01*
X56600Y268099D02*
Y266433D01*
X56933Y266100D01*
X57600D01*
X57933Y266433D01*
Y268099D01*
X59599Y266100D02*
Y268099D01*
X58599Y267100D01*
X59932D01*
X60599Y265767D02*
X61932D01*
X62931Y266100D02*
X63598D01*
X63931Y266433D01*
Y267100D01*
X63598Y267433D01*
X62931D01*
X62598Y267100D01*
Y266433D01*
X62931Y266100D01*
X64597Y267433D02*
Y266100D01*
Y266766D01*
X64931Y267100D01*
X65264Y267433D01*
X65597D01*
X66597Y266100D02*
X67263D01*
X66930D01*
Y267433D01*
X66597D01*
X68263Y266100D02*
Y267433D01*
X69263D01*
X69596Y267100D01*
Y266100D01*
X70929Y265434D02*
X71262D01*
X71595Y265767D01*
Y267433D01*
X70596D01*
X70262Y267100D01*
Y266433D01*
X70596Y266100D01*
X71595D01*
X72262D02*
Y267433D01*
X72928Y268099D01*
X73594Y267433D01*
Y266100D01*
Y267100D01*
X72262D01*
X56600Y196707D02*
Y195041D01*
X56933Y194708D01*
X57600D01*
X57933Y195041D01*
Y196707D01*
X59599Y194708D02*
Y196707D01*
X58599Y195708D01*
X59932D01*
X60599Y194375D02*
X61932D01*
X62931Y194708D02*
X63598D01*
X63931Y195041D01*
Y195708D01*
X63598Y196041D01*
X62931D01*
X62598Y195708D01*
Y195041D01*
X62931Y194708D01*
X64597Y196041D02*
Y194708D01*
Y195375D01*
X64931Y195708D01*
X65264Y196041D01*
X65597D01*
X66597Y194708D02*
X67263D01*
X66930D01*
Y196041D01*
X66597D01*
X68263Y194708D02*
Y196041D01*
X69263D01*
X69596Y195708D01*
Y194708D01*
X70929Y194042D02*
X71262D01*
X71595Y194375D01*
Y196041D01*
X70596D01*
X70262Y195708D01*
Y195041D01*
X70596Y194708D01*
X71595D01*
X72262Y196707D02*
Y194708D01*
X73261D01*
X73594Y195041D01*
Y195375D01*
X73261Y195708D01*
X72262D01*
X73261D01*
X73594Y196041D01*
Y196374D01*
X73261Y196707D01*
X72262D01*
X56600Y125207D02*
Y123541D01*
X56933Y123208D01*
X57600D01*
X57933Y123541D01*
Y125207D01*
X59599Y123208D02*
Y125207D01*
X58599Y124208D01*
X59932D01*
X60599Y122875D02*
X61932D01*
X62931Y123208D02*
X63598D01*
X63931Y123541D01*
Y124208D01*
X63598Y124541D01*
X62931D01*
X62598Y124208D01*
Y123541D01*
X62931Y123208D01*
X64597Y124541D02*
Y123208D01*
Y123875D01*
X64931Y124208D01*
X65264Y124541D01*
X65597D01*
X66597Y123208D02*
X67263D01*
X66930D01*
Y124541D01*
X66597D01*
X68263Y123208D02*
Y124541D01*
X69263D01*
X69596Y124208D01*
Y123208D01*
X70929Y122542D02*
X71262D01*
X71595Y122875D01*
Y124541D01*
X70596D01*
X70262Y124208D01*
Y123541D01*
X70596Y123208D01*
X71595D01*
X73594Y124874D02*
X73261Y125207D01*
X72595D01*
X72262Y124874D01*
Y123541D01*
X72595Y123208D01*
X73261D01*
X73594Y123541D01*
X56600Y53707D02*
Y52041D01*
X56933Y51708D01*
X57600D01*
X57933Y52041D01*
Y53707D01*
X59599Y51708D02*
Y53707D01*
X58599Y52708D01*
X59932D01*
X60599Y51375D02*
X61932D01*
X62931Y51708D02*
X63598D01*
X63931Y52041D01*
Y52708D01*
X63598Y53041D01*
X62931D01*
X62598Y52708D01*
Y52041D01*
X62931Y51708D01*
X64597Y53041D02*
Y51708D01*
Y52375D01*
X64931Y52708D01*
X65264Y53041D01*
X65597D01*
X66597Y51708D02*
X67263D01*
X66930D01*
Y53041D01*
X66597D01*
X68263Y51708D02*
Y53041D01*
X69263D01*
X69596Y52708D01*
Y51708D01*
X70929Y51042D02*
X71262D01*
X71595Y51375D01*
Y53041D01*
X70596D01*
X70262Y52708D01*
Y52041D01*
X70596Y51708D01*
X71595D01*
X72262Y53707D02*
Y51708D01*
X73261D01*
X73594Y52041D01*
Y53374D01*
X73261Y53707D01*
X72262D01*
X252600Y183899D02*
Y181900D01*
X253266Y182566D01*
X253933Y181900D01*
Y183899D01*
X254599Y181900D02*
X255266D01*
X254933D01*
Y183233D01*
X254599D01*
X256265D02*
Y181900D01*
Y182566D01*
X256599Y182900D01*
X256932Y183233D01*
X257265D01*
X259264Y181900D02*
X258598D01*
X258265Y182233D01*
Y182900D01*
X258598Y183233D01*
X259264D01*
X259598Y182900D01*
Y182566D01*
X258265D01*
X260264Y183899D02*
Y181900D01*
Y182900D01*
X261597D01*
Y183899D01*
Y181900D01*
X263263D02*
X262597D01*
X262263Y182233D01*
Y182900D01*
X262597Y183233D01*
X263263D01*
X263596Y182900D01*
Y182566D01*
X262263D01*
X264596Y183233D02*
X265263D01*
X265596Y182900D01*
Y181900D01*
X264596D01*
X264263Y182233D01*
X264596Y182566D01*
X265596D01*
X267595Y183899D02*
Y181900D01*
X266596D01*
X266262Y182233D01*
Y182900D01*
X266596Y183233D01*
X267595D01*
X269261Y181900D02*
X268595D01*
X268262Y182233D01*
Y182900D01*
X268595Y183233D01*
X269261D01*
X269595Y182900D01*
Y182566D01*
X268262D01*
X270261Y183233D02*
Y181900D01*
Y182566D01*
X270594Y182900D01*
X270927Y183233D01*
X271261D01*
X273260Y181900D02*
Y183899D01*
X272260Y182900D01*
X273593D01*
X260600Y157899D02*
Y155900D01*
X261266Y156567D01*
X261933Y155900D01*
Y157899D01*
X262599Y155900D02*
X263266D01*
X262933D01*
Y157233D01*
X262599D01*
X264265D02*
Y155900D01*
Y156567D01*
X264599Y156900D01*
X264932Y157233D01*
X265265D01*
X267265Y155900D02*
X266598D01*
X266265Y156233D01*
Y156900D01*
X266598Y157233D01*
X267265D01*
X267598Y156900D01*
Y156567D01*
X266265D01*
X268264Y157899D02*
Y155900D01*
Y156900D01*
X269597D01*
Y157899D01*
Y155900D01*
X271263D02*
X270597D01*
X270264Y156233D01*
Y156900D01*
X270597Y157233D01*
X271263D01*
X271596Y156900D01*
Y156567D01*
X270264D01*
X272596Y157233D02*
X273263D01*
X273596Y156900D01*
Y155900D01*
X272596D01*
X272263Y156233D01*
X272596Y156567D01*
X273596D01*
X275595Y157899D02*
Y155900D01*
X274595D01*
X274262Y156233D01*
Y156900D01*
X274595Y157233D01*
X275595D01*
X277261Y155900D02*
X276595D01*
X276262Y156233D01*
Y156900D01*
X276595Y157233D01*
X277261D01*
X277594Y156900D01*
Y156567D01*
X276262D01*
X278261Y157233D02*
Y155900D01*
Y156567D01*
X278594Y156900D01*
X278927Y157233D01*
X279261D01*
X280260Y155900D02*
X280927D01*
X280593D01*
Y157899D01*
X280260Y157566D01*
X250100Y133399D02*
Y131400D01*
X250766Y132067D01*
X251433Y131400D01*
Y133399D01*
X252099Y131400D02*
X252766D01*
X252433D01*
Y132733D01*
X252099D01*
X253766D02*
Y131400D01*
Y132067D01*
X254099Y132400D01*
X254432Y132733D01*
X254765D01*
X256765Y131400D02*
X256098D01*
X255765Y131733D01*
Y132400D01*
X256098Y132733D01*
X256765D01*
X257098Y132400D01*
Y132067D01*
X255765D01*
X257764Y133399D02*
Y131400D01*
Y132400D01*
X259097D01*
Y133399D01*
Y131400D01*
X260763D02*
X260097D01*
X259764Y131733D01*
Y132400D01*
X260097Y132733D01*
X260763D01*
X261096Y132400D01*
Y132067D01*
X259764D01*
X262096Y132733D02*
X262763D01*
X263096Y132400D01*
Y131400D01*
X262096D01*
X261763Y131733D01*
X262096Y132067D01*
X263096D01*
X265095Y133399D02*
Y131400D01*
X264095D01*
X263762Y131733D01*
Y132400D01*
X264095Y132733D01*
X265095D01*
X266761Y131400D02*
X266095D01*
X265762Y131733D01*
Y132400D01*
X266095Y132733D01*
X266761D01*
X267094Y132400D01*
Y132067D01*
X265762D01*
X267761Y132733D02*
Y131400D01*
Y132067D01*
X268094Y132400D01*
X268427Y132733D01*
X268761D01*
X271093Y131400D02*
X269760D01*
X271093Y132733D01*
Y133066D01*
X270760Y133399D01*
X270093D01*
X269760Y133066D01*
X320147Y185899D02*
Y183900D01*
X320814Y184566D01*
X321480Y183900D01*
Y185899D01*
X322147Y183900D02*
X322813D01*
X322480D01*
Y185233D01*
X322147D01*
X323813D02*
Y183900D01*
Y184566D01*
X324146Y184900D01*
X324479Y185233D01*
X324812D01*
X326812Y183900D02*
X326145D01*
X325812Y184233D01*
Y184900D01*
X326145Y185233D01*
X326812D01*
X327145Y184900D01*
Y184566D01*
X325812D01*
X327811Y185899D02*
Y183900D01*
Y184900D01*
X329144D01*
Y185899D01*
Y183900D01*
X330810D02*
X330144D01*
X329811Y184233D01*
Y184900D01*
X330144Y185233D01*
X330810D01*
X331144Y184900D01*
Y184566D01*
X329811D01*
X332143Y185233D02*
X332810D01*
X333143Y184900D01*
Y183900D01*
X332143D01*
X331810Y184233D01*
X332143Y184566D01*
X333143D01*
X335142Y185899D02*
Y183900D01*
X334143D01*
X333809Y184233D01*
Y184900D01*
X334143Y185233D01*
X335142D01*
X336808Y183900D02*
X336142D01*
X335809Y184233D01*
Y184900D01*
X336142Y185233D01*
X336808D01*
X337142Y184900D01*
Y184566D01*
X335809D01*
X337808Y185233D02*
Y183900D01*
Y184566D01*
X338141Y184900D01*
X338475Y185233D01*
X338808D01*
X339808Y185566D02*
X340141Y185899D01*
X340807D01*
X341140Y185566D01*
Y185233D01*
X340807Y184900D01*
X340474D01*
X340807D01*
X341140Y184566D01*
Y184233D01*
X340807Y183900D01*
X340141D01*
X339808Y184233D01*
X112100Y286599D02*
Y284600D01*
X112767Y285266D01*
X113433Y284600D01*
Y286599D01*
X114099Y284600D02*
X114766D01*
X114433D01*
Y285933D01*
X114099D01*
X115766D02*
Y284600D01*
Y285266D01*
X116099Y285600D01*
X116432Y285933D01*
X116765D01*
X118764Y284600D02*
X118098D01*
X117765Y284933D01*
Y285600D01*
X118098Y285933D01*
X118764D01*
X119098Y285600D01*
Y285266D01*
X117765D01*
X119764Y286599D02*
Y284600D01*
Y285600D01*
X121097D01*
Y286599D01*
Y284600D01*
X122763D02*
X122097D01*
X121764Y284933D01*
Y285600D01*
X122097Y285933D01*
X122763D01*
X123096Y285600D01*
Y285266D01*
X121764D01*
X124096Y285933D02*
X124763D01*
X125096Y285600D01*
Y284600D01*
X124096D01*
X123763Y284933D01*
X124096Y285266D01*
X125096D01*
X127095Y286599D02*
Y284600D01*
X126095D01*
X125762Y284933D01*
Y285600D01*
X126095Y285933D01*
X127095D01*
X128761Y284600D02*
X128095D01*
X127762Y284933D01*
Y285600D01*
X128095Y285933D01*
X128761D01*
X129095Y285600D01*
Y285266D01*
X127762D01*
X129761Y285933D02*
Y284600D01*
Y285266D01*
X130094Y285600D01*
X130427Y285933D01*
X130761D01*
X133093Y286599D02*
X131760D01*
Y285600D01*
X132427Y285933D01*
X132760D01*
X133093Y285600D01*
Y284933D01*
X132760Y284600D01*
X132094D01*
X131760Y284933D01*
X133760Y284267D02*
X135092D01*
X136092Y284600D02*
X136759D01*
X137092Y284933D01*
Y285600D01*
X136759Y285933D01*
X136092D01*
X135759Y285600D01*
Y284933D01*
X136092Y284600D01*
X137758Y285933D02*
Y284600D01*
Y285266D01*
X138092Y285600D01*
X138425Y285933D01*
X138758D01*
X139758Y284600D02*
X140424D01*
X140091D01*
Y285933D01*
X139758D01*
X141424Y284600D02*
Y285933D01*
X142423D01*
X142757Y285600D01*
Y284600D01*
X144090Y283934D02*
X144423D01*
X144756Y284267D01*
Y285933D01*
X143756D01*
X143423Y285600D01*
Y284933D01*
X143756Y284600D01*
X144756D01*
X145422D02*
Y285933D01*
X146089Y286599D01*
X146755Y285933D01*
Y284600D01*
Y285600D01*
X145422D01*
X113100Y214099D02*
Y212100D01*
X113767Y212766D01*
X114433Y212100D01*
Y214099D01*
X115099Y212100D02*
X115766D01*
X115433D01*
Y213433D01*
X115099D01*
X116765D02*
Y212100D01*
Y212766D01*
X117099Y213100D01*
X117432Y213433D01*
X117765D01*
X119764Y212100D02*
X119098D01*
X118765Y212433D01*
Y213100D01*
X119098Y213433D01*
X119764D01*
X120098Y213100D01*
Y212766D01*
X118765D01*
X120764Y214099D02*
Y212100D01*
Y213100D01*
X122097D01*
Y214099D01*
Y212100D01*
X123763D02*
X123097D01*
X122764Y212433D01*
Y213100D01*
X123097Y213433D01*
X123763D01*
X124096Y213100D01*
Y212766D01*
X122764D01*
X125096Y213433D02*
X125763D01*
X126096Y213100D01*
Y212100D01*
X125096D01*
X124763Y212433D01*
X125096Y212766D01*
X126096D01*
X128095Y214099D02*
Y212100D01*
X127095D01*
X126762Y212433D01*
Y213100D01*
X127095Y213433D01*
X128095D01*
X129761Y212100D02*
X129095D01*
X128762Y212433D01*
Y213100D01*
X129095Y213433D01*
X129761D01*
X130095Y213100D01*
Y212766D01*
X128762D01*
X130761Y213433D02*
Y212100D01*
Y212766D01*
X131094Y213100D01*
X131427Y213433D01*
X131761D01*
X134093Y214099D02*
X132760D01*
Y213100D01*
X133427Y213433D01*
X133760D01*
X134093Y213100D01*
Y212433D01*
X133760Y212100D01*
X133094D01*
X132760Y212433D01*
X134760Y211767D02*
X136092D01*
X137092Y212100D02*
X137759D01*
X138092Y212433D01*
Y213100D01*
X137759Y213433D01*
X137092D01*
X136759Y213100D01*
Y212433D01*
X137092Y212100D01*
X138758Y213433D02*
Y212100D01*
Y212766D01*
X139092Y213100D01*
X139425Y213433D01*
X139758D01*
X140758Y212100D02*
X141424D01*
X141091D01*
Y213433D01*
X140758D01*
X142424Y212100D02*
Y213433D01*
X143423D01*
X143757Y213100D01*
Y212100D01*
X145090Y211434D02*
X145423D01*
X145756Y211767D01*
Y213433D01*
X144756D01*
X144423Y213100D01*
Y212433D01*
X144756Y212100D01*
X145756D01*
X146423Y214099D02*
Y212100D01*
X147422D01*
X147755Y212433D01*
Y212766D01*
X147422Y213100D01*
X146423D01*
X147422D01*
X147755Y213433D01*
Y213766D01*
X147422Y214099D01*
X146423D01*
X111600Y142099D02*
Y140100D01*
X112267Y140767D01*
X112933Y140100D01*
Y142099D01*
X113599Y140100D02*
X114266D01*
X113933D01*
Y141433D01*
X113599D01*
X115266D02*
Y140100D01*
Y140767D01*
X115599Y141100D01*
X115932Y141433D01*
X116265D01*
X118264Y140100D02*
X117598D01*
X117265Y140433D01*
Y141100D01*
X117598Y141433D01*
X118264D01*
X118598Y141100D01*
Y140767D01*
X117265D01*
X119264Y142099D02*
Y140100D01*
Y141100D01*
X120597D01*
Y142099D01*
Y140100D01*
X122263D02*
X121597D01*
X121264Y140433D01*
Y141100D01*
X121597Y141433D01*
X122263D01*
X122596Y141100D01*
Y140767D01*
X121264D01*
X123596Y141433D02*
X124263D01*
X124596Y141100D01*
Y140100D01*
X123596D01*
X123263Y140433D01*
X123596Y140767D01*
X124596D01*
X126595Y142099D02*
Y140100D01*
X125595D01*
X125262Y140433D01*
Y141100D01*
X125595Y141433D01*
X126595D01*
X128261Y140100D02*
X127595D01*
X127262Y140433D01*
Y141100D01*
X127595Y141433D01*
X128261D01*
X128595Y141100D01*
Y140767D01*
X127262D01*
X129261Y141433D02*
Y140100D01*
Y140767D01*
X129594Y141100D01*
X129927Y141433D01*
X130261D01*
X132593Y142099D02*
X131260D01*
Y141100D01*
X131927Y141433D01*
X132260D01*
X132593Y141100D01*
Y140433D01*
X132260Y140100D01*
X131594D01*
X131260Y140433D01*
X133260Y139767D02*
X134592D01*
X135592Y140100D02*
X136259D01*
X136592Y140433D01*
Y141100D01*
X136259Y141433D01*
X135592D01*
X135259Y141100D01*
Y140433D01*
X135592Y140100D01*
X137258Y141433D02*
Y140100D01*
Y140767D01*
X137592Y141100D01*
X137925Y141433D01*
X138258D01*
X139258Y140100D02*
X139924D01*
X139591D01*
Y141433D01*
X139258D01*
X140924Y140100D02*
Y141433D01*
X141923D01*
X142257Y141100D01*
Y140100D01*
X143590Y139434D02*
X143923D01*
X144256Y139767D01*
Y141433D01*
X143256D01*
X142923Y141100D01*
Y140433D01*
X143256Y140100D01*
X144256D01*
X146255Y141766D02*
X145922Y142099D01*
X145256D01*
X144922Y141766D01*
Y140433D01*
X145256Y140100D01*
X145922D01*
X146255Y140433D01*
X112100Y72599D02*
Y70600D01*
X112767Y71266D01*
X113433Y70600D01*
Y72599D01*
X114099Y70600D02*
X114766D01*
X114433D01*
Y71933D01*
X114099D01*
X115766D02*
Y70600D01*
Y71266D01*
X116099Y71600D01*
X116432Y71933D01*
X116765D01*
X118764Y70600D02*
X118098D01*
X117765Y70933D01*
Y71600D01*
X118098Y71933D01*
X118764D01*
X119098Y71600D01*
Y71266D01*
X117765D01*
X119764Y72599D02*
Y70600D01*
Y71600D01*
X121097D01*
Y72599D01*
Y70600D01*
X122763D02*
X122097D01*
X121764Y70933D01*
Y71600D01*
X122097Y71933D01*
X122763D01*
X123096Y71600D01*
Y71266D01*
X121764D01*
X124096Y71933D02*
X124763D01*
X125096Y71600D01*
Y70600D01*
X124096D01*
X123763Y70933D01*
X124096Y71266D01*
X125096D01*
X127095Y72599D02*
Y70600D01*
X126095D01*
X125762Y70933D01*
Y71600D01*
X126095Y71933D01*
X127095D01*
X128761Y70600D02*
X128095D01*
X127762Y70933D01*
Y71600D01*
X128095Y71933D01*
X128761D01*
X129095Y71600D01*
Y71266D01*
X127762D01*
X129761Y71933D02*
Y70600D01*
Y71266D01*
X130094Y71600D01*
X130427Y71933D01*
X130761D01*
X133093Y72599D02*
X131760D01*
Y71600D01*
X132427Y71933D01*
X132760D01*
X133093Y71600D01*
Y70933D01*
X132760Y70600D01*
X132094D01*
X131760Y70933D01*
X133760Y70267D02*
X135092D01*
X136092Y70600D02*
X136759D01*
X137092Y70933D01*
Y71600D01*
X136759Y71933D01*
X136092D01*
X135759Y71600D01*
Y70933D01*
X136092Y70600D01*
X137758Y71933D02*
Y70600D01*
Y71266D01*
X138092Y71600D01*
X138425Y71933D01*
X138758D01*
X139758Y70600D02*
X140424D01*
X140091D01*
Y71933D01*
X139758D01*
X141424Y70600D02*
Y71933D01*
X142423D01*
X142757Y71600D01*
Y70600D01*
X144090Y69934D02*
X144423D01*
X144756Y70267D01*
Y71933D01*
X143756D01*
X143423Y71600D01*
Y70933D01*
X143756Y70600D01*
X144756D01*
X145422Y72599D02*
Y70600D01*
X146422D01*
X146755Y70933D01*
Y72266D01*
X146422Y72599D01*
X145422D01*
X209501Y189000D02*
X211500D01*
X210834D01*
X209501Y190333D01*
X210500Y189333D01*
X211500Y190333D01*
Y190999D02*
Y191666D01*
Y191333D01*
X210167D01*
Y190999D01*
X211500Y192666D02*
X210167D01*
Y193665D01*
X210500Y193998D01*
X211500D01*
Y195665D02*
Y194998D01*
X211167Y194665D01*
X210500D01*
X210167Y194998D01*
Y195665D01*
X210500Y195998D01*
X210834D01*
Y194665D01*
X210167Y197997D02*
Y196997D01*
X210500Y196664D01*
X211167D01*
X211500Y196997D01*
Y197997D01*
X209834Y198997D02*
X210167D01*
Y198663D01*
Y199330D01*
Y198997D01*
X211167D01*
X211500Y199330D01*
Y200330D02*
X209501D01*
Y201329D01*
X209834Y201663D01*
X210500D01*
X210834Y201329D01*
Y200330D01*
Y200996D02*
X211500Y201663D01*
Y203329D02*
Y202662D01*
X211167Y202329D01*
X210500D01*
X210167Y202662D01*
Y203329D01*
X210500Y203662D01*
X210834D01*
Y202329D01*
X212166Y204995D02*
Y205328D01*
X211833Y205661D01*
X210167D01*
Y204662D01*
X210500Y204328D01*
X211167D01*
X211500Y204662D01*
Y205661D01*
Y206328D02*
Y206994D01*
Y206661D01*
X209501D01*
X209834Y206328D01*
X57900Y262456D02*
X59233Y261123D01*
X57900D02*
X59233Y262456D01*
X57900Y261790D02*
X59233D01*
X58566Y261123D02*
Y262456D01*
X63500Y252500D02*
Y254499D01*
X64500D01*
X64833Y254166D01*
Y253500D01*
X64500Y253166D01*
X63500D01*
X65499Y252500D02*
Y254499D01*
X66832Y252500D01*
Y254499D01*
X63500D02*
Y252500D01*
X64500D01*
X64833Y252833D01*
Y254166D01*
X64500Y254499D01*
X63500D01*
X66832D02*
X65499D01*
Y252500D01*
X66832D01*
X65499Y253500D02*
X66166D01*
X67499Y254499D02*
Y253166D01*
X68165Y252500D01*
X68832Y253166D01*
Y254499D01*
X63500D02*
Y253166D01*
X64166Y252500D01*
X64833Y253166D01*
Y254499D01*
X65499Y252500D02*
Y253833D01*
X66166Y254499D01*
X66832Y253833D01*
Y252500D01*
Y253500D01*
X65499D01*
X67499Y254499D02*
Y252500D01*
X68832D01*
X63500Y254499D02*
X64833D01*
X64166D01*
Y252500D01*
X66499Y254499D02*
X65833D01*
X65499Y254166D01*
Y252833D01*
X65833Y252500D01*
X66499D01*
X66832Y252833D01*
Y254166D01*
X66499Y254499D01*
X67499D02*
Y252500D01*
X68832D01*
X360500Y134066D02*
X361833Y132733D01*
X360500D02*
X361833Y134066D01*
X360500Y133400D02*
X361833D01*
X361166Y132733D02*
Y134066D01*
X378000Y165000D02*
Y166999D01*
X379000D01*
X379333Y166666D01*
Y166000D01*
X379000Y165666D01*
X378000D01*
X379999Y165000D02*
Y166999D01*
X381332Y165000D01*
Y166999D01*
X378000D02*
Y165000D01*
X379000D01*
X379333Y165333D01*
Y166666D01*
X379000Y166999D01*
X378000D01*
X381332D02*
X379999D01*
Y165000D01*
X381332D01*
X379999Y166000D02*
X380666D01*
X381999Y166999D02*
Y165666D01*
X382665Y165000D01*
X383332Y165666D01*
Y166999D01*
X378000D02*
Y165666D01*
X378666Y165000D01*
X379333Y165666D01*
Y166999D01*
X379999Y165000D02*
Y166333D01*
X380666Y166999D01*
X381332Y166333D01*
Y165000D01*
Y166000D01*
X379999D01*
X381999Y166999D02*
Y165000D01*
X383332D01*
X378000Y166999D02*
X379333D01*
X378666D01*
Y165000D01*
X380999Y166999D02*
X380333D01*
X379999Y166666D01*
Y165333D01*
X380333Y165000D01*
X380999D01*
X381332Y165333D01*
Y166666D01*
X380999Y166999D01*
X381999D02*
Y165000D01*
X383332D01*
X190500Y201366D02*
X191833Y200033D01*
X190500D02*
X191833Y201366D01*
X190500Y200700D02*
X191833D01*
X191166Y200033D02*
Y201366D01*
X205500Y179000D02*
Y180999D01*
X206500D01*
X206833Y180666D01*
Y180000D01*
X206500Y179666D01*
X205500D01*
X207499Y179000D02*
Y180999D01*
X208832Y179000D01*
Y180999D01*
X205500D02*
Y179000D01*
X206500D01*
X206833Y179333D01*
Y180666D01*
X206500Y180999D01*
X205500D01*
X208832D02*
X207499D01*
Y179000D01*
X208832D01*
X207499Y180000D02*
X208166D01*
X209499Y180999D02*
Y179666D01*
X210165Y179000D01*
X210832Y179666D01*
Y180999D01*
X205500D02*
Y179666D01*
X206166Y179000D01*
X206833Y179666D01*
Y180999D01*
X207499Y179000D02*
Y180333D01*
X208166Y180999D01*
X208832Y180333D01*
Y179000D01*
Y180000D01*
X207499D01*
X209499Y180999D02*
Y179000D01*
X210832D01*
X205500Y180999D02*
X206833D01*
X206166D01*
Y179000D01*
X208499Y180999D02*
X207833D01*
X207499Y180666D01*
Y179333D01*
X207833Y179000D01*
X208499D01*
X208832Y179333D01*
Y180666D01*
X208499Y180999D01*
X209499D02*
Y179000D01*
X210832D01*
X57900Y191065D02*
X59233Y189732D01*
X57900D02*
X59233Y191065D01*
X57900Y190398D02*
X59233D01*
X58566Y189732D02*
Y191065D01*
X63500Y181108D02*
Y183107D01*
X64500D01*
X64833Y182774D01*
Y182108D01*
X64500Y181775D01*
X63500D01*
X65499Y181108D02*
Y183107D01*
X66832Y181108D01*
Y183107D01*
X63500D02*
Y181108D01*
X64500D01*
X64833Y181441D01*
Y182774D01*
X64500Y183107D01*
X63500D01*
X66832D02*
X65499D01*
Y181108D01*
X66832D01*
X65499Y182108D02*
X66166D01*
X67499Y183107D02*
Y181775D01*
X68165Y181108D01*
X68832Y181775D01*
Y183107D01*
X63500D02*
Y181775D01*
X64166Y181108D01*
X64833Y181775D01*
Y183107D01*
X65499Y181108D02*
Y182441D01*
X66166Y183107D01*
X66832Y182441D01*
Y181108D01*
Y182108D01*
X65499D01*
X67499Y183107D02*
Y181108D01*
X68832D01*
X63500Y183107D02*
X64833D01*
X64166D01*
Y181108D01*
X66499Y183107D02*
X65833D01*
X65499Y182774D01*
Y181441D01*
X65833Y181108D01*
X66499D01*
X66832Y181441D01*
Y182774D01*
X66499Y183107D01*
X67499D02*
Y181108D01*
X68832D01*
X57900Y119564D02*
X59233Y118231D01*
X57900D02*
X59233Y119564D01*
X57900Y118898D02*
X59233D01*
X58566Y118231D02*
Y119564D01*
X63500Y109608D02*
Y111608D01*
X64500D01*
X64833Y111274D01*
Y110608D01*
X64500Y110275D01*
X63500D01*
X65499Y109608D02*
Y111608D01*
X66832Y109608D01*
Y111608D01*
X63500D02*
Y109608D01*
X64500D01*
X64833Y109941D01*
Y111274D01*
X64500Y111608D01*
X63500D01*
X66832D02*
X65499D01*
Y109608D01*
X66832D01*
X65499Y110608D02*
X66166D01*
X67499Y111608D02*
Y110275D01*
X68165Y109608D01*
X68832Y110275D01*
Y111608D01*
X63500D02*
Y110275D01*
X64166Y109608D01*
X64833Y110275D01*
Y111608D01*
X65499Y109608D02*
Y110941D01*
X66166Y111608D01*
X66832Y110941D01*
Y109608D01*
Y110608D01*
X65499D01*
X67499Y111608D02*
Y109608D01*
X68832D01*
X63500Y111608D02*
X64833D01*
X64166D01*
Y109608D01*
X66499Y111608D02*
X65833D01*
X65499Y111274D01*
Y109941D01*
X65833Y109608D01*
X66499D01*
X66832Y109941D01*
Y111274D01*
X66499Y111608D01*
X67499D02*
Y109608D01*
X68832D01*
X57900Y48064D02*
X59233Y46731D01*
X57900D02*
X59233Y48064D01*
X57900Y47398D02*
X59233D01*
X58566Y46731D02*
Y48064D01*
X63500Y38108D02*
Y40108D01*
X64500D01*
X64833Y39774D01*
Y39108D01*
X64500Y38775D01*
X63500D01*
X65499Y38108D02*
Y40108D01*
X66832Y38108D01*
Y40108D01*
X63500D02*
Y38108D01*
X64500D01*
X64833Y38441D01*
Y39774D01*
X64500Y40108D01*
X63500D01*
X66832D02*
X65499D01*
Y38108D01*
X66832D01*
X65499Y39108D02*
X66166D01*
X67499Y40108D02*
Y38775D01*
X68165Y38108D01*
X68832Y38775D01*
Y40108D01*
X63500D02*
Y38775D01*
X64166Y38108D01*
X64833Y38775D01*
Y40108D01*
X65499Y38108D02*
Y39441D01*
X66166Y40108D01*
X66832Y39441D01*
Y38108D01*
Y39108D01*
X65499D01*
X67499Y40108D02*
Y38108D01*
X68832D01*
X63500Y40108D02*
X64833D01*
X64166D01*
Y38108D01*
X66499Y40108D02*
X65833D01*
X65499Y39774D01*
Y38441D01*
X65833Y38108D01*
X66499D01*
X66832Y38441D01*
Y39774D01*
X66499Y40108D01*
X67499D02*
Y38108D01*
X68832D01*
D42*
X204300Y199000D02*
G03*
X206700Y199000I1200J0D01*
G01*
X80300Y234000D02*
G03*
X80300Y234000I-300J0D01*
G01*
Y162608D02*
G03*
X80300Y162608I-300J0D01*
G01*
Y91108D02*
G03*
X80300Y91108I-300J0D01*
G01*
Y19608D02*
G03*
X80300Y19608I-300J0D01*
G01*
X305800Y239500D02*
G03*
X308200Y239500I1200J0D01*
G01*
X61659Y246450D02*
X65341D01*
X61659Y258550D02*
X65341D01*
X366100Y139100D02*
Y142600D01*
X376100Y139100D02*
Y142600D01*
X386100Y139100D02*
Y142600D01*
X369900Y139100D02*
Y142600D01*
X379900Y139100D02*
Y142600D01*
X389900Y139100D02*
Y142600D01*
X218500Y197476D02*
Y199000D01*
Y187476D02*
Y190524D01*
X192500Y159000D02*
X218500D01*
Y160524D01*
X192500Y199000D02*
X218500D01*
X192500Y187476D02*
Y189990D01*
Y177476D02*
Y180524D01*
Y167476D02*
Y170524D01*
Y159000D02*
Y160524D01*
X218500Y167476D02*
Y170524D01*
Y177476D02*
Y180524D01*
X287106Y70815D02*
Y73201D01*
Y89154D02*
X289493D01*
X303058D02*
X305445D01*
Y70815D02*
Y73201D01*
X287106Y70815D02*
X289493D01*
X287106Y86768D02*
Y89154D01*
X303058Y70815D02*
X305445D01*
Y86768D02*
Y89154D01*
X157331Y70831D02*
Y73216D01*
Y89169D02*
X159718D01*
X173282D02*
X175669D01*
Y70831D02*
Y73216D01*
X157331Y70831D02*
X159718D01*
X157331Y86784D02*
Y89169D01*
X173282Y70831D02*
X175669D01*
Y86784D02*
Y89169D01*
X61659Y175058D02*
X65341D01*
X61659Y187158D02*
X65341D01*
X61659Y103558D02*
X65341D01*
X61659Y115658D02*
X65341D01*
X61659Y32058D02*
X65341D01*
X61659Y44158D02*
X65341D01*
X80658Y241738D02*
Y243651D01*
X100343Y241738D02*
Y243651D01*
X80658Y170346D02*
Y172259D01*
X100343Y170346D02*
Y172259D01*
X80658Y98846D02*
Y100759D01*
X100343Y98846D02*
Y100759D01*
X80658Y27346D02*
Y29259D01*
X100343Y27346D02*
Y29259D01*
X320000Y237976D02*
Y239500D01*
Y227976D02*
Y231024D01*
X294000Y199500D02*
X320000D01*
Y201024D01*
X294000Y239500D02*
X320000D01*
X294000Y227976D02*
Y230490D01*
Y217976D02*
Y221024D01*
Y207976D02*
Y211024D01*
Y199500D02*
Y201024D01*
X320000Y207976D02*
Y211024D01*
Y217976D02*
Y221024D01*
D43*
X226488Y131988D02*
Y143012D01*
X226488Y131988D02*
X237512D01*
Y143012D01*
X226488Y143012D02*
X237512D01*
X194433Y113588D02*
Y124612D01*
X173567Y113588D02*
Y124612D01*
X194433D01*
X173567Y113588D02*
X194433D01*
X75433Y221988D02*
Y233012D01*
X54567Y221988D02*
Y233012D01*
X75433D01*
X54567Y221988D02*
X75433D01*
Y150596D02*
Y161620D01*
X54567Y150596D02*
Y161620D01*
X75433D01*
X54567Y150596D02*
X75433D01*
Y79096D02*
Y90120D01*
X54567Y79096D02*
Y90120D01*
X75433D01*
X54567Y79096D02*
X75433D01*
Y6488D02*
Y17512D01*
X54567Y6488D02*
Y17512D01*
X75433D01*
X54567Y6488D02*
X75433D01*
X237500Y175335D02*
Y179665D01*
X280276Y57819D02*
Y62150D01*
X150500Y57835D02*
Y62165D01*
X273941Y202500D02*
X279059D01*
X201500Y143941D02*
Y149059D01*
X306500Y186441D02*
Y191559D01*
X193000Y203941D02*
Y209059D01*
X201500Y134941D02*
Y140059D01*
X360941Y203500D02*
X366059D01*
X349941Y211500D02*
X355059D01*
X181441Y243000D02*
X186559D01*
X256500Y217941D02*
Y223059D01*
X376260Y52441D02*
X381378D01*
X246484Y52457D02*
X251602D01*
X357716Y87441D02*
X362835D01*
X227941Y87457D02*
X233059D01*
X376217Y88941D02*
X381335D01*
X246441Y88957D02*
X251559D01*
X376260Y69941D02*
X381378D01*
X246484Y69957D02*
X251602D01*
X216500Y134941D02*
Y140059D01*
X327276Y72426D02*
Y77544D01*
X197500Y72441D02*
Y77559D01*
X168600Y224500D02*
X169500D01*
X189500D02*
X190400D01*
X169500D02*
Y227500D01*
X189500D01*
Y221500D02*
Y227500D01*
X169500Y221500D02*
X189500D01*
X169500D02*
Y224500D01*
X39000Y276500D02*
Y277400D01*
Y255600D02*
Y256500D01*
Y276500D02*
X42000D01*
Y256500D02*
Y276500D01*
X36000Y256500D02*
X42000D01*
X36000D02*
Y276500D01*
X39000D01*
Y205108D02*
Y206008D01*
Y184208D02*
Y185108D01*
Y205108D02*
X42000D01*
Y185108D02*
Y205108D01*
X36000Y185108D02*
X42000D01*
X36000D02*
Y205108D01*
X39000D01*
Y133608D02*
Y134508D01*
Y112708D02*
Y113608D01*
Y133608D02*
X42000D01*
Y113608D02*
Y133608D01*
X36000Y113608D02*
X42000D01*
X36000D02*
Y133608D01*
X39000D01*
Y62108D02*
Y63008D01*
Y41208D02*
Y42108D01*
Y62108D02*
X42000D01*
Y42108D02*
Y62108D01*
X36000Y42108D02*
X42000D01*
X36000D02*
Y62108D01*
X39000D01*
D44*
X301274Y79984D02*
Y76652D01*
Y78318D01*
X296276D01*
X301274Y72487D02*
Y74153D01*
X300441Y74986D01*
X297109D01*
X296276Y74153D01*
Y72487D01*
X297109Y71654D01*
X300441D01*
X301274Y72487D01*
Y69988D02*
X296276D01*
Y66655D01*
X301274Y79984D02*
X297942D01*
X296276Y78318D01*
X297942Y76652D01*
X301274D01*
X296276Y74986D02*
X299608D01*
X301274Y73320D01*
X299608Y71654D01*
X296276D01*
X298775D01*
Y74986D01*
X301274Y69988D02*
X296276D01*
Y66655D01*
X301274Y79984D02*
X296276D01*
Y77485D01*
X297109Y76652D01*
X300441D01*
X301274Y77485D01*
Y79984D01*
Y71654D02*
Y74986D01*
X296276D01*
Y71654D01*
X298775Y74986D02*
Y73320D01*
X301274Y69988D02*
X297942D01*
X296276Y68322D01*
X297942Y66655D01*
X301274D01*
X296276Y79984D02*
X301274D01*
Y77485D01*
X300441Y76652D01*
X298775D01*
X297942Y77485D01*
Y79984D01*
X296276Y74986D02*
X301274D01*
X296276Y71654D01*
X301274D01*
X307846Y91933D02*
X304514Y88601D01*
Y91933D02*
X307846Y88601D01*
X306180Y91933D02*
Y88601D01*
X304514Y90267D02*
X307846D01*
X171498Y80000D02*
Y76668D01*
Y78334D01*
X166500D01*
X171498Y72502D02*
Y74169D01*
X170665Y75002D01*
X167333D01*
X166500Y74169D01*
Y72502D01*
X167333Y71669D01*
X170665D01*
X171498Y72502D01*
Y70003D02*
X166500D01*
Y66671D01*
X171498Y80000D02*
X168166D01*
X166500Y78334D01*
X168166Y76668D01*
X171498D01*
X166500Y75002D02*
X169832D01*
X171498Y73335D01*
X169832Y71669D01*
X166500D01*
X168999D01*
Y75002D01*
X171498Y70003D02*
X166500D01*
Y66671D01*
X171498Y80000D02*
X166500D01*
Y77501D01*
X167333Y76668D01*
X170665D01*
X171498Y77501D01*
Y80000D01*
Y71669D02*
Y75002D01*
X166500D01*
Y71669D01*
X168999Y75002D02*
Y73335D01*
X171498Y70003D02*
X168166D01*
X166500Y68337D01*
X168166Y66671D01*
X171498D01*
X166500Y80000D02*
X171498D01*
Y77501D01*
X170665Y76668D01*
X168999D01*
X168166Y77501D01*
Y80000D01*
X166500Y75002D02*
X171498D01*
X166500Y71669D01*
X171498D01*
X178071Y91949D02*
X174739Y88617D01*
Y91949D02*
X178071Y88617D01*
X176405Y91949D02*
Y88617D01*
X174739Y90283D02*
X178071D01*
X292000Y244365D02*
X295332Y241033D01*
X292000D02*
X295332Y244365D01*
X292000Y242699D02*
X295332D01*
X293666Y241033D02*
Y244365D01*
X307000Y219500D02*
Y224498D01*
X309499D01*
X310332Y223665D01*
Y221999D01*
X309499Y221166D01*
X307000D01*
X311998Y219500D02*
Y224498D01*
X315331Y219500D01*
Y224498D01*
X307000D02*
Y219500D01*
X309499D01*
X310332Y220333D01*
Y223665D01*
X309499Y224498D01*
X307000D01*
X315331D02*
X311998D01*
Y219500D01*
X315331D01*
X311998Y221999D02*
X313665D01*
X316997Y224498D02*
Y221166D01*
X318663Y219500D01*
X320329Y221166D01*
Y224498D01*
X307000D02*
Y221166D01*
X308666Y219500D01*
X310332Y221166D01*
Y224498D01*
X311998Y219500D02*
Y222832D01*
X313665Y224498D01*
X315331Y222832D01*
Y219500D01*
Y221999D01*
X311998D01*
X316997Y224498D02*
Y219500D01*
X320329D01*
X307000Y224498D02*
X310332D01*
X308666D01*
Y219500D01*
X314498Y224498D02*
X312831D01*
X311998Y223665D01*
Y220333D01*
X312831Y219500D01*
X314498D01*
X315331Y220333D01*
Y223665D01*
X314498Y224498D01*
X316997D02*
Y219500D01*
X320329D01*
X261854Y193658D02*
X258522Y196990D01*
X261854D02*
X258522Y193658D01*
X261854Y195324D02*
X258522D01*
X260188Y196990D02*
Y193658D01*
M02*
