M48
;Layer_Color=9474304
;FILE_FORMAT=2:5
INCH,LZ
;TYPE=PLATED
T1F00S00C0.01000
T2F00S00C0.02800
T3F00S00C0.03000
T4F00S00C0.03346
T5F00S00C0.03400
T6F00S00C0.03543
T8F00S00C0.05000
T9F00S00C0.06400
T10F00S00C0.12900
%
T01
X01665Y00769
X01696
Y008
X01665
Y00831
X01696
X0293176Y0083084
Y0079984
Y0076885
X0296276
X0299376
Y0079984
X0296276
Y0083084
X0299376
X01634Y00831
Y008
Y00769
T02
X0348276Y0070985
X03425Y01145
X02185Y0071
X02515Y0159
X02115Y02175
X0349Y01355
T03
X01525Y01505
X01725Y01605
Y01405
T04
X0039Y0037108
Y0067108
Y0108608
Y0138608
Y0180108
Y0210108
Y02515
Y02815
X01645Y02245
X01945
T05
X01905Y0164
Y0174
Y0184
Y0194
X02205
Y0184
Y0174
Y0164
X0292Y02045
Y02145
Y02245
Y02345
X0322
Y02245
Y02145
Y02045
T06
X0206933Y01191
X0161067
X0087933Y0084608
X0042067
Y0012
X0087933
Y0156108
X0042067
Y02275
X0087933
X0232Y01375
T08
X03755Y0227
X03855
X03595Y0257
X03495
T09
X02575Y0121
X02975Y01205
X0119Y0089
X012Y00595
X01195Y00195
Y0129
X01205Y0161
X0121Y0201
X01195Y02335
X012Y02735
X026Y01715
X0268Y01455
X0308Y0145
X03Y0171
X0328Y01735
X03275Y01335
T10
X0383Y00115
X015
X002284Y00095
X0383Y02885
X015Y029
X00105
M30
