G04 Layer_Color=8388736*
%FSLAX25Y25*%
%MOIN*%
G70*
G01*
G75*
%ADD47R,0.05600X0.02900*%
%ADD48R,0.06312X0.05131*%
%ADD49R,0.05131X0.06312*%
%ADD50R,0.04800X0.11400*%
%ADD51R,0.41800X0.42000*%
%ADD52R,0.00146X0.00146*%
%ADD53R,0.05147X0.01902*%
%ADD54R,0.01902X0.05147*%
%ADD55R,0.04737X0.05918*%
%ADD56R,0.06706X0.06312*%
%ADD57R,0.06312X0.06706*%
%ADD58R,0.03359X0.09280*%
%ADD59R,0.16154X0.02375*%
%ADD60R,0.06706X0.06706*%
%ADD61C,0.06800*%
%ADD62C,0.00800*%
%ADD63C,0.07800*%
%ADD64C,0.06706*%
%ADD65R,0.06200X0.06200*%
%ADD66C,0.06200*%
%ADD67C,0.15800*%
G04:AMPARAMS|DCode=68|XSize=298mil|YSize=88mil|CornerRadius=24mil|HoleSize=0mil|Usage=FLASHONLY|Rotation=90.000|XOffset=0mil|YOffset=0mil|HoleType=Round|Shape=RoundedRectangle|*
%AMROUNDEDRECTD68*
21,1,0.29800,0.04000,0,0,90.0*
21,1,0.25000,0.08800,0,0,90.0*
1,1,0.04800,0.02000,0.12500*
1,1,0.04800,0.02000,-0.12500*
1,1,0.04800,-0.02000,-0.12500*
1,1,0.04800,-0.02000,0.12500*
%
%ADD68ROUNDEDRECTD68*%
%ADD69C,0.06800*%
%ADD70C,0.02800*%
%ADD71C,0.06312*%
%ADD72C,0.05800*%
G36*
X160672Y76221D02*
X156777D01*
Y77872D01*
X160672D01*
Y76221D01*
D02*
G37*
G36*
X305998Y76206D02*
X302104D01*
Y77856D01*
X305998D01*
Y76206D01*
D02*
G37*
G36*
X290447Y78175D02*
X286553D01*
Y79825D01*
X290447D01*
Y78175D01*
D02*
G37*
G36*
X176223Y76221D02*
X172328D01*
Y77872D01*
X176223D01*
Y76221D01*
D02*
G37*
G36*
X290447Y76206D02*
X286553D01*
Y77856D01*
X290447D01*
Y76206D01*
D02*
G37*
G36*
X176223Y74252D02*
X172328D01*
Y75903D01*
X176223D01*
Y74252D01*
D02*
G37*
G36*
X160672D02*
X156777D01*
Y75903D01*
X160672D01*
Y74252D01*
D02*
G37*
G36*
X171573Y83887D02*
Y82313D01*
Y80787D01*
Y79213D01*
Y77687D01*
Y74927D01*
X161427D01*
Y77687D01*
Y79213D01*
Y80787D01*
Y82313D01*
Y83887D01*
Y85073D01*
X171573D01*
Y83887D01*
D02*
G37*
G36*
X301348Y83872D02*
Y82297D01*
Y80772D01*
Y79197D01*
Y77672D01*
Y74912D01*
X291203D01*
Y77672D01*
Y79197D01*
Y80772D01*
Y82297D01*
Y83872D01*
Y85057D01*
X301348D01*
Y83872D01*
D02*
G37*
G36*
X305998Y78175D02*
X302104D01*
Y79825D01*
X305998D01*
Y78175D01*
D02*
G37*
G36*
X290447Y82113D02*
X286553D01*
Y83763D01*
X290447D01*
Y82113D01*
D02*
G37*
G36*
X176223Y80159D02*
X172328D01*
Y81810D01*
X176223D01*
Y80159D01*
D02*
G37*
G36*
X160672Y82128D02*
X156777D01*
Y83779D01*
X160672D01*
Y82128D01*
D02*
G37*
G36*
X305998Y82113D02*
X302104D01*
Y83763D01*
X305998D01*
Y82113D01*
D02*
G37*
G36*
X160672Y80159D02*
X156777D01*
Y81810D01*
X160672D01*
Y80159D01*
D02*
G37*
G36*
X176223Y78190D02*
X172328D01*
Y79841D01*
X176223D01*
Y78190D01*
D02*
G37*
G36*
X160672D02*
X156777D01*
Y79841D01*
X160672D01*
Y78190D01*
D02*
G37*
G36*
X305998Y80144D02*
X302104D01*
Y81794D01*
X305998D01*
Y80144D01*
D02*
G37*
G36*
X290447D02*
X286553D01*
Y81794D01*
X290447D01*
Y80144D01*
D02*
G37*
G36*
X294148Y70262D02*
X292498D01*
Y74156D01*
X294148D01*
Y70262D01*
D02*
G37*
G36*
X292179D02*
X290529D01*
Y74156D01*
X292179D01*
Y70262D01*
D02*
G37*
G36*
X298085D02*
X296435D01*
Y74156D01*
X298085D01*
Y70262D01*
D02*
G37*
G36*
X296116D02*
X294466D01*
Y74156D01*
X296116D01*
Y70262D01*
D02*
G37*
G36*
X99555Y45360D02*
X99279D01*
Y30025D01*
X81721D01*
Y45360D01*
X81445D01*
Y48392D01*
X84555D01*
Y46916D01*
X86445D01*
Y48392D01*
X89555D01*
Y46916D01*
X91445D01*
Y48392D01*
X94555D01*
Y46916D01*
X96445D01*
Y48392D01*
X99555D01*
Y45360D01*
D02*
G37*
G36*
X89555Y23824D02*
X86445D01*
Y26856D01*
X89555D01*
Y23824D01*
D02*
G37*
G36*
X84555D02*
X81445D01*
Y26856D01*
X84555D01*
Y23824D01*
D02*
G37*
G36*
X99555D02*
X96445D01*
Y26856D01*
X99555D01*
Y23824D01*
D02*
G37*
G36*
X94555D02*
X91445D01*
Y26856D01*
X94555D01*
Y23824D01*
D02*
G37*
G36*
X300054Y70262D02*
X298403D01*
Y74156D01*
X300054D01*
Y70262D01*
D02*
G37*
G36*
X172246Y70277D02*
X170596D01*
Y74172D01*
X172246D01*
Y70277D01*
D02*
G37*
G36*
X170278D02*
X168628D01*
Y74172D01*
X170278D01*
Y70277D01*
D02*
G37*
G36*
X305998Y74237D02*
X302104D01*
Y75887D01*
X305998D01*
Y74237D01*
D02*
G37*
G36*
X290447D02*
X286553D01*
Y75887D01*
X290447D01*
Y74237D01*
D02*
G37*
G36*
X168309Y70277D02*
X166659D01*
Y74172D01*
X168309D01*
Y70277D01*
D02*
G37*
G36*
X162404D02*
X160754D01*
Y74172D01*
X162404D01*
Y70277D01*
D02*
G37*
G36*
X302022Y70262D02*
X300372D01*
Y74156D01*
X302022D01*
Y70262D01*
D02*
G37*
G36*
X166341Y70277D02*
X164691D01*
Y74172D01*
X166341D01*
Y70277D01*
D02*
G37*
G36*
X164372D02*
X162722D01*
Y74172D01*
X164372D01*
Y70277D01*
D02*
G37*
G36*
X94555Y95324D02*
X91445D01*
Y98356D01*
X94555D01*
Y95324D01*
D02*
G37*
G36*
X298085Y85813D02*
X296435D01*
Y89707D01*
X298085D01*
Y85813D01*
D02*
G37*
G36*
X84555Y95324D02*
X81445D01*
Y98356D01*
X84555D01*
Y95324D01*
D02*
G37*
G36*
X89555D02*
X86445D01*
Y98356D01*
X89555D01*
Y95324D01*
D02*
G37*
G36*
X292179Y85813D02*
X290529D01*
Y89707D01*
X292179D01*
Y85813D01*
D02*
G37*
G36*
X176223Y84097D02*
X172328D01*
Y85748D01*
X176223D01*
Y84097D01*
D02*
G37*
G36*
X296116Y85813D02*
X294466D01*
Y89707D01*
X296116D01*
Y85813D01*
D02*
G37*
G36*
X294148D02*
X292498D01*
Y89707D01*
X294148D01*
Y85813D01*
D02*
G37*
G36*
X162404Y85828D02*
X160754D01*
Y89723D01*
X162404D01*
Y85828D01*
D02*
G37*
G36*
X302022Y85813D02*
X300372D01*
Y89707D01*
X302022D01*
Y85813D01*
D02*
G37*
G36*
X166341Y85828D02*
X164691D01*
Y89723D01*
X166341D01*
Y85828D01*
D02*
G37*
G36*
X164372D02*
X162722D01*
Y89723D01*
X164372D01*
Y85828D01*
D02*
G37*
G36*
X170278D02*
X168628D01*
Y89723D01*
X170278D01*
Y85828D01*
D02*
G37*
G36*
X172246D02*
X170596D01*
Y89723D01*
X172246D01*
Y85828D01*
D02*
G37*
G36*
X300054Y85813D02*
X298403D01*
Y89707D01*
X300054D01*
Y85813D01*
D02*
G37*
G36*
X168309Y85828D02*
X166659D01*
Y89723D01*
X168309D01*
Y85828D01*
D02*
G37*
G36*
X84555Y238216D02*
X81445D01*
Y241248D01*
X84555D01*
Y238216D01*
D02*
G37*
G36*
X89555D02*
X86445D01*
Y241248D01*
X89555D01*
Y238216D01*
D02*
G37*
G36*
X99555Y166824D02*
X96445D01*
Y169856D01*
X99555D01*
Y166824D01*
D02*
G37*
G36*
Y188360D02*
X99279D01*
Y173025D01*
X81721D01*
Y188360D01*
X81445D01*
Y191392D01*
X84555D01*
Y189916D01*
X86445D01*
Y191392D01*
X89555D01*
Y189916D01*
X91445D01*
Y191392D01*
X94555D01*
Y189916D01*
X96445D01*
Y191392D01*
X99555D01*
Y188360D01*
D02*
G37*
G36*
Y259752D02*
X99279D01*
Y244416D01*
X81721D01*
Y259752D01*
X81445D01*
Y262784D01*
X84555D01*
Y261308D01*
X86445D01*
Y262784D01*
X89555D01*
Y261308D01*
X91445D01*
Y262784D01*
X94555D01*
Y261308D01*
X96445D01*
Y262784D01*
X99555D01*
Y259752D01*
D02*
G37*
G36*
X176223Y82128D02*
X172328D01*
Y83779D01*
X176223D01*
Y82128D01*
D02*
G37*
G36*
X94555Y238216D02*
X91445D01*
Y241248D01*
X94555D01*
Y238216D01*
D02*
G37*
G36*
X99555D02*
X96445D01*
Y241248D01*
X99555D01*
Y238216D01*
D02*
G37*
G36*
X290447Y84082D02*
X286553D01*
Y85732D01*
X290447D01*
Y84082D01*
D02*
G37*
G36*
X99555Y95324D02*
X96445D01*
Y98356D01*
X99555D01*
Y95324D01*
D02*
G37*
G36*
X160672Y84097D02*
X156777D01*
Y85748D01*
X160672D01*
Y84097D01*
D02*
G37*
G36*
X305998Y84082D02*
X302104D01*
Y85732D01*
X305998D01*
Y84082D01*
D02*
G37*
G36*
X89555Y166824D02*
X86445D01*
Y169856D01*
X89555D01*
Y166824D01*
D02*
G37*
G36*
X94555D02*
X91445D01*
Y169856D01*
X94555D01*
Y166824D01*
D02*
G37*
G36*
X99555Y116860D02*
X99279D01*
Y101525D01*
X81721D01*
Y116860D01*
X81445D01*
Y119892D01*
X84555D01*
Y118416D01*
X86445D01*
Y119892D01*
X89555D01*
Y118416D01*
X91445D01*
Y119892D01*
X94555D01*
Y118416D01*
X96445D01*
Y119892D01*
X99555D01*
Y116860D01*
D02*
G37*
G36*
X84555Y166824D02*
X81445D01*
Y169856D01*
X84555D01*
Y166824D01*
D02*
G37*
%LPC*%
G36*
X170387Y80787D02*
X168813D01*
Y79213D01*
X170387D01*
Y80787D01*
D02*
G37*
G36*
Y83887D02*
X168813D01*
Y82313D01*
X170387D01*
Y83887D01*
D02*
G37*
G36*
X164187Y80787D02*
X162613D01*
Y79213D01*
X164187D01*
Y80787D01*
D02*
G37*
G36*
X167287D02*
X165713D01*
Y79213D01*
X167287D01*
Y80787D01*
D02*
G37*
G36*
Y83887D02*
X165713D01*
Y82313D01*
X167287D01*
Y83887D01*
D02*
G37*
G36*
X297063Y83872D02*
X295488D01*
Y82297D01*
X297063D01*
Y83872D01*
D02*
G37*
G36*
X293963D02*
X292388D01*
Y82297D01*
X293963D01*
Y83872D01*
D02*
G37*
G36*
X164187Y83887D02*
X162613D01*
Y82313D01*
X164187D01*
Y83887D01*
D02*
G37*
G36*
X300163Y83872D02*
X298588D01*
Y82297D01*
X300163D01*
Y83872D01*
D02*
G37*
G36*
Y77672D02*
X298588D01*
Y76097D01*
X300163D01*
Y77672D01*
D02*
G37*
G36*
X164187Y77687D02*
X162613D01*
Y76113D01*
X164187D01*
Y77687D01*
D02*
G37*
G36*
X293963Y77672D02*
X292388D01*
Y76097D01*
X293963D01*
Y77672D01*
D02*
G37*
G36*
X297063D02*
X295488D01*
Y76097D01*
X297063D01*
Y77672D01*
D02*
G37*
G36*
X167287Y77687D02*
X165713D01*
Y76113D01*
X167287D01*
Y77687D01*
D02*
G37*
G36*
X297063Y80772D02*
X295488D01*
Y79197D01*
X297063D01*
Y80772D01*
D02*
G37*
G36*
X300163D02*
X298588D01*
Y79197D01*
X300163D01*
Y80772D01*
D02*
G37*
G36*
X170387Y77687D02*
X168813D01*
Y76113D01*
X170387D01*
Y77687D01*
D02*
G37*
G36*
X293963Y80772D02*
X292388D01*
Y79197D01*
X293963D01*
Y80772D01*
D02*
G37*
%LPD*%
D47*
X58900Y256240D02*
D03*
Y252500D02*
D03*
Y248760D02*
D03*
X68100D02*
D03*
Y252500D02*
D03*
Y256240D02*
D03*
X58900Y184848D02*
D03*
Y181108D02*
D03*
Y177368D02*
D03*
X68100D02*
D03*
Y181108D02*
D03*
Y184848D02*
D03*
X58900Y113348D02*
D03*
Y109608D02*
D03*
Y105868D02*
D03*
X68100D02*
D03*
Y109608D02*
D03*
Y113348D02*
D03*
X58900Y41848D02*
D03*
Y38108D02*
D03*
Y34368D02*
D03*
X68100D02*
D03*
Y38108D02*
D03*
Y41848D02*
D03*
D48*
X169500Y213953D02*
D03*
Y208047D02*
D03*
X327000Y191953D02*
D03*
Y186047D02*
D03*
X239500Y162953D02*
D03*
Y157047D02*
D03*
X164500Y240047D02*
D03*
Y245953D02*
D03*
X366776Y55437D02*
D03*
Y49532D02*
D03*
X237000Y55453D02*
D03*
Y49547D02*
D03*
X323776Y90894D02*
D03*
Y84988D02*
D03*
X194000Y90909D02*
D03*
Y85004D02*
D03*
X343276Y84988D02*
D03*
Y90894D02*
D03*
X213500Y85004D02*
D03*
Y90909D02*
D03*
X327276Y49988D02*
D03*
Y55894D02*
D03*
X197500Y50004D02*
D03*
Y55910D02*
D03*
D49*
X356453Y114500D02*
D03*
X350547D02*
D03*
X27453Y251500D02*
D03*
X21547D02*
D03*
X27453Y180108D02*
D03*
X21547D02*
D03*
X27453Y108608D02*
D03*
X21547D02*
D03*
X27453Y37108D02*
D03*
X21547D02*
D03*
X295323Y49984D02*
D03*
X301228D02*
D03*
X165547Y50000D02*
D03*
X171453D02*
D03*
X290453Y97000D02*
D03*
X284547D02*
D03*
X160996Y96957D02*
D03*
X155090D02*
D03*
X351728Y54984D02*
D03*
X345823D02*
D03*
X221953Y55000D02*
D03*
X216047D02*
D03*
X311323Y49941D02*
D03*
X317228D02*
D03*
X181547Y49957D02*
D03*
X187453D02*
D03*
D50*
X368000Y132400D02*
D03*
X378000D02*
D03*
X388000D02*
D03*
D51*
X378000Y165600D02*
D03*
D52*
X296276Y79984D02*
D03*
X166500Y80000D02*
D03*
D53*
X304551Y84907D02*
D03*
Y82938D02*
D03*
Y80969D02*
D03*
Y79000D02*
D03*
Y77031D02*
D03*
Y75062D02*
D03*
X288000D02*
D03*
Y77031D02*
D03*
Y79000D02*
D03*
Y80969D02*
D03*
Y82938D02*
D03*
Y84907D02*
D03*
X174776Y84922D02*
D03*
Y82954D02*
D03*
Y80984D02*
D03*
Y79015D02*
D03*
Y77047D02*
D03*
Y75077D02*
D03*
X158224D02*
D03*
Y77047D02*
D03*
Y79015D02*
D03*
Y80984D02*
D03*
Y82954D02*
D03*
Y84922D02*
D03*
D54*
X301197Y71709D02*
D03*
X299228D02*
D03*
X297260D02*
D03*
X295291D02*
D03*
X293323D02*
D03*
X291354D02*
D03*
Y88260D02*
D03*
X293323D02*
D03*
X295291D02*
D03*
X297260D02*
D03*
X299228D02*
D03*
X301197D02*
D03*
X171421Y71724D02*
D03*
X169453D02*
D03*
X167484D02*
D03*
X165516D02*
D03*
X163547D02*
D03*
X161579D02*
D03*
Y88276D02*
D03*
X163547D02*
D03*
X165516D02*
D03*
X167484D02*
D03*
X169453D02*
D03*
X171421D02*
D03*
D55*
X240650Y177500D02*
D03*
X234350D02*
D03*
X277126Y59984D02*
D03*
X283425D02*
D03*
X147350Y60000D02*
D03*
X153650D02*
D03*
D56*
X276500Y198563D02*
D03*
Y206437D02*
D03*
X363500Y207437D02*
D03*
Y199563D02*
D03*
X352500Y207563D02*
D03*
Y215437D02*
D03*
X184000Y239063D02*
D03*
Y246937D02*
D03*
X378819Y56378D02*
D03*
Y48504D02*
D03*
X249043Y56394D02*
D03*
Y48520D02*
D03*
X360276Y91378D02*
D03*
Y83504D02*
D03*
X230500Y91394D02*
D03*
Y83520D02*
D03*
X378776Y92878D02*
D03*
Y85004D02*
D03*
X249000Y92894D02*
D03*
Y85020D02*
D03*
X378819Y73878D02*
D03*
Y66004D02*
D03*
X249043Y73894D02*
D03*
Y66020D02*
D03*
D57*
X197563Y146500D02*
D03*
X205437D02*
D03*
X310437Y189000D02*
D03*
X302563D02*
D03*
X196937Y206500D02*
D03*
X189063D02*
D03*
X205437Y137500D02*
D03*
X197563D02*
D03*
X252563Y220500D02*
D03*
X260437D02*
D03*
X220437Y137500D02*
D03*
X212563D02*
D03*
X323339Y74985D02*
D03*
X331213D02*
D03*
X193563Y75000D02*
D03*
X201437D02*
D03*
D58*
X83000Y264268D02*
D03*
X88000D02*
D03*
X93000D02*
D03*
X98000D02*
D03*
Y236732D02*
D03*
X93000D02*
D03*
X88000D02*
D03*
X83000D02*
D03*
Y192876D02*
D03*
X88000D02*
D03*
X93000D02*
D03*
X98000D02*
D03*
Y165340D02*
D03*
X93000D02*
D03*
X88000D02*
D03*
X83000D02*
D03*
Y121376D02*
D03*
X88000D02*
D03*
X93000D02*
D03*
X98000D02*
D03*
Y93840D02*
D03*
X93000D02*
D03*
X88000D02*
D03*
X83000D02*
D03*
Y49876D02*
D03*
X88000D02*
D03*
X93000D02*
D03*
X98000D02*
D03*
Y22340D02*
D03*
X93000D02*
D03*
X88000D02*
D03*
X83000D02*
D03*
D59*
X232720Y209339D02*
D03*
Y206780D02*
D03*
Y204221D02*
D03*
Y201661D02*
D03*
X260279Y209339D02*
D03*
Y206780D02*
D03*
Y204221D02*
D03*
Y201661D02*
D03*
D60*
X232000Y137500D02*
D03*
X161067Y119100D02*
D03*
X42067Y227500D02*
D03*
Y156108D02*
D03*
Y84608D02*
D03*
Y12000D02*
D03*
D61*
X383000Y11500D02*
D03*
X150000D02*
D03*
X10500Y290000D02*
D03*
X150000D02*
D03*
X383000Y288500D02*
D03*
D62*
X22840Y9500D02*
D03*
D63*
X385500Y227000D02*
D03*
X375500D02*
D03*
X359500Y257000D02*
D03*
X349500D02*
D03*
D64*
X206933Y119100D02*
D03*
X87933Y227500D02*
D03*
Y156108D02*
D03*
Y84608D02*
D03*
Y12000D02*
D03*
D65*
X190500Y194000D02*
D03*
X292000Y234500D02*
D03*
D66*
X190500Y184000D02*
D03*
Y174000D02*
D03*
Y164000D02*
D03*
X220500D02*
D03*
Y174000D02*
D03*
Y184000D02*
D03*
Y194000D02*
D03*
X292000Y224500D02*
D03*
Y214500D02*
D03*
Y204500D02*
D03*
X322000D02*
D03*
Y214500D02*
D03*
Y224500D02*
D03*
Y234500D02*
D03*
D67*
X260000Y171500D02*
D03*
X300000Y171000D02*
D03*
X327500Y133500D02*
D03*
X328000Y173500D02*
D03*
X257500Y121000D02*
D03*
X297500Y120500D02*
D03*
X308000Y145000D02*
D03*
X268000Y145500D02*
D03*
X119500Y233500D02*
D03*
X120000Y273500D02*
D03*
X120500Y161000D02*
D03*
X121000Y201000D02*
D03*
X119000Y89000D02*
D03*
X119500Y129000D02*
D03*
Y19500D02*
D03*
X120000Y59500D02*
D03*
D68*
X227500Y280500D02*
D03*
X327500D02*
D03*
D69*
X172500Y160500D02*
D03*
Y140500D02*
D03*
X152500Y150500D02*
D03*
D70*
X299376Y76885D02*
D03*
X296276D02*
D03*
X293176D02*
D03*
X299376Y79984D02*
D03*
X296276D02*
D03*
X293176D02*
D03*
X299376Y83084D02*
D03*
X296276D02*
D03*
X293176D02*
D03*
X169600Y76900D02*
D03*
X166500D02*
D03*
X163400D02*
D03*
X169600Y80000D02*
D03*
X166500D02*
D03*
X163400D02*
D03*
X169600Y83100D02*
D03*
X166500D02*
D03*
X163400D02*
D03*
D71*
X194500Y224500D02*
D03*
X164500D02*
D03*
X39000Y251500D02*
D03*
Y281500D02*
D03*
Y180108D02*
D03*
Y210108D02*
D03*
Y108608D02*
D03*
Y138608D02*
D03*
Y37108D02*
D03*
Y67108D02*
D03*
D72*
X342500Y114500D02*
D03*
X218500Y71000D02*
D03*
X348276Y70985D02*
D03*
X251500Y159000D02*
D03*
X211500Y217500D02*
D03*
X349000Y135500D02*
D03*
M02*
