G04 Layer_Color=16711935*
%FSLAX25Y25*%
%MOIN*%
G70*
G01*
G75*
%ADD42C,0.00500*%
%ADD46C,0.00300*%
%ADD75C,0.00000*%
D42*
X203900Y449456D02*
X205233Y448123D01*
X203900D02*
X205233Y449456D01*
X203900Y448790D02*
X205233D01*
X204567Y448123D02*
Y449456D01*
X209500Y439500D02*
Y441499D01*
X210500D01*
X210833Y441166D01*
Y440500D01*
X210500Y440166D01*
X209500D01*
X210166D02*
X210833Y439500D01*
X212499D02*
X211833D01*
X211499Y439833D01*
Y440500D01*
X211833Y440833D01*
X212499D01*
X212832Y440500D01*
Y440166D01*
X211499D01*
X213832Y439500D02*
Y441166D01*
Y440500D01*
X213499D01*
X214165D01*
X213832D01*
Y441166D01*
X214165Y441499D01*
X215165D02*
Y439500D01*
X216164D01*
X216498Y439833D01*
Y441166D01*
X216164Y441499D01*
X215165D01*
X218164Y439500D02*
X217497D01*
X217164Y439833D01*
Y440500D01*
X217497Y440833D01*
X218164D01*
X218497Y440500D01*
Y440166D01*
X217164D01*
X219163Y439500D02*
X220163D01*
X220496Y439833D01*
X220163Y440166D01*
X219497D01*
X219163Y440500D01*
X219497Y440833D01*
X220496D01*
X222496Y439500D02*
X221163D01*
X222496Y440833D01*
Y441166D01*
X222163Y441499D01*
X221496D01*
X221163Y441166D01*
X400200Y369634D02*
X398867Y370967D01*
X400200D02*
X398867Y369634D01*
X400200Y370300D02*
X398867D01*
X399534Y370967D02*
Y369634D01*
X389500Y385500D02*
Y383501D01*
X388500D01*
X388167Y383834D01*
Y384500D01*
X388500Y384834D01*
X389500D01*
X388834D02*
X388167Y385500D01*
X386501D02*
X387167D01*
X387501Y385167D01*
Y384500D01*
X387167Y384167D01*
X386501D01*
X386168Y384500D01*
Y384834D01*
X387501D01*
X385168Y385500D02*
Y383834D01*
Y384500D01*
X385501D01*
X384835D01*
X385168D01*
Y383834D01*
X384835Y383501D01*
X383835D02*
Y385500D01*
X382836D01*
X382502Y385167D01*
Y383834D01*
X382836Y383501D01*
X383835D01*
X380836Y385500D02*
X381503D01*
X381836Y385167D01*
Y384500D01*
X381503Y384167D01*
X380836D01*
X380503Y384500D01*
Y384834D01*
X381836D01*
X379837Y385500D02*
X378837D01*
X378504Y385167D01*
X378837Y384834D01*
X379503D01*
X379837Y384500D01*
X379503Y384167D01*
X378504D01*
X376504Y385500D02*
X377837D01*
X376504Y384167D01*
Y383834D01*
X376837Y383501D01*
X377504D01*
X377837Y383834D01*
X506500Y321066D02*
X507833Y319733D01*
X506500D02*
X507833Y321066D01*
X506500Y320400D02*
X507833D01*
X507166Y319733D02*
Y321066D01*
X524000Y352000D02*
Y353999D01*
X525000D01*
X525333Y353666D01*
Y353000D01*
X525000Y352666D01*
X524000D01*
X524666D02*
X525333Y352000D01*
X526999D02*
X526333D01*
X525999Y352333D01*
Y353000D01*
X526333Y353333D01*
X526999D01*
X527332Y353000D01*
Y352666D01*
X525999D01*
X528332Y352000D02*
Y353666D01*
Y353000D01*
X527999D01*
X528665D01*
X528332D01*
Y353666D01*
X528665Y353999D01*
X529665D02*
Y352000D01*
X530664D01*
X530998Y352333D01*
Y353666D01*
X530664Y353999D01*
X529665D01*
X532664Y352000D02*
X531997D01*
X531664Y352333D01*
Y353000D01*
X531997Y353333D01*
X532664D01*
X532997Y353000D01*
Y352666D01*
X531664D01*
X533664Y352000D02*
X534663D01*
X534996Y352333D01*
X534663Y352666D01*
X533997D01*
X533664Y353000D01*
X533997Y353333D01*
X534996D01*
X536996Y352000D02*
X535663D01*
X536996Y353333D01*
Y353666D01*
X536663Y353999D01*
X535996D01*
X535663Y353666D01*
X336000Y388366D02*
X337333Y387033D01*
X336000D02*
X337333Y388366D01*
X336000Y387700D02*
X337333D01*
X336666Y387033D02*
Y388366D01*
X351000Y366000D02*
Y367999D01*
X352000D01*
X352333Y367666D01*
Y367000D01*
X352000Y366666D01*
X351000D01*
X351666D02*
X352333Y366000D01*
X353999D02*
X353333D01*
X352999Y366333D01*
Y367000D01*
X353333Y367333D01*
X353999D01*
X354332Y367000D01*
Y366666D01*
X352999D01*
X355332Y366000D02*
Y367666D01*
Y367000D01*
X354999D01*
X355665D01*
X355332D01*
Y367666D01*
X355665Y367999D01*
X356665D02*
Y366000D01*
X357664D01*
X357998Y366333D01*
Y367666D01*
X357664Y367999D01*
X356665D01*
X359664Y366000D02*
X358997D01*
X358664Y366333D01*
Y367000D01*
X358997Y367333D01*
X359664D01*
X359997Y367000D01*
Y366666D01*
X358664D01*
X360664Y366000D02*
X361663D01*
X361996Y366333D01*
X361663Y366666D01*
X360997D01*
X360664Y367000D01*
X360997Y367333D01*
X361996D01*
X363996Y366000D02*
X362663D01*
X363996Y367333D01*
Y367666D01*
X363663Y367999D01*
X362996D01*
X362663Y367666D01*
X236500Y438500D02*
X234501D01*
Y439500D01*
X234834Y439833D01*
X235500D01*
X235834Y439500D01*
Y438500D01*
Y439166D02*
X236500Y439833D01*
Y441499D02*
Y440833D01*
X236167Y440499D01*
X235500D01*
X235167Y440833D01*
Y441499D01*
X235500Y441832D01*
X235834D01*
Y440499D01*
X236500Y442832D02*
X234834D01*
X235500D01*
Y442499D01*
Y443165D01*
Y442832D01*
X234834D01*
X234501Y443165D01*
Y444165D02*
X236500D01*
Y445164D01*
X236167Y445498D01*
X234834D01*
X234501Y445164D01*
Y444165D01*
X236500Y447164D02*
Y446497D01*
X236167Y446164D01*
X235500D01*
X235167Y446497D01*
Y447164D01*
X235500Y447497D01*
X235834D01*
Y446164D01*
X236500Y448164D02*
Y449163D01*
X236167Y449496D01*
X235834Y449163D01*
Y448497D01*
X235500Y448164D01*
X235167Y448497D01*
Y449496D01*
X236500Y451496D02*
Y450163D01*
X235167Y451496D01*
X234834D01*
X234501Y451163D01*
Y450496D01*
X234834Y450163D01*
X236500Y367108D02*
X234501D01*
Y368108D01*
X234834Y368441D01*
X235500D01*
X235834Y368108D01*
Y367108D01*
Y367775D02*
X236500Y368441D01*
Y370107D02*
Y369441D01*
X236167Y369108D01*
X235500D01*
X235167Y369441D01*
Y370107D01*
X235500Y370440D01*
X235834D01*
Y369108D01*
X236500Y371440D02*
X234834D01*
X235500D01*
Y371107D01*
Y371773D01*
Y371440D01*
X234834D01*
X234501Y371773D01*
Y372773D02*
X236500D01*
Y373773D01*
X236167Y374106D01*
X234834D01*
X234501Y373773D01*
Y372773D01*
X236500Y375772D02*
Y375106D01*
X236167Y374772D01*
X235500D01*
X235167Y375106D01*
Y375772D01*
X235500Y376105D01*
X235834D01*
Y374772D01*
X236500Y376772D02*
Y377771D01*
X236167Y378105D01*
X235834Y377771D01*
Y377105D01*
X235500Y376772D01*
X235167Y377105D01*
Y378105D01*
X236500Y380104D02*
Y378771D01*
X235167Y380104D01*
X234834D01*
X234501Y379771D01*
Y379104D01*
X234834Y378771D01*
X236500Y295608D02*
X234501D01*
Y296608D01*
X234834Y296941D01*
X235500D01*
X235834Y296608D01*
Y295608D01*
Y296275D02*
X236500Y296941D01*
Y298607D02*
Y297941D01*
X236167Y297607D01*
X235500D01*
X235167Y297941D01*
Y298607D01*
X235500Y298940D01*
X235834D01*
Y297607D01*
X236500Y299940D02*
X234834D01*
X235500D01*
Y299607D01*
Y300273D01*
Y299940D01*
X234834D01*
X234501Y300273D01*
Y301273D02*
X236500D01*
Y302273D01*
X236167Y302606D01*
X234834D01*
X234501Y302273D01*
Y301273D01*
X236500Y304272D02*
Y303606D01*
X236167Y303272D01*
X235500D01*
X235167Y303606D01*
Y304272D01*
X235500Y304605D01*
X235834D01*
Y303272D01*
X236500Y305272D02*
Y306271D01*
X236167Y306605D01*
X235834Y306271D01*
Y305605D01*
X235500Y305272D01*
X235167Y305605D01*
Y306605D01*
X236500Y308604D02*
Y307271D01*
X235167Y308604D01*
X234834D01*
X234501Y308271D01*
Y307604D01*
X234834Y307271D01*
X236500Y224108D02*
X234501D01*
Y225108D01*
X234834Y225441D01*
X235500D01*
X235834Y225108D01*
Y224108D01*
Y224775D02*
X236500Y225441D01*
Y227107D02*
Y226441D01*
X236167Y226108D01*
X235500D01*
X235167Y226441D01*
Y227107D01*
X235500Y227440D01*
X235834D01*
Y226108D01*
X236500Y228440D02*
X234834D01*
X235500D01*
Y228107D01*
Y228773D01*
Y228440D01*
X234834D01*
X234501Y228773D01*
Y229773D02*
X236500D01*
Y230773D01*
X236167Y231106D01*
X234834D01*
X234501Y230773D01*
Y229773D01*
X236500Y232772D02*
Y232106D01*
X236167Y231772D01*
X235500D01*
X235167Y232106D01*
Y232772D01*
X235500Y233105D01*
X235834D01*
Y231772D01*
X236500Y233772D02*
Y234771D01*
X236167Y235105D01*
X235834Y234771D01*
Y234105D01*
X235500Y233772D01*
X235167Y234105D01*
Y235105D01*
X236500Y237104D02*
Y235771D01*
X235167Y237104D01*
X234834D01*
X234501Y236771D01*
Y236104D01*
X234834Y235771D01*
X203900Y378064D02*
X205233Y376732D01*
X203900D02*
X205233Y378064D01*
X203900Y377398D02*
X205233D01*
X204567Y376732D02*
Y378064D01*
X209500Y368108D02*
Y370108D01*
X210500D01*
X210833Y369774D01*
Y369108D01*
X210500Y368775D01*
X209500D01*
X210166D02*
X210833Y368108D01*
X212499D02*
X211833D01*
X211499Y368441D01*
Y369108D01*
X211833Y369441D01*
X212499D01*
X212832Y369108D01*
Y368775D01*
X211499D01*
X213832Y368108D02*
Y369774D01*
Y369108D01*
X213499D01*
X214165D01*
X213832D01*
Y369774D01*
X214165Y370108D01*
X215165D02*
Y368108D01*
X216164D01*
X216498Y368441D01*
Y369774D01*
X216164Y370108D01*
X215165D01*
X218164Y368108D02*
X217497D01*
X217164Y368441D01*
Y369108D01*
X217497Y369441D01*
X218164D01*
X218497Y369108D01*
Y368775D01*
X217164D01*
X219163Y368108D02*
X220163D01*
X220496Y368441D01*
X220163Y368775D01*
X219497D01*
X219163Y369108D01*
X219497Y369441D01*
X220496D01*
X222496Y368108D02*
X221163D01*
X222496Y369441D01*
Y369774D01*
X222163Y370108D01*
X221496D01*
X221163Y369774D01*
X203900Y306564D02*
X205233Y305232D01*
X203900D02*
X205233Y306564D01*
X203900Y305898D02*
X205233D01*
X204567Y305232D02*
Y306564D01*
X209500Y296608D02*
Y298607D01*
X210500D01*
X210833Y298274D01*
Y297608D01*
X210500Y297275D01*
X209500D01*
X210166D02*
X210833Y296608D01*
X212499D02*
X211833D01*
X211499Y296941D01*
Y297608D01*
X211833Y297941D01*
X212499D01*
X212832Y297608D01*
Y297275D01*
X211499D01*
X213832Y296608D02*
Y298274D01*
Y297608D01*
X213499D01*
X214165D01*
X213832D01*
Y298274D01*
X214165Y298607D01*
X215165D02*
Y296608D01*
X216164D01*
X216498Y296941D01*
Y298274D01*
X216164Y298607D01*
X215165D01*
X218164Y296608D02*
X217497D01*
X217164Y296941D01*
Y297608D01*
X217497Y297941D01*
X218164D01*
X218497Y297608D01*
Y297275D01*
X217164D01*
X219163Y296608D02*
X220163D01*
X220496Y296941D01*
X220163Y297275D01*
X219497D01*
X219163Y297608D01*
X219497Y297941D01*
X220496D01*
X222496Y296608D02*
X221163D01*
X222496Y297941D01*
Y298274D01*
X222163Y298607D01*
X221496D01*
X221163Y298274D01*
X203900Y235064D02*
X205233Y233732D01*
X203900D02*
X205233Y235064D01*
X203900Y234398D02*
X205233D01*
X204567Y233732D02*
Y235064D01*
X209500Y225108D02*
Y227108D01*
X210500D01*
X210833Y226774D01*
Y226108D01*
X210500Y225775D01*
X209500D01*
X210166D02*
X210833Y225108D01*
X212499D02*
X211833D01*
X211499Y225441D01*
Y226108D01*
X211833Y226441D01*
X212499D01*
X212832Y226108D01*
Y225775D01*
X211499D01*
X213832Y225108D02*
Y226774D01*
Y226108D01*
X213499D01*
X214165D01*
X213832D01*
Y226774D01*
X214165Y227108D01*
X215165D02*
Y225108D01*
X216164D01*
X216498Y225441D01*
Y226774D01*
X216164Y227108D01*
X215165D01*
X218164Y225108D02*
X217497D01*
X217164Y225441D01*
Y226108D01*
X217497Y226441D01*
X218164D01*
X218497Y226108D01*
Y225775D01*
X217164D01*
X219163Y225108D02*
X220163D01*
X220496Y225441D01*
X220163Y225775D01*
X219497D01*
X219163Y226108D01*
X219497Y226441D01*
X220496D01*
X222496Y225108D02*
X221163D01*
X222496Y226441D01*
Y226774D01*
X222163Y227108D01*
X221496D01*
X221163Y226774D01*
D46*
X442276Y266985D02*
X447274D01*
Y264485D01*
X446441Y263652D01*
X444775D01*
X443942Y264485D01*
Y266985D01*
Y265318D02*
X442276Y263652D01*
Y259487D02*
Y261153D01*
X443109Y261986D01*
X444775D01*
X445608Y261153D01*
Y259487D01*
X444775Y258654D01*
X443942D01*
Y261986D01*
X442276Y256155D02*
X446441D01*
X444775D01*
Y256988D01*
Y255322D01*
Y256155D01*
X446441D01*
X447274Y255322D01*
Y252822D02*
X442276D01*
Y250323D01*
X443109Y249490D01*
X446441D01*
X447274Y250323D01*
Y252822D01*
X442276Y245325D02*
Y246991D01*
X443109Y247824D01*
X444775D01*
X445608Y246991D01*
Y245325D01*
X444775Y244492D01*
X443942D01*
Y247824D01*
X442276Y242826D02*
Y240326D01*
X443109Y239493D01*
X443942Y240326D01*
Y241993D01*
X444775Y242826D01*
X445608Y241993D01*
Y239493D01*
X442276Y234495D02*
Y237827D01*
X445608Y234495D01*
X446441D01*
X447274Y235328D01*
Y236994D01*
X446441Y237827D01*
X453846Y278933D02*
X450514Y275601D01*
Y278933D02*
X453846Y275601D01*
X452180Y278933D02*
Y275601D01*
X450514Y277267D02*
X453846D01*
X312500Y267000D02*
X317498D01*
Y264501D01*
X316665Y263668D01*
X314999D01*
X314166Y264501D01*
Y267000D01*
Y265334D02*
X312500Y263668D01*
Y259502D02*
Y261169D01*
X313333Y262002D01*
X314999D01*
X315832Y261169D01*
Y259502D01*
X314999Y258669D01*
X314166D01*
Y262002D01*
X312500Y256170D02*
X316665D01*
X314999D01*
Y257003D01*
Y255337D01*
Y256170D01*
X316665D01*
X317498Y255337D01*
Y252838D02*
X312500D01*
Y250339D01*
X313333Y249506D01*
X316665D01*
X317498Y250339D01*
Y252838D01*
X312500Y245340D02*
Y247007D01*
X313333Y247839D01*
X314999D01*
X315832Y247007D01*
Y245340D01*
X314999Y244507D01*
X314166D01*
Y247839D01*
X312500Y242841D02*
Y240342D01*
X313333Y239509D01*
X314166Y240342D01*
Y242008D01*
X314999Y242841D01*
X315832Y242008D01*
Y239509D01*
X312500Y234510D02*
Y237843D01*
X315832Y234510D01*
X316665D01*
X317498Y235344D01*
Y237010D01*
X316665Y237843D01*
X324071Y278949D02*
X320739Y275617D01*
Y278949D02*
X324071Y275617D01*
X322405Y278949D02*
Y275617D01*
X320739Y277283D02*
X324071D01*
D75*
X390700Y375650D02*
G03*
X388300Y375650I-1200J0D01*
G01*
X349800Y386000D02*
G03*
X352200Y386000I1200J0D01*
G01*
X226658Y437300D02*
G03*
X226658Y439700I0J1200D01*
G01*
X229300Y422392D02*
G03*
X229300Y422392I-300J0D01*
G01*
X226658Y365908D02*
G03*
X226658Y368308I0J1200D01*
G01*
X229300Y351000D02*
G03*
X229300Y351000I-300J0D01*
G01*
X226658Y294408D02*
G03*
X226658Y296808I0J1200D01*
G01*
X229300Y279500D02*
G03*
X229300Y279500I-300J0D01*
G01*
X226658Y222908D02*
G03*
X226658Y225308I0J1200D01*
G01*
X229300Y208000D02*
G03*
X229300Y208000I-300J0D01*
G01*
X206050Y442290D02*
Y444190D01*
X203900D02*
X206050D01*
X203900Y442290D02*
Y444190D01*
Y442290D02*
X206050D01*
Y438550D02*
Y440450D01*
X203900D02*
X206050D01*
X203900Y438550D02*
Y440450D01*
Y438550D02*
X206050D01*
Y434810D02*
Y436710D01*
X203900D02*
X206050D01*
X203900Y434810D02*
Y436710D01*
Y434810D02*
X206050D01*
X212950D02*
Y436710D01*
Y434810D02*
X215100D01*
Y436710D01*
X212950D02*
X215100D01*
X212950Y438550D02*
Y440450D01*
Y438550D02*
X215100D01*
Y440450D01*
X212950D02*
X215100D01*
X212950Y442290D02*
Y444190D01*
Y442290D02*
X215100D01*
Y444190D01*
X212950D02*
X215100D01*
X206050Y433450D02*
X212950D01*
Y445550D01*
X206050D02*
X212950D01*
X206050Y433450D02*
Y445550D01*
X397350Y377000D02*
Y379000D01*
Y377000D02*
X401700D01*
Y379000D01*
X397350D02*
X401700D01*
X397350Y382000D02*
Y384000D01*
Y382000D02*
X401700D01*
Y384000D01*
X397350D02*
X401700D01*
X397350Y387000D02*
Y389000D01*
Y387000D02*
X401700D01*
Y389000D01*
X397350D02*
X401700D01*
X397350Y392000D02*
Y394000D01*
Y392000D02*
X401700D01*
Y394000D01*
X397350D02*
X401700D01*
X381650Y392000D02*
Y394000D01*
X377300D02*
X381650D01*
X377300Y392000D02*
Y394000D01*
Y392000D02*
X381650D01*
Y387000D02*
Y389000D01*
X377300D02*
X381650D01*
X377300Y387000D02*
Y389000D01*
Y387000D02*
X381650D01*
Y382000D02*
Y384000D01*
X377300D02*
X381650D01*
X377300Y382000D02*
Y384000D01*
Y382000D02*
X381650D01*
Y377000D02*
Y379000D01*
X377300D02*
X381650D01*
X377300Y377000D02*
Y379000D01*
Y377000D02*
X381650D01*
Y395350D02*
X397350D01*
X381650Y375650D02*
Y395350D01*
Y375650D02*
X397350D01*
Y395350D01*
X512100Y332000D02*
X515900D01*
X512100Y315500D02*
Y332000D01*
Y315500D02*
X515900D01*
Y332000D01*
X522100D02*
X525900D01*
X522100Y315500D02*
Y332000D01*
Y315500D02*
X525900D01*
Y332000D01*
X532100D02*
X535900D01*
X532100Y315500D02*
Y332000D01*
Y315500D02*
X535900D01*
Y332000D01*
X503500D02*
X544500D01*
Y372000D01*
X503500D02*
X544500D01*
X503500Y332000D02*
Y372000D01*
X338000Y379300D02*
Y382700D01*
X334300D02*
X338000D01*
X334300Y379300D02*
Y382700D01*
Y379300D02*
X338000D01*
Y369300D02*
Y372700D01*
X334300D02*
X338000D01*
X334300Y369300D02*
Y372700D01*
Y369300D02*
X338000D01*
Y359300D02*
Y362700D01*
X334300D02*
X338000D01*
X334300Y359300D02*
Y362700D01*
Y359300D02*
X338000D01*
Y349300D02*
Y352700D01*
X334300D02*
X338000D01*
X334300Y349300D02*
Y352700D01*
Y349300D02*
X338000D01*
X364000D02*
Y352700D01*
Y349300D02*
X367700D01*
Y352700D01*
X364000D02*
X367700D01*
X364000Y359300D02*
Y362700D01*
Y359300D02*
X367700D01*
Y362700D01*
X364000D02*
X367700D01*
X364000Y369300D02*
Y372700D01*
Y369300D02*
X367700D01*
Y372700D01*
X364000D02*
X367700D01*
X364000Y379300D02*
Y382700D01*
Y379300D02*
X367700D01*
Y382700D01*
X364000D02*
X367700D01*
X338000Y346000D02*
X364000D01*
Y386000D01*
X338000D02*
X364000D01*
X338000Y346000D02*
Y386000D01*
X226658Y427083D02*
X246342D01*
X226658D02*
Y449917D01*
X246342D01*
Y427083D02*
Y449917D01*
X226658Y355691D02*
X246342D01*
X226658D02*
Y378525D01*
X246342D01*
Y355691D02*
Y378525D01*
X226658Y284191D02*
X246342D01*
X226658D02*
Y307026D01*
X246342D01*
Y284191D02*
Y307026D01*
X226658Y212691D02*
X246342D01*
X226658D02*
Y235525D01*
X246342D01*
Y212691D02*
Y235525D01*
X434106Y275154D02*
X450445D01*
Y258815D02*
Y275154D01*
X434106Y258815D02*
X450445D01*
X434106D02*
Y275154D01*
X446606Y258815D02*
X447787D01*
X446606D02*
X447787D01*
X444638D02*
X445819D01*
X444638D02*
X445819D01*
X442669D02*
X443850D01*
X442669D02*
X443850D01*
X440701D02*
X441882D01*
X440701D02*
X441882D01*
X438732D02*
X439913D01*
X438732D02*
X439913D01*
X436764D02*
X437945D01*
X436764D02*
X437945D01*
X434106Y261473D02*
Y262654D01*
Y261473D02*
Y262654D01*
Y263441D02*
Y264622D01*
Y263441D02*
Y264622D01*
Y265410D02*
Y266591D01*
Y265410D02*
Y266591D01*
Y267378D02*
Y268559D01*
Y267378D02*
Y268559D01*
Y269347D02*
Y270528D01*
Y269347D02*
Y270528D01*
Y271315D02*
Y272496D01*
Y271315D02*
Y272496D01*
X436764Y275154D02*
X437945D01*
X436764D02*
X437945D01*
X438732D02*
X439913D01*
X438732D02*
X439913D01*
X440701D02*
X441882D01*
X440701D02*
X441882D01*
X442669D02*
X443850D01*
X442669D02*
X443850D01*
X444638D02*
X445819D01*
X444638D02*
X445819D01*
X446606D02*
X447787D01*
X446606D02*
X447787D01*
X450445Y271315D02*
Y272496D01*
Y271315D02*
Y272496D01*
Y269347D02*
Y270528D01*
Y269347D02*
Y270528D01*
Y267378D02*
Y268559D01*
Y267378D02*
Y268559D01*
Y265410D02*
Y266591D01*
Y265410D02*
Y266591D01*
Y263441D02*
Y264622D01*
Y263441D02*
Y264622D01*
Y261473D02*
Y262654D01*
Y261473D02*
Y262654D01*
X445445Y275154D02*
X450445Y270154D01*
X304331Y275169D02*
X320669D01*
Y258831D02*
Y275169D01*
X304331Y258831D02*
X320669D01*
X304331D02*
Y275169D01*
X316831Y258831D02*
X318012D01*
X316831D02*
X318012D01*
X314862D02*
X316043D01*
X314862D02*
X316043D01*
X312894D02*
X314075D01*
X312894D02*
X314075D01*
X310925D02*
X312106D01*
X310925D02*
X312106D01*
X308957D02*
X310138D01*
X308957D02*
X310138D01*
X306988D02*
X308169D01*
X306988D02*
X308169D01*
X304331Y261488D02*
Y262669D01*
Y261488D02*
Y262669D01*
Y263457D02*
Y264638D01*
Y263457D02*
Y264638D01*
Y265425D02*
Y266606D01*
Y265425D02*
Y266606D01*
Y267394D02*
Y268575D01*
Y267394D02*
Y268575D01*
Y269362D02*
Y270543D01*
Y269362D02*
Y270543D01*
Y271331D02*
Y272512D01*
Y271331D02*
Y272512D01*
X306988Y275169D02*
X308169D01*
X306988D02*
X308169D01*
X308957D02*
X310138D01*
X308957D02*
X310138D01*
X310925D02*
X312106D01*
X310925D02*
X312106D01*
X312894D02*
X314075D01*
X312894D02*
X314075D01*
X314862D02*
X316043D01*
X314862D02*
X316043D01*
X316831D02*
X318012D01*
X316831D02*
X318012D01*
X320669Y271331D02*
Y272512D01*
Y271331D02*
Y272512D01*
Y269362D02*
Y270543D01*
Y269362D02*
Y270543D01*
Y267394D02*
Y268575D01*
Y267394D02*
Y268575D01*
Y265425D02*
Y266606D01*
Y265425D02*
Y266606D01*
Y263457D02*
Y264638D01*
Y263457D02*
Y264638D01*
Y261488D02*
Y262669D01*
Y261488D02*
Y262669D01*
X315669Y275169D02*
X320669Y270169D01*
X206050Y370898D02*
Y372798D01*
X203900D02*
X206050D01*
X203900Y370898D02*
Y372798D01*
Y370898D02*
X206050D01*
Y367158D02*
Y369058D01*
X203900D02*
X206050D01*
X203900Y367158D02*
Y369058D01*
Y367158D02*
X206050D01*
Y363418D02*
Y365318D01*
X203900D02*
X206050D01*
X203900Y363418D02*
Y365318D01*
Y363418D02*
X206050D01*
X212950D02*
Y365318D01*
Y363418D02*
X215100D01*
Y365318D01*
X212950D02*
X215100D01*
X212950Y367158D02*
Y369058D01*
Y367158D02*
X215100D01*
Y369058D01*
X212950D02*
X215100D01*
X212950Y370898D02*
Y372798D01*
Y370898D02*
X215100D01*
Y372798D01*
X212950D02*
X215100D01*
X206050Y362058D02*
X212950D01*
Y374158D01*
X206050D02*
X212950D01*
X206050Y362058D02*
Y374158D01*
Y299398D02*
Y301298D01*
X203900D02*
X206050D01*
X203900Y299398D02*
Y301298D01*
Y299398D02*
X206050D01*
Y295658D02*
Y297558D01*
X203900D02*
X206050D01*
X203900Y295658D02*
Y297558D01*
Y295658D02*
X206050D01*
Y291918D02*
Y293818D01*
X203900D02*
X206050D01*
X203900Y291918D02*
Y293818D01*
Y291918D02*
X206050D01*
X212950D02*
Y293818D01*
Y291918D02*
X215100D01*
Y293818D01*
X212950D02*
X215100D01*
X212950Y295658D02*
Y297558D01*
Y295658D02*
X215100D01*
Y297558D01*
X212950D02*
X215100D01*
X212950Y299398D02*
Y301298D01*
Y299398D02*
X215100D01*
Y301298D01*
X212950D02*
X215100D01*
X206050Y290558D02*
X212950D01*
Y302658D01*
X206050D02*
X212950D01*
X206050Y290558D02*
Y302658D01*
Y227898D02*
Y229798D01*
X203900D02*
X206050D01*
X203900Y227898D02*
Y229798D01*
Y227898D02*
X206050D01*
Y224158D02*
Y226058D01*
X203900D02*
X206050D01*
X203900Y224158D02*
Y226058D01*
Y224158D02*
X206050D01*
Y220418D02*
Y222318D01*
X203900D02*
X206050D01*
X203900Y220418D02*
Y222318D01*
Y220418D02*
X206050D01*
X212950D02*
Y222318D01*
Y220418D02*
X215100D01*
Y222318D01*
X212950D02*
X215100D01*
X212950Y224158D02*
Y226058D01*
Y224158D02*
X215100D01*
Y226058D01*
X212950D02*
X215100D01*
X212950Y227898D02*
Y229798D01*
Y227898D02*
X215100D01*
Y229798D01*
X212950D02*
X215100D01*
X206050Y219058D02*
X212950D01*
Y231158D01*
X206050D02*
X212950D01*
X206050Y219058D02*
Y231158D01*
M02*
