G04 Layer_Physical_Order=1*
G04 Layer_Color=255*
%FSLAX25Y25*%
%MOIN*%
G70*
G01*
G75*
%ADD10R,0.04800X0.02100*%
%ADD11R,0.05512X0.04331*%
%ADD12R,0.04331X0.05512*%
%ADD13R,0.04000X0.10600*%
%ADD14R,0.41000X0.41200*%
%ADD15R,0.09646X0.09646*%
%ADD16R,0.04347X0.01102*%
%ADD17R,0.01102X0.04347*%
%ADD18R,0.03937X0.05118*%
%ADD19R,0.05906X0.05512*%
%ADD20R,0.05512X0.05906*%
%ADD21R,0.02559X0.08480*%
%ADD22R,0.15354X0.01575*%
%ADD23C,0.01500*%
%ADD24C,0.01000*%
%ADD25C,0.04000*%
%ADD26C,0.01200*%
%ADD27C,0.03000*%
%ADD28R,0.05906X0.05906*%
%ADD29C,0.06000*%
%ADD30C,0.07000*%
%ADD31C,0.05906*%
%ADD32R,0.05400X0.05400*%
%ADD33C,0.05400*%
%ADD34C,0.15000*%
G04:AMPARAMS|DCode=35|XSize=290mil|YSize=80mil|CornerRadius=20mil|HoleSize=0mil|Usage=FLASHONLY|Rotation=90.000|XOffset=0mil|YOffset=0mil|HoleType=Round|Shape=RoundedRectangle|*
%AMROUNDEDRECTD35*
21,1,0.29000,0.04000,0,0,90.0*
21,1,0.25000,0.08000,0,0,90.0*
1,1,0.04000,0.02000,0.12500*
1,1,0.04000,0.02000,-0.12500*
1,1,0.04000,-0.02000,-0.12500*
1,1,0.04000,-0.02000,0.12500*
%
%ADD35ROUNDEDRECTD35*%
%ADD36C,0.06000*%
%ADD37C,0.02000*%
%ADD38C,0.05512*%
%ADD39C,0.05000*%
G36*
X251939Y93405D02*
X251969Y93320D01*
X252020Y93245D01*
X252091Y93180D01*
X252182Y93125D01*
X252293Y93080D01*
X252425Y93045D01*
X252576Y93020D01*
X252748Y93005D01*
X252941Y93000D01*
Y92000D01*
X252748Y91995D01*
X252576Y91980D01*
X252425Y91955D01*
X252293Y91920D01*
X252182Y91875D01*
X252091Y91820D01*
X252020Y91755D01*
X251969Y91680D01*
X251939Y91595D01*
X251929Y91500D01*
Y93500D01*
X251939Y93405D01*
D02*
G37*
G36*
X381715Y93389D02*
X381745Y93305D01*
X381795Y93230D01*
X381866Y93164D01*
X381957Y93110D01*
X382069Y93064D01*
X382200Y93029D01*
X382352Y93005D01*
X382524Y92989D01*
X382716Y92984D01*
Y91984D01*
X382524Y91979D01*
X382352Y91965D01*
X382200Y91940D01*
X382069Y91904D01*
X381957Y91860D01*
X381866Y91804D01*
X381795Y91739D01*
X381745Y91664D01*
X381715Y91580D01*
X381704Y91484D01*
Y93484D01*
X381715Y93389D01*
D02*
G37*
G36*
X246071Y92000D02*
X246061Y92095D01*
X246031Y92180D01*
X245980Y92255D01*
X245909Y92320D01*
X245818Y92375D01*
X245707Y92420D01*
X245575Y92455D01*
X245424Y92480D01*
X245251Y92495D01*
X245059Y92500D01*
Y93500D01*
X245251Y93505D01*
X245424Y93520D01*
X245575Y93545D01*
X245707Y93580D01*
X245818Y93625D01*
X245909Y93680D01*
X245980Y93745D01*
X246031Y93820D01*
X246061Y93905D01*
X246071Y94000D01*
Y92000D01*
D02*
G37*
G36*
X375847Y91984D02*
X375837Y92080D01*
X375806Y92164D01*
X375756Y92239D01*
X375685Y92304D01*
X375594Y92360D01*
X375483Y92405D01*
X375351Y92440D01*
X375199Y92465D01*
X375027Y92479D01*
X374835Y92484D01*
Y93484D01*
X375027Y93489D01*
X375199Y93505D01*
X375351Y93529D01*
X375483Y93564D01*
X375594Y93609D01*
X375685Y93664D01*
X375756Y93730D01*
X375806Y93805D01*
X375837Y93889D01*
X375847Y93985D01*
Y91984D01*
D02*
G37*
G36*
X210768Y90500D02*
X210758Y90595D01*
X210728Y90680D01*
X210677Y90755D01*
X210606Y90820D01*
X210515Y90875D01*
X210404Y90920D01*
X210272Y90955D01*
X210120Y90980D01*
X209948Y90995D01*
X209756Y91000D01*
Y92000D01*
X209948Y92005D01*
X210120Y92020D01*
X210272Y92045D01*
X210404Y92080D01*
X210515Y92125D01*
X210606Y92180D01*
X210677Y92245D01*
X210728Y92320D01*
X210758Y92405D01*
X210768Y92500D01*
Y90500D01*
D02*
G37*
G36*
X340544Y90484D02*
X340534Y90579D01*
X340503Y90664D01*
X340453Y90740D01*
X340382Y90804D01*
X340291Y90860D01*
X340179Y90904D01*
X340048Y90939D01*
X339896Y90965D01*
X339724Y90979D01*
X339532Y90984D01*
Y91984D01*
X339724Y91989D01*
X339896Y92005D01*
X340048Y92030D01*
X340179Y92064D01*
X340291Y92110D01*
X340382Y92164D01*
X340453Y92229D01*
X340503Y92304D01*
X340534Y92390D01*
X340544Y92484D01*
Y90484D01*
D02*
G37*
G36*
X89292Y96207D02*
X89366Y96130D01*
X89488Y96062D01*
X89660Y96003D01*
X89881Y95953D01*
X90151Y95913D01*
X90837Y95858D01*
X91720Y95840D01*
Y91840D01*
X91254Y91836D01*
X89881Y91727D01*
X89660Y91677D01*
X89488Y91618D01*
X89366Y91550D01*
X89292Y91473D01*
X89267Y91387D01*
Y96293D01*
X89292Y96207D01*
D02*
G37*
G36*
X84305Y97243D02*
X84417Y96949D01*
X84603Y96689D01*
X84865Y96464D01*
X85201Y96273D01*
X85611Y96117D01*
X85855Y96056D01*
X85988Y96093D01*
X86261Y96205D01*
X86472Y96336D01*
X86624Y96488D01*
X86714Y96660D01*
X86744Y96852D01*
Y95902D01*
X87291Y95858D01*
X88000Y95840D01*
Y91840D01*
X87291Y91823D01*
X86744Y91778D01*
Y90828D01*
X86714Y91020D01*
X86624Y91193D01*
X86472Y91344D01*
X86261Y91476D01*
X85988Y91587D01*
X85855Y91624D01*
X85611Y91563D01*
X85201Y91407D01*
X84865Y91216D01*
X84603Y90991D01*
X84417Y90731D01*
X84305Y90437D01*
X84267Y90108D01*
Y91820D01*
X83720Y91840D01*
Y95840D01*
X84267Y95850D01*
Y97573D01*
X84305Y97243D01*
D02*
G37*
G36*
X324281Y93855D02*
X324296Y93683D01*
X324321Y93531D01*
X324356Y93400D01*
X324401Y93288D01*
X324456Y93197D01*
X324521Y93126D01*
X324596Y93076D01*
X324681Y93045D01*
X324776Y93035D01*
X322776D01*
X322871Y93045D01*
X322956Y93076D01*
X323031Y93126D01*
X323096Y93197D01*
X323151Y93288D01*
X323196Y93400D01*
X323231Y93531D01*
X323256Y93683D01*
X323271Y93855D01*
X323276Y94047D01*
X324276D01*
X324281Y93855D01*
D02*
G37*
G36*
X387733Y107135D02*
Y96003D01*
X387232Y95669D01*
X386689Y95894D01*
X385776Y96015D01*
X384728D01*
Y98634D01*
X382269D01*
X382186Y99268D01*
X381833Y100120D01*
X381272Y100851D01*
X380541Y101412D01*
X379689Y101765D01*
X378776Y101885D01*
X373520D01*
X373350Y102385D01*
X374066Y102934D01*
X374868Y103978D01*
X375371Y105195D01*
X375543Y106500D01*
X375543Y106500D01*
Y108748D01*
X375552Y108916D01*
X375601Y109195D01*
X375648Y109335D01*
X375654Y109346D01*
X375665Y109352D01*
X375805Y109399D01*
X376084Y109448D01*
X376252Y109457D01*
X385411D01*
X387733Y107135D01*
D02*
G37*
G36*
X249505Y96448D02*
X249520Y96278D01*
X249545Y96128D01*
X249580Y95998D01*
X249625Y95888D01*
X249680Y95798D01*
X249745Y95728D01*
X249820Y95678D01*
X249905Y95648D01*
X250000Y95638D01*
X248000D01*
X248095Y95648D01*
X248180Y95678D01*
X248255Y95728D01*
X248320Y95798D01*
X248375Y95888D01*
X248420Y95998D01*
X248455Y96128D01*
X248480Y96278D01*
X248495Y96448D01*
X248500Y96638D01*
X249500D01*
X249505Y96448D01*
D02*
G37*
G36*
X247018Y120357D02*
X247097Y119352D01*
X247483Y117745D01*
X248115Y116218D01*
X248979Y114809D01*
X250052Y113552D01*
X250115Y113499D01*
X250636Y112961D01*
X251073Y112457D01*
X251442Y111975D01*
X251746Y111517D01*
X251989Y111084D01*
X252175Y110679D01*
X252310Y110299D01*
X252401Y109942D01*
X252453Y109602D01*
X252457Y109533D01*
Y100428D01*
X251957Y100266D01*
X251496Y100866D01*
X250765Y101427D01*
X249914Y101780D01*
X249000Y101900D01*
X210894D01*
X210560Y102400D01*
X210871Y103151D01*
X211043Y104457D01*
X211040Y104478D01*
X211043Y104500D01*
Y114057D01*
X237922D01*
X239228Y114229D01*
X240444Y114733D01*
X241488Y115534D01*
X246502Y120547D01*
X247018Y120357D01*
D02*
G37*
G36*
X292606Y99744D02*
X288299D01*
X288329Y99784D01*
X288355Y99904D01*
X288378Y100104D01*
X288414Y100744D01*
X288453Y103744D01*
X292453D01*
X292606Y99744D01*
D02*
G37*
G36*
X360781Y94932D02*
X360796Y94762D01*
X360821Y94612D01*
X360856Y94482D01*
X360901Y94372D01*
X360956Y94282D01*
X361021Y94212D01*
X361096Y94162D01*
X361181Y94132D01*
X361276Y94122D01*
X359276D01*
X359371Y94132D01*
X359456Y94162D01*
X359531Y94212D01*
X359596Y94282D01*
X359651Y94372D01*
X359696Y94482D01*
X359731Y94612D01*
X359756Y94762D01*
X359771Y94932D01*
X359776Y95122D01*
X360776D01*
X360781Y94932D01*
D02*
G37*
G36*
X194505Y93871D02*
X194520Y93699D01*
X194545Y93547D01*
X194580Y93415D01*
X194625Y93304D01*
X194680Y93213D01*
X194745Y93142D01*
X194820Y93091D01*
X194905Y93061D01*
X195000Y93051D01*
X193000D01*
X193095Y93061D01*
X193180Y93091D01*
X193255Y93142D01*
X193320Y93213D01*
X193375Y93304D01*
X193420Y93415D01*
X193455Y93547D01*
X193480Y93699D01*
X193495Y93871D01*
X193500Y94063D01*
X194500D01*
X194505Y93871D01*
D02*
G37*
G36*
X379281Y96432D02*
X379296Y96262D01*
X379321Y96112D01*
X379356Y95982D01*
X379401Y95872D01*
X379456Y95782D01*
X379521Y95712D01*
X379596Y95662D01*
X379681Y95632D01*
X379776Y95622D01*
X377776D01*
X377871Y95632D01*
X377956Y95662D01*
X378031Y95712D01*
X378096Y95782D01*
X378151Y95872D01*
X378196Y95982D01*
X378231Y96112D01*
X378256Y96262D01*
X378271Y96432D01*
X378276Y96622D01*
X379276D01*
X379281Y96432D01*
D02*
G37*
G36*
X231005Y94948D02*
X231020Y94778D01*
X231045Y94628D01*
X231080Y94498D01*
X231125Y94388D01*
X231180Y94298D01*
X231245Y94228D01*
X231320Y94178D01*
X231405Y94148D01*
X231500Y94138D01*
X229500D01*
X229595Y94148D01*
X229680Y94178D01*
X229755Y94228D01*
X229820Y94298D01*
X229875Y94388D01*
X229920Y94498D01*
X229955Y94628D01*
X229980Y94778D01*
X229995Y94948D01*
X230000Y95138D01*
X231000D01*
X231005Y94948D01*
D02*
G37*
G36*
X163189Y99559D02*
X163309Y99433D01*
X163509Y99321D01*
X163789Y99225D01*
X164149Y99143D01*
X164589Y99076D01*
X165709Y98986D01*
X167149Y98957D01*
Y94957D01*
X166389Y94949D01*
X164149Y94771D01*
X163789Y94689D01*
X163509Y94592D01*
X163309Y94481D01*
X163189Y94354D01*
X163149Y94213D01*
X163120Y94173D01*
X163094Y94053D01*
X163071Y93853D01*
X163034Y93213D01*
X162996Y90213D01*
X158996D01*
X158843Y94213D01*
X163149D01*
Y99701D01*
X163189Y99559D01*
D02*
G37*
G36*
X191268Y83457D02*
X191258Y83552D01*
X191228Y83637D01*
X191177Y83712D01*
X191106Y83777D01*
X191015Y83832D01*
X190904Y83877D01*
X190772Y83912D01*
X190620Y83937D01*
X190448Y83952D01*
X190256Y83957D01*
Y84957D01*
X190448Y84962D01*
X190620Y84977D01*
X190772Y85002D01*
X190904Y85037D01*
X191015Y85082D01*
X191106Y85137D01*
X191177Y85202D01*
X191228Y85277D01*
X191258Y85362D01*
X191268Y85457D01*
Y83457D01*
D02*
G37*
G36*
X321044Y83441D02*
X321034Y83536D01*
X321003Y83621D01*
X320953Y83696D01*
X320882Y83761D01*
X320791Y83816D01*
X320679Y83861D01*
X320548Y83896D01*
X320396Y83921D01*
X320224Y83936D01*
X320032Y83941D01*
Y84941D01*
X320224Y84946D01*
X320396Y84961D01*
X320548Y84986D01*
X320679Y85021D01*
X320791Y85066D01*
X320882Y85121D01*
X320953Y85186D01*
X321003Y85261D01*
X321034Y85346D01*
X321044Y85441D01*
Y83441D01*
D02*
G37*
G36*
X177937Y84505D02*
X177747Y84504D01*
X177097Y84461D01*
X177027Y84445D01*
X176977Y84427D01*
X176947Y84406D01*
X176937Y84383D01*
Y85462D01*
X176947Y85470D01*
X176977Y85477D01*
X177027Y85484D01*
X177187Y85494D01*
X177937Y85505D01*
Y84505D01*
D02*
G37*
G36*
X307713Y84489D02*
X307523Y84488D01*
X306873Y84446D01*
X306803Y84430D01*
X306752Y84412D01*
X306722Y84391D01*
X306713Y84368D01*
Y85446D01*
X306722Y85454D01*
X306752Y85462D01*
X306803Y85468D01*
X306962Y85478D01*
X307713Y85489D01*
Y84489D01*
D02*
G37*
G36*
X216243Y84362D02*
X216274Y84277D01*
X216324Y84202D01*
X216396Y84137D01*
X216487Y84082D01*
X216598Y84037D01*
X216729Y84002D01*
X216881Y83977D01*
X217052Y83962D01*
X217244Y83957D01*
Y82957D01*
X217054Y82956D01*
X216334Y82905D01*
X216284Y82889D01*
X216254Y82871D01*
X216244Y82851D01*
X216232Y84457D01*
X216243Y84362D01*
D02*
G37*
G36*
X346018Y84346D02*
X346049Y84261D01*
X346100Y84186D01*
X346171Y84121D01*
X346262Y84066D01*
X346374Y84021D01*
X346505Y83986D01*
X346656Y83961D01*
X346828Y83946D01*
X347020Y83941D01*
Y82941D01*
X346830Y82940D01*
X346110Y82889D01*
X346059Y82873D01*
X346029Y82855D01*
X346020Y82835D01*
X346007Y84441D01*
X346018Y84346D01*
D02*
G37*
G36*
X196742Y84862D02*
X196772Y84777D01*
X196823Y84702D01*
X196894Y84637D01*
X196985Y84582D01*
X197096Y84537D01*
X197228Y84502D01*
X197380Y84477D01*
X197552Y84462D01*
X197744Y84457D01*
Y83457D01*
X197552Y83452D01*
X197380Y83437D01*
X197228Y83412D01*
X197096Y83377D01*
X196985Y83332D01*
X196894Y83277D01*
X196823Y83212D01*
X196772Y83137D01*
X196742Y83052D01*
X196732Y82957D01*
Y84957D01*
X196742Y84862D01*
D02*
G37*
G36*
X326518Y84846D02*
X326548Y84761D01*
X326599Y84686D01*
X326669Y84621D01*
X326761Y84566D01*
X326872Y84521D01*
X327003Y84486D01*
X327155Y84461D01*
X327327Y84446D01*
X327519Y84441D01*
Y83441D01*
X327327Y83436D01*
X327155Y83421D01*
X327003Y83396D01*
X326872Y83361D01*
X326761Y83316D01*
X326669Y83261D01*
X326599Y83196D01*
X326548Y83121D01*
X326518Y83036D01*
X326507Y82941D01*
Y84941D01*
X326518Y84846D01*
D02*
G37*
G36*
X292638Y94216D02*
X292666Y94096D01*
X292690Y93896D01*
X292730Y93256D01*
X292771Y90327D01*
X294752Y90421D01*
Y90263D01*
X295291Y90260D01*
Y86260D01*
X294752Y86234D01*
Y86099D01*
X294718Y86129D01*
X294616Y86157D01*
X294446Y86181D01*
X294209Y86202D01*
X294124Y86205D01*
X291894Y86099D01*
Y86257D01*
X291354Y86260D01*
Y90256D01*
X288772D01*
X288767Y91016D01*
X288602Y93616D01*
X288540Y93896D01*
X288469Y94096D01*
X288389Y94216D01*
X288299Y94256D01*
X292606D01*
X292638Y94216D01*
D02*
G37*
G36*
X48067Y91108D02*
X47307Y91068D01*
X46627Y90948D01*
X46027Y90748D01*
X45507Y90468D01*
X45067Y90108D01*
X44707Y89668D01*
X44427Y89148D01*
X44275Y88691D01*
X44302Y88549D01*
X44406Y88189D01*
X44528Y87909D01*
X44669Y87709D01*
X44829Y87589D01*
X45008Y87549D01*
X44090D01*
X44067Y87108D01*
X40067D01*
X40044Y87549D01*
X39126D01*
X39305Y87589D01*
X39465Y87709D01*
X39606Y87909D01*
X39728Y88189D01*
X39832Y88549D01*
X39859Y88691D01*
X39707Y89148D01*
X39427Y89668D01*
X39067Y90108D01*
X38627Y90468D01*
X38107Y90748D01*
X37507Y90948D01*
X36827Y91068D01*
X36067Y91108D01*
X42067Y95108D01*
X48067Y91108D01*
D02*
G37*
G36*
X224547Y86987D02*
X219256D01*
Y92470D01*
X224547D01*
Y86987D01*
D02*
G37*
G36*
X98685Y89614D02*
X98599Y89583D01*
X98524Y89533D01*
X98460Y89462D01*
X98405Y89371D01*
X98360Y89260D01*
X98325Y89128D01*
X98299Y88976D01*
X98285Y88804D01*
X98280Y88612D01*
X97280D01*
X97275Y88804D01*
X97259Y88976D01*
X97234Y89128D01*
X97199Y89260D01*
X97154Y89371D01*
X97100Y89462D01*
X97035Y89533D01*
X96960Y89583D01*
X96874Y89614D01*
X96780Y89624D01*
X98779D01*
X98685Y89614D01*
D02*
G37*
G36*
X179041Y98914D02*
X178970Y98370D01*
Y88847D01*
X178613Y88535D01*
X176319D01*
X175854Y88474D01*
X174972D01*
Y93449D01*
X171676D01*
X171455Y93897D01*
X171868Y94435D01*
X172371Y95651D01*
X172543Y96957D01*
Y99414D01*
X178632D01*
X179041Y98914D01*
D02*
G37*
G36*
X234148Y86397D02*
X233944Y86186D01*
X233625Y85811D01*
X233509Y85646D01*
X233424Y85497D01*
X233368Y85363D01*
X233342Y85245D01*
X233345Y85142D01*
X233378Y85055D01*
X233441Y84983D01*
X231893Y86264D01*
X231977Y86213D01*
X232073Y86189D01*
X232183Y86193D01*
X232305Y86223D01*
X232440Y86280D01*
X232588Y86365D01*
X232748Y86476D01*
X232922Y86614D01*
X233108Y86779D01*
X233307Y86971D01*
X234148Y86397D01*
D02*
G37*
G36*
X363924Y86382D02*
X363719Y86171D01*
X363400Y85795D01*
X363285Y85631D01*
X363200Y85481D01*
X363144Y85348D01*
X363117Y85229D01*
X363121Y85127D01*
X363154Y85040D01*
X363216Y84968D01*
X361668Y86248D01*
X361752Y86198D01*
X361849Y86174D01*
X361958Y86177D01*
X362080Y86208D01*
X362215Y86265D01*
X362363Y86349D01*
X362524Y86460D01*
X362697Y86598D01*
X362883Y86763D01*
X363083Y86955D01*
X363924Y86382D01*
D02*
G37*
G36*
X354323Y86971D02*
X349031D01*
Y90154D01*
Y92454D01*
X354323D01*
Y86971D01*
D02*
G37*
G36*
X90000Y86717D02*
X85866D01*
X85879Y86747D01*
X85890Y86811D01*
X85900Y86910D01*
X85922Y87409D01*
X85933Y88552D01*
X89933D01*
X90000Y86717D01*
D02*
G37*
G36*
X70585Y104790D02*
X70672Y104670D01*
X70749Y104470D01*
X70816Y104190D01*
X70872Y103830D01*
X70954Y102870D01*
X70995Y101590D01*
X71000Y100830D01*
X67000D01*
X66987Y101590D01*
X66884Y102870D01*
X66794Y103390D01*
X66678Y103830D01*
X66536Y104190D01*
X66369Y104470D01*
X66176Y104670D01*
X65957Y104790D01*
X65712Y104830D01*
X70488D01*
X70585Y104790D01*
D02*
G37*
G36*
X229071Y136500D02*
X229061Y136595D01*
X229031Y136680D01*
X228980Y136755D01*
X228909Y136820D01*
X228818Y136875D01*
X228707Y136920D01*
X228575Y136955D01*
X228424Y136980D01*
X228252Y136995D01*
X228059Y137000D01*
Y138000D01*
X228252Y138005D01*
X228424Y138020D01*
X228575Y138045D01*
X228707Y138080D01*
X228818Y138125D01*
X228909Y138180D01*
X228980Y138245D01*
X229031Y138320D01*
X229061Y138405D01*
X229071Y138500D01*
Y136500D01*
D02*
G37*
G36*
X223191Y138405D02*
X223221Y138320D01*
X223271Y138245D01*
X223341Y138180D01*
X223431Y138125D01*
X223541Y138080D01*
X223671Y138045D01*
X223821Y138020D01*
X223991Y138005D01*
X224181Y138000D01*
Y137000D01*
X223991Y136995D01*
X223821Y136980D01*
X223671Y136955D01*
X223541Y136920D01*
X223431Y136875D01*
X223341Y136820D01*
X223271Y136755D01*
X223221Y136680D01*
X223191Y136595D01*
X223181Y136500D01*
Y138500D01*
X223191Y138405D01*
D02*
G37*
G36*
X191807Y138030D02*
X184176D01*
X183985Y138492D01*
X188462Y142970D01*
X191807D01*
Y138030D01*
D02*
G37*
G36*
X209831Y136500D02*
X209821Y136595D01*
X209791Y136680D01*
X209740Y136755D01*
X209669Y136820D01*
X209578Y136875D01*
X209467Y136920D01*
X209335Y136955D01*
X209183Y136980D01*
X209011Y136995D01*
X209001Y136995D01*
X208991Y136995D01*
X208821Y136980D01*
X208671Y136955D01*
X208541Y136920D01*
X208431Y136875D01*
X208341Y136820D01*
X208271Y136755D01*
X208221Y136680D01*
X208191Y136595D01*
X208181Y136500D01*
Y138500D01*
X208191Y138405D01*
X208221Y138320D01*
X208271Y138245D01*
X208341Y138180D01*
X208431Y138125D01*
X208541Y138080D01*
X208671Y138045D01*
X208821Y138020D01*
X208991Y138005D01*
X209001Y138005D01*
X209011Y138005D01*
X209183Y138020D01*
X209335Y138045D01*
X209467Y138080D01*
X209578Y138125D01*
X209669Y138180D01*
X209740Y138245D01*
X209791Y138320D01*
X209821Y138405D01*
X209831Y138500D01*
Y136500D01*
D02*
G37*
G36*
X96734Y124634D02*
X97500Y124608D01*
Y120608D01*
X96886Y120596D01*
X96741Y120582D01*
X96745Y118608D01*
X96704Y118988D01*
X96583Y119328D01*
X96382Y119628D01*
X96101Y119888D01*
X95740Y120108D01*
X95298Y120288D01*
X95158Y120326D01*
X95076Y120300D01*
X94785Y120165D01*
X94558Y120004D01*
X94397Y119819D01*
X94300Y119610D01*
X94267Y119376D01*
Y120513D01*
X94176Y120528D01*
X93494Y120588D01*
X93000Y120601D01*
X92507Y120588D01*
X91827Y120528D01*
X91741Y120514D01*
X91745Y118608D01*
X91704Y118988D01*
X91583Y119328D01*
X91382Y119628D01*
X91101Y119888D01*
X90740Y120108D01*
X90503Y120205D01*
X90267Y120108D01*
X89907Y119888D01*
X89627Y119628D01*
X89428Y119328D01*
X89307Y118988D01*
X89267Y118608D01*
Y120513D01*
X89176Y120528D01*
X88494Y120588D01*
X88000Y120601D01*
X87507Y120588D01*
X86827Y120528D01*
X86741Y120514D01*
X86744Y118608D01*
X86704Y118988D01*
X86583Y119328D01*
X86382Y119628D01*
X86101Y119888D01*
X85740Y120108D01*
X85503Y120205D01*
X85268Y120108D01*
X84908Y119888D01*
X84627Y119628D01*
X84427Y119328D01*
X84307Y118988D01*
X84267Y118608D01*
Y120513D01*
X84176Y120528D01*
X83494Y120588D01*
X82732Y120608D01*
Y124608D01*
X83492Y124618D01*
X84267Y124682D01*
Y125604D01*
X84307Y125415D01*
X84427Y125246D01*
X84627Y125096D01*
X84908Y124967D01*
X85268Y124857D01*
X85500Y124810D01*
X85733Y124857D01*
X86093Y124967D01*
X86373Y125096D01*
X86572Y125246D01*
X86693Y125415D01*
X86733Y125604D01*
X86734Y124666D01*
X87507Y124618D01*
X88000Y124612D01*
X88493Y124618D01*
X89267Y124682D01*
Y125604D01*
X89307Y125415D01*
X89428Y125246D01*
X89627Y125096D01*
X89907Y124967D01*
X90267Y124857D01*
X90500Y124810D01*
X90733Y124857D01*
X91092Y124967D01*
X91373Y125096D01*
X91572Y125246D01*
X91693Y125415D01*
X91733Y125604D01*
X91734Y124666D01*
X92507Y124618D01*
X93000Y124612D01*
X93493Y124618D01*
X94267Y124682D01*
Y125604D01*
X94300Y125415D01*
X94397Y125246D01*
X94558Y125096D01*
X94785Y124967D01*
X95076Y124857D01*
X95369Y124783D01*
X95732Y124857D01*
X96092Y124967D01*
X96372Y125096D01*
X96573Y125246D01*
X96693Y125415D01*
X96732Y125604D01*
X96734Y124634D01*
D02*
G37*
G36*
X379895Y127082D02*
X379812Y126992D01*
X379739Y126842D01*
X379676Y126632D01*
X379622Y126362D01*
X379578Y126032D01*
X379520Y125192D01*
X379500Y124112D01*
X376500D01*
X376495Y124682D01*
X376378Y126362D01*
X376324Y126632D01*
X376261Y126842D01*
X376188Y126992D01*
X376105Y127082D01*
X376012Y127112D01*
X379988D01*
X379895Y127082D01*
D02*
G37*
G36*
X312632Y139007D02*
X312080Y138370D01*
X311593Y137732D01*
X311170Y137095D01*
X310812Y136458D01*
X310520Y135821D01*
X310293Y135184D01*
X310130Y134546D01*
X310033Y133909D01*
X310000Y133272D01*
X306000D01*
X305967Y133909D01*
X305870Y134546D01*
X305708Y135184D01*
X305480Y135821D01*
X305188Y136458D01*
X304830Y137095D01*
X304408Y137732D01*
X303920Y138370D01*
X303367Y139007D01*
X302750Y139644D01*
X313250D01*
X312632Y139007D01*
D02*
G37*
G36*
X114532Y138943D02*
X115026Y138565D01*
X115573Y138209D01*
X116175Y137877D01*
X116830Y137568D01*
X117540Y137281D01*
X119120Y136777D01*
X119992Y136560D01*
X120917Y136365D01*
X112165Y130564D01*
X112310Y131379D01*
X112389Y132158D01*
X112403Y132902D01*
X112351Y133610D01*
X112234Y134283D01*
X112052Y134920D01*
X111804Y135521D01*
X111490Y136088D01*
X111111Y136618D01*
X110667Y137113D01*
X114092Y139344D01*
X114532Y138943D01*
D02*
G37*
G36*
X174951Y142296D02*
X175537Y141784D01*
X175814Y141576D01*
X176081Y141400D01*
X176337Y141256D01*
X176583Y141144D01*
X176818Y141064D01*
X177043Y141016D01*
X177258Y141000D01*
Y140000D01*
X177043Y139984D01*
X176818Y139936D01*
X176583Y139856D01*
X176337Y139744D01*
X176081Y139600D01*
X175814Y139424D01*
X175537Y139216D01*
X174951Y138704D01*
X174642Y138400D01*
Y142600D01*
X174951Y142296D01*
D02*
G37*
G36*
X155322Y149382D02*
X155262Y149022D01*
X155229Y148686D01*
X155223Y148372D01*
X155243Y148081D01*
X155290Y147812D01*
X155363Y147566D01*
X155463Y147343D01*
X155589Y147142D01*
X155743Y146965D01*
X154861Y146432D01*
X154727Y146546D01*
X154556Y146661D01*
X154347Y146776D01*
X154099Y146891D01*
X153492Y147120D01*
X153131Y147234D01*
X151822Y147578D01*
X155408Y149764D01*
X155322Y149382D01*
D02*
G37*
G36*
X194819Y145500D02*
X194809Y145595D01*
X194779Y145680D01*
X194729Y145755D01*
X194659Y145820D01*
X194569Y145875D01*
X194459Y145920D01*
X194329Y145955D01*
X194179Y145980D01*
X194009Y145995D01*
X193819Y146000D01*
Y147000D01*
X194009Y147005D01*
X194179Y147020D01*
X194329Y147045D01*
X194459Y147080D01*
X194569Y147125D01*
X194659Y147180D01*
X194729Y147245D01*
X194779Y147320D01*
X194809Y147405D01*
X194819Y147500D01*
Y145500D01*
D02*
G37*
G36*
X214881Y174993D02*
X214751Y174000D01*
X214947Y172512D01*
X215521Y171125D01*
X216435Y169935D01*
X217242Y169315D01*
Y168685D01*
X216435Y168065D01*
X215521Y166875D01*
X214947Y165488D01*
X214751Y164000D01*
X214947Y162512D01*
X215521Y161125D01*
X216435Y159935D01*
X217625Y159021D01*
X219012Y158447D01*
X220500Y158251D01*
X221988Y158447D01*
X223375Y159021D01*
X224565Y159935D01*
X224996Y160496D01*
X225470Y160336D01*
Y156962D01*
X217547Y149039D01*
X217030Y148366D01*
X216829Y148376D01*
X216530Y148506D01*
Y151000D01*
X216410Y151914D01*
X216057Y152765D01*
X215496Y153496D01*
X196144Y172849D01*
X196151Y173031D01*
X196178Y173264D01*
X196176Y173442D01*
X196249Y174000D01*
X196118Y174993D01*
X196448Y175369D01*
X214552D01*
X214881Y174993D01*
D02*
G37*
G36*
X158744Y244404D02*
Y240787D01*
Y234882D01*
X160970D01*
Y229211D01*
X160935Y229164D01*
X160618Y228798D01*
X160532Y228711D01*
X160395Y228605D01*
X159472Y227403D01*
X158892Y226003D01*
X158694Y224500D01*
X158892Y222997D01*
X159472Y221597D01*
X160395Y220395D01*
X161597Y219472D01*
X162997Y218892D01*
X163744Y218794D01*
Y208787D01*
X165744D01*
Y208547D01*
X173256D01*
Y208787D01*
X175256D01*
Y210423D01*
X180149D01*
X180182Y209923D01*
X180086Y209910D01*
X179235Y209557D01*
X178504Y208996D01*
X177943Y208265D01*
X177590Y207414D01*
X177470Y206500D01*
Y184000D01*
X177590Y183086D01*
X177943Y182235D01*
X178504Y181504D01*
X179235Y180943D01*
X179578Y180801D01*
X179675Y180310D01*
X178432Y179068D01*
X177855Y178315D01*
X177493Y177440D01*
X177369Y176500D01*
Y170504D01*
X173459Y166594D01*
X173422Y166585D01*
X173314Y166568D01*
X172805Y166529D01*
X172532Y166526D01*
X172500Y166529D01*
X171324Y166413D01*
X170193Y166070D01*
X169150Y165513D01*
X168237Y164763D01*
X167487Y163849D01*
X166930Y162807D01*
X166587Y161676D01*
X166471Y160500D01*
X166587Y159324D01*
X166930Y158193D01*
X167487Y157150D01*
X168237Y156237D01*
X169150Y155487D01*
X170193Y154930D01*
X171324Y154587D01*
X172500Y154471D01*
X173676Y154587D01*
X174807Y154930D01*
X175849Y155487D01*
X176763Y156237D01*
X177513Y157150D01*
X178070Y158193D01*
X178413Y159324D01*
X178521Y160414D01*
X178524Y160437D01*
X178525Y160459D01*
X178529Y160500D01*
X178527Y160521D01*
X178545Y161115D01*
X178562Y161276D01*
X178585Y161422D01*
X178594Y161459D01*
X183568Y166432D01*
X183568Y166432D01*
X184145Y167184D01*
X184507Y168060D01*
X184631Y169000D01*
X184631Y169000D01*
Y171967D01*
X185131Y172067D01*
X185521Y171125D01*
X186435Y169935D01*
X187625Y169021D01*
X189012Y168447D01*
X189581Y168372D01*
X189766Y168322D01*
X190116Y168274D01*
X190356Y168234D01*
X190402Y168223D01*
X190380Y167716D01*
X189534Y167605D01*
X188634Y167232D01*
X187861Y166639D01*
X187268Y165866D01*
X186895Y164966D01*
X186834Y164500D01*
X190500D01*
Y164000D01*
X191000D01*
Y160334D01*
X191466Y160395D01*
X192366Y160768D01*
X193139Y161361D01*
X193732Y162134D01*
X194105Y163034D01*
X194232Y164000D01*
X194216Y164122D01*
X194664Y164343D01*
X208093Y150915D01*
X207902Y150453D01*
X205937D01*
Y146500D01*
X204937D01*
Y150453D01*
X203319D01*
Y152453D01*
X191807D01*
Y150030D01*
X187000D01*
X186086Y149910D01*
X185235Y149557D01*
X184504Y148996D01*
X179538Y144030D01*
X177588D01*
X177557Y144051D01*
X177443Y144136D01*
X177011Y144515D01*
X176784Y144738D01*
X176763Y144763D01*
X175849Y145513D01*
X174807Y146070D01*
X173676Y146413D01*
X172500Y146529D01*
X171324Y146413D01*
X170193Y146070D01*
X169150Y145513D01*
X168237Y144763D01*
X167487Y143850D01*
X166930Y142807D01*
X166587Y141676D01*
X166530Y141102D01*
X166059Y140933D01*
X158278Y148714D01*
X158293Y148800D01*
X158360Y149097D01*
X158366Y149170D01*
X158413Y149324D01*
X158529Y150500D01*
X158413Y151676D01*
X158070Y152807D01*
X157513Y153849D01*
X156763Y154763D01*
X155850Y155513D01*
X154807Y156070D01*
X153676Y156413D01*
X152500Y156529D01*
X151324Y156413D01*
X150193Y156070D01*
X149543Y155723D01*
X149043Y156023D01*
Y235356D01*
X158282Y244595D01*
X158744Y244404D01*
D02*
G37*
G36*
X213505Y141249D02*
X213520Y141076D01*
X213545Y140925D01*
X213580Y140793D01*
X213625Y140682D01*
X213680Y140591D01*
X213745Y140520D01*
X213820Y140469D01*
X213905Y140439D01*
X214000Y140429D01*
X212000D01*
X212095Y140439D01*
X212180Y140469D01*
X212255Y140520D01*
X212320Y140591D01*
X212375Y140682D01*
X212420Y140793D01*
X212455Y140925D01*
X212480Y141076D01*
X212495Y141249D01*
X212500Y141441D01*
X213500D01*
X213505Y141249D01*
D02*
G37*
G36*
X235648Y140441D02*
X235449Y140235D01*
X235135Y139866D01*
X235021Y139702D01*
X234935Y139554D01*
X234877Y139420D01*
X234847Y139300D01*
X234846Y139194D01*
X234873Y139103D01*
X234929Y139026D01*
X233526Y140429D01*
X233603Y140373D01*
X233694Y140346D01*
X233800Y140348D01*
X233920Y140377D01*
X234054Y140435D01*
X234203Y140521D01*
X234366Y140635D01*
X234543Y140778D01*
X234941Y141148D01*
X235648Y140441D01*
D02*
G37*
G36*
X337311Y140190D02*
X336950Y139779D01*
X336617Y139296D01*
X336312Y138742D01*
X336036Y138117D01*
X335788Y137421D01*
X335568Y136653D01*
X335377Y135814D01*
X335080Y133921D01*
X335037Y133500D01*
X335080Y133079D01*
X335377Y131186D01*
X335568Y130347D01*
X335788Y129579D01*
X336036Y128883D01*
X336312Y128258D01*
X336617Y127704D01*
X336950Y127221D01*
X337311Y126810D01*
X335395Y124484D01*
X334949Y124874D01*
X334443Y125213D01*
X333879Y125499D01*
X333256Y125733D01*
X332575Y125915D01*
X331834Y126045D01*
X331034Y126122D01*
X330176Y126147D01*
X329258Y126120D01*
X328282Y126041D01*
X334450Y133500D01*
X328282Y140959D01*
X329258Y140880D01*
X331034Y140878D01*
X331834Y140955D01*
X332575Y141085D01*
X333256Y141267D01*
X333879Y141501D01*
X334443Y141787D01*
X334949Y142125D01*
X335395Y142516D01*
X337311Y140190D01*
D02*
G37*
G36*
X220548Y141249D02*
X220563Y141076D01*
X220588Y140925D01*
X220623Y140793D01*
X220668Y140682D01*
X220723Y140591D01*
X220788Y140520D01*
X220863Y140469D01*
X220948Y140439D01*
X221043Y140429D01*
X219043D01*
X219138Y140439D01*
X219223Y140469D01*
X219298Y140520D01*
X219363Y140591D01*
X219418Y140682D01*
X219463Y140793D01*
X219498Y140925D01*
X219523Y141076D01*
X219538Y141249D01*
X219543Y141441D01*
X220543D01*
X220548Y141249D01*
D02*
G37*
G36*
X81744Y118608D02*
X81704Y118988D01*
X81583Y119328D01*
X81382Y119628D01*
X81101Y119888D01*
X80740Y120108D01*
X80299Y120288D01*
X79777Y120428D01*
X79176Y120528D01*
X78494Y120588D01*
X77732Y120608D01*
Y124608D01*
X78492Y124618D01*
X80292Y124767D01*
X80733Y124857D01*
X81093Y124967D01*
X81372Y125096D01*
X81573Y125246D01*
X81692Y125415D01*
X81732Y125604D01*
X81744Y118608D01*
D02*
G37*
G36*
X262133Y115007D02*
X261580Y114370D01*
X261092Y113732D01*
X260670Y113095D01*
X260313Y112458D01*
X260020Y111821D01*
X259792Y111184D01*
X259630Y110546D01*
X259532Y109909D01*
X259500Y109272D01*
X255500D01*
X255468Y109909D01*
X255370Y110546D01*
X255207Y111184D01*
X254980Y111821D01*
X254688Y112458D01*
X254330Y113095D01*
X253907Y113732D01*
X253420Y114370D01*
X252868Y115007D01*
X252250Y115644D01*
X262750D01*
X262133Y115007D01*
D02*
G37*
G36*
X70486Y110513D02*
X70517Y110428D01*
X70567Y110353D01*
X70638Y110288D01*
X70729Y110233D01*
X70840Y110188D01*
X70972Y110153D01*
X71124Y110128D01*
X71296Y110113D01*
X71488Y110108D01*
Y109108D01*
X71296Y109103D01*
X71124Y109088D01*
X70972Y109063D01*
X70840Y109028D01*
X70729Y108983D01*
X70638Y108928D01*
X70567Y108863D01*
X70517Y108788D01*
X70486Y108703D01*
X70476Y108608D01*
Y110608D01*
X70486Y110513D01*
D02*
G37*
G36*
X324245Y123483D02*
X325852Y123097D01*
X327500Y122968D01*
X328344Y123034D01*
X328527Y123025D01*
X329425Y123098D01*
X330176Y123120D01*
X330844Y123100D01*
X331427Y123044D01*
X331923Y122957D01*
X332332Y122848D01*
X332659Y122725D01*
X332911Y122597D01*
X333102Y122469D01*
X333179Y122402D01*
X336291Y119291D01*
X337231Y118569D01*
X338325Y118116D01*
X339500Y117961D01*
X340029D01*
X340199Y117461D01*
X339826Y117174D01*
X339224Y116391D01*
X338846Y115479D01*
X338784Y115000D01*
X342500D01*
Y114000D01*
X338784D01*
X338846Y113521D01*
X339224Y112609D01*
X339658Y112043D01*
X339412Y111543D01*
X335089D01*
X323298Y123334D01*
X323581Y123758D01*
X324245Y123483D01*
D02*
G37*
G36*
X23701Y111352D02*
X19394D01*
X19423Y111392D01*
X19449Y111512D01*
X19472Y111712D01*
X19509Y112352D01*
X19547Y115352D01*
X23547D01*
X23701Y111352D01*
D02*
G37*
G36*
X23671Y105829D02*
X23645Y105724D01*
X23622Y105549D01*
X23586Y104989D01*
X23547Y102364D01*
X19547D01*
X19394Y105864D01*
X23701D01*
X23671Y105829D01*
D02*
G37*
G36*
X99279Y101525D02*
X81721D01*
Y118416D01*
X99279D01*
Y101525D01*
D02*
G37*
G36*
X376500Y112500D02*
X376500D01*
X376500Y112500D01*
X375740Y112460D01*
X375060Y112340D01*
X374460Y112140D01*
X373940Y111860D01*
X373500Y111500D01*
X373140Y111060D01*
X372860Y110540D01*
X372727Y110140D01*
X372660Y109940D01*
X372540Y109260D01*
X372500Y108500D01*
X368500D01*
X368460Y109260D01*
X368340Y109940D01*
X368140Y110540D01*
X367860Y111060D01*
X367500Y111500D01*
X367060Y111860D01*
X366540Y112140D01*
X365940Y112340D01*
X365260Y112460D01*
X364500Y112500D01*
X364500Y112500D01*
X364500D01*
X370500Y116500D01*
X376500Y112500D01*
D02*
G37*
G36*
X136500Y110000D02*
X132500Y104000D01*
X132460Y104760D01*
X132340Y105440D01*
X132140Y106040D01*
X131860Y106560D01*
X131500Y107000D01*
X131060Y107360D01*
X130540Y107640D01*
X129940Y107840D01*
X129260Y107960D01*
X128500Y108000D01*
Y112000D01*
X129260Y112040D01*
X129940Y112160D01*
X130540Y112360D01*
X131060Y112640D01*
X131500Y113000D01*
X131860Y113440D01*
X132140Y113960D01*
X132340Y114560D01*
X132460Y115240D01*
X132500Y116000D01*
X136500Y110000D01*
D02*
G37*
G36*
X358646Y117103D02*
X358766Y116976D01*
X358966Y116865D01*
X359246Y116768D01*
X359606Y116686D01*
X360046Y116619D01*
X361166Y116530D01*
X362606Y116500D01*
Y112500D01*
X361846Y112493D01*
X359606Y112314D01*
X359246Y112232D01*
X358966Y112136D01*
X358766Y112024D01*
X358646Y111897D01*
X358606Y111756D01*
Y117244D01*
X358646Y117103D01*
D02*
G37*
G36*
X109344Y133240D02*
X109375Y132820D01*
X109366Y132340D01*
X109311Y131798D01*
X109186Y131094D01*
X109181Y130998D01*
X109097Y130648D01*
X108967Y129000D01*
X109097Y127352D01*
X109483Y125745D01*
X110116Y124218D01*
X110979Y122809D01*
X112052Y121552D01*
X113309Y120479D01*
X114718Y119615D01*
X116245Y118983D01*
X117852Y118597D01*
X119500Y118467D01*
X121148Y118597D01*
X122755Y118983D01*
X124282Y119615D01*
X125691Y120479D01*
X126948Y121552D01*
X128021Y122809D01*
X128884Y124218D01*
X128966Y124416D01*
X129457Y124319D01*
Y115752D01*
X129448Y115584D01*
X129399Y115305D01*
X129352Y115165D01*
X129346Y115154D01*
X129335Y115148D01*
X129195Y115101D01*
X128916Y115052D01*
X128748Y115043D01*
X102305D01*
Y118416D01*
X102279Y118613D01*
Y121081D01*
X102371Y121303D01*
X102543Y122608D01*
X102371Y123913D01*
X102279Y124135D01*
Y128616D01*
X96834D01*
X96727Y128630D01*
X96649Y128620D01*
X96571Y128626D01*
X96519Y128616D01*
X94551D01*
X94547Y128617D01*
X94524Y128616D01*
X94373D01*
X94267Y128630D01*
X94162Y128616D01*
X91834D01*
X91727Y128630D01*
X91649Y128620D01*
X91571Y128626D01*
X91519Y128616D01*
X89481D01*
X89429Y128626D01*
X89348Y128620D01*
X89267Y128630D01*
X89162Y128616D01*
X86834D01*
X86727Y128630D01*
X86649Y128620D01*
X86571Y128626D01*
X86519Y128616D01*
X84481D01*
X84429Y128626D01*
X84348Y128620D01*
X84267Y128630D01*
X84162Y128616D01*
X81834D01*
X81727Y128630D01*
X81649Y128620D01*
X81571Y128626D01*
X81519Y128616D01*
X78720D01*
Y127673D01*
X78455Y127651D01*
X77360D01*
X76055Y127480D01*
X74838Y126976D01*
X73794Y126174D01*
X67419Y119800D01*
X66267Y118675D01*
X64843Y117398D01*
X53500D01*
Y109298D01*
X55500D01*
Y107558D01*
Y106368D01*
X58900D01*
Y105868D01*
X59400D01*
Y103818D01*
X62300D01*
X62700Y103577D01*
Y101818D01*
X63933D01*
X63957Y101523D01*
Y98151D01*
X32892D01*
X26713Y104331D01*
Y104852D01*
X26953D01*
Y108608D01*
Y112364D01*
X26713D01*
Y114364D01*
X26613D01*
X26590Y114960D01*
Y119067D01*
X40540Y133016D01*
X41866Y133565D01*
X109288D01*
X109344Y133240D01*
D02*
G37*
G36*
X208228Y116446D02*
X208185Y116408D01*
X208146Y116336D01*
X208112Y116231D01*
X208082Y116094D01*
X208057Y115923D01*
X208020Y115483D01*
X208000Y114575D01*
X204000Y114527D01*
X204306Y117753D01*
X208228Y116446D01*
D02*
G37*
G36*
X209072Y121154D02*
X209136Y121143D01*
X209234Y121133D01*
X209734Y121111D01*
X210877Y121100D01*
Y117100D01*
X209042Y117033D01*
Y121167D01*
X209072Y121154D01*
D02*
G37*
G36*
X158948Y124076D02*
X160420Y122829D01*
X161071Y122375D01*
X161665Y122035D01*
X162202Y121807D01*
X162682Y121693D01*
X163106Y121692D01*
X163473Y121804D01*
X163783Y122029D01*
X158138Y116384D01*
X158363Y116694D01*
X158475Y117061D01*
X158474Y117484D01*
X158360Y117965D01*
X158132Y118502D01*
X157792Y119096D01*
X157338Y119747D01*
X156771Y120455D01*
X155298Y122041D01*
X158126Y124869D01*
X158948Y124076D01*
D02*
G37*
G36*
X344483Y116060D02*
X344683Y115890D01*
X344886Y115740D01*
X345092Y115610D01*
X345300Y115500D01*
X345512Y115410D01*
X345726Y115340D01*
X345943Y115290D01*
X346162Y115260D01*
X346385Y115250D01*
Y113750D01*
X346162Y113740D01*
X345943Y113710D01*
X345726Y113660D01*
X345512Y113590D01*
X345300Y113500D01*
X345092Y113390D01*
X344886Y113260D01*
X344683Y113110D01*
X344483Y112940D01*
X344285Y112750D01*
Y116250D01*
X344483Y116060D01*
D02*
G37*
G36*
X73381Y115800D02*
X72831Y115245D01*
X70748Y112875D01*
X70604Y112641D01*
X70517Y112453D01*
X70488Y112310D01*
X65712Y114386D01*
X65868Y114429D01*
X66097Y114556D01*
X66399Y114768D01*
X66773Y115065D01*
X68335Y116465D01*
X70552Y118629D01*
X73381Y115800D01*
D02*
G37*
G36*
X354500Y142000D02*
X396470D01*
Y113369D01*
X395970Y113162D01*
X393043Y116089D01*
Y130900D01*
X393000Y131228D01*
Y140700D01*
X373000D01*
Y127321D01*
X372990Y127267D01*
X372554Y127039D01*
X371000D01*
Y131900D01*
X365000D01*
Y127039D01*
X341380D01*
X339387Y129032D01*
X339340Y129086D01*
X339194Y129296D01*
X339027Y129601D01*
X338849Y130003D01*
X338671Y130503D01*
X338500Y131100D01*
X338350Y131758D01*
X338082Y133466D01*
X338078Y133500D01*
X338082Y133534D01*
X338350Y135242D01*
X338500Y135900D01*
X338671Y136496D01*
X338849Y136997D01*
X339027Y137399D01*
X339194Y137704D01*
X339340Y137914D01*
X339387Y137968D01*
X344209Y142791D01*
X344931Y143731D01*
X345384Y144825D01*
X345539Y146000D01*
Y187008D01*
X354500D01*
Y142000D01*
D02*
G37*
G36*
X348394Y113000D02*
X348379Y113143D01*
X348334Y113270D01*
X348259Y113382D01*
X348154Y113480D01*
X348019Y113563D01*
X347854Y113630D01*
X347659Y113682D01*
X347434Y113720D01*
X347179Y113742D01*
X346894Y113750D01*
Y115250D01*
X347179Y115258D01*
X347434Y115280D01*
X347659Y115317D01*
X347854Y115370D01*
X348019Y115437D01*
X348154Y115520D01*
X348259Y115618D01*
X348334Y115730D01*
X348379Y115858D01*
X348394Y116000D01*
Y113000D01*
D02*
G37*
G36*
X375890Y48532D02*
X375880Y48627D01*
X375850Y48712D01*
X375799Y48787D01*
X375728Y48852D01*
X375637Y48907D01*
X375526Y48952D01*
X375394Y48987D01*
X375242Y49012D01*
X375070Y49027D01*
X374878Y49032D01*
Y50032D01*
X375070Y50037D01*
X375242Y50052D01*
X375394Y50077D01*
X375526Y50112D01*
X375637Y50157D01*
X375728Y50212D01*
X375799Y50277D01*
X375850Y50352D01*
X375880Y50437D01*
X375890Y50532D01*
Y48532D01*
D02*
G37*
G36*
X369518Y50437D02*
X369548Y50352D01*
X369599Y50277D01*
X369669Y50212D01*
X369760Y50157D01*
X369872Y50112D01*
X370003Y50077D01*
X370155Y50052D01*
X370327Y50037D01*
X370519Y50032D01*
Y49032D01*
X370327Y49027D01*
X370155Y49012D01*
X370003Y48987D01*
X369872Y48952D01*
X369760Y48907D01*
X369669Y48852D01*
X369599Y48787D01*
X369548Y48712D01*
X369518Y48627D01*
X369508Y48532D01*
Y50532D01*
X369518Y50437D01*
D02*
G37*
G36*
X246114Y48547D02*
X246104Y48642D01*
X246074Y48727D01*
X246024Y48802D01*
X245953Y48867D01*
X245862Y48922D01*
X245750Y48967D01*
X245619Y49002D01*
X245467Y49027D01*
X245295Y49042D01*
X245103Y49047D01*
Y50047D01*
X245295Y50052D01*
X245467Y50067D01*
X245619Y50092D01*
X245750Y50127D01*
X245862Y50172D01*
X245953Y50227D01*
X246024Y50292D01*
X246074Y50367D01*
X246104Y50452D01*
X246114Y50547D01*
Y48547D01*
D02*
G37*
G36*
X239742Y50452D02*
X239772Y50367D01*
X239823Y50292D01*
X239894Y50227D01*
X239985Y50172D01*
X240096Y50127D01*
X240228Y50092D01*
X240380Y50067D01*
X240552Y50052D01*
X240744Y50047D01*
Y49047D01*
X240552Y49042D01*
X240380Y49027D01*
X240228Y49002D01*
X240096Y48967D01*
X239985Y48922D01*
X239894Y48867D01*
X239823Y48802D01*
X239772Y48727D01*
X239742Y48642D01*
X239732Y48547D01*
Y50547D01*
X239742Y50452D01*
D02*
G37*
G36*
X163361Y55035D02*
X164432Y54130D01*
X164945Y53762D01*
X165442Y53451D01*
X165924Y53197D01*
X166391Y52999D01*
X166843Y52857D01*
X167279Y52772D01*
X167701Y52744D01*
X163394Y47256D01*
X163366Y47677D01*
X163281Y48114D01*
X163139Y48566D01*
X162941Y49033D01*
X162687Y49515D01*
X162376Y50012D01*
X162008Y50525D01*
X161584Y51052D01*
X160565Y52153D01*
X162803Y55572D01*
X163361Y55035D01*
D02*
G37*
G36*
X293137Y55019D02*
X294208Y54114D01*
X294720Y53747D01*
X295217Y53435D01*
X295700Y53181D01*
X296167Y52983D01*
X296618Y52842D01*
X297055Y52757D01*
X297476Y52728D01*
X293169Y47241D01*
X293141Y47662D01*
X293056Y48098D01*
X292915Y48550D01*
X292717Y49017D01*
X292462Y49499D01*
X292151Y49997D01*
X291784Y50509D01*
X291359Y51037D01*
X290341Y52138D01*
X292579Y55557D01*
X293137Y55019D01*
D02*
G37*
G36*
X224146Y57689D02*
X224266Y57639D01*
X224466Y57595D01*
X224746Y57558D01*
X225546Y57499D01*
X228106Y57453D01*
Y53453D01*
X227346Y53441D01*
X226066Y53345D01*
X225546Y53261D01*
X225106Y53154D01*
X224746Y53022D01*
X224466Y52866D01*
X224266Y52687D01*
X224146Y52483D01*
X224106Y52256D01*
X224077Y52216D01*
X224051Y52096D01*
X224028Y51896D01*
X223991Y51256D01*
X223953Y48256D01*
X219953D01*
X219799Y52256D01*
X224106D01*
Y57744D01*
X224146Y57689D01*
D02*
G37*
G36*
X353922Y57673D02*
X354042Y57624D01*
X354242Y57580D01*
X354522Y57542D01*
X355322Y57484D01*
X357882Y57437D01*
Y53437D01*
X357122Y53425D01*
X355842Y53330D01*
X355322Y53246D01*
X354882Y53138D01*
X354522Y53007D01*
X354242Y52851D01*
X354042Y52671D01*
X353922Y52468D01*
X353882Y52241D01*
X353853Y52201D01*
X353826Y52081D01*
X353803Y51881D01*
X353767Y51241D01*
X353728Y48241D01*
X349728D01*
X349575Y52241D01*
X353882D01*
Y57728D01*
X353922Y57673D01*
D02*
G37*
G36*
X311237Y53493D02*
X311252Y53321D01*
X311277Y53169D01*
X311312Y53037D01*
X311357Y52926D01*
X311412Y52835D01*
X311477Y52764D01*
X311552Y52714D01*
X311637Y52683D01*
X311732Y52673D01*
X309732D01*
X309827Y52683D01*
X309912Y52714D01*
X309987Y52764D01*
X310052Y52835D01*
X310107Y52926D01*
X310152Y53037D01*
X310187Y53169D01*
X310212Y53321D01*
X310227Y53493D01*
X310232Y53685D01*
X311232D01*
X311237Y53493D01*
D02*
G37*
G36*
X239007Y60846D02*
X239186Y58606D01*
X239268Y58246D01*
X239365Y57966D01*
X239476Y57766D01*
X239603Y57646D01*
X239744Y57606D01*
X234256D01*
Y53299D01*
X234216Y53329D01*
X234096Y53355D01*
X233896Y53378D01*
X233256Y53414D01*
X230256Y53453D01*
Y57453D01*
X234256Y57606D01*
X234397Y57646D01*
X234524Y57766D01*
X234635Y57966D01*
X234732Y58246D01*
X234814Y58606D01*
X234881Y59046D01*
X234970Y60166D01*
X235000Y61606D01*
X239000D01*
X239007Y60846D01*
D02*
G37*
G36*
X368783Y60831D02*
X368962Y58591D01*
X369043Y58231D01*
X369140Y57951D01*
X369252Y57751D01*
X369378Y57631D01*
X369519Y57591D01*
X364032D01*
Y53284D01*
X363992Y53313D01*
X363872Y53339D01*
X363672Y53362D01*
X363032Y53399D01*
X360032Y53437D01*
Y57437D01*
X364032Y57591D01*
X364173Y57631D01*
X364300Y57751D01*
X364411Y57951D01*
X364508Y58231D01*
X364590Y58591D01*
X364657Y59031D01*
X364746Y60151D01*
X364776Y61591D01*
X368776D01*
X368783Y60831D01*
D02*
G37*
G36*
X159849Y63371D02*
X159043Y62548D01*
X157548Y60800D01*
X157685Y60671D01*
X159849Y58527D01*
X158094Y54624D01*
X157215Y55476D01*
X155665Y56799D01*
X154995Y57272D01*
X154394Y57618D01*
X153863Y57837D01*
X153402Y57931D01*
X153011Y57898D01*
X152689Y57739D01*
X152437Y57453D01*
X153855Y59732D01*
X151693Y62547D01*
X152040Y62575D01*
X152409Y62660D01*
X152802Y62802D01*
X153218Y63000D01*
X153657Y63254D01*
X154119Y63565D01*
X154603Y63933D01*
X155642Y64838D01*
X156197Y65376D01*
X159849Y63371D01*
D02*
G37*
G36*
X289624Y63355D02*
X288818Y62532D01*
X287324Y60785D01*
X287461Y60655D01*
X289624Y58512D01*
X287870Y54609D01*
X286990Y55460D01*
X285440Y56784D01*
X284770Y57256D01*
X284170Y57602D01*
X283639Y57822D01*
X283178Y57915D01*
X282786Y57882D01*
X282465Y57723D01*
X282213Y57437D01*
X283631Y59717D01*
X281469Y62532D01*
X281815Y62560D01*
X282185Y62645D01*
X282578Y62786D01*
X282993Y62984D01*
X283432Y63239D01*
X283894Y63550D01*
X284379Y63917D01*
X285418Y64823D01*
X285972Y65360D01*
X289624Y63355D01*
D02*
G37*
G36*
X301781Y53536D02*
X301796Y53364D01*
X301821Y53212D01*
X301856Y53081D01*
X301901Y52969D01*
X301956Y52878D01*
X302021Y52807D01*
X302096Y52757D01*
X302181Y52727D01*
X302276Y52716D01*
X300276D01*
X300371Y52727D01*
X300456Y52757D01*
X300531Y52807D01*
X300596Y52878D01*
X300651Y52969D01*
X300696Y53081D01*
X300731Y53212D01*
X300756Y53364D01*
X300771Y53536D01*
X300776Y53728D01*
X301776D01*
X301781Y53536D01*
D02*
G37*
G36*
X181462Y53508D02*
X181477Y53336D01*
X181502Y53184D01*
X181537Y53053D01*
X181582Y52942D01*
X181637Y52851D01*
X181702Y52780D01*
X181777Y52729D01*
X181862Y52699D01*
X181957Y52689D01*
X179957D01*
X180052Y52699D01*
X180137Y52729D01*
X180212Y52780D01*
X180277Y52851D01*
X180332Y52942D01*
X180377Y53053D01*
X180412Y53184D01*
X180437Y53336D01*
X180452Y53508D01*
X180457Y53701D01*
X181457D01*
X181462Y53508D01*
D02*
G37*
G36*
X96734Y53134D02*
X97500Y53108D01*
Y49108D01*
X96886Y49096D01*
X96741Y49082D01*
X96745Y47108D01*
X96704Y47488D01*
X96583Y47828D01*
X96382Y48128D01*
X96101Y48388D01*
X95740Y48608D01*
X95298Y48788D01*
X95158Y48826D01*
X95076Y48800D01*
X94785Y48665D01*
X94558Y48504D01*
X94397Y48319D01*
X94300Y48110D01*
X94267Y47876D01*
Y49013D01*
X94176Y49028D01*
X93494Y49088D01*
X93000Y49101D01*
X92507Y49088D01*
X91827Y49028D01*
X91741Y49014D01*
X91745Y47108D01*
X91704Y47488D01*
X91583Y47828D01*
X91382Y48128D01*
X91101Y48388D01*
X90740Y48608D01*
X90503Y48705D01*
X90267Y48608D01*
X89907Y48388D01*
X89627Y48128D01*
X89428Y47828D01*
X89307Y47488D01*
X89267Y47108D01*
Y49013D01*
X89176Y49028D01*
X88494Y49088D01*
X88000Y49101D01*
X87507Y49088D01*
X86827Y49028D01*
X86741Y49014D01*
X86744Y47108D01*
X86704Y47488D01*
X86583Y47828D01*
X86382Y48128D01*
X86101Y48388D01*
X85740Y48608D01*
X85503Y48705D01*
X85268Y48608D01*
X84908Y48388D01*
X84627Y48128D01*
X84427Y47828D01*
X84307Y47488D01*
X84267Y47108D01*
Y49013D01*
X84176Y49028D01*
X83494Y49088D01*
X82732Y49108D01*
Y53108D01*
X83492Y53118D01*
X84267Y53183D01*
Y54104D01*
X84307Y53915D01*
X84427Y53746D01*
X84627Y53596D01*
X84908Y53467D01*
X85268Y53357D01*
X85500Y53310D01*
X85733Y53357D01*
X86093Y53467D01*
X86373Y53596D01*
X86572Y53746D01*
X86693Y53915D01*
X86733Y54104D01*
X86734Y53166D01*
X87507Y53118D01*
X88000Y53112D01*
X88493Y53118D01*
X89267Y53183D01*
Y54104D01*
X89307Y53915D01*
X89428Y53746D01*
X89627Y53596D01*
X89907Y53467D01*
X90267Y53357D01*
X90500Y53310D01*
X90733Y53357D01*
X91092Y53467D01*
X91373Y53596D01*
X91572Y53746D01*
X91693Y53915D01*
X91733Y54104D01*
X91734Y53166D01*
X92507Y53118D01*
X93000Y53112D01*
X93493Y53118D01*
X94267Y53183D01*
Y54104D01*
X94300Y53915D01*
X94397Y53746D01*
X94558Y53596D01*
X94785Y53467D01*
X95076Y53357D01*
X95369Y53283D01*
X95732Y53357D01*
X96092Y53467D01*
X96372Y53596D01*
X96573Y53746D01*
X96693Y53915D01*
X96732Y54104D01*
X96734Y53134D01*
D02*
G37*
G36*
X172005Y53552D02*
X172020Y53380D01*
X172045Y53228D01*
X172080Y53096D01*
X172125Y52985D01*
X172180Y52894D01*
X172245Y52823D01*
X172320Y52772D01*
X172405Y52742D01*
X172500Y52732D01*
X170500D01*
X170595Y52742D01*
X170680Y52772D01*
X170755Y52823D01*
X170820Y52894D01*
X170875Y52985D01*
X170920Y53096D01*
X170955Y53228D01*
X170980Y53380D01*
X170995Y53552D01*
X171000Y53744D01*
X172000D01*
X172005Y53552D01*
D02*
G37*
G36*
X81744Y47108D02*
X81704Y47488D01*
X81583Y47828D01*
X81382Y48128D01*
X81101Y48388D01*
X80740Y48608D01*
X80299Y48788D01*
X79777Y48928D01*
X79176Y49028D01*
X78494Y49088D01*
X77732Y49108D01*
Y53108D01*
X78492Y53118D01*
X80292Y53268D01*
X80733Y53357D01*
X81093Y53467D01*
X81372Y53596D01*
X81573Y53746D01*
X81692Y53915D01*
X81732Y54104D01*
X81744Y47108D01*
D02*
G37*
G36*
X89292Y24707D02*
X89366Y24630D01*
X89488Y24562D01*
X89660Y24503D01*
X89881Y24453D01*
X90151Y24413D01*
X90837Y24358D01*
X91720Y24340D01*
Y20340D01*
X91254Y20336D01*
X89881Y20227D01*
X89660Y20177D01*
X89488Y20118D01*
X89366Y20050D01*
X89292Y19973D01*
X89267Y19887D01*
Y24793D01*
X89292Y24707D01*
D02*
G37*
G36*
X84305Y25743D02*
X84417Y25449D01*
X84603Y25189D01*
X84865Y24964D01*
X85201Y24773D01*
X85611Y24617D01*
X85855Y24556D01*
X85988Y24593D01*
X86261Y24704D01*
X86472Y24836D01*
X86624Y24988D01*
X86714Y25160D01*
X86744Y25352D01*
Y24402D01*
X87291Y24358D01*
X88000Y24340D01*
Y20340D01*
X87291Y20323D01*
X86744Y20278D01*
Y19328D01*
X86714Y19520D01*
X86624Y19692D01*
X86472Y19844D01*
X86261Y19976D01*
X85988Y20087D01*
X85855Y20124D01*
X85611Y20063D01*
X85201Y19907D01*
X84865Y19716D01*
X84603Y19491D01*
X84417Y19231D01*
X84305Y18937D01*
X84267Y18608D01*
Y20320D01*
X83720Y20340D01*
Y24340D01*
X84267Y24350D01*
Y26073D01*
X84305Y25743D01*
D02*
G37*
G36*
X99279Y30025D02*
X81721D01*
Y46916D01*
X99279D01*
Y30025D01*
D02*
G37*
G36*
X70585Y33290D02*
X70672Y33170D01*
X70749Y32970D01*
X70816Y32690D01*
X70872Y32330D01*
X70954Y31370D01*
X70995Y30090D01*
X71000Y29330D01*
X67000D01*
X66987Y30090D01*
X66884Y31370D01*
X66794Y31890D01*
X66678Y32330D01*
X66536Y32690D01*
X66369Y32970D01*
X66176Y33170D01*
X65957Y33290D01*
X65712Y33330D01*
X70488D01*
X70585Y33290D01*
D02*
G37*
G36*
X90000Y14109D02*
X85866D01*
X85879Y14139D01*
X85890Y14203D01*
X85900Y14301D01*
X85922Y14801D01*
X85933Y15944D01*
X89933D01*
X90000Y14109D01*
D02*
G37*
G36*
X74690Y30906D02*
Y13695D01*
X74811Y12781D01*
X75163Y11930D01*
X75724Y11199D01*
X82764Y4159D01*
X82932Y4030D01*
X82762Y3530D01*
X30751D01*
X30537Y3982D01*
X30736Y4225D01*
X31613Y5866D01*
X32153Y7648D01*
X32336Y9500D01*
X32153Y11353D01*
X31613Y13134D01*
X30736Y14775D01*
X29555Y16215D01*
X29539Y16227D01*
X29746Y16704D01*
X30803Y16565D01*
X36114D01*
Y15131D01*
X36103Y15067D01*
X36109Y15004D01*
X36100Y14941D01*
X36114Y14835D01*
Y6047D01*
X48020D01*
Y14835D01*
X48034Y14941D01*
X48025Y15004D01*
X48031Y15067D01*
X48020Y15131D01*
Y16565D01*
X66500D01*
X67805Y16737D01*
X69022Y17241D01*
X70066Y18042D01*
X72566Y20542D01*
X73368Y21587D01*
X73871Y22803D01*
X74043Y24108D01*
Y30759D01*
X74543Y31013D01*
X74690Y30906D01*
D02*
G37*
G36*
X98685Y18114D02*
X98599Y18083D01*
X98524Y18033D01*
X98460Y17962D01*
X98405Y17871D01*
X98360Y17760D01*
X98325Y17628D01*
X98299Y17476D01*
X98285Y17304D01*
X98280Y17112D01*
X97280D01*
X97275Y17304D01*
X97259Y17476D01*
X97234Y17628D01*
X97199Y17760D01*
X97154Y17871D01*
X97100Y17962D01*
X97035Y18033D01*
X96960Y18083D01*
X96874Y18114D01*
X96780Y18124D01*
X98779D01*
X98685Y18114D01*
D02*
G37*
G36*
X48067Y19608D02*
X47307Y19568D01*
X46627Y19448D01*
X46027Y19248D01*
X45507Y18968D01*
X45067Y18608D01*
X44707Y18168D01*
X44427Y17648D01*
X44227Y17048D01*
X44184Y16806D01*
X44218Y16381D01*
X44302Y15941D01*
X44406Y15581D01*
X44528Y15301D01*
X44669Y15101D01*
X44829Y14981D01*
X45008Y14941D01*
X39126D01*
X39305Y14981D01*
X39465Y15101D01*
X39606Y15301D01*
X39728Y15581D01*
X39832Y15941D01*
X39916Y16381D01*
X39962Y16738D01*
X39907Y17048D01*
X39707Y17648D01*
X39427Y18168D01*
X39067Y18608D01*
X38627Y18968D01*
X38107Y19248D01*
X37507Y19448D01*
X36827Y19568D01*
X36067Y19608D01*
X42067Y23608D01*
X48067Y19608D01*
D02*
G37*
G36*
X23671Y34329D02*
X23645Y34224D01*
X23622Y34049D01*
X23586Y33489D01*
X23547Y30864D01*
X19547D01*
X19394Y34364D01*
X23701D01*
X23671Y34329D01*
D02*
G37*
G36*
X283582Y54391D02*
X284953Y53221D01*
X284989Y53186D01*
X288460Y49716D01*
X289067Y49059D01*
X289373Y48678D01*
X289637Y48311D01*
X289838Y47989D01*
X289981Y47718D01*
X290071Y47505D01*
X290118Y47355D01*
X290135Y47271D01*
X290150Y47038D01*
X290158Y47003D01*
Y44528D01*
X285865D01*
X282169Y48223D01*
Y53968D01*
X282403Y54418D01*
X282443Y54426D01*
X283534D01*
X283582Y54391D01*
D02*
G37*
G36*
X73381Y44300D02*
X72831Y43745D01*
X70748Y41375D01*
X70604Y41141D01*
X70517Y40953D01*
X70488Y40810D01*
X65712Y42886D01*
X65868Y42929D01*
X66097Y43056D01*
X66399Y43268D01*
X66773Y43565D01*
X68335Y44965D01*
X70552Y47129D01*
X73381Y44300D01*
D02*
G37*
G36*
X153807Y54407D02*
X155178Y53236D01*
X155214Y53202D01*
X158684Y49731D01*
X159291Y49075D01*
X159598Y48693D01*
X159861Y48326D01*
X160063Y48004D01*
X160206Y47733D01*
X160296Y47521D01*
X160343Y47371D01*
X160359Y47286D01*
X160375Y47054D01*
X160382Y47018D01*
Y44543D01*
X156089D01*
X152393Y48239D01*
Y53984D01*
X152627Y54433D01*
X152668Y54441D01*
X153759D01*
X153807Y54407D01*
D02*
G37*
G36*
X109570Y61896D02*
X109611Y61719D01*
X109630Y61557D01*
X109631Y61397D01*
X109609Y61196D01*
X109597Y61148D01*
X109467Y59500D01*
X109597Y57852D01*
X109983Y56245D01*
X110616Y54718D01*
X111479Y53309D01*
X112552Y52052D01*
X113809Y50979D01*
X115218Y50116D01*
X116745Y49483D01*
X118352Y49097D01*
X120000Y48967D01*
X121648Y49097D01*
X123255Y49483D01*
X124782Y50116D01*
X126191Y50979D01*
X127448Y52052D01*
X128521Y53309D01*
X128957Y54021D01*
X129457Y53879D01*
Y44543D01*
X102305D01*
Y46916D01*
X102279Y47113D01*
Y49581D01*
X102371Y49803D01*
X102543Y51108D01*
X102371Y52413D01*
X102279Y52635D01*
Y57116D01*
X96834D01*
X96727Y57130D01*
X96649Y57120D01*
X96571Y57126D01*
X96519Y57116D01*
X94551D01*
X94547Y57117D01*
X94524Y57116D01*
X94373D01*
X94267Y57130D01*
X94162Y57116D01*
X91834D01*
X91727Y57130D01*
X91649Y57120D01*
X91571Y57126D01*
X91519Y57116D01*
X89481D01*
X89429Y57126D01*
X89348Y57120D01*
X89267Y57130D01*
X89162Y57116D01*
X86834D01*
X86727Y57130D01*
X86649Y57120D01*
X86571Y57126D01*
X86519Y57116D01*
X84481D01*
X84429Y57126D01*
X84348Y57120D01*
X84267Y57130D01*
X84162Y57116D01*
X81834D01*
X81727Y57130D01*
X81649Y57120D01*
X81571Y57126D01*
X81519Y57116D01*
X78720D01*
Y56173D01*
X78455Y56151D01*
X77360D01*
X76055Y55980D01*
X74838Y55476D01*
X73794Y54674D01*
X67419Y48300D01*
X66267Y47175D01*
X64843Y45898D01*
X53500D01*
Y37798D01*
X55500D01*
Y36058D01*
Y34868D01*
X58900D01*
Y34368D01*
X59400D01*
Y32318D01*
X62300D01*
X62700Y32077D01*
Y30318D01*
X63933D01*
X63957Y30023D01*
Y26651D01*
X32892D01*
X26713Y32831D01*
Y33352D01*
X26953D01*
Y37108D01*
Y40864D01*
X26713D01*
Y42864D01*
X26613D01*
X26590Y43460D01*
Y47567D01*
X40540Y61516D01*
X41866Y62065D01*
X109511D01*
X109570Y61896D01*
D02*
G37*
G36*
X353768Y44725D02*
X353888Y44045D01*
X354088Y43444D01*
X354368Y42924D01*
X354728Y42485D01*
X355168Y42125D01*
X355688Y41844D01*
X356288Y41644D01*
X356968Y41524D01*
X357728Y41484D01*
X351728Y37484D01*
X345728Y41484D01*
X346488Y41524D01*
X347168Y41644D01*
X347768Y41844D01*
X348288Y42125D01*
X348728Y42485D01*
X349088Y42924D01*
X349368Y43444D01*
X349568Y44045D01*
X349688Y44725D01*
X349728Y45485D01*
X353728D01*
X353768Y44725D01*
D02*
G37*
G36*
X70486Y39013D02*
X70517Y38928D01*
X70567Y38853D01*
X70638Y38788D01*
X70729Y38733D01*
X70840Y38688D01*
X70972Y38653D01*
X71124Y38628D01*
X71296Y38613D01*
X71488Y38608D01*
Y37608D01*
X71296Y37603D01*
X71124Y37588D01*
X70972Y37563D01*
X70840Y37528D01*
X70729Y37483D01*
X70638Y37428D01*
X70567Y37363D01*
X70517Y37288D01*
X70486Y37203D01*
X70476Y37108D01*
Y39108D01*
X70486Y39013D01*
D02*
G37*
G36*
X23701Y39852D02*
X19394D01*
X19423Y39892D01*
X19449Y40012D01*
X19472Y40212D01*
X19509Y40852D01*
X19547Y43852D01*
X23547D01*
X23701Y39852D01*
D02*
G37*
G36*
X223993Y44740D02*
X224113Y44060D01*
X224313Y43460D01*
X224593Y42940D01*
X224953Y42500D01*
X225393Y42140D01*
X225913Y41860D01*
X226513Y41660D01*
X227193Y41540D01*
X227953Y41500D01*
X221953Y37500D01*
X215953Y41500D01*
X216713Y41540D01*
X217393Y41660D01*
X217993Y41860D01*
X218513Y42140D01*
X218953Y42500D01*
X219313Y42940D01*
X219593Y43460D01*
X219793Y44060D01*
X219913Y44740D01*
X219953Y45500D01*
X223953D01*
X223993Y44740D01*
D02*
G37*
G36*
X324544Y54894D02*
X324534Y54989D01*
X324503Y55074D01*
X324453Y55149D01*
X324382Y55214D01*
X324291Y55269D01*
X324179Y55314D01*
X324048Y55349D01*
X323896Y55374D01*
X323724Y55389D01*
X323532Y55394D01*
Y56394D01*
X323724Y56399D01*
X323896Y56414D01*
X324048Y56439D01*
X324179Y56474D01*
X324291Y56519D01*
X324382Y56574D01*
X324453Y56639D01*
X324503Y56714D01*
X324534Y56799D01*
X324544Y56894D01*
Y54894D01*
D02*
G37*
G36*
X306713Y74523D02*
X306690Y74513D01*
X306670Y74483D01*
X306652Y74433D01*
X306637Y74363D01*
X306624Y74273D01*
X306605Y74033D01*
X306594Y73523D01*
X305594D01*
X305590Y73714D01*
X305574Y73886D01*
X305550Y74037D01*
X305515Y74169D01*
X305469Y74280D01*
X305415Y74371D01*
X305349Y74442D01*
X305275Y74493D01*
X305189Y74524D01*
X305095Y74535D01*
X306713Y74523D01*
D02*
G37*
G36*
X251982Y74799D02*
X252012Y74714D01*
X252063Y74639D01*
X252134Y74574D01*
X252225Y74519D01*
X252336Y74474D01*
X252468Y74439D01*
X252620Y74414D01*
X252792Y74399D01*
X252984Y74394D01*
Y73394D01*
X252792Y73389D01*
X252620Y73374D01*
X252468Y73349D01*
X252336Y73314D01*
X252225Y73269D01*
X252134Y73214D01*
X252063Y73149D01*
X252012Y73074D01*
X251982Y72989D01*
X251972Y72894D01*
Y74894D01*
X251982Y74799D01*
D02*
G37*
G36*
X320612Y78426D02*
X320991Y78103D01*
X321157Y77987D01*
X321306Y77901D01*
X321440Y77845D01*
X321557Y77820D01*
X321658Y77825D01*
X321743Y77860D01*
X321812Y77925D01*
X320595Y76314D01*
X320642Y76401D01*
X320664Y76500D01*
X320659Y76611D01*
X320628Y76734D01*
X320570Y76869D01*
X320486Y77017D01*
X320376Y77176D01*
X320239Y77348D01*
X320077Y77532D01*
X319888Y77728D01*
X320398Y78632D01*
X320612Y78426D01*
D02*
G37*
G36*
X176937Y74538D02*
X176915Y74528D01*
X176894Y74498D01*
X176877Y74448D01*
X176861Y74378D01*
X176848Y74288D01*
X176830Y74048D01*
X176819Y73538D01*
X175819D01*
X175814Y73730D01*
X175799Y73901D01*
X175774Y74053D01*
X175739Y74184D01*
X175694Y74296D01*
X175639Y74387D01*
X175574Y74458D01*
X175499Y74509D01*
X175414Y74540D01*
X175319Y74550D01*
X176937Y74538D01*
D02*
G37*
G36*
X256500Y73894D02*
X255500Y72394D01*
X255490Y72584D01*
X255460Y72754D01*
X255410Y72904D01*
X255340Y73034D01*
X255250Y73144D01*
X255140Y73234D01*
X255010Y73304D01*
X254860Y73354D01*
X254690Y73384D01*
X254500Y73394D01*
Y74394D01*
X254690Y74404D01*
X254860Y74434D01*
X255010Y74484D01*
X255140Y74554D01*
X255250Y74644D01*
X255340Y74754D01*
X255410Y74884D01*
X255460Y75034D01*
X255490Y75204D01*
X255500Y75394D01*
X256500Y73894D01*
D02*
G37*
G36*
X386276Y73878D02*
X385276Y72378D01*
X385266Y72568D01*
X385236Y72738D01*
X385186Y72888D01*
X385116Y73018D01*
X385026Y73128D01*
X384916Y73218D01*
X384786Y73288D01*
X384636Y73338D01*
X384466Y73368D01*
X384276Y73378D01*
Y74378D01*
X384466Y74388D01*
X384636Y74418D01*
X384786Y74468D01*
X384916Y74538D01*
X385026Y74628D01*
X385116Y74738D01*
X385186Y74868D01*
X385236Y75018D01*
X385266Y75188D01*
X385276Y75378D01*
X386276Y73878D01*
D02*
G37*
G36*
X381758Y74783D02*
X381788Y74698D01*
X381839Y74623D01*
X381910Y74558D01*
X382001Y74503D01*
X382112Y74458D01*
X382243Y74423D01*
X382395Y74398D01*
X382567Y74383D01*
X382760Y74378D01*
Y73378D01*
X382567Y73373D01*
X382395Y73358D01*
X382243Y73333D01*
X382112Y73298D01*
X382001Y73253D01*
X381910Y73198D01*
X381839Y73133D01*
X381788Y73058D01*
X381758Y72973D01*
X381748Y72878D01*
Y74878D01*
X381758Y74783D01*
D02*
G37*
G36*
X168926Y72727D02*
X169023Y72724D01*
Y71724D01*
X168926Y71722D01*
Y71224D01*
X168915Y71319D01*
X168885Y71404D01*
X168834Y71479D01*
X168764Y71544D01*
X168673Y71599D01*
X168561Y71644D01*
X168468Y71669D01*
X168376Y71644D01*
X168264Y71599D01*
X168173Y71544D01*
X168103Y71479D01*
X168052Y71404D01*
X168022Y71319D01*
X168011Y71224D01*
Y71722D01*
X167914Y71724D01*
Y72724D01*
X168011Y72727D01*
Y73224D01*
X168022Y73129D01*
X168052Y73044D01*
X168103Y72969D01*
X168173Y72904D01*
X168264Y72849D01*
X168376Y72804D01*
X168468Y72780D01*
X168561Y72804D01*
X168673Y72849D01*
X168764Y72904D01*
X168834Y72969D01*
X168885Y73044D01*
X168915Y73129D01*
X168926Y73224D01*
Y72727D01*
D02*
G37*
G36*
X190836Y78441D02*
X191216Y78118D01*
X191381Y78002D01*
X191531Y77916D01*
X191664Y77861D01*
X191781Y77835D01*
X191883Y77840D01*
X191967Y77875D01*
X192036Y77941D01*
X190819Y76330D01*
X190867Y76416D01*
X190888Y76515D01*
X190883Y76626D01*
X190852Y76749D01*
X190795Y76885D01*
X190711Y77032D01*
X190600Y77192D01*
X190464Y77364D01*
X190301Y77548D01*
X190112Y77744D01*
X190622Y78648D01*
X190836Y78441D01*
D02*
G37*
G36*
X176947Y83486D02*
X176977Y83480D01*
X177027Y83474D01*
X177187Y83466D01*
X177937Y83457D01*
Y82457D01*
X176937Y82414D01*
Y83493D01*
X176947Y83486D01*
D02*
G37*
G36*
X306722Y83470D02*
X306752Y83464D01*
X306803Y83459D01*
X306962Y83450D01*
X307713Y83441D01*
Y82441D01*
X306713Y82399D01*
Y83477D01*
X306722Y83470D01*
D02*
G37*
G36*
X227571Y82457D02*
X227561Y82552D01*
X227531Y82637D01*
X227480Y82712D01*
X227409Y82777D01*
X227318Y82832D01*
X227207Y82877D01*
X227075Y82912D01*
X226924Y82937D01*
X226751Y82952D01*
X226559Y82957D01*
Y83957D01*
X226751Y83962D01*
X226924Y83977D01*
X227075Y84002D01*
X227207Y84037D01*
X227318Y84082D01*
X227409Y84137D01*
X227480Y84202D01*
X227531Y84277D01*
X227561Y84362D01*
X227571Y84457D01*
Y82457D01*
D02*
G37*
G36*
X357347Y82441D02*
X357337Y82536D01*
X357306Y82621D01*
X357256Y82696D01*
X357185Y82761D01*
X357094Y82816D01*
X356982Y82861D01*
X356851Y82896D01*
X356699Y82921D01*
X356527Y82936D01*
X356335Y82941D01*
Y83941D01*
X356527Y83946D01*
X356699Y83961D01*
X356851Y83986D01*
X356982Y84021D01*
X357094Y84066D01*
X357185Y84121D01*
X357256Y84186D01*
X357306Y84261D01*
X357337Y84346D01*
X357347Y84441D01*
Y82441D01*
D02*
G37*
G36*
X243047Y87138D02*
X244229D01*
X244450Y86689D01*
X244224Y86395D01*
X243847Y85483D01*
X243718Y84504D01*
X243847Y83525D01*
X244224Y82613D01*
X244826Y81829D01*
X245047Y81659D01*
Y81264D01*
X245563D01*
X245609Y81228D01*
X246521Y80850D01*
X247500Y80722D01*
X248479Y80850D01*
X248500Y80859D01*
Y85020D01*
X249500D01*
Y81264D01*
X252470D01*
Y79650D01*
X243091D01*
Y71461D01*
X243010Y71456D01*
X237043D01*
X237022Y71454D01*
X237000Y71456D01*
X235695Y71285D01*
X234478Y70781D01*
X233434Y69979D01*
X232632Y68935D01*
X232129Y67719D01*
X231957Y66413D01*
Y60803D01*
X231953Y60618D01*
X231244D01*
Y60519D01*
X230648Y60496D01*
X227186D01*
X227118Y60497D01*
Y60756D01*
X224212D01*
X224106Y60770D01*
X224001Y60756D01*
X216787D01*
Y58756D01*
X216547D01*
Y55000D01*
Y51244D01*
X216787D01*
Y49244D01*
X216887D01*
X216910Y48648D01*
Y45252D01*
X216901Y45084D01*
X216852Y44805D01*
X216805Y44665D01*
X216799Y44654D01*
X216788Y44648D01*
X216647Y44601D01*
X216369Y44552D01*
X216201Y44543D01*
X186713D01*
Y46201D01*
X186953D01*
Y49957D01*
X187453D01*
Y50457D01*
X190618D01*
Y52281D01*
X191034Y52559D01*
X191177Y52500D01*
X191744Y52425D01*
Y50744D01*
X193744D01*
Y50504D01*
X201256D01*
Y50744D01*
X203256D01*
Y61075D01*
X191918D01*
X179949Y73044D01*
Y74417D01*
X179963Y74516D01*
X179949Y74627D01*
Y75383D01*
X187807D01*
Y69047D01*
X199319D01*
Y71047D01*
X200937D01*
Y75000D01*
Y78953D01*
X199319D01*
Y79839D01*
X199756D01*
Y80427D01*
X203500D01*
X204414Y80547D01*
X205265Y80900D01*
X205996Y81460D01*
X206557Y82192D01*
X206910Y83043D01*
X207030Y83957D01*
Y87970D01*
X207744D01*
Y85744D01*
Y79839D01*
X216155D01*
X216266Y79825D01*
X216350Y79836D01*
X216435Y79831D01*
X216475Y79839D01*
X219256D01*
Y79927D01*
X224547D01*
Y77764D01*
X236453D01*
Y84417D01*
X241506Y89470D01*
X243047D01*
Y87138D01*
D02*
G37*
G36*
X372823Y87122D02*
X374005D01*
X374226Y86674D01*
X374000Y86380D01*
X373622Y85467D01*
X373493Y84488D01*
X373622Y83509D01*
X374000Y82597D01*
X374601Y81814D01*
X374823Y81644D01*
Y81248D01*
X375338D01*
X375384Y81213D01*
X376297Y80835D01*
X377276Y80706D01*
X378255Y80835D01*
X378276Y80844D01*
Y85004D01*
X379276D01*
Y81248D01*
X382245D01*
Y79634D01*
X372866D01*
Y71446D01*
X372785Y71441D01*
X366819D01*
X366797Y71438D01*
X366776Y71441D01*
X365470Y71269D01*
X364254Y70765D01*
X363210Y69964D01*
X362408Y68919D01*
X361904Y67703D01*
X361733Y66398D01*
Y60787D01*
X361729Y60603D01*
X361020D01*
Y60503D01*
X360424Y60480D01*
X356961D01*
X356894Y60482D01*
Y60740D01*
X353987D01*
X353882Y60754D01*
X353776Y60740D01*
X346563D01*
Y58740D01*
X346323D01*
Y54984D01*
Y51229D01*
X346563D01*
Y49229D01*
X346662D01*
X346685Y48632D01*
Y45236D01*
X346676Y45068D01*
X346627Y44790D01*
X346580Y44649D01*
X346574Y44638D01*
X346564Y44633D01*
X346423Y44586D01*
X346145Y44537D01*
X345976Y44528D01*
X316488D01*
Y46185D01*
X316728D01*
Y49941D01*
X317228D01*
Y50441D01*
X320394D01*
Y52266D01*
X320810Y52543D01*
X320953Y52484D01*
X321520Y52409D01*
Y50729D01*
X323520D01*
Y50489D01*
X331031D01*
Y50729D01*
X333032D01*
Y61059D01*
X321693D01*
X309724Y73028D01*
Y74401D01*
X309738Y74500D01*
X309724Y74612D01*
Y75368D01*
X317583D01*
Y69032D01*
X329095D01*
Y71032D01*
X330713D01*
Y74985D01*
Y78937D01*
X329095D01*
Y79823D01*
X329532D01*
Y80411D01*
X333276D01*
X334189Y80531D01*
X335041Y80884D01*
X335772Y81445D01*
X336333Y82176D01*
X336685Y83027D01*
X336806Y83941D01*
Y87954D01*
X337520D01*
Y85729D01*
Y79823D01*
X345931D01*
X346042Y79809D01*
X346126Y79821D01*
X346210Y79815D01*
X346250Y79823D01*
X349031D01*
Y79911D01*
X354323D01*
Y77748D01*
X366228D01*
Y84402D01*
X371281Y89454D01*
X372823D01*
Y87122D01*
D02*
G37*
G36*
X176947Y79528D02*
X176977Y79504D01*
X177027Y79483D01*
X177097Y79464D01*
X177187Y79449D01*
X177297Y79436D01*
X177577Y79419D01*
X177937Y79413D01*
Y78413D01*
X177747Y78414D01*
X176947Y78464D01*
X176937Y78476D01*
Y79555D01*
X176947Y79528D01*
D02*
G37*
G36*
X306722Y79512D02*
X306752Y79488D01*
X306803Y79467D01*
X306873Y79449D01*
X306962Y79433D01*
X307072Y79421D01*
X307352Y79404D01*
X307713Y79398D01*
Y78398D01*
X307523Y78399D01*
X306722Y78449D01*
X306713Y78461D01*
Y79539D01*
X306722Y79512D01*
D02*
G37*
G36*
X166957Y72227D02*
X167055Y72224D01*
Y71224D01*
X166957Y71222D01*
Y70724D01*
X166947Y70819D01*
X166917Y70904D01*
X166866Y70979D01*
X166795Y71044D01*
X166704Y71099D01*
X166593Y71144D01*
X166500Y71169D01*
X166407Y71144D01*
X166296Y71099D01*
X166205Y71044D01*
X166134Y70979D01*
X166083Y70904D01*
X166053Y70819D01*
X166043Y70724D01*
Y71222D01*
X165945Y71224D01*
Y72224D01*
X166043Y72227D01*
Y72724D01*
X166053Y72629D01*
X166083Y72544D01*
X166134Y72469D01*
X166205Y72404D01*
X166296Y72349D01*
X166407Y72304D01*
X166500Y72280D01*
X166593Y72304D01*
X166704Y72349D01*
X166795Y72404D01*
X166866Y72469D01*
X166917Y72544D01*
X166947Y72629D01*
X166957Y72724D01*
Y72227D01*
D02*
G37*
G36*
X113883Y68084D02*
X114355Y67705D01*
X114829Y67384D01*
X115306Y67123D01*
X115786Y66920D01*
X116268Y66776D01*
X116754Y66690D01*
X117242Y66664D01*
X117732Y66696D01*
X118226Y66787D01*
X112602Y60732D01*
X112657Y61236D01*
X112656Y61738D01*
X112597Y62239D01*
X112481Y62738D01*
X112308Y63235D01*
X112078Y63730D01*
X111791Y64224D01*
X111446Y64716D01*
X111045Y65206D01*
X110586Y65694D01*
X113414Y68522D01*
X113883Y68084D01*
D02*
G37*
G36*
X166896Y65583D02*
X166956Y65504D01*
X167159Y65348D01*
X167970Y64538D01*
Y56247D01*
X167970Y56245D01*
X167812Y55999D01*
X167470Y55831D01*
X167436Y55842D01*
X167223Y55932D01*
X166953Y56075D01*
X166631Y56277D01*
X166294Y56518D01*
X165436Y57244D01*
X161731Y60949D01*
X166397Y65615D01*
X166896Y65583D01*
D02*
G37*
G36*
X246102Y63276D02*
X246062Y63492D01*
X245942Y63685D01*
X245743Y63856D01*
X245462Y64004D01*
X245103Y64129D01*
X244662Y64231D01*
X244143Y64311D01*
X243543Y64368D01*
X242103Y64413D01*
Y68413D01*
X242863Y68417D01*
X245743Y68585D01*
X245942Y68638D01*
X246062Y68697D01*
X246102Y68764D01*
Y63276D01*
D02*
G37*
G36*
X375878Y63260D02*
X375838Y63476D01*
X375718Y63670D01*
X375518Y63841D01*
X375238Y63988D01*
X374878Y64113D01*
X374438Y64216D01*
X373918Y64296D01*
X373318Y64352D01*
X371878Y64398D01*
Y68398D01*
X372638Y68401D01*
X375518Y68569D01*
X375718Y68622D01*
X375838Y68682D01*
X375878Y68748D01*
Y63260D01*
D02*
G37*
G36*
X381758Y56889D02*
X381788Y56805D01*
X381839Y56730D01*
X381910Y56665D01*
X382001Y56609D01*
X382112Y56564D01*
X382243Y56529D01*
X382395Y56504D01*
X382567Y56489D01*
X382760Y56485D01*
Y55484D01*
X382567Y55480D01*
X382395Y55465D01*
X382243Y55440D01*
X382112Y55405D01*
X382001Y55360D01*
X381910Y55304D01*
X381839Y55239D01*
X381788Y55164D01*
X381758Y55080D01*
X381748Y54984D01*
Y56985D01*
X381758Y56889D01*
D02*
G37*
G36*
X194768Y54909D02*
X194758Y55005D01*
X194728Y55089D01*
X194677Y55164D01*
X194606Y55230D01*
X194515Y55285D01*
X194404Y55330D01*
X194272Y55365D01*
X194120Y55389D01*
X193948Y55405D01*
X193756Y55409D01*
Y56410D01*
X193948Y56415D01*
X194120Y56429D01*
X194272Y56454D01*
X194404Y56489D01*
X194515Y56534D01*
X194606Y56590D01*
X194677Y56655D01*
X194728Y56730D01*
X194758Y56814D01*
X194768Y56910D01*
Y54909D01*
D02*
G37*
G36*
X296672Y65567D02*
X296732Y65488D01*
X296935Y65333D01*
X297745Y64522D01*
Y56231D01*
X297745Y56230D01*
X297587Y55983D01*
X297245Y55816D01*
X297212Y55826D01*
X296999Y55917D01*
X296728Y56060D01*
X296406Y56261D01*
X296069Y56503D01*
X295211Y57228D01*
X291756Y60683D01*
Y61183D01*
X296173Y65600D01*
X296672Y65567D01*
D02*
G37*
G36*
X251982Y56905D02*
X252012Y56820D01*
X252063Y56745D01*
X252134Y56680D01*
X252225Y56625D01*
X252336Y56580D01*
X252468Y56545D01*
X252620Y56520D01*
X252792Y56505D01*
X252984Y56500D01*
Y55500D01*
X252792Y55495D01*
X252620Y55480D01*
X252468Y55455D01*
X252336Y55420D01*
X252225Y55375D01*
X252134Y55320D01*
X252063Y55255D01*
X252012Y55180D01*
X251982Y55095D01*
X251972Y55000D01*
Y57000D01*
X251982Y56905D01*
D02*
G37*
G36*
X293862Y69548D02*
X294191Y69505D01*
X294396Y69378D01*
X294477Y69166D01*
X294434Y68869D01*
X294267Y68487D01*
X293977Y68020D01*
X293562Y67469D01*
X293023Y66832D01*
X291574Y65305D01*
X288746Y68133D01*
X289513Y68918D01*
X291330Y70990D01*
X291774Y71587D01*
X292138Y72137D01*
X292420Y72640D01*
X292622Y73097D01*
X292743Y73507D01*
X292784Y73870D01*
X293862Y69548D01*
D02*
G37*
G36*
X294764Y72211D02*
X294862Y72209D01*
Y71209D01*
X294764Y71206D01*
Y70709D01*
X294754Y70804D01*
X294724Y70889D01*
X294673Y70964D01*
X294602Y71029D01*
X294511Y71084D01*
X294400Y71129D01*
X294307Y71154D01*
X294214Y71129D01*
X294103Y71084D01*
X294012Y71029D01*
X293941Y70964D01*
X293891Y70889D01*
X293860Y70804D01*
X293850Y70709D01*
Y71206D01*
X293752Y71209D01*
Y72209D01*
X293850Y72211D01*
Y72709D01*
X293860Y72614D01*
X293891Y72529D01*
X293941Y72454D01*
X294012Y72389D01*
X294103Y72334D01*
X294214Y72289D01*
X294307Y72264D01*
X294400Y72289D01*
X294511Y72334D01*
X294602Y72389D01*
X294673Y72454D01*
X294724Y72529D01*
X294754Y72614D01*
X294764Y72709D01*
Y72211D01*
D02*
G37*
G36*
X171959Y72788D02*
X171991Y72638D01*
X172045Y72480D01*
X172120Y72314D01*
X172217Y72141D01*
X172335Y71961D01*
X172474Y71773D01*
X172817Y71374D01*
X173021Y71163D01*
X172668Y70102D01*
X172531Y70232D01*
X172409Y70333D01*
X172301Y70404D01*
X172207Y70448D01*
X172128Y70462D01*
X172064Y70448D01*
X172013Y70404D01*
X171977Y70333D01*
X171956Y70232D01*
X171948Y70102D01*
Y72931D01*
X171959Y72788D01*
D02*
G37*
G36*
X164989Y72227D02*
X165086Y72224D01*
Y71224D01*
X164989Y71222D01*
Y70724D01*
X164978Y70819D01*
X164948Y70904D01*
X164898Y70979D01*
X164827Y71044D01*
X164736Y71099D01*
X164624Y71144D01*
X164532Y71169D01*
X164439Y71144D01*
X164327Y71099D01*
X164236Y71044D01*
X164165Y70979D01*
X164115Y70904D01*
X164084Y70819D01*
X164074Y70724D01*
Y71222D01*
X163977Y71224D01*
Y72224D01*
X164074Y72227D01*
Y72724D01*
X164084Y72629D01*
X164115Y72544D01*
X164165Y72469D01*
X164236Y72404D01*
X164327Y72349D01*
X164439Y72304D01*
X164532Y72280D01*
X164624Y72304D01*
X164736Y72349D01*
X164827Y72404D01*
X164898Y72469D01*
X164948Y72544D01*
X164978Y72629D01*
X164989Y72724D01*
Y72227D01*
D02*
G37*
G36*
X296733Y72211D02*
X296831Y72209D01*
Y71209D01*
X296733Y71206D01*
Y70709D01*
X296723Y70804D01*
X296692Y70889D01*
X296642Y70964D01*
X296571Y71029D01*
X296480Y71084D01*
X296368Y71129D01*
X296276Y71154D01*
X296183Y71129D01*
X296072Y71084D01*
X295981Y71029D01*
X295910Y70964D01*
X295859Y70889D01*
X295829Y70804D01*
X295818Y70709D01*
Y71206D01*
X295721Y71209D01*
Y72209D01*
X295818Y72211D01*
Y72709D01*
X295829Y72614D01*
X295859Y72529D01*
X295910Y72454D01*
X295981Y72389D01*
X296072Y72334D01*
X296183Y72289D01*
X296276Y72264D01*
X296368Y72289D01*
X296480Y72334D01*
X296571Y72389D01*
X296642Y72454D01*
X296692Y72529D01*
X296723Y72614D01*
X296733Y72709D01*
Y72211D01*
D02*
G37*
G36*
X299760Y69538D02*
X299753Y69508D01*
X299748Y69458D01*
X299738Y69298D01*
X299728Y68548D01*
X298728D01*
X298689Y69548D01*
X299767D01*
X299760Y69538D01*
D02*
G37*
G36*
X164086Y69563D02*
X164415Y69521D01*
X164620Y69393D01*
X164701Y69181D01*
X164659Y68884D01*
X164492Y68502D01*
X164201Y68036D01*
X163786Y67484D01*
X163248Y66848D01*
X161799Y65320D01*
X158970Y68149D01*
X159737Y68933D01*
X161554Y71005D01*
X161999Y71602D01*
X162362Y72152D01*
X162645Y72656D01*
X162847Y73113D01*
X162968Y73523D01*
X163008Y73886D01*
X164086Y69563D01*
D02*
G37*
G36*
X301735Y72773D02*
X301767Y72622D01*
X301821Y72464D01*
X301896Y72299D01*
X301992Y72126D01*
X302110Y71945D01*
X302250Y71757D01*
X302593Y71358D01*
X302797Y71148D01*
X302443Y70087D01*
X302307Y70216D01*
X302184Y70317D01*
X302076Y70389D01*
X301983Y70432D01*
X301904Y70446D01*
X301839Y70432D01*
X301789Y70389D01*
X301753Y70317D01*
X301731Y70216D01*
X301724Y70087D01*
Y72915D01*
X301735Y72773D01*
D02*
G37*
G36*
X169984Y69553D02*
X169978Y69523D01*
X169972Y69473D01*
X169963Y69313D01*
X169953Y68563D01*
X168953D01*
X168914Y69563D01*
X169992D01*
X169984Y69553D01*
D02*
G37*
G36*
X267955Y207503D02*
X267985Y207456D01*
X268035Y207415D01*
X268105Y207379D01*
X268195Y207348D01*
X268305Y207324D01*
X268435Y207304D01*
X268585Y207291D01*
X268945Y207279D01*
Y206279D01*
X268755Y206277D01*
X268435Y206255D01*
X268305Y206236D01*
X268195Y206211D01*
X268105Y206180D01*
X268035Y206145D01*
X267985Y206103D01*
X267955Y206056D01*
X267945Y206004D01*
Y207555D01*
X267955Y207503D01*
D02*
G37*
G36*
X273571Y205780D02*
X273561Y205874D01*
X273531Y205960D01*
X273480Y206034D01*
X273409Y206100D01*
X273318Y206154D01*
X273207Y206200D01*
X273075Y206235D01*
X272924Y206259D01*
X272751Y206275D01*
X272559Y206279D01*
Y207279D01*
X272751Y207284D01*
X272924Y207299D01*
X273075Y207325D01*
X273207Y207360D01*
X273318Y207404D01*
X273409Y207459D01*
X273480Y207524D01*
X273531Y207599D01*
X273561Y207684D01*
X273571Y207780D01*
Y205780D01*
D02*
G37*
G36*
X355439Y208468D02*
X355469Y208383D01*
X355520Y208308D01*
X355591Y208243D01*
X355682Y208188D01*
X355793Y208143D01*
X355925Y208108D01*
X356076Y208083D01*
X356248Y208068D01*
X356441Y208063D01*
Y207063D01*
X356248Y207058D01*
X356076Y207043D01*
X355925Y207018D01*
X355793Y206983D01*
X355682Y206938D01*
X355591Y206883D01*
X355520Y206818D01*
X355469Y206743D01*
X355439Y206658D01*
X355429Y206563D01*
Y208563D01*
X355439Y208468D01*
D02*
G37*
G36*
X349571Y206563D02*
X349561Y206658D01*
X349531Y206743D01*
X349480Y206818D01*
X349409Y206883D01*
X349318Y206938D01*
X349207Y206983D01*
X349075Y207018D01*
X348924Y207043D01*
X348751Y207058D01*
X348559Y207063D01*
Y208063D01*
X348751Y208068D01*
X348924Y208083D01*
X349075Y208108D01*
X349207Y208143D01*
X349318Y208188D01*
X349409Y208243D01*
X349480Y208308D01*
X349531Y208383D01*
X349561Y208468D01*
X349571Y208563D01*
Y206563D01*
D02*
G37*
G36*
X186331Y205500D02*
X186321Y205595D01*
X186291Y205680D01*
X186240Y205755D01*
X186169Y205820D01*
X186078Y205875D01*
X185967Y205920D01*
X185835Y205955D01*
X185683Y205980D01*
X185511Y205995D01*
X185319Y206000D01*
Y207000D01*
X185511Y207005D01*
X185683Y207020D01*
X185835Y207045D01*
X185967Y207080D01*
X186078Y207125D01*
X186169Y207180D01*
X186240Y207245D01*
X186291Y207320D01*
X186321Y207405D01*
X186331Y207500D01*
Y205500D01*
D02*
G37*
G36*
X197448Y203561D02*
X197363Y203531D01*
X197288Y203480D01*
X197223Y203409D01*
X197168Y203318D01*
X197123Y203207D01*
X197088Y203075D01*
X197063Y202924D01*
X197048Y202751D01*
X197043Y202559D01*
X196043D01*
X196038Y202751D01*
X196023Y202924D01*
X195998Y203075D01*
X195963Y203207D01*
X195918Y203318D01*
X195863Y203409D01*
X195798Y203480D01*
X195723Y203531D01*
X195638Y203561D01*
X195543Y203571D01*
X197543D01*
X197448Y203561D01*
D02*
G37*
G36*
X114663Y210320D02*
X115181Y209938D01*
X115746Y209601D01*
X116358Y209309D01*
X117016Y209062D01*
X117720Y208860D01*
X118471Y208702D01*
X119268Y208590D01*
X120112Y208523D01*
X121002Y208500D01*
X113502Y201151D01*
X113496Y202036D01*
X113444Y202875D01*
X113345Y203668D01*
X113198Y204416D01*
X113005Y205118D01*
X112765Y205775D01*
X112477Y206386D01*
X112142Y206952D01*
X111761Y207473D01*
X111332Y207948D01*
X114190Y210746D01*
X114663Y210320D01*
D02*
G37*
G36*
X267955Y204943D02*
X267985Y204897D01*
X268035Y204855D01*
X268105Y204820D01*
X268195Y204789D01*
X268305Y204765D01*
X268435Y204745D01*
X268585Y204731D01*
X268945Y204720D01*
Y203720D01*
X268755Y203718D01*
X268435Y203696D01*
X268305Y203676D01*
X268195Y203652D01*
X268105Y203621D01*
X268035Y203586D01*
X267985Y203544D01*
X267955Y203497D01*
X267945Y203445D01*
Y204996D01*
X267955Y204943D01*
D02*
G37*
G36*
X240398Y204962D02*
X240434Y204933D01*
X240494Y204906D01*
X240578Y204884D01*
X240686Y204864D01*
X240818Y204849D01*
X241154Y204827D01*
X241586Y204820D01*
Y203621D01*
X241358Y203619D01*
X240686Y203577D01*
X240578Y203557D01*
X240494Y203535D01*
X240434Y203508D01*
X240398Y203478D01*
X240386Y203445D01*
Y204996D01*
X240398Y204962D01*
D02*
G37*
G36*
X253468Y217561D02*
X253383Y217531D01*
X253308Y217480D01*
X253243Y217409D01*
X253188Y217318D01*
X253143Y217207D01*
X253108Y217075D01*
X253083Y216924D01*
X253068Y216752D01*
X253063Y216559D01*
X252063D01*
X252058Y216752D01*
X252043Y216924D01*
X252018Y217075D01*
X251983Y217207D01*
X251938Y217318D01*
X251883Y217409D01*
X251818Y217480D01*
X251743Y217531D01*
X251658Y217561D01*
X251563Y217571D01*
X253563D01*
X253468Y217561D01*
D02*
G37*
G36*
X306236Y236554D02*
X306053Y236112D01*
X305898Y234937D01*
Y216161D01*
X305398Y215991D01*
X305059Y216433D01*
X305059Y216433D01*
X303996Y217496D01*
X303265Y218057D01*
X302414Y218410D01*
X301500Y218530D01*
X296390D01*
X296306Y218564D01*
X296251Y218591D01*
X295515Y219034D01*
X295274Y219198D01*
X295245Y219225D01*
X295195Y219461D01*
X295258Y219815D01*
X296065Y220435D01*
X296979Y221625D01*
X297553Y223012D01*
X297749Y224500D01*
X297553Y225988D01*
X296979Y227375D01*
X296269Y228300D01*
X296515Y228800D01*
X297700D01*
Y231470D01*
X301000D01*
X301914Y231590D01*
X302765Y231943D01*
X303496Y232504D01*
X304057Y233235D01*
X304410Y234086D01*
X304530Y235000D01*
Y236970D01*
X305958D01*
X306236Y236554D01*
D02*
G37*
G36*
X249819Y219500D02*
X249809Y219595D01*
X249779Y219680D01*
X249729Y219755D01*
X249659Y219820D01*
X249569Y219875D01*
X249459Y219920D01*
X249329Y219955D01*
X249179Y219980D01*
X249009Y219995D01*
X248819Y220000D01*
Y221000D01*
X249009Y221005D01*
X249179Y221020D01*
X249329Y221045D01*
X249459Y221080D01*
X249569Y221125D01*
X249659Y221180D01*
X249729Y221245D01*
X249779Y221320D01*
X249809Y221405D01*
X249819Y221500D01*
Y219500D01*
D02*
G37*
G36*
X353005Y218989D02*
X353020Y218817D01*
X353045Y218665D01*
X353080Y218533D01*
X353125Y218422D01*
X353180Y218331D01*
X353245Y218260D01*
X353320Y218209D01*
X353405Y218179D01*
X353500Y218169D01*
X351500D01*
X351595Y218179D01*
X351680Y218209D01*
X351755Y218260D01*
X351820Y218331D01*
X351875Y218422D01*
X351920Y218533D01*
X351955Y218665D01*
X351980Y218817D01*
X351995Y218989D01*
X352000Y219181D01*
X353000D01*
X353005Y218989D01*
D02*
G37*
G36*
X293884Y216484D02*
X294794Y215937D01*
X295061Y215804D01*
X295542Y215609D01*
X295755Y215549D01*
X295951Y215512D01*
X296128Y215500D01*
X296320Y214500D01*
X296106Y214485D01*
X295894Y214440D01*
X295683Y214365D01*
X295473Y214260D01*
X295265Y214125D01*
X295058Y213960D01*
X294853Y213765D01*
X294649Y213540D01*
X294446Y213285D01*
X294245Y213000D01*
X293545Y216714D01*
X293884Y216484D01*
D02*
G37*
G36*
X259646Y210687D02*
X259787Y210566D01*
X259928Y210460D01*
X260070Y210368D01*
X260211Y210291D01*
X260353Y210227D01*
X260494Y210178D01*
X260635Y210142D01*
X260777Y210121D01*
X260918Y210114D01*
X258090D01*
X258217Y210121D01*
X258316Y210142D01*
X258387Y210178D01*
X258429Y210227D01*
X258443Y210291D01*
X258429Y210368D01*
X258387Y210460D01*
X258316Y210566D01*
X258217Y210687D01*
X258090Y210821D01*
X259504D01*
X259646Y210687D01*
D02*
G37*
G36*
X360571Y206563D02*
X360561Y206658D01*
X360531Y206743D01*
X360480Y206818D01*
X360409Y206883D01*
X360318Y206938D01*
X360207Y206983D01*
X360075Y207018D01*
X359924Y207043D01*
X359752Y207058D01*
X359559Y207063D01*
Y208063D01*
X359752Y208068D01*
X359924Y208083D01*
X360075Y208108D01*
X360207Y208143D01*
X360318Y208188D01*
X360409Y208243D01*
X360480Y208308D01*
X360531Y208383D01*
X360561Y208468D01*
X360571Y208563D01*
Y206563D01*
D02*
G37*
G36*
X172242Y214858D02*
X172272Y214773D01*
X172323Y214698D01*
X172394Y214633D01*
X172485Y214578D01*
X172596Y214533D01*
X172728Y214498D01*
X172880Y214473D01*
X173052Y214458D01*
X173244Y214453D01*
Y213453D01*
X173052Y213448D01*
X172880Y213433D01*
X172728Y213408D01*
X172596Y213373D01*
X172485Y213328D01*
X172394Y213273D01*
X172323Y213208D01*
X172272Y213133D01*
X172242Y213048D01*
X172232Y212953D01*
Y214953D01*
X172242Y214858D01*
D02*
G37*
G36*
X200853Y214435D02*
X201000Y212875D01*
X200856Y213009D01*
X200705Y213129D01*
X200549Y213235D01*
X200387Y213327D01*
X200220Y213405D01*
X200046Y213469D01*
X199866Y213518D01*
X199681Y213554D01*
X199490Y213575D01*
X199293Y213582D01*
X198663Y214582D01*
X198776Y214589D01*
X198862Y214610D01*
X198921Y214645D01*
X198953Y214695D01*
X198959Y214758D01*
X198938Y214836D01*
X198890Y214928D01*
X198815Y215034D01*
X198714Y215155D01*
X198586Y215289D01*
X200853Y214435D01*
D02*
G37*
G36*
X316181Y190047D02*
X315611Y190032D01*
X315101Y189987D01*
X314651Y189912D01*
X314261Y189807D01*
X313931Y189672D01*
X313661Y189507D01*
X313451Y189312D01*
X313301Y189087D01*
X313211Y188832D01*
X313181Y188547D01*
Y191941D01*
X313211Y192151D01*
X313301Y192339D01*
X313451Y192505D01*
X313661Y192649D01*
X313931Y192771D01*
X314261Y192870D01*
X314651Y192948D01*
X315101Y193003D01*
X315611Y193036D01*
X316181Y193047D01*
Y190047D01*
D02*
G37*
G36*
X299831Y188000D02*
X299821Y188095D01*
X299791Y188180D01*
X299740Y188255D01*
X299669Y188320D01*
X299578Y188375D01*
X299467Y188420D01*
X299335Y188455D01*
X299183Y188480D01*
X299011Y188495D01*
X298819Y188500D01*
Y189500D01*
X299011Y189505D01*
X299183Y189520D01*
X299335Y189545D01*
X299467Y189580D01*
X299578Y189625D01*
X299669Y189680D01*
X299740Y189745D01*
X299791Y189820D01*
X299821Y189905D01*
X299831Y190000D01*
Y188000D01*
D02*
G37*
G36*
X329774Y193905D02*
X329864Y193725D01*
X330014Y193566D01*
X330224Y193428D01*
X330494Y193312D01*
X330824Y193217D01*
X331214Y193143D01*
X331664Y193090D01*
X332174Y193058D01*
X332744Y193047D01*
Y190047D01*
X332174Y190045D01*
X329864Y189889D01*
X329774Y189847D01*
X329744Y189799D01*
Y194106D01*
X329774Y193905D01*
D02*
G37*
G36*
X324256Y189799D02*
X324226Y189847D01*
X324136Y189889D01*
X323986Y189926D01*
X323776Y189958D01*
X323176Y190008D01*
X321826Y190045D01*
X321256Y190047D01*
Y193047D01*
X321826Y193058D01*
X322786Y193143D01*
X323176Y193217D01*
X323506Y193312D01*
X323776Y193428D01*
X323986Y193566D01*
X324136Y193725D01*
X324226Y193905D01*
X324256Y194106D01*
Y189799D01*
D02*
G37*
G36*
X206798Y202791D02*
X206798Y202791D01*
X207529Y202230D01*
X208381Y201877D01*
X209294Y201757D01*
X211798D01*
X216024Y197530D01*
X215521Y196875D01*
X214947Y195488D01*
X214751Y194000D01*
X214947Y192512D01*
X215521Y191125D01*
X216435Y189935D01*
X217242Y189315D01*
Y188685D01*
X216435Y188065D01*
X216347Y187951D01*
X216040Y187661D01*
X215930Y187571D01*
X215875Y187530D01*
X210530D01*
Y190000D01*
X210410Y190914D01*
X210057Y191765D01*
X209496Y192496D01*
X201907Y200085D01*
X202098Y200547D01*
X202693D01*
Y206243D01*
X203155Y206434D01*
X206798Y202791D01*
D02*
G37*
G36*
X336461Y176611D02*
X335961Y176537D01*
X335891Y176769D01*
X335102Y178245D01*
X334039Y179540D01*
X332745Y180602D01*
X331269Y181391D01*
X329666Y181877D01*
X328500Y181992D01*
Y173500D01*
Y165008D01*
X329666Y165123D01*
X331269Y165609D01*
X332745Y166398D01*
X334039Y167461D01*
X335102Y168755D01*
X335891Y170231D01*
X335961Y170463D01*
X336461Y170389D01*
Y147880D01*
X333179Y144598D01*
X333102Y144531D01*
X332911Y144403D01*
X332659Y144275D01*
X332332Y144152D01*
X331923Y144043D01*
X331427Y143956D01*
X330890Y143904D01*
X329382Y143906D01*
X328527Y143975D01*
X328344Y143966D01*
X327500Y144033D01*
X325852Y143903D01*
X324245Y143517D01*
X322718Y142885D01*
X321309Y142021D01*
X320052Y140948D01*
X318979Y139691D01*
X318115Y138282D01*
X317483Y136755D01*
X317097Y135148D01*
X316968Y133500D01*
X317097Y131852D01*
X317483Y130245D01*
X317758Y129581D01*
X317334Y129298D01*
X313046Y133586D01*
X313047Y133602D01*
X313099Y133942D01*
X313190Y134299D01*
X313325Y134679D01*
X313511Y135084D01*
X313754Y135517D01*
X314058Y135975D01*
X314427Y136457D01*
X314864Y136961D01*
X315385Y137499D01*
X315448Y137552D01*
X316521Y138809D01*
X317385Y140218D01*
X318017Y141745D01*
X318403Y143352D01*
X318532Y145000D01*
X318403Y146648D01*
X318017Y148255D01*
X317385Y149782D01*
X316521Y151191D01*
X315448Y152448D01*
X314191Y153521D01*
X312782Y154385D01*
X311255Y155017D01*
X309648Y155403D01*
X308000Y155533D01*
X306352Y155403D01*
X304745Y155017D01*
X303218Y154385D01*
X301809Y153521D01*
X300552Y152448D01*
X299479Y151191D01*
X298616Y149782D01*
X297983Y148255D01*
X297597Y146648D01*
X297467Y145000D01*
X297597Y143352D01*
X297983Y141745D01*
X298616Y140218D01*
X299479Y138809D01*
X300552Y137552D01*
X300615Y137499D01*
X301136Y136961D01*
X301573Y136457D01*
X301942Y135975D01*
X302246Y135517D01*
X302489Y135084D01*
X302675Y134679D01*
X302810Y134299D01*
X302901Y133942D01*
X302953Y133602D01*
X302957Y133533D01*
Y131500D01*
X303129Y130195D01*
X303632Y128978D01*
X304434Y127934D01*
X329434Y102934D01*
X330150Y102385D01*
X329980Y101885D01*
X312276D01*
X311362Y101765D01*
X310510Y101412D01*
X309779Y100851D01*
X309218Y100120D01*
X308866Y99268D01*
X308745Y98355D01*
Y88832D01*
X308389Y88519D01*
X306095D01*
X305630Y88458D01*
X304748D01*
Y93433D01*
X295815D01*
Y96941D01*
X295643Y98247D01*
X295618Y98306D01*
Y99638D01*
X295632Y99744D01*
X295624Y99802D01*
X295630Y99860D01*
X295618Y100164D01*
Y102756D01*
X295519D01*
X295496Y103352D01*
Y106047D01*
X295324Y107352D01*
X294820Y108569D01*
X294019Y109613D01*
X267086Y136547D01*
X267313Y137027D01*
X267500Y137008D01*
Y145000D01*
X259508D01*
X259623Y143834D01*
X260109Y142231D01*
X260898Y140755D01*
X261961Y139461D01*
X262469Y139043D01*
X262290Y138543D01*
X252322D01*
X252322Y138543D01*
X251017Y138371D01*
X249801Y137867D01*
X248756Y137066D01*
X235833Y124143D01*
X210126D01*
X209222Y124626D01*
X208100Y124967D01*
X206933Y125082D01*
X205766Y124967D01*
X204644Y124626D01*
X203610Y124074D01*
X202703Y123330D01*
X201960Y122423D01*
X201407Y121389D01*
X201066Y120267D01*
X200952Y119100D01*
X200984Y118772D01*
X200957Y118567D01*
Y109500D01*
X167500D01*
X166195Y109328D01*
X164978Y108824D01*
X163934Y108023D01*
X163133Y106978D01*
X162629Y105762D01*
X162457Y104457D01*
Y102713D01*
X155831D01*
Y100713D01*
X155590D01*
Y96957D01*
Y93201D01*
X155831D01*
Y91201D01*
X155930D01*
X155953Y90605D01*
Y88858D01*
X156125Y87553D01*
X156400Y86889D01*
X156122Y86474D01*
X155051D01*
Y83454D01*
X158027D01*
Y83102D01*
X158224D01*
Y82454D01*
X155051D01*
Y81485D01*
X158224D01*
Y80484D01*
X155051D01*
Y79515D01*
X158224D01*
Y78515D01*
X155051D01*
Y77547D01*
X158224D01*
Y76898D01*
X158027D01*
Y76547D01*
X155051D01*
Y73526D01*
X158028D01*
Y71573D01*
X157580Y71063D01*
X153517Y67000D01*
X152693Y66282D01*
X152358Y66028D01*
X152050Y65820D01*
X151806Y65679D01*
X151636Y65598D01*
X151566Y65573D01*
X151447Y65563D01*
X151429Y65559D01*
X142382D01*
Y60567D01*
X142307Y60000D01*
Y46150D01*
X142479Y44844D01*
X142983Y43628D01*
X143784Y42584D01*
X150434Y35934D01*
X151478Y35133D01*
X152695Y34629D01*
X154000Y34457D01*
X263000D01*
X264305Y34629D01*
X265522Y35133D01*
X266566Y35934D01*
X267368Y36978D01*
X267871Y38195D01*
X268043Y39500D01*
Y98000D01*
X267871Y99305D01*
X267368Y100522D01*
X266566Y101566D01*
X265522Y102367D01*
X264305Y102871D01*
X263000Y103043D01*
X262543D01*
Y109533D01*
X262547Y109602D01*
X262599Y109942D01*
X262690Y110299D01*
X262825Y110679D01*
X263011Y111084D01*
X263254Y111517D01*
X263558Y111975D01*
X263927Y112457D01*
X264364Y112961D01*
X264885Y113499D01*
X264948Y113552D01*
X266021Y114809D01*
X266884Y116218D01*
X267517Y117745D01*
X267903Y119352D01*
X268005Y120655D01*
X268522Y120846D01*
X285410Y103958D01*
Y102756D01*
X285287D01*
Y100756D01*
X285047D01*
Y97000D01*
Y93244D01*
X285287D01*
Y91244D01*
X285720D01*
X285729Y91117D01*
Y88843D01*
X285900Y87538D01*
X286175Y86874D01*
X285897Y86458D01*
X284827D01*
Y83438D01*
X287803D01*
Y83087D01*
X288000D01*
Y82438D01*
X284827D01*
Y81469D01*
X288000D01*
Y80469D01*
X284827D01*
Y79500D01*
X288000D01*
Y78500D01*
X284827D01*
Y77531D01*
X288000D01*
Y76882D01*
X287803D01*
Y76531D01*
X284827D01*
Y73511D01*
X287803D01*
Y71557D01*
X287356Y71047D01*
X283293Y66984D01*
X282469Y66267D01*
X282133Y66012D01*
X281826Y65805D01*
X281581Y65663D01*
X281412Y65582D01*
X281342Y65557D01*
X281223Y65547D01*
X281205Y65544D01*
X272158D01*
Y60552D01*
X272083Y59984D01*
Y46134D01*
X272255Y44829D01*
X272759Y43613D01*
X273560Y42568D01*
X280210Y35919D01*
X281254Y35117D01*
X282470Y34613D01*
X283776Y34441D01*
X392776D01*
X394081Y34613D01*
X395297Y35117D01*
X395970Y35633D01*
X396470Y35387D01*
Y3530D01*
X388973D01*
X388794Y4030D01*
X389715Y4786D01*
X390895Y6225D01*
X391773Y7866D01*
X392313Y9647D01*
X392496Y11500D01*
X392313Y13352D01*
X391773Y15134D01*
X390895Y16775D01*
X389715Y18214D01*
X388276Y19395D01*
X386634Y20273D01*
X384853Y20813D01*
X383000Y20996D01*
X381148Y20813D01*
X379366Y20273D01*
X377725Y19395D01*
X376286Y18214D01*
X375105Y16775D01*
X374227Y15134D01*
X373687Y13352D01*
X373504Y11500D01*
X373687Y9647D01*
X374227Y7866D01*
X375105Y6225D01*
X376286Y4786D01*
X377206Y4030D01*
X377027Y3530D01*
X292474D01*
Y12000D01*
X301473D01*
Y22999D01*
X211500D01*
Y14499D01*
X205500D01*
Y3530D01*
X155973D01*
X155794Y4030D01*
X156714Y4786D01*
X157895Y6225D01*
X158773Y7866D01*
X159313Y9647D01*
X159496Y11500D01*
X159313Y13352D01*
X158773Y15134D01*
X157895Y16775D01*
X156714Y18214D01*
X155275Y19395D01*
X153634Y20273D01*
X151853Y20813D01*
X150000Y20996D01*
X148147Y20813D01*
X146366Y20273D01*
X144725Y19395D01*
X143286Y18214D01*
X142105Y16775D01*
X141227Y15134D01*
X140687Y13352D01*
X140504Y11500D01*
X140687Y9647D01*
X141227Y7866D01*
X142105Y6225D01*
X143286Y4786D01*
X144206Y4030D01*
X144027Y3530D01*
X93104D01*
X92934Y4030D01*
X93102Y4159D01*
X100276Y11333D01*
X100837Y12064D01*
X101189Y12915D01*
X101310Y13829D01*
Y15100D01*
X102279D01*
Y29580D01*
X102279D01*
X102251Y29613D01*
X102305Y30025D01*
Y34457D01*
X134500D01*
X135805Y34629D01*
X137022Y35133D01*
X138066Y35934D01*
X138867Y36978D01*
X139371Y38195D01*
X139543Y39500D01*
Y110000D01*
Y132940D01*
X140043Y133110D01*
X140434Y132601D01*
X153438Y119597D01*
X154479Y118477D01*
X154913Y117934D01*
X155114Y117646D01*
Y116398D01*
X155112Y116384D01*
X155114Y116369D01*
Y113147D01*
X167020D01*
Y125053D01*
X163797D01*
X163783Y125055D01*
X163769Y125053D01*
X162521D01*
X162267Y125230D01*
X160978Y126321D01*
X160959Y126340D01*
X149043Y138256D01*
Y144977D01*
X149543Y145277D01*
X150193Y144930D01*
X150884Y144720D01*
X151054Y144651D01*
X152289Y144327D01*
X152499Y144260D01*
X152898Y144110D01*
X165004Y132004D01*
X165735Y131443D01*
X166586Y131090D01*
X167500Y130970D01*
X194563D01*
X195477Y131090D01*
X196328Y131443D01*
X196464Y131547D01*
X237953D01*
Y138460D01*
X246962Y147470D01*
X257500D01*
X258414Y147590D01*
X259265Y147943D01*
X259358Y148014D01*
X259789Y147715D01*
X259623Y147166D01*
X259508Y146000D01*
X267500D01*
Y153992D01*
X266334Y153877D01*
X265934Y153756D01*
X265677Y154185D01*
X274996Y163504D01*
X275557Y164235D01*
X275910Y165086D01*
X276030Y166000D01*
Y185470D01*
X296807D01*
Y183047D01*
X316193D01*
Y187008D01*
X321244D01*
Y186787D01*
X323244D01*
Y186547D01*
X330756D01*
Y186787D01*
X332756D01*
Y187008D01*
X336461D01*
Y176611D01*
D02*
G37*
G36*
X109800Y204970D02*
X109969Y204609D01*
X110121Y204195D01*
X110251Y203723D01*
X110355Y203189D01*
X110430Y202592D01*
X110471Y201933D01*
X110476Y201134D01*
X110477Y201123D01*
X110468Y201000D01*
X110597Y199352D01*
X110983Y197745D01*
X111616Y196218D01*
X112479Y194809D01*
X113552Y193552D01*
X114809Y192479D01*
X116218Y191615D01*
X117745Y190983D01*
X119352Y190597D01*
X121000Y190468D01*
X122648Y190597D01*
X124255Y190983D01*
X125782Y191615D01*
X127191Y192479D01*
X128448Y193552D01*
X128988Y194185D01*
X129457Y194012D01*
Y184752D01*
X129448Y184584D01*
X129399Y184305D01*
X129352Y184165D01*
X129346Y184154D01*
X129335Y184148D01*
X129195Y184101D01*
X128916Y184052D01*
X128748Y184043D01*
X102305D01*
Y189916D01*
X102279Y190113D01*
Y192581D01*
X102371Y192803D01*
X102543Y194108D01*
X102371Y195413D01*
X102279Y195635D01*
Y200116D01*
X96834D01*
X96727Y200130D01*
X96649Y200120D01*
X96571Y200126D01*
X96519Y200116D01*
X94551D01*
X94547Y200117D01*
X94524Y200116D01*
X94373D01*
X94267Y200130D01*
X94162Y200116D01*
X91834D01*
X91727Y200130D01*
X91649Y200120D01*
X91571Y200126D01*
X91519Y200116D01*
X89481D01*
X89429Y200126D01*
X89348Y200120D01*
X89267Y200130D01*
X89162Y200116D01*
X86834D01*
X86727Y200130D01*
X86649Y200120D01*
X86571Y200126D01*
X86519Y200116D01*
X84481D01*
X84429Y200126D01*
X84348Y200120D01*
X84267Y200130D01*
X84162Y200116D01*
X81834D01*
X81727Y200130D01*
X81649Y200120D01*
X81571Y200126D01*
X81519Y200116D01*
X78720D01*
Y199173D01*
X78455Y199151D01*
X77360D01*
X76055Y198979D01*
X74838Y198476D01*
X73794Y197674D01*
X67419Y191300D01*
X66267Y190175D01*
X64843Y188898D01*
X53500D01*
Y180798D01*
X55500D01*
Y179058D01*
Y177868D01*
X58900D01*
Y177368D01*
X59400D01*
Y175318D01*
X62300D01*
X62700Y175077D01*
Y173318D01*
X63933D01*
X63957Y173023D01*
Y169651D01*
X32892D01*
X26713Y175831D01*
Y176352D01*
X26953D01*
Y180108D01*
Y183864D01*
X26713D01*
Y185864D01*
X26613D01*
X26590Y186460D01*
Y190567D01*
X40540Y204516D01*
X41866Y205065D01*
X109743D01*
X109800Y204970D01*
D02*
G37*
G36*
X242869Y187577D02*
X242407Y187385D01*
X236296Y193496D01*
X236251Y193531D01*
Y197874D01*
X242869D01*
Y187577D01*
D02*
G37*
G36*
X345500Y190047D02*
X344930Y190017D01*
X344420Y189927D01*
X343970Y189777D01*
X343580Y189567D01*
X343250Y189297D01*
X342980Y188967D01*
X342770Y188577D01*
X342620Y188127D01*
X342530Y187617D01*
X342500Y187047D01*
X339500D01*
X339470Y187617D01*
X339380Y188127D01*
X339230Y188577D01*
X339020Y188967D01*
X338750Y189297D01*
X338420Y189567D01*
X338030Y189777D01*
X337580Y189927D01*
X337070Y190017D01*
X336500Y190047D01*
X341000Y193047D01*
X345500Y190047D01*
D02*
G37*
G36*
X366439Y200405D02*
X366469Y200320D01*
X366520Y200245D01*
X366591Y200180D01*
X366682Y200125D01*
X366793Y200080D01*
X366925Y200045D01*
X367076Y200020D01*
X367249Y200005D01*
X367441Y200000D01*
Y199000D01*
X367249Y198995D01*
X367076Y198980D01*
X366925Y198955D01*
X366793Y198920D01*
X366682Y198875D01*
X366591Y198820D01*
X366520Y198755D01*
X366469Y198680D01*
X366439Y198595D01*
X366429Y198500D01*
Y200500D01*
X366439Y200405D01*
D02*
G37*
G36*
X273571Y197000D02*
X273561Y197095D01*
X273531Y197180D01*
X273480Y197255D01*
X273409Y197320D01*
X273318Y197375D01*
X273207Y197420D01*
X273075Y197455D01*
X272924Y197480D01*
X272751Y197495D01*
X272559Y197500D01*
Y198500D01*
X272751Y198505D01*
X272924Y198520D01*
X273075Y198545D01*
X273207Y198580D01*
X273318Y198625D01*
X273409Y198680D01*
X273480Y198745D01*
X273531Y198820D01*
X273561Y198905D01*
X273571Y199000D01*
Y197000D01*
D02*
G37*
G36*
X233626Y200888D02*
X233541Y200857D01*
X233466Y200807D01*
X233401Y200736D01*
X233346Y200645D01*
X233300Y200534D01*
X233265Y200402D01*
X233241Y200250D01*
X233225Y200078D01*
X233221Y199886D01*
X232221D01*
X232215Y200078D01*
X232201Y200250D01*
X232175Y200402D01*
X232140Y200534D01*
X232096Y200645D01*
X232041Y200736D01*
X231976Y200807D01*
X231901Y200857D01*
X231816Y200888D01*
X231720Y200898D01*
X233720D01*
X233626Y200888D01*
D02*
G37*
G36*
X342970Y229038D02*
Y207500D01*
X343090Y206586D01*
X343443Y205735D01*
X344004Y205004D01*
X344735Y204443D01*
X345586Y204090D01*
X346500Y203970D01*
X346547Y203928D01*
Y201807D01*
X357547D01*
Y196086D01*
X332756D01*
Y197118D01*
X329849D01*
X329744Y197132D01*
X329638Y197118D01*
X324362D01*
X324256Y197132D01*
X324151Y197118D01*
X321244D01*
Y196086D01*
X314976D01*
Y230398D01*
X317982D01*
X318742Y229815D01*
Y229185D01*
X317935Y228565D01*
X317021Y227375D01*
X316447Y225988D01*
X316251Y224500D01*
X316447Y223012D01*
X317021Y221625D01*
X317935Y220435D01*
X318742Y219815D01*
Y219185D01*
X317935Y218565D01*
X317021Y217375D01*
X316447Y215988D01*
X316251Y214500D01*
X316447Y213012D01*
X317021Y211625D01*
X317935Y210435D01*
X318742Y209815D01*
Y209185D01*
X317935Y208565D01*
X317021Y207375D01*
X316447Y205988D01*
X316251Y204500D01*
X316447Y203012D01*
X317021Y201625D01*
X317935Y200435D01*
X319125Y199521D01*
X320512Y198947D01*
X322000Y198751D01*
X323488Y198947D01*
X324875Y199521D01*
X326065Y200435D01*
X326979Y201625D01*
X327553Y203012D01*
X327749Y204500D01*
X327553Y205988D01*
X326979Y207375D01*
X326065Y208565D01*
X325258Y209185D01*
Y209815D01*
X326065Y210435D01*
X326979Y211625D01*
X327553Y213012D01*
X327749Y214500D01*
X327553Y215988D01*
X326979Y217375D01*
X326065Y218565D01*
X325258Y219185D01*
Y219815D01*
X326065Y220435D01*
X326979Y221625D01*
X327553Y223012D01*
X327749Y224500D01*
X327553Y225988D01*
X326979Y227375D01*
X326065Y228565D01*
X325258Y229185D01*
Y229815D01*
X326065Y230435D01*
X326979Y231625D01*
X327553Y233012D01*
X327749Y234500D01*
X327553Y235988D01*
X327236Y236754D01*
X327514Y237170D01*
X334838D01*
X342970Y229038D01*
D02*
G37*
G36*
X96734Y196134D02*
X97500Y196108D01*
Y192108D01*
X96886Y192096D01*
X96741Y192082D01*
X96745Y190108D01*
X96704Y190488D01*
X96583Y190828D01*
X96382Y191128D01*
X96101Y191388D01*
X95740Y191608D01*
X95298Y191788D01*
X95158Y191826D01*
X95076Y191800D01*
X94785Y191665D01*
X94558Y191504D01*
X94397Y191319D01*
X94300Y191110D01*
X94267Y190876D01*
Y192013D01*
X94176Y192028D01*
X93494Y192088D01*
X93000Y192101D01*
X92507Y192088D01*
X91827Y192028D01*
X91741Y192014D01*
X91745Y190108D01*
X91704Y190488D01*
X91583Y190828D01*
X91382Y191128D01*
X91101Y191388D01*
X90740Y191608D01*
X90503Y191705D01*
X90267Y191608D01*
X89907Y191388D01*
X89627Y191128D01*
X89428Y190828D01*
X89307Y190488D01*
X89267Y190108D01*
Y192013D01*
X89176Y192028D01*
X88494Y192088D01*
X88000Y192101D01*
X87507Y192088D01*
X86827Y192028D01*
X86741Y192014D01*
X86744Y190108D01*
X86704Y190488D01*
X86583Y190828D01*
X86382Y191128D01*
X86101Y191388D01*
X85740Y191608D01*
X85503Y191705D01*
X85268Y191608D01*
X84908Y191388D01*
X84627Y191128D01*
X84427Y190828D01*
X84307Y190488D01*
X84267Y190108D01*
Y192013D01*
X84176Y192028D01*
X83494Y192088D01*
X82732Y192108D01*
Y196108D01*
X83492Y196118D01*
X84267Y196183D01*
Y197104D01*
X84307Y196915D01*
X84427Y196746D01*
X84627Y196596D01*
X84908Y196467D01*
X85268Y196357D01*
X85500Y196310D01*
X85733Y196357D01*
X86093Y196467D01*
X86373Y196596D01*
X86572Y196746D01*
X86693Y196915D01*
X86733Y197104D01*
X86734Y196166D01*
X87507Y196118D01*
X88000Y196112D01*
X88493Y196118D01*
X89267Y196183D01*
Y197104D01*
X89307Y196915D01*
X89428Y196746D01*
X89627Y196596D01*
X89907Y196467D01*
X90267Y196357D01*
X90500Y196310D01*
X90733Y196357D01*
X91092Y196467D01*
X91373Y196596D01*
X91572Y196746D01*
X91693Y196915D01*
X91733Y197104D01*
X91734Y196166D01*
X92507Y196118D01*
X93000Y196112D01*
X93493Y196118D01*
X94267Y196183D01*
Y197104D01*
X94300Y196915D01*
X94397Y196746D01*
X94558Y196596D01*
X94785Y196467D01*
X95076Y196357D01*
X95369Y196283D01*
X95732Y196357D01*
X96092Y196467D01*
X96372Y196596D01*
X96573Y196746D01*
X96693Y196915D01*
X96732Y197104D01*
X96734Y196134D01*
D02*
G37*
G36*
X303068Y192748D02*
X303083Y192576D01*
X303108Y192425D01*
X303143Y192293D01*
X303188Y192182D01*
X303243Y192091D01*
X303308Y192020D01*
X303383Y191969D01*
X303468Y191939D01*
X303563Y191929D01*
X301563D01*
X301658Y191939D01*
X301743Y191969D01*
X301818Y192020D01*
X301883Y192091D01*
X301938Y192182D01*
X301983Y192293D01*
X302018Y192425D01*
X302043Y192576D01*
X302058Y192748D01*
X302063Y192941D01*
X303063D01*
X303068Y192748D01*
D02*
G37*
G36*
X81744Y190108D02*
X81704Y190488D01*
X81583Y190828D01*
X81382Y191128D01*
X81101Y191388D01*
X80740Y191608D01*
X80299Y191788D01*
X79777Y191928D01*
X79176Y192028D01*
X78494Y192088D01*
X77732Y192108D01*
Y196108D01*
X78492Y196118D01*
X80292Y196267D01*
X80733Y196357D01*
X81093Y196467D01*
X81372Y196596D01*
X81573Y196746D01*
X81692Y196915D01*
X81732Y197104D01*
X81744Y190108D01*
D02*
G37*
G36*
X297318Y240526D02*
X297208Y240200D01*
X286300D01*
Y228800D01*
X287485D01*
X287731Y228300D01*
X287021Y227375D01*
X286447Y225988D01*
X286251Y224500D01*
X286447Y223012D01*
X287021Y221625D01*
X287935Y220435D01*
X288742Y219815D01*
Y219185D01*
X287935Y218565D01*
X287021Y217375D01*
X286447Y215988D01*
X286251Y214500D01*
X286447Y213012D01*
X287021Y211625D01*
X287935Y210435D01*
X289125Y209521D01*
X290512Y208947D01*
X292000Y208751D01*
X293488Y208947D01*
X294875Y209521D01*
X296065Y210435D01*
X296585Y211111D01*
X296717Y211255D01*
X296869Y211470D01*
X296869Y211470D01*
X299033D01*
Y194953D01*
X296807D01*
Y192530D01*
X282838D01*
X282453Y192807D01*
Y200681D01*
Y212193D01*
X270957D01*
Y213126D01*
X261485D01*
X259114Y215496D01*
X258699Y215815D01*
X258638Y216461D01*
X258715Y216547D01*
X259937D01*
Y220500D01*
Y224453D01*
X258319D01*
Y226453D01*
X246807D01*
Y224030D01*
X221962D01*
X205498Y240495D01*
X205689Y240957D01*
X296987D01*
X297318Y240526D01*
D02*
G37*
G36*
X311949Y194371D02*
X312049Y193411D01*
X312136Y193021D01*
X312248Y192691D01*
X312385Y192421D01*
X312546Y192211D01*
X312733Y192061D01*
X312945Y191971D01*
X313181Y191941D01*
X307693D01*
X307929Y191971D01*
X308141Y192061D01*
X308328Y192211D01*
X308489Y192421D01*
X308626Y192691D01*
X308738Y193021D01*
X308825Y193411D01*
X308887Y193861D01*
X308925Y194371D01*
X308937Y194941D01*
X311937D01*
X311949Y194371D01*
D02*
G37*
G36*
X70486Y253405D02*
X70517Y253320D01*
X70567Y253245D01*
X70638Y253180D01*
X70729Y253125D01*
X70840Y253080D01*
X70972Y253045D01*
X71124Y253020D01*
X71296Y253005D01*
X71488Y253000D01*
Y252000D01*
X71296Y251995D01*
X71124Y251980D01*
X70972Y251955D01*
X70840Y251920D01*
X70729Y251875D01*
X70638Y251820D01*
X70567Y251755D01*
X70517Y251680D01*
X70486Y251595D01*
X70476Y251500D01*
Y253500D01*
X70486Y253405D01*
D02*
G37*
G36*
X351579Y254126D02*
X350956Y253422D01*
X350702Y253093D01*
X350487Y252779D01*
X350312Y252480D01*
X350175Y252196D01*
X350078Y251927D01*
X350020Y251674D01*
X350000Y251436D01*
X349000D01*
X348980Y251674D01*
X348922Y251927D01*
X348825Y252196D01*
X348688Y252480D01*
X348513Y252779D01*
X348298Y253093D01*
X348044Y253422D01*
X347421Y254126D01*
X347050Y254501D01*
X351950D01*
X351579Y254126D01*
D02*
G37*
G36*
X73381Y258692D02*
X72831Y258137D01*
X70748Y255767D01*
X70604Y255533D01*
X70517Y255345D01*
X70488Y255202D01*
X65712Y257278D01*
X65868Y257321D01*
X66097Y257448D01*
X66399Y257660D01*
X66773Y257957D01*
X68335Y259357D01*
X70552Y261521D01*
X73381Y258692D01*
D02*
G37*
G36*
X23701Y254244D02*
X19394D01*
X19423Y254284D01*
X19449Y254404D01*
X19472Y254604D01*
X19509Y255244D01*
X19547Y258244D01*
X23547D01*
X23701Y254244D01*
D02*
G37*
G36*
X139328Y256000D02*
X138791Y255423D01*
X138310Y254822D01*
X137886Y254198D01*
X137518Y253550D01*
X137207Y252879D01*
X136952Y252184D01*
X136755Y251466D01*
X136613Y250725D01*
X136528Y249960D01*
X136500Y249172D01*
X132500Y248000D01*
X132460Y248760D01*
X132340Y249440D01*
X132140Y250040D01*
X131860Y250560D01*
X131500Y251000D01*
X131060Y251360D01*
X130540Y251640D01*
X129940Y251840D01*
X129260Y251960D01*
X128500Y252000D01*
X129672Y256000D01*
X130460Y256028D01*
X131225Y256113D01*
X131966Y256255D01*
X132684Y256453D01*
X133379Y256707D01*
X134050Y257018D01*
X134697Y257386D01*
X135322Y257810D01*
X135923Y258291D01*
X136500Y258828D01*
X139328Y256000D01*
D02*
G37*
G36*
X181071Y244953D02*
X181061Y245048D01*
X181031Y245133D01*
X180980Y245208D01*
X180909Y245273D01*
X180818Y245328D01*
X180707Y245373D01*
X180575Y245408D01*
X180424Y245433D01*
X180252Y245448D01*
X180059Y245453D01*
Y246453D01*
X180252Y246458D01*
X180424Y246473D01*
X180575Y246498D01*
X180707Y246533D01*
X180818Y246578D01*
X180909Y246633D01*
X180980Y246698D01*
X181031Y246773D01*
X181061Y246858D01*
X181071Y246953D01*
Y244953D01*
D02*
G37*
G36*
X167242Y246858D02*
X167272Y246773D01*
X167323Y246698D01*
X167394Y246633D01*
X167485Y246578D01*
X167596Y246533D01*
X167728Y246498D01*
X167880Y246473D01*
X168052Y246458D01*
X168244Y246453D01*
Y245453D01*
X168052Y245448D01*
X167880Y245433D01*
X167728Y245408D01*
X167596Y245373D01*
X167485Y245328D01*
X167394Y245273D01*
X167323Y245208D01*
X167272Y245133D01*
X167242Y245048D01*
X167232Y244953D01*
Y246953D01*
X167242Y246858D01*
D02*
G37*
G36*
X23671Y248721D02*
X23645Y248616D01*
X23622Y248441D01*
X23586Y247881D01*
X23547Y245256D01*
X19547D01*
X19394Y248756D01*
X23701D01*
X23671Y248721D01*
D02*
G37*
G36*
X186939Y246858D02*
X186969Y246773D01*
X187020Y246698D01*
X187091Y246633D01*
X187182Y246578D01*
X187293Y246533D01*
X187425Y246498D01*
X187576Y246473D01*
X187749Y246458D01*
X187941Y246453D01*
Y245453D01*
X187749Y245448D01*
X187576Y245433D01*
X187425Y245408D01*
X187293Y245373D01*
X187182Y245328D01*
X187091Y245273D01*
X187020Y245208D01*
X186969Y245133D01*
X186939Y245048D01*
X186929Y244953D01*
Y246953D01*
X186939Y246858D01*
D02*
G37*
G36*
X223507Y276500D02*
X223467Y276880D01*
X223346Y277220D01*
X223146Y277520D01*
X222865Y277780D01*
X222504Y278000D01*
X222062Y278180D01*
X221541Y278320D01*
X220939Y278420D01*
X220257Y278480D01*
X219495Y278500D01*
Y282500D01*
X220257Y282520D01*
X220939Y282580D01*
X221541Y282680D01*
X222062Y282820D01*
X222504Y283000D01*
X222865Y283220D01*
X223146Y283480D01*
X223346Y283780D01*
X223467Y284120D01*
X223507Y284500D01*
Y276500D01*
D02*
G37*
G36*
X113911Y282452D02*
X114418Y282049D01*
X114937Y281703D01*
X115466Y281416D01*
X116007Y281187D01*
X116559Y281016D01*
X117122Y280904D01*
X117696Y280850D01*
X118281Y280853D01*
X118877Y280915D01*
X112585Y274623D01*
X112647Y275219D01*
X112650Y275804D01*
X112596Y276378D01*
X112484Y276941D01*
X112313Y277493D01*
X112084Y278034D01*
X111796Y278563D01*
X111451Y279082D01*
X111048Y279589D01*
X110586Y280086D01*
X113414Y282914D01*
X113911Y282452D01*
D02*
G37*
G36*
X221516Y296021D02*
X221132Y295522D01*
X220629Y294305D01*
X220457Y293000D01*
Y285575D01*
X220093Y285543D01*
X161000D01*
X159695Y285371D01*
X158556Y284900D01*
X158354Y285037D01*
X158186Y285267D01*
X158773Y286366D01*
X159313Y288147D01*
X159496Y290000D01*
X159313Y291852D01*
X158773Y293634D01*
X157895Y295275D01*
X157286Y296018D01*
X157500Y296470D01*
X221295D01*
X221516Y296021D01*
D02*
G37*
G36*
X396470Y238959D02*
X396021Y238737D01*
X395769Y238931D01*
X394675Y239384D01*
X393500Y239539D01*
X382186D01*
X381012Y239384D01*
X379917Y238931D01*
X378977Y238209D01*
X374291Y233523D01*
X374193Y233396D01*
X373001Y233034D01*
X371871Y232431D01*
X370882Y231618D01*
X370069Y230629D01*
X369466Y229500D01*
X369094Y228274D01*
X368969Y227000D01*
X369094Y225726D01*
X369466Y224500D01*
X370069Y223371D01*
X370882Y222382D01*
X371871Y221569D01*
X373001Y220966D01*
X374226Y220594D01*
X375500Y220469D01*
X376774Y220594D01*
X377999Y220966D01*
X379129Y221569D01*
X380118Y222382D01*
X380250Y222542D01*
X380750D01*
X380882Y222382D01*
X380925Y222346D01*
X381211Y222057D01*
X381711Y221493D01*
X381848Y221315D01*
X381956Y221157D01*
X381970Y221133D01*
Y203030D01*
X369453D01*
Y205319D01*
Y213193D01*
X358453D01*
Y221193D01*
X356030D01*
Y239000D01*
X355910Y239914D01*
X355557Y240765D01*
X354996Y241496D01*
X353030Y243462D01*
Y251133D01*
X353045Y251157D01*
X353152Y251315D01*
X353289Y251493D01*
X353789Y252057D01*
X354075Y252345D01*
X354118Y252382D01*
X354931Y253371D01*
X355362Y254179D01*
X355955Y254227D01*
X356291Y253791D01*
X357231Y253069D01*
X358325Y252616D01*
X359000Y252527D01*
Y257000D01*
Y261473D01*
X358325Y261384D01*
X357231Y260931D01*
X356291Y260209D01*
X355955Y259772D01*
X355362Y259821D01*
X354931Y260629D01*
X354118Y261618D01*
X353129Y262431D01*
X351999Y263034D01*
X350774Y263406D01*
X349500Y263531D01*
X348226Y263406D01*
X347001Y263034D01*
X345871Y262431D01*
X344882Y261618D01*
X344069Y260629D01*
X343466Y259500D01*
X343094Y258274D01*
X342969Y257000D01*
X343094Y255726D01*
X343466Y254501D01*
X344069Y253371D01*
X344882Y252382D01*
X344925Y252346D01*
X345211Y252057D01*
X345711Y251493D01*
X345848Y251315D01*
X345955Y251157D01*
X345970Y251133D01*
Y242000D01*
X346090Y241086D01*
X346443Y240235D01*
X347004Y239504D01*
X348970Y237538D01*
Y233676D01*
X348508Y233485D01*
X338796Y243196D01*
X338065Y243757D01*
X337214Y244110D01*
X336300Y244230D01*
X322516D01*
X322324Y244692D01*
X331566Y253934D01*
X332367Y254978D01*
X332871Y256195D01*
X333043Y257500D01*
Y262642D01*
X333118Y263539D01*
X333173Y263887D01*
X333245Y264219D01*
X333326Y264501D01*
X333409Y264732D01*
X333492Y264914D01*
X333570Y265052D01*
X333724Y265275D01*
X333751Y265326D01*
X333868Y265478D01*
X333924Y265615D01*
X333940Y265639D01*
X333973Y265734D01*
X334028Y265866D01*
X334085Y265978D01*
X334098Y266034D01*
X334371Y266695D01*
X334543Y268000D01*
Y293000D01*
X334371Y294305D01*
X333868Y295522D01*
X333484Y296021D01*
X333705Y296470D01*
X377027D01*
X377206Y295970D01*
X376286Y295215D01*
X375105Y293776D01*
X374227Y292134D01*
X373687Y290353D01*
X373504Y288500D01*
X373687Y286648D01*
X374227Y284866D01*
X375105Y283225D01*
X376286Y281785D01*
X377725Y280605D01*
X379366Y279727D01*
X381148Y279187D01*
X383000Y279004D01*
X384853Y279187D01*
X386634Y279727D01*
X388276Y280605D01*
X389715Y281785D01*
X390895Y283225D01*
X391773Y284866D01*
X392313Y286648D01*
X392496Y288500D01*
X392313Y290353D01*
X391773Y292134D01*
X390895Y293776D01*
X389715Y295215D01*
X388794Y295970D01*
X388973Y296470D01*
X396470D01*
Y238959D01*
D02*
G37*
G36*
X96734Y267526D02*
X97500Y267500D01*
Y263500D01*
X96886Y263488D01*
X96741Y263474D01*
X96745Y261500D01*
X96704Y261880D01*
X96583Y262220D01*
X96382Y262520D01*
X96101Y262780D01*
X95740Y263000D01*
X95298Y263180D01*
X95158Y263218D01*
X95076Y263192D01*
X94785Y263056D01*
X94558Y262896D01*
X94397Y262711D01*
X94300Y262502D01*
X94267Y262267D01*
Y263405D01*
X94176Y263420D01*
X93494Y263480D01*
X93000Y263493D01*
X92507Y263480D01*
X91827Y263420D01*
X91741Y263406D01*
X91745Y261500D01*
X91704Y261880D01*
X91583Y262220D01*
X91382Y262520D01*
X91101Y262780D01*
X90740Y263000D01*
X90503Y263096D01*
X90267Y263000D01*
X89907Y262780D01*
X89627Y262520D01*
X89428Y262220D01*
X89307Y261880D01*
X89267Y261500D01*
Y263405D01*
X89176Y263420D01*
X88494Y263480D01*
X88000Y263493D01*
X87507Y263480D01*
X86827Y263420D01*
X86741Y263406D01*
X86744Y261500D01*
X86704Y261880D01*
X86583Y262220D01*
X86382Y262520D01*
X86101Y262780D01*
X85740Y263000D01*
X85503Y263096D01*
X85268Y263000D01*
X84908Y262780D01*
X84627Y262520D01*
X84427Y262220D01*
X84307Y261880D01*
X84267Y261500D01*
Y263405D01*
X84176Y263420D01*
X83494Y263480D01*
X82732Y263500D01*
Y267500D01*
X83492Y267510D01*
X84267Y267574D01*
Y268496D01*
X84307Y268307D01*
X84427Y268138D01*
X84627Y267988D01*
X84908Y267859D01*
X85268Y267749D01*
X85500Y267702D01*
X85733Y267749D01*
X86093Y267859D01*
X86373Y267988D01*
X86572Y268138D01*
X86693Y268307D01*
X86733Y268496D01*
X86734Y267558D01*
X87507Y267510D01*
X88000Y267503D01*
X88493Y267510D01*
X89267Y267574D01*
Y268496D01*
X89307Y268307D01*
X89428Y268138D01*
X89627Y267988D01*
X89907Y267859D01*
X90267Y267749D01*
X90500Y267702D01*
X90733Y267749D01*
X91092Y267859D01*
X91373Y267988D01*
X91572Y268138D01*
X91693Y268307D01*
X91733Y268496D01*
X91734Y267558D01*
X92507Y267510D01*
X93000Y267503D01*
X93493Y267510D01*
X94267Y267574D01*
Y268496D01*
X94300Y268307D01*
X94397Y268138D01*
X94558Y267988D01*
X94785Y267859D01*
X95076Y267749D01*
X95369Y267675D01*
X95732Y267749D01*
X96092Y267859D01*
X96372Y267988D01*
X96573Y268138D01*
X96693Y268307D01*
X96732Y268496D01*
X96734Y267526D01*
D02*
G37*
G36*
X331002Y266658D02*
X330791Y266284D01*
X330606Y265876D01*
X330445Y265434D01*
X330309Y264957D01*
X330198Y264447D01*
X330111Y263902D01*
X330012Y262709D01*
X330000Y262061D01*
X326000Y261995D01*
X325981Y262601D01*
X325923Y263175D01*
X325827Y263716D01*
X325693Y264224D01*
X325520Y264700D01*
X325310Y265142D01*
X325060Y265551D01*
X324773Y265928D01*
X324447Y266271D01*
X324082Y266582D01*
X331237Y266997D01*
X331002Y266658D01*
D02*
G37*
G36*
X81744Y261500D02*
X81704Y261880D01*
X81583Y262220D01*
X81382Y262520D01*
X81101Y262780D01*
X80740Y263000D01*
X80299Y263180D01*
X79777Y263320D01*
X79176Y263420D01*
X78494Y263480D01*
X77732Y263500D01*
Y267500D01*
X78492Y267510D01*
X80292Y267659D01*
X80733Y267749D01*
X81093Y267859D01*
X81372Y267988D01*
X81573Y268138D01*
X81692Y268307D01*
X81732Y268496D01*
X81744Y261500D01*
D02*
G37*
G36*
X142714Y296018D02*
X142105Y295275D01*
X141227Y293634D01*
X140687Y291852D01*
X140504Y290000D01*
X140687Y288147D01*
X141227Y286366D01*
X142105Y284724D01*
X143286Y283285D01*
X144725Y282105D01*
X146366Y281227D01*
X148147Y280687D01*
X150000Y280504D01*
X151853Y280687D01*
X153634Y281227D01*
X154180Y281519D01*
X154481Y281113D01*
X134047Y260679D01*
X133944Y260583D01*
X133523Y260246D01*
X133098Y259957D01*
X132664Y259711D01*
X132220Y259505D01*
X131760Y259336D01*
X131279Y259204D01*
X130774Y259108D01*
X130238Y259048D01*
X130098Y259043D01*
X102305D01*
Y261308D01*
X102279Y261505D01*
Y263973D01*
X102371Y264195D01*
X102543Y265500D01*
X102371Y266805D01*
X102279Y267027D01*
Y271508D01*
X96834D01*
X96727Y271522D01*
X96649Y271512D01*
X96571Y271518D01*
X96519Y271508D01*
X94551D01*
X94547Y271509D01*
X94524Y271508D01*
X94373D01*
X94267Y271522D01*
X94162Y271508D01*
X91834D01*
X91727Y271522D01*
X91649Y271512D01*
X91571Y271518D01*
X91519Y271508D01*
X89481D01*
X89429Y271518D01*
X89348Y271511D01*
X89267Y271522D01*
X89162Y271508D01*
X86834D01*
X86727Y271522D01*
X86649Y271512D01*
X86571Y271518D01*
X86519Y271508D01*
X84481D01*
X84429Y271518D01*
X84348Y271511D01*
X84267Y271522D01*
X84162Y271508D01*
X81834D01*
X81727Y271522D01*
X81649Y271512D01*
X81571Y271518D01*
X81519Y271508D01*
X78720D01*
Y270565D01*
X78455Y270543D01*
X77360D01*
X76055Y270371D01*
X74838Y269867D01*
X73794Y269066D01*
X67419Y262692D01*
X66267Y261567D01*
X64843Y260290D01*
X53500D01*
Y252190D01*
X55500D01*
Y250450D01*
Y249260D01*
X58900D01*
Y248760D01*
X59400D01*
Y246710D01*
X62300D01*
X62700Y246468D01*
Y244710D01*
X63933D01*
X63957Y244415D01*
Y241043D01*
X32892D01*
X26713Y247223D01*
Y247744D01*
X26953D01*
Y251500D01*
Y255256D01*
X26713D01*
Y257256D01*
X26613D01*
X26590Y257852D01*
Y261958D01*
X40540Y275908D01*
X41866Y276457D01*
X109465D01*
X109467Y276453D01*
X109547Y276195D01*
X109598Y275938D01*
X109624Y275671D01*
X109622Y275386D01*
X109575Y274936D01*
X109576Y274883D01*
X109467Y273500D01*
X109597Y271852D01*
X109983Y270245D01*
X110616Y268718D01*
X111479Y267309D01*
X112552Y266052D01*
X113809Y264979D01*
X115218Y264116D01*
X116745Y263483D01*
X118352Y263097D01*
X120000Y262967D01*
X121648Y263097D01*
X123255Y263483D01*
X124782Y264116D01*
X126191Y264979D01*
X127448Y266052D01*
X128521Y267309D01*
X129385Y268718D01*
X130017Y270245D01*
X130403Y271852D01*
X130533Y273500D01*
X130403Y275148D01*
X130017Y276755D01*
X129385Y278282D01*
X128521Y279691D01*
X127448Y280948D01*
X126191Y282021D01*
X124782Y282885D01*
X123255Y283517D01*
X121648Y283903D01*
X120000Y284033D01*
X118617Y283924D01*
X118564Y283925D01*
X118114Y283878D01*
X117829Y283876D01*
X117562Y283902D01*
X117305Y283953D01*
X117047Y284033D01*
X116780Y284146D01*
X116500Y284298D01*
X116202Y284497D01*
X115886Y284748D01*
X115865Y284767D01*
X115566Y285066D01*
X114522Y285868D01*
X113305Y286371D01*
X112000Y286543D01*
X41866D01*
X40503Y287108D01*
X39000Y287306D01*
X37497Y287108D01*
X36097Y286528D01*
X34895Y285605D01*
X33972Y284403D01*
X33408Y283040D01*
X17981Y267613D01*
X17180Y266569D01*
X16676Y265353D01*
X16504Y264047D01*
Y257256D01*
X16382D01*
Y254349D01*
X16368Y254244D01*
X16382Y254138D01*
Y248862D01*
X16368Y248756D01*
X16377Y248690D01*
X16371Y248624D01*
X16382Y248373D01*
Y245744D01*
X16497D01*
X16504Y245583D01*
Y245256D01*
X16676Y243951D01*
X17180Y242734D01*
X17981Y241690D01*
X27237Y232434D01*
X28282Y231632D01*
X29498Y231129D01*
X30803Y230957D01*
X35774D01*
X36078Y230596D01*
X36102Y230457D01*
X36100Y230441D01*
X36114Y230335D01*
Y221547D01*
X48020D01*
Y230335D01*
X48034Y230441D01*
X48031Y230457D01*
X48056Y230596D01*
X48360Y230957D01*
X66500D01*
X67805Y231129D01*
X69022Y231632D01*
X70066Y232434D01*
X72566Y234934D01*
X73368Y235978D01*
X73871Y237195D01*
X74043Y238500D01*
Y245151D01*
X74543Y245405D01*
X74690Y245298D01*
Y228087D01*
X74811Y227173D01*
X75163Y226322D01*
X75724Y225591D01*
X82764Y218551D01*
X83495Y217990D01*
X84347Y217637D01*
X85260Y217517D01*
X90606D01*
X91520Y217637D01*
X92371Y217990D01*
X93102Y218551D01*
X100276Y225725D01*
X100837Y226456D01*
X101189Y227307D01*
X101310Y228221D01*
Y229492D01*
X102279D01*
Y243972D01*
X102279D01*
X102251Y244005D01*
X102305Y244416D01*
Y248957D01*
X128748D01*
X128916Y248948D01*
X129195Y248899D01*
X129335Y248852D01*
X129346Y248846D01*
X129352Y248835D01*
X129399Y248695D01*
X129448Y248416D01*
X129457Y248248D01*
Y207988D01*
X128988Y207815D01*
X128448Y208448D01*
X127191Y209521D01*
X125782Y210384D01*
X124255Y211017D01*
X122648Y211403D01*
X121000Y211532D01*
X120947Y211528D01*
X120271Y211545D01*
X119600Y211599D01*
X118993Y211685D01*
X118449Y211799D01*
X117967Y211937D01*
X117544Y212096D01*
X117176Y212272D01*
X116857Y212462D01*
X116578Y212667D01*
X116528Y212712D01*
X115566Y213674D01*
X114522Y214476D01*
X113305Y214980D01*
X112000Y215151D01*
X41866D01*
X40503Y215716D01*
X39000Y215914D01*
X37497Y215716D01*
X36097Y215136D01*
X34895Y214213D01*
X33972Y213011D01*
X33408Y211648D01*
X17981Y196221D01*
X17180Y195177D01*
X16676Y193961D01*
X16504Y192655D01*
Y185864D01*
X16382D01*
Y182958D01*
X16368Y182852D01*
X16382Y182747D01*
Y177470D01*
X16368Y177364D01*
X16377Y177298D01*
X16371Y177232D01*
X16382Y176981D01*
Y174352D01*
X16497D01*
X16504Y174192D01*
Y173864D01*
X16676Y172559D01*
X17180Y171343D01*
X17981Y170298D01*
X27237Y161042D01*
X28282Y160241D01*
X29498Y159737D01*
X30803Y159565D01*
X35774D01*
X36078Y159204D01*
X36102Y159065D01*
X36100Y159049D01*
X36114Y158943D01*
Y150155D01*
X48020D01*
Y158943D01*
X48034Y159049D01*
X48031Y159065D01*
X48056Y159204D01*
X48360Y159565D01*
X66500D01*
X67805Y159737D01*
X69022Y160241D01*
X70066Y161042D01*
X72566Y163542D01*
X73368Y164587D01*
X73871Y165803D01*
X74043Y167108D01*
Y173759D01*
X74543Y174013D01*
X74690Y173906D01*
Y156695D01*
X74811Y155781D01*
X75163Y154930D01*
X75724Y154199D01*
X82764Y147159D01*
X83495Y146598D01*
X84347Y146246D01*
X85260Y146125D01*
X90606D01*
X91520Y146246D01*
X92371Y146598D01*
X93102Y147159D01*
X100276Y154333D01*
X100837Y155064D01*
X101189Y155915D01*
X101310Y156829D01*
Y158100D01*
X102279D01*
Y172580D01*
X102279D01*
X102251Y172613D01*
X102305Y173025D01*
Y173957D01*
X128748D01*
X128916Y173948D01*
X129195Y173899D01*
X129335Y173852D01*
X129346Y173846D01*
X129352Y173835D01*
X129399Y173695D01*
X129448Y173416D01*
X129457Y173248D01*
Y161880D01*
X128957Y161856D01*
X128877Y162666D01*
X128391Y164269D01*
X127602Y165745D01*
X126540Y167040D01*
X125245Y168102D01*
X123769Y168891D01*
X122166Y169377D01*
X121000Y169492D01*
Y161000D01*
Y152508D01*
X122166Y152623D01*
X123769Y153109D01*
X125245Y153898D01*
X126540Y154961D01*
X127602Y156255D01*
X128391Y157731D01*
X128877Y159334D01*
X128957Y160144D01*
X129457Y160120D01*
Y133681D01*
X128966Y133584D01*
X128884Y133782D01*
X128021Y135191D01*
X126948Y136448D01*
X125691Y137521D01*
X124282Y138384D01*
X122755Y139017D01*
X121696Y139271D01*
X121540Y139326D01*
X120670Y139509D01*
X119947Y139690D01*
X118567Y140130D01*
X118043Y140341D01*
X117553Y140572D01*
X117130Y140806D01*
X116772Y141039D01*
X116476Y141266D01*
X116462Y141278D01*
X115566Y142174D01*
X114522Y142976D01*
X113305Y143480D01*
X112000Y143651D01*
X41866D01*
X40503Y144216D01*
X39000Y144414D01*
X37497Y144216D01*
X36097Y143636D01*
X34895Y142713D01*
X33972Y141511D01*
X33408Y140148D01*
X17981Y124721D01*
X17180Y123677D01*
X16676Y122461D01*
X16504Y121155D01*
Y114364D01*
X16382D01*
Y111458D01*
X16368Y111352D01*
X16382Y111247D01*
Y105970D01*
X16368Y105864D01*
X16377Y105798D01*
X16371Y105732D01*
X16382Y105481D01*
Y102852D01*
X16497D01*
X16504Y102692D01*
Y102364D01*
X16676Y101059D01*
X17180Y99843D01*
X17981Y98798D01*
X27237Y89542D01*
X28282Y88741D01*
X29498Y88237D01*
X30803Y88065D01*
X35774D01*
X36078Y87704D01*
X36102Y87565D01*
X36100Y87549D01*
X36114Y87443D01*
Y78655D01*
X48020D01*
Y87443D01*
X48034Y87549D01*
X48031Y87565D01*
X48056Y87704D01*
X48360Y88065D01*
X66500D01*
X67805Y88237D01*
X69022Y88741D01*
X70066Y89542D01*
X72566Y92042D01*
X73368Y93087D01*
X73871Y94303D01*
X74043Y95608D01*
Y102259D01*
X74543Y102513D01*
X74690Y102406D01*
Y85195D01*
X74811Y84281D01*
X75163Y83430D01*
X75724Y82699D01*
X82764Y75659D01*
X83495Y75098D01*
X84347Y74746D01*
X85260Y74625D01*
X90606D01*
X91520Y74746D01*
X92371Y75098D01*
X93102Y75659D01*
X100276Y82833D01*
X100837Y83564D01*
X101189Y84415D01*
X101310Y85329D01*
Y86600D01*
X102279D01*
Y101080D01*
X102279D01*
X102251Y101113D01*
X102305Y101525D01*
Y104957D01*
X128748D01*
X128916Y104948D01*
X129195Y104899D01*
X129335Y104852D01*
X129346Y104846D01*
X129352Y104835D01*
X129399Y104695D01*
X129448Y104416D01*
X129457Y104248D01*
Y65121D01*
X128957Y64979D01*
X128521Y65691D01*
X127448Y66948D01*
X126191Y68021D01*
X124782Y68884D01*
X123255Y69517D01*
X121648Y69903D01*
X120000Y70033D01*
X118352Y69903D01*
X117794Y69769D01*
X117676Y69763D01*
X117357Y69704D01*
X117224Y69695D01*
X117099Y69702D01*
X116966Y69725D01*
X116811Y69771D01*
X116627Y69849D01*
X116407Y69970D01*
X116153Y70142D01*
X115875Y70366D01*
X115566Y70674D01*
X114522Y71476D01*
X113305Y71979D01*
X112000Y72151D01*
X41866D01*
X40503Y72716D01*
X39000Y72914D01*
X37497Y72716D01*
X36097Y72136D01*
X34895Y71213D01*
X33972Y70011D01*
X33408Y68648D01*
X17981Y53221D01*
X17180Y52177D01*
X16676Y50961D01*
X16504Y49655D01*
Y42864D01*
X16382D01*
Y39958D01*
X16368Y39852D01*
X16382Y39746D01*
Y34470D01*
X16368Y34364D01*
X16377Y34298D01*
X16371Y34232D01*
X16382Y33981D01*
Y31352D01*
X16497D01*
X16504Y31192D01*
Y30864D01*
X16676Y29559D01*
X17180Y28343D01*
X17981Y27298D01*
X26488Y18791D01*
X26223Y18349D01*
X24693Y18813D01*
X22840Y18996D01*
X20988Y18813D01*
X19206Y18273D01*
X17565Y17395D01*
X16126Y16215D01*
X14945Y14775D01*
X14067Y13134D01*
X13527Y11353D01*
X13344Y9500D01*
X13527Y7648D01*
X14067Y5866D01*
X14945Y4225D01*
X15144Y3982D01*
X14930Y3530D01*
X3530D01*
Y282848D01*
X4030Y283085D01*
X5224Y282105D01*
X6866Y281227D01*
X8647Y280687D01*
X10500Y280504D01*
X12353Y280687D01*
X14134Y281227D01*
X15776Y282105D01*
X17214Y283285D01*
X18395Y284724D01*
X19273Y286366D01*
X19813Y288147D01*
X19996Y290000D01*
X19813Y291852D01*
X19273Y293634D01*
X18395Y295275D01*
X17786Y296018D01*
X18000Y296470D01*
X142500D01*
X142714Y296018D01*
D02*
G37*
G36*
X321516Y296021D02*
X321132Y295522D01*
X320629Y294305D01*
X320457Y293000D01*
Y268000D01*
X320629Y266695D01*
X321132Y265478D01*
X321541Y264946D01*
X321554Y264920D01*
X321575Y264895D01*
X321590Y264866D01*
X321673Y264774D01*
X321934Y264434D01*
X322051Y264344D01*
X322070Y264322D01*
X322097Y264304D01*
X322119Y264280D01*
X322361Y264073D01*
X322466Y263962D01*
X322559Y263841D01*
X322645Y263700D01*
X322726Y263529D01*
X322802Y263319D01*
X322870Y263065D01*
X322924Y262760D01*
X322957Y262431D01*
Y259589D01*
X314411Y251043D01*
X204867D01*
X197651Y258259D01*
X196607Y259060D01*
X195390Y259564D01*
X194085Y259736D01*
X161248D01*
X159943Y259564D01*
X158726Y259060D01*
X157682Y258259D01*
X140552Y241129D01*
X140434Y241039D01*
X140043Y240529D01*
X139543Y240699D01*
Y249598D01*
X139548Y249738D01*
X139608Y250274D01*
X139704Y250779D01*
X139837Y251260D01*
X140005Y251720D01*
X140211Y252164D01*
X140457Y252598D01*
X140746Y253023D01*
X141083Y253444D01*
X141179Y253547D01*
X163089Y275457D01*
X220093D01*
X220457Y275425D01*
Y268000D01*
X220629Y266695D01*
X221132Y265478D01*
X221934Y264434D01*
X222978Y263632D01*
X224195Y263129D01*
X225500Y262957D01*
X229500D01*
X230805Y263129D01*
X232022Y263632D01*
X233066Y264434D01*
X233868Y265478D01*
X234371Y266695D01*
X234543Y268000D01*
Y293000D01*
X234371Y294305D01*
X233868Y295522D01*
X233484Y296021D01*
X233705Y296470D01*
X321295D01*
X321516Y296021D01*
D02*
G37*
G36*
X292905Y231802D02*
X292820Y231772D01*
X292745Y231722D01*
X292680Y231652D01*
X292625Y231562D01*
X292580Y231452D01*
X292545Y231322D01*
X292520Y231172D01*
X292505Y231002D01*
X292500Y230812D01*
X291500D01*
X291495Y231002D01*
X291480Y231172D01*
X291455Y231322D01*
X291420Y231452D01*
X291375Y231562D01*
X291320Y231652D01*
X291255Y231722D01*
X291180Y231772D01*
X291095Y231802D01*
X291000Y231812D01*
X293000D01*
X292905Y231802D01*
D02*
G37*
G36*
X48067Y234000D02*
X47307Y233960D01*
X46627Y233840D01*
X46027Y233640D01*
X45507Y233360D01*
X45067Y233000D01*
X44707Y232560D01*
X44427Y232040D01*
X44275Y231583D01*
X44302Y231441D01*
X44406Y231081D01*
X44528Y230801D01*
X44669Y230601D01*
X44829Y230481D01*
X45008Y230441D01*
X44090D01*
X44067Y230000D01*
X40067D01*
X40044Y230441D01*
X39126D01*
X39305Y230481D01*
X39465Y230601D01*
X39606Y230801D01*
X39728Y231081D01*
X39832Y231441D01*
X39859Y231583D01*
X39707Y232040D01*
X39427Y232560D01*
X39067Y233000D01*
X38627Y233360D01*
X38107Y233640D01*
X37507Y233840D01*
X36827Y233960D01*
X36067Y234000D01*
X42067Y238000D01*
X48067Y234000D01*
D02*
G37*
G36*
X319791Y232947D02*
X319710Y233040D01*
X319605Y233123D01*
X319476Y233197D01*
X319323Y233261D01*
X319146Y233314D01*
X318944Y233359D01*
X318719Y233393D01*
X318469Y233417D01*
X317898Y233437D01*
X318499Y236437D01*
X318802Y236439D01*
X319941Y236524D01*
X320094Y236555D01*
X320222Y236591D01*
X320325Y236631D01*
X320403Y236677D01*
X319791Y232947D01*
D02*
G37*
G36*
X98685Y232506D02*
X98599Y232475D01*
X98524Y232425D01*
X98460Y232354D01*
X98405Y232263D01*
X98360Y232152D01*
X98325Y232020D01*
X98299Y231868D01*
X98285Y231696D01*
X98280Y231504D01*
X97280D01*
X97275Y231696D01*
X97259Y231868D01*
X97234Y232020D01*
X97199Y232152D01*
X97154Y232263D01*
X97100Y232354D01*
X97035Y232425D01*
X96960Y232475D01*
X96874Y232506D01*
X96780Y232516D01*
X98779D01*
X98685Y232506D01*
D02*
G37*
G36*
X90000Y229609D02*
X85866D01*
X85879Y229639D01*
X85890Y229703D01*
X85900Y229801D01*
X85922Y230301D01*
X85933Y231444D01*
X89933D01*
X90000Y229609D01*
D02*
G37*
G36*
X387579Y224126D02*
X386955Y223422D01*
X386702Y223093D01*
X386488Y222779D01*
X386312Y222480D01*
X386175Y222196D01*
X386078Y221927D01*
X386019Y221674D01*
X386000Y221436D01*
X385000D01*
X384981Y221674D01*
X384922Y221927D01*
X384824Y222196D01*
X384688Y222480D01*
X384512Y222779D01*
X384298Y223093D01*
X384045Y223422D01*
X383420Y224126D01*
X383050Y224500D01*
X387950D01*
X387579Y224126D01*
D02*
G37*
G36*
X196158Y222256D02*
X195700Y221728D01*
X195515Y221476D01*
X195357Y221233D01*
X195229Y220997D01*
X195129Y220770D01*
X195057Y220550D01*
X195014Y220339D01*
X195000Y220136D01*
X194000D01*
X193986Y220339D01*
X193943Y220550D01*
X193871Y220770D01*
X193771Y220997D01*
X193643Y221233D01*
X193485Y221476D01*
X193300Y221728D01*
X193085Y221988D01*
X192571Y222532D01*
X196429D01*
X196158Y222256D01*
D02*
G37*
G36*
X165014Y228661D02*
X165057Y228450D01*
X165129Y228230D01*
X165229Y228003D01*
X165357Y227767D01*
X165515Y227524D01*
X165700Y227272D01*
X165915Y227012D01*
X166429Y226468D01*
X162571Y226468D01*
X162842Y226744D01*
X163300Y227272D01*
X163486Y227524D01*
X163643Y227767D01*
X163771Y228003D01*
X163871Y228230D01*
X163943Y228450D01*
X163986Y228661D01*
X164000Y228864D01*
X165000D01*
X165014Y228661D01*
D02*
G37*
G36*
X292514Y228573D02*
X292556Y228365D01*
X292625Y228150D01*
X292722Y227926D01*
X292847Y227696D01*
X293000Y227457D01*
X293181Y227211D01*
X293390Y226958D01*
X293890Y226428D01*
X290110D01*
X290374Y226697D01*
X290819Y227211D01*
X291000Y227457D01*
X291153Y227696D01*
X291278Y227926D01*
X291375Y228150D01*
X291444Y228365D01*
X291486Y228573D01*
X291500Y228773D01*
X292500D01*
X292514Y228573D01*
D02*
G37*
G36*
X181071Y239047D02*
X181061Y239142D01*
X181031Y239227D01*
X180980Y239302D01*
X180909Y239367D01*
X180818Y239422D01*
X180707Y239467D01*
X180575Y239502D01*
X180424Y239527D01*
X180252Y239542D01*
X180059Y239547D01*
Y240547D01*
X180252Y240552D01*
X180424Y240567D01*
X180575Y240592D01*
X180707Y240627D01*
X180818Y240672D01*
X180909Y240727D01*
X180980Y240792D01*
X181031Y240867D01*
X181061Y240952D01*
X181071Y241047D01*
Y239047D01*
D02*
G37*
G36*
X167242Y240952D02*
X167272Y240867D01*
X167323Y240792D01*
X167394Y240727D01*
X167485Y240672D01*
X167596Y240627D01*
X167728Y240592D01*
X167880Y240567D01*
X168052Y240552D01*
X168244Y240547D01*
Y239547D01*
X168052Y239542D01*
X167880Y239527D01*
X167728Y239502D01*
X167596Y239467D01*
X167485Y239422D01*
X167394Y239367D01*
X167323Y239302D01*
X167272Y239227D01*
X167242Y239142D01*
X167232Y239047D01*
Y241047D01*
X167242Y240952D01*
D02*
G37*
G36*
X99279Y244416D02*
X81721D01*
Y261308D01*
X99279D01*
Y244416D01*
D02*
G37*
G36*
X70585Y247682D02*
X70672Y247562D01*
X70749Y247362D01*
X70816Y247082D01*
X70872Y246722D01*
X70954Y245762D01*
X70995Y244482D01*
X71000Y243722D01*
X67000D01*
X66987Y244482D01*
X66884Y245762D01*
X66794Y246282D01*
X66678Y246722D01*
X66536Y247082D01*
X66369Y247362D01*
X66176Y247562D01*
X65957Y247682D01*
X65712Y247722D01*
X70488D01*
X70585Y247682D01*
D02*
G37*
G36*
X165405Y237896D02*
X165320Y237865D01*
X165245Y237815D01*
X165180Y237744D01*
X165125Y237653D01*
X165080Y237542D01*
X165045Y237410D01*
X165020Y237258D01*
X165005Y237086D01*
X165000Y236894D01*
X164000D01*
X163995Y237086D01*
X163980Y237258D01*
X163955Y237410D01*
X163920Y237542D01*
X163875Y237653D01*
X163820Y237744D01*
X163755Y237815D01*
X163680Y237865D01*
X163595Y237896D01*
X163500Y237906D01*
X165500D01*
X165405Y237896D01*
D02*
G37*
G36*
X84305Y240135D02*
X84417Y239841D01*
X84603Y239581D01*
X84865Y239356D01*
X85201Y239165D01*
X85611Y239009D01*
X85855Y238948D01*
X85988Y238985D01*
X86261Y239096D01*
X86472Y239228D01*
X86624Y239380D01*
X86714Y239552D01*
X86744Y239744D01*
Y238794D01*
X87291Y238749D01*
X88000Y238732D01*
Y234732D01*
X87291Y234715D01*
X86744Y234670D01*
Y233720D01*
X86714Y233912D01*
X86624Y234084D01*
X86472Y234236D01*
X86261Y234368D01*
X85988Y234479D01*
X85855Y234516D01*
X85611Y234455D01*
X85201Y234299D01*
X84865Y234108D01*
X84603Y233883D01*
X84417Y233623D01*
X84305Y233329D01*
X84267Y232999D01*
Y234712D01*
X83720Y234732D01*
Y238732D01*
X84267Y238742D01*
Y240464D01*
X84305Y240135D01*
D02*
G37*
G36*
X218004Y218004D02*
X218735Y217443D01*
X219586Y217090D01*
X220500Y216970D01*
X246807D01*
Y214547D01*
X249033D01*
Y213063D01*
X249153Y212149D01*
X249506Y211298D01*
X249602Y211172D01*
Y206589D01*
X249129Y206429D01*
X249067Y206508D01*
X249067Y206508D01*
X248788Y206788D01*
X248036Y207365D01*
X247160Y207728D01*
X246220Y207852D01*
X243398D01*
Y210567D01*
X241398D01*
Y211126D01*
X224043D01*
Y210567D01*
X222043D01*
Y205449D01*
Y202203D01*
X221543Y201996D01*
X215756Y207784D01*
X215025Y208345D01*
X214174Y208697D01*
X213260Y208818D01*
X210757D01*
X202996Y216578D01*
X198854Y220720D01*
X199528Y221597D01*
X200108Y222997D01*
X200306Y224500D01*
X200108Y226003D01*
X199528Y227403D01*
X198605Y228605D01*
X197403Y229528D01*
X196003Y230108D01*
X194500Y230306D01*
X192997Y230108D01*
X191597Y229528D01*
X190395Y228605D01*
X189472Y227403D01*
X188892Y226003D01*
X188694Y224500D01*
X188892Y222997D01*
X189472Y221597D01*
X190395Y220395D01*
X190513Y220304D01*
X190816Y219983D01*
X190914Y219865D01*
X190995Y219756D01*
X191017Y219720D01*
X191090Y219168D01*
X191443Y218317D01*
X191699Y217983D01*
X191452Y217483D01*
X175256D01*
Y219118D01*
X167763D01*
X167593Y219618D01*
X168605Y220395D01*
X169528Y221597D01*
X170108Y222997D01*
X170306Y224500D01*
X170108Y226003D01*
X169528Y227403D01*
X168605Y228605D01*
X168487Y228696D01*
X168184Y229017D01*
X168086Y229134D01*
X168030Y229211D01*
Y234882D01*
X170256D01*
Y236517D01*
X178047D01*
Y233307D01*
X189953D01*
Y241181D01*
Y242423D01*
X193585D01*
X218004Y218004D01*
D02*
G37*
G36*
X89292Y239099D02*
X89366Y239022D01*
X89488Y238954D01*
X89660Y238895D01*
X89881Y238845D01*
X90151Y238805D01*
X90837Y238750D01*
X91720Y238732D01*
Y234732D01*
X91254Y234728D01*
X89881Y234619D01*
X89660Y234569D01*
X89488Y234510D01*
X89366Y234442D01*
X89292Y234365D01*
X89267Y234279D01*
Y239185D01*
X89292Y239099D01*
D02*
G37*
G36*
X294686Y235905D02*
X294717Y235820D01*
X294767Y235745D01*
X294838Y235680D01*
X294929Y235625D01*
X295040Y235580D01*
X295172Y235545D01*
X295324Y235520D01*
X295496Y235505D01*
X295688Y235500D01*
Y234500D01*
X295496Y234495D01*
X295324Y234480D01*
X295172Y234455D01*
X295040Y234420D01*
X294929Y234375D01*
X294838Y234320D01*
X294767Y234255D01*
X294717Y234180D01*
X294686Y234095D01*
X294676Y234000D01*
Y236000D01*
X294686Y235905D01*
D02*
G37*
G36*
X89292Y167707D02*
X89366Y167630D01*
X89488Y167562D01*
X89660Y167503D01*
X89881Y167453D01*
X90151Y167413D01*
X90837Y167358D01*
X91720Y167340D01*
Y163340D01*
X91254Y163336D01*
X89881Y163227D01*
X89660Y163177D01*
X89488Y163118D01*
X89366Y163050D01*
X89292Y162973D01*
X89267Y162887D01*
Y167793D01*
X89292Y167707D01*
D02*
G37*
G36*
X99279Y173025D02*
X81721D01*
Y189916D01*
X99279D01*
Y173025D01*
D02*
G37*
G36*
X136500Y179000D02*
X132500Y173000D01*
X132460Y173760D01*
X132340Y174440D01*
X132140Y175040D01*
X131860Y175560D01*
X131500Y176000D01*
X131060Y176360D01*
X130540Y176640D01*
X129940Y176840D01*
X129260Y176960D01*
X128500Y177000D01*
Y181000D01*
X129260Y181040D01*
X129940Y181160D01*
X130540Y181360D01*
X131060Y181640D01*
X131500Y182000D01*
X131860Y182440D01*
X132140Y182960D01*
X132340Y183560D01*
X132460Y184240D01*
X132500Y185000D01*
X136500Y179000D01*
D02*
G37*
G36*
X241548Y180855D02*
X241563Y180683D01*
X241588Y180531D01*
X241623Y180399D01*
X241668Y180288D01*
X241723Y180197D01*
X241788Y180126D01*
X241863Y180076D01*
X241948Y180045D01*
X242043Y180035D01*
X240043D01*
X240138Y180045D01*
X240223Y180076D01*
X240298Y180126D01*
X240363Y180197D01*
X240418Y180288D01*
X240463Y180399D01*
X240498Y180531D01*
X240523Y180683D01*
X240538Y180855D01*
X240543Y181047D01*
X241543D01*
X241548Y180855D01*
D02*
G37*
G36*
X23671Y177329D02*
X23645Y177224D01*
X23622Y177049D01*
X23586Y176489D01*
X23547Y173864D01*
X19547D01*
X19394Y177364D01*
X23701D01*
X23671Y177329D01*
D02*
G37*
G36*
X48067Y162608D02*
X47307Y162568D01*
X46627Y162448D01*
X46027Y162248D01*
X45507Y161968D01*
X45067Y161608D01*
X44707Y161168D01*
X44427Y160648D01*
X44275Y160192D01*
X44302Y160049D01*
X44406Y159689D01*
X44528Y159409D01*
X44669Y159209D01*
X44829Y159089D01*
X45008Y159049D01*
X44090D01*
X44067Y158608D01*
X40067D01*
X40044Y159049D01*
X39126D01*
X39305Y159089D01*
X39465Y159209D01*
X39606Y159409D01*
X39728Y159689D01*
X39832Y160049D01*
X39859Y160192D01*
X39707Y160648D01*
X39427Y161168D01*
X39067Y161608D01*
X38627Y161968D01*
X38107Y162248D01*
X37507Y162448D01*
X36827Y162568D01*
X36067Y162608D01*
X42067Y166608D01*
X48067Y162608D01*
D02*
G37*
G36*
X70486Y182013D02*
X70517Y181928D01*
X70567Y181853D01*
X70638Y181788D01*
X70729Y181733D01*
X70840Y181688D01*
X70972Y181653D01*
X71124Y181628D01*
X71296Y181613D01*
X71488Y181608D01*
Y180608D01*
X71296Y180603D01*
X71124Y180588D01*
X70972Y180563D01*
X70840Y180528D01*
X70729Y180483D01*
X70638Y180428D01*
X70567Y180363D01*
X70517Y180288D01*
X70486Y180203D01*
X70476Y180108D01*
Y182108D01*
X70486Y182013D01*
D02*
G37*
G36*
X98685Y161114D02*
X98599Y161083D01*
X98524Y161033D01*
X98460Y160962D01*
X98405Y160871D01*
X98360Y160760D01*
X98325Y160628D01*
X98299Y160476D01*
X98285Y160304D01*
X98280Y160112D01*
X97280D01*
X97275Y160304D01*
X97259Y160476D01*
X97234Y160628D01*
X97199Y160760D01*
X97154Y160871D01*
X97100Y160962D01*
X97035Y161033D01*
X96960Y161083D01*
X96874Y161114D01*
X96780Y161124D01*
X98779D01*
X98685Y161114D01*
D02*
G37*
G36*
X84305Y168744D02*
X84417Y168449D01*
X84603Y168189D01*
X84865Y167964D01*
X85201Y167773D01*
X85611Y167617D01*
X85855Y167557D01*
X85988Y167593D01*
X86261Y167704D01*
X86472Y167836D01*
X86624Y167988D01*
X86714Y168160D01*
X86744Y168352D01*
Y167402D01*
X87291Y167358D01*
X88000Y167340D01*
Y163340D01*
X87291Y163323D01*
X86744Y163278D01*
Y162328D01*
X86714Y162520D01*
X86624Y162692D01*
X86472Y162844D01*
X86261Y162976D01*
X85988Y163087D01*
X85855Y163124D01*
X85611Y163063D01*
X85201Y162907D01*
X84865Y162716D01*
X84603Y162491D01*
X84417Y162231D01*
X84305Y161937D01*
X84267Y161608D01*
Y163320D01*
X83720Y163340D01*
Y167340D01*
X84267Y167350D01*
Y169073D01*
X84305Y168744D01*
D02*
G37*
G36*
X231821Y180345D02*
X232139Y180069D01*
X232217Y180016D01*
X232281Y179983D01*
X232330Y179969D01*
X232366Y179976D01*
X232387Y180001D01*
X232394Y180047D01*
Y177649D01*
X232387Y177790D01*
X232366Y177931D01*
X232330Y178073D01*
X232281Y178214D01*
X232217Y178356D01*
X232139Y178497D01*
X232047Y178639D01*
X231941Y178780D01*
X231821Y178921D01*
X231687Y179063D01*
Y180477D01*
X231821Y180345D01*
D02*
G37*
G36*
X70585Y176290D02*
X70672Y176170D01*
X70749Y175970D01*
X70816Y175690D01*
X70872Y175330D01*
X70954Y174370D01*
X70995Y173090D01*
X71000Y172330D01*
X67000D01*
X66987Y173090D01*
X66884Y174370D01*
X66794Y174890D01*
X66678Y175330D01*
X66536Y175690D01*
X66369Y175970D01*
X66176Y176170D01*
X65957Y176290D01*
X65712Y176330D01*
X70488D01*
X70585Y176290D01*
D02*
G37*
G36*
X255041Y165873D02*
X254057Y166724D01*
X250762Y169233D01*
X250098Y169636D01*
X249499Y169950D01*
X248965Y170174D01*
X248494Y170308D01*
X248451Y170313D01*
X248260Y170276D01*
X248045Y170217D01*
X247836Y170141D01*
X247635Y170047D01*
X247441Y169937D01*
X247253Y169810D01*
X247073Y169665D01*
X246900Y169504D01*
X246052Y170353D01*
X246213Y170526D01*
X246357Y170706D01*
X246484Y170894D01*
X246595Y171088D01*
X246688Y171289D01*
X246764Y171497D01*
X246824Y171713D01*
X246866Y171935D01*
X246891Y172165D01*
X246900Y172401D01*
X248100Y172753D01*
X248112Y172525D01*
X248148Y172321D01*
X248208Y172141D01*
X248292Y171985D01*
X248400Y171853D01*
X248532Y171745D01*
X248682Y171664D01*
X248961Y171745D01*
X249497Y171984D01*
X250069Y172319D01*
X250678Y172751D01*
X251324Y173278D01*
X252007Y173901D01*
X253482Y175435D01*
X254275Y176345D01*
X255041Y165873D01*
D02*
G37*
G36*
X267090Y197086D02*
X267443Y196235D01*
X268004Y195504D01*
X268735Y194943D01*
X269586Y194590D01*
X270500Y194470D01*
X270547D01*
Y192807D01*
X271239D01*
X271338Y192307D01*
X270735Y192057D01*
X270004Y191496D01*
X269443Y190765D01*
X269090Y189914D01*
X268970Y189000D01*
Y177817D01*
X268895Y177796D01*
X268470Y177751D01*
X267448Y178948D01*
X266191Y180021D01*
X264782Y180885D01*
X263255Y181517D01*
X261648Y181903D01*
X260000Y182033D01*
X258352Y181903D01*
X256745Y181517D01*
X255218Y180885D01*
X253809Y180021D01*
X252552Y178948D01*
X252131Y178454D01*
X251993Y178332D01*
X251631Y177917D01*
X251131Y178104D01*
Y185500D01*
X251131Y185500D01*
X251007Y186440D01*
X250645Y187315D01*
X250131Y187985D01*
Y197874D01*
X266986D01*
X267090Y197086D01*
D02*
G37*
G36*
X236756Y165106D02*
X236768Y162547D01*
X236759Y162715D01*
X236732Y162884D01*
X236689Y163053D01*
X236629Y163222D01*
X236551Y163391D01*
X236456Y163561D01*
X236345Y163731D01*
X236216Y163902D01*
X236070Y164073D01*
X235908Y164244D01*
Y165941D01*
X236756Y165106D01*
D02*
G37*
G36*
X203470Y188538D02*
Y184000D01*
X203584Y183131D01*
X203559Y182976D01*
X203329Y182631D01*
X196448D01*
X196118Y183007D01*
X196249Y184000D01*
X196053Y185488D01*
X195479Y186875D01*
X194769Y187800D01*
X195015Y188300D01*
X196200D01*
Y195154D01*
X196662Y195346D01*
X203470Y188538D01*
D02*
G37*
G36*
X23701Y182852D02*
X19394D01*
X19423Y182892D01*
X19449Y183012D01*
X19472Y183212D01*
X19509Y183852D01*
X19547Y186852D01*
X23547D01*
X23701Y182852D01*
D02*
G37*
G36*
X218572Y182110D02*
X218303Y182374D01*
X217789Y182819D01*
X217543Y183000D01*
X217304Y183152D01*
X217074Y183278D01*
X216850Y183375D01*
X216635Y183444D01*
X216427Y183486D01*
X216227Y183500D01*
Y184500D01*
X216427Y184514D01*
X216635Y184556D01*
X216850Y184625D01*
X217074Y184722D01*
X217304Y184847D01*
X217543Y185000D01*
X217789Y185181D01*
X218042Y185390D01*
X218572Y185890D01*
Y182110D01*
D02*
G37*
G36*
X222697Y185626D02*
X223212Y185181D01*
X223457Y185000D01*
X223696Y184847D01*
X223926Y184722D01*
X224149Y184625D01*
X224365Y184556D01*
X224573Y184514D01*
X224773Y184500D01*
Y183500D01*
X224573Y183486D01*
X224365Y183444D01*
X224149Y183375D01*
X223926Y183278D01*
X223696Y183152D01*
X223457Y183000D01*
X223212Y182819D01*
X222958Y182610D01*
X222428Y182110D01*
Y185890D01*
X222697Y185626D01*
D02*
G37*
G36*
X243092Y165697D02*
X242827Y165423D01*
X242416Y164945D01*
X242271Y164741D01*
X242165Y164560D01*
X242098Y164401D01*
X242072Y164266D01*
X242086Y164154D01*
X242139Y164066D01*
X242232Y164000D01*
X239956Y165094D01*
X240075Y165054D01*
X240205Y165042D01*
X240346Y165057D01*
X240499Y165101D01*
X240663Y165173D01*
X240838Y165273D01*
X241025Y165402D01*
X241223Y165558D01*
X241433Y165742D01*
X241653Y165955D01*
X243092Y165697D01*
D02*
G37*
G36*
X73381Y187301D02*
X72831Y186745D01*
X70748Y184375D01*
X70604Y184141D01*
X70517Y183953D01*
X70488Y183810D01*
X65712Y185886D01*
X65868Y185929D01*
X66097Y186056D01*
X66399Y186268D01*
X66773Y186565D01*
X68335Y187965D01*
X70552Y190129D01*
X73381Y187301D01*
D02*
G37*
G36*
X176276Y163427D02*
X176124Y163255D01*
X175990Y163056D01*
X175871Y162832D01*
X175769Y162581D01*
X175683Y162304D01*
X175614Y162002D01*
X175561Y161673D01*
X175524Y161318D01*
X175500Y160530D01*
X172530Y163500D01*
X172937Y163504D01*
X173673Y163561D01*
X174002Y163614D01*
X174304Y163683D01*
X174581Y163769D01*
X174832Y163871D01*
X175056Y163990D01*
X175255Y164124D01*
X175427Y164276D01*
X176276Y163427D01*
D02*
G37*
G36*
X193131Y173265D02*
X193107Y172622D01*
X193126Y172332D01*
X193164Y172065D01*
X193222Y171819D01*
X193300Y171595D01*
X193399Y171392D01*
X193517Y171211D01*
X193655Y171052D01*
X192853Y170440D01*
X192713Y170562D01*
X192544Y170677D01*
X192347Y170784D01*
X192122Y170883D01*
X191868Y170975D01*
X191586Y171059D01*
X190936Y171205D01*
X190569Y171266D01*
X190173Y171320D01*
X193173Y173620D01*
X193131Y173265D01*
D02*
G37*
G36*
X249055Y166729D02*
X252149Y164374D01*
X253062Y163584D01*
X253063Y163584D01*
X253064Y163583D01*
X253230Y163474D01*
X253809Y162979D01*
X255218Y162116D01*
X256745Y161483D01*
X258352Y161097D01*
X260000Y160968D01*
X261648Y161097D01*
X262012Y161185D01*
X262256Y160748D01*
X256038Y154530D01*
X245500D01*
X244586Y154410D01*
X243735Y154057D01*
X243256Y154320D01*
Y156547D01*
X240000D01*
Y153882D01*
X242693D01*
X242751Y153810D01*
X242889Y153382D01*
X232960Y143453D01*
X223573D01*
Y145081D01*
X231496Y153004D01*
X232057Y153735D01*
X232410Y154586D01*
X232530Y155500D01*
Y162681D01*
X232992Y162873D01*
X233744Y162121D01*
Y157787D01*
X235744D01*
Y157547D01*
X243256D01*
Y157787D01*
X245256D01*
Y163574D01*
X248655Y166972D01*
X249055Y166729D01*
D02*
G37*
G36*
X90000Y158217D02*
X85866D01*
X85879Y158247D01*
X85890Y158311D01*
X85900Y158410D01*
X85922Y158909D01*
X85933Y160052D01*
X89933D01*
X90000Y158217D01*
D02*
G37*
G36*
X188572Y182110D02*
X188303Y182374D01*
X187788Y182819D01*
X187543Y183000D01*
X187304Y183152D01*
X187074Y183278D01*
X186851Y183375D01*
X186635Y183444D01*
X186427Y183486D01*
X186227Y183500D01*
Y184500D01*
X186427Y184514D01*
X186635Y184556D01*
X186851Y184625D01*
X187074Y184722D01*
X187304Y184847D01*
X187543Y185000D01*
X187788Y185181D01*
X188042Y185390D01*
X188572Y185890D01*
Y182110D01*
D02*
G37*
G36*
X223131Y173265D02*
X223107Y172622D01*
X223126Y172332D01*
X223164Y172065D01*
X223222Y171819D01*
X223300Y171595D01*
X223399Y171392D01*
X223517Y171211D01*
X223655Y171052D01*
X222853Y170440D01*
X222713Y170562D01*
X222544Y170677D01*
X222347Y170784D01*
X222122Y170883D01*
X221868Y170975D01*
X221586Y171059D01*
X220936Y171205D01*
X220569Y171266D01*
X220173Y171320D01*
X223173Y173620D01*
X223131Y173265D01*
D02*
G37*
%LPC*%
G36*
X38500Y251000D02*
X35278D01*
X35341Y250519D01*
X35719Y249606D01*
X36321Y248821D01*
X37106Y248219D01*
X38019Y247841D01*
X38500Y247778D01*
Y251000D01*
D02*
G37*
G36*
X276492Y145000D02*
X268500D01*
Y137008D01*
X269666Y137123D01*
X271269Y137609D01*
X272745Y138398D01*
X274040Y139461D01*
X275102Y140755D01*
X275891Y142231D01*
X276377Y143834D01*
X276492Y145000D01*
D02*
G37*
G36*
X299500Y170500D02*
X291508D01*
X291623Y169334D01*
X292109Y167731D01*
X292898Y166255D01*
X293960Y164961D01*
X295255Y163898D01*
X296731Y163109D01*
X298334Y162623D01*
X299500Y162508D01*
Y170500D01*
D02*
G37*
G36*
X120000Y169492D02*
X118834Y169377D01*
X117231Y168891D01*
X115755Y168102D01*
X114461Y167040D01*
X113398Y165745D01*
X112609Y164269D01*
X112123Y162666D01*
X112008Y161500D01*
X120000D01*
Y169492D01*
D02*
G37*
G36*
X30618Y251000D02*
X27953D01*
Y247744D01*
X30618D01*
Y251000D01*
D02*
G37*
G36*
X58400Y248260D02*
X55500D01*
Y246710D01*
X58400D01*
Y248260D01*
D02*
G37*
G36*
X42722Y251000D02*
X39500D01*
Y247778D01*
X39981Y247841D01*
X40894Y248219D01*
X41679Y248821D01*
X42281Y249606D01*
X42659Y250519D01*
X42722Y251000D01*
D02*
G37*
G36*
X120000Y241992D02*
Y234000D01*
X127992D01*
X127877Y235166D01*
X127391Y236769D01*
X126602Y238245D01*
X125540Y239540D01*
X124245Y240602D01*
X122769Y241391D01*
X121166Y241877D01*
X120000Y241992D01*
D02*
G37*
G36*
X352464Y135000D02*
X349500D01*
Y132036D01*
X349914Y132090D01*
X350765Y132443D01*
X351496Y133004D01*
X352057Y133735D01*
X352410Y134586D01*
X352464Y135000D01*
D02*
G37*
G36*
X367500Y138700D02*
X365000D01*
Y132900D01*
X367500D01*
Y138700D01*
D02*
G37*
G36*
X327500Y173000D02*
X319508D01*
X319623Y171834D01*
X320109Y170231D01*
X320898Y168755D01*
X321960Y167461D01*
X323255Y166398D01*
X324731Y165609D01*
X326334Y165123D01*
X327500Y165008D01*
Y173000D01*
D02*
G37*
G36*
X348500Y135000D02*
X345536D01*
X345590Y134586D01*
X345943Y133735D01*
X346504Y133004D01*
X347235Y132443D01*
X348086Y132090D01*
X348500Y132036D01*
Y135000D01*
D02*
G37*
G36*
X119000Y241992D02*
X117834Y241877D01*
X116231Y241391D01*
X114755Y240602D01*
X113461Y239540D01*
X112398Y238245D01*
X111609Y236769D01*
X111123Y235166D01*
X111008Y234000D01*
X119000D01*
Y241992D01*
D02*
G37*
G36*
X308492Y170500D02*
X300500D01*
Y162508D01*
X301666Y162623D01*
X303269Y163109D01*
X304745Y163898D01*
X306040Y164961D01*
X307102Y166255D01*
X307891Y167731D01*
X308377Y169334D01*
X308492Y170500D01*
D02*
G37*
G36*
X215547Y54500D02*
X212882D01*
Y51244D01*
X215547D01*
Y54500D01*
D02*
G37*
G36*
X345323Y54484D02*
X342657D01*
Y51229D01*
X345323D01*
Y54484D01*
D02*
G37*
G36*
X371000Y138700D02*
X368500D01*
Y132900D01*
X371000D01*
Y138700D01*
D02*
G37*
G36*
X348500Y138964D02*
X348086Y138910D01*
X347235Y138557D01*
X346504Y137996D01*
X345943Y137265D01*
X345590Y136414D01*
X345536Y136000D01*
X348500D01*
Y138964D01*
D02*
G37*
G36*
X349500D02*
Y136000D01*
X352464D01*
X352410Y136414D01*
X352057Y137265D01*
X351496Y137996D01*
X350765Y138557D01*
X349914Y138910D01*
X349500Y138964D01*
D02*
G37*
G36*
X58400Y33868D02*
X55500D01*
Y32318D01*
X58400D01*
Y33868D01*
D02*
G37*
G36*
X251000Y162464D02*
X250586Y162410D01*
X249735Y162057D01*
X249004Y161496D01*
X248443Y160765D01*
X248090Y159914D01*
X248036Y159500D01*
X251000D01*
Y162464D01*
D02*
G37*
G36*
X268500Y153992D02*
Y146000D01*
X276492D01*
X276377Y147166D01*
X275891Y148769D01*
X275102Y150245D01*
X274040Y151540D01*
X272745Y152602D01*
X271269Y153391D01*
X269666Y153877D01*
X268500Y153992D01*
D02*
G37*
G36*
X30618Y36608D02*
X27953D01*
Y33352D01*
X30618D01*
Y36608D01*
D02*
G37*
G36*
X360000Y261473D02*
Y257500D01*
X363973D01*
X363884Y258175D01*
X363431Y259269D01*
X362709Y260209D01*
X361769Y260931D01*
X360675Y261384D01*
X360000Y261473D01*
D02*
G37*
G36*
X42722Y36608D02*
X39500D01*
Y33386D01*
X39981Y33449D01*
X40894Y33827D01*
X41679Y34429D01*
X42281Y35214D01*
X42659Y36128D01*
X42722Y36608D01*
D02*
G37*
G36*
X38500D02*
X35278D01*
X35341Y36128D01*
X35719Y35214D01*
X36321Y34429D01*
X37106Y33827D01*
X38019Y33449D01*
X38500Y33386D01*
Y36608D01*
D02*
G37*
G36*
X120000Y27992D02*
Y20000D01*
X127992D01*
X127877Y21166D01*
X127391Y22769D01*
X126602Y24245D01*
X125540Y25539D01*
X124245Y26602D01*
X122769Y27391D01*
X121166Y27877D01*
X120000Y27992D01*
D02*
G37*
G36*
X127992Y19000D02*
X120000D01*
Y11008D01*
X121166Y11123D01*
X122769Y11609D01*
X124245Y12398D01*
X125540Y13461D01*
X126602Y14755D01*
X127391Y16231D01*
X127877Y17834D01*
X127992Y19000D01*
D02*
G37*
G36*
X119000D02*
X111008D01*
X111123Y17834D01*
X111609Y16231D01*
X112398Y14755D01*
X113461Y13461D01*
X114755Y12398D01*
X116231Y11609D01*
X117834Y11123D01*
X119000Y11008D01*
Y19000D01*
D02*
G37*
G36*
X254964Y158500D02*
X252000D01*
Y155536D01*
X252414Y155590D01*
X253265Y155943D01*
X253996Y156504D01*
X254557Y157235D01*
X254910Y158086D01*
X254964Y158500D01*
D02*
G37*
G36*
X251000D02*
X248036D01*
X248090Y158086D01*
X248443Y157235D01*
X249004Y156504D01*
X249735Y155943D01*
X250586Y155590D01*
X251000Y155536D01*
Y158500D01*
D02*
G37*
G36*
X119000Y27992D02*
X117834Y27877D01*
X116231Y27391D01*
X114755Y26602D01*
X113461Y25539D01*
X112398Y24245D01*
X111609Y22769D01*
X111123Y21166D01*
X111008Y20000D01*
X119000D01*
Y27992D01*
D02*
G37*
G36*
X120000Y160500D02*
X112008D01*
X112123Y159334D01*
X112609Y157731D01*
X113398Y156255D01*
X114461Y154961D01*
X115755Y153898D01*
X117231Y153109D01*
X118834Y152623D01*
X120000Y152508D01*
Y160500D01*
D02*
G37*
G36*
X239000Y156547D02*
X235744D01*
Y153882D01*
X239000D01*
Y156547D01*
D02*
G37*
G36*
X190618Y49457D02*
X187953D01*
Y46201D01*
X190618D01*
Y49457D01*
D02*
G37*
G36*
X320394Y49441D02*
X317728D01*
Y46185D01*
X320394D01*
Y49441D01*
D02*
G37*
G36*
X190000Y163500D02*
X186834D01*
X186895Y163034D01*
X187268Y162134D01*
X187861Y161361D01*
X188634Y160768D01*
X189534Y160395D01*
X190000Y160334D01*
Y163500D01*
D02*
G37*
G36*
X326776Y49488D02*
X323520D01*
Y46823D01*
X326776D01*
Y49488D01*
D02*
G37*
G36*
X201256Y49504D02*
X198000D01*
Y46839D01*
X201256D01*
Y49504D01*
D02*
G37*
G36*
X197000D02*
X193744D01*
Y46839D01*
X197000D01*
Y49504D01*
D02*
G37*
G36*
X331031Y49488D02*
X327776D01*
Y46823D01*
X331031D01*
Y49488D01*
D02*
G37*
G36*
X30618Y255256D02*
X27953D01*
Y252000D01*
X30618D01*
Y255256D01*
D02*
G37*
G36*
X38500Y40831D02*
X38019Y40767D01*
X37106Y40389D01*
X36321Y39787D01*
X35719Y39002D01*
X35341Y38089D01*
X35278Y37608D01*
X38500D01*
Y40831D01*
D02*
G37*
G36*
X30618Y40864D02*
X27953D01*
Y37608D01*
X30618D01*
Y40864D01*
D02*
G37*
G36*
X252000Y162464D02*
Y159500D01*
X254964D01*
X254910Y159914D01*
X254557Y160765D01*
X253996Y161496D01*
X253265Y162057D01*
X252414Y162410D01*
X252000Y162464D01*
D02*
G37*
G36*
X39500Y40831D02*
Y37608D01*
X42722D01*
X42659Y38089D01*
X42281Y39002D01*
X41679Y39787D01*
X40894Y40389D01*
X39981Y40767D01*
X39500Y40831D01*
D02*
G37*
G36*
X38500Y255223D02*
X38019Y255159D01*
X37106Y254781D01*
X36321Y254179D01*
X35719Y253394D01*
X35341Y252481D01*
X35278Y252000D01*
X38500D01*
Y255223D01*
D02*
G37*
G36*
X39500D02*
Y252000D01*
X42722D01*
X42659Y252481D01*
X42281Y253394D01*
X41679Y254179D01*
X40894Y254781D01*
X39981Y255159D01*
X39500Y255223D01*
D02*
G37*
G36*
X363973Y256500D02*
X360000D01*
Y252527D01*
X360675Y252616D01*
X361769Y253069D01*
X362709Y253791D01*
X363431Y254731D01*
X363884Y255825D01*
X363973Y256500D01*
D02*
G37*
G36*
X345323Y58740D02*
X342657D01*
Y55484D01*
X345323D01*
Y58740D01*
D02*
G37*
G36*
X291500Y208166D02*
X291034Y208105D01*
X290134Y207732D01*
X289361Y207139D01*
X288768Y206366D01*
X288395Y205466D01*
X288334Y205000D01*
X291500D01*
Y208166D01*
D02*
G37*
G36*
X292500D02*
Y205000D01*
X295666D01*
X295605Y205466D01*
X295232Y206366D01*
X294639Y207139D01*
X293866Y207732D01*
X292966Y208105D01*
X292500Y208166D01*
D02*
G37*
G36*
X30618Y112364D02*
X27953D01*
Y109108D01*
X30618D01*
Y112364D01*
D02*
G37*
G36*
X173256Y207547D02*
X170000D01*
Y204882D01*
X173256D01*
Y207547D01*
D02*
G37*
G36*
X38500Y108108D02*
X35278D01*
X35341Y107628D01*
X35719Y106714D01*
X36321Y105929D01*
X37106Y105327D01*
X38019Y104949D01*
X38500Y104886D01*
Y108108D01*
D02*
G37*
G36*
X42722D02*
X39500D01*
Y104886D01*
X39981Y104949D01*
X40894Y105327D01*
X41679Y105929D01*
X42281Y106714D01*
X42659Y107628D01*
X42722Y108108D01*
D02*
G37*
G36*
X169000Y207547D02*
X165744D01*
Y204882D01*
X169000D01*
Y207547D01*
D02*
G37*
G36*
X42722Y179608D02*
X39500D01*
Y176386D01*
X39981Y176449D01*
X40894Y176827D01*
X41679Y177429D01*
X42281Y178214D01*
X42659Y179128D01*
X42722Y179608D01*
D02*
G37*
G36*
X38500D02*
X35278D01*
X35341Y179128D01*
X35719Y178214D01*
X36321Y177429D01*
X37106Y176827D01*
X38019Y176449D01*
X38500Y176386D01*
Y179608D01*
D02*
G37*
G36*
X30618Y179608D02*
X27953D01*
Y176352D01*
X30618D01*
Y179608D01*
D02*
G37*
G36*
X39500Y112331D02*
Y109108D01*
X42722D01*
X42659Y109589D01*
X42281Y110502D01*
X41679Y111287D01*
X40894Y111889D01*
X39981Y112267D01*
X39500Y112331D01*
D02*
G37*
G36*
X127492Y88500D02*
X119500D01*
Y80508D01*
X120666Y80623D01*
X122269Y81109D01*
X123745Y81898D01*
X125040Y82960D01*
X126102Y84255D01*
X126891Y85731D01*
X127377Y87334D01*
X127492Y88500D01*
D02*
G37*
G36*
X118500D02*
X110508D01*
X110623Y87334D01*
X111109Y85731D01*
X111898Y84255D01*
X112961Y82960D01*
X114255Y81898D01*
X115731Y81109D01*
X117334Y80623D01*
X118500Y80508D01*
Y88500D01*
D02*
G37*
G36*
X38500Y112331D02*
X38019Y112267D01*
X37106Y111889D01*
X36321Y111287D01*
X35719Y110502D01*
X35341Y109589D01*
X35278Y109108D01*
X38500D01*
Y112331D01*
D02*
G37*
G36*
X30618Y108108D02*
X27953D01*
Y104852D01*
X30618D01*
Y108108D01*
D02*
G37*
G36*
X119500Y97492D02*
Y89500D01*
X127492D01*
X127377Y90666D01*
X126891Y92269D01*
X126102Y93745D01*
X125040Y95039D01*
X123745Y96102D01*
X122269Y96891D01*
X120666Y97377D01*
X119500Y97492D01*
D02*
G37*
G36*
X118500D02*
X117334Y97377D01*
X115731Y96891D01*
X114255Y96102D01*
X112961Y95039D01*
X111898Y93745D01*
X111109Y92269D01*
X110623Y90666D01*
X110508Y89500D01*
X118500D01*
Y97492D01*
D02*
G37*
G36*
X154590Y100713D02*
X151925D01*
Y97457D01*
X154590D01*
Y100713D01*
D02*
G37*
G36*
X326500Y185547D02*
X323244D01*
Y182882D01*
X326500D01*
Y185547D01*
D02*
G37*
G36*
X330756D02*
X327500D01*
Y182882D01*
X330756D01*
Y185547D01*
D02*
G37*
G36*
X154590Y96457D02*
X151925D01*
Y93201D01*
X154590D01*
Y96457D01*
D02*
G37*
G36*
X284047Y96500D02*
X281382D01*
Y93244D01*
X284047D01*
Y96500D01*
D02*
G37*
G36*
X58400Y105368D02*
X55500D01*
Y103818D01*
X58400D01*
Y105368D01*
D02*
G37*
G36*
X291500Y204000D02*
X288334D01*
X288395Y203534D01*
X288768Y202634D01*
X289361Y201861D01*
X290134Y201268D01*
X291034Y200895D01*
X291500Y200834D01*
Y204000D01*
D02*
G37*
G36*
X295666D02*
X292500D01*
Y200834D01*
X292966Y200895D01*
X293866Y201268D01*
X294639Y201861D01*
X295232Y202634D01*
X295605Y203534D01*
X295666Y204000D01*
D02*
G37*
G36*
X30618Y183864D02*
X27953D01*
Y180608D01*
X30618D01*
Y183864D01*
D02*
G37*
G36*
X284047Y100756D02*
X281382D01*
Y97500D01*
X284047D01*
Y100756D01*
D02*
G37*
G36*
X39500Y183831D02*
Y180608D01*
X42722D01*
X42659Y181089D01*
X42281Y182002D01*
X41679Y182787D01*
X40894Y183389D01*
X39981Y183767D01*
X39500Y183831D01*
D02*
G37*
G36*
X38500D02*
X38019Y183767D01*
X37106Y183389D01*
X36321Y182787D01*
X35719Y182002D01*
X35341Y181089D01*
X35278Y180608D01*
X38500D01*
Y183831D01*
D02*
G37*
G36*
X221964Y70500D02*
X219000D01*
Y67536D01*
X219414Y67590D01*
X220265Y67943D01*
X220996Y68504D01*
X221557Y69235D01*
X221910Y70086D01*
X221964Y70500D01*
D02*
G37*
G36*
X218000D02*
X215036D01*
X215090Y70086D01*
X215443Y69235D01*
X216004Y68504D01*
X216735Y67943D01*
X217586Y67590D01*
X218000Y67536D01*
Y70500D01*
D02*
G37*
G36*
X351740Y70485D02*
X348776D01*
Y67520D01*
X349189Y67575D01*
X350041Y67927D01*
X350772Y68488D01*
X351333Y69219D01*
X351686Y70071D01*
X351740Y70485D01*
D02*
G37*
G36*
X119000Y233000D02*
X111008D01*
X111123Y231834D01*
X111609Y230231D01*
X112398Y228755D01*
X113461Y227461D01*
X114755Y226398D01*
X116231Y225609D01*
X117834Y225123D01*
X119000Y225008D01*
Y233000D01*
D02*
G37*
G36*
X205193Y74500D02*
X201937D01*
Y71047D01*
X205193D01*
Y74500D01*
D02*
G37*
G36*
X334968Y74484D02*
X331713D01*
Y71032D01*
X334968D01*
Y74484D01*
D02*
G37*
G36*
X264193Y224453D02*
X260937D01*
Y221000D01*
X264193D01*
Y224453D01*
D02*
G37*
G36*
X297000Y128992D02*
X295834Y128877D01*
X294231Y128391D01*
X292755Y127602D01*
X291460Y126540D01*
X290398Y125245D01*
X289609Y123769D01*
X289123Y122166D01*
X289008Y121000D01*
X297000D01*
Y128992D01*
D02*
G37*
G36*
X298000D02*
Y121000D01*
X305992D01*
X305877Y122166D01*
X305391Y123769D01*
X304602Y125245D01*
X303539Y126540D01*
X302245Y127602D01*
X300769Y128391D01*
X299166Y128877D01*
X298000Y128992D01*
D02*
G37*
G36*
X215547Y58756D02*
X212882D01*
Y55500D01*
X215547D01*
Y58756D01*
D02*
G37*
G36*
X299500Y179492D02*
X298334Y179377D01*
X296731Y178891D01*
X295255Y178102D01*
X293960Y177040D01*
X292898Y175745D01*
X292109Y174269D01*
X291623Y172666D01*
X291508Y171500D01*
X299500D01*
Y179492D01*
D02*
G37*
G36*
X347776Y70485D02*
X344811D01*
X344866Y70071D01*
X345218Y69219D01*
X345779Y68488D01*
X346511Y67927D01*
X347362Y67575D01*
X347776Y67520D01*
Y70485D01*
D02*
G37*
G36*
X127992Y233000D02*
X120000D01*
Y225008D01*
X121166Y225123D01*
X122769Y225609D01*
X124245Y226398D01*
X125540Y227461D01*
X126602Y228755D01*
X127391Y230231D01*
X127877Y231834D01*
X127992Y233000D01*
D02*
G37*
G36*
X300500Y179492D02*
Y171500D01*
X308492D01*
X308377Y172666D01*
X307891Y174269D01*
X307102Y175745D01*
X306040Y177040D01*
X304745Y178102D01*
X303269Y178891D01*
X301666Y179377D01*
X300500Y179492D01*
D02*
G37*
G36*
X347776Y74449D02*
X347362Y74394D01*
X346511Y74042D01*
X345779Y73481D01*
X345218Y72750D01*
X344866Y71898D01*
X344811Y71485D01*
X347776D01*
Y74449D01*
D02*
G37*
G36*
X305992Y120000D02*
X298000D01*
Y112008D01*
X299166Y112123D01*
X300769Y112609D01*
X302245Y113398D01*
X303539Y114461D01*
X304602Y115755D01*
X305391Y117231D01*
X305877Y118834D01*
X305992Y120000D01*
D02*
G37*
G36*
X211000Y217000D02*
X208036D01*
X208090Y216586D01*
X208443Y215735D01*
X209004Y215004D01*
X209735Y214443D01*
X210586Y214090D01*
X211000Y214036D01*
Y217000D01*
D02*
G37*
G36*
X214964D02*
X212000D01*
Y214036D01*
X212414Y214090D01*
X213265Y214443D01*
X213996Y215004D01*
X214557Y215735D01*
X214910Y216586D01*
X214964Y217000D01*
D02*
G37*
G36*
X297000Y120000D02*
X289008D01*
X289123Y118834D01*
X289609Y117231D01*
X290398Y115755D01*
X291460Y114461D01*
X292755Y113398D01*
X294231Y112609D01*
X295834Y112123D01*
X297000Y112008D01*
Y120000D01*
D02*
G37*
G36*
X58400Y176868D02*
X55500D01*
Y175318D01*
X58400D01*
Y176868D01*
D02*
G37*
G36*
X205193Y78953D02*
X201937D01*
Y75500D01*
X205193D01*
Y78953D01*
D02*
G37*
G36*
X334968Y78937D02*
X331713D01*
Y75485D01*
X334968D01*
Y78937D01*
D02*
G37*
G36*
X219000Y74464D02*
Y71500D01*
X221964D01*
X221910Y71914D01*
X221557Y72765D01*
X220996Y73496D01*
X220265Y74057D01*
X219414Y74410D01*
X219000Y74464D01*
D02*
G37*
G36*
X218000D02*
X217586Y74410D01*
X216735Y74057D01*
X216004Y73496D01*
X215443Y72765D01*
X215090Y71914D01*
X215036Y71500D01*
X218000D01*
Y74464D01*
D02*
G37*
G36*
X348776Y74449D02*
Y71485D01*
X351740D01*
X351686Y71898D01*
X351333Y72750D01*
X350772Y73481D01*
X350041Y74042D01*
X349189Y74394D01*
X348776Y74449D01*
D02*
G37*
G36*
X212000Y220964D02*
Y218000D01*
X214964D01*
X214910Y218414D01*
X214557Y219265D01*
X213996Y219996D01*
X213265Y220557D01*
X212414Y220910D01*
X212000Y220964D01*
D02*
G37*
G36*
X327500Y181992D02*
X326334Y181877D01*
X324731Y181391D01*
X323255Y180602D01*
X321960Y179540D01*
X320898Y178245D01*
X320109Y176769D01*
X319623Y175166D01*
X319508Y174000D01*
X327500D01*
Y181992D01*
D02*
G37*
G36*
X264193Y220000D02*
X260937D01*
Y216547D01*
X264193D01*
Y220000D01*
D02*
G37*
G36*
X211000Y220964D02*
X210586Y220910D01*
X209735Y220557D01*
X209004Y219996D01*
X208443Y219265D01*
X208090Y218414D01*
X208036Y218000D01*
X211000D01*
Y220964D01*
D02*
G37*
%LPD*%
D10*
X58900Y256240D02*
D03*
Y252500D02*
D03*
Y248760D02*
D03*
X68100D02*
D03*
Y252500D02*
D03*
Y256240D02*
D03*
X58900Y184848D02*
D03*
Y181108D02*
D03*
Y177368D02*
D03*
X68100D02*
D03*
Y181108D02*
D03*
Y184848D02*
D03*
X58900Y113348D02*
D03*
Y109608D02*
D03*
Y105868D02*
D03*
X68100D02*
D03*
Y109608D02*
D03*
Y113348D02*
D03*
X58900Y41848D02*
D03*
Y38108D02*
D03*
Y34368D02*
D03*
X68100D02*
D03*
Y38108D02*
D03*
Y41848D02*
D03*
D11*
X169500Y213953D02*
D03*
Y208047D02*
D03*
X327000Y191953D02*
D03*
Y186047D02*
D03*
X239500Y162953D02*
D03*
Y157047D02*
D03*
X164500Y240047D02*
D03*
Y245953D02*
D03*
X366776Y55437D02*
D03*
Y49532D02*
D03*
X237000Y55453D02*
D03*
Y49547D02*
D03*
X323776Y90894D02*
D03*
Y84988D02*
D03*
X194000Y90909D02*
D03*
Y85004D02*
D03*
X343276Y84988D02*
D03*
Y90894D02*
D03*
X213500Y85004D02*
D03*
Y90909D02*
D03*
X327276Y49988D02*
D03*
Y55894D02*
D03*
X197500Y50004D02*
D03*
Y55910D02*
D03*
D12*
X356453Y114500D02*
D03*
X350547D02*
D03*
X27453Y251500D02*
D03*
X21547D02*
D03*
X27453Y180108D02*
D03*
X21547D02*
D03*
X27453Y108608D02*
D03*
X21547D02*
D03*
X27453Y37108D02*
D03*
X21547D02*
D03*
X295323Y49984D02*
D03*
X301228D02*
D03*
X165547Y50000D02*
D03*
X171453D02*
D03*
X290453Y97000D02*
D03*
X284547D02*
D03*
X160996Y96957D02*
D03*
X155090D02*
D03*
X351728Y54984D02*
D03*
X345823D02*
D03*
X221953Y55000D02*
D03*
X216047D02*
D03*
X311323Y49941D02*
D03*
X317228D02*
D03*
X181547Y49957D02*
D03*
X187453D02*
D03*
D13*
X368000Y132400D02*
D03*
X378000D02*
D03*
X388000D02*
D03*
D14*
X378000Y165600D02*
D03*
D15*
X296276Y79984D02*
D03*
X166500Y80000D02*
D03*
D16*
X304551Y84907D02*
D03*
Y82938D02*
D03*
Y80969D02*
D03*
Y79000D02*
D03*
Y77031D02*
D03*
Y75062D02*
D03*
X288000D02*
D03*
Y77031D02*
D03*
Y79000D02*
D03*
Y80969D02*
D03*
Y82938D02*
D03*
Y84907D02*
D03*
X174776Y84922D02*
D03*
Y82954D02*
D03*
Y80984D02*
D03*
Y79015D02*
D03*
Y77047D02*
D03*
Y75077D02*
D03*
X158224D02*
D03*
Y77047D02*
D03*
Y79015D02*
D03*
Y80984D02*
D03*
Y82954D02*
D03*
Y84922D02*
D03*
D17*
X301197Y71709D02*
D03*
X299228D02*
D03*
X297260D02*
D03*
X295291D02*
D03*
X293323D02*
D03*
X291354D02*
D03*
Y88260D02*
D03*
X293323D02*
D03*
X295291D02*
D03*
X297260D02*
D03*
X299228D02*
D03*
X301197D02*
D03*
X171421Y71724D02*
D03*
X169453D02*
D03*
X167484D02*
D03*
X165516D02*
D03*
X163547D02*
D03*
X161579D02*
D03*
Y88276D02*
D03*
X163547D02*
D03*
X165516D02*
D03*
X167484D02*
D03*
X169453D02*
D03*
X171421D02*
D03*
D18*
X240650Y177500D02*
D03*
X234350D02*
D03*
X277126Y59984D02*
D03*
X283425D02*
D03*
X147350Y60000D02*
D03*
X153650D02*
D03*
D19*
X276500Y198563D02*
D03*
Y206437D02*
D03*
X363500Y207437D02*
D03*
Y199563D02*
D03*
X352500Y207563D02*
D03*
Y215437D02*
D03*
X184000Y239063D02*
D03*
Y246937D02*
D03*
X378819Y56378D02*
D03*
Y48504D02*
D03*
X249043Y56394D02*
D03*
Y48520D02*
D03*
X360276Y91378D02*
D03*
Y83504D02*
D03*
X230500Y91394D02*
D03*
Y83520D02*
D03*
X378776Y92878D02*
D03*
Y85004D02*
D03*
X249000Y92894D02*
D03*
Y85020D02*
D03*
X378819Y73878D02*
D03*
Y66004D02*
D03*
X249043Y73894D02*
D03*
Y66020D02*
D03*
D20*
X197563Y146500D02*
D03*
X205437D02*
D03*
X310437Y189000D02*
D03*
X302563D02*
D03*
X196937Y206500D02*
D03*
X189063D02*
D03*
X205437Y137500D02*
D03*
X197563D02*
D03*
X252563Y220500D02*
D03*
X260437D02*
D03*
X220437Y137500D02*
D03*
X212563D02*
D03*
X323339Y74985D02*
D03*
X331213D02*
D03*
X193563Y75000D02*
D03*
X201437D02*
D03*
D21*
X83000Y264268D02*
D03*
X88000D02*
D03*
X93000D02*
D03*
X98000D02*
D03*
Y236732D02*
D03*
X93000D02*
D03*
X88000D02*
D03*
X83000D02*
D03*
Y192876D02*
D03*
X88000D02*
D03*
X93000D02*
D03*
X98000D02*
D03*
Y165340D02*
D03*
X93000D02*
D03*
X88000D02*
D03*
X83000D02*
D03*
Y121376D02*
D03*
X88000D02*
D03*
X93000D02*
D03*
X98000D02*
D03*
Y93840D02*
D03*
X93000D02*
D03*
X88000D02*
D03*
X83000D02*
D03*
Y49876D02*
D03*
X88000D02*
D03*
X93000D02*
D03*
X98000D02*
D03*
Y22340D02*
D03*
X93000D02*
D03*
X88000D02*
D03*
X83000D02*
D03*
D22*
X232720Y209339D02*
D03*
Y206780D02*
D03*
Y204221D02*
D03*
Y201661D02*
D03*
X260279Y209339D02*
D03*
Y206780D02*
D03*
Y204221D02*
D03*
Y201661D02*
D03*
D23*
X232720Y209339D02*
Y211720D01*
X58900Y248760D02*
Y252500D01*
Y177368D02*
Y180048D01*
Y105868D02*
Y108548D01*
Y34368D02*
Y37048D01*
X158224Y82954D02*
Y84922D01*
Y75077D02*
Y77047D01*
X178454D02*
X181000Y74500D01*
X174776Y77047D02*
X178454D01*
X308469Y77031D02*
X311000Y74500D01*
X304551Y77031D02*
X308469D01*
X288000Y75062D02*
Y77031D01*
Y82938D02*
Y84907D01*
X342500Y114500D02*
X350537D01*
X247500Y84504D02*
X249000Y86004D01*
X377276Y84488D02*
X378776Y85988D01*
D24*
X220043Y137500D02*
Y146543D01*
X219453Y137500D02*
Y137500D01*
X212957D02*
X213547D01*
X204453D02*
X212957D01*
X220043Y146543D02*
X229000Y155500D01*
X181000Y184000D02*
X190000D01*
X181000D02*
Y206500D01*
X181000Y206500D01*
X188957D01*
X206500Y118667D02*
X206933Y119100D01*
X171500Y50543D02*
Y66000D01*
Y50543D02*
X172087Y49957D01*
X180957Y49957D02*
Y54500D01*
X213500Y85413D02*
X214457Y84457D01*
Y83457D02*
X230500D01*
X187500Y83000D02*
X188957Y84457D01*
X193957D01*
Y85457D02*
X194000Y85413D01*
X194000Y85413D02*
X194457Y84957D01*
Y83957D02*
X203500D01*
Y91457D01*
X203543Y91500D02*
X213500D01*
X174878Y78913D02*
X189650D01*
X176319Y85005D02*
X178613D01*
X178661Y84957D01*
X182500D01*
Y98370D01*
X220000Y174000D02*
X229000Y165000D01*
Y155500D02*
Y165000D01*
X212957Y137500D02*
X213000Y137543D01*
X220000Y184000D02*
X227457D01*
X233957Y177500D01*
X241043D02*
Y183757D01*
X233800Y191000D02*
X241043Y183757D01*
X196543Y200457D02*
Y206500D01*
Y200457D02*
X207000Y190000D01*
Y184000D02*
Y190000D01*
Y184000D02*
X220000D01*
X164500Y245953D02*
X195024D01*
X181000Y140500D02*
X187000Y146500D01*
X198547D01*
X190000Y174000D02*
X213000Y151000D01*
Y137543D02*
Y151000D01*
X176322Y82957D02*
X187500D01*
X176319Y82954D02*
X176322Y82957D01*
X166835Y71500D02*
X167559Y72224D01*
X171421Y71724D02*
X171753D01*
X163547D02*
X165516D01*
X167484D01*
X194000Y91500D02*
Y96000D01*
X230500D01*
Y91000D02*
Y96000D01*
X182500Y98370D02*
X249000D01*
Y92500D02*
Y98370D01*
X230500Y83457D02*
X240043Y93000D01*
X247500D01*
X249000Y91500D01*
X249043Y73894D02*
X256000D01*
X249043Y48520D02*
Y49547D01*
X237000D02*
X249043D01*
X171753Y71724D02*
X173547Y69930D01*
Y61910D02*
X180957Y54500D01*
X173547Y61910D02*
Y69930D01*
X169500Y68000D02*
X171500Y66000D01*
X169453Y68000D02*
X169500D01*
X169453D02*
Y71724D01*
X167559Y72224D02*
X169445D01*
X189650Y78913D02*
X193563Y75000D01*
X192090Y55910D02*
X197500D01*
X176319Y71681D02*
X192090Y55910D01*
X176319Y71681D02*
Y75077D01*
X249043Y56000D02*
X256000D01*
Y92500D01*
X249000D02*
X256000D01*
X219453Y137500D02*
X220437D01*
X232000D01*
X272500Y166000D02*
Y189000D01*
X257500Y151000D02*
X272500Y166000D01*
X232000Y137500D02*
X245500Y151000D01*
X257500D01*
X194563Y134500D02*
X197563Y137500D01*
X198547D01*
X152000Y150000D02*
X167500Y134500D01*
X194563D01*
X172500Y140500D02*
X181000D01*
X220347Y198200D02*
X221740D01*
X224200Y195740D01*
Y195650D02*
Y195740D01*
Y195650D02*
X228850Y191000D01*
X209294Y205287D02*
X213260D01*
X194500Y220082D02*
Y224500D01*
X213260Y205287D02*
X220347Y198200D01*
X78220Y228087D02*
Y247039D01*
Y228087D02*
X85260Y221047D01*
X72760Y252500D02*
X78220Y247039D01*
X68100Y252500D02*
X72760D01*
X85260Y221047D02*
X90606D01*
X97780Y228221D01*
X333319Y91484D02*
X343276D01*
X333276Y83941D02*
Y91441D01*
X324232Y83941D02*
X333276D01*
X301276Y50528D02*
X301862Y49941D01*
X378819Y48504D02*
Y49532D01*
X366776D02*
X378819D01*
X343276Y85398D02*
X344232Y84441D01*
Y83441D02*
X360276D01*
X360276Y90984D02*
Y95985D01*
X323776D02*
X360276D01*
X323776Y91484D02*
Y95985D01*
X377276Y92984D02*
X378776Y91484D01*
X369819Y92984D02*
X377276D01*
X360276Y83441D02*
X369819Y92984D01*
X378776Y92484D02*
X385776D01*
X378819Y73878D02*
X385776D01*
Y55984D02*
Y92484D01*
X378819Y55984D02*
X385776D01*
X295291Y71709D02*
X297260D01*
X293323D02*
X295291D01*
X299276Y67984D02*
X301276Y65984D01*
X299228Y67984D02*
X299276D01*
X301276Y50528D02*
Y65984D01*
X299228Y67984D02*
Y71709D01*
X303323Y61894D02*
X310732Y54484D01*
X303323Y61894D02*
Y69914D01*
X310732Y49941D02*
Y54484D01*
X301528Y71709D02*
X303323Y69914D01*
X301197Y71709D02*
X301528D01*
X321866Y55894D02*
X327276D01*
X306095Y71666D02*
X321866Y55894D01*
X306095Y71666D02*
Y75062D01*
X319425Y78898D02*
X323339Y74985D01*
X304653Y78898D02*
X319425D01*
X323732Y85441D02*
X323776Y85398D01*
X323776Y85398D02*
X324232Y84941D01*
X317276Y82985D02*
X318732Y84441D01*
X323732D01*
X306098Y82941D02*
X317276D01*
X306095Y82938D02*
X306098Y82941D01*
X378776Y92484D02*
Y98355D01*
X312276Y84941D02*
Y98355D01*
X378776D01*
X308437Y84941D02*
X312276D01*
X306095Y84989D02*
X308389D01*
X308437Y84941D01*
X164500Y224500D02*
Y240047D01*
X195024Y245976D02*
X220500Y220500D01*
X182409Y240047D02*
X182410Y240047D01*
X164500Y240047D02*
X182409D01*
X97780Y228221D02*
Y236511D01*
X72760Y181108D02*
X78220Y175647D01*
Y156695D02*
X85260Y149655D01*
X68100Y181108D02*
X72760D01*
X85260Y149655D02*
X90606D01*
X97780Y156829D01*
X78220Y156695D02*
Y175647D01*
X97780Y156829D02*
Y165120D01*
X72760Y109608D02*
X78220Y104147D01*
Y85195D02*
X85260Y78155D01*
X68100Y109608D02*
X72760D01*
X85260Y78155D02*
X90606D01*
X97780Y85329D01*
X78220Y85195D02*
Y104147D01*
X97780Y85329D02*
Y93620D01*
X72760Y38108D02*
X78220Y32647D01*
Y13695D02*
X85260Y6655D01*
X68100Y38108D02*
X72760D01*
X85260Y6655D02*
X90606D01*
X97780Y13829D01*
X78220Y13695D02*
Y32647D01*
X97780Y13829D02*
Y22120D01*
X260279Y204221D02*
X270220D01*
X270500Y203941D01*
Y198000D02*
Y203941D01*
Y198000D02*
X275937D01*
X276500Y198563D01*
X260279Y206780D02*
X276157D01*
X276500Y206437D01*
X252563Y213063D02*
Y220500D01*
Y213063D02*
X252626Y213000D01*
X256618D01*
X260279Y209339D01*
X352500Y207563D02*
X363374D01*
X363500Y207437D01*
X232720Y191279D02*
Y201661D01*
X228850Y191000D02*
X233800D01*
X272500Y189000D02*
X302563D01*
Y213937D01*
X301500Y215000D02*
X302563Y213937D01*
X292000Y215000D02*
X301500D01*
X292000Y225000D02*
Y235000D01*
X301000D01*
Y240500D01*
X319232D01*
X319432Y240700D01*
X336300D01*
X346500Y230500D01*
Y207500D02*
Y230500D01*
Y207500D02*
X346563Y207563D01*
X352500D01*
X220500Y220500D02*
X252563D01*
X169500Y213953D02*
X198535D01*
X198663Y214082D01*
X200500D01*
X209294Y205287D01*
X194500Y220082D02*
X200500Y214082D01*
X385500Y199500D02*
Y227000D01*
X363437Y199500D02*
X385500D01*
X349500Y242000D02*
Y257000D01*
Y242000D02*
X352500Y239000D01*
Y215437D02*
Y239000D01*
X209500Y10499D02*
Y7500D01*
X210999D01*
X211499Y8000D01*
Y9999D01*
X210999Y10499D01*
X209500D01*
X212499Y7500D02*
Y9499D01*
X213499Y10499D01*
X214498Y9499D01*
Y7500D01*
Y8999D01*
X212499D01*
X215498Y7500D02*
Y10499D01*
X217497Y7500D01*
Y10499D01*
X218497D02*
X219497D01*
X218997D01*
Y7500D01*
X218497D01*
X219497D01*
X222996Y10499D02*
X220996D01*
Y7500D01*
X222996D01*
X220996Y8999D02*
X221996D01*
X223995Y10499D02*
Y7500D01*
X225995D01*
X231993Y10499D02*
X230993D01*
X231493D01*
Y8000D01*
X230993Y7500D01*
X230493D01*
X229993Y8000D01*
X234992Y10499D02*
X232992D01*
Y7500D01*
X234992D01*
X232992Y8999D02*
X233992D01*
X235991Y7500D02*
Y10499D01*
X237991Y7500D01*
Y10499D01*
X240990Y9999D02*
X240490Y10499D01*
X239490D01*
X238990Y9999D01*
Y9499D01*
X239490Y8999D01*
X240490D01*
X240990Y8500D01*
Y8000D01*
X240490Y7500D01*
X239490D01*
X238990Y8000D01*
X243989Y10499D02*
X241989D01*
Y7500D01*
X243989D01*
X241989Y8999D02*
X242989D01*
X244988Y7500D02*
Y10499D01*
X246988Y7500D01*
Y10499D01*
X248487Y7000D02*
X248987Y7500D01*
Y8000D01*
X248487D01*
Y7500D01*
X248987D01*
X248487Y7000D01*
X247988Y6500D01*
X253986Y10499D02*
Y7500D01*
Y8500D01*
X255985Y10499D01*
X254485Y8999D01*
X255985Y7500D01*
X258984Y10499D02*
X256985D01*
Y7500D01*
X258984D01*
X256985Y8999D02*
X257984D01*
X259984Y10499D02*
Y8500D01*
X260983Y7500D01*
X261983Y8500D01*
Y10499D01*
X262983D02*
X263982D01*
X263482D01*
Y7500D01*
X262983D01*
X263982D01*
X265482D02*
Y10499D01*
X267481Y7500D01*
Y10499D01*
X273479D02*
X271480D01*
Y8999D01*
X272480D01*
X271480D01*
Y7500D01*
X274479D02*
Y10499D01*
X275978D01*
X276478Y9999D01*
Y8999D01*
X275978Y8500D01*
X274479D01*
X275479D02*
X276478Y7500D01*
X279477Y10499D02*
X277478D01*
Y7500D01*
X279477D01*
X277478Y8999D02*
X278478D01*
X280477Y7500D02*
Y10499D01*
X282476Y7500D01*
Y10499D01*
X285475Y9999D02*
X284976Y10499D01*
X283976D01*
X283476Y9999D01*
Y8000D01*
X283976Y7500D01*
X284976D01*
X285475Y8000D01*
X286475Y10499D02*
Y7500D01*
Y8999D01*
X288474D01*
Y10499D01*
Y7500D01*
X215500Y18999D02*
X216500D01*
X216000D01*
Y16000D01*
X215500D01*
X216500D01*
X217999D02*
Y18999D01*
X219999Y16000D01*
Y18999D01*
X220998D02*
Y17000D01*
X221998Y16000D01*
X222998Y17000D01*
Y18999D01*
X225997D02*
X223997D01*
Y16000D01*
X225997D01*
X223997Y17500D02*
X224997D01*
X228996Y18499D02*
X228496Y18999D01*
X227496D01*
X226996Y18499D01*
Y17999D01*
X227496Y17500D01*
X228496D01*
X228996Y17000D01*
Y16500D01*
X228496Y16000D01*
X227496D01*
X226996Y16500D01*
X229995Y18999D02*
X231995D01*
X230995D01*
Y16000D01*
X232994Y18999D02*
X233994D01*
X233494D01*
Y16000D01*
X232994D01*
X233994D01*
X237493Y18499D02*
X236993Y18999D01*
X235993D01*
X235493Y18499D01*
Y16500D01*
X235993Y16000D01*
X236993D01*
X237493Y16500D01*
Y17500D01*
X236493D01*
X238493Y16000D02*
Y17999D01*
X239492Y18999D01*
X240492Y17999D01*
Y16000D01*
Y17500D01*
X238493D01*
X241492Y18999D02*
X243491D01*
X242491D01*
Y16000D01*
X245990Y18999D02*
X244990D01*
X244491Y18499D01*
Y16500D01*
X244990Y16000D01*
X245990D01*
X246490Y16500D01*
Y18499D01*
X245990Y18999D01*
X247490Y16000D02*
Y18999D01*
X248989D01*
X249489Y18499D01*
Y17500D01*
X248989Y17000D01*
X247490D01*
X248489D02*
X249489Y16000D01*
X252488Y18499D02*
X251988Y18999D01*
X250989D01*
X250489Y18499D01*
Y17999D01*
X250989Y17500D01*
X251988D01*
X252488Y17000D01*
Y16500D01*
X251988Y16000D01*
X250989D01*
X250489Y16500D01*
X256487Y16000D02*
Y18999D01*
X257986D01*
X258486Y18499D01*
Y17500D01*
X257986Y17000D01*
X256487D01*
X260985Y18999D02*
X259986D01*
X259486Y18499D01*
Y16500D01*
X259986Y16000D01*
X260985D01*
X261485Y16500D01*
Y18499D01*
X260985Y18999D01*
X262485D02*
Y16000D01*
X263485Y17000D01*
X264484Y16000D01*
Y18999D01*
X267483D02*
X265484D01*
Y16000D01*
X267483D01*
X265484Y17500D02*
X266483D01*
X268483Y16000D02*
Y18999D01*
X269982D01*
X270482Y18499D01*
Y17500D01*
X269982Y17000D01*
X268483D01*
X269482D02*
X270482Y16000D01*
X274481Y18999D02*
Y16000D01*
X275980D01*
X276480Y16500D01*
Y17000D01*
X275980Y17500D01*
X274481D01*
X275980D01*
X276480Y17999D01*
Y18499D01*
X275980Y18999D01*
X274481D01*
X278979D02*
X277980D01*
X277480Y18499D01*
Y16500D01*
X277980Y16000D01*
X278979D01*
X279479Y16500D01*
Y18499D01*
X278979Y18999D01*
X280479Y16000D02*
Y17999D01*
X281479Y18999D01*
X282478Y17999D01*
Y16000D01*
Y17500D01*
X280479D01*
X283478Y16000D02*
Y18999D01*
X284978D01*
X285477Y18499D01*
Y17500D01*
X284978Y17000D01*
X283478D01*
X284478D02*
X285477Y16000D01*
X286477Y18999D02*
Y16000D01*
X287977D01*
X288476Y16500D01*
Y18499D01*
X287977Y18999D01*
X286477D01*
X292475D02*
Y17000D01*
X293475Y16000D01*
X294474Y17000D01*
Y18999D01*
X297474Y16000D02*
X295474D01*
X297474Y17999D01*
Y18499D01*
X296974Y18999D01*
X295974D01*
X295474Y18499D01*
D25*
X206000Y104500D02*
Y118567D01*
X167500Y104457D02*
X206000D01*
X167500Y96957D02*
Y104457D01*
X161587Y96957D02*
X167500D01*
X237043Y66413D02*
X249043D01*
X356453Y114500D02*
X370500D01*
X370500Y114500D02*
X388000D01*
X327500Y280500D02*
X328000Y280000D01*
X370500Y106500D02*
Y114500D01*
X134500Y254000D02*
X161000Y280500D01*
X227500D01*
X96000Y179000D02*
X134500D01*
Y110000D02*
Y179000D01*
Y254000D01*
X94000Y110000D02*
X134500D01*
Y39500D02*
Y110000D01*
X95500Y39500D02*
X134500D01*
X237000Y55453D02*
Y66413D01*
X221953Y55453D02*
X237000D01*
X257500Y98000D02*
Y121000D01*
X221953Y39500D02*
Y54000D01*
X163547Y69898D02*
Y71724D01*
X154000Y39500D02*
X221953D01*
X147350Y46150D02*
X154000Y39500D01*
X147350Y46150D02*
Y60000D01*
X155547D02*
X165547Y50000D01*
X154598Y60949D02*
X163547Y69898D01*
X221953Y39500D02*
X263000D01*
Y98000D01*
X257500D02*
X263000D01*
X160996Y88858D02*
X161579Y88276D01*
X160996Y88858D02*
Y96957D01*
X161579Y88276D02*
X163547D01*
X165516D01*
X206933Y119100D02*
X237922D01*
X252322Y133500D01*
X290453Y97000D02*
Y106047D01*
X263000Y133500D02*
X290453Y106047D01*
X254992Y133500D02*
X260331D01*
X252322D02*
X254992D01*
X260331D02*
X263000D01*
X388000Y114000D02*
Y130900D01*
Y114000D02*
X392776Y109224D01*
Y39485D02*
Y109224D01*
X308000Y131500D02*
Y145000D01*
Y131500D02*
X333000Y106500D01*
X370500D01*
X144000Y136167D02*
X161067Y119100D01*
X144000Y136167D02*
Y237473D01*
X39000Y281500D02*
X112000D01*
X120000Y273500D01*
X21547Y245256D02*
Y251500D01*
X30803Y236000D02*
X42067D01*
X21547Y245256D02*
X30803Y236000D01*
X42067Y227500D02*
Y236000D01*
X66500D01*
X69000Y238500D01*
Y248000D01*
X69126Y257266D02*
X77360Y265500D01*
X21547Y251500D02*
Y264047D01*
X39000Y281500D01*
X351728Y55437D02*
X366776D01*
X285323Y59984D02*
X295323Y49984D01*
X351728Y39485D02*
X392776D01*
X351728D02*
Y53984D01*
X283776Y39485D02*
X351728D01*
X277126Y46134D02*
Y59984D01*
Y46134D02*
X283776Y39485D01*
X366819Y66398D02*
X378819D01*
X366776Y55437D02*
Y66398D01*
X291354Y88260D02*
X295291D01*
X290772Y88843D02*
X291354Y88260D01*
X290772Y88843D02*
Y96941D01*
X293323Y69882D02*
Y71709D01*
X284374Y60933D02*
X293323Y69882D01*
X161248Y254693D02*
X194085D01*
X144027Y237473D02*
X161248Y254693D01*
X87933Y227500D02*
Y236665D01*
X88000Y236732D01*
X91720D01*
X83720D02*
X88000D01*
X77360Y265500D02*
X97500D01*
X95000Y254000D02*
X134500D01*
X69126Y185874D02*
X77360Y194108D01*
X97500D01*
X83720Y165340D02*
X88000D01*
X87933Y165273D02*
X88000Y165340D01*
X87933Y156108D02*
Y165273D01*
X88000Y165340D02*
X91720D01*
X39000Y210108D02*
X112000D01*
X120000Y202108D01*
X21547Y173864D02*
Y180108D01*
X30803Y164608D02*
X42067D01*
X21547Y173864D02*
X30803Y164608D01*
X42067Y156108D02*
Y164608D01*
X66500D01*
X69000Y167108D01*
Y176608D01*
X21547Y180108D02*
Y192655D01*
X39000Y210108D01*
X69126Y114374D02*
X77360Y122608D01*
X97500D01*
X83720Y93840D02*
X88000D01*
X87933Y93773D02*
X88000Y93840D01*
X87933Y84608D02*
Y93773D01*
X88000Y93840D02*
X91720D01*
X39000Y138608D02*
X112000D01*
X120000Y130608D01*
X21547Y102364D02*
Y108608D01*
X30803Y93108D02*
X42067D01*
X21547Y102364D02*
X30803Y93108D01*
X42067Y84608D02*
Y93108D01*
X66500D01*
X69000Y95608D01*
Y105108D01*
X21547Y108608D02*
Y121155D01*
X39000Y138608D01*
X69126Y42874D02*
X77360Y51108D01*
X97500D01*
X83720Y22340D02*
X88000D01*
X87933Y22273D02*
X88000Y22340D01*
X87933Y13108D02*
Y22273D01*
X88000Y22340D02*
X91720D01*
X39000Y67108D02*
X112000D01*
X120000Y59108D01*
X21547Y30864D02*
Y37108D01*
X30803Y21608D02*
X42067D01*
X21547Y30864D02*
X30803Y21608D01*
X42067Y13108D02*
Y21608D01*
X66500D01*
X69000Y24108D01*
Y33608D01*
X21547Y37108D02*
Y49655D01*
X39000Y67108D01*
X194085Y254693D02*
X202778Y246000D01*
X316500D01*
X328000Y257500D01*
Y280000D01*
D26*
X222000Y179000D02*
X238000Y163000D01*
X247500Y170953D02*
Y185500D01*
X246500Y186500D02*
X247500Y185500D01*
X239500Y162953D02*
X247500Y170953D01*
X259453D01*
X172500Y160500D02*
X181000Y169000D01*
X183500Y179000D02*
X222000D01*
X181000Y176500D02*
X183500Y179000D01*
X181000Y169000D02*
Y176500D01*
X232720Y204221D02*
X246220D01*
X246500Y203941D01*
Y186500D02*
Y203941D01*
D27*
X328500Y133500D02*
X339500Y122500D01*
X328500Y133500D02*
X341000Y146000D01*
Y191547D01*
X339500Y122500D02*
X378000D01*
Y132400D01*
X310437Y189000D02*
X312984Y191547D01*
X310437Y189000D02*
Y234937D01*
X321937D01*
X322000Y235000D01*
X375500Y227000D02*
X377500Y229000D01*
Y230314D01*
X382186Y235000D01*
X393500Y198000D02*
Y230314D01*
X387047Y191547D02*
X393500Y198000D01*
X341000Y191547D02*
X387047D01*
X312984D02*
X341000D01*
X393500Y231500D02*
Y235000D01*
X382186D02*
X393500D01*
D28*
X232000Y137500D02*
D03*
X161067Y119100D02*
D03*
X42067Y227500D02*
D03*
Y156108D02*
D03*
Y84608D02*
D03*
Y12000D02*
D03*
D29*
X383000Y11500D02*
D03*
X150000D02*
D03*
X10500Y290000D02*
D03*
X150000D02*
D03*
X383000Y288500D02*
D03*
D30*
X385500Y227000D02*
D03*
X375500D02*
D03*
X359500Y257000D02*
D03*
X349500D02*
D03*
D31*
X206933Y119100D02*
D03*
X87933Y227500D02*
D03*
Y156108D02*
D03*
Y84608D02*
D03*
Y12000D02*
D03*
D32*
X190500Y194000D02*
D03*
X292000Y234500D02*
D03*
D33*
X190500Y184000D02*
D03*
Y174000D02*
D03*
Y164000D02*
D03*
X220500D02*
D03*
Y174000D02*
D03*
Y184000D02*
D03*
Y194000D02*
D03*
X292000Y224500D02*
D03*
Y214500D02*
D03*
Y204500D02*
D03*
X322000D02*
D03*
Y214500D02*
D03*
Y224500D02*
D03*
Y234500D02*
D03*
D34*
X260000Y171500D02*
D03*
X300000Y171000D02*
D03*
X327500Y133500D02*
D03*
X328000Y173500D02*
D03*
X257500Y121000D02*
D03*
X297500Y120500D02*
D03*
X308000Y145000D02*
D03*
X268000Y145500D02*
D03*
X119500Y233500D02*
D03*
X120000Y273500D02*
D03*
X120500Y161000D02*
D03*
X121000Y201000D02*
D03*
X119000Y89000D02*
D03*
X119500Y129000D02*
D03*
Y19500D02*
D03*
X120000Y59500D02*
D03*
D35*
X227500Y280500D02*
D03*
X327500D02*
D03*
D36*
X172500Y160500D02*
D03*
Y140500D02*
D03*
X152500Y150500D02*
D03*
D37*
X299376Y76885D02*
D03*
X296276D02*
D03*
X293176D02*
D03*
X299376Y79984D02*
D03*
X296276D02*
D03*
X293176D02*
D03*
X299376Y83084D02*
D03*
X296276D02*
D03*
X293176D02*
D03*
X169600Y76900D02*
D03*
X166500D02*
D03*
X163400D02*
D03*
X169600Y80000D02*
D03*
X166500D02*
D03*
X163400D02*
D03*
X169600Y83100D02*
D03*
X166500D02*
D03*
X163400D02*
D03*
D38*
X194500Y224500D02*
D03*
X164500D02*
D03*
X39000Y251500D02*
D03*
Y281500D02*
D03*
Y180108D02*
D03*
Y210108D02*
D03*
Y108608D02*
D03*
Y138608D02*
D03*
Y37108D02*
D03*
Y67108D02*
D03*
D39*
X342500Y114500D02*
D03*
X218500Y71000D02*
D03*
X348276Y70985D02*
D03*
X251500Y159000D02*
D03*
X211500Y217500D02*
D03*
X349000Y135500D02*
D03*
M02*
