G04 Layer_Color=8388736*
%FSLAX25Y25*%
%MOIN*%
G70*
G01*
G75*
%ADD49R,0.05600X0.02900*%
%ADD50R,0.09461X0.03162*%
%ADD51R,0.06312X0.05131*%
%ADD52R,0.05131X0.06312*%
%ADD53R,0.08600X0.03000*%
%ADD54R,0.04800X0.11400*%
%ADD55R,0.41800X0.42000*%
%ADD56R,0.03359X0.03280*%
%ADD57R,0.00146X0.00146*%
%ADD58R,0.05147X0.01902*%
%ADD59R,0.01902X0.05147*%
%ADD60R,0.04737X0.05918*%
%ADD61R,0.06706X0.06312*%
%ADD62R,0.06312X0.06706*%
%ADD63R,0.06706X0.06706*%
%ADD64C,0.06800*%
%ADD65C,0.07800*%
%ADD66C,0.06706*%
%ADD67R,0.06200X0.06200*%
%ADD68C,0.06200*%
%ADD69C,0.15800*%
G04:AMPARAMS|DCode=70|XSize=298mil|YSize=88mil|CornerRadius=24mil|HoleSize=0mil|Usage=FLASHONLY|Rotation=90.000|XOffset=0mil|YOffset=0mil|HoleType=Round|Shape=RoundedRectangle|*
%AMROUNDEDRECTD70*
21,1,0.29800,0.04000,0,0,90.0*
21,1,0.25000,0.08800,0,0,90.0*
1,1,0.04800,0.02000,0.12500*
1,1,0.04800,0.02000,-0.12500*
1,1,0.04800,-0.02000,-0.12500*
1,1,0.04800,-0.02000,0.12500*
%
%ADD70ROUNDEDRECTD70*%
%ADD71C,0.06800*%
%ADD72C,0.02800*%
%ADD73C,0.06312*%
%ADD74C,0.05800*%
G36*
X306672Y263221D02*
X302777D01*
Y264872D01*
X306672D01*
Y263221D01*
D02*
G37*
G36*
X451998Y263206D02*
X448104D01*
Y264856D01*
X451998D01*
Y263206D01*
D02*
G37*
G36*
X436447Y265175D02*
X432553D01*
Y266825D01*
X436447D01*
Y265175D01*
D02*
G37*
G36*
X322223Y263221D02*
X318328D01*
Y264872D01*
X322223D01*
Y263221D01*
D02*
G37*
G36*
X436447Y263206D02*
X432553D01*
Y264856D01*
X436447D01*
Y263206D01*
D02*
G37*
G36*
X322223Y261252D02*
X318328D01*
Y262903D01*
X322223D01*
Y261252D01*
D02*
G37*
G36*
X306672D02*
X302777D01*
Y262903D01*
X306672D01*
Y261252D01*
D02*
G37*
G36*
X317573Y270887D02*
Y269313D01*
Y267787D01*
Y266213D01*
Y264687D01*
Y261927D01*
X307427D01*
Y264687D01*
Y266213D01*
Y267787D01*
Y269313D01*
Y270887D01*
Y272073D01*
X317573D01*
Y270887D01*
D02*
G37*
G36*
X447348Y270872D02*
Y269297D01*
Y267772D01*
Y266197D01*
Y264672D01*
Y261912D01*
X437203D01*
Y264672D01*
Y266197D01*
Y267772D01*
Y269297D01*
Y270872D01*
Y272057D01*
X447348D01*
Y270872D01*
D02*
G37*
G36*
X451998Y265175D02*
X448104D01*
Y266825D01*
X451998D01*
Y265175D01*
D02*
G37*
G36*
X436447Y269113D02*
X432553D01*
Y270763D01*
X436447D01*
Y269113D01*
D02*
G37*
G36*
X322223Y267159D02*
X318328D01*
Y268810D01*
X322223D01*
Y267159D01*
D02*
G37*
G36*
X306672Y269128D02*
X302777D01*
Y270779D01*
X306672D01*
Y269128D01*
D02*
G37*
G36*
X451998Y269113D02*
X448104D01*
Y270763D01*
X451998D01*
Y269113D01*
D02*
G37*
G36*
X306672Y267159D02*
X302777D01*
Y268810D01*
X306672D01*
Y267159D01*
D02*
G37*
G36*
X322223Y265190D02*
X318328D01*
Y266841D01*
X322223D01*
Y265190D01*
D02*
G37*
G36*
X306672D02*
X302777D01*
Y266841D01*
X306672D01*
Y265190D01*
D02*
G37*
G36*
X451998Y267144D02*
X448104D01*
Y268794D01*
X451998D01*
Y267144D01*
D02*
G37*
G36*
X436447D02*
X432553D01*
Y268794D01*
X436447D01*
Y267144D01*
D02*
G37*
G36*
X440148Y257262D02*
X438498D01*
Y261156D01*
X440148D01*
Y257262D01*
D02*
G37*
G36*
X438179D02*
X436529D01*
Y261156D01*
X438179D01*
Y257262D01*
D02*
G37*
G36*
X444085D02*
X442435D01*
Y261156D01*
X444085D01*
Y257262D01*
D02*
G37*
G36*
X442116D02*
X440466D01*
Y261156D01*
X442116D01*
Y257262D01*
D02*
G37*
G36*
X245555Y233360D02*
X245280D01*
Y218025D01*
X227720D01*
Y233360D01*
X227445D01*
Y236392D01*
X230555D01*
Y234916D01*
X232445D01*
Y236392D01*
X235555D01*
Y234916D01*
X237445D01*
Y236392D01*
X240555D01*
Y234916D01*
X242445D01*
Y236392D01*
X245555D01*
Y233360D01*
D02*
G37*
G36*
X235555Y211824D02*
X232445D01*
Y214856D01*
X235555D01*
Y211824D01*
D02*
G37*
G36*
X230555D02*
X227445D01*
Y214856D01*
X230555D01*
Y211824D01*
D02*
G37*
G36*
X245555D02*
X242445D01*
Y214856D01*
X245555D01*
Y211824D01*
D02*
G37*
G36*
X240555D02*
X237445D01*
Y214856D01*
X240555D01*
Y211824D01*
D02*
G37*
G36*
X446054Y257262D02*
X444403D01*
Y261156D01*
X446054D01*
Y257262D01*
D02*
G37*
G36*
X318246Y257277D02*
X316596D01*
Y261172D01*
X318246D01*
Y257277D01*
D02*
G37*
G36*
X316278D02*
X314628D01*
Y261172D01*
X316278D01*
Y257277D01*
D02*
G37*
G36*
X451998Y261237D02*
X448104D01*
Y262887D01*
X451998D01*
Y261237D01*
D02*
G37*
G36*
X436447D02*
X432553D01*
Y262887D01*
X436447D01*
Y261237D01*
D02*
G37*
G36*
X314309Y257277D02*
X312659D01*
Y261172D01*
X314309D01*
Y257277D01*
D02*
G37*
G36*
X308404D02*
X306754D01*
Y261172D01*
X308404D01*
Y257277D01*
D02*
G37*
G36*
X448022Y257262D02*
X446372D01*
Y261156D01*
X448022D01*
Y257262D01*
D02*
G37*
G36*
X312341Y257277D02*
X310691D01*
Y261172D01*
X312341D01*
Y257277D01*
D02*
G37*
G36*
X310372D02*
X308722D01*
Y261172D01*
X310372D01*
Y257277D01*
D02*
G37*
G36*
X240555Y283324D02*
X237445D01*
Y286356D01*
X240555D01*
Y283324D01*
D02*
G37*
G36*
X444085Y272813D02*
X442435D01*
Y276707D01*
X444085D01*
Y272813D01*
D02*
G37*
G36*
X230555Y283324D02*
X227445D01*
Y286356D01*
X230555D01*
Y283324D01*
D02*
G37*
G36*
X235555D02*
X232445D01*
Y286356D01*
X235555D01*
Y283324D01*
D02*
G37*
G36*
X438179Y272813D02*
X436529D01*
Y276707D01*
X438179D01*
Y272813D01*
D02*
G37*
G36*
X322223Y271097D02*
X318328D01*
Y272748D01*
X322223D01*
Y271097D01*
D02*
G37*
G36*
X442116Y272813D02*
X440466D01*
Y276707D01*
X442116D01*
Y272813D01*
D02*
G37*
G36*
X440148D02*
X438498D01*
Y276707D01*
X440148D01*
Y272813D01*
D02*
G37*
G36*
X308404Y272828D02*
X306754D01*
Y276723D01*
X308404D01*
Y272828D01*
D02*
G37*
G36*
X448022Y272813D02*
X446372D01*
Y276707D01*
X448022D01*
Y272813D01*
D02*
G37*
G36*
X312341Y272828D02*
X310691D01*
Y276723D01*
X312341D01*
Y272828D01*
D02*
G37*
G36*
X310372D02*
X308722D01*
Y276723D01*
X310372D01*
Y272828D01*
D02*
G37*
G36*
X316278D02*
X314628D01*
Y276723D01*
X316278D01*
Y272828D01*
D02*
G37*
G36*
X318246D02*
X316596D01*
Y276723D01*
X318246D01*
Y272828D01*
D02*
G37*
G36*
X446054Y272813D02*
X444403D01*
Y276707D01*
X446054D01*
Y272813D01*
D02*
G37*
G36*
X314309Y272828D02*
X312659D01*
Y276723D01*
X314309D01*
Y272828D01*
D02*
G37*
G36*
X230555Y426216D02*
X227445D01*
Y429248D01*
X230555D01*
Y426216D01*
D02*
G37*
G36*
X235555D02*
X232445D01*
Y429248D01*
X235555D01*
Y426216D01*
D02*
G37*
G36*
X245555Y354824D02*
X242445D01*
Y357856D01*
X245555D01*
Y354824D01*
D02*
G37*
G36*
Y376360D02*
X245280D01*
Y361025D01*
X227720D01*
Y376360D01*
X227445D01*
Y379392D01*
X230555D01*
Y377916D01*
X232445D01*
Y379392D01*
X235555D01*
Y377916D01*
X237445D01*
Y379392D01*
X240555D01*
Y377916D01*
X242445D01*
Y379392D01*
X245555D01*
Y376360D01*
D02*
G37*
G36*
Y447752D02*
X245280D01*
Y432416D01*
X227720D01*
Y447752D01*
X227445D01*
Y450784D01*
X230555D01*
Y449308D01*
X232445D01*
Y450784D01*
X235555D01*
Y449308D01*
X237445D01*
Y450784D01*
X240555D01*
Y449308D01*
X242445D01*
Y450784D01*
X245555D01*
Y447752D01*
D02*
G37*
G36*
X322223Y269128D02*
X318328D01*
Y270779D01*
X322223D01*
Y269128D01*
D02*
G37*
G36*
X240555Y426216D02*
X237445D01*
Y429248D01*
X240555D01*
Y426216D01*
D02*
G37*
G36*
X245555D02*
X242445D01*
Y429248D01*
X245555D01*
Y426216D01*
D02*
G37*
G36*
X436447Y271082D02*
X432553D01*
Y272732D01*
X436447D01*
Y271082D01*
D02*
G37*
G36*
X245555Y283324D02*
X242445D01*
Y286356D01*
X245555D01*
Y283324D01*
D02*
G37*
G36*
X306672Y271097D02*
X302777D01*
Y272748D01*
X306672D01*
Y271097D01*
D02*
G37*
G36*
X451998Y271082D02*
X448104D01*
Y272732D01*
X451998D01*
Y271082D01*
D02*
G37*
G36*
X235555Y354824D02*
X232445D01*
Y357856D01*
X235555D01*
Y354824D01*
D02*
G37*
G36*
X240555D02*
X237445D01*
Y357856D01*
X240555D01*
Y354824D01*
D02*
G37*
G36*
X245555Y304860D02*
X245280D01*
Y289525D01*
X227720D01*
Y304860D01*
X227445D01*
Y307892D01*
X230555D01*
Y306416D01*
X232445D01*
Y307892D01*
X235555D01*
Y306416D01*
X237445D01*
Y307892D01*
X240555D01*
Y306416D01*
X242445D01*
Y307892D01*
X245555D01*
Y304860D01*
D02*
G37*
G36*
X230555Y354824D02*
X227445D01*
Y357856D01*
X230555D01*
Y354824D01*
D02*
G37*
%LPC*%
G36*
X316387Y267787D02*
X314813D01*
Y266213D01*
X316387D01*
Y267787D01*
D02*
G37*
G36*
Y270887D02*
X314813D01*
Y269313D01*
X316387D01*
Y270887D01*
D02*
G37*
G36*
X310187Y267787D02*
X308613D01*
Y266213D01*
X310187D01*
Y267787D01*
D02*
G37*
G36*
X313287D02*
X311713D01*
Y266213D01*
X313287D01*
Y267787D01*
D02*
G37*
G36*
Y270887D02*
X311713D01*
Y269313D01*
X313287D01*
Y270887D01*
D02*
G37*
G36*
X443063Y270872D02*
X441488D01*
Y269297D01*
X443063D01*
Y270872D01*
D02*
G37*
G36*
X439963D02*
X438388D01*
Y269297D01*
X439963D01*
Y270872D01*
D02*
G37*
G36*
X310187Y270887D02*
X308613D01*
Y269313D01*
X310187D01*
Y270887D01*
D02*
G37*
G36*
X446163Y270872D02*
X444588D01*
Y269297D01*
X446163D01*
Y270872D01*
D02*
G37*
G36*
Y264672D02*
X444588D01*
Y263097D01*
X446163D01*
Y264672D01*
D02*
G37*
G36*
X310187Y264687D02*
X308613D01*
Y263113D01*
X310187D01*
Y264687D01*
D02*
G37*
G36*
X439963Y264672D02*
X438388D01*
Y263097D01*
X439963D01*
Y264672D01*
D02*
G37*
G36*
X443063D02*
X441488D01*
Y263097D01*
X443063D01*
Y264672D01*
D02*
G37*
G36*
X313287Y264687D02*
X311713D01*
Y263113D01*
X313287D01*
Y264687D01*
D02*
G37*
G36*
X443063Y267772D02*
X441488D01*
Y266197D01*
X443063D01*
Y267772D01*
D02*
G37*
G36*
X446163D02*
X444588D01*
Y266197D01*
X446163D01*
Y267772D01*
D02*
G37*
G36*
X316387Y264687D02*
X314813D01*
Y263113D01*
X316387D01*
Y264687D01*
D02*
G37*
G36*
X439963Y267772D02*
X438388D01*
Y266197D01*
X439963D01*
Y267772D01*
D02*
G37*
%LPD*%
D49*
X204900Y443240D02*
D03*
Y439500D02*
D03*
Y435760D02*
D03*
X214100D02*
D03*
Y439500D02*
D03*
Y443240D02*
D03*
X204900Y371848D02*
D03*
Y368108D02*
D03*
Y364368D02*
D03*
X214100D02*
D03*
Y368108D02*
D03*
Y371848D02*
D03*
X204900Y300348D02*
D03*
Y296608D02*
D03*
Y292868D02*
D03*
X214100D02*
D03*
Y296608D02*
D03*
Y300348D02*
D03*
X204900Y228848D02*
D03*
Y225108D02*
D03*
Y221368D02*
D03*
X214100D02*
D03*
Y225108D02*
D03*
Y228848D02*
D03*
D50*
X447236Y386000D02*
D03*
Y381000D02*
D03*
Y376000D02*
D03*
Y371000D02*
D03*
X426764D02*
D03*
Y376000D02*
D03*
Y381000D02*
D03*
Y386000D02*
D03*
D51*
X359500Y392047D02*
D03*
Y397953D02*
D03*
X473000Y378953D02*
D03*
Y373047D02*
D03*
X385500Y349953D02*
D03*
Y344047D02*
D03*
X310500Y427047D02*
D03*
Y432953D02*
D03*
X512776Y242437D02*
D03*
Y236532D02*
D03*
X383000Y242453D02*
D03*
Y236547D02*
D03*
X469776Y277894D02*
D03*
Y271989D02*
D03*
X340000Y277909D02*
D03*
Y272004D02*
D03*
X489276Y271989D02*
D03*
Y277894D02*
D03*
X359500Y272004D02*
D03*
Y277909D02*
D03*
X473276Y236988D02*
D03*
Y242894D02*
D03*
X343500Y237004D02*
D03*
Y242910D02*
D03*
D52*
X502453Y301500D02*
D03*
X496547D02*
D03*
X173453Y438500D02*
D03*
X167547D02*
D03*
X173453Y367108D02*
D03*
X167547D02*
D03*
X173453Y295608D02*
D03*
X167547D02*
D03*
X173453Y224108D02*
D03*
X167547D02*
D03*
X441323Y236984D02*
D03*
X447228D02*
D03*
X311547Y237000D02*
D03*
X317453D02*
D03*
X436453Y284000D02*
D03*
X430547D02*
D03*
X306996Y283957D02*
D03*
X301091D02*
D03*
X497728Y241985D02*
D03*
X491823D02*
D03*
X367953Y242000D02*
D03*
X362047D02*
D03*
X457323Y236941D02*
D03*
X463228D02*
D03*
X327547Y236957D02*
D03*
X333453D02*
D03*
D53*
X399200Y378000D02*
D03*
Y383000D02*
D03*
Y388000D02*
D03*
Y393000D02*
D03*
X379800D02*
D03*
Y388000D02*
D03*
Y383000D02*
D03*
Y378000D02*
D03*
D54*
X514000Y319400D02*
D03*
X524000D02*
D03*
X534000D02*
D03*
D55*
X524000Y352600D02*
D03*
D56*
X229000Y449268D02*
D03*
X234000D02*
D03*
X239000D02*
D03*
X244000D02*
D03*
Y427732D02*
D03*
X239000D02*
D03*
X234000D02*
D03*
X229000D02*
D03*
Y377876D02*
D03*
X234000D02*
D03*
X239000D02*
D03*
X244000D02*
D03*
Y356340D02*
D03*
X239000D02*
D03*
X234000D02*
D03*
X229000D02*
D03*
Y306376D02*
D03*
X234000D02*
D03*
X239000D02*
D03*
X244000D02*
D03*
Y284840D02*
D03*
X239000D02*
D03*
X234000D02*
D03*
X229000D02*
D03*
Y234876D02*
D03*
X234000D02*
D03*
X239000D02*
D03*
X244000D02*
D03*
Y213340D02*
D03*
X239000D02*
D03*
X234000D02*
D03*
X229000D02*
D03*
D57*
X442276Y266985D02*
D03*
X312500Y267000D02*
D03*
D58*
X450551Y271907D02*
D03*
Y269938D02*
D03*
Y267969D02*
D03*
Y266000D02*
D03*
Y264031D02*
D03*
Y262062D02*
D03*
X434000D02*
D03*
Y264031D02*
D03*
Y266000D02*
D03*
Y267969D02*
D03*
Y269938D02*
D03*
Y271907D02*
D03*
X320776Y271922D02*
D03*
Y269953D02*
D03*
Y267985D02*
D03*
Y266016D02*
D03*
Y264047D02*
D03*
Y262077D02*
D03*
X304224D02*
D03*
Y264047D02*
D03*
Y266016D02*
D03*
Y267985D02*
D03*
Y269953D02*
D03*
Y271922D02*
D03*
D59*
X447197Y258709D02*
D03*
X445228D02*
D03*
X443260D02*
D03*
X441291D02*
D03*
X439323D02*
D03*
X437354D02*
D03*
Y275260D02*
D03*
X439323D02*
D03*
X441291D02*
D03*
X443260D02*
D03*
X445228D02*
D03*
X447197D02*
D03*
X317421Y258724D02*
D03*
X315453D02*
D03*
X313484D02*
D03*
X311516D02*
D03*
X309547D02*
D03*
X307579D02*
D03*
Y275276D02*
D03*
X309547D02*
D03*
X311516D02*
D03*
X313484D02*
D03*
X315453D02*
D03*
X317421D02*
D03*
D60*
X386650Y364500D02*
D03*
X380350D02*
D03*
X423126Y246985D02*
D03*
X429425D02*
D03*
X293350Y247000D02*
D03*
X299650D02*
D03*
D61*
X412500Y382563D02*
D03*
Y390437D02*
D03*
X330000Y426063D02*
D03*
Y433937D02*
D03*
X524819Y243378D02*
D03*
Y235504D02*
D03*
X395043Y243394D02*
D03*
Y235520D02*
D03*
X506276Y278378D02*
D03*
Y270504D02*
D03*
X376500Y278394D02*
D03*
Y270520D02*
D03*
X524776Y279878D02*
D03*
Y272004D02*
D03*
X395000Y279894D02*
D03*
Y272020D02*
D03*
X524819Y260878D02*
D03*
Y253004D02*
D03*
X395043Y260894D02*
D03*
Y253020D02*
D03*
D62*
X343563Y333500D02*
D03*
X351437D02*
D03*
X440937Y397500D02*
D03*
X433063D02*
D03*
X342937Y393500D02*
D03*
X335063D02*
D03*
X351437Y324500D02*
D03*
X343563D02*
D03*
X451063Y396000D02*
D03*
X458937D02*
D03*
X450563Y406500D02*
D03*
X458437D02*
D03*
X398563Y407500D02*
D03*
X406437D02*
D03*
X366437Y324500D02*
D03*
X358563D02*
D03*
X469339Y261984D02*
D03*
X477213D02*
D03*
X339563Y262000D02*
D03*
X347437D02*
D03*
D63*
X378000Y324500D02*
D03*
X307067Y306100D02*
D03*
X188067Y414500D02*
D03*
Y343108D02*
D03*
Y271608D02*
D03*
Y200108D02*
D03*
D64*
X529000Y198500D02*
D03*
X296000D02*
D03*
X168840Y196500D02*
D03*
X156500Y477000D02*
D03*
X296000D02*
D03*
X529000Y475500D02*
D03*
D65*
X512000Y403500D02*
D03*
X502000D02*
D03*
X484000Y404000D02*
D03*
X474000D02*
D03*
D66*
X352933Y306100D02*
D03*
X233933Y414500D02*
D03*
Y343108D02*
D03*
Y271608D02*
D03*
Y200108D02*
D03*
D67*
X336000Y381000D02*
D03*
D68*
Y371000D02*
D03*
Y361000D02*
D03*
Y351000D02*
D03*
X366000D02*
D03*
Y361000D02*
D03*
Y371000D02*
D03*
Y381000D02*
D03*
D69*
X406000Y358500D02*
D03*
X446000Y358000D02*
D03*
X474500Y320500D02*
D03*
X475000Y360500D02*
D03*
X403500Y308000D02*
D03*
X443500Y307500D02*
D03*
X454000Y332000D02*
D03*
X414000Y332500D02*
D03*
X265500Y420500D02*
D03*
X266000Y460500D02*
D03*
X265500Y349108D02*
D03*
X266000Y389108D02*
D03*
X265500Y277608D02*
D03*
X266000Y317608D02*
D03*
X265500Y206108D02*
D03*
X266000Y246108D02*
D03*
D70*
X373500Y467500D02*
D03*
X473500D02*
D03*
D71*
X318500Y347500D02*
D03*
Y327500D02*
D03*
X298500Y337500D02*
D03*
D72*
X445376Y263884D02*
D03*
X442276D02*
D03*
X439176D02*
D03*
X445376Y266985D02*
D03*
X442276D02*
D03*
X439176D02*
D03*
X445376Y270085D02*
D03*
X442276D02*
D03*
X439176D02*
D03*
X315600Y263900D02*
D03*
X312500D02*
D03*
X309400D02*
D03*
X315600Y267000D02*
D03*
X312500D02*
D03*
X309400D02*
D03*
X315600Y270100D02*
D03*
X312500D02*
D03*
X309400D02*
D03*
D73*
X340500Y411500D02*
D03*
X310500D02*
D03*
X185000Y438500D02*
D03*
Y468500D02*
D03*
Y367108D02*
D03*
Y397108D02*
D03*
Y295608D02*
D03*
Y325608D02*
D03*
Y224108D02*
D03*
Y254108D02*
D03*
D74*
X488500Y301500D02*
D03*
X364500Y258000D02*
D03*
X494276Y257984D02*
D03*
X434500Y333000D02*
D03*
X397500Y346000D02*
D03*
X372500Y401500D02*
D03*
M02*
