G04 Layer_Physical_Order=2*
G04 Layer_Color=16711680*
%FSLAX25Y25*%
%MOIN*%
G70*
G01*
G75*
%ADD28R,0.05906X0.05906*%
%ADD29C,0.06000*%
%ADD30C,0.07000*%
%ADD31C,0.05906*%
%ADD32R,0.05400X0.05400*%
%ADD33C,0.05400*%
%ADD34C,0.15000*%
G04:AMPARAMS|DCode=35|XSize=290mil|YSize=80mil|CornerRadius=20mil|HoleSize=0mil|Usage=FLASHONLY|Rotation=90.000|XOffset=0mil|YOffset=0mil|HoleType=Round|Shape=RoundedRectangle|*
%AMROUNDEDRECTD35*
21,1,0.29000,0.04000,0,0,90.0*
21,1,0.25000,0.08000,0,0,90.0*
1,1,0.04000,0.02000,0.12500*
1,1,0.04000,0.02000,-0.12500*
1,1,0.04000,-0.02000,-0.12500*
1,1,0.04000,-0.02000,0.12500*
%
%ADD35ROUNDEDRECTD35*%
%ADD36C,0.06000*%
%ADD37C,0.02000*%
%ADD38C,0.05512*%
%ADD39C,0.05000*%
G36*
X396470Y3530D02*
X388973D01*
X388794Y4030D01*
X389715Y4786D01*
X390895Y6225D01*
X391773Y7866D01*
X392313Y9647D01*
X392496Y11500D01*
X392313Y13352D01*
X391773Y15134D01*
X390895Y16775D01*
X389715Y18214D01*
X388276Y19395D01*
X386634Y20273D01*
X384853Y20813D01*
X383000Y20996D01*
X381148Y20813D01*
X379366Y20273D01*
X377725Y19395D01*
X376286Y18214D01*
X375105Y16775D01*
X374227Y15134D01*
X373687Y13352D01*
X373504Y11500D01*
X373687Y9647D01*
X374227Y7866D01*
X375105Y6225D01*
X376286Y4786D01*
X377206Y4030D01*
X377027Y3530D01*
X155973D01*
X155794Y4030D01*
X156714Y4786D01*
X157895Y6225D01*
X158773Y7866D01*
X159313Y9647D01*
X159496Y11500D01*
X159313Y13352D01*
X158773Y15134D01*
X157895Y16775D01*
X156714Y18214D01*
X155275Y19395D01*
X153634Y20273D01*
X151853Y20813D01*
X150000Y20996D01*
X148147Y20813D01*
X146366Y20273D01*
X144725Y19395D01*
X143286Y18214D01*
X142105Y16775D01*
X141227Y15134D01*
X140687Y13352D01*
X140504Y11500D01*
X140687Y9647D01*
X141227Y7866D01*
X142105Y6225D01*
X143286Y4786D01*
X144206Y4030D01*
X144027Y3530D01*
X30751D01*
X30537Y3982D01*
X30736Y4225D01*
X31613Y5866D01*
X32153Y7648D01*
X32336Y9500D01*
X32153Y11353D01*
X31613Y13134D01*
X30736Y14775D01*
X29555Y16215D01*
X28116Y17395D01*
X26474Y18273D01*
X24693Y18813D01*
X22840Y18996D01*
X20988Y18813D01*
X19206Y18273D01*
X17565Y17395D01*
X16126Y16215D01*
X14945Y14775D01*
X14067Y13134D01*
X13527Y11353D01*
X13344Y9500D01*
X13527Y7648D01*
X14067Y5866D01*
X14945Y4225D01*
X15144Y3982D01*
X14930Y3530D01*
X3530D01*
Y282848D01*
X4030Y283085D01*
X5224Y282105D01*
X6866Y281227D01*
X8647Y280687D01*
X10500Y280504D01*
X12353Y280687D01*
X14134Y281227D01*
X15776Y282105D01*
X17214Y283285D01*
X18395Y284724D01*
X19273Y286366D01*
X19813Y288147D01*
X19996Y290000D01*
X19813Y291852D01*
X19273Y293634D01*
X18395Y295275D01*
X17786Y296018D01*
X18000Y296470D01*
X142500D01*
X142714Y296018D01*
X142105Y295275D01*
X141227Y293634D01*
X140687Y291852D01*
X140504Y290000D01*
X140687Y288147D01*
X141227Y286366D01*
X142105Y284724D01*
X143286Y283285D01*
X144725Y282105D01*
X146366Y281227D01*
X148147Y280687D01*
X150000Y280504D01*
X151853Y280687D01*
X153634Y281227D01*
X155275Y282105D01*
X156714Y283285D01*
X157895Y284724D01*
X158773Y286366D01*
X159313Y288147D01*
X159496Y290000D01*
X159313Y291852D01*
X158773Y293634D01*
X157895Y295275D01*
X157286Y296018D01*
X157500Y296470D01*
X221295D01*
X221516Y296021D01*
X221132Y295522D01*
X220629Y294305D01*
X220457Y293000D01*
Y268000D01*
X220629Y266695D01*
X221132Y265478D01*
X221934Y264434D01*
X222978Y263632D01*
X224195Y263129D01*
X225500Y262957D01*
X229500D01*
X230805Y263129D01*
X232022Y263632D01*
X233066Y264434D01*
X233868Y265478D01*
X234371Y266695D01*
X234543Y268000D01*
Y293000D01*
X234371Y294305D01*
X233868Y295522D01*
X233484Y296021D01*
X233705Y296470D01*
X321295D01*
X321516Y296021D01*
X321132Y295522D01*
X320629Y294305D01*
X320457Y293000D01*
Y268000D01*
X320629Y266695D01*
X321132Y265478D01*
X321934Y264434D01*
X322978Y263632D01*
X324195Y263129D01*
X325500Y262957D01*
X329500D01*
X330805Y263129D01*
X332022Y263632D01*
X333066Y264434D01*
X333868Y265478D01*
X334371Y266695D01*
X334543Y268000D01*
Y293000D01*
X334371Y294305D01*
X333868Y295522D01*
X333484Y296021D01*
X333705Y296470D01*
X377027D01*
X377206Y295970D01*
X376286Y295215D01*
X375105Y293776D01*
X374227Y292134D01*
X373687Y290353D01*
X373504Y288500D01*
X373687Y286648D01*
X374227Y284866D01*
X375105Y283225D01*
X376286Y281785D01*
X377725Y280605D01*
X379366Y279727D01*
X381148Y279187D01*
X383000Y279004D01*
X384853Y279187D01*
X386634Y279727D01*
X388276Y280605D01*
X389715Y281785D01*
X390895Y283225D01*
X391773Y284866D01*
X392313Y286648D01*
X392496Y288500D01*
X392313Y290353D01*
X391773Y292134D01*
X390895Y293776D01*
X389715Y295215D01*
X388794Y295970D01*
X388973Y296470D01*
X396470D01*
Y3530D01*
D02*
G37*
%LPC*%
G36*
X342000Y117964D02*
X341586Y117910D01*
X340735Y117557D01*
X340004Y116996D01*
X339443Y116265D01*
X339090Y115414D01*
X339036Y115000D01*
X342000D01*
Y117964D01*
D02*
G37*
G36*
X167020Y125053D02*
X155114D01*
Y113147D01*
X167020D01*
Y125053D01*
D02*
G37*
G36*
X206933Y125082D02*
X205766Y124967D01*
X204644Y124626D01*
X203610Y124074D01*
X202703Y123330D01*
X201960Y122423D01*
X201407Y121389D01*
X201066Y120267D01*
X200952Y119100D01*
X201066Y117933D01*
X201407Y116811D01*
X201960Y115777D01*
X202703Y114870D01*
X203610Y114127D01*
X204644Y113574D01*
X205766Y113233D01*
X206933Y113119D01*
X208100Y113233D01*
X209222Y113574D01*
X210256Y114127D01*
X211163Y114870D01*
X211907Y115777D01*
X212459Y116811D01*
X212800Y117933D01*
X212915Y119100D01*
X212800Y120267D01*
X212459Y121389D01*
X211907Y122423D01*
X211163Y123330D01*
X210256Y124074D01*
X209222Y124626D01*
X208100Y124967D01*
X206933Y125082D01*
D02*
G37*
G36*
X343000Y117964D02*
Y115000D01*
X345964D01*
X345910Y115414D01*
X345557Y116265D01*
X344996Y116996D01*
X344265Y117557D01*
X343414Y117910D01*
X343000Y117964D01*
D02*
G37*
G36*
X298000Y128992D02*
Y121000D01*
X305992D01*
X305877Y122166D01*
X305391Y123769D01*
X304602Y125245D01*
X303539Y126540D01*
X302245Y127602D01*
X300769Y128391D01*
X299166Y128877D01*
X298000Y128992D01*
D02*
G37*
G36*
X297000D02*
X295834Y128877D01*
X294231Y128391D01*
X292755Y127602D01*
X291460Y126540D01*
X290398Y125245D01*
X289609Y123769D01*
X289123Y122166D01*
X289008Y121000D01*
X297000D01*
Y128992D01*
D02*
G37*
G36*
X119500Y139532D02*
X117852Y139403D01*
X116245Y139017D01*
X114718Y138384D01*
X113309Y137521D01*
X112052Y136448D01*
X110979Y135191D01*
X110116Y133782D01*
X109483Y132255D01*
X109097Y130648D01*
X108967Y129000D01*
X109097Y127352D01*
X109483Y125745D01*
X110116Y124218D01*
X110979Y122809D01*
X112052Y121552D01*
X113309Y120479D01*
X114718Y119615D01*
X116245Y118983D01*
X117852Y118597D01*
X119500Y118467D01*
X121148Y118597D01*
X122755Y118983D01*
X124282Y119615D01*
X125691Y120479D01*
X126948Y121552D01*
X128021Y122809D01*
X128884Y124218D01*
X129517Y125745D01*
X129903Y127352D01*
X130033Y129000D01*
X129903Y130648D01*
X129517Y132255D01*
X128884Y133782D01*
X128021Y135191D01*
X126948Y136448D01*
X125691Y137521D01*
X124282Y138384D01*
X122755Y139017D01*
X121148Y139403D01*
X119500Y139532D01*
D02*
G37*
G36*
X257500Y131533D02*
X255852Y131403D01*
X254245Y131017D01*
X252718Y130385D01*
X251309Y129521D01*
X250052Y128448D01*
X248979Y127191D01*
X248115Y125782D01*
X247483Y124255D01*
X247097Y122648D01*
X246968Y121000D01*
X247097Y119352D01*
X247483Y117745D01*
X248115Y116218D01*
X248979Y114809D01*
X250052Y113552D01*
X251309Y112479D01*
X252718Y111616D01*
X254245Y110983D01*
X255852Y110597D01*
X257500Y110468D01*
X259148Y110597D01*
X260755Y110983D01*
X262282Y111616D01*
X263691Y112479D01*
X264948Y113552D01*
X266021Y114809D01*
X266884Y116218D01*
X267517Y117745D01*
X267903Y119352D01*
X268033Y121000D01*
X267903Y122648D01*
X267517Y124255D01*
X266884Y125782D01*
X266021Y127191D01*
X264948Y128448D01*
X263691Y129521D01*
X262282Y130385D01*
X260755Y131017D01*
X259148Y131403D01*
X257500Y131533D01*
D02*
G37*
G36*
X39500Y112331D02*
Y109108D01*
X42722D01*
X42659Y109589D01*
X42281Y110502D01*
X41679Y111287D01*
X40894Y111889D01*
X39981Y112267D01*
X39500Y112331D01*
D02*
G37*
G36*
X38500D02*
X38019Y112267D01*
X37106Y111889D01*
X36321Y111287D01*
X35719Y110502D01*
X35341Y109589D01*
X35278Y109108D01*
X38500D01*
Y112331D01*
D02*
G37*
G36*
X342000Y114000D02*
X339036D01*
X339090Y113586D01*
X339443Y112735D01*
X340004Y112004D01*
X340735Y111443D01*
X341586Y111090D01*
X342000Y111036D01*
Y114000D01*
D02*
G37*
G36*
X305992Y120000D02*
X298000D01*
Y112008D01*
X299166Y112123D01*
X300769Y112609D01*
X302245Y113398D01*
X303539Y114461D01*
X304602Y115755D01*
X305391Y117231D01*
X305877Y118834D01*
X305992Y120000D01*
D02*
G37*
G36*
X297000D02*
X289008D01*
X289123Y118834D01*
X289609Y117231D01*
X290398Y115755D01*
X291460Y114461D01*
X292755Y113398D01*
X294231Y112609D01*
X295834Y112123D01*
X297000Y112008D01*
Y120000D01*
D02*
G37*
G36*
X345964Y114000D02*
X343000D01*
Y111036D01*
X343414Y111090D01*
X344265Y111443D01*
X344996Y112004D01*
X345557Y112735D01*
X345910Y113586D01*
X345964Y114000D01*
D02*
G37*
G36*
X327500Y144033D02*
X325852Y143903D01*
X324245Y143517D01*
X322718Y142885D01*
X321309Y142021D01*
X320052Y140948D01*
X318979Y139691D01*
X318115Y138282D01*
X317483Y136755D01*
X317097Y135148D01*
X316968Y133500D01*
X317097Y131852D01*
X317483Y130245D01*
X318115Y128718D01*
X318979Y127309D01*
X320052Y126052D01*
X321309Y124979D01*
X322718Y124116D01*
X324245Y123483D01*
X325852Y123097D01*
X327500Y122968D01*
X329148Y123097D01*
X330755Y123483D01*
X332282Y124116D01*
X333691Y124979D01*
X334948Y126052D01*
X336021Y127309D01*
X336884Y128718D01*
X337517Y130245D01*
X337903Y131852D01*
X338033Y133500D01*
X337903Y135148D01*
X337517Y136755D01*
X336884Y138282D01*
X336021Y139691D01*
X334948Y140948D01*
X333691Y142021D01*
X332282Y142885D01*
X330755Y143517D01*
X329148Y143903D01*
X327500Y144033D01*
D02*
G37*
G36*
X276492Y145000D02*
X268500D01*
Y137008D01*
X269666Y137123D01*
X271269Y137609D01*
X272745Y138398D01*
X274040Y139461D01*
X275102Y140755D01*
X275891Y142231D01*
X276377Y143834D01*
X276492Y145000D01*
D02*
G37*
G36*
X267500D02*
X259508D01*
X259623Y143834D01*
X260109Y142231D01*
X260898Y140755D01*
X261961Y139461D01*
X263255Y138398D01*
X264731Y137609D01*
X266334Y137123D01*
X267500Y137008D01*
Y145000D01*
D02*
G37*
G36*
X349500Y138964D02*
Y136000D01*
X352464D01*
X352410Y136414D01*
X352057Y137265D01*
X351496Y137996D01*
X350765Y138557D01*
X349914Y138910D01*
X349500Y138964D01*
D02*
G37*
G36*
X152500Y156529D02*
X151324Y156413D01*
X150193Y156070D01*
X149151Y155513D01*
X148237Y154763D01*
X147487Y153849D01*
X146930Y152807D01*
X146587Y151676D01*
X146471Y150500D01*
X146587Y149324D01*
X146930Y148193D01*
X147487Y147151D01*
X148237Y146237D01*
X149151Y145487D01*
X150193Y144930D01*
X151324Y144587D01*
X152500Y144471D01*
X153676Y144587D01*
X154807Y144930D01*
X155850Y145487D01*
X156763Y146237D01*
X157513Y147151D01*
X158070Y148193D01*
X158413Y149324D01*
X158529Y150500D01*
X158413Y151676D01*
X158070Y152807D01*
X157513Y153849D01*
X156763Y154763D01*
X155850Y155513D01*
X154807Y156070D01*
X153676Y156413D01*
X152500Y156529D01*
D02*
G37*
G36*
X87933Y162090D02*
X86766Y161975D01*
X85644Y161634D01*
X84610Y161082D01*
X83704Y160338D01*
X82960Y159431D01*
X82407Y158397D01*
X82066Y157275D01*
X81951Y156108D01*
X82066Y154941D01*
X82407Y153819D01*
X82960Y152785D01*
X83704Y151879D01*
X84610Y151135D01*
X85644Y150582D01*
X86766Y150241D01*
X87933Y150127D01*
X89100Y150241D01*
X90222Y150582D01*
X91256Y151135D01*
X92163Y151879D01*
X92907Y152785D01*
X93459Y153819D01*
X93800Y154941D01*
X93915Y156108D01*
X93800Y157275D01*
X93459Y158397D01*
X92907Y159431D01*
X92163Y160338D01*
X91256Y161082D01*
X90222Y161634D01*
X89100Y161975D01*
X87933Y162090D01*
D02*
G37*
G36*
X268500Y153992D02*
Y146000D01*
X276492D01*
X276377Y147166D01*
X275891Y148769D01*
X275102Y150245D01*
X274040Y151540D01*
X272745Y152602D01*
X271269Y153391D01*
X269666Y153877D01*
X268500Y153992D01*
D02*
G37*
G36*
X267500D02*
X266334Y153877D01*
X264731Y153391D01*
X263255Y152602D01*
X261961Y151540D01*
X260898Y150245D01*
X260109Y148769D01*
X259623Y147166D01*
X259508Y146000D01*
X267500D01*
Y153992D01*
D02*
G37*
G36*
X352464Y135000D02*
X349500D01*
Y132036D01*
X349914Y132090D01*
X350765Y132443D01*
X351496Y133004D01*
X352057Y133735D01*
X352410Y134586D01*
X352464Y135000D01*
D02*
G37*
G36*
X348500D02*
X345536D01*
X345590Y134586D01*
X345943Y133735D01*
X346504Y133004D01*
X347235Y132443D01*
X348086Y132090D01*
X348500Y132036D01*
Y135000D01*
D02*
G37*
G36*
X237953Y143453D02*
X226047D01*
Y131547D01*
X237953D01*
Y143453D01*
D02*
G37*
G36*
X39000Y144414D02*
X37497Y144216D01*
X36097Y143636D01*
X34895Y142713D01*
X33972Y141511D01*
X33392Y140111D01*
X33194Y138608D01*
X33392Y137106D01*
X33972Y135705D01*
X34895Y134503D01*
X36097Y133580D01*
X37497Y133000D01*
X39000Y132803D01*
X40503Y133000D01*
X41903Y133580D01*
X43105Y134503D01*
X44028Y135705D01*
X44608Y137106D01*
X44806Y138608D01*
X44608Y140111D01*
X44028Y141511D01*
X43105Y142713D01*
X41903Y143636D01*
X40503Y144216D01*
X39000Y144414D01*
D02*
G37*
G36*
X348500Y138964D02*
X348086Y138910D01*
X347235Y138557D01*
X346504Y137996D01*
X345943Y137265D01*
X345590Y136414D01*
X345536Y136000D01*
X348500D01*
Y138964D01*
D02*
G37*
G36*
X172500Y146529D02*
X171324Y146413D01*
X170193Y146070D01*
X169150Y145513D01*
X168237Y144763D01*
X167487Y143850D01*
X166930Y142807D01*
X166587Y141676D01*
X166471Y140500D01*
X166587Y139324D01*
X166930Y138193D01*
X167487Y137151D01*
X168237Y136237D01*
X169150Y135487D01*
X170193Y134930D01*
X171324Y134587D01*
X172500Y134471D01*
X173676Y134587D01*
X174807Y134930D01*
X175849Y135487D01*
X176763Y136237D01*
X177513Y137151D01*
X178070Y138193D01*
X178413Y139324D01*
X178529Y140500D01*
X178413Y141676D01*
X178070Y142807D01*
X177513Y143850D01*
X176763Y144763D01*
X175849Y145513D01*
X174807Y146070D01*
X173676Y146413D01*
X172500Y146529D01*
D02*
G37*
G36*
X308000Y155533D02*
X306352Y155403D01*
X304745Y155017D01*
X303218Y154385D01*
X301809Y153521D01*
X300552Y152448D01*
X299479Y151191D01*
X298616Y149782D01*
X297983Y148255D01*
X297597Y146648D01*
X297467Y145000D01*
X297597Y143352D01*
X297983Y141745D01*
X298616Y140218D01*
X299479Y138809D01*
X300552Y137552D01*
X301809Y136479D01*
X303218Y135616D01*
X304745Y134983D01*
X306352Y134597D01*
X308000Y134467D01*
X309648Y134597D01*
X311255Y134983D01*
X312782Y135616D01*
X314191Y136479D01*
X315448Y137552D01*
X316521Y138809D01*
X317385Y140218D01*
X318017Y141745D01*
X318403Y143352D01*
X318532Y145000D01*
X318403Y146648D01*
X318017Y148255D01*
X317385Y149782D01*
X316521Y151191D01*
X315448Y152448D01*
X314191Y153521D01*
X312782Y154385D01*
X311255Y155017D01*
X309648Y155403D01*
X308000Y155533D01*
D02*
G37*
G36*
X42722Y108108D02*
X39500D01*
Y104886D01*
X39981Y104949D01*
X40894Y105327D01*
X41679Y105929D01*
X42281Y106714D01*
X42659Y107628D01*
X42722Y108108D01*
D02*
G37*
G36*
X39500Y40831D02*
Y37608D01*
X42722D01*
X42659Y38089D01*
X42281Y39002D01*
X41679Y39787D01*
X40894Y40389D01*
X39981Y40767D01*
X39500Y40831D01*
D02*
G37*
G36*
X38500D02*
X38019Y40767D01*
X37106Y40389D01*
X36321Y39787D01*
X35719Y39002D01*
X35341Y38089D01*
X35278Y37608D01*
X38500D01*
Y40831D01*
D02*
G37*
G36*
X42722Y36608D02*
X39500D01*
Y33386D01*
X39981Y33449D01*
X40894Y33827D01*
X41679Y34429D01*
X42281Y35214D01*
X42659Y36128D01*
X42722Y36608D01*
D02*
G37*
G36*
X120000Y70033D02*
X118352Y69903D01*
X116745Y69517D01*
X115218Y68884D01*
X113809Y68021D01*
X112552Y66948D01*
X111479Y65691D01*
X110616Y64282D01*
X109983Y62755D01*
X109597Y61148D01*
X109467Y59500D01*
X109597Y57852D01*
X109983Y56245D01*
X110616Y54718D01*
X111479Y53309D01*
X112552Y52052D01*
X113809Y50979D01*
X115218Y50116D01*
X116745Y49483D01*
X118352Y49097D01*
X120000Y48967D01*
X121648Y49097D01*
X123255Y49483D01*
X124782Y50116D01*
X126191Y50979D01*
X127448Y52052D01*
X128521Y53309D01*
X129385Y54718D01*
X130017Y56245D01*
X130403Y57852D01*
X130533Y59500D01*
X130403Y61148D01*
X130017Y62755D01*
X129385Y64282D01*
X128521Y65691D01*
X127448Y66948D01*
X126191Y68021D01*
X124782Y68884D01*
X123255Y69517D01*
X121648Y69903D01*
X120000Y70033D01*
D02*
G37*
G36*
X351740Y70485D02*
X348776D01*
Y67520D01*
X349189Y67575D01*
X350041Y67927D01*
X350772Y68488D01*
X351333Y69219D01*
X351686Y70071D01*
X351740Y70485D01*
D02*
G37*
G36*
X347776D02*
X344811D01*
X344866Y70071D01*
X345218Y69219D01*
X345779Y68488D01*
X346511Y67927D01*
X347362Y67575D01*
X347776Y67520D01*
Y70485D01*
D02*
G37*
G36*
X39000Y72914D02*
X37497Y72716D01*
X36097Y72136D01*
X34895Y71213D01*
X33972Y70011D01*
X33392Y68611D01*
X33194Y67108D01*
X33392Y65606D01*
X33972Y64205D01*
X34895Y63003D01*
X36097Y62080D01*
X37497Y61500D01*
X39000Y61303D01*
X40503Y61500D01*
X41903Y62080D01*
X43105Y63003D01*
X44028Y64205D01*
X44608Y65606D01*
X44806Y67108D01*
X44608Y68611D01*
X44028Y70011D01*
X43105Y71213D01*
X41903Y72136D01*
X40503Y72716D01*
X39000Y72914D01*
D02*
G37*
G36*
X119000Y19000D02*
X111008D01*
X111123Y17834D01*
X111609Y16231D01*
X112398Y14755D01*
X113461Y13461D01*
X114755Y12398D01*
X116231Y11609D01*
X117834Y11123D01*
X119000Y11008D01*
Y19000D01*
D02*
G37*
G36*
X48020Y17953D02*
X36114D01*
Y6047D01*
X48020D01*
Y17953D01*
D02*
G37*
G36*
X87933Y17981D02*
X86766Y17867D01*
X85644Y17526D01*
X84610Y16973D01*
X83704Y16230D01*
X82960Y15323D01*
X82407Y14289D01*
X82066Y13167D01*
X81951Y12000D01*
X82066Y10833D01*
X82407Y9711D01*
X82960Y8677D01*
X83704Y7770D01*
X84610Y7027D01*
X85644Y6474D01*
X86766Y6133D01*
X87933Y6018D01*
X89100Y6133D01*
X90222Y6474D01*
X91256Y7027D01*
X92163Y7770D01*
X92907Y8677D01*
X93459Y9711D01*
X93800Y10833D01*
X93915Y12000D01*
X93800Y13167D01*
X93459Y14289D01*
X92907Y15323D01*
X92163Y16230D01*
X91256Y16973D01*
X90222Y17526D01*
X89100Y17867D01*
X87933Y17981D01*
D02*
G37*
G36*
X127992Y19000D02*
X120000D01*
Y11008D01*
X121166Y11123D01*
X122769Y11609D01*
X124245Y12398D01*
X125540Y13461D01*
X126602Y14755D01*
X127391Y16231D01*
X127877Y17834D01*
X127992Y19000D01*
D02*
G37*
G36*
X38500Y36608D02*
X35278D01*
X35341Y36128D01*
X35719Y35214D01*
X36321Y34429D01*
X37106Y33827D01*
X38019Y33449D01*
X38500Y33386D01*
Y36608D01*
D02*
G37*
G36*
X120000Y27992D02*
Y20000D01*
X127992D01*
X127877Y21166D01*
X127391Y22769D01*
X126602Y24245D01*
X125540Y25539D01*
X124245Y26602D01*
X122769Y27391D01*
X121166Y27877D01*
X120000Y27992D01*
D02*
G37*
G36*
X119000D02*
X117834Y27877D01*
X116231Y27391D01*
X114755Y26602D01*
X113461Y25539D01*
X112398Y24245D01*
X111609Y22769D01*
X111123Y21166D01*
X111008Y20000D01*
X119000D01*
Y27992D01*
D02*
G37*
G36*
X218000Y70500D02*
X215036D01*
X215090Y70086D01*
X215443Y69235D01*
X216004Y68504D01*
X216735Y67943D01*
X217586Y67590D01*
X218000Y67536D01*
Y70500D01*
D02*
G37*
G36*
X299376Y87119D02*
X298331Y86982D01*
X297826Y86772D01*
X297320Y86982D01*
X296276Y87119D01*
X295231Y86982D01*
X294726Y86772D01*
X294220Y86982D01*
X293176Y87119D01*
X292131Y86982D01*
X291158Y86579D01*
X290323Y85937D01*
X289682Y85102D01*
X289279Y84129D01*
X289141Y83084D01*
X289279Y82040D01*
X289488Y81534D01*
X289279Y81029D01*
X289141Y79984D01*
X289279Y78940D01*
X289488Y78434D01*
X289279Y77929D01*
X289141Y76885D01*
X289279Y75840D01*
X289682Y74867D01*
X290323Y74032D01*
X291158Y73391D01*
X292131Y72988D01*
X293176Y72850D01*
X294220Y72988D01*
X294726Y73197D01*
X295231Y72988D01*
X296276Y72850D01*
X297320Y72988D01*
X297826Y73197D01*
X298331Y72988D01*
X299376Y72850D01*
X300420Y72988D01*
X301393Y73391D01*
X302228Y74032D01*
X302870Y74867D01*
X303273Y75840D01*
X303410Y76885D01*
X303273Y77929D01*
X303063Y78434D01*
X303273Y78940D01*
X303410Y79984D01*
X303273Y81029D01*
X303063Y81534D01*
X303273Y82040D01*
X303410Y83084D01*
X303273Y84129D01*
X302870Y85102D01*
X302228Y85937D01*
X301393Y86579D01*
X300420Y86982D01*
X299376Y87119D01*
D02*
G37*
G36*
X127492Y88500D02*
X119500D01*
Y80508D01*
X120666Y80623D01*
X122269Y81109D01*
X123745Y81898D01*
X125040Y82960D01*
X126102Y84255D01*
X126891Y85731D01*
X127377Y87334D01*
X127492Y88500D01*
D02*
G37*
G36*
X118500D02*
X110508D01*
X110623Y87334D01*
X111109Y85731D01*
X111898Y84255D01*
X112961Y82960D01*
X114255Y81898D01*
X115731Y81109D01*
X117334Y80623D01*
X118500Y80508D01*
Y88500D01*
D02*
G37*
G36*
X169600Y87134D02*
X168556Y86997D01*
X168050Y86787D01*
X167544Y86997D01*
X166500Y87134D01*
X165456Y86997D01*
X164950Y86787D01*
X164444Y86997D01*
X163400Y87134D01*
X162356Y86997D01*
X161383Y86594D01*
X160547Y85953D01*
X159906Y85117D01*
X159503Y84144D01*
X159365Y83100D01*
X159503Y82056D01*
X159712Y81550D01*
X159503Y81044D01*
X159365Y80000D01*
X159503Y78956D01*
X159712Y78450D01*
X159503Y77944D01*
X159365Y76900D01*
X159503Y75856D01*
X159906Y74883D01*
X160547Y74047D01*
X161383Y73406D01*
X162356Y73003D01*
X163400Y72865D01*
X164444Y73003D01*
X164950Y73212D01*
X165456Y73003D01*
X166500Y72865D01*
X167544Y73003D01*
X168050Y73212D01*
X168556Y73003D01*
X169600Y72865D01*
X170644Y73003D01*
X171617Y73406D01*
X172453Y74047D01*
X173094Y74883D01*
X173497Y75856D01*
X173635Y76900D01*
X173497Y77944D01*
X173288Y78450D01*
X173497Y78956D01*
X173635Y80000D01*
X173497Y81044D01*
X173288Y81550D01*
X173497Y82056D01*
X173635Y83100D01*
X173497Y84144D01*
X173094Y85117D01*
X172453Y85953D01*
X171617Y86594D01*
X170644Y86997D01*
X169600Y87134D01*
D02*
G37*
G36*
X38500Y108108D02*
X35278D01*
X35341Y107628D01*
X35719Y106714D01*
X36321Y105929D01*
X37106Y105327D01*
X38019Y104949D01*
X38500Y104886D01*
Y108108D01*
D02*
G37*
G36*
X119500Y97492D02*
Y89500D01*
X127492D01*
X127377Y90666D01*
X126891Y92269D01*
X126102Y93745D01*
X125040Y95039D01*
X123745Y96102D01*
X122269Y96891D01*
X120666Y97377D01*
X119500Y97492D01*
D02*
G37*
G36*
X118500D02*
X117334Y97377D01*
X115731Y96891D01*
X114255Y96102D01*
X112961Y95039D01*
X111898Y93745D01*
X111109Y92269D01*
X110623Y90666D01*
X110508Y89500D01*
X118500D01*
Y97492D01*
D02*
G37*
G36*
X348776Y74449D02*
Y71485D01*
X351740D01*
X351686Y71898D01*
X351333Y72750D01*
X350772Y73481D01*
X350041Y74042D01*
X349189Y74394D01*
X348776Y74449D01*
D02*
G37*
G36*
X347776D02*
X347362Y74394D01*
X346511Y74042D01*
X345779Y73481D01*
X345218Y72750D01*
X344866Y71898D01*
X344811Y71485D01*
X347776D01*
Y74449D01*
D02*
G37*
G36*
X221964Y70500D02*
X219000D01*
Y67536D01*
X219414Y67590D01*
X220265Y67943D01*
X220996Y68504D01*
X221557Y69235D01*
X221910Y70086D01*
X221964Y70500D01*
D02*
G37*
G36*
X218000Y74464D02*
X217586Y74410D01*
X216735Y74057D01*
X216004Y73496D01*
X215443Y72765D01*
X215090Y71914D01*
X215036Y71500D01*
X218000D01*
Y74464D01*
D02*
G37*
G36*
X48020Y90561D02*
X36114D01*
Y78655D01*
X48020D01*
Y90561D01*
D02*
G37*
G36*
X87933Y90590D02*
X86766Y90475D01*
X85644Y90134D01*
X84610Y89582D01*
X83704Y88838D01*
X82960Y87931D01*
X82407Y86897D01*
X82066Y85775D01*
X81951Y84608D01*
X82066Y83441D01*
X82407Y82319D01*
X82960Y81285D01*
X83704Y80379D01*
X84610Y79635D01*
X85644Y79082D01*
X86766Y78742D01*
X87933Y78627D01*
X89100Y78742D01*
X90222Y79082D01*
X91256Y79635D01*
X92163Y80379D01*
X92907Y81285D01*
X93459Y82319D01*
X93800Y83441D01*
X93915Y84608D01*
X93800Y85775D01*
X93459Y86897D01*
X92907Y87931D01*
X92163Y88838D01*
X91256Y89582D01*
X90222Y90134D01*
X89100Y90475D01*
X87933Y90590D01*
D02*
G37*
G36*
X219000Y74464D02*
Y71500D01*
X221964D01*
X221910Y71914D01*
X221557Y72765D01*
X220996Y73496D01*
X220265Y74057D01*
X219414Y74410D01*
X219000Y74464D01*
D02*
G37*
G36*
X211000Y220964D02*
X210586Y220910D01*
X209735Y220557D01*
X209004Y219996D01*
X208443Y219265D01*
X208090Y218414D01*
X208036Y218000D01*
X211000D01*
Y220964D01*
D02*
G37*
G36*
X214964Y217000D02*
X212000D01*
Y214036D01*
X212414Y214090D01*
X213265Y214443D01*
X213996Y215004D01*
X214557Y215735D01*
X214910Y216586D01*
X214964Y217000D01*
D02*
G37*
G36*
X211000D02*
X208036D01*
X208090Y216586D01*
X208443Y215735D01*
X209004Y215004D01*
X209735Y214443D01*
X210586Y214090D01*
X211000Y214036D01*
Y217000D01*
D02*
G37*
G36*
X212000Y220964D02*
Y218000D01*
X214964D01*
X214910Y218414D01*
X214557Y219265D01*
X213996Y219996D01*
X213265Y220557D01*
X212414Y220910D01*
X212000Y220964D01*
D02*
G37*
G36*
X87933Y233482D02*
X86766Y233367D01*
X85644Y233026D01*
X84610Y232473D01*
X83704Y231730D01*
X82960Y230823D01*
X82407Y229789D01*
X82066Y228667D01*
X81951Y227500D01*
X82066Y226333D01*
X82407Y225211D01*
X82960Y224177D01*
X83704Y223270D01*
X84610Y222527D01*
X85644Y221974D01*
X86766Y221633D01*
X87933Y221518D01*
X89100Y221633D01*
X90222Y221974D01*
X91256Y222527D01*
X92163Y223270D01*
X92907Y224177D01*
X93459Y225211D01*
X93800Y226333D01*
X93915Y227500D01*
X93800Y228667D01*
X93459Y229789D01*
X92907Y230823D01*
X92163Y231730D01*
X91256Y232473D01*
X90222Y233026D01*
X89100Y233367D01*
X87933Y233482D01*
D02*
G37*
G36*
X194500Y230306D02*
X192997Y230108D01*
X191597Y229528D01*
X190395Y228605D01*
X189472Y227403D01*
X188892Y226003D01*
X188694Y224500D01*
X188892Y222997D01*
X189472Y221597D01*
X190395Y220395D01*
X191597Y219472D01*
X192997Y218892D01*
X194500Y218694D01*
X196003Y218892D01*
X197403Y219472D01*
X198605Y220395D01*
X199528Y221597D01*
X200108Y222997D01*
X200306Y224500D01*
X200108Y226003D01*
X199528Y227403D01*
X198605Y228605D01*
X197403Y229528D01*
X196003Y230108D01*
X194500Y230306D01*
D02*
G37*
G36*
X164500D02*
X162997Y230108D01*
X161597Y229528D01*
X160395Y228605D01*
X159472Y227403D01*
X158892Y226003D01*
X158694Y224500D01*
X158892Y222997D01*
X159472Y221597D01*
X160395Y220395D01*
X161597Y219472D01*
X162997Y218892D01*
X164500Y218694D01*
X166003Y218892D01*
X167403Y219472D01*
X168605Y220395D01*
X169528Y221597D01*
X170108Y222997D01*
X170306Y224500D01*
X170108Y226003D01*
X169528Y227403D01*
X168605Y228605D01*
X167403Y229528D01*
X166003Y230108D01*
X164500Y230306D01*
D02*
G37*
G36*
X295666Y204000D02*
X292500D01*
Y200834D01*
X292966Y200895D01*
X293866Y201268D01*
X294639Y201861D01*
X295232Y202634D01*
X295605Y203534D01*
X295666Y204000D01*
D02*
G37*
G36*
X291500D02*
X288334D01*
X288395Y203534D01*
X288768Y202634D01*
X289361Y201861D01*
X290134Y201268D01*
X291034Y200895D01*
X291500Y200834D01*
Y204000D01*
D02*
G37*
G36*
X322000Y240249D02*
X320512Y240053D01*
X319125Y239479D01*
X317935Y238565D01*
X317021Y237375D01*
X316447Y235988D01*
X316251Y234500D01*
X316447Y233012D01*
X317021Y231625D01*
X317935Y230435D01*
X318742Y229815D01*
Y229185D01*
X317935Y228565D01*
X317021Y227375D01*
X316447Y225988D01*
X316251Y224500D01*
X316447Y223012D01*
X317021Y221625D01*
X317935Y220435D01*
X318742Y219815D01*
Y219185D01*
X317935Y218565D01*
X317021Y217375D01*
X316447Y215988D01*
X316251Y214500D01*
X316447Y213012D01*
X317021Y211625D01*
X317935Y210435D01*
X318742Y209815D01*
Y209185D01*
X317935Y208565D01*
X317021Y207375D01*
X316447Y205988D01*
X316251Y204500D01*
X316447Y203012D01*
X317021Y201625D01*
X317935Y200435D01*
X319125Y199521D01*
X320512Y198947D01*
X322000Y198751D01*
X323488Y198947D01*
X324875Y199521D01*
X326065Y200435D01*
X326979Y201625D01*
X327553Y203012D01*
X327749Y204500D01*
X327553Y205988D01*
X326979Y207375D01*
X326065Y208565D01*
X325258Y209185D01*
Y209815D01*
X326065Y210435D01*
X326979Y211625D01*
X327553Y213012D01*
X327749Y214500D01*
X327553Y215988D01*
X326979Y217375D01*
X326065Y218565D01*
X325258Y219185D01*
Y219815D01*
X326065Y220435D01*
X326979Y221625D01*
X327553Y223012D01*
X327749Y224500D01*
X327553Y225988D01*
X326979Y227375D01*
X326065Y228565D01*
X325258Y229185D01*
Y229815D01*
X326065Y230435D01*
X326979Y231625D01*
X327553Y233012D01*
X327749Y234500D01*
X327553Y235988D01*
X326979Y237375D01*
X326065Y238565D01*
X324875Y239479D01*
X323488Y240053D01*
X322000Y240249D01*
D02*
G37*
G36*
X39000Y215914D02*
X37497Y215716D01*
X36097Y215136D01*
X34895Y214213D01*
X33972Y213011D01*
X33392Y211611D01*
X33194Y210108D01*
X33392Y208606D01*
X33972Y207205D01*
X34895Y206003D01*
X36097Y205080D01*
X37497Y204500D01*
X39000Y204303D01*
X40503Y204500D01*
X41903Y205080D01*
X43105Y206003D01*
X44028Y207205D01*
X44608Y208606D01*
X44806Y210108D01*
X44608Y211611D01*
X44028Y213011D01*
X43105Y214213D01*
X41903Y215136D01*
X40503Y215716D01*
X39000Y215914D01*
D02*
G37*
G36*
X297700Y240200D02*
X286300D01*
Y228800D01*
X287485D01*
X287731Y228300D01*
X287021Y227375D01*
X286447Y225988D01*
X286251Y224500D01*
X286447Y223012D01*
X287021Y221625D01*
X287935Y220435D01*
X288742Y219815D01*
Y219185D01*
X287935Y218565D01*
X287021Y217375D01*
X286447Y215988D01*
X286251Y214500D01*
X286447Y213012D01*
X287021Y211625D01*
X287935Y210435D01*
X289125Y209521D01*
X290512Y208947D01*
X292000Y208751D01*
X293488Y208947D01*
X294875Y209521D01*
X296065Y210435D01*
X296979Y211625D01*
X297553Y213012D01*
X297749Y214500D01*
X297553Y215988D01*
X296979Y217375D01*
X296065Y218565D01*
X295258Y219185D01*
Y219815D01*
X296065Y220435D01*
X296979Y221625D01*
X297553Y223012D01*
X297749Y224500D01*
X297553Y225988D01*
X296979Y227375D01*
X296269Y228300D01*
X296515Y228800D01*
X297700D01*
Y240200D01*
D02*
G37*
G36*
X292500Y208166D02*
Y205000D01*
X295666D01*
X295605Y205466D01*
X295232Y206366D01*
X294639Y207139D01*
X293866Y207732D01*
X292966Y208105D01*
X292500Y208166D01*
D02*
G37*
G36*
X291500D02*
X291034Y208105D01*
X290134Y207732D01*
X289361Y207139D01*
X288768Y206366D01*
X288395Y205466D01*
X288334Y205000D01*
X291500D01*
Y208166D01*
D02*
G37*
G36*
X48020Y233453D02*
X36114D01*
Y221547D01*
X48020D01*
Y233453D01*
D02*
G37*
G36*
X349500Y263531D02*
X348226Y263406D01*
X347001Y263034D01*
X345871Y262431D01*
X344882Y261618D01*
X344069Y260629D01*
X343466Y259500D01*
X343094Y258274D01*
X342969Y257000D01*
X343094Y255726D01*
X343466Y254501D01*
X344069Y253371D01*
X344882Y252382D01*
X345871Y251569D01*
X347001Y250966D01*
X348226Y250594D01*
X349500Y250469D01*
X350774Y250594D01*
X351999Y250966D01*
X353129Y251569D01*
X354118Y252382D01*
X354931Y253371D01*
X355362Y254179D01*
X355955Y254227D01*
X356291Y253791D01*
X357231Y253069D01*
X358325Y252616D01*
X359000Y252527D01*
Y257000D01*
Y261473D01*
X358325Y261384D01*
X357231Y260931D01*
X356291Y260209D01*
X355955Y259772D01*
X355362Y259821D01*
X354931Y260629D01*
X354118Y261618D01*
X353129Y262431D01*
X351999Y263034D01*
X350774Y263406D01*
X349500Y263531D01*
D02*
G37*
G36*
X39500Y255223D02*
Y252000D01*
X42722D01*
X42659Y252481D01*
X42281Y253394D01*
X41679Y254179D01*
X40894Y254781D01*
X39981Y255159D01*
X39500Y255223D01*
D02*
G37*
G36*
X38500D02*
X38019Y255159D01*
X37106Y254781D01*
X36321Y254179D01*
X35719Y253394D01*
X35341Y252481D01*
X35278Y252000D01*
X38500D01*
Y255223D01*
D02*
G37*
G36*
X363973Y256500D02*
X360000D01*
Y252527D01*
X360675Y252616D01*
X361769Y253069D01*
X362709Y253791D01*
X363431Y254731D01*
X363884Y255825D01*
X363973Y256500D01*
D02*
G37*
G36*
X39000Y287306D02*
X37497Y287108D01*
X36097Y286528D01*
X34895Y285605D01*
X33972Y284403D01*
X33392Y283003D01*
X33194Y281500D01*
X33392Y279997D01*
X33972Y278597D01*
X34895Y277395D01*
X36097Y276472D01*
X37497Y275892D01*
X39000Y275694D01*
X40503Y275892D01*
X41903Y276472D01*
X43105Y277395D01*
X44028Y278597D01*
X44608Y279997D01*
X44806Y281500D01*
X44608Y283003D01*
X44028Y284403D01*
X43105Y285605D01*
X41903Y286528D01*
X40503Y287108D01*
X39000Y287306D01*
D02*
G37*
G36*
X120000Y284033D02*
X118352Y283903D01*
X116745Y283517D01*
X115218Y282885D01*
X113809Y282021D01*
X112552Y280948D01*
X111479Y279691D01*
X110616Y278282D01*
X109983Y276755D01*
X109597Y275148D01*
X109467Y273500D01*
X109597Y271852D01*
X109983Y270245D01*
X110616Y268718D01*
X111479Y267309D01*
X112552Y266052D01*
X113809Y264979D01*
X115218Y264116D01*
X116745Y263483D01*
X118352Y263097D01*
X120000Y262967D01*
X121648Y263097D01*
X123255Y263483D01*
X124782Y264116D01*
X126191Y264979D01*
X127448Y266052D01*
X128521Y267309D01*
X129385Y268718D01*
X130017Y270245D01*
X130403Y271852D01*
X130533Y273500D01*
X130403Y275148D01*
X130017Y276755D01*
X129385Y278282D01*
X128521Y279691D01*
X127448Y280948D01*
X126191Y282021D01*
X124782Y282885D01*
X123255Y283517D01*
X121648Y283903D01*
X120000Y284033D01*
D02*
G37*
G36*
X360000Y261473D02*
Y257500D01*
X363973D01*
X363884Y258175D01*
X363431Y259269D01*
X362709Y260209D01*
X361769Y260931D01*
X360675Y261384D01*
X360000Y261473D01*
D02*
G37*
G36*
X385500Y233531D02*
X384226Y233406D01*
X383000Y233034D01*
X381871Y232431D01*
X380882Y231618D01*
X380750Y231458D01*
X380250D01*
X380118Y231618D01*
X379129Y232431D01*
X377999Y233034D01*
X376774Y233406D01*
X375500Y233531D01*
X374226Y233406D01*
X373001Y233034D01*
X371871Y232431D01*
X370882Y231618D01*
X370069Y230629D01*
X369466Y229500D01*
X369094Y228274D01*
X368969Y227000D01*
X369094Y225726D01*
X369466Y224500D01*
X370069Y223371D01*
X370882Y222382D01*
X371871Y221569D01*
X373001Y220966D01*
X374226Y220594D01*
X375500Y220469D01*
X376774Y220594D01*
X377999Y220966D01*
X379129Y221569D01*
X380118Y222382D01*
X380250Y222542D01*
X380750D01*
X380882Y222382D01*
X381871Y221569D01*
X383000Y220966D01*
X384226Y220594D01*
X385500Y220469D01*
X386774Y220594D01*
X388000Y220966D01*
X389129Y221569D01*
X390118Y222382D01*
X390931Y223371D01*
X391534Y224500D01*
X391906Y225726D01*
X392031Y227000D01*
X391906Y228274D01*
X391534Y229500D01*
X390931Y230629D01*
X390118Y231618D01*
X389129Y232431D01*
X388000Y233034D01*
X386774Y233406D01*
X385500Y233531D01*
D02*
G37*
G36*
X127992Y233000D02*
X120000D01*
Y225008D01*
X121166Y225123D01*
X122769Y225609D01*
X124245Y226398D01*
X125540Y227461D01*
X126602Y228755D01*
X127391Y230231D01*
X127877Y231834D01*
X127992Y233000D01*
D02*
G37*
G36*
X119000D02*
X111008D01*
X111123Y231834D01*
X111609Y230231D01*
X112398Y228755D01*
X113461Y227461D01*
X114755Y226398D01*
X116231Y225609D01*
X117834Y225123D01*
X119000Y225008D01*
Y233000D01*
D02*
G37*
G36*
Y241992D02*
X117834Y241877D01*
X116231Y241391D01*
X114755Y240602D01*
X113461Y239540D01*
X112398Y238245D01*
X111609Y236769D01*
X111123Y235166D01*
X111008Y234000D01*
X119000D01*
Y241992D01*
D02*
G37*
G36*
X42722Y251000D02*
X39500D01*
Y247778D01*
X39981Y247841D01*
X40894Y248219D01*
X41679Y248821D01*
X42281Y249606D01*
X42659Y250519D01*
X42722Y251000D01*
D02*
G37*
G36*
X38500D02*
X35278D01*
X35341Y250519D01*
X35719Y249606D01*
X36321Y248821D01*
X37106Y248219D01*
X38019Y247841D01*
X38500Y247778D01*
Y251000D01*
D02*
G37*
G36*
X120000Y241992D02*
Y234000D01*
X127992D01*
X127877Y235166D01*
X127391Y236769D01*
X126602Y238245D01*
X125540Y239540D01*
X124245Y240602D01*
X122769Y241391D01*
X121166Y241877D01*
X120000Y241992D01*
D02*
G37*
G36*
X121000Y211532D02*
X119352Y211403D01*
X117745Y211017D01*
X116218Y210384D01*
X114809Y209521D01*
X113552Y208448D01*
X112479Y207191D01*
X111616Y205782D01*
X110983Y204255D01*
X110597Y202648D01*
X110468Y201000D01*
X110597Y199352D01*
X110983Y197745D01*
X111616Y196218D01*
X112479Y194809D01*
X113552Y193552D01*
X114809Y192479D01*
X116218Y191615D01*
X117745Y190983D01*
X119352Y190597D01*
X121000Y190468D01*
X122648Y190597D01*
X124255Y190983D01*
X125782Y191615D01*
X127191Y192479D01*
X128448Y193552D01*
X129521Y194809D01*
X130385Y196218D01*
X131017Y197745D01*
X131403Y199352D01*
X131533Y201000D01*
X131403Y202648D01*
X131017Y204255D01*
X130385Y205782D01*
X129521Y207191D01*
X128448Y208448D01*
X127191Y209521D01*
X125782Y210384D01*
X124255Y211017D01*
X122648Y211403D01*
X121000Y211532D01*
D02*
G37*
G36*
X190000Y163500D02*
X186834D01*
X186895Y163034D01*
X187268Y162134D01*
X187861Y161361D01*
X188634Y160768D01*
X189534Y160395D01*
X190000Y160334D01*
Y163500D01*
D02*
G37*
G36*
X252000Y162464D02*
Y159500D01*
X254964D01*
X254910Y159914D01*
X254557Y160765D01*
X253996Y161496D01*
X253265Y162057D01*
X252414Y162410D01*
X252000Y162464D01*
D02*
G37*
G36*
X251000D02*
X250586Y162410D01*
X249735Y162057D01*
X249004Y161496D01*
X248443Y160765D01*
X248090Y159914D01*
X248036Y159500D01*
X251000D01*
Y162464D01*
D02*
G37*
G36*
X194166Y163500D02*
X191000D01*
Y160334D01*
X191466Y160395D01*
X192366Y160768D01*
X193139Y161361D01*
X193732Y162134D01*
X194105Y163034D01*
X194166Y163500D01*
D02*
G37*
G36*
X121000Y169492D02*
Y161500D01*
X128992D01*
X128877Y162666D01*
X128391Y164269D01*
X127602Y165745D01*
X126540Y167040D01*
X125245Y168102D01*
X123769Y168891D01*
X122166Y169377D01*
X121000Y169492D01*
D02*
G37*
G36*
X120000D02*
X118834Y169377D01*
X117231Y168891D01*
X115755Y168102D01*
X114461Y167040D01*
X113398Y165745D01*
X112609Y164269D01*
X112123Y162666D01*
X112008Y161500D01*
X120000D01*
Y169492D01*
D02*
G37*
G36*
X260000Y182033D02*
X258352Y181903D01*
X256745Y181517D01*
X255218Y180885D01*
X253809Y180021D01*
X252552Y178948D01*
X251479Y177691D01*
X250616Y176282D01*
X249983Y174755D01*
X249597Y173148D01*
X249467Y171500D01*
X249597Y169852D01*
X249983Y168245D01*
X250616Y166718D01*
X251479Y165309D01*
X252552Y164052D01*
X253809Y162979D01*
X255218Y162116D01*
X256745Y161483D01*
X258352Y161097D01*
X260000Y160968D01*
X261648Y161097D01*
X263255Y161483D01*
X264782Y162116D01*
X266191Y162979D01*
X267448Y164052D01*
X268521Y165309D01*
X269385Y166718D01*
X270017Y168245D01*
X270403Y169852D01*
X270532Y171500D01*
X270403Y173148D01*
X270017Y174755D01*
X269385Y176282D01*
X268521Y177691D01*
X267448Y178948D01*
X266191Y180021D01*
X264782Y180885D01*
X263255Y181517D01*
X261648Y181903D01*
X260000Y182033D01*
D02*
G37*
G36*
X128992Y160500D02*
X121000D01*
Y152508D01*
X122166Y152623D01*
X123769Y153109D01*
X125245Y153898D01*
X126540Y154961D01*
X127602Y156255D01*
X128391Y157731D01*
X128877Y159334D01*
X128992Y160500D01*
D02*
G37*
G36*
X120000D02*
X112008D01*
X112123Y159334D01*
X112609Y157731D01*
X113398Y156255D01*
X114461Y154961D01*
X115755Y153898D01*
X117231Y153109D01*
X118834Y152623D01*
X120000Y152508D01*
Y160500D01*
D02*
G37*
G36*
X48020Y162061D02*
X36114D01*
Y150155D01*
X48020D01*
Y162061D01*
D02*
G37*
G36*
X172500Y166529D02*
X171324Y166413D01*
X170193Y166070D01*
X169150Y165513D01*
X168237Y164763D01*
X167487Y163849D01*
X166930Y162807D01*
X166587Y161676D01*
X166471Y160500D01*
X166587Y159324D01*
X166930Y158193D01*
X167487Y157150D01*
X168237Y156237D01*
X169150Y155487D01*
X170193Y154930D01*
X171324Y154587D01*
X172500Y154471D01*
X173676Y154587D01*
X174807Y154930D01*
X175849Y155487D01*
X176763Y156237D01*
X177513Y157150D01*
X178070Y158193D01*
X178413Y159324D01*
X178529Y160500D01*
X178413Y161676D01*
X178070Y162807D01*
X177513Y163849D01*
X176763Y164763D01*
X175849Y165513D01*
X174807Y166070D01*
X173676Y166413D01*
X172500Y166529D01*
D02*
G37*
G36*
X220500Y199749D02*
X219012Y199553D01*
X217625Y198979D01*
X216435Y198065D01*
X215521Y196875D01*
X214947Y195488D01*
X214751Y194000D01*
X214947Y192512D01*
X215521Y191125D01*
X216435Y189935D01*
X217242Y189315D01*
Y188685D01*
X216435Y188065D01*
X215521Y186875D01*
X214947Y185488D01*
X214751Y184000D01*
X214947Y182512D01*
X215521Y181125D01*
X216435Y179935D01*
X217242Y179315D01*
Y178685D01*
X216435Y178065D01*
X215521Y176875D01*
X214947Y175488D01*
X214751Y174000D01*
X214947Y172512D01*
X215521Y171125D01*
X216435Y169935D01*
X217242Y169315D01*
Y168685D01*
X216435Y168065D01*
X215521Y166875D01*
X214947Y165488D01*
X214751Y164000D01*
X214947Y162512D01*
X215521Y161125D01*
X216435Y159935D01*
X217625Y159021D01*
X219012Y158447D01*
X220500Y158251D01*
X221988Y158447D01*
X223375Y159021D01*
X224565Y159935D01*
X225479Y161125D01*
X226053Y162512D01*
X226249Y164000D01*
X226053Y165488D01*
X225479Y166875D01*
X224565Y168065D01*
X223758Y168685D01*
Y169315D01*
X224565Y169935D01*
X225479Y171125D01*
X226053Y172512D01*
X226249Y174000D01*
X226053Y175488D01*
X225479Y176875D01*
X224565Y178065D01*
X223758Y178685D01*
Y179315D01*
X224565Y179935D01*
X225479Y181125D01*
X226053Y182512D01*
X226249Y184000D01*
X226053Y185488D01*
X225479Y186875D01*
X224565Y188065D01*
X223758Y188685D01*
Y189315D01*
X224565Y189935D01*
X225479Y191125D01*
X226053Y192512D01*
X226249Y194000D01*
X226053Y195488D01*
X225479Y196875D01*
X224565Y198065D01*
X223375Y198979D01*
X221988Y199553D01*
X220500Y199749D01*
D02*
G37*
G36*
X254964Y158500D02*
X252000D01*
Y155536D01*
X252414Y155590D01*
X253265Y155943D01*
X253996Y156504D01*
X254557Y157235D01*
X254910Y158086D01*
X254964Y158500D01*
D02*
G37*
G36*
X251000D02*
X248036D01*
X248090Y158086D01*
X248443Y157235D01*
X249004Y156504D01*
X249735Y155943D01*
X250586Y155590D01*
X251000Y155536D01*
Y158500D01*
D02*
G37*
G36*
X299500Y170500D02*
X291508D01*
X291623Y169334D01*
X292109Y167731D01*
X292898Y166255D01*
X293960Y164961D01*
X295255Y163898D01*
X296731Y163109D01*
X298334Y162623D01*
X299500Y162508D01*
Y170500D01*
D02*
G37*
G36*
X328500Y181992D02*
Y174000D01*
X336492D01*
X336377Y175166D01*
X335891Y176769D01*
X335102Y178245D01*
X334039Y179540D01*
X332745Y180602D01*
X331269Y181391D01*
X329666Y181877D01*
X328500Y181992D01*
D02*
G37*
G36*
X327500D02*
X326334Y181877D01*
X324731Y181391D01*
X323255Y180602D01*
X321960Y179540D01*
X320898Y178245D01*
X320109Y176769D01*
X319623Y175166D01*
X319508Y174000D01*
X327500D01*
Y181992D01*
D02*
G37*
G36*
X300500Y179492D02*
Y171500D01*
X308492D01*
X308377Y172666D01*
X307891Y174269D01*
X307102Y175745D01*
X306040Y177040D01*
X304745Y178102D01*
X303269Y178891D01*
X301666Y179377D01*
X300500Y179492D01*
D02*
G37*
G36*
X38500Y179608D02*
X35278D01*
X35341Y179128D01*
X35719Y178214D01*
X36321Y177429D01*
X37106Y176827D01*
X38019Y176449D01*
X38500Y176386D01*
Y179608D01*
D02*
G37*
G36*
X39500Y183831D02*
Y180608D01*
X42722D01*
X42659Y181089D01*
X42281Y182002D01*
X41679Y182787D01*
X40894Y183389D01*
X39981Y183767D01*
X39500Y183831D01*
D02*
G37*
G36*
X38500D02*
X38019Y183767D01*
X37106Y183389D01*
X36321Y182787D01*
X35719Y182002D01*
X35341Y181089D01*
X35278Y180608D01*
X38500D01*
Y183831D01*
D02*
G37*
G36*
X42722Y179608D02*
X39500D01*
Y176386D01*
X39981Y176449D01*
X40894Y176827D01*
X41679Y177429D01*
X42281Y178214D01*
X42659Y179128D01*
X42722Y179608D01*
D02*
G37*
G36*
X191000Y167666D02*
Y164500D01*
X194166D01*
X194105Y164966D01*
X193732Y165866D01*
X193139Y166639D01*
X192366Y167232D01*
X191466Y167605D01*
X191000Y167666D01*
D02*
G37*
G36*
X190000D02*
X189534Y167605D01*
X188634Y167232D01*
X187861Y166639D01*
X187268Y165866D01*
X186895Y164966D01*
X186834Y164500D01*
X190000D01*
Y167666D01*
D02*
G37*
G36*
X308492Y170500D02*
X300500D01*
Y162508D01*
X301666Y162623D01*
X303269Y163109D01*
X304745Y163898D01*
X306040Y164961D01*
X307102Y166255D01*
X307891Y167731D01*
X308377Y169334D01*
X308492Y170500D01*
D02*
G37*
G36*
X327500Y173000D02*
X319508D01*
X319623Y171834D01*
X320109Y170231D01*
X320898Y168755D01*
X321960Y167461D01*
X323255Y166398D01*
X324731Y165609D01*
X326334Y165123D01*
X327500Y165008D01*
Y173000D01*
D02*
G37*
G36*
X299500Y179492D02*
X298334Y179377D01*
X296731Y178891D01*
X295255Y178102D01*
X293960Y177040D01*
X292898Y175745D01*
X292109Y174269D01*
X291623Y172666D01*
X291508Y171500D01*
X299500D01*
Y179492D01*
D02*
G37*
G36*
X196200Y199700D02*
X184800D01*
Y188300D01*
X185985D01*
X186231Y187800D01*
X185521Y186875D01*
X184947Y185488D01*
X184751Y184000D01*
X184947Y182512D01*
X185521Y181125D01*
X186435Y179935D01*
X187242Y179315D01*
Y178685D01*
X186435Y178065D01*
X185521Y176875D01*
X184947Y175488D01*
X184751Y174000D01*
X184947Y172512D01*
X185521Y171125D01*
X186435Y169935D01*
X187625Y169021D01*
X189012Y168447D01*
X190500Y168251D01*
X191988Y168447D01*
X193375Y169021D01*
X194565Y169935D01*
X195479Y171125D01*
X196053Y172512D01*
X196249Y174000D01*
X196053Y175488D01*
X195479Y176875D01*
X194565Y178065D01*
X193758Y178685D01*
Y179315D01*
X194565Y179935D01*
X195479Y181125D01*
X196053Y182512D01*
X196249Y184000D01*
X196053Y185488D01*
X195479Y186875D01*
X194769Y187800D01*
X195015Y188300D01*
X196200D01*
Y199700D01*
D02*
G37*
G36*
X336492Y173000D02*
X328500D01*
Y165008D01*
X329666Y165123D01*
X331269Y165609D01*
X332745Y166398D01*
X334039Y167461D01*
X335102Y168755D01*
X335891Y170231D01*
X336377Y171834D01*
X336492Y173000D01*
D02*
G37*
%LPD*%
D28*
X232000Y137500D02*
D03*
X161067Y119100D02*
D03*
X42067Y227500D02*
D03*
Y156108D02*
D03*
Y84608D02*
D03*
Y12000D02*
D03*
D29*
X383000Y11500D02*
D03*
X150000D02*
D03*
X10500Y290000D02*
D03*
X150000D02*
D03*
X383000Y288500D02*
D03*
D30*
X385500Y227000D02*
D03*
X375500D02*
D03*
X359500Y257000D02*
D03*
X349500D02*
D03*
D31*
X206933Y119100D02*
D03*
X87933Y227500D02*
D03*
Y156108D02*
D03*
Y84608D02*
D03*
Y12000D02*
D03*
D32*
X190500Y194000D02*
D03*
X292000Y234500D02*
D03*
D33*
X190500Y184000D02*
D03*
Y174000D02*
D03*
Y164000D02*
D03*
X220500D02*
D03*
Y174000D02*
D03*
Y184000D02*
D03*
Y194000D02*
D03*
X292000Y224500D02*
D03*
Y214500D02*
D03*
Y204500D02*
D03*
X322000D02*
D03*
Y214500D02*
D03*
Y224500D02*
D03*
Y234500D02*
D03*
D34*
X260000Y171500D02*
D03*
X300000Y171000D02*
D03*
X327500Y133500D02*
D03*
X328000Y173500D02*
D03*
X257500Y121000D02*
D03*
X297500Y120500D02*
D03*
X308000Y145000D02*
D03*
X268000Y145500D02*
D03*
X119500Y233500D02*
D03*
X120000Y273500D02*
D03*
X120500Y161000D02*
D03*
X121000Y201000D02*
D03*
X119000Y89000D02*
D03*
X119500Y129000D02*
D03*
Y19500D02*
D03*
X120000Y59500D02*
D03*
D35*
X227500Y280500D02*
D03*
X327500D02*
D03*
D36*
X172500Y160500D02*
D03*
Y140500D02*
D03*
X152500Y150500D02*
D03*
D37*
X299376Y76885D02*
D03*
X296276D02*
D03*
X293176D02*
D03*
X299376Y79984D02*
D03*
X296276D02*
D03*
X293176D02*
D03*
X299376Y83084D02*
D03*
X296276D02*
D03*
X293176D02*
D03*
X169600Y76900D02*
D03*
X166500D02*
D03*
X163400D02*
D03*
X169600Y80000D02*
D03*
X166500D02*
D03*
X163400D02*
D03*
X169600Y83100D02*
D03*
X166500D02*
D03*
X163400D02*
D03*
D38*
X194500Y224500D02*
D03*
X164500D02*
D03*
X39000Y251500D02*
D03*
Y281500D02*
D03*
Y180108D02*
D03*
Y210108D02*
D03*
Y108608D02*
D03*
Y138608D02*
D03*
Y37108D02*
D03*
Y67108D02*
D03*
D39*
X342500Y114500D02*
D03*
X218500Y71000D02*
D03*
X348276Y70985D02*
D03*
X251500Y159000D02*
D03*
X211500Y217500D02*
D03*
X349000Y135500D02*
D03*
M02*
