G04 Layer_Physical_Order=1*
G04 Layer_Color=255*
%FSLAX25Y25*%
%MOIN*%
G70*
G01*
G75*
%ADD10R,0.04800X0.02100*%
%ADD11R,0.08661X0.02362*%
%ADD12R,0.05512X0.04331*%
%ADD13R,0.04331X0.05512*%
%ADD14R,0.07800X0.02200*%
%ADD15R,0.04000X0.10600*%
%ADD16R,0.41000X0.41200*%
%ADD17R,0.02559X0.02480*%
%ADD18R,0.09646X0.09646*%
%ADD19R,0.04347X0.01102*%
%ADD20R,0.01102X0.04347*%
%ADD21R,0.03937X0.05118*%
%ADD22R,0.05906X0.05512*%
%ADD23R,0.05512X0.05906*%
%ADD24C,0.01500*%
%ADD25C,0.04000*%
%ADD26C,0.01000*%
%ADD27C,0.03000*%
%ADD28C,0.01200*%
%ADD29R,0.05906X0.05906*%
%ADD30C,0.06000*%
%ADD31C,0.07000*%
%ADD32C,0.05906*%
%ADD33R,0.05400X0.05400*%
%ADD34C,0.05400*%
%ADD35C,0.15000*%
G04:AMPARAMS|DCode=36|XSize=290mil|YSize=80mil|CornerRadius=20mil|HoleSize=0mil|Usage=FLASHONLY|Rotation=90.000|XOffset=0mil|YOffset=0mil|HoleType=Round|Shape=RoundedRectangle|*
%AMROUNDEDRECTD36*
21,1,0.29000,0.04000,0,0,90.0*
21,1,0.25000,0.08000,0,0,90.0*
1,1,0.04000,0.02000,0.12500*
1,1,0.04000,0.02000,-0.12500*
1,1,0.04000,-0.02000,-0.12500*
1,1,0.04000,-0.02000,0.12500*
%
%ADD36ROUNDEDRECTD36*%
%ADD37C,0.06000*%
%ADD38C,0.02000*%
%ADD39C,0.05512*%
%ADD40C,0.05000*%
G36*
X397939Y280405D02*
X397969Y280320D01*
X398020Y280245D01*
X398091Y280180D01*
X398182Y280125D01*
X398293Y280080D01*
X398425Y280045D01*
X398576Y280020D01*
X398748Y280005D01*
X398941Y280000D01*
Y279000D01*
X398748Y278995D01*
X398576Y278980D01*
X398425Y278955D01*
X398293Y278920D01*
X398182Y278875D01*
X398091Y278820D01*
X398020Y278755D01*
X397969Y278680D01*
X397939Y278595D01*
X397929Y278500D01*
Y280500D01*
X397939Y280405D01*
D02*
G37*
G36*
X527714Y280389D02*
X527745Y280305D01*
X527795Y280229D01*
X527866Y280165D01*
X527957Y280110D01*
X528069Y280065D01*
X528200Y280030D01*
X528352Y280005D01*
X528524Y279990D01*
X528716Y279984D01*
Y278984D01*
X528524Y278979D01*
X528352Y278964D01*
X528200Y278940D01*
X528069Y278905D01*
X527957Y278859D01*
X527866Y278804D01*
X527795Y278740D01*
X527745Y278664D01*
X527714Y278579D01*
X527704Y278485D01*
Y280485D01*
X527714Y280389D01*
D02*
G37*
G36*
X392071Y279000D02*
X392061Y279095D01*
X392031Y279180D01*
X391980Y279255D01*
X391909Y279320D01*
X391818Y279375D01*
X391707Y279420D01*
X391575Y279455D01*
X391424Y279480D01*
X391251Y279495D01*
X391059Y279500D01*
Y280500D01*
X391251Y280505D01*
X391424Y280520D01*
X391575Y280545D01*
X391707Y280580D01*
X391818Y280625D01*
X391909Y280680D01*
X391980Y280745D01*
X392031Y280820D01*
X392061Y280905D01*
X392071Y281000D01*
Y279000D01*
D02*
G37*
G36*
X521847Y278984D02*
X521837Y279080D01*
X521806Y279165D01*
X521756Y279240D01*
X521685Y279305D01*
X521594Y279360D01*
X521483Y279404D01*
X521351Y279439D01*
X521199Y279465D01*
X521027Y279480D01*
X520835Y279485D01*
Y280485D01*
X521027Y280489D01*
X521199Y280504D01*
X521351Y280529D01*
X521483Y280564D01*
X521594Y280609D01*
X521685Y280664D01*
X521756Y280730D01*
X521806Y280804D01*
X521837Y280890D01*
X521847Y280984D01*
Y278984D01*
D02*
G37*
G36*
X309189Y286559D02*
X309309Y286433D01*
X309509Y286321D01*
X309789Y286225D01*
X310149Y286143D01*
X310589Y286076D01*
X311709Y285986D01*
X313149Y285957D01*
Y281957D01*
X312389Y281949D01*
X310149Y281771D01*
X309789Y281689D01*
X309509Y281592D01*
X309309Y281481D01*
X309189Y281354D01*
X309149Y281213D01*
X309120Y281173D01*
X309094Y281053D01*
X309071Y280853D01*
X309034Y280213D01*
X308996Y277213D01*
X304996D01*
X304843Y281213D01*
X309149D01*
Y286701D01*
X309189Y286559D01*
D02*
G37*
G36*
X325041Y285913D02*
X324970Y285370D01*
Y275847D01*
X324613Y275535D01*
X322319D01*
X321854Y275474D01*
X320972D01*
Y280449D01*
X317676D01*
X317455Y280897D01*
X317867Y281435D01*
X318371Y282651D01*
X318543Y283957D01*
Y286414D01*
X324632D01*
X325041Y285913D01*
D02*
G37*
G36*
X356768Y277500D02*
X356758Y277595D01*
X356728Y277680D01*
X356677Y277755D01*
X356606Y277820D01*
X356515Y277875D01*
X356404Y277920D01*
X356272Y277955D01*
X356120Y277980D01*
X355948Y277995D01*
X355756Y278000D01*
Y279000D01*
X355948Y279005D01*
X356120Y279020D01*
X356272Y279045D01*
X356404Y279080D01*
X356515Y279125D01*
X356606Y279180D01*
X356677Y279245D01*
X356728Y279320D01*
X356758Y279405D01*
X356768Y279500D01*
Y277500D01*
D02*
G37*
G36*
X486544Y277484D02*
X486534Y277579D01*
X486503Y277664D01*
X486453Y277740D01*
X486382Y277804D01*
X486291Y277859D01*
X486179Y277905D01*
X486048Y277940D01*
X485896Y277964D01*
X485724Y277979D01*
X485532Y277984D01*
Y278984D01*
X485724Y278990D01*
X485896Y279005D01*
X486048Y279029D01*
X486179Y279064D01*
X486291Y279110D01*
X486382Y279165D01*
X486453Y279229D01*
X486503Y279305D01*
X486534Y279390D01*
X486544Y279485D01*
Y277484D01*
D02*
G37*
G36*
X525281Y283432D02*
X525296Y283262D01*
X525321Y283112D01*
X525356Y282982D01*
X525401Y282872D01*
X525456Y282782D01*
X525521Y282712D01*
X525596Y282662D01*
X525681Y282632D01*
X525776Y282622D01*
X523776D01*
X523871Y282632D01*
X523956Y282662D01*
X524031Y282712D01*
X524096Y282782D01*
X524151Y282872D01*
X524196Y282982D01*
X524231Y283112D01*
X524256Y283262D01*
X524271Y283432D01*
X524276Y283622D01*
X525276D01*
X525281Y283432D01*
D02*
G37*
G36*
X244685Y283614D02*
X244600Y283583D01*
X244525Y283533D01*
X244460Y283462D01*
X244405Y283371D01*
X244359Y283260D01*
X244324Y283128D01*
X244300Y282976D01*
X244285Y282804D01*
X244280Y282612D01*
X243280D01*
X243274Y282804D01*
X243260Y282976D01*
X243234Y283128D01*
X243199Y283260D01*
X243155Y283371D01*
X243099Y283462D01*
X243035Y283533D01*
X242959Y283583D01*
X242875Y283614D01*
X242779Y283624D01*
X244779D01*
X244685Y283614D01*
D02*
G37*
G36*
X533733Y294135D02*
Y283003D01*
X533232Y282669D01*
X532689Y282894D01*
X531776Y283015D01*
X530728D01*
Y285634D01*
X528269D01*
X528186Y286268D01*
X527833Y287120D01*
X527272Y287851D01*
X526541Y288412D01*
X525689Y288765D01*
X524776Y288885D01*
X519520D01*
X519350Y289385D01*
X520066Y289934D01*
X520867Y290978D01*
X521371Y292195D01*
X521543Y293500D01*
X521543Y293500D01*
Y295748D01*
X521552Y295916D01*
X521601Y296195D01*
X521648Y296335D01*
X521654Y296346D01*
X521665Y296352D01*
X521805Y296399D01*
X522084Y296448D01*
X522252Y296457D01*
X531411D01*
X533733Y294135D01*
D02*
G37*
G36*
X395505Y283448D02*
X395520Y283278D01*
X395545Y283128D01*
X395580Y282998D01*
X395625Y282888D01*
X395680Y282798D01*
X395745Y282728D01*
X395820Y282678D01*
X395905Y282648D01*
X396000Y282638D01*
X394000D01*
X394095Y282648D01*
X394180Y282678D01*
X394255Y282728D01*
X394320Y282798D01*
X394375Y282888D01*
X394420Y282998D01*
X394455Y283128D01*
X394480Y283278D01*
X394495Y283448D01*
X394500Y283638D01*
X395500D01*
X395505Y283448D01*
D02*
G37*
G36*
X340505Y280871D02*
X340520Y280698D01*
X340545Y280547D01*
X340580Y280415D01*
X340625Y280304D01*
X340680Y280213D01*
X340745Y280142D01*
X340820Y280091D01*
X340905Y280061D01*
X341000Y280051D01*
X339000D01*
X339095Y280061D01*
X339180Y280091D01*
X339255Y280142D01*
X339320Y280213D01*
X339375Y280304D01*
X339420Y280415D01*
X339455Y280547D01*
X339480Y280698D01*
X339495Y280871D01*
X339500Y281063D01*
X340500D01*
X340505Y280871D01*
D02*
G37*
G36*
X470281Y280855D02*
X470296Y280683D01*
X470321Y280531D01*
X470356Y280400D01*
X470401Y280288D01*
X470456Y280197D01*
X470521Y280126D01*
X470596Y280076D01*
X470681Y280045D01*
X470776Y280035D01*
X468776D01*
X468871Y280045D01*
X468956Y280076D01*
X469031Y280126D01*
X469096Y280197D01*
X469151Y280288D01*
X469196Y280400D01*
X469231Y280531D01*
X469256Y280683D01*
X469271Y280855D01*
X469276Y281047D01*
X470276D01*
X470281Y280855D01*
D02*
G37*
G36*
X377005Y281948D02*
X377020Y281778D01*
X377045Y281628D01*
X377080Y281498D01*
X377125Y281388D01*
X377180Y281298D01*
X377245Y281228D01*
X377320Y281178D01*
X377405Y281148D01*
X377500Y281138D01*
X375500D01*
X375595Y281148D01*
X375680Y281178D01*
X375755Y281228D01*
X375820Y281298D01*
X375875Y281388D01*
X375920Y281498D01*
X375955Y281628D01*
X375980Y281778D01*
X375995Y281948D01*
X376000Y282138D01*
X377000D01*
X377005Y281948D01*
D02*
G37*
G36*
X506781Y281932D02*
X506796Y281762D01*
X506821Y281612D01*
X506856Y281482D01*
X506901Y281372D01*
X506956Y281282D01*
X507021Y281212D01*
X507096Y281162D01*
X507181Y281132D01*
X507276Y281122D01*
X505276D01*
X505371Y281132D01*
X505456Y281162D01*
X505531Y281212D01*
X505596Y281282D01*
X505651Y281372D01*
X505696Y281482D01*
X505731Y281612D01*
X505756Y281762D01*
X505771Y281932D01*
X505776Y282122D01*
X506776D01*
X506781Y281932D01*
D02*
G37*
G36*
X467044Y270441D02*
X467034Y270536D01*
X467003Y270621D01*
X466953Y270696D01*
X466882Y270761D01*
X466791Y270816D01*
X466679Y270861D01*
X466548Y270896D01*
X466396Y270921D01*
X466224Y270936D01*
X466032Y270941D01*
Y271941D01*
X466224Y271946D01*
X466396Y271961D01*
X466548Y271986D01*
X466679Y272021D01*
X466791Y272066D01*
X466882Y272121D01*
X466953Y272186D01*
X467003Y272261D01*
X467034Y272346D01*
X467044Y272441D01*
Y270441D01*
D02*
G37*
G36*
X342742Y271862D02*
X342772Y271777D01*
X342823Y271702D01*
X342894Y271637D01*
X342985Y271582D01*
X343096Y271537D01*
X343228Y271502D01*
X343380Y271477D01*
X343552Y271462D01*
X343744Y271457D01*
Y270457D01*
X343552Y270452D01*
X343380Y270437D01*
X343228Y270412D01*
X343096Y270377D01*
X342985Y270332D01*
X342894Y270277D01*
X342823Y270212D01*
X342772Y270137D01*
X342742Y270052D01*
X342732Y269957D01*
Y271957D01*
X342742Y271862D01*
D02*
G37*
G36*
X453713Y271489D02*
X453522Y271488D01*
X452873Y271445D01*
X452803Y271430D01*
X452752Y271411D01*
X452723Y271391D01*
X452712Y271368D01*
Y272446D01*
X452723Y272454D01*
X452752Y272462D01*
X452803Y272468D01*
X452962Y272478D01*
X453713Y272489D01*
Y271489D01*
D02*
G37*
G36*
X337268Y270457D02*
X337258Y270552D01*
X337228Y270637D01*
X337177Y270712D01*
X337106Y270777D01*
X337015Y270832D01*
X336904Y270877D01*
X336772Y270912D01*
X336620Y270937D01*
X336448Y270952D01*
X336256Y270957D01*
Y271957D01*
X336448Y271962D01*
X336620Y271977D01*
X336772Y272002D01*
X336904Y272037D01*
X337015Y272082D01*
X337106Y272137D01*
X337177Y272202D01*
X337228Y272277D01*
X337258Y272362D01*
X337268Y272457D01*
Y270457D01*
D02*
G37*
G36*
X492018Y271346D02*
X492049Y271261D01*
X492100Y271186D01*
X492171Y271121D01*
X492262Y271066D01*
X492374Y271021D01*
X492505Y270986D01*
X492656Y270961D01*
X492828Y270946D01*
X493019Y270941D01*
Y269941D01*
X492830Y269940D01*
X492109Y269889D01*
X492060Y269873D01*
X492029Y269855D01*
X492020Y269835D01*
X492007Y271441D01*
X492018Y271346D01*
D02*
G37*
G36*
X373571Y269457D02*
X373561Y269552D01*
X373531Y269637D01*
X373480Y269712D01*
X373409Y269777D01*
X373318Y269832D01*
X373207Y269877D01*
X373075Y269912D01*
X372924Y269937D01*
X372751Y269952D01*
X372559Y269957D01*
Y270957D01*
X372751Y270962D01*
X372924Y270977D01*
X373075Y271002D01*
X373207Y271037D01*
X373318Y271082D01*
X373409Y271137D01*
X373480Y271202D01*
X373531Y271277D01*
X373561Y271362D01*
X373571Y271457D01*
Y269457D01*
D02*
G37*
G36*
X472518Y271846D02*
X472548Y271761D01*
X472599Y271686D01*
X472669Y271621D01*
X472760Y271566D01*
X472872Y271521D01*
X473003Y271486D01*
X473155Y271461D01*
X473327Y271446D01*
X473520Y271441D01*
Y270441D01*
X473327Y270436D01*
X473155Y270421D01*
X473003Y270396D01*
X472872Y270361D01*
X472760Y270316D01*
X472669Y270261D01*
X472599Y270196D01*
X472548Y270121D01*
X472518Y270036D01*
X472507Y269941D01*
Y271941D01*
X472518Y271846D01*
D02*
G37*
G36*
X362243Y271362D02*
X362274Y271277D01*
X362325Y271202D01*
X362396Y271137D01*
X362487Y271082D01*
X362598Y271037D01*
X362729Y271002D01*
X362881Y270977D01*
X363052Y270962D01*
X363244Y270957D01*
Y269957D01*
X363054Y269956D01*
X362334Y269905D01*
X362284Y269889D01*
X362254Y269871D01*
X362244Y269851D01*
X362232Y271457D01*
X362243Y271362D01*
D02*
G37*
G36*
X500323Y276260D02*
Y273971D01*
X495031D01*
Y277154D01*
Y279454D01*
X500323D01*
Y276260D01*
D02*
G37*
G36*
X236000Y273717D02*
X231866D01*
X231879Y273747D01*
X231890Y273811D01*
X231900Y273910D01*
X231922Y274409D01*
X231933Y275552D01*
X235933D01*
X236000Y273717D01*
D02*
G37*
G36*
X194067Y278108D02*
X193307Y278068D01*
X192627Y277948D01*
X192027Y277748D01*
X191507Y277468D01*
X191067Y277108D01*
X190707Y276668D01*
X190427Y276148D01*
X190275Y275691D01*
X190302Y275549D01*
X190406Y275189D01*
X190528Y274909D01*
X190669Y274709D01*
X190829Y274589D01*
X191008Y274549D01*
X190090D01*
X190067Y274108D01*
X186067D01*
X186044Y274549D01*
X185126D01*
X185305Y274589D01*
X185465Y274709D01*
X185606Y274909D01*
X185728Y275189D01*
X185832Y275549D01*
X185859Y275691D01*
X185707Y276148D01*
X185427Y276668D01*
X185067Y277108D01*
X184627Y277468D01*
X184107Y277748D01*
X183507Y277948D01*
X182827Y278068D01*
X182067Y278108D01*
X188067Y282108D01*
X194067Y278108D01*
D02*
G37*
G36*
X370547Y276276D02*
Y273987D01*
X365256D01*
Y279470D01*
X370547D01*
Y276276D01*
D02*
G37*
G36*
X438638Y281216D02*
X438666Y281096D01*
X438691Y280896D01*
X438730Y280256D01*
X438771Y277327D01*
X440752Y277421D01*
Y277263D01*
X441291Y277260D01*
Y273260D01*
X440752Y273235D01*
Y273099D01*
X440718Y273130D01*
X440616Y273157D01*
X440446Y273181D01*
X440208Y273202D01*
X440124Y273205D01*
X437893Y273099D01*
Y273257D01*
X437354Y273260D01*
Y277256D01*
X434772D01*
X434767Y278016D01*
X434602Y280616D01*
X434540Y280896D01*
X434469Y281096D01*
X434389Y281216D01*
X434299Y281256D01*
X438606D01*
X438638Y281216D01*
D02*
G37*
G36*
X323937Y271505D02*
X323747Y271503D01*
X323097Y271461D01*
X323027Y271445D01*
X322977Y271427D01*
X322947Y271406D01*
X322937Y271383D01*
Y272462D01*
X322947Y272470D01*
X322977Y272477D01*
X323027Y272484D01*
X323187Y272494D01*
X323937Y272505D01*
Y271505D01*
D02*
G37*
G36*
X380148Y273397D02*
X379944Y273186D01*
X379625Y272811D01*
X379509Y272646D01*
X379424Y272497D01*
X379368Y272363D01*
X379342Y272245D01*
X379345Y272142D01*
X379378Y272055D01*
X379441Y271983D01*
X377893Y273264D01*
X377976Y273213D01*
X378073Y273189D01*
X378183Y273193D01*
X378305Y273223D01*
X378440Y273280D01*
X378588Y273364D01*
X378748Y273476D01*
X378922Y273614D01*
X379108Y273779D01*
X379307Y273971D01*
X380148Y273397D01*
D02*
G37*
G36*
X509924Y273382D02*
X509719Y273171D01*
X509400Y272795D01*
X509285Y272631D01*
X509200Y272481D01*
X509144Y272348D01*
X509117Y272230D01*
X509121Y272127D01*
X509154Y272040D01*
X509216Y271968D01*
X507668Y273248D01*
X507752Y273198D01*
X507849Y273174D01*
X507958Y273177D01*
X508080Y273208D01*
X508215Y273265D01*
X508363Y273349D01*
X508524Y273460D01*
X508697Y273598D01*
X508883Y273763D01*
X509083Y273955D01*
X509924Y273382D01*
D02*
G37*
G36*
X438606Y286744D02*
X434299D01*
X434329Y286784D01*
X434355Y286904D01*
X434378Y287104D01*
X434414Y287744D01*
X434453Y290744D01*
X438453D01*
X438606Y286744D01*
D02*
G37*
G36*
X458633Y326007D02*
X458080Y325370D01*
X457592Y324732D01*
X457170Y324095D01*
X456812Y323458D01*
X456520Y322821D01*
X456292Y322183D01*
X456130Y321546D01*
X456033Y320909D01*
X456000Y320272D01*
X452000D01*
X451967Y320909D01*
X451870Y321546D01*
X451708Y322183D01*
X451480Y322821D01*
X451188Y323458D01*
X450830Y324095D01*
X450408Y324732D01*
X449920Y325370D01*
X449368Y326007D01*
X448750Y326644D01*
X459250D01*
X458633Y326007D01*
D02*
G37*
G36*
X259911Y326561D02*
X260418Y326157D01*
X260937Y325812D01*
X261466Y325524D01*
X262007Y325295D01*
X262559Y325125D01*
X263122Y325012D01*
X263696Y324958D01*
X264281Y324962D01*
X264877Y325024D01*
X258585Y318731D01*
X258647Y319327D01*
X258650Y319912D01*
X258596Y320486D01*
X258484Y321049D01*
X258313Y321601D01*
X258084Y322142D01*
X257797Y322672D01*
X257451Y323190D01*
X257048Y323697D01*
X256586Y324194D01*
X259414Y327022D01*
X259911Y326561D01*
D02*
G37*
G36*
X369191Y325405D02*
X369221Y325320D01*
X369271Y325245D01*
X369341Y325180D01*
X369431Y325125D01*
X369541Y325080D01*
X369671Y325045D01*
X369821Y325020D01*
X369991Y325005D01*
X370181Y325000D01*
Y324000D01*
X369991Y323995D01*
X369821Y323980D01*
X369671Y323955D01*
X369541Y323920D01*
X369431Y323875D01*
X369341Y323820D01*
X369271Y323755D01*
X369221Y323680D01*
X369191Y323595D01*
X369181Y323500D01*
Y325500D01*
X369191Y325405D01*
D02*
G37*
G36*
X483939Y327818D02*
X483561Y327386D01*
X483224Y326890D01*
X482928Y326329D01*
X482673Y325703D01*
X482458Y325011D01*
X482285Y324254D01*
X482152Y323432D01*
X482060Y322545D01*
X482000Y320575D01*
X474575Y328000D01*
X475593Y328010D01*
X477432Y328152D01*
X478254Y328285D01*
X479011Y328458D01*
X479703Y328673D01*
X480329Y328928D01*
X480890Y329224D01*
X481387Y329561D01*
X481817Y329939D01*
X483939Y327818D01*
D02*
G37*
G36*
X355072Y308154D02*
X355136Y308143D01*
X355235Y308133D01*
X355734Y308111D01*
X356877Y308100D01*
Y304100D01*
X355042Y304033D01*
Y308167D01*
X355072Y308154D01*
D02*
G37*
G36*
X304947Y311076D02*
X306420Y309829D01*
X307071Y309375D01*
X307665Y309035D01*
X308202Y308807D01*
X308682Y308693D01*
X309106Y308692D01*
X309473Y308804D01*
X309783Y309029D01*
X304138Y303384D01*
X304363Y303694D01*
X304475Y304061D01*
X304474Y304485D01*
X304360Y304965D01*
X304132Y305502D01*
X303792Y306096D01*
X303338Y306747D01*
X302771Y307455D01*
X301298Y309041D01*
X304126Y311869D01*
X304947Y311076D01*
D02*
G37*
G36*
X525895Y314082D02*
X525812Y313992D01*
X525739Y313842D01*
X525676Y313632D01*
X525622Y313362D01*
X525578Y313032D01*
X525520Y312192D01*
X525500Y311112D01*
X522500D01*
X522495Y311682D01*
X522378Y313362D01*
X522324Y313632D01*
X522261Y313842D01*
X522188Y313992D01*
X522105Y314082D01*
X522012Y314112D01*
X525988D01*
X525895Y314082D01*
D02*
G37*
G36*
X482010Y319407D02*
X482152Y317568D01*
X482285Y316746D01*
X482458Y315989D01*
X482673Y315297D01*
X482928Y314671D01*
X483224Y314110D01*
X483561Y313614D01*
X483939Y313182D01*
X481817Y311061D01*
X481387Y311439D01*
X480890Y311776D01*
X480329Y312072D01*
X479703Y312328D01*
X479011Y312542D01*
X478254Y312715D01*
X477432Y312848D01*
X476545Y312940D01*
X474575Y313000D01*
X482000Y320425D01*
X482010Y319407D01*
D02*
G37*
G36*
X359505Y328249D02*
X359520Y328076D01*
X359545Y327925D01*
X359580Y327793D01*
X359625Y327682D01*
X359680Y327591D01*
X359745Y327520D01*
X359820Y327469D01*
X359905Y327439D01*
X360000Y327429D01*
X358000D01*
X358095Y327439D01*
X358180Y327469D01*
X358255Y327520D01*
X358320Y327591D01*
X358375Y327682D01*
X358420Y327793D01*
X358455Y327925D01*
X358480Y328076D01*
X358495Y328249D01*
X358500Y328441D01*
X359500D01*
X359505Y328249D01*
D02*
G37*
G36*
X381648Y327441D02*
X381449Y327235D01*
X381135Y326866D01*
X381021Y326702D01*
X380935Y326554D01*
X380877Y326420D01*
X380848Y326300D01*
X380846Y326194D01*
X380873Y326103D01*
X380929Y326027D01*
X379526Y327429D01*
X379603Y327373D01*
X379694Y327346D01*
X379800Y327347D01*
X379920Y327377D01*
X380054Y327435D01*
X380203Y327521D01*
X380365Y327635D01*
X380543Y327778D01*
X380941Y328148D01*
X381648Y327441D01*
D02*
G37*
G36*
X340819Y332500D02*
X340809Y332595D01*
X340779Y332680D01*
X340729Y332755D01*
X340659Y332820D01*
X340569Y332875D01*
X340459Y332920D01*
X340329Y332955D01*
X340179Y332980D01*
X340009Y332995D01*
X339819Y333000D01*
Y334000D01*
X340009Y334005D01*
X340179Y334020D01*
X340329Y334045D01*
X340459Y334080D01*
X340569Y334125D01*
X340659Y334180D01*
X340729Y334245D01*
X340779Y334320D01*
X340809Y334405D01*
X340819Y334500D01*
Y332500D01*
D02*
G37*
G36*
X366548Y328249D02*
X366563Y328076D01*
X366588Y327925D01*
X366623Y327793D01*
X366668Y327682D01*
X366723Y327591D01*
X366788Y327520D01*
X366863Y327469D01*
X366948Y327439D01*
X367043Y327429D01*
X365043D01*
X365138Y327439D01*
X365223Y327469D01*
X365298Y327520D01*
X365363Y327591D01*
X365418Y327682D01*
X365463Y327793D01*
X365498Y327925D01*
X365523Y328076D01*
X365538Y328249D01*
X365543Y328441D01*
X366543D01*
X366548Y328249D01*
D02*
G37*
G36*
X355831Y323500D02*
X355821Y323595D01*
X355791Y323680D01*
X355740Y323755D01*
X355669Y323820D01*
X355578Y323875D01*
X355467Y323920D01*
X355335Y323955D01*
X355183Y323980D01*
X355011Y323995D01*
X355001Y323995D01*
X354991Y323995D01*
X354821Y323980D01*
X354671Y323955D01*
X354541Y323920D01*
X354431Y323875D01*
X354341Y323820D01*
X354271Y323755D01*
X354221Y323680D01*
X354191Y323595D01*
X354181Y323500D01*
Y325500D01*
X354191Y325405D01*
X354221Y325320D01*
X354271Y325245D01*
X354341Y325180D01*
X354431Y325125D01*
X354541Y325080D01*
X354671Y325045D01*
X354821Y325020D01*
X354991Y325005D01*
X355001Y325005D01*
X355011Y325005D01*
X355183Y325020D01*
X355335Y325045D01*
X355467Y325080D01*
X355578Y325125D01*
X355669Y325180D01*
X355740Y325245D01*
X355791Y325320D01*
X355821Y325405D01*
X355831Y325500D01*
Y323500D01*
D02*
G37*
G36*
X375071Y323500D02*
X375061Y323595D01*
X375031Y323680D01*
X374980Y323755D01*
X374909Y323820D01*
X374818Y323875D01*
X374707Y323920D01*
X374575Y323955D01*
X374424Y323980D01*
X374252Y323995D01*
X374059Y324000D01*
Y325000D01*
X374252Y325005D01*
X374424Y325020D01*
X374575Y325045D01*
X374707Y325080D01*
X374818Y325125D01*
X374909Y325180D01*
X374980Y325245D01*
X375031Y325320D01*
X375061Y325405D01*
X375071Y325500D01*
Y323500D01*
D02*
G37*
G36*
X320951Y329296D02*
X321536Y328784D01*
X321814Y328576D01*
X322080Y328400D01*
X322337Y328256D01*
X322583Y328144D01*
X322818Y328064D01*
X323043Y328016D01*
X323258Y328000D01*
Y327000D01*
X323043Y326984D01*
X322818Y326936D01*
X322583Y326856D01*
X322337Y326744D01*
X322080Y326600D01*
X321814Y326424D01*
X321536Y326216D01*
X320951Y325704D01*
X320642Y325400D01*
Y329600D01*
X320951Y329296D01*
D02*
G37*
G36*
X337807Y325030D02*
X330176D01*
X329985Y325492D01*
X334462Y329970D01*
X337807D01*
Y325030D01*
D02*
G37*
G36*
X522500Y299500D02*
X522500D01*
X522500Y299500D01*
X521740Y299460D01*
X521060Y299340D01*
X520460Y299140D01*
X519940Y298860D01*
X519500Y298500D01*
X519140Y298060D01*
X518860Y297540D01*
X518727Y297140D01*
X518660Y296940D01*
X518540Y296260D01*
X518500Y295500D01*
X514500D01*
X514460Y296260D01*
X514340Y296940D01*
X514140Y297540D01*
X513860Y298060D01*
X513500Y298500D01*
X513060Y298860D01*
X512540Y299140D01*
X511940Y299340D01*
X511260Y299460D01*
X510500Y299500D01*
X510500Y299500D01*
X510500D01*
X516500Y303500D01*
X522500Y299500D01*
D02*
G37*
G36*
X282500Y297000D02*
X278500Y291000D01*
X278460Y291760D01*
X278340Y292440D01*
X278140Y293040D01*
X277860Y293560D01*
X277500Y294000D01*
X277060Y294360D01*
X276540Y294640D01*
X275940Y294840D01*
X275260Y294960D01*
X274500Y295000D01*
Y299000D01*
X275260Y299040D01*
X275940Y299160D01*
X276540Y299360D01*
X277060Y299640D01*
X277500Y300000D01*
X277860Y300440D01*
X278140Y300960D01*
X278340Y301560D01*
X278460Y302240D01*
X278500Y303000D01*
X282500Y297000D01*
D02*
G37*
G36*
X408133Y302007D02*
X407580Y301370D01*
X407093Y300732D01*
X406670Y300095D01*
X406313Y299458D01*
X406020Y298821D01*
X405793Y298183D01*
X405630Y297546D01*
X405533Y296909D01*
X405500Y296272D01*
X401500D01*
X401468Y296909D01*
X401370Y297546D01*
X401207Y298183D01*
X400980Y298821D01*
X400688Y299458D01*
X400330Y300095D01*
X399907Y300732D01*
X399420Y301370D01*
X398868Y302007D01*
X398250Y302644D01*
X408750D01*
X408133Y302007D01*
D02*
G37*
G36*
X216486Y297513D02*
X216516Y297428D01*
X216567Y297353D01*
X216638Y297288D01*
X216729Y297233D01*
X216840Y297188D01*
X216972Y297153D01*
X217124Y297128D01*
X217296Y297113D01*
X217488Y297108D01*
Y296108D01*
X217296Y296103D01*
X217124Y296088D01*
X216972Y296063D01*
X216840Y296028D01*
X216729Y295983D01*
X216638Y295928D01*
X216567Y295863D01*
X216516Y295788D01*
X216486Y295703D01*
X216476Y295608D01*
Y297608D01*
X216486Y297513D01*
D02*
G37*
G36*
X216585Y291790D02*
X216672Y291670D01*
X216749Y291470D01*
X216816Y291190D01*
X216872Y290830D01*
X216954Y289870D01*
X216995Y288590D01*
X217000Y287830D01*
X213000D01*
X212987Y288590D01*
X212884Y289870D01*
X212794Y290390D01*
X212678Y290830D01*
X212536Y291190D01*
X212369Y291470D01*
X212176Y291670D01*
X211957Y291790D01*
X211712Y291830D01*
X216488D01*
X216585Y291790D01*
D02*
G37*
G36*
X393018Y307357D02*
X393097Y306352D01*
X393483Y304745D01*
X394115Y303218D01*
X394979Y301809D01*
X396052Y300552D01*
X396115Y300499D01*
X396636Y299961D01*
X397073Y299457D01*
X397442Y298975D01*
X397746Y298517D01*
X397989Y298084D01*
X398175Y297679D01*
X398310Y297299D01*
X398401Y296942D01*
X398453Y296602D01*
X398457Y296533D01*
Y287428D01*
X397957Y287266D01*
X397496Y287866D01*
X396765Y288427D01*
X395914Y288780D01*
X395000Y288900D01*
X356894D01*
X356560Y289400D01*
X356871Y290151D01*
X357043Y291457D01*
X357040Y291478D01*
X357043Y291500D01*
Y301057D01*
X383922D01*
X385228Y301229D01*
X386444Y301732D01*
X387488Y302534D01*
X392502Y307547D01*
X393018Y307357D01*
D02*
G37*
G36*
X245280Y289525D02*
X227720D01*
Y306416D01*
X245280D01*
Y289525D01*
D02*
G37*
G36*
X169671Y292829D02*
X169645Y292724D01*
X169622Y292549D01*
X169586Y291989D01*
X169547Y289364D01*
X165547D01*
X165394Y292864D01*
X169701D01*
X169671Y292829D01*
D02*
G37*
G36*
X494394Y300000D02*
X494379Y300143D01*
X494334Y300270D01*
X494259Y300382D01*
X494154Y300480D01*
X494019Y300563D01*
X493854Y300630D01*
X493659Y300682D01*
X493434Y300720D01*
X493179Y300743D01*
X492894Y300750D01*
Y302250D01*
X493179Y302257D01*
X493434Y302280D01*
X493659Y302318D01*
X493854Y302370D01*
X494019Y302437D01*
X494154Y302520D01*
X494259Y302618D01*
X494334Y302730D01*
X494379Y302857D01*
X494394Y303000D01*
Y300000D01*
D02*
G37*
G36*
X490483Y303060D02*
X490683Y302890D01*
X490886Y302740D01*
X491092Y302610D01*
X491300Y302500D01*
X491512Y302410D01*
X491726Y302340D01*
X491943Y302290D01*
X492162Y302260D01*
X492385Y302250D01*
Y300750D01*
X492162Y300740D01*
X491943Y300710D01*
X491726Y300660D01*
X491512Y300590D01*
X491300Y300500D01*
X491092Y300390D01*
X490886Y300260D01*
X490683Y300110D01*
X490483Y299940D01*
X490285Y299750D01*
Y303250D01*
X490483Y303060D01*
D02*
G37*
G36*
X255467Y320561D02*
X255547Y320303D01*
X255598Y320046D01*
X255624Y319779D01*
X255622Y319494D01*
X255575Y319044D01*
X255576Y318991D01*
X255468Y317608D01*
X255597Y315961D01*
X255983Y314353D01*
X256615Y312826D01*
X257479Y311417D01*
X258552Y310161D01*
X259809Y309087D01*
X261218Y308224D01*
X262745Y307591D01*
X264352Y307205D01*
X266000Y307076D01*
X267648Y307205D01*
X269255Y307591D01*
X270782Y308224D01*
X272191Y309087D01*
X273448Y310161D01*
X274521Y311417D01*
X274957Y312129D01*
X275457Y311988D01*
Y302752D01*
X275448Y302584D01*
X275399Y302305D01*
X275352Y302165D01*
X275346Y302154D01*
X275335Y302148D01*
X275195Y302101D01*
X274916Y302052D01*
X274748Y302043D01*
X248305D01*
Y303774D01*
X248368Y303855D01*
X248871Y305071D01*
X249043Y306376D01*
X248871Y307681D01*
X248368Y308898D01*
X248280Y309012D01*
Y310616D01*
X246688D01*
X246522Y310744D01*
X245305Y311247D01*
X244000Y311419D01*
X220128D01*
X218823Y311247D01*
X217606Y310744D01*
X216562Y309942D01*
X213420Y306800D01*
X212267Y305676D01*
X210843Y304398D01*
X199500D01*
Y296298D01*
X201500D01*
Y294558D01*
Y293368D01*
X204900D01*
Y292868D01*
X205400D01*
Y290818D01*
X208300D01*
X208700Y290577D01*
Y288818D01*
X209933D01*
X209957Y288523D01*
Y285151D01*
X178892D01*
X172713Y291331D01*
Y291852D01*
X172953D01*
Y295608D01*
Y299364D01*
X172713D01*
Y301364D01*
X172613D01*
X172590Y301960D01*
Y306066D01*
X186540Y320016D01*
X187866Y320565D01*
X255465D01*
X255467Y320561D01*
D02*
G37*
G36*
X354228Y303446D02*
X354185Y303408D01*
X354146Y303336D01*
X354112Y303231D01*
X354082Y303094D01*
X354057Y302923D01*
X354021Y302483D01*
X354000Y301575D01*
X350000Y301527D01*
X350306Y304752D01*
X354228Y303446D01*
D02*
G37*
G36*
X469718Y311116D02*
X471245Y310483D01*
X472852Y310097D01*
X474500Y309967D01*
X474572Y309973D01*
X476342Y309918D01*
X477036Y309847D01*
X477674Y309744D01*
X478224Y309618D01*
X478682Y309476D01*
X479049Y309326D01*
X479329Y309178D01*
X479532Y309041D01*
X479599Y308982D01*
X482291Y306291D01*
X483231Y305569D01*
X484325Y305116D01*
X485500Y304961D01*
X486029D01*
X486199Y304461D01*
X485825Y304174D01*
X485224Y303391D01*
X484846Y302479D01*
X484784Y302000D01*
X488500D01*
Y301000D01*
X484784D01*
X484846Y300521D01*
X485224Y299609D01*
X485658Y299043D01*
X485412Y298543D01*
X481089D01*
X468129Y311503D01*
X468441Y311898D01*
X469718Y311116D01*
D02*
G37*
G36*
X169701Y298352D02*
X165394D01*
X165423Y298392D01*
X165449Y298512D01*
X165472Y298712D01*
X165509Y299352D01*
X165547Y302352D01*
X169547D01*
X169701Y298352D01*
D02*
G37*
G36*
X219381Y302800D02*
X218831Y302245D01*
X216748Y299875D01*
X216604Y299641D01*
X216517Y299453D01*
X216488Y299310D01*
X211712Y301386D01*
X211868Y301429D01*
X212097Y301556D01*
X212399Y301768D01*
X212773Y302065D01*
X214335Y303465D01*
X216552Y305629D01*
X219381Y302800D01*
D02*
G37*
G36*
X504646Y304103D02*
X504766Y303976D01*
X504966Y303865D01*
X505246Y303768D01*
X505606Y303686D01*
X506046Y303619D01*
X507166Y303530D01*
X508606Y303500D01*
Y299500D01*
X507846Y299493D01*
X505606Y299314D01*
X505246Y299232D01*
X504966Y299135D01*
X504766Y299024D01*
X504646Y298897D01*
X504606Y298756D01*
Y304244D01*
X504646Y304103D01*
D02*
G37*
G36*
X503347Y269441D02*
X503337Y269536D01*
X503306Y269621D01*
X503256Y269696D01*
X503185Y269761D01*
X503094Y269816D01*
X502983Y269861D01*
X502851Y269896D01*
X502699Y269921D01*
X502527Y269936D01*
X502335Y269941D01*
Y270941D01*
X502527Y270946D01*
X502699Y270961D01*
X502851Y270986D01*
X502983Y271021D01*
X503094Y271066D01*
X503185Y271121D01*
X503256Y271186D01*
X503306Y271261D01*
X503337Y271346D01*
X503347Y271441D01*
Y269441D01*
D02*
G37*
G36*
X385742Y237452D02*
X385772Y237367D01*
X385823Y237292D01*
X385894Y237227D01*
X385985Y237172D01*
X386096Y237127D01*
X386228Y237092D01*
X386380Y237067D01*
X386552Y237052D01*
X386744Y237047D01*
Y236047D01*
X386552Y236042D01*
X386380Y236027D01*
X386228Y236002D01*
X386096Y235967D01*
X385985Y235922D01*
X385894Y235867D01*
X385823Y235802D01*
X385772Y235727D01*
X385742Y235642D01*
X385732Y235547D01*
Y237547D01*
X385742Y237452D01*
D02*
G37*
G36*
X521890Y235532D02*
X521880Y235627D01*
X521850Y235712D01*
X521799Y235787D01*
X521728Y235852D01*
X521637Y235907D01*
X521526Y235952D01*
X521394Y235987D01*
X521243Y236012D01*
X521070Y236027D01*
X520878Y236032D01*
Y237032D01*
X521070Y237037D01*
X521243Y237052D01*
X521394Y237077D01*
X521526Y237112D01*
X521637Y237157D01*
X521728Y237212D01*
X521799Y237277D01*
X521850Y237352D01*
X521880Y237437D01*
X521890Y237532D01*
Y235532D01*
D02*
G37*
G36*
X457237Y240493D02*
X457252Y240321D01*
X457277Y240169D01*
X457312Y240037D01*
X457357Y239926D01*
X457412Y239835D01*
X457477Y239764D01*
X457552Y239714D01*
X457637Y239683D01*
X457732Y239673D01*
X455732D01*
X455827Y239683D01*
X455912Y239714D01*
X455987Y239764D01*
X456052Y239835D01*
X456107Y239926D01*
X456152Y240037D01*
X456187Y240169D01*
X456212Y240321D01*
X456227Y240493D01*
X456232Y240685D01*
X457232D01*
X457237Y240493D01*
D02*
G37*
G36*
X392114Y235547D02*
X392104Y235642D01*
X392074Y235727D01*
X392023Y235802D01*
X391953Y235867D01*
X391862Y235922D01*
X391750Y235967D01*
X391619Y236002D01*
X391467Y236027D01*
X391295Y236042D01*
X391103Y236047D01*
Y237047D01*
X391295Y237052D01*
X391467Y237067D01*
X391619Y237092D01*
X391750Y237127D01*
X391862Y237172D01*
X391953Y237227D01*
X392023Y237292D01*
X392074Y237367D01*
X392104Y237452D01*
X392114Y237547D01*
Y235547D01*
D02*
G37*
G36*
X499922Y244673D02*
X500042Y244624D01*
X500242Y244580D01*
X500522Y244542D01*
X501322Y244484D01*
X503882Y244437D01*
Y240437D01*
X503122Y240425D01*
X501842Y240330D01*
X501322Y240246D01*
X500882Y240138D01*
X500522Y240006D01*
X500242Y239851D01*
X500042Y239671D01*
X499922Y239468D01*
X499882Y239241D01*
X499853Y239201D01*
X499826Y239081D01*
X499803Y238881D01*
X499767Y238241D01*
X499728Y235241D01*
X495728D01*
X495575Y239241D01*
X499882D01*
Y244728D01*
X499922Y244673D01*
D02*
G37*
G36*
X309361Y242035D02*
X310432Y241130D01*
X310945Y240762D01*
X311442Y240451D01*
X311924Y240196D01*
X312391Y239999D01*
X312843Y239857D01*
X313279Y239772D01*
X313701Y239744D01*
X309394Y234256D01*
X309366Y234678D01*
X309281Y235114D01*
X309139Y235566D01*
X308941Y236033D01*
X308687Y236515D01*
X308376Y237012D01*
X308008Y237525D01*
X307584Y238052D01*
X306565Y239153D01*
X308803Y242572D01*
X309361Y242035D01*
D02*
G37*
G36*
X515518Y237437D02*
X515548Y237352D01*
X515599Y237277D01*
X515669Y237212D01*
X515761Y237157D01*
X515872Y237112D01*
X516003Y237077D01*
X516155Y237052D01*
X516327Y237037D01*
X516519Y237032D01*
Y236032D01*
X516327Y236027D01*
X516155Y236012D01*
X516003Y235987D01*
X515872Y235952D01*
X515761Y235907D01*
X515669Y235852D01*
X515599Y235787D01*
X515548Y235712D01*
X515518Y235627D01*
X515508Y235532D01*
Y237532D01*
X515518Y237437D01*
D02*
G37*
G36*
X370146Y244689D02*
X370266Y244639D01*
X370466Y244595D01*
X370746Y244558D01*
X371546Y244499D01*
X374106Y244453D01*
Y240453D01*
X373346Y240441D01*
X372066Y240345D01*
X371546Y240261D01*
X371106Y240154D01*
X370746Y240022D01*
X370466Y239866D01*
X370266Y239687D01*
X370146Y239483D01*
X370106Y239256D01*
X370077Y239216D01*
X370051Y239096D01*
X370028Y238896D01*
X369991Y238256D01*
X369953Y235256D01*
X365953D01*
X365799Y239256D01*
X370106D01*
Y244744D01*
X370146Y244689D01*
D02*
G37*
G36*
X435624Y250355D02*
X434818Y249532D01*
X433324Y247785D01*
X433461Y247655D01*
X435624Y245512D01*
X433870Y241609D01*
X432990Y242460D01*
X431440Y243784D01*
X430770Y244256D01*
X430170Y244602D01*
X429639Y244822D01*
X429178Y244915D01*
X428786Y244882D01*
X428465Y244723D01*
X428213Y244438D01*
X429631Y246717D01*
X427469Y249532D01*
X427815Y249560D01*
X428185Y249645D01*
X428578Y249786D01*
X428993Y249984D01*
X429432Y250239D01*
X429894Y250550D01*
X430379Y250918D01*
X431418Y251823D01*
X431972Y252360D01*
X435624Y250355D01*
D02*
G37*
G36*
X385008Y247846D02*
X385186Y245606D01*
X385268Y245246D01*
X385365Y244966D01*
X385476Y244766D01*
X385603Y244646D01*
X385744Y244606D01*
X380256D01*
Y240299D01*
X380216Y240329D01*
X380096Y240355D01*
X379896Y240378D01*
X379256Y240414D01*
X376256Y240453D01*
Y244453D01*
X380256Y244606D01*
X380397Y244646D01*
X380524Y244766D01*
X380635Y244966D01*
X380732Y245246D01*
X380814Y245606D01*
X380881Y246046D01*
X380970Y247166D01*
X381000Y248606D01*
X385000D01*
X385008Y247846D01*
D02*
G37*
G36*
X470544Y241894D02*
X470534Y241989D01*
X470503Y242074D01*
X470453Y242149D01*
X470382Y242214D01*
X470291Y242269D01*
X470179Y242314D01*
X470048Y242349D01*
X469896Y242374D01*
X469724Y242389D01*
X469532Y242394D01*
Y243394D01*
X469724Y243399D01*
X469896Y243414D01*
X470048Y243439D01*
X470179Y243474D01*
X470291Y243519D01*
X470382Y243574D01*
X470453Y243639D01*
X470503Y243714D01*
X470534Y243799D01*
X470544Y243894D01*
Y241894D01*
D02*
G37*
G36*
X305849Y250371D02*
X305043Y249548D01*
X303548Y247800D01*
X303685Y247671D01*
X305849Y245527D01*
X304094Y241624D01*
X303215Y242476D01*
X301665Y243799D01*
X300995Y244272D01*
X300394Y244618D01*
X299863Y244837D01*
X299402Y244931D01*
X299011Y244898D01*
X298689Y244739D01*
X298438Y244453D01*
X299855Y246732D01*
X297693Y249547D01*
X298040Y249575D01*
X298409Y249660D01*
X298802Y249802D01*
X299218Y250000D01*
X299657Y250254D01*
X300118Y250565D01*
X300603Y250933D01*
X301642Y251838D01*
X302197Y252376D01*
X305849Y250371D01*
D02*
G37*
G36*
X447781Y240536D02*
X447796Y240364D01*
X447821Y240212D01*
X447856Y240081D01*
X447901Y239969D01*
X447956Y239878D01*
X448021Y239808D01*
X448096Y239757D01*
X448181Y239726D01*
X448276Y239716D01*
X446276D01*
X446371Y239726D01*
X446456Y239757D01*
X446531Y239808D01*
X446596Y239878D01*
X446651Y239969D01*
X446696Y240081D01*
X446731Y240212D01*
X446756Y240364D01*
X446771Y240536D01*
X446776Y240728D01*
X447776D01*
X447781Y240536D01*
D02*
G37*
G36*
X327462Y240508D02*
X327477Y240336D01*
X327502Y240184D01*
X327537Y240053D01*
X327582Y239942D01*
X327637Y239850D01*
X327702Y239780D01*
X327777Y239729D01*
X327862Y239699D01*
X327957Y239689D01*
X325957D01*
X326052Y239699D01*
X326137Y239729D01*
X326212Y239780D01*
X326277Y239850D01*
X326332Y239942D01*
X326377Y240053D01*
X326412Y240184D01*
X326437Y240336D01*
X326452Y240508D01*
X326457Y240701D01*
X327457D01*
X327462Y240508D01*
D02*
G37*
G36*
X514783Y247831D02*
X514962Y245591D01*
X515043Y245231D01*
X515140Y244951D01*
X515252Y244751D01*
X515378Y244631D01*
X515520Y244591D01*
X510032D01*
Y240284D01*
X509992Y240313D01*
X509872Y240339D01*
X509672Y240362D01*
X509032Y240399D01*
X506032Y240437D01*
Y244437D01*
X510032Y244591D01*
X510173Y244631D01*
X510299Y244751D01*
X510411Y244951D01*
X510508Y245231D01*
X510590Y245591D01*
X510657Y246031D01*
X510746Y247151D01*
X510776Y248591D01*
X514776D01*
X514783Y247831D01*
D02*
G37*
G36*
X318005Y240552D02*
X318020Y240380D01*
X318045Y240228D01*
X318080Y240096D01*
X318125Y239985D01*
X318180Y239894D01*
X318245Y239823D01*
X318320Y239772D01*
X318405Y239742D01*
X318500Y239732D01*
X316500D01*
X316595Y239742D01*
X316680Y239772D01*
X316755Y239823D01*
X316820Y239894D01*
X316875Y239985D01*
X316920Y240096D01*
X316955Y240228D01*
X316980Y240380D01*
X316995Y240552D01*
X317000Y240744D01*
X318000D01*
X318005Y240552D01*
D02*
G37*
G36*
X169671Y221329D02*
X169645Y221224D01*
X169622Y221049D01*
X169586Y220489D01*
X169547Y217864D01*
X165547D01*
X165394Y221364D01*
X169701D01*
X169671Y221329D01*
D02*
G37*
G36*
X216585Y220290D02*
X216672Y220170D01*
X216749Y219970D01*
X216816Y219690D01*
X216872Y219330D01*
X216954Y218370D01*
X216995Y217090D01*
X217000Y216330D01*
X213000D01*
X212987Y217090D01*
X212884Y218370D01*
X212794Y218890D01*
X212678Y219330D01*
X212536Y219690D01*
X212369Y219970D01*
X212176Y220170D01*
X211957Y220290D01*
X211712Y220330D01*
X216488D01*
X216585Y220290D01*
D02*
G37*
G36*
X216486Y226013D02*
X216516Y225928D01*
X216567Y225853D01*
X216638Y225788D01*
X216729Y225733D01*
X216840Y225688D01*
X216972Y225653D01*
X217124Y225628D01*
X217296Y225613D01*
X217488Y225608D01*
Y224608D01*
X217296Y224603D01*
X217124Y224588D01*
X216972Y224563D01*
X216840Y224528D01*
X216729Y224483D01*
X216638Y224428D01*
X216567Y224363D01*
X216516Y224288D01*
X216486Y224203D01*
X216476Y224108D01*
Y226108D01*
X216486Y226013D01*
D02*
G37*
G36*
X245280Y218025D02*
X227720D01*
Y234916D01*
X245280D01*
Y218025D01*
D02*
G37*
G36*
X236000Y202217D02*
X231866D01*
X231879Y202247D01*
X231890Y202311D01*
X231900Y202410D01*
X231922Y202909D01*
X231933Y204052D01*
X235933D01*
X236000Y202217D01*
D02*
G37*
G36*
X220690Y217906D02*
Y200695D01*
X220811Y199782D01*
X221163Y198930D01*
X221724Y198199D01*
X228764Y191159D01*
X228932Y191030D01*
X228762Y190530D01*
X176751D01*
X176537Y190982D01*
X176736Y191225D01*
X177613Y192866D01*
X178153Y194648D01*
X178336Y196500D01*
X178153Y198353D01*
X177613Y200134D01*
X176736Y201776D01*
X175555Y203215D01*
X175539Y203227D01*
X175746Y203704D01*
X176803Y203565D01*
X181774D01*
X182078Y203204D01*
X182102Y203065D01*
X182100Y203049D01*
X182114Y202943D01*
Y194155D01*
X194020D01*
Y202943D01*
X194034Y203049D01*
X194031Y203065D01*
X194056Y203204D01*
X194360Y203565D01*
X212500D01*
X213805Y203737D01*
X215022Y204241D01*
X216066Y205042D01*
X218566Y207542D01*
X219368Y208587D01*
X219871Y209803D01*
X220043Y211108D01*
Y217759D01*
X220543Y218013D01*
X220690Y217906D01*
D02*
G37*
G36*
X244685Y212114D02*
X244600Y212084D01*
X244525Y212033D01*
X244460Y211962D01*
X244405Y211871D01*
X244359Y211760D01*
X244324Y211628D01*
X244300Y211476D01*
X244285Y211304D01*
X244280Y211112D01*
X243280D01*
X243274Y211304D01*
X243260Y211476D01*
X243234Y211628D01*
X243199Y211760D01*
X243155Y211871D01*
X243099Y211962D01*
X243035Y212033D01*
X242959Y212084D01*
X242875Y212114D01*
X242779Y212124D01*
X244779D01*
X244685Y212114D01*
D02*
G37*
G36*
X194067Y206608D02*
X193307Y206568D01*
X192627Y206448D01*
X192027Y206248D01*
X191507Y205968D01*
X191067Y205608D01*
X190707Y205168D01*
X190427Y204648D01*
X190275Y204191D01*
X190302Y204049D01*
X190406Y203689D01*
X190528Y203409D01*
X190669Y203209D01*
X190829Y203089D01*
X191008Y203049D01*
X190090D01*
X190067Y202608D01*
X186067D01*
X186044Y203049D01*
X185126D01*
X185305Y203089D01*
X185465Y203209D01*
X185606Y203409D01*
X185728Y203689D01*
X185832Y204049D01*
X185859Y204191D01*
X185707Y204648D01*
X185427Y205168D01*
X185067Y205608D01*
X184627Y205968D01*
X184107Y206248D01*
X183507Y206448D01*
X182827Y206568D01*
X182067Y206608D01*
X188067Y210608D01*
X194067Y206608D01*
D02*
G37*
G36*
X255467Y249061D02*
X255547Y248803D01*
X255598Y248546D01*
X255624Y248279D01*
X255622Y247994D01*
X255575Y247545D01*
X255576Y247491D01*
X255468Y246108D01*
X255597Y244461D01*
X255983Y242853D01*
X256615Y241326D01*
X257479Y239917D01*
X258552Y238661D01*
X259809Y237587D01*
X261218Y236724D01*
X262745Y236091D01*
X264352Y235705D01*
X266000Y235576D01*
X267648Y235705D01*
X269255Y236091D01*
X270782Y236724D01*
X272191Y237587D01*
X273448Y238661D01*
X274521Y239917D01*
X274957Y240629D01*
X275457Y240488D01*
Y231543D01*
X248305D01*
Y232274D01*
X248368Y232355D01*
X248871Y233571D01*
X249043Y234876D01*
X248871Y236181D01*
X248368Y237398D01*
X248280Y237512D01*
Y239116D01*
X246688D01*
X246522Y239244D01*
X245305Y239748D01*
X244000Y239919D01*
X220128D01*
X218823Y239748D01*
X217606Y239244D01*
X216562Y238442D01*
X213420Y235300D01*
X212267Y234175D01*
X210843Y232898D01*
X199500D01*
Y224798D01*
X201500D01*
Y223058D01*
Y221868D01*
X204900D01*
Y221368D01*
X205400D01*
Y219318D01*
X208300D01*
X208700Y219077D01*
Y217318D01*
X209933D01*
X209957Y217023D01*
Y213651D01*
X178892D01*
X172713Y219831D01*
Y220352D01*
X172953D01*
Y224108D01*
Y227864D01*
X172713D01*
Y229864D01*
X172613D01*
X172590Y230460D01*
Y234566D01*
X186540Y248516D01*
X187866Y249065D01*
X255465D01*
X255467Y249061D01*
D02*
G37*
G36*
X429582Y241391D02*
X430954Y240221D01*
X430989Y240186D01*
X434460Y236716D01*
X435067Y236059D01*
X435373Y235678D01*
X435637Y235311D01*
X435838Y234988D01*
X435981Y234718D01*
X436071Y234505D01*
X436118Y234355D01*
X436135Y234271D01*
X436150Y234038D01*
X436158Y234003D01*
Y231528D01*
X431865D01*
X428169Y235223D01*
Y240968D01*
X428403Y241418D01*
X428443Y241425D01*
X429534D01*
X429582Y241391D01*
D02*
G37*
G36*
X439137Y242020D02*
X440208Y241114D01*
X440720Y240747D01*
X441218Y240436D01*
X441700Y240181D01*
X442167Y239983D01*
X442618Y239842D01*
X443055Y239757D01*
X443476Y239728D01*
X439170Y234241D01*
X439141Y234662D01*
X439056Y235099D01*
X438915Y235550D01*
X438717Y236017D01*
X438462Y236499D01*
X438151Y236997D01*
X437784Y237509D01*
X437359Y238037D01*
X436341Y239138D01*
X438579Y242557D01*
X439137Y242020D01*
D02*
G37*
G36*
X299807Y241407D02*
X301178Y240236D01*
X301214Y240202D01*
X304684Y236731D01*
X305291Y236075D01*
X305598Y235693D01*
X305861Y235326D01*
X306063Y235004D01*
X306206Y234733D01*
X306296Y234521D01*
X306343Y234371D01*
X306359Y234286D01*
X306375Y234053D01*
X306382Y234018D01*
Y231543D01*
X302089D01*
X298394Y235239D01*
Y240984D01*
X298627Y241433D01*
X298668Y241441D01*
X299759D01*
X299807Y241407D01*
D02*
G37*
G36*
X369993Y231740D02*
X370113Y231060D01*
X370313Y230460D01*
X370593Y229940D01*
X370953Y229500D01*
X371393Y229140D01*
X371913Y228860D01*
X372513Y228660D01*
X373193Y228540D01*
X373953Y228500D01*
X367953Y224500D01*
X361953Y228500D01*
X362713Y228540D01*
X363393Y228660D01*
X363993Y228860D01*
X364513Y229140D01*
X364953Y229500D01*
X365313Y229940D01*
X365593Y230460D01*
X365793Y231060D01*
X365913Y231740D01*
X365953Y232500D01*
X369953D01*
X369993Y231740D01*
D02*
G37*
G36*
X499768Y231725D02*
X499888Y231045D01*
X500088Y230445D01*
X500368Y229925D01*
X500728Y229485D01*
X501168Y229124D01*
X501688Y228844D01*
X502288Y228644D01*
X502968Y228524D01*
X503728Y228485D01*
X497728Y224484D01*
X491728Y228485D01*
X492488Y228524D01*
X493168Y228644D01*
X493768Y228844D01*
X494288Y229124D01*
X494728Y229485D01*
X495088Y229925D01*
X495368Y230445D01*
X495568Y231045D01*
X495688Y231725D01*
X495728Y232485D01*
X499728D01*
X499768Y231725D01*
D02*
G37*
G36*
X219381Y231300D02*
X218831Y230745D01*
X216748Y228375D01*
X216604Y228141D01*
X216517Y227953D01*
X216488Y227810D01*
X211712Y229886D01*
X211868Y229929D01*
X212097Y230056D01*
X212399Y230268D01*
X212773Y230565D01*
X214335Y231965D01*
X216552Y234129D01*
X219381Y231300D01*
D02*
G37*
G36*
X169701Y226852D02*
X165394D01*
X165423Y226892D01*
X165449Y227012D01*
X165472Y227212D01*
X165509Y227852D01*
X165547Y230852D01*
X169547D01*
X169701Y226852D01*
D02*
G37*
G36*
X340768Y241910D02*
X340758Y242004D01*
X340728Y242090D01*
X340677Y242164D01*
X340606Y242230D01*
X340515Y242284D01*
X340404Y242330D01*
X340272Y242365D01*
X340120Y242389D01*
X339948Y242405D01*
X339756Y242409D01*
Y243409D01*
X339948Y243414D01*
X340120Y243429D01*
X340272Y243455D01*
X340404Y243490D01*
X340515Y243534D01*
X340606Y243589D01*
X340677Y243654D01*
X340728Y243729D01*
X340758Y243814D01*
X340768Y243910D01*
Y241910D01*
D02*
G37*
G36*
X397982Y261799D02*
X398012Y261714D01*
X398063Y261639D01*
X398134Y261574D01*
X398225Y261519D01*
X398336Y261474D01*
X398468Y261439D01*
X398620Y261414D01*
X398792Y261399D01*
X398984Y261394D01*
Y260394D01*
X398792Y260389D01*
X398620Y260374D01*
X398468Y260349D01*
X398336Y260314D01*
X398225Y260269D01*
X398134Y260214D01*
X398063Y260149D01*
X398012Y260074D01*
X397982Y259989D01*
X397972Y259894D01*
Y261894D01*
X397982Y261799D01*
D02*
G37*
G36*
X527758Y261783D02*
X527788Y261698D01*
X527839Y261623D01*
X527910Y261558D01*
X528001Y261503D01*
X528112Y261458D01*
X528243Y261423D01*
X528395Y261398D01*
X528567Y261383D01*
X528760Y261378D01*
Y260378D01*
X528567Y260373D01*
X528395Y260358D01*
X528243Y260333D01*
X528112Y260298D01*
X528001Y260253D01*
X527910Y260198D01*
X527839Y260133D01*
X527788Y260058D01*
X527758Y259973D01*
X527748Y259878D01*
Y261878D01*
X527758Y261783D01*
D02*
G37*
G36*
X322937Y261538D02*
X322914Y261528D01*
X322894Y261498D01*
X322877Y261448D01*
X322861Y261378D01*
X322848Y261288D01*
X322830Y261048D01*
X322819Y260538D01*
X321819D01*
X321814Y260730D01*
X321799Y260901D01*
X321774Y261053D01*
X321739Y261184D01*
X321694Y261296D01*
X321639Y261387D01*
X321574Y261458D01*
X321499Y261509D01*
X321414Y261540D01*
X321319Y261550D01*
X322937Y261538D01*
D02*
G37*
G36*
X452712Y261523D02*
X452690Y261513D01*
X452670Y261483D01*
X452652Y261433D01*
X452637Y261363D01*
X452624Y261273D01*
X452605Y261033D01*
X452595Y260523D01*
X451594D01*
X451589Y260714D01*
X451575Y260886D01*
X451549Y261037D01*
X451514Y261169D01*
X451470Y261280D01*
X451414Y261371D01*
X451349Y261442D01*
X451274Y261493D01*
X451190Y261524D01*
X451094Y261535D01*
X452712Y261523D01*
D02*
G37*
G36*
X532276Y260878D02*
X531276Y259378D01*
X531266Y259568D01*
X531236Y259738D01*
X531186Y259888D01*
X531116Y260018D01*
X531026Y260128D01*
X530916Y260218D01*
X530786Y260288D01*
X530636Y260338D01*
X530466Y260368D01*
X530276Y260378D01*
Y261378D01*
X530466Y261388D01*
X530636Y261418D01*
X530786Y261468D01*
X530916Y261538D01*
X531026Y261628D01*
X531116Y261738D01*
X531186Y261868D01*
X531236Y262018D01*
X531266Y262188D01*
X531276Y262378D01*
X532276Y260878D01*
D02*
G37*
G36*
X312957Y259227D02*
X313055Y259224D01*
Y258224D01*
X312957Y258222D01*
Y257724D01*
X312947Y257819D01*
X312917Y257904D01*
X312866Y257979D01*
X312795Y258044D01*
X312704Y258099D01*
X312593Y258144D01*
X312500Y258169D01*
X312407Y258144D01*
X312296Y258099D01*
X312205Y258044D01*
X312134Y257979D01*
X312083Y257904D01*
X312053Y257819D01*
X312043Y257724D01*
Y258222D01*
X311945Y258224D01*
Y259224D01*
X312043Y259227D01*
Y259724D01*
X312053Y259629D01*
X312083Y259544D01*
X312134Y259469D01*
X312205Y259404D01*
X312296Y259349D01*
X312407Y259304D01*
X312500Y259280D01*
X312593Y259304D01*
X312704Y259349D01*
X312795Y259404D01*
X312866Y259469D01*
X312917Y259544D01*
X312947Y259629D01*
X312957Y259724D01*
Y259227D01*
D02*
G37*
G36*
X314926Y259727D02*
X315023Y259724D01*
Y258724D01*
X314926Y258722D01*
Y258224D01*
X314915Y258319D01*
X314885Y258404D01*
X314834Y258479D01*
X314764Y258544D01*
X314673Y258599D01*
X314561Y258644D01*
X314469Y258669D01*
X314376Y258644D01*
X314264Y258599D01*
X314173Y258544D01*
X314103Y258479D01*
X314052Y258404D01*
X314021Y258319D01*
X314011Y258224D01*
Y258722D01*
X313914Y258724D01*
Y259724D01*
X314011Y259727D01*
Y260224D01*
X314021Y260129D01*
X314052Y260044D01*
X314103Y259969D01*
X314173Y259904D01*
X314264Y259849D01*
X314376Y259804D01*
X314469Y259780D01*
X314561Y259804D01*
X314673Y259849D01*
X314764Y259904D01*
X314834Y259969D01*
X314885Y260044D01*
X314915Y260129D01*
X314926Y260224D01*
Y259727D01*
D02*
G37*
G36*
X402500Y260894D02*
X401500Y259394D01*
X401490Y259584D01*
X401460Y259754D01*
X401410Y259904D01*
X401340Y260034D01*
X401250Y260144D01*
X401140Y260234D01*
X401010Y260304D01*
X400860Y260354D01*
X400690Y260384D01*
X400500Y260394D01*
Y261394D01*
X400690Y261404D01*
X400860Y261434D01*
X401010Y261484D01*
X401140Y261554D01*
X401250Y261644D01*
X401340Y261754D01*
X401410Y261884D01*
X401460Y262034D01*
X401490Y262204D01*
X401500Y262394D01*
X402500Y260894D01*
D02*
G37*
G36*
X322947Y266528D02*
X322977Y266504D01*
X323027Y266483D01*
X323097Y266464D01*
X323187Y266449D01*
X323297Y266436D01*
X323577Y266419D01*
X323937Y266413D01*
Y265413D01*
X323747Y265414D01*
X322947Y265464D01*
X322937Y265476D01*
Y266555D01*
X322947Y266528D01*
D02*
G37*
G36*
X452723Y266512D02*
X452752Y266488D01*
X452803Y266467D01*
X452873Y266449D01*
X452962Y266433D01*
X453073Y266421D01*
X453352Y266404D01*
X453713Y266398D01*
Y265398D01*
X453522Y265399D01*
X452723Y265449D01*
X452712Y265461D01*
Y266539D01*
X452723Y266512D01*
D02*
G37*
G36*
X322947Y270486D02*
X322977Y270480D01*
X323027Y270474D01*
X323187Y270466D01*
X323937Y270457D01*
Y269457D01*
X322937Y269414D01*
Y270493D01*
X322947Y270486D01*
D02*
G37*
G36*
X452723Y270470D02*
X452752Y270464D01*
X452803Y270459D01*
X452962Y270450D01*
X453713Y270441D01*
Y269441D01*
X452712Y269399D01*
Y270477D01*
X452723Y270470D01*
D02*
G37*
G36*
X336836Y265441D02*
X337216Y265118D01*
X337381Y265002D01*
X337531Y264916D01*
X337664Y264861D01*
X337781Y264835D01*
X337882Y264840D01*
X337967Y264875D01*
X338036Y264941D01*
X336819Y263330D01*
X336867Y263416D01*
X336888Y263515D01*
X336883Y263626D01*
X336852Y263749D01*
X336794Y263885D01*
X336711Y264032D01*
X336600Y264192D01*
X336464Y264364D01*
X336301Y264548D01*
X336112Y264744D01*
X336622Y265648D01*
X336836Y265441D01*
D02*
G37*
G36*
X466612Y265425D02*
X466991Y265103D01*
X467157Y264986D01*
X467306Y264901D01*
X467440Y264845D01*
X467557Y264820D01*
X467658Y264825D01*
X467743Y264860D01*
X467812Y264925D01*
X466595Y263314D01*
X466642Y263401D01*
X466664Y263500D01*
X466659Y263611D01*
X466628Y263734D01*
X466570Y263869D01*
X466486Y264017D01*
X466376Y264176D01*
X466240Y264348D01*
X466077Y264532D01*
X465888Y264728D01*
X466398Y265632D01*
X466612Y265425D01*
D02*
G37*
G36*
X389047Y274138D02*
X390229D01*
X390450Y273689D01*
X390224Y273395D01*
X389846Y272483D01*
X389718Y271504D01*
X389846Y270525D01*
X390224Y269613D01*
X390826Y268829D01*
X391047Y268659D01*
Y268264D01*
X391563D01*
X391609Y268228D01*
X392521Y267850D01*
X393500Y267722D01*
X394479Y267850D01*
X394500Y267859D01*
Y272020D01*
X395500D01*
Y268264D01*
X398470D01*
Y266650D01*
X389090D01*
Y258461D01*
X389010Y258456D01*
X383043D01*
X383022Y258454D01*
X383000Y258456D01*
X381695Y258285D01*
X380478Y257781D01*
X379434Y256979D01*
X378632Y255935D01*
X378129Y254719D01*
X377957Y253413D01*
Y247802D01*
X377953Y247618D01*
X377244D01*
Y247519D01*
X376648Y247496D01*
X373186D01*
X373118Y247497D01*
Y247756D01*
X370212D01*
X370106Y247770D01*
X370001Y247756D01*
X362787D01*
Y245756D01*
X362547D01*
Y242000D01*
Y238244D01*
X362787D01*
Y236244D01*
X362887D01*
X362910Y235648D01*
Y232252D01*
X362901Y232084D01*
X362852Y231805D01*
X362805Y231665D01*
X362799Y231654D01*
X362788Y231648D01*
X362647Y231601D01*
X362369Y231552D01*
X362201Y231543D01*
X332713D01*
Y233201D01*
X332953D01*
Y236957D01*
X333453D01*
Y237457D01*
X336618D01*
Y239281D01*
X337034Y239559D01*
X337177Y239499D01*
X337744Y239425D01*
Y237744D01*
X339744D01*
Y237504D01*
X347256D01*
Y237744D01*
X349256D01*
Y248075D01*
X337918D01*
X325949Y260044D01*
Y261417D01*
X325963Y261516D01*
X325949Y261627D01*
Y262383D01*
X333807D01*
Y256047D01*
X345319D01*
Y258047D01*
X346937D01*
Y262000D01*
Y265953D01*
X345319D01*
Y266839D01*
X345756D01*
Y267426D01*
X349500D01*
X350414Y267547D01*
X351265Y267899D01*
X351996Y268460D01*
X352557Y269192D01*
X352910Y270043D01*
X353030Y270957D01*
Y274970D01*
X353744D01*
Y272744D01*
Y266839D01*
X362155D01*
X362266Y266825D01*
X362350Y266837D01*
X362435Y266831D01*
X362475Y266839D01*
X365256D01*
Y266927D01*
X370547D01*
Y264764D01*
X382453D01*
Y271417D01*
X387506Y276470D01*
X389047D01*
Y274138D01*
D02*
G37*
G36*
X518823Y274122D02*
X520005D01*
X520226Y273674D01*
X520000Y273380D01*
X519622Y272467D01*
X519493Y271488D01*
X519622Y270510D01*
X520000Y269597D01*
X520601Y268814D01*
X520823Y268644D01*
Y268248D01*
X521338D01*
X521384Y268213D01*
X522297Y267835D01*
X523276Y267706D01*
X524255Y267835D01*
X524276Y267844D01*
Y272004D01*
X525276D01*
Y268248D01*
X528245D01*
Y266634D01*
X518866D01*
Y258446D01*
X518785Y258441D01*
X512819D01*
X512797Y258438D01*
X512776Y258441D01*
X511470Y258269D01*
X510254Y257765D01*
X509210Y256964D01*
X508408Y255920D01*
X507904Y254703D01*
X507732Y253398D01*
Y247787D01*
X507729Y247603D01*
X507020D01*
Y247503D01*
X506424Y247480D01*
X502961D01*
X502894Y247482D01*
Y247740D01*
X499987D01*
X499882Y247754D01*
X499776Y247740D01*
X492563D01*
Y245740D01*
X492323D01*
Y241985D01*
Y238229D01*
X492563D01*
Y236229D01*
X492662D01*
X492685Y235632D01*
Y232236D01*
X492676Y232068D01*
X492627Y231790D01*
X492580Y231649D01*
X492575Y231638D01*
X492564Y231632D01*
X492423Y231586D01*
X492145Y231537D01*
X491976Y231528D01*
X462488D01*
Y233185D01*
X462728D01*
Y236941D01*
X463228D01*
Y237441D01*
X466394D01*
Y239265D01*
X466810Y239543D01*
X466953Y239484D01*
X467520Y239409D01*
Y237729D01*
X469520D01*
Y237489D01*
X477032D01*
Y237729D01*
X479032D01*
Y248059D01*
X467693D01*
X455724Y260028D01*
Y261401D01*
X455738Y261500D01*
X455724Y261612D01*
Y262368D01*
X463583D01*
Y256032D01*
X475095D01*
Y258032D01*
X476713D01*
Y261984D01*
Y265937D01*
X475095D01*
Y266823D01*
X475531D01*
Y267411D01*
X479276D01*
X480189Y267531D01*
X481041Y267884D01*
X481772Y268445D01*
X482333Y269176D01*
X482686Y270027D01*
X482806Y270941D01*
Y274954D01*
X483520D01*
Y272729D01*
Y266823D01*
X491931D01*
X492042Y266809D01*
X492126Y266821D01*
X492210Y266815D01*
X492250Y266823D01*
X495031D01*
Y266911D01*
X500323D01*
Y264748D01*
X512228D01*
Y271402D01*
X517281Y276454D01*
X518823D01*
Y274122D01*
D02*
G37*
G36*
X521878Y250260D02*
X521838Y250476D01*
X521718Y250670D01*
X521518Y250840D01*
X521238Y250988D01*
X520878Y251114D01*
X520438Y251216D01*
X519918Y251295D01*
X519318Y251352D01*
X517878Y251398D01*
Y255398D01*
X518638Y255401D01*
X521518Y255570D01*
X521718Y255622D01*
X521838Y255682D01*
X521878Y255748D01*
Y250260D01*
D02*
G37*
G36*
X259911Y255061D02*
X260418Y254657D01*
X260937Y254312D01*
X261466Y254024D01*
X262007Y253796D01*
X262559Y253625D01*
X263122Y253512D01*
X263696Y253458D01*
X264281Y253462D01*
X264877Y253524D01*
X258585Y247231D01*
X258647Y247827D01*
X258650Y248412D01*
X258596Y248986D01*
X258484Y249549D01*
X258313Y250101D01*
X258084Y250642D01*
X257797Y251171D01*
X257451Y251690D01*
X257048Y252198D01*
X256586Y252694D01*
X259414Y255522D01*
X259911Y255061D01*
D02*
G37*
G36*
X439862Y256548D02*
X440191Y256505D01*
X440396Y256378D01*
X440477Y256166D01*
X440434Y255869D01*
X440267Y255487D01*
X439977Y255020D01*
X439562Y254469D01*
X439023Y253832D01*
X437574Y252305D01*
X434746Y255133D01*
X435513Y255918D01*
X437330Y257990D01*
X437774Y258587D01*
X438138Y259137D01*
X438420Y259640D01*
X438622Y260097D01*
X438743Y260507D01*
X438784Y260870D01*
X439862Y256548D01*
D02*
G37*
G36*
X392103Y250276D02*
X392062Y250492D01*
X391943Y250685D01*
X391742Y250856D01*
X391462Y251004D01*
X391103Y251129D01*
X390663Y251231D01*
X390142Y251311D01*
X389543Y251368D01*
X388103Y251413D01*
Y255413D01*
X388862Y255417D01*
X391742Y255585D01*
X391943Y255638D01*
X392062Y255697D01*
X392103Y255764D01*
Y250276D01*
D02*
G37*
G36*
X397982Y243905D02*
X398012Y243820D01*
X398063Y243745D01*
X398134Y243680D01*
X398225Y243625D01*
X398336Y243580D01*
X398468Y243545D01*
X398620Y243520D01*
X398792Y243505D01*
X398984Y243500D01*
Y242500D01*
X398792Y242495D01*
X398620Y242480D01*
X398468Y242455D01*
X398336Y242420D01*
X398225Y242375D01*
X398134Y242320D01*
X398063Y242255D01*
X398012Y242180D01*
X397982Y242095D01*
X397972Y242000D01*
Y244000D01*
X397982Y243905D01*
D02*
G37*
G36*
X527758Y243889D02*
X527788Y243805D01*
X527839Y243729D01*
X527910Y243665D01*
X528001Y243609D01*
X528112Y243565D01*
X528243Y243530D01*
X528395Y243505D01*
X528567Y243490D01*
X528760Y243484D01*
Y242484D01*
X528567Y242479D01*
X528395Y242464D01*
X528243Y242440D01*
X528112Y242405D01*
X528001Y242359D01*
X527910Y242304D01*
X527839Y242239D01*
X527788Y242164D01*
X527758Y242079D01*
X527748Y241985D01*
Y243985D01*
X527758Y243889D01*
D02*
G37*
G36*
X312567Y252604D02*
X312957Y252504D01*
X313159Y252348D01*
X313970Y251538D01*
Y243247D01*
X313969Y243245D01*
X313812Y242999D01*
X313470Y242831D01*
X313436Y242842D01*
X313223Y242932D01*
X312953Y243075D01*
X312631Y243277D01*
X312294Y243518D01*
X311436Y244244D01*
X307731Y247949D01*
X312397Y252615D01*
X312567Y252604D01*
D02*
G37*
G36*
X442672Y252567D02*
X442732Y252488D01*
X442935Y252332D01*
X443745Y251522D01*
Y243232D01*
X443745Y243230D01*
X443587Y242983D01*
X443245Y242816D01*
X443212Y242827D01*
X442999Y242917D01*
X442728Y243060D01*
X442406Y243261D01*
X442069Y243503D01*
X441211Y244228D01*
X437756Y247683D01*
Y248183D01*
X442173Y252600D01*
X442672Y252567D01*
D02*
G37*
G36*
X440764Y259211D02*
X440862Y259209D01*
Y258209D01*
X440764Y258206D01*
Y257709D01*
X440754Y257804D01*
X440724Y257889D01*
X440673Y257964D01*
X440602Y258029D01*
X440511Y258084D01*
X440400Y258129D01*
X440307Y258154D01*
X440214Y258129D01*
X440103Y258084D01*
X440012Y258029D01*
X439941Y257964D01*
X439890Y257889D01*
X439860Y257804D01*
X439850Y257709D01*
Y258206D01*
X439752Y258209D01*
Y259209D01*
X439850Y259211D01*
Y259709D01*
X439860Y259614D01*
X439890Y259529D01*
X439941Y259454D01*
X440012Y259389D01*
X440103Y259334D01*
X440214Y259289D01*
X440307Y259264D01*
X440400Y259289D01*
X440511Y259334D01*
X440602Y259389D01*
X440673Y259454D01*
X440724Y259529D01*
X440754Y259614D01*
X440764Y259709D01*
Y259211D01*
D02*
G37*
G36*
X317959Y259788D02*
X317991Y259638D01*
X318045Y259480D01*
X318120Y259314D01*
X318217Y259141D01*
X318335Y258961D01*
X318474Y258773D01*
X318817Y258374D01*
X319021Y258163D01*
X318668Y257102D01*
X318531Y257232D01*
X318409Y257332D01*
X318301Y257404D01*
X318207Y257448D01*
X318128Y257462D01*
X318063Y257448D01*
X318013Y257404D01*
X317977Y257332D01*
X317956Y257232D01*
X317948Y257102D01*
Y259931D01*
X317959Y259788D01*
D02*
G37*
G36*
X310989Y259227D02*
X311086Y259224D01*
Y258224D01*
X310989Y258222D01*
Y257724D01*
X310979Y257819D01*
X310948Y257904D01*
X310897Y257979D01*
X310827Y258044D01*
X310736Y258099D01*
X310624Y258144D01*
X310531Y258169D01*
X310439Y258144D01*
X310327Y258099D01*
X310236Y258044D01*
X310166Y257979D01*
X310115Y257904D01*
X310085Y257819D01*
X310074Y257724D01*
Y258222D01*
X309977Y258224D01*
Y259224D01*
X310074Y259227D01*
Y259724D01*
X310085Y259629D01*
X310115Y259544D01*
X310166Y259469D01*
X310236Y259404D01*
X310327Y259349D01*
X310439Y259304D01*
X310531Y259280D01*
X310624Y259304D01*
X310736Y259349D01*
X310827Y259404D01*
X310897Y259469D01*
X310948Y259544D01*
X310979Y259629D01*
X310989Y259724D01*
Y259227D01*
D02*
G37*
G36*
X442733Y259211D02*
X442831Y259209D01*
Y258209D01*
X442733Y258206D01*
Y257709D01*
X442723Y257804D01*
X442692Y257889D01*
X442642Y257964D01*
X442571Y258029D01*
X442480Y258084D01*
X442368Y258129D01*
X442276Y258154D01*
X442183Y258129D01*
X442071Y258084D01*
X441981Y258029D01*
X441910Y257964D01*
X441859Y257889D01*
X441829Y257804D01*
X441819Y257709D01*
Y258206D01*
X441721Y258209D01*
Y259209D01*
X441819Y259211D01*
Y259709D01*
X441829Y259614D01*
X441859Y259529D01*
X441910Y259454D01*
X441981Y259389D01*
X442071Y259334D01*
X442183Y259289D01*
X442276Y259264D01*
X442368Y259289D01*
X442480Y259334D01*
X442571Y259389D01*
X442642Y259454D01*
X442692Y259529D01*
X442723Y259614D01*
X442733Y259709D01*
Y259211D01*
D02*
G37*
G36*
X445760Y256538D02*
X445753Y256508D01*
X445748Y256458D01*
X445738Y256298D01*
X445728Y255548D01*
X444728D01*
X444689Y256548D01*
X445768D01*
X445760Y256538D01*
D02*
G37*
G36*
X310086Y256563D02*
X310415Y256521D01*
X310620Y256393D01*
X310701Y256181D01*
X310659Y255884D01*
X310492Y255503D01*
X310201Y255036D01*
X309786Y254484D01*
X309248Y253848D01*
X307799Y252321D01*
X304970Y255149D01*
X305737Y255933D01*
X307554Y258005D01*
X307999Y258602D01*
X308362Y259152D01*
X308645Y259656D01*
X308846Y260113D01*
X308968Y260523D01*
X309008Y260886D01*
X310086Y256563D01*
D02*
G37*
G36*
X447735Y259773D02*
X447767Y259622D01*
X447821Y259464D01*
X447896Y259299D01*
X447992Y259126D01*
X448110Y258945D01*
X448250Y258757D01*
X448593Y258358D01*
X448797Y258148D01*
X448443Y257087D01*
X448307Y257216D01*
X448184Y257317D01*
X448076Y257389D01*
X447983Y257432D01*
X447904Y257447D01*
X447839Y257432D01*
X447789Y257389D01*
X447753Y257317D01*
X447731Y257216D01*
X447724Y257087D01*
Y259915D01*
X447735Y259773D01*
D02*
G37*
G36*
X315985Y256553D02*
X315978Y256523D01*
X315972Y256473D01*
X315963Y256313D01*
X315953Y255563D01*
X314953D01*
X314914Y256563D01*
X315992D01*
X315985Y256553D01*
D02*
G37*
G36*
X301322Y336382D02*
X301262Y336022D01*
X301229Y335686D01*
X301223Y335372D01*
X301243Y335081D01*
X301290Y334812D01*
X301363Y334566D01*
X301463Y334343D01*
X301589Y334142D01*
X301743Y333964D01*
X300861Y333432D01*
X300728Y333546D01*
X300556Y333661D01*
X300347Y333776D01*
X300099Y333891D01*
X299492Y334120D01*
X299131Y334234D01*
X297822Y334578D01*
X301408Y336764D01*
X301322Y336382D01*
D02*
G37*
G36*
X427269Y387977D02*
X427284Y387805D01*
X427309Y387653D01*
X427344Y387521D01*
X427389Y387410D01*
X427444Y387319D01*
X427509Y387248D01*
X427584Y387198D01*
X427669Y387167D01*
X427764Y387157D01*
X425764D01*
X425859Y387167D01*
X425944Y387198D01*
X426019Y387248D01*
X426084Y387319D01*
X426139Y387410D01*
X426184Y387521D01*
X426219Y387653D01*
X426244Y387805D01*
X426259Y387977D01*
X426264Y388169D01*
X427264D01*
X427269Y387977D01*
D02*
G37*
G36*
X403086Y388905D02*
X403117Y388820D01*
X403167Y388745D01*
X403238Y388680D01*
X403329Y388625D01*
X403440Y388580D01*
X403572Y388545D01*
X403724Y388520D01*
X403896Y388505D01*
X404088Y388500D01*
Y387500D01*
X403896Y387495D01*
X403724Y387480D01*
X403572Y387455D01*
X403440Y387420D01*
X403329Y387375D01*
X403238Y387320D01*
X403167Y387255D01*
X403117Y387180D01*
X403086Y387095D01*
X403076Y387000D01*
Y389000D01*
X403086Y388905D01*
D02*
G37*
G36*
X409559Y387693D02*
X408559Y387500D01*
Y388500D01*
X408751Y388505D01*
X408922Y388520D01*
X409073Y388545D01*
X409205Y388580D01*
X409316Y388625D01*
X409407Y388680D01*
X409478Y388745D01*
X409529Y388820D01*
X409560Y388905D01*
X409571Y389000D01*
X409559Y387693D01*
D02*
G37*
G36*
X446493Y388886D02*
X446918Y388524D01*
X447343Y388204D01*
X447768Y387927D01*
X448193Y387692D01*
X448617Y387500D01*
X449040Y387351D01*
X449464Y387244D01*
X449887Y387179D01*
X450310Y387157D01*
X442917Y387169D01*
X442906Y387375D01*
X442874Y387583D01*
X442819Y387792D01*
X442742Y388002D01*
X442644Y388214D01*
X442524Y388426D01*
X442382Y388640D01*
X442218Y388856D01*
X442032Y389072D01*
X441824Y389290D01*
X446067D01*
X446493Y388886D01*
D02*
G37*
G36*
X304744Y434959D02*
Y427787D01*
Y421882D01*
X306970D01*
Y416211D01*
X306935Y416164D01*
X306618Y415798D01*
X306532Y415711D01*
X306395Y415605D01*
X305472Y414403D01*
X304892Y413003D01*
X304694Y411500D01*
X304892Y409997D01*
X305472Y408597D01*
X306395Y407395D01*
X307597Y406472D01*
X308997Y405892D01*
X310500Y405694D01*
X312003Y405892D01*
X313403Y406472D01*
X314605Y407395D01*
X315528Y408597D01*
X316108Y409997D01*
X316306Y411500D01*
X316108Y413003D01*
X315528Y414403D01*
X314605Y415605D01*
X314487Y415696D01*
X314184Y416017D01*
X314087Y416135D01*
X314030Y416211D01*
Y421882D01*
X316256D01*
Y423517D01*
X324047D01*
Y420307D01*
X335953D01*
Y428181D01*
Y429423D01*
X339585D01*
X364004Y405004D01*
X364735Y404443D01*
X365586Y404090D01*
X366500Y403970D01*
X369418D01*
X369639Y403521D01*
X369443Y403265D01*
X369090Y402414D01*
X369036Y402000D01*
X375964D01*
X375910Y402414D01*
X375557Y403265D01*
X375361Y403521D01*
X375582Y403970D01*
X392807D01*
Y401547D01*
X395427D01*
Y397100D01*
X392300D01*
Y388900D01*
Y382988D01*
X391838Y382797D01*
X389068Y385567D01*
X388316Y386145D01*
X387440Y386507D01*
X386700Y386605D01*
Y392100D01*
X384700D01*
Y392500D01*
X374900D01*
Y392100D01*
X372900D01*
Y385739D01*
X372400Y385532D01*
X370236Y387696D01*
X369505Y388257D01*
X368653Y388610D01*
X367820Y388720D01*
X365256Y391284D01*
Y397213D01*
X363256D01*
Y397453D01*
X355613D01*
X355244Y397330D01*
X344854Y407720D01*
X345528Y408597D01*
X346108Y409997D01*
X346306Y411500D01*
X346108Y413003D01*
X345528Y414403D01*
X344605Y415605D01*
X343403Y416528D01*
X342003Y417108D01*
X340500Y417306D01*
X338997Y417108D01*
X337597Y416528D01*
X336395Y415605D01*
X335472Y414403D01*
X334892Y413003D01*
X334694Y411500D01*
X334892Y409997D01*
X335472Y408597D01*
X336395Y407395D01*
X336513Y407304D01*
X336816Y406983D01*
X336914Y406865D01*
X336995Y406756D01*
X337017Y406720D01*
X337090Y406168D01*
X337443Y405317D01*
X338004Y404586D01*
X342675Y399915D01*
X342483Y399453D01*
X329307D01*
Y397030D01*
X327000D01*
X326086Y396910D01*
X325235Y396557D01*
X324504Y395996D01*
X323943Y395265D01*
X323590Y394414D01*
X323470Y393500D01*
Y371000D01*
X323590Y370086D01*
X323943Y369235D01*
X324504Y368504D01*
X325235Y367943D01*
X325578Y367801D01*
X325675Y367310D01*
X324432Y366068D01*
X323855Y365316D01*
X323493Y364440D01*
X323369Y363500D01*
Y357504D01*
X319459Y353594D01*
X319422Y353585D01*
X319315Y353568D01*
X318805Y353529D01*
X318532Y353526D01*
X318500Y353529D01*
X317324Y353413D01*
X316193Y353070D01*
X315150Y352513D01*
X314237Y351763D01*
X313487Y350850D01*
X312930Y349807D01*
X312587Y348676D01*
X312471Y347500D01*
X312587Y346324D01*
X312930Y345193D01*
X313487Y344150D01*
X314237Y343237D01*
X315150Y342487D01*
X316193Y341930D01*
X317324Y341587D01*
X318500Y341471D01*
X319676Y341587D01*
X320807Y341930D01*
X321849Y342487D01*
X322763Y343237D01*
X323513Y344150D01*
X324070Y345193D01*
X324413Y346324D01*
X324520Y347413D01*
X324524Y347437D01*
X324525Y347459D01*
X324529Y347500D01*
X324527Y347521D01*
X324545Y348115D01*
X324562Y348276D01*
X324585Y348422D01*
X324594Y348459D01*
X329568Y353432D01*
X329568Y353432D01*
X330145Y354185D01*
X330507Y355060D01*
X330631Y356000D01*
X330631Y356000D01*
Y357812D01*
X331131Y357982D01*
X331935Y356935D01*
X333125Y356021D01*
X334512Y355447D01*
X336000Y355251D01*
X336143Y355270D01*
X336401Y355262D01*
X336472Y355174D01*
X336208Y354704D01*
X336000Y354732D01*
X335034Y354605D01*
X334134Y354232D01*
X333361Y353639D01*
X332768Y352866D01*
X332395Y351966D01*
X332334Y351500D01*
X339666D01*
X339646Y351655D01*
X340119Y351888D01*
X354093Y337915D01*
X353902Y337453D01*
X351937D01*
Y333500D01*
X350937D01*
Y337453D01*
X349319D01*
Y339453D01*
X337807D01*
Y337030D01*
X333000D01*
X332086Y336910D01*
X331235Y336557D01*
X330504Y335996D01*
X325538Y331030D01*
X323588D01*
X323556Y331051D01*
X323443Y331136D01*
X323011Y331515D01*
X322784Y331738D01*
X322763Y331763D01*
X321849Y332513D01*
X320807Y333070D01*
X319676Y333413D01*
X318500Y333529D01*
X317324Y333413D01*
X316193Y333070D01*
X315150Y332513D01*
X314237Y331763D01*
X313487Y330850D01*
X312930Y329807D01*
X312587Y328676D01*
X312530Y328101D01*
X312059Y327933D01*
X304278Y335714D01*
X304293Y335800D01*
X304360Y336097D01*
X304366Y336170D01*
X304413Y336324D01*
X304529Y337500D01*
X304413Y338676D01*
X304070Y339807D01*
X303513Y340849D01*
X302763Y341763D01*
X301850Y342513D01*
X300807Y343070D01*
X299676Y343413D01*
X298500Y343529D01*
X297324Y343413D01*
X296193Y343070D01*
X295543Y342723D01*
X295043Y343023D01*
Y425911D01*
X304282Y435150D01*
X304744Y434959D01*
D02*
G37*
G36*
X427269Y382977D02*
X427284Y382805D01*
X427309Y382653D01*
X427344Y382521D01*
X427389Y382410D01*
X427444Y382319D01*
X427509Y382248D01*
X427584Y382198D01*
X427669Y382167D01*
X427764Y382157D01*
X425764D01*
X425859Y382167D01*
X425944Y382198D01*
X426019Y382248D01*
X426084Y382319D01*
X426139Y382410D01*
X426184Y382521D01*
X426219Y382653D01*
X426244Y382805D01*
X426259Y382977D01*
X426264Y383169D01*
X427264D01*
X427269Y382977D01*
D02*
G37*
G36*
X427669Y384833D02*
X427584Y384802D01*
X427509Y384752D01*
X427444Y384681D01*
X427389Y384590D01*
X427344Y384479D01*
X427309Y384347D01*
X427284Y384195D01*
X427269Y384023D01*
X427264Y383831D01*
X426264D01*
X426259Y384023D01*
X426244Y384195D01*
X426219Y384347D01*
X426184Y384479D01*
X426139Y384590D01*
X426084Y384681D01*
X426019Y384752D01*
X425944Y384802D01*
X425859Y384833D01*
X425764Y384843D01*
X427764D01*
X427669Y384833D01*
D02*
G37*
G36*
X496157Y400643D02*
X496569Y399871D01*
X497327Y398948D01*
X497328Y398946D01*
X497330Y398944D01*
X497382Y398882D01*
X497394Y398871D01*
X497399Y398857D01*
X497417Y398799D01*
X497436Y398710D01*
X497455Y398586D01*
X497461Y398509D01*
Y394380D01*
X486167Y383086D01*
X478756D01*
Y384118D01*
X475849D01*
X475744Y384132D01*
X475638Y384118D01*
X470362D01*
X470256Y384132D01*
X470151Y384118D01*
X467244D01*
Y383086D01*
X464333D01*
X458209Y389209D01*
X457769Y389547D01*
X457939Y390047D01*
X464693D01*
Y391970D01*
X485399D01*
X486313Y392090D01*
X487165Y392443D01*
X487896Y393004D01*
X495496Y400604D01*
X495564Y400692D01*
X496157Y400643D01*
D02*
G37*
G36*
X442340Y394552D02*
X442278Y394496D01*
X442223Y394402D01*
X442175Y394271D01*
X442135Y394102D01*
X442102Y393895D01*
X442076Y393651D01*
X442047Y393050D01*
X442043Y392693D01*
X439043D01*
X439040Y393050D01*
X438985Y393895D01*
X438952Y394102D01*
X438911Y394271D01*
X438864Y394402D01*
X438809Y394496D01*
X438746Y394552D01*
X438677Y394571D01*
X442410D01*
X442340Y394552D01*
D02*
G37*
G36*
X332331Y392500D02*
X332321Y392595D01*
X332291Y392680D01*
X332240Y392755D01*
X332169Y392820D01*
X332078Y392875D01*
X331967Y392920D01*
X331835Y392955D01*
X331683Y392980D01*
X331511Y392995D01*
X331319Y393000D01*
Y394000D01*
X331511Y394005D01*
X331683Y394020D01*
X331835Y394045D01*
X331967Y394080D01*
X332078Y394125D01*
X332169Y394180D01*
X332240Y394245D01*
X332291Y394320D01*
X332321Y394405D01*
X332331Y394500D01*
Y392500D01*
D02*
G37*
G36*
X399462Y394898D02*
X399477Y394728D01*
X399502Y394578D01*
X399537Y394448D01*
X399582Y394338D01*
X399637Y394248D01*
X399702Y394178D01*
X399777Y394128D01*
X399862Y394098D01*
X399957Y394088D01*
X397957D01*
X398052Y394098D01*
X398137Y394128D01*
X398212Y394178D01*
X398277Y394248D01*
X398332Y394338D01*
X398377Y394448D01*
X398412Y394578D01*
X398437Y394728D01*
X398452Y394898D01*
X398457Y395088D01*
X399457D01*
X399462Y394898D01*
D02*
G37*
G36*
X434362Y394561D02*
X434277Y394531D01*
X434202Y394480D01*
X434137Y394409D01*
X434082Y394318D01*
X434037Y394207D01*
X434002Y394075D01*
X433977Y393924D01*
X433962Y393752D01*
X433957Y393559D01*
X432957D01*
X432952Y393752D01*
X432937Y393924D01*
X432912Y394075D01*
X432877Y394207D01*
X432832Y394318D01*
X432777Y394409D01*
X432712Y394480D01*
X432637Y394531D01*
X432552Y394561D01*
X432457Y394571D01*
X434457D01*
X434362Y394561D01*
D02*
G37*
G36*
X343448Y390561D02*
X343363Y390531D01*
X343288Y390480D01*
X343223Y390409D01*
X343168Y390318D01*
X343123Y390207D01*
X343088Y390075D01*
X343063Y389924D01*
X343048Y389752D01*
X343043Y389559D01*
X342043D01*
X342038Y389752D01*
X342023Y389924D01*
X341998Y390075D01*
X341963Y390207D01*
X341918Y390318D01*
X341863Y390409D01*
X341798Y390480D01*
X341723Y390531D01*
X341638Y390561D01*
X341543Y390571D01*
X343543D01*
X343448Y390561D01*
D02*
G37*
G36*
X362150Y390667D02*
X362103Y390597D01*
X362089Y390506D01*
X362110Y390395D01*
X362165Y390263D01*
X362254Y390112D01*
X362377Y389940D01*
X362534Y389748D01*
X362951Y389303D01*
X361653Y389187D01*
X361473Y389360D01*
X361139Y389638D01*
X360985Y389744D01*
X360840Y389827D01*
X360702Y389887D01*
X360574Y389926D01*
X360454Y389942D01*
X360342Y389935D01*
X360239Y389906D01*
X362232Y390718D01*
X362150Y390667D01*
D02*
G37*
G36*
X356768Y391287D02*
X356758Y391382D01*
X356728Y391467D01*
X356677Y391542D01*
X356606Y391607D01*
X356515Y391662D01*
X356404Y391707D01*
X356272Y391742D01*
X356120Y391767D01*
X355948Y391782D01*
X355756Y391787D01*
Y392787D01*
X355948Y392792D01*
X356120Y392807D01*
X356272Y392832D01*
X356404Y392867D01*
X356515Y392912D01*
X356606Y392967D01*
X356677Y393032D01*
X356728Y393107D01*
X356758Y393192D01*
X356768Y393287D01*
Y391287D01*
D02*
G37*
G36*
X259911Y398061D02*
X260418Y397657D01*
X260937Y397312D01*
X261466Y397024D01*
X262007Y396796D01*
X262559Y396625D01*
X263122Y396512D01*
X263696Y396458D01*
X264281Y396462D01*
X264877Y396524D01*
X258585Y390231D01*
X258647Y390827D01*
X258650Y391412D01*
X258596Y391986D01*
X258484Y392549D01*
X258313Y393101D01*
X258084Y393642D01*
X257797Y394172D01*
X257451Y394690D01*
X257048Y395198D01*
X256586Y395694D01*
X259414Y398522D01*
X259911Y398061D01*
D02*
G37*
G36*
X409571Y382000D02*
X409561Y382095D01*
X409531Y382180D01*
X409480Y382255D01*
X409409Y382320D01*
X409318Y382375D01*
X409207Y382420D01*
X409075Y382455D01*
X408924Y382480D01*
X408751Y382495D01*
X408559Y382500D01*
Y383500D01*
X408751Y383505D01*
X408924Y383520D01*
X409075Y383545D01*
X409207Y383580D01*
X409318Y383625D01*
X409409Y383680D01*
X409480Y383745D01*
X409531Y383820D01*
X409561Y383905D01*
X409571Y384000D01*
Y382000D01*
D02*
G37*
G36*
X255467Y392061D02*
X255547Y391803D01*
X255598Y391546D01*
X255624Y391279D01*
X255622Y390994D01*
X255575Y390545D01*
X255576Y390491D01*
X255468Y389108D01*
X255597Y387460D01*
X255983Y385854D01*
X256615Y384327D01*
X257479Y382917D01*
X258552Y381661D01*
X259809Y380587D01*
X261218Y379724D01*
X262745Y379091D01*
X264352Y378705D01*
X266000Y378576D01*
X267648Y378705D01*
X269255Y379091D01*
X270782Y379724D01*
X272191Y380587D01*
X273448Y381661D01*
X274521Y382917D01*
X274957Y383629D01*
X275457Y383488D01*
Y371752D01*
X275448Y371584D01*
X275399Y371305D01*
X275352Y371165D01*
X275346Y371154D01*
X275335Y371148D01*
X275195Y371101D01*
X274916Y371052D01*
X274748Y371043D01*
X248305D01*
Y375274D01*
X248368Y375355D01*
X248871Y376571D01*
X249043Y377876D01*
X248871Y379181D01*
X248368Y380398D01*
X248280Y380512D01*
Y382116D01*
X246688D01*
X246522Y382244D01*
X245305Y382748D01*
X244000Y382919D01*
X220128D01*
X218823Y382748D01*
X217606Y382244D01*
X216562Y381442D01*
X213420Y378300D01*
X212267Y377175D01*
X210843Y375898D01*
X199500D01*
Y367798D01*
X201500D01*
Y366058D01*
Y364868D01*
X204900D01*
Y364368D01*
X205400D01*
Y362318D01*
X208300D01*
X208700Y362077D01*
Y360318D01*
X209933D01*
X209957Y360023D01*
Y356651D01*
X178892D01*
X172713Y362831D01*
Y363352D01*
X172953D01*
Y367108D01*
Y370864D01*
X172713D01*
Y372864D01*
X172613D01*
X172590Y373460D01*
Y377567D01*
X186540Y391516D01*
X187866Y392065D01*
X255465D01*
X255467Y392061D01*
D02*
G37*
G36*
X219381Y374301D02*
X218831Y373745D01*
X216748Y371375D01*
X216604Y371141D01*
X216517Y370953D01*
X216488Y370810D01*
X211712Y372886D01*
X211868Y372929D01*
X212097Y373056D01*
X212399Y373268D01*
X212773Y373565D01*
X214335Y374965D01*
X216552Y377129D01*
X219381Y374301D01*
D02*
G37*
G36*
X422445Y375000D02*
X422435Y375095D01*
X422405Y375180D01*
X422355Y375255D01*
X422285Y375320D01*
X422195Y375375D01*
X422085Y375420D01*
X421955Y375455D01*
X421805Y375480D01*
X421635Y375495D01*
X421445Y375500D01*
Y376500D01*
X421635Y376505D01*
X421805Y376520D01*
X421955Y376545D01*
X422085Y376580D01*
X422195Y376625D01*
X422285Y376680D01*
X422355Y376745D01*
X422405Y376820D01*
X422435Y376905D01*
X422445Y377000D01*
Y375000D01*
D02*
G37*
G36*
X352798Y389791D02*
X353529Y389230D01*
X353744Y389141D01*
Y386882D01*
X359673D01*
X361741Y384813D01*
X361021Y383875D01*
X360447Y382488D01*
X360251Y381000D01*
X360447Y379512D01*
X361021Y378125D01*
X361935Y376935D01*
X362742Y376315D01*
Y375685D01*
X361935Y375065D01*
X361847Y374951D01*
X361540Y374661D01*
X361430Y374570D01*
X361375Y374530D01*
X356530D01*
Y377000D01*
X356410Y377914D01*
X356057Y378765D01*
X355496Y379496D01*
X347907Y387085D01*
X348098Y387547D01*
X348693D01*
Y393243D01*
X349155Y393434D01*
X352798Y389791D01*
D02*
G37*
G36*
X368197Y372626D02*
X368711Y372181D01*
X368957Y372000D01*
X369196Y371848D01*
X369426Y371722D01*
X369650Y371625D01*
X369865Y371556D01*
X370073Y371514D01*
X370273Y371500D01*
Y370500D01*
X370073Y370486D01*
X369865Y370444D01*
X369650Y370375D01*
X369426Y370278D01*
X369196Y370152D01*
X368957Y370000D01*
X368711Y369819D01*
X368458Y369610D01*
X367928Y369110D01*
Y372890D01*
X368197Y372626D01*
D02*
G37*
G36*
X364072Y369110D02*
X363803Y369374D01*
X363288Y369819D01*
X363043Y370000D01*
X362804Y370152D01*
X362574Y370278D01*
X362351Y370375D01*
X362135Y370444D01*
X361927Y370486D01*
X361727Y370500D01*
Y371500D01*
X361927Y371514D01*
X362135Y371556D01*
X362351Y371625D01*
X362574Y371722D01*
X362804Y371848D01*
X363043Y372000D01*
X363288Y372181D01*
X363542Y372390D01*
X364072Y372890D01*
Y369110D01*
D02*
G37*
G36*
X169701Y369852D02*
X165394D01*
X165423Y369892D01*
X165449Y370012D01*
X165472Y370212D01*
X165509Y370852D01*
X165547Y373852D01*
X169547D01*
X169701Y369852D01*
D02*
G37*
G36*
X349470Y375538D02*
Y371000D01*
X349584Y370131D01*
X349559Y369976D01*
X349329Y369631D01*
X341948D01*
X341618Y370007D01*
X341749Y371000D01*
X341553Y372488D01*
X340979Y373875D01*
X340269Y374800D01*
X340515Y375300D01*
X341700D01*
Y382654D01*
X342162Y382846D01*
X349470Y375538D01*
D02*
G37*
G36*
X375924Y377000D02*
X375914Y377095D01*
X375884Y377180D01*
X375833Y377255D01*
X375762Y377320D01*
X375671Y377375D01*
X375560Y377420D01*
X375428Y377455D01*
X375276Y377480D01*
X375104Y377495D01*
X374912Y377500D01*
Y378500D01*
X375104Y378505D01*
X375276Y378520D01*
X375428Y378545D01*
X375560Y378580D01*
X375671Y378625D01*
X375762Y378680D01*
X375833Y378745D01*
X375884Y378820D01*
X375914Y378905D01*
X375924Y379000D01*
Y377000D01*
D02*
G37*
G36*
X415027Y376431D02*
X414970Y376000D01*
Y364817D01*
X414895Y364796D01*
X414470Y364751D01*
X413448Y365948D01*
X412191Y367021D01*
X410782Y367884D01*
X409255Y368517D01*
X407648Y368903D01*
X406000Y369033D01*
X404352Y368903D01*
X402745Y368517D01*
X401218Y367884D01*
X399809Y367021D01*
X398552Y365948D01*
X398130Y365454D01*
X397993Y365332D01*
X397631Y364916D01*
X397131Y365104D01*
Y372500D01*
X397013Y373400D01*
X397031Y373547D01*
X397267Y373900D01*
X406100D01*
Y376680D01*
X406547Y376807D01*
X406547Y376807D01*
Y376807D01*
X406547Y376807D01*
X414697D01*
X415027Y376431D01*
D02*
G37*
G36*
X403086Y383905D02*
X403117Y383820D01*
X403167Y383745D01*
X403238Y383680D01*
X403329Y383625D01*
X403440Y383580D01*
X403572Y383545D01*
X403724Y383520D01*
X403896Y383505D01*
X404088Y383500D01*
Y382500D01*
X403896Y382495D01*
X403724Y382480D01*
X403572Y382455D01*
X403440Y382420D01*
X403329Y382375D01*
X403238Y382320D01*
X403167Y382255D01*
X403117Y382180D01*
X403086Y382095D01*
X403076Y382000D01*
Y384000D01*
X403086Y383905D01*
D02*
G37*
G36*
X383700Y383995D02*
X383736Y383912D01*
X383796Y383839D01*
X383880Y383776D01*
X383988Y383722D01*
X384120Y383678D01*
X384276Y383644D01*
X384456Y383619D01*
X384660Y383605D01*
X384888Y383600D01*
Y382400D01*
X384660Y382395D01*
X384276Y382356D01*
X384120Y382322D01*
X383988Y382278D01*
X383880Y382224D01*
X383796Y382161D01*
X383736Y382088D01*
X383700Y382005D01*
X383688Y381912D01*
Y384088D01*
X383700Y383995D01*
D02*
G37*
G36*
X382173Y376917D02*
X382072Y376895D01*
X382000Y376859D01*
X381957Y376809D01*
X381943Y376744D01*
X381957Y376665D01*
X382000Y376572D01*
X382072Y376464D01*
X382173Y376342D01*
X382302Y376205D01*
X380888D01*
X380744Y376342D01*
X380601Y376464D01*
X380459Y376572D01*
X380317Y376665D01*
X380175Y376744D01*
X380034Y376809D01*
X379893Y376859D01*
X379753Y376895D01*
X379613Y376917D01*
X379474Y376924D01*
X382302D01*
X382173Y376917D01*
D02*
G37*
G36*
X431081Y376905D02*
X431111Y376820D01*
X431162Y376745D01*
X431233Y376680D01*
X431324Y376625D01*
X431435Y376580D01*
X431567Y376545D01*
X431718Y376520D01*
X431890Y376505D01*
X432083Y376500D01*
Y375500D01*
X431890Y375495D01*
X431718Y375480D01*
X431567Y375455D01*
X431435Y375420D01*
X431324Y375375D01*
X431233Y375320D01*
X431162Y375255D01*
X431111Y375180D01*
X431081Y375095D01*
X431071Y375000D01*
Y377000D01*
X431081Y376905D01*
D02*
G37*
G36*
X475774Y380905D02*
X475864Y380725D01*
X476014Y380566D01*
X476224Y380428D01*
X476494Y380312D01*
X476824Y380217D01*
X477214Y380142D01*
X477664Y380090D01*
X478174Y380058D01*
X478744Y380047D01*
Y377047D01*
X478174Y377045D01*
X475864Y376889D01*
X475774Y376847D01*
X475744Y376799D01*
Y381106D01*
X475774Y380905D01*
D02*
G37*
G36*
X470256Y376799D02*
X470226Y376847D01*
X470136Y376889D01*
X469986Y376926D01*
X469776Y376958D01*
X469176Y377008D01*
X467826Y377045D01*
X467256Y377047D01*
Y380047D01*
X467826Y380058D01*
X468786Y380142D01*
X469176Y380217D01*
X469506Y380312D01*
X469776Y380428D01*
X469986Y380566D01*
X470136Y380725D01*
X470226Y380905D01*
X470256Y381106D01*
Y376799D01*
D02*
G37*
G36*
X461679Y396405D02*
X461709Y396320D01*
X461760Y396245D01*
X461831Y396180D01*
X461922Y396125D01*
X462033Y396080D01*
X462165Y396045D01*
X462317Y396020D01*
X462489Y396005D01*
X462681Y396000D01*
Y395000D01*
X462489Y394995D01*
X462317Y394980D01*
X462165Y394955D01*
X462033Y394920D01*
X461922Y394875D01*
X461831Y394820D01*
X461760Y394755D01*
X461709Y394680D01*
X461679Y394595D01*
X461669Y394500D01*
Y396500D01*
X461679Y396405D01*
D02*
G37*
G36*
X245280Y432416D02*
X227720D01*
Y449308D01*
X245280D01*
Y432416D01*
D02*
G37*
G36*
X169671Y435721D02*
X169645Y435616D01*
X169622Y435441D01*
X169586Y434881D01*
X169547Y432256D01*
X165547D01*
X165394Y435756D01*
X169701D01*
X169671Y435721D01*
D02*
G37*
G36*
X169701Y441244D02*
X165394D01*
X165423Y441284D01*
X165449Y441404D01*
X165472Y441604D01*
X165509Y442244D01*
X165547Y445244D01*
X169547D01*
X169701Y441244D01*
D02*
G37*
G36*
X216486Y440405D02*
X216516Y440320D01*
X216567Y440245D01*
X216638Y440180D01*
X216729Y440125D01*
X216840Y440080D01*
X216972Y440045D01*
X217124Y440020D01*
X217296Y440005D01*
X217488Y440000D01*
Y439000D01*
X217296Y438995D01*
X217124Y438980D01*
X216972Y438955D01*
X216840Y438920D01*
X216729Y438875D01*
X216638Y438820D01*
X216567Y438755D01*
X216516Y438680D01*
X216486Y438595D01*
X216476Y438500D01*
Y440500D01*
X216486Y440405D01*
D02*
G37*
G36*
X313242Y433858D02*
X313272Y433773D01*
X313323Y433698D01*
X313394Y433633D01*
X313485Y433578D01*
X313596Y433533D01*
X313728Y433498D01*
X313880Y433473D01*
X314052Y433458D01*
X314244Y433453D01*
Y432453D01*
X314052Y432448D01*
X313880Y432433D01*
X313728Y432408D01*
X313596Y432373D01*
X313485Y432328D01*
X313394Y432273D01*
X313323Y432208D01*
X313272Y432133D01*
X313242Y432048D01*
X313232Y431953D01*
Y433953D01*
X313242Y433858D01*
D02*
G37*
G36*
X216585Y434682D02*
X216672Y434562D01*
X216749Y434362D01*
X216816Y434082D01*
X216872Y433722D01*
X216954Y432762D01*
X216995Y431482D01*
X217000Y430722D01*
X213000D01*
X212987Y431482D01*
X212884Y432762D01*
X212794Y433282D01*
X212678Y433722D01*
X212536Y434082D01*
X212369Y434362D01*
X212176Y434562D01*
X211957Y434682D01*
X211712Y434722D01*
X216488D01*
X216585Y434682D01*
D02*
G37*
G36*
X332939Y433858D02*
X332969Y433773D01*
X333020Y433698D01*
X333091Y433633D01*
X333182Y433578D01*
X333293Y433533D01*
X333425Y433498D01*
X333576Y433473D01*
X333749Y433458D01*
X333941Y433453D01*
Y432453D01*
X333749Y432448D01*
X333576Y432433D01*
X333425Y432408D01*
X333293Y432373D01*
X333182Y432328D01*
X333091Y432273D01*
X333020Y432208D01*
X332969Y432133D01*
X332939Y432048D01*
X332929Y431953D01*
Y433953D01*
X332939Y433858D01*
D02*
G37*
G36*
X327071Y431953D02*
X327061Y432048D01*
X327031Y432133D01*
X326980Y432208D01*
X326909Y432273D01*
X326818Y432328D01*
X326707Y432373D01*
X326575Y432408D01*
X326424Y432433D01*
X326252Y432448D01*
X326059Y432453D01*
Y433453D01*
X326252Y433458D01*
X326424Y433473D01*
X326575Y433498D01*
X326707Y433533D01*
X326818Y433578D01*
X326909Y433633D01*
X326980Y433698D01*
X327031Y433773D01*
X327061Y433858D01*
X327071Y433953D01*
Y431953D01*
D02*
G37*
G36*
X369507Y463500D02*
X369467Y463880D01*
X369346Y464220D01*
X369146Y464520D01*
X368865Y464780D01*
X368504Y465000D01*
X368062Y465180D01*
X367541Y465320D01*
X366939Y465420D01*
X366257Y465480D01*
X365495Y465500D01*
Y469500D01*
X366257Y469520D01*
X366939Y469580D01*
X367541Y469680D01*
X368062Y469820D01*
X368504Y470000D01*
X368865Y470220D01*
X369146Y470480D01*
X369346Y470780D01*
X369467Y471120D01*
X369507Y471500D01*
Y463500D01*
D02*
G37*
G36*
X259911Y469452D02*
X260418Y469049D01*
X260937Y468704D01*
X261466Y468416D01*
X262007Y468187D01*
X262559Y468016D01*
X263122Y467904D01*
X263696Y467850D01*
X264281Y467853D01*
X264877Y467915D01*
X258585Y461623D01*
X258647Y462219D01*
X258650Y462804D01*
X258596Y463378D01*
X258484Y463941D01*
X258313Y464493D01*
X258084Y465034D01*
X257797Y465563D01*
X257451Y466082D01*
X257048Y466589D01*
X256586Y467086D01*
X259414Y469914D01*
X259911Y469452D01*
D02*
G37*
G36*
X367516Y483021D02*
X367132Y482522D01*
X366629Y481305D01*
X366457Y480000D01*
Y472575D01*
X366093Y472543D01*
X307000D01*
X305695Y472371D01*
X304556Y471900D01*
X304354Y472037D01*
X304186Y472267D01*
X304773Y473366D01*
X305313Y475147D01*
X305496Y477000D01*
X305313Y478853D01*
X304773Y480634D01*
X303895Y482275D01*
X303286Y483018D01*
X303500Y483470D01*
X367295D01*
X367516Y483021D01*
D02*
G37*
G36*
X542470Y376200D02*
X500500D01*
Y329000D01*
X542470D01*
Y300369D01*
X541970Y300162D01*
X539043Y303089D01*
Y317900D01*
X539000Y318228D01*
Y327700D01*
X519000D01*
Y314321D01*
X518990Y314267D01*
X518554Y314039D01*
X517000D01*
Y318900D01*
X511000D01*
Y314039D01*
X487380D01*
X486018Y315401D01*
X485959Y315468D01*
X485821Y315671D01*
X485674Y315951D01*
X485524Y316318D01*
X485382Y316776D01*
X485256Y317325D01*
X485159Y317926D01*
X485034Y319539D01*
X485026Y320415D01*
X485033Y320500D01*
X485027Y320571D01*
X485081Y322342D01*
X485153Y323036D01*
X485256Y323675D01*
X485382Y324224D01*
X485524Y324682D01*
X485674Y325049D01*
X485821Y325329D01*
X485959Y325532D01*
X486018Y325599D01*
X490209Y329791D01*
X490931Y330731D01*
X491384Y331825D01*
X491539Y333000D01*
Y375620D01*
X505209Y389291D01*
X505931Y390231D01*
X506384Y391325D01*
X506539Y392500D01*
Y398509D01*
X506545Y398586D01*
X506564Y398710D01*
X506583Y398799D01*
X506601Y398857D01*
X506606Y398871D01*
X506618Y398882D01*
X506670Y398944D01*
X506672Y398946D01*
X506673Y398948D01*
X506750Y399042D01*
X507250D01*
X507382Y398882D01*
X508371Y398069D01*
X509501Y397466D01*
X510726Y397094D01*
X512000Y396969D01*
X513274Y397094D01*
X514500Y397466D01*
X515629Y398069D01*
X516618Y398882D01*
X517431Y399871D01*
X518034Y401000D01*
X518406Y402226D01*
X518532Y403500D01*
X518406Y404774D01*
X518034Y406000D01*
X517431Y407129D01*
X516618Y408118D01*
X515629Y408931D01*
X514500Y409534D01*
X513274Y409906D01*
X512000Y410032D01*
X511943Y410026D01*
X511538Y410028D01*
X510785Y410073D01*
X510563Y410102D01*
X510375Y410138D01*
X510348Y410145D01*
X506996Y413496D01*
X506265Y414057D01*
X505414Y414410D01*
X504500Y414530D01*
X498000D01*
X497086Y414410D01*
X496235Y414057D01*
X495504Y413496D01*
X490504Y408496D01*
X489943Y407765D01*
X489590Y406914D01*
X489470Y406000D01*
Y404563D01*
X489027Y404120D01*
X488499Y404299D01*
X488384Y405175D01*
X487931Y406269D01*
X487209Y407209D01*
X486269Y407931D01*
X485175Y408384D01*
X484500Y408473D01*
Y404000D01*
X483500D01*
Y408473D01*
X482825Y408384D01*
X481731Y407931D01*
X480791Y407209D01*
X480455Y406773D01*
X479862Y406821D01*
X479431Y407629D01*
X478618Y408618D01*
X477629Y409431D01*
X476500Y410034D01*
X475274Y410406D01*
X474000Y410532D01*
X472726Y410406D01*
X471500Y410034D01*
X471493Y410030D01*
X464193D01*
Y412453D01*
X444807D01*
Y410030D01*
X432500D01*
X431586Y409910D01*
X430735Y409557D01*
X430004Y408996D01*
X430004Y408996D01*
X424268Y403260D01*
X423707Y402529D01*
X423354Y401678D01*
X423234Y400764D01*
Y390181D01*
X419433D01*
Y381819D01*
Y379530D01*
X418500D01*
X418453Y379572D01*
Y384681D01*
Y396193D01*
X406547D01*
X406547Y396193D01*
Y396193D01*
X406547Y396193D01*
X406100Y396320D01*
Y397100D01*
X402487D01*
Y401547D01*
X404319D01*
Y403547D01*
X405937D01*
Y407500D01*
Y411453D01*
X404319D01*
Y413453D01*
X392807D01*
Y411030D01*
X367962D01*
X343520Y435473D01*
X342789Y436034D01*
X341937Y436386D01*
X341024Y436507D01*
X340844Y436483D01*
X335953D01*
Y437457D01*
X474000D01*
X475305Y437629D01*
X476522Y438132D01*
X477566Y438934D01*
X478368Y439978D01*
X478871Y441195D01*
X479043Y442500D01*
Y449642D01*
X479117Y450539D01*
X479173Y450887D01*
X479245Y451219D01*
X479325Y451501D01*
X479409Y451732D01*
X479492Y451914D01*
X479570Y452052D01*
X479725Y452275D01*
X479751Y452326D01*
X479868Y452478D01*
X479924Y452615D01*
X479940Y452639D01*
X479973Y452734D01*
X480028Y452866D01*
X480086Y452978D01*
X480098Y453034D01*
X480371Y453695D01*
X480543Y455000D01*
Y480000D01*
X480371Y481305D01*
X479868Y482522D01*
X479484Y483021D01*
X479705Y483470D01*
X523027D01*
X523206Y482970D01*
X522286Y482214D01*
X521105Y480775D01*
X520227Y479134D01*
X519687Y477353D01*
X519504Y475500D01*
X519687Y473647D01*
X520227Y471866D01*
X521105Y470225D01*
X522286Y468785D01*
X523725Y467605D01*
X525366Y466727D01*
X527147Y466187D01*
X529000Y466004D01*
X530853Y466187D01*
X532634Y466727D01*
X534275Y467605D01*
X535714Y468785D01*
X536895Y470225D01*
X537773Y471866D01*
X538313Y473647D01*
X538496Y475500D01*
X538313Y477353D01*
X537773Y479134D01*
X536895Y480775D01*
X535714Y482214D01*
X534794Y482970D01*
X534973Y483470D01*
X542470D01*
Y376200D01*
D02*
G37*
G36*
X477002Y453658D02*
X476791Y453284D01*
X476606Y452876D01*
X476445Y452434D01*
X476309Y451958D01*
X476198Y451447D01*
X476111Y450902D01*
X476012Y449709D01*
X476000Y449061D01*
X472000Y448995D01*
X471981Y449602D01*
X471923Y450175D01*
X471827Y450716D01*
X471693Y451224D01*
X471521Y451699D01*
X471310Y452142D01*
X471060Y452551D01*
X470773Y452928D01*
X470446Y453271D01*
X470082Y453582D01*
X477237Y453997D01*
X477002Y453658D01*
D02*
G37*
G36*
X219381Y445692D02*
X218831Y445137D01*
X216748Y442767D01*
X216604Y442533D01*
X216517Y442345D01*
X216488Y442202D01*
X211712Y444278D01*
X211868Y444321D01*
X212097Y444448D01*
X212399Y444660D01*
X212773Y444957D01*
X214335Y446357D01*
X216552Y448521D01*
X219381Y445692D01*
D02*
G37*
G36*
X288714Y483018D02*
X288105Y482275D01*
X287227Y480634D01*
X286687Y478853D01*
X286504Y477000D01*
X286687Y475147D01*
X287227Y473366D01*
X288105Y471725D01*
X289285Y470286D01*
X290724Y469105D01*
X292366Y468227D01*
X294147Y467687D01*
X296000Y467504D01*
X297852Y467687D01*
X299634Y468227D01*
X300180Y468519D01*
X300481Y468113D01*
X276934Y444566D01*
X276132Y443522D01*
X275629Y442305D01*
X275457Y441000D01*
Y440252D01*
X275448Y440084D01*
X275399Y439805D01*
X275352Y439665D01*
X275346Y439654D01*
X275335Y439648D01*
X275195Y439601D01*
X274916Y439552D01*
X274748Y439543D01*
X248305D01*
Y446665D01*
X248368Y446746D01*
X248871Y447963D01*
X249043Y449268D01*
X248871Y450573D01*
X248368Y451790D01*
X248280Y451904D01*
Y453508D01*
X246688D01*
X246522Y453636D01*
X245305Y454139D01*
X244000Y454311D01*
X220128D01*
X218823Y454139D01*
X217606Y453636D01*
X216562Y452834D01*
X213420Y449692D01*
X212267Y448567D01*
X210843Y447290D01*
X199500D01*
Y439190D01*
X201500D01*
Y437450D01*
Y436260D01*
X204900D01*
Y435760D01*
X205400D01*
Y433710D01*
X208300D01*
X208700Y433468D01*
Y431710D01*
X209933D01*
X209957Y431415D01*
Y428043D01*
X178892D01*
X172713Y434223D01*
Y434744D01*
X172953D01*
Y438500D01*
Y442256D01*
X172713D01*
Y444256D01*
X172613D01*
X172590Y444852D01*
Y448958D01*
X186540Y462908D01*
X187866Y463457D01*
X255465D01*
X255467Y463453D01*
X255547Y463195D01*
X255598Y462938D01*
X255624Y462671D01*
X255622Y462386D01*
X255575Y461936D01*
X255576Y461883D01*
X255468Y460500D01*
X255597Y458852D01*
X255983Y457245D01*
X256615Y455718D01*
X257479Y454309D01*
X258552Y453052D01*
X259809Y451979D01*
X261218Y451116D01*
X262745Y450483D01*
X264352Y450097D01*
X266000Y449967D01*
X267648Y450097D01*
X269255Y450483D01*
X270782Y451116D01*
X272191Y451979D01*
X273448Y453052D01*
X274521Y454309D01*
X275384Y455718D01*
X276017Y457245D01*
X276403Y458852D01*
X276533Y460500D01*
X276403Y462148D01*
X276017Y463755D01*
X275384Y465282D01*
X274521Y466691D01*
X273448Y467948D01*
X272191Y469021D01*
X270782Y469884D01*
X269255Y470517D01*
X267648Y470903D01*
X266000Y471032D01*
X264617Y470924D01*
X264564Y470925D01*
X264114Y470878D01*
X263829Y470876D01*
X263562Y470902D01*
X263305Y470953D01*
X263047Y471033D01*
X262780Y471146D01*
X262500Y471298D01*
X262202Y471497D01*
X261886Y471748D01*
X261865Y471767D01*
X261566Y472066D01*
X260522Y472867D01*
X259305Y473371D01*
X258000Y473543D01*
X187866D01*
X186503Y474108D01*
X185000Y474306D01*
X183497Y474108D01*
X182097Y473528D01*
X180895Y472605D01*
X179972Y471403D01*
X179408Y470040D01*
X163981Y454613D01*
X163180Y453569D01*
X162676Y452353D01*
X162504Y451047D01*
Y444256D01*
X162382D01*
Y441349D01*
X162368Y441244D01*
X162382Y441138D01*
Y435862D01*
X162368Y435756D01*
X162377Y435690D01*
X162371Y435624D01*
X162382Y435373D01*
Y432744D01*
X162497D01*
X162504Y432583D01*
Y432256D01*
X162676Y430951D01*
X163180Y429734D01*
X163981Y428690D01*
X173237Y419434D01*
X174282Y418633D01*
X175498Y418129D01*
X176803Y417957D01*
X181774D01*
X182078Y417596D01*
X182102Y417457D01*
X182100Y417441D01*
X182114Y417335D01*
Y408547D01*
X194020D01*
Y417335D01*
X194034Y417441D01*
X194031Y417457D01*
X194056Y417596D01*
X194360Y417957D01*
X212500D01*
X213805Y418129D01*
X215022Y418633D01*
X216066Y419434D01*
X218566Y421934D01*
X219368Y422978D01*
X219871Y424195D01*
X220043Y425500D01*
Y432151D01*
X220543Y432405D01*
X220690Y432298D01*
Y415087D01*
X220811Y414173D01*
X221163Y413322D01*
X221724Y412591D01*
X228764Y405551D01*
X229495Y404990D01*
X230347Y404637D01*
X231260Y404517D01*
X236606D01*
X237520Y404637D01*
X238371Y404990D01*
X239102Y405551D01*
X246276Y412725D01*
X246837Y413456D01*
X247189Y414307D01*
X247310Y415221D01*
Y423492D01*
X248280D01*
Y429457D01*
X264620D01*
X264644Y428957D01*
X263834Y428877D01*
X262231Y428391D01*
X260755Y427602D01*
X259460Y426540D01*
X258398Y425245D01*
X257609Y423769D01*
X257123Y422166D01*
X257008Y421000D01*
X273992D01*
X273877Y422166D01*
X273391Y423769D01*
X272602Y425245D01*
X271539Y426540D01*
X270245Y427602D01*
X268769Y428391D01*
X267166Y428877D01*
X266356Y428957D01*
X266380Y429457D01*
X274748D01*
X274916Y429448D01*
X275195Y429399D01*
X275335Y429352D01*
X275346Y429346D01*
X275352Y429335D01*
X275399Y429195D01*
X275448Y428916D01*
X275457Y428748D01*
Y394729D01*
X274957Y394588D01*
X274521Y395299D01*
X273448Y396556D01*
X272191Y397629D01*
X270782Y398493D01*
X269255Y399125D01*
X267648Y399511D01*
X266000Y399641D01*
X264617Y399532D01*
X264564Y399533D01*
X264114Y399486D01*
X263829Y399485D01*
X263562Y399510D01*
X263305Y399561D01*
X263047Y399641D01*
X262780Y399754D01*
X262500Y399906D01*
X262202Y400105D01*
X261886Y400356D01*
X261865Y400375D01*
X261566Y400674D01*
X260522Y401476D01*
X259305Y401979D01*
X258000Y402151D01*
X187866D01*
X186503Y402716D01*
X185000Y402914D01*
X183497Y402716D01*
X182097Y402136D01*
X180895Y401213D01*
X179972Y400011D01*
X179408Y398648D01*
X163981Y383221D01*
X163180Y382177D01*
X162676Y380961D01*
X162504Y379655D01*
Y372864D01*
X162382D01*
Y369958D01*
X162368Y369852D01*
X162382Y369746D01*
Y364470D01*
X162368Y364364D01*
X162377Y364298D01*
X162371Y364232D01*
X162382Y363981D01*
Y361352D01*
X162497D01*
X162504Y361192D01*
Y360864D01*
X162676Y359559D01*
X163180Y358343D01*
X163981Y357298D01*
X173237Y348042D01*
X174282Y347241D01*
X175498Y346737D01*
X176803Y346565D01*
X181774D01*
X182078Y346204D01*
X182102Y346065D01*
X182100Y346049D01*
X182114Y345943D01*
Y337155D01*
X194020D01*
Y345943D01*
X194034Y346049D01*
X194031Y346065D01*
X194056Y346204D01*
X194360Y346565D01*
X212500D01*
X213805Y346737D01*
X215022Y347241D01*
X216066Y348042D01*
X218566Y350542D01*
X219368Y351587D01*
X219871Y352803D01*
X220043Y354108D01*
Y360759D01*
X220543Y361013D01*
X220690Y360906D01*
Y343695D01*
X220811Y342781D01*
X221163Y341930D01*
X221724Y341199D01*
X228764Y334159D01*
X229495Y333598D01*
X230347Y333245D01*
X231260Y333125D01*
X236606D01*
X237520Y333245D01*
X238371Y333598D01*
X239102Y334159D01*
X246276Y341333D01*
X246837Y342064D01*
X247189Y342915D01*
X247310Y343829D01*
Y352100D01*
X248280D01*
Y360580D01*
X248578Y360957D01*
X274748D01*
X274916Y360948D01*
X275195Y360899D01*
X275335Y360852D01*
X275346Y360846D01*
X275352Y360835D01*
X275399Y360695D01*
X275448Y360416D01*
X275457Y360248D01*
Y323229D01*
X274957Y323088D01*
X274521Y323799D01*
X273448Y325056D01*
X272191Y326129D01*
X270782Y326993D01*
X269255Y327625D01*
X267648Y328011D01*
X266000Y328141D01*
X264617Y328032D01*
X264564Y328033D01*
X264114Y327986D01*
X263829Y327985D01*
X263562Y328010D01*
X263305Y328061D01*
X263047Y328141D01*
X262780Y328254D01*
X262500Y328406D01*
X262202Y328605D01*
X261886Y328856D01*
X261865Y328875D01*
X261566Y329174D01*
X260522Y329976D01*
X259305Y330480D01*
X258000Y330651D01*
X187866D01*
X186503Y331216D01*
X185000Y331414D01*
X183497Y331216D01*
X182097Y330636D01*
X180895Y329713D01*
X179972Y328511D01*
X179408Y327148D01*
X163981Y311721D01*
X163180Y310677D01*
X162676Y309461D01*
X162504Y308155D01*
Y301364D01*
X162382D01*
Y298458D01*
X162368Y298352D01*
X162382Y298247D01*
Y292970D01*
X162368Y292864D01*
X162377Y292798D01*
X162371Y292732D01*
X162382Y292481D01*
Y289852D01*
X162497D01*
X162504Y289692D01*
Y289364D01*
X162676Y288059D01*
X163180Y286842D01*
X163981Y285798D01*
X173237Y276542D01*
X174282Y275741D01*
X175498Y275237D01*
X176803Y275065D01*
X181774D01*
X182078Y274704D01*
X182102Y274565D01*
X182100Y274549D01*
X182114Y274443D01*
Y265655D01*
X194020D01*
Y274443D01*
X194034Y274549D01*
X194031Y274565D01*
X194056Y274704D01*
X194360Y275065D01*
X212500D01*
X213805Y275237D01*
X215022Y275741D01*
X216066Y276542D01*
X218566Y279042D01*
X219368Y280087D01*
X219871Y281303D01*
X220043Y282608D01*
Y289259D01*
X220543Y289513D01*
X220690Y289406D01*
Y272195D01*
X220811Y271282D01*
X221163Y270430D01*
X221724Y269699D01*
X228764Y262659D01*
X229495Y262098D01*
X230347Y261746D01*
X231260Y261625D01*
X236606D01*
X237520Y261746D01*
X238371Y262098D01*
X239102Y262659D01*
X246276Y269833D01*
X246837Y270564D01*
X247189Y271415D01*
X247310Y272329D01*
Y280600D01*
X248280D01*
Y289080D01*
X248280D01*
X248251Y289113D01*
X248305Y289525D01*
Y291957D01*
X274748D01*
X274916Y291948D01*
X275195Y291899D01*
X275335Y291852D01*
X275346Y291846D01*
X275352Y291835D01*
X275399Y291695D01*
X275448Y291416D01*
X275457Y291248D01*
Y251729D01*
X274957Y251588D01*
X274521Y252299D01*
X273448Y253556D01*
X272191Y254629D01*
X270782Y255493D01*
X269255Y256125D01*
X267648Y256511D01*
X266000Y256641D01*
X264617Y256532D01*
X264564Y256533D01*
X264114Y256486D01*
X263829Y256485D01*
X263562Y256510D01*
X263305Y256561D01*
X263047Y256641D01*
X262780Y256754D01*
X262500Y256906D01*
X262202Y257105D01*
X261886Y257356D01*
X261865Y257375D01*
X261566Y257674D01*
X260522Y258476D01*
X259305Y258980D01*
X258000Y259151D01*
X187866D01*
X186503Y259716D01*
X185000Y259914D01*
X183497Y259716D01*
X182097Y259136D01*
X180895Y258213D01*
X179972Y257011D01*
X179408Y255648D01*
X163981Y240221D01*
X163180Y239177D01*
X162676Y237961D01*
X162504Y236655D01*
Y229864D01*
X162382D01*
Y226958D01*
X162368Y226852D01*
X162382Y226747D01*
Y221470D01*
X162368Y221364D01*
X162377Y221298D01*
X162371Y221232D01*
X162382Y220981D01*
Y218352D01*
X162497D01*
X162504Y218192D01*
Y217864D01*
X162676Y216559D01*
X163180Y215342D01*
X163981Y214298D01*
X172488Y205791D01*
X172223Y205349D01*
X170693Y205813D01*
X168840Y205996D01*
X166988Y205813D01*
X165206Y205273D01*
X163565Y204395D01*
X162126Y203215D01*
X160945Y201776D01*
X160067Y200134D01*
X159527Y198353D01*
X159344Y196500D01*
X159527Y194648D01*
X160067Y192866D01*
X160945Y191225D01*
X161144Y190982D01*
X160930Y190530D01*
X149530D01*
Y469848D01*
X150030Y470085D01*
X151225Y469105D01*
X152866Y468227D01*
X154648Y467687D01*
X156500Y467504D01*
X158352Y467687D01*
X160134Y468227D01*
X161776Y469105D01*
X163215Y470286D01*
X164395Y471725D01*
X165273Y473366D01*
X165813Y475147D01*
X165996Y477000D01*
X165813Y478853D01*
X165273Y480634D01*
X164395Y482275D01*
X163786Y483018D01*
X164000Y483470D01*
X288500D01*
X288714Y483018D01*
D02*
G37*
G36*
X467516Y483021D02*
X467133Y482522D01*
X466629Y481305D01*
X466457Y480000D01*
Y455000D01*
X466629Y453695D01*
X467133Y452478D01*
X467541Y451946D01*
X467554Y451920D01*
X467575Y451895D01*
X467590Y451866D01*
X467673Y451774D01*
X467934Y451434D01*
X468051Y451344D01*
X468070Y451322D01*
X468097Y451304D01*
X468119Y451280D01*
X468361Y451073D01*
X468466Y450962D01*
X468559Y450841D01*
X468645Y450700D01*
X468726Y450529D01*
X468802Y450319D01*
X468870Y450065D01*
X468924Y449760D01*
X468957Y449431D01*
Y447543D01*
X304500D01*
X303195Y447371D01*
X301978Y446868D01*
X300934Y446066D01*
X286434Y431566D01*
X286043Y431057D01*
X285543Y431226D01*
Y434500D01*
Y438911D01*
X309089Y462457D01*
X366093D01*
X366457Y462425D01*
Y455000D01*
X366629Y453695D01*
X367132Y452478D01*
X367934Y451434D01*
X368978Y450632D01*
X370195Y450129D01*
X371500Y449957D01*
X375500D01*
X376805Y450129D01*
X378022Y450632D01*
X379066Y451434D01*
X379868Y452478D01*
X380371Y453695D01*
X380543Y455000D01*
Y480000D01*
X380371Y481305D01*
X379868Y482522D01*
X379484Y483021D01*
X379705Y483470D01*
X467295D01*
X467516Y483021D01*
D02*
G37*
G36*
X282500Y434500D02*
X278500Y428500D01*
X278460Y429260D01*
X278340Y429940D01*
X278140Y430540D01*
X277860Y431060D01*
X277500Y431500D01*
X277060Y431860D01*
X276540Y432140D01*
X275940Y432340D01*
X275260Y432460D01*
X274500Y432500D01*
Y436500D01*
X275260Y436540D01*
X275940Y436660D01*
X276540Y436860D01*
X277060Y437140D01*
X277500Y437500D01*
X277860Y437940D01*
X278140Y438460D01*
X278340Y439060D01*
X278460Y439740D01*
X278500Y440500D01*
X282500Y434500D01*
D02*
G37*
G36*
X447819Y405500D02*
X447809Y405595D01*
X447779Y405680D01*
X447729Y405755D01*
X447659Y405820D01*
X447569Y405875D01*
X447459Y405920D01*
X447329Y405955D01*
X447179Y405980D01*
X447009Y405995D01*
X446819Y406000D01*
Y407000D01*
X447009Y407005D01*
X447179Y407020D01*
X447329Y407045D01*
X447459Y407080D01*
X447569Y407125D01*
X447659Y407180D01*
X447729Y407245D01*
X447779Y407320D01*
X447809Y407405D01*
X447819Y407500D01*
Y405500D01*
D02*
G37*
G36*
X399862Y404561D02*
X399777Y404531D01*
X399702Y404480D01*
X399637Y404409D01*
X399582Y404318D01*
X399537Y404207D01*
X399502Y404075D01*
X399477Y403924D01*
X399462Y403752D01*
X399457Y403559D01*
X398457D01*
X398452Y403752D01*
X398437Y403924D01*
X398412Y404075D01*
X398377Y404207D01*
X398332Y404318D01*
X398277Y404409D01*
X398212Y404480D01*
X398137Y404531D01*
X398052Y404561D01*
X397957Y404571D01*
X399957D01*
X399862Y404561D01*
D02*
G37*
G36*
X395819Y406500D02*
X395809Y406595D01*
X395779Y406680D01*
X395729Y406755D01*
X395659Y406820D01*
X395569Y406875D01*
X395459Y406920D01*
X395329Y406955D01*
X395179Y406980D01*
X395009Y406995D01*
X394819Y407000D01*
Y408000D01*
X395009Y408005D01*
X395179Y408020D01*
X395329Y408045D01*
X395459Y408080D01*
X395569Y408125D01*
X395659Y408180D01*
X395729Y408245D01*
X395779Y408320D01*
X395809Y408405D01*
X395819Y408500D01*
Y406500D01*
D02*
G37*
G36*
X461179Y407405D02*
X461209Y407320D01*
X461260Y407245D01*
X461331Y407180D01*
X461422Y407125D01*
X461533Y407080D01*
X461665Y407045D01*
X461817Y407020D01*
X461989Y407005D01*
X462181Y407000D01*
Y406000D01*
X461989Y405995D01*
X461817Y405980D01*
X461665Y405955D01*
X461533Y405920D01*
X461422Y405875D01*
X461331Y405820D01*
X461260Y405755D01*
X461209Y405680D01*
X461179Y405595D01*
X461169Y405500D01*
Y407500D01*
X461179Y407405D01*
D02*
G37*
G36*
X451462Y399748D02*
X451477Y399576D01*
X451502Y399425D01*
X451537Y399293D01*
X451582Y399182D01*
X451637Y399091D01*
X451702Y399020D01*
X451777Y398969D01*
X451862Y398939D01*
X451957Y398929D01*
X449957D01*
X450052Y398939D01*
X450137Y398969D01*
X450212Y399020D01*
X450277Y399091D01*
X450332Y399182D01*
X450377Y399293D01*
X450412Y399425D01*
X450437Y399576D01*
X450452Y399748D01*
X450457Y399941D01*
X451457D01*
X451462Y399748D01*
D02*
G37*
G36*
X504270Y400805D02*
X504108Y400592D01*
X503966Y400361D01*
X503842Y400111D01*
X503737Y399844D01*
X503652Y399559D01*
X503585Y399256D01*
X503538Y398934D01*
X503510Y398595D01*
X503500Y398238D01*
X500500D01*
X500491Y398595D01*
X500462Y398934D01*
X500415Y399256D01*
X500348Y399559D01*
X500262Y399844D01*
X500158Y400111D01*
X500035Y400361D01*
X499892Y400592D01*
X499730Y400805D01*
X499550Y401000D01*
X504450D01*
X504270Y400805D01*
D02*
G37*
G36*
X508601Y407633D02*
X508822Y407495D01*
X509081Y407374D01*
X509378Y407270D01*
X509713Y407183D01*
X510087Y407113D01*
X510499Y407059D01*
X511438Y407003D01*
X511965Y407000D01*
X508500Y403535D01*
X508497Y404062D01*
X508441Y405001D01*
X508387Y405413D01*
X508317Y405787D01*
X508230Y406122D01*
X508125Y406419D01*
X508005Y406678D01*
X507867Y406899D01*
X507712Y407081D01*
X508419Y407788D01*
X508601Y407633D01*
D02*
G37*
G36*
X451862Y403561D02*
X451777Y403531D01*
X451702Y403480D01*
X451637Y403409D01*
X451582Y403318D01*
X451537Y403207D01*
X451502Y403075D01*
X451477Y402924D01*
X451462Y402751D01*
X451457Y402559D01*
X450457D01*
X450452Y402751D01*
X450437Y402924D01*
X450412Y403075D01*
X450377Y403207D01*
X450332Y403318D01*
X450277Y403409D01*
X450212Y403480D01*
X450137Y403531D01*
X450052Y403561D01*
X449957Y403571D01*
X451957D01*
X451862Y403561D01*
D02*
G37*
G36*
X244685Y426506D02*
X244600Y426475D01*
X244525Y426425D01*
X244460Y426354D01*
X244405Y426263D01*
X244359Y426152D01*
X244324Y426020D01*
X244300Y425868D01*
X244285Y425696D01*
X244280Y425504D01*
X243280D01*
X243274Y425696D01*
X243260Y425868D01*
X243234Y426020D01*
X243199Y426152D01*
X243155Y426263D01*
X243099Y426354D01*
X243035Y426425D01*
X242959Y426475D01*
X242875Y426506D01*
X242779Y426516D01*
X244779D01*
X244685Y426506D01*
D02*
G37*
G36*
X311405Y424896D02*
X311320Y424865D01*
X311245Y424815D01*
X311180Y424744D01*
X311125Y424653D01*
X311080Y424542D01*
X311045Y424410D01*
X311020Y424258D01*
X311005Y424086D01*
X311000Y423894D01*
X310000D01*
X309995Y424086D01*
X309980Y424258D01*
X309955Y424410D01*
X309920Y424542D01*
X309875Y424653D01*
X309820Y424744D01*
X309755Y424815D01*
X309680Y424865D01*
X309595Y424896D01*
X309500Y424906D01*
X311500D01*
X311405Y424896D01*
D02*
G37*
G36*
X327071Y426047D02*
X327061Y426142D01*
X327031Y426227D01*
X326980Y426302D01*
X326909Y426367D01*
X326818Y426422D01*
X326707Y426467D01*
X326575Y426502D01*
X326424Y426527D01*
X326252Y426542D01*
X326059Y426547D01*
Y427547D01*
X326252Y427552D01*
X326424Y427567D01*
X326575Y427592D01*
X326707Y427627D01*
X326818Y427672D01*
X326909Y427727D01*
X326980Y427792D01*
X327031Y427867D01*
X327061Y427952D01*
X327071Y428047D01*
Y426047D01*
D02*
G37*
G36*
X313242Y427952D02*
X313272Y427867D01*
X313323Y427792D01*
X313394Y427727D01*
X313485Y427672D01*
X313596Y427627D01*
X313728Y427592D01*
X313880Y427567D01*
X314052Y427552D01*
X314244Y427547D01*
Y426547D01*
X314052Y426542D01*
X313880Y426527D01*
X313728Y426502D01*
X313596Y426467D01*
X313485Y426422D01*
X313394Y426367D01*
X313323Y426302D01*
X313272Y426227D01*
X313242Y426142D01*
X313232Y426047D01*
Y428047D01*
X313242Y427952D01*
D02*
G37*
G36*
X311014Y415661D02*
X311057Y415450D01*
X311129Y415230D01*
X311229Y415003D01*
X311357Y414767D01*
X311514Y414524D01*
X311700Y414272D01*
X311915Y414012D01*
X312429Y413468D01*
X308571Y413468D01*
X308842Y413744D01*
X309300Y414272D01*
X309486Y414524D01*
X309643Y414767D01*
X309771Y415003D01*
X309871Y415230D01*
X309943Y415450D01*
X309986Y415661D01*
X310000Y415864D01*
X311000D01*
X311014Y415661D01*
D02*
G37*
G36*
X342158Y409256D02*
X341700Y408728D01*
X341514Y408476D01*
X341357Y408233D01*
X341229Y407997D01*
X341129Y407770D01*
X341057Y407550D01*
X341014Y407339D01*
X341000Y407136D01*
X340000D01*
X339986Y407339D01*
X339943Y407550D01*
X339871Y407770D01*
X339771Y407997D01*
X339643Y408233D01*
X339486Y408476D01*
X339300Y408728D01*
X339085Y408988D01*
X338571Y409532D01*
X342429D01*
X342158Y409256D01*
D02*
G37*
G36*
X194067Y421000D02*
X193307Y420960D01*
X192627Y420840D01*
X192027Y420640D01*
X191507Y420360D01*
X191067Y420000D01*
X190707Y419560D01*
X190427Y419040D01*
X190275Y418583D01*
X190302Y418441D01*
X190406Y418081D01*
X190528Y417801D01*
X190669Y417601D01*
X190829Y417481D01*
X191008Y417441D01*
X190090D01*
X190067Y417000D01*
X186067D01*
X186044Y417441D01*
X185126D01*
X185305Y417481D01*
X185465Y417601D01*
X185606Y417801D01*
X185728Y418081D01*
X185832Y418441D01*
X185859Y418583D01*
X185707Y419040D01*
X185427Y419560D01*
X185067Y420000D01*
X184627Y420360D01*
X184107Y420640D01*
X183507Y420840D01*
X182827Y420960D01*
X182067Y421000D01*
X188067Y425000D01*
X194067Y421000D01*
D02*
G37*
G36*
X236000Y416609D02*
X231866D01*
X231879Y416639D01*
X231890Y416703D01*
X231900Y416801D01*
X231922Y417301D01*
X231933Y418444D01*
X235933D01*
X236000Y416609D01*
D02*
G37*
G36*
X395055Y353729D02*
X398149Y351374D01*
X399062Y350584D01*
X399063Y350584D01*
X399063Y350583D01*
X399230Y350474D01*
X399809Y349979D01*
X401218Y349115D01*
X402745Y348483D01*
X404352Y348097D01*
X406000Y347968D01*
X407648Y348097D01*
X408011Y348185D01*
X408256Y347748D01*
X402038Y341530D01*
X391500D01*
X390586Y341410D01*
X389735Y341057D01*
X389256Y341320D01*
Y343547D01*
X386000D01*
Y340882D01*
X388693D01*
X388751Y340810D01*
X388889Y340382D01*
X378960Y330453D01*
X369573D01*
Y332081D01*
X377496Y340004D01*
X378057Y340735D01*
X378410Y341586D01*
X378530Y342500D01*
Y349681D01*
X378992Y349873D01*
X379744Y349121D01*
Y344787D01*
X381744D01*
Y344547D01*
X389256D01*
Y344787D01*
X391256D01*
Y350573D01*
X394655Y353972D01*
X395055Y353729D01*
D02*
G37*
G36*
X245280Y361025D02*
X227720D01*
Y377916D01*
X245280D01*
Y361025D01*
D02*
G37*
G36*
X401041Y352873D02*
X400057Y353724D01*
X396761Y356233D01*
X396098Y356636D01*
X395499Y356950D01*
X394965Y357174D01*
X394494Y357308D01*
X394451Y357313D01*
X394260Y357276D01*
X394045Y357217D01*
X393836Y357141D01*
X393635Y357047D01*
X393441Y356937D01*
X393253Y356810D01*
X393073Y356665D01*
X392900Y356504D01*
X392052Y357353D01*
X392213Y357526D01*
X392357Y357706D01*
X392484Y357893D01*
X392595Y358088D01*
X392688Y358289D01*
X392764Y358498D01*
X392824Y358713D01*
X392866Y358935D01*
X392892Y359165D01*
X392900Y359401D01*
X394100Y359753D01*
X394112Y359525D01*
X394148Y359321D01*
X394208Y359141D01*
X394292Y358985D01*
X394400Y358853D01*
X394532Y358745D01*
X394682Y358664D01*
X394961Y358745D01*
X395497Y358984D01*
X396069Y359319D01*
X396678Y359751D01*
X397324Y360278D01*
X398007Y360901D01*
X399482Y362435D01*
X400275Y363345D01*
X401041Y352873D01*
D02*
G37*
G36*
X387548Y367855D02*
X387563Y367683D01*
X387588Y367531D01*
X387623Y367399D01*
X387668Y367288D01*
X387723Y367197D01*
X387788Y367126D01*
X387863Y367075D01*
X387948Y367045D01*
X388043Y367035D01*
X386043D01*
X386138Y367045D01*
X386223Y367075D01*
X386298Y367126D01*
X386363Y367197D01*
X386418Y367288D01*
X386463Y367399D01*
X386498Y367531D01*
X386523Y367683D01*
X386538Y367855D01*
X386543Y368047D01*
X387543D01*
X387548Y367855D01*
D02*
G37*
G36*
X377821Y367345D02*
X378139Y367069D01*
X378217Y367016D01*
X378281Y366983D01*
X378330Y366969D01*
X378366Y366976D01*
X378387Y367002D01*
X378394Y367047D01*
Y364649D01*
X378387Y364790D01*
X378366Y364931D01*
X378330Y365073D01*
X378281Y365214D01*
X378217Y365356D01*
X378139Y365497D01*
X378047Y365638D01*
X377941Y365780D01*
X377821Y365921D01*
X377687Y366063D01*
Y367477D01*
X377821Y367345D01*
D02*
G37*
G36*
X194067Y349608D02*
X193307Y349568D01*
X192627Y349448D01*
X192027Y349248D01*
X191507Y348968D01*
X191067Y348608D01*
X190707Y348168D01*
X190427Y347648D01*
X190275Y347191D01*
X190302Y347049D01*
X190406Y346689D01*
X190528Y346409D01*
X190669Y346209D01*
X190829Y346089D01*
X191008Y346049D01*
X190090D01*
X190067Y345608D01*
X186067D01*
X186044Y346049D01*
X185126D01*
X185305Y346089D01*
X185465Y346209D01*
X185606Y346409D01*
X185728Y346689D01*
X185832Y347049D01*
X185859Y347191D01*
X185707Y347648D01*
X185427Y348168D01*
X185067Y348608D01*
X184627Y348968D01*
X184107Y349248D01*
X183507Y349448D01*
X182827Y349568D01*
X182067Y349608D01*
X188067Y353608D01*
X194067Y349608D01*
D02*
G37*
G36*
X236000Y345217D02*
X231866D01*
X231879Y345247D01*
X231890Y345311D01*
X231900Y345410D01*
X231922Y345909D01*
X231933Y347052D01*
X235933D01*
X236000Y345217D01*
D02*
G37*
G36*
X216585Y363290D02*
X216672Y363170D01*
X216749Y362970D01*
X216816Y362690D01*
X216872Y362330D01*
X216954Y361370D01*
X216995Y360090D01*
X217000Y359330D01*
X213000D01*
X212987Y360090D01*
X212884Y361370D01*
X212794Y361890D01*
X212678Y362330D01*
X212536Y362690D01*
X212369Y362970D01*
X212176Y363170D01*
X211957Y363290D01*
X211712Y363330D01*
X216488D01*
X216585Y363290D01*
D02*
G37*
G36*
X389092Y352697D02*
X388827Y352423D01*
X388416Y351945D01*
X388271Y351741D01*
X388165Y351560D01*
X388099Y351401D01*
X388072Y351266D01*
X388086Y351154D01*
X388139Y351065D01*
X388232Y351000D01*
X385956Y352094D01*
X386075Y352054D01*
X386205Y352042D01*
X386346Y352057D01*
X386499Y352101D01*
X386663Y352173D01*
X386838Y352274D01*
X387025Y352402D01*
X387223Y352558D01*
X387433Y352742D01*
X387653Y352955D01*
X389092Y352697D01*
D02*
G37*
G36*
X169671Y364329D02*
X169645Y364224D01*
X169622Y364049D01*
X169586Y363489D01*
X169547Y360864D01*
X165547D01*
X165394Y364364D01*
X169701D01*
X169671Y364329D01*
D02*
G37*
G36*
X282500Y366000D02*
X278500Y360000D01*
X278460Y360760D01*
X278340Y361440D01*
X278140Y362040D01*
X277860Y362560D01*
X277500Y363000D01*
X277060Y363360D01*
X276540Y363640D01*
X275940Y363840D01*
X275260Y363960D01*
X274500Y364000D01*
Y368000D01*
X275260Y368040D01*
X275940Y368160D01*
X276540Y368360D01*
X277060Y368640D01*
X277500Y369000D01*
X277860Y369440D01*
X278140Y369960D01*
X278340Y370560D01*
X278460Y371240D01*
X278500Y372000D01*
X282500Y366000D01*
D02*
G37*
G36*
X360382Y361993D02*
X360251Y361000D01*
X360447Y359512D01*
X361021Y358125D01*
X361935Y356935D01*
X362742Y356315D01*
Y355685D01*
X361935Y355065D01*
X361021Y353875D01*
X360447Y352488D01*
X360251Y351000D01*
X360447Y349512D01*
X361021Y348125D01*
X361935Y346935D01*
X363125Y346021D01*
X364512Y345447D01*
X366000Y345251D01*
X367488Y345447D01*
X368875Y346021D01*
X370065Y346935D01*
X370970Y348113D01*
X371007Y348118D01*
X371470Y348023D01*
Y343962D01*
X363547Y336039D01*
X363030Y335366D01*
X362829Y335376D01*
X362530Y335506D01*
Y338000D01*
X362410Y338914D01*
X362057Y339765D01*
X361496Y340496D01*
X341766Y360226D01*
X341762Y360257D01*
X341728Y360719D01*
X341727Y360832D01*
X341749Y361000D01*
X341618Y361993D01*
X341948Y362369D01*
X360052D01*
X360382Y361993D01*
D02*
G37*
G36*
X382756Y352106D02*
X382768Y349547D01*
X382759Y349715D01*
X382732Y349884D01*
X382689Y350053D01*
X382628Y350222D01*
X382551Y350391D01*
X382456Y350561D01*
X382345Y350731D01*
X382216Y350902D01*
X382070Y351073D01*
X381908Y351244D01*
Y352941D01*
X382756Y352106D01*
D02*
G37*
G36*
X322275Y350427D02*
X322124Y350255D01*
X321990Y350056D01*
X321871Y349832D01*
X321769Y349581D01*
X321683Y349304D01*
X321614Y349002D01*
X321561Y348673D01*
X321524Y348318D01*
X321500Y347530D01*
X318530Y350500D01*
X318937Y350504D01*
X319673Y350561D01*
X320002Y350614D01*
X320304Y350683D01*
X320581Y350769D01*
X320832Y350871D01*
X321056Y350990D01*
X321255Y351124D01*
X321427Y351275D01*
X322275Y350427D01*
D02*
G37*
G36*
X368703Y360596D02*
X368753Y359918D01*
X368799Y359616D01*
X368859Y359340D01*
X368934Y359088D01*
X369023Y358861D01*
X369126Y358660D01*
X369243Y358483D01*
X369375Y358332D01*
X368668Y357625D01*
X368517Y357757D01*
X368340Y357874D01*
X368139Y357977D01*
X367912Y358066D01*
X367660Y358141D01*
X367384Y358201D01*
X367082Y358247D01*
X366756Y358279D01*
X366027Y358300D01*
X368700Y360973D01*
X368703Y360596D01*
D02*
G37*
G36*
X338703D02*
X338753Y359918D01*
X338799Y359616D01*
X338859Y359340D01*
X338934Y359088D01*
X339023Y358861D01*
X339126Y358660D01*
X339243Y358483D01*
X339375Y358332D01*
X338668Y357625D01*
X338517Y357757D01*
X338340Y357874D01*
X338139Y357977D01*
X337912Y358066D01*
X337660Y358141D01*
X337384Y358201D01*
X337082Y358247D01*
X336755Y358279D01*
X336027Y358300D01*
X338700Y360973D01*
X338703Y360596D01*
D02*
G37*
G36*
X334072Y369110D02*
X333803Y369374D01*
X333289Y369819D01*
X333043Y370000D01*
X332804Y370152D01*
X332574Y370278D01*
X332350Y370375D01*
X332135Y370444D01*
X331927Y370486D01*
X331727Y370500D01*
Y371500D01*
X331927Y371514D01*
X332135Y371556D01*
X332350Y371625D01*
X332574Y371722D01*
X332804Y371848D01*
X333043Y372000D01*
X333289Y372181D01*
X333542Y372390D01*
X334072Y372890D01*
Y369110D01*
D02*
G37*
G36*
X244685Y355114D02*
X244600Y355083D01*
X244525Y355033D01*
X244460Y354962D01*
X244405Y354871D01*
X244359Y354760D01*
X244324Y354628D01*
X244300Y354476D01*
X244285Y354304D01*
X244280Y354112D01*
X243280D01*
X243274Y354304D01*
X243260Y354476D01*
X243234Y354628D01*
X243199Y354760D01*
X243155Y354871D01*
X243099Y354962D01*
X243035Y355033D01*
X242959Y355083D01*
X242875Y355114D01*
X242779Y355124D01*
X244779D01*
X244685Y355114D01*
D02*
G37*
G36*
X459243Y375338D02*
X460183Y374617D01*
X461278Y374163D01*
X462453Y374008D01*
X467244D01*
Y373787D01*
X469244D01*
Y373547D01*
X476756D01*
Y373787D01*
X478756D01*
Y374008D01*
X482461D01*
Y365595D01*
X481961Y365416D01*
X481039Y366540D01*
X479745Y367602D01*
X478268Y368391D01*
X476666Y368877D01*
X475500Y368992D01*
Y360500D01*
Y352008D01*
X476666Y352123D01*
X478268Y352609D01*
X479745Y353398D01*
X481039Y354461D01*
X481961Y355584D01*
X482461Y355405D01*
Y334880D01*
X479599Y332018D01*
X479532Y331959D01*
X479329Y331821D01*
X479049Y331674D01*
X478682Y331524D01*
X478224Y331382D01*
X477674Y331256D01*
X477074Y331159D01*
X475461Y331034D01*
X474585Y331026D01*
X474500Y331032D01*
X472852Y330903D01*
X471245Y330517D01*
X469718Y329885D01*
X468309Y329021D01*
X467052Y327948D01*
X465979Y326691D01*
X465115Y325282D01*
X464483Y323755D01*
X464097Y322148D01*
X463968Y320500D01*
X464097Y318852D01*
X464483Y317245D01*
X465115Y315718D01*
X465898Y314441D01*
X465503Y314129D01*
X459046Y320586D01*
X459047Y320602D01*
X459099Y320942D01*
X459190Y321299D01*
X459325Y321679D01*
X459511Y322084D01*
X459754Y322517D01*
X460058Y322975D01*
X460427Y323457D01*
X460864Y323961D01*
X461385Y324499D01*
X461448Y324552D01*
X462521Y325809D01*
X463384Y327218D01*
X464017Y328745D01*
X464403Y330352D01*
X464533Y332000D01*
X464403Y333648D01*
X464017Y335255D01*
X463384Y336782D01*
X462521Y338191D01*
X461448Y339448D01*
X460191Y340521D01*
X458782Y341385D01*
X457255Y342017D01*
X455648Y342403D01*
X454000Y342532D01*
X452352Y342403D01*
X450745Y342017D01*
X449218Y341385D01*
X447809Y340521D01*
X446552Y339448D01*
X445479Y338191D01*
X444616Y336782D01*
X443983Y335255D01*
X443597Y333648D01*
X443468Y332000D01*
X443597Y330352D01*
X443983Y328745D01*
X444616Y327218D01*
X445479Y325809D01*
X446552Y324552D01*
X446615Y324499D01*
X447136Y323961D01*
X447573Y323457D01*
X447942Y322975D01*
X448246Y322517D01*
X448489Y322084D01*
X448675Y321679D01*
X448810Y321299D01*
X448901Y320942D01*
X448953Y320602D01*
X448957Y320533D01*
Y318500D01*
X449129Y317195D01*
X449633Y315978D01*
X450434Y314934D01*
X475434Y289934D01*
X476150Y289385D01*
X475980Y288885D01*
X458276D01*
X457362Y288765D01*
X456510Y288412D01*
X455779Y287851D01*
X455218Y287120D01*
X454866Y286268D01*
X454745Y285355D01*
Y275832D01*
X454389Y275519D01*
X452095D01*
X451630Y275458D01*
X450748D01*
Y280433D01*
X441815D01*
Y283941D01*
X441643Y285246D01*
X441618Y285306D01*
Y286638D01*
X441632Y286744D01*
X441624Y286802D01*
X441630Y286860D01*
X441618Y287164D01*
Y289756D01*
X441519D01*
X441496Y290352D01*
Y293047D01*
X441324Y294353D01*
X440820Y295569D01*
X440019Y296613D01*
X413086Y323547D01*
X413313Y324027D01*
X413500Y324008D01*
Y332000D01*
X405508D01*
X405623Y330834D01*
X406109Y329231D01*
X406898Y327755D01*
X407961Y326461D01*
X408469Y326043D01*
X408290Y325543D01*
X398322D01*
X398322Y325543D01*
X397017Y325371D01*
X395801Y324868D01*
X394756Y324066D01*
X381833Y311143D01*
X356126D01*
X355222Y311626D01*
X354100Y311967D01*
X352933Y312082D01*
X351766Y311967D01*
X350644Y311626D01*
X349610Y311073D01*
X348704Y310330D01*
X347960Y309423D01*
X347407Y308389D01*
X347066Y307267D01*
X346952Y306100D01*
X346984Y305772D01*
X346957Y305567D01*
Y296500D01*
X313500D01*
X312195Y296328D01*
X310978Y295824D01*
X309934Y295023D01*
X309133Y293978D01*
X308629Y292762D01*
X308457Y291457D01*
Y289713D01*
X301831D01*
Y287713D01*
X301590D01*
Y283957D01*
Y280201D01*
X301831D01*
Y278201D01*
X301930D01*
X301953Y277605D01*
Y275858D01*
X302125Y274553D01*
X302400Y273889D01*
X302122Y273474D01*
X301051D01*
Y270454D01*
X304027D01*
Y270102D01*
X304224D01*
Y269454D01*
X301051D01*
Y268484D01*
X304224D01*
Y267484D01*
X301051D01*
Y266515D01*
X304224D01*
Y265515D01*
X301051D01*
Y264546D01*
X304224D01*
Y263898D01*
X304027D01*
Y263546D01*
X301051D01*
Y260526D01*
X304028D01*
Y258573D01*
X303580Y258063D01*
X299517Y254000D01*
X298693Y253282D01*
X298358Y253028D01*
X298050Y252820D01*
X297806Y252679D01*
X297636Y252598D01*
X297566Y252573D01*
X297447Y252563D01*
X297429Y252559D01*
X288382D01*
Y247567D01*
X288307Y247000D01*
Y233150D01*
X288479Y231844D01*
X288983Y230628D01*
X289784Y229584D01*
X296434Y222934D01*
X297478Y222132D01*
X298695Y221629D01*
X300000Y221457D01*
X409000D01*
X410305Y221629D01*
X411522Y222132D01*
X412566Y222934D01*
X413368Y223978D01*
X413871Y225195D01*
X414043Y226500D01*
Y285000D01*
X413871Y286305D01*
X413368Y287522D01*
X412566Y288566D01*
X411522Y289368D01*
X410305Y289871D01*
X409000Y290043D01*
X408543D01*
Y296533D01*
X408547Y296602D01*
X408599Y296942D01*
X408690Y297299D01*
X408825Y297679D01*
X409011Y298084D01*
X409254Y298517D01*
X409558Y298975D01*
X409927Y299457D01*
X410364Y299961D01*
X410885Y300499D01*
X410948Y300552D01*
X412021Y301809D01*
X412885Y303218D01*
X413517Y304745D01*
X413903Y306352D01*
X414005Y307656D01*
X414522Y307846D01*
X431410Y290958D01*
Y289756D01*
X431287D01*
Y287756D01*
X431047D01*
Y284000D01*
Y280244D01*
X431287D01*
Y278244D01*
X431720D01*
X431729Y278117D01*
Y275843D01*
X431900Y274538D01*
X432175Y273874D01*
X431897Y273458D01*
X430827D01*
Y270438D01*
X433803D01*
Y270087D01*
X434000D01*
Y269438D01*
X430827D01*
Y268469D01*
X434000D01*
Y267469D01*
X430827D01*
Y266500D01*
X434000D01*
Y265500D01*
X430827D01*
Y264531D01*
X434000D01*
Y263882D01*
X433803D01*
Y263531D01*
X430827D01*
Y260511D01*
X433803D01*
Y258557D01*
X433356Y258047D01*
X429293Y253984D01*
X428469Y253267D01*
X428133Y253012D01*
X427826Y252805D01*
X427582Y252663D01*
X427412Y252582D01*
X427342Y252557D01*
X427223Y252547D01*
X427205Y252544D01*
X418157D01*
Y247551D01*
X418083Y246985D01*
Y233134D01*
X418255Y231829D01*
X418758Y230612D01*
X419560Y229568D01*
X426210Y222919D01*
X427254Y222117D01*
X428470Y221613D01*
X429776Y221441D01*
X538776D01*
X540081Y221613D01*
X541297Y222117D01*
X541970Y222633D01*
X542470Y222387D01*
Y190530D01*
X534973D01*
X534794Y191030D01*
X535714Y191786D01*
X536895Y193225D01*
X537773Y194866D01*
X538313Y196648D01*
X538496Y198500D01*
X538313Y200353D01*
X537773Y202134D01*
X536895Y203776D01*
X535714Y205215D01*
X534275Y206395D01*
X532634Y207273D01*
X530853Y207813D01*
X529000Y207996D01*
X527147Y207813D01*
X525366Y207273D01*
X523725Y206395D01*
X522286Y205215D01*
X521105Y203776D01*
X520227Y202134D01*
X519687Y200353D01*
X519504Y198500D01*
X519687Y196648D01*
X520227Y194866D01*
X521105Y193225D01*
X522286Y191786D01*
X523206Y191030D01*
X523027Y190530D01*
X457153D01*
X456799Y190884D01*
Y199500D01*
X456799Y199999D01*
X457299Y200000D01*
X459465D01*
Y211999D01*
X343500D01*
Y200499D01*
X343500Y200000D01*
X343500Y199500D01*
Y190530D01*
X301973D01*
X301794Y191030D01*
X302714Y191786D01*
X303895Y193225D01*
X304773Y194866D01*
X305313Y196648D01*
X305496Y198500D01*
X305313Y200353D01*
X304773Y202134D01*
X303895Y203776D01*
X302714Y205215D01*
X301275Y206395D01*
X299634Y207273D01*
X297852Y207813D01*
X296000Y207996D01*
X294147Y207813D01*
X292366Y207273D01*
X290724Y206395D01*
X289285Y205215D01*
X288105Y203776D01*
X287227Y202134D01*
X286687Y200353D01*
X286504Y198500D01*
X286687Y196648D01*
X287227Y194866D01*
X288105Y193225D01*
X289285Y191786D01*
X290206Y191030D01*
X290027Y190530D01*
X239104D01*
X238934Y191030D01*
X239102Y191159D01*
X246276Y198333D01*
X246837Y199064D01*
X247189Y199915D01*
X247310Y200829D01*
Y209100D01*
X248280D01*
Y217580D01*
X248280D01*
X248251Y217613D01*
X248305Y218025D01*
Y221457D01*
X280500D01*
X281805Y221629D01*
X283022Y222132D01*
X284066Y222934D01*
X284868Y223978D01*
X285371Y225195D01*
X285543Y226500D01*
Y297000D01*
Y319940D01*
X286043Y320110D01*
X286434Y319601D01*
X299438Y306597D01*
X300479Y305477D01*
X300913Y304934D01*
X301114Y304646D01*
Y303398D01*
X301112Y303384D01*
X301114Y303369D01*
Y300147D01*
X313020D01*
Y312053D01*
X309797D01*
X309783Y312055D01*
X309769Y312053D01*
X308521D01*
X308267Y312230D01*
X306979Y313321D01*
X306959Y313340D01*
X295043Y325256D01*
Y331977D01*
X295543Y332277D01*
X296193Y331930D01*
X296884Y331720D01*
X297054Y331651D01*
X298288Y331327D01*
X298499Y331260D01*
X298898Y331110D01*
X311004Y319004D01*
X311735Y318443D01*
X312586Y318090D01*
X313500Y317970D01*
X340563D01*
X341477Y318090D01*
X342328Y318443D01*
X342464Y318547D01*
X383953D01*
Y325460D01*
X392962Y334470D01*
X403500D01*
X404414Y334590D01*
X405265Y334943D01*
X405358Y335014D01*
X405789Y334715D01*
X405623Y334166D01*
X405508Y333000D01*
X413500D01*
Y340992D01*
X412334Y340877D01*
X411934Y340756D01*
X411677Y341185D01*
X420996Y350504D01*
X421557Y351235D01*
X421910Y352086D01*
X422030Y353000D01*
Y368819D01*
X426264D01*
Y371000D01*
X426764D01*
Y371500D01*
X432095D01*
Y371819D01*
X434095D01*
Y372470D01*
X437000D01*
X437914Y372590D01*
X438765Y372943D01*
X439405Y373434D01*
X439905Y373288D01*
Y371819D01*
Y366819D01*
X444068D01*
X444142Y366319D01*
X442732Y365891D01*
X441255Y365102D01*
X439960Y364039D01*
X438898Y362745D01*
X438109Y361269D01*
X437623Y359666D01*
X437508Y358500D01*
X454492D01*
X454377Y359666D01*
X453891Y361269D01*
X453102Y362745D01*
X452039Y364039D01*
X450745Y365102D01*
X449268Y365891D01*
X447858Y366319D01*
X447932Y366819D01*
X454567D01*
Y371819D01*
Y376819D01*
Y379361D01*
X455029Y379553D01*
X459243Y375338D01*
D02*
G37*
G36*
X216486Y369013D02*
X216516Y368928D01*
X216567Y368853D01*
X216638Y368788D01*
X216729Y368733D01*
X216840Y368688D01*
X216972Y368653D01*
X217124Y368628D01*
X217296Y368613D01*
X217488Y368608D01*
Y367608D01*
X217296Y367603D01*
X217124Y367588D01*
X216972Y367563D01*
X216840Y367528D01*
X216729Y367483D01*
X216638Y367428D01*
X216567Y367363D01*
X216516Y367288D01*
X216486Y367203D01*
X216476Y367108D01*
Y369108D01*
X216486Y369013D01*
D02*
G37*
%LPC*%
G36*
X176618Y438000D02*
X173953D01*
Y434744D01*
X176618D01*
Y438000D01*
D02*
G37*
G36*
X477032Y236489D02*
X473776D01*
Y233823D01*
X477032D01*
Y236489D01*
D02*
G37*
G36*
X347256Y236504D02*
X344000D01*
Y233839D01*
X347256D01*
Y236504D01*
D02*
G37*
G36*
X343000D02*
X339744D01*
Y233839D01*
X343000D01*
Y236504D01*
D02*
G37*
G36*
X400964Y345500D02*
X398000D01*
Y342536D01*
X398414Y342590D01*
X399265Y342943D01*
X399996Y343504D01*
X400557Y344235D01*
X400910Y345086D01*
X400964Y345500D01*
D02*
G37*
G36*
X204400Y435260D02*
X201500D01*
Y433710D01*
X204400D01*
Y435260D01*
D02*
G37*
G36*
X422492Y332000D02*
X414500D01*
Y324008D01*
X415666Y324123D01*
X417269Y324609D01*
X418745Y325398D01*
X420040Y326461D01*
X421102Y327755D01*
X421891Y329231D01*
X422377Y330834D01*
X422492Y332000D01*
D02*
G37*
G36*
X339666Y350500D02*
X336500D01*
Y347334D01*
X336966Y347395D01*
X337866Y347768D01*
X338639Y348361D01*
X339232Y349134D01*
X339605Y350034D01*
X339666Y350500D01*
D02*
G37*
G36*
X443000Y315992D02*
X441834Y315877D01*
X440232Y315391D01*
X438755Y314602D01*
X437461Y313540D01*
X436398Y312245D01*
X435609Y310769D01*
X435123Y309166D01*
X435008Y308000D01*
X443000D01*
Y315992D01*
D02*
G37*
G36*
X444000D02*
Y308000D01*
X451992D01*
X451877Y309166D01*
X451391Y310769D01*
X450602Y312245D01*
X449540Y313540D01*
X448245Y314602D01*
X446769Y315391D01*
X445166Y315877D01*
X444000Y315992D01*
D02*
G37*
G36*
X410193Y411453D02*
X406937D01*
Y408000D01*
X410193D01*
Y411453D01*
D02*
G37*
G36*
X265000Y420000D02*
X257008D01*
X257123Y418834D01*
X257609Y417232D01*
X258398Y415755D01*
X259460Y414461D01*
X260755Y413398D01*
X262231Y412609D01*
X263834Y412123D01*
X265000Y412008D01*
Y420000D01*
D02*
G37*
G36*
X273992D02*
X266000D01*
Y412008D01*
X267166Y412123D01*
X268769Y412609D01*
X270245Y413398D01*
X271539Y414461D01*
X272602Y415755D01*
X273391Y417232D01*
X273877Y418834D01*
X273992Y420000D01*
D02*
G37*
G36*
X335500Y350500D02*
X332334D01*
X332395Y350034D01*
X332768Y349134D01*
X333361Y348361D01*
X334134Y347768D01*
X335034Y347395D01*
X335500Y347334D01*
Y350500D01*
D02*
G37*
G36*
X361547Y241500D02*
X358882D01*
Y238244D01*
X361547D01*
Y241500D01*
D02*
G37*
G36*
X491323Y241484D02*
X488658D01*
Y238229D01*
X491323D01*
Y241484D01*
D02*
G37*
G36*
X517000Y325700D02*
X514500D01*
Y319900D01*
X517000D01*
Y325700D01*
D02*
G37*
G36*
X398000Y349464D02*
Y346500D01*
X400964D01*
X400910Y346914D01*
X400557Y347765D01*
X399996Y348496D01*
X399265Y349057D01*
X398414Y349410D01*
X398000Y349464D01*
D02*
G37*
G36*
X397000D02*
X396586Y349410D01*
X395735Y349057D01*
X395004Y348496D01*
X394443Y347765D01*
X394090Y346914D01*
X394036Y346500D01*
X397000D01*
Y349464D01*
D02*
G37*
G36*
X513500Y325700D02*
X511000D01*
Y319900D01*
X513500D01*
Y325700D01*
D02*
G37*
G36*
X265000Y348608D02*
X257008D01*
X257123Y347442D01*
X257609Y345840D01*
X258398Y344363D01*
X259460Y343069D01*
X260755Y342006D01*
X262231Y341217D01*
X263834Y340731D01*
X265000Y340616D01*
Y348608D01*
D02*
G37*
G36*
X435000Y336464D02*
Y333500D01*
X437964D01*
X437910Y333914D01*
X437557Y334765D01*
X436996Y335496D01*
X436265Y336057D01*
X435414Y336410D01*
X435000Y336464D01*
D02*
G37*
G36*
X434000Y332500D02*
X431036D01*
X431090Y332086D01*
X431443Y331235D01*
X432004Y330504D01*
X432735Y329943D01*
X433586Y329590D01*
X434000Y329536D01*
Y332500D01*
D02*
G37*
G36*
X204400Y220868D02*
X201500D01*
Y219318D01*
X204400D01*
Y220868D01*
D02*
G37*
G36*
X188723Y223608D02*
X185500D01*
Y220386D01*
X185980Y220449D01*
X186894Y220827D01*
X187679Y221429D01*
X188281Y222214D01*
X188659Y223128D01*
X188723Y223608D01*
D02*
G37*
G36*
X184500D02*
X181278D01*
X181341Y223128D01*
X181719Y222214D01*
X182321Y221429D01*
X183106Y220827D01*
X184019Y220449D01*
X184500Y220386D01*
Y223608D01*
D02*
G37*
G36*
X176618Y223608D02*
X173953D01*
Y220352D01*
X176618D01*
Y223608D01*
D02*
G37*
G36*
X273992Y205608D02*
X266000D01*
Y197616D01*
X267166Y197731D01*
X268769Y198217D01*
X270245Y199006D01*
X271539Y200069D01*
X272602Y201363D01*
X273391Y202840D01*
X273877Y204442D01*
X273992Y205608D01*
D02*
G37*
G36*
X265000D02*
X257008D01*
X257123Y204442D01*
X257609Y202840D01*
X258398Y201363D01*
X259460Y200069D01*
X260755Y199006D01*
X262231Y198217D01*
X263834Y197731D01*
X265000Y197616D01*
Y205608D01*
D02*
G37*
G36*
X414500Y340992D02*
Y333000D01*
X422492D01*
X422377Y334166D01*
X421891Y335769D01*
X421102Y337245D01*
X420040Y338540D01*
X418745Y339602D01*
X417269Y340391D01*
X415666Y340877D01*
X414500Y340992D01*
D02*
G37*
G36*
X434000Y336464D02*
X433586Y336410D01*
X432735Y336057D01*
X432004Y335496D01*
X431443Y334765D01*
X431090Y333914D01*
X431036Y333500D01*
X434000D01*
Y336464D01*
D02*
G37*
G36*
X266000Y214600D02*
Y206608D01*
X273992D01*
X273877Y207774D01*
X273391Y209377D01*
X272602Y210853D01*
X271539Y212148D01*
X270245Y213210D01*
X268769Y213999D01*
X267166Y214485D01*
X266000Y214600D01*
D02*
G37*
G36*
X265000D02*
X263834Y214485D01*
X262231Y213999D01*
X260755Y213210D01*
X259460Y212148D01*
X258398Y210853D01*
X257609Y209377D01*
X257123Y207774D01*
X257008Y206608D01*
X265000D01*
Y214600D01*
D02*
G37*
G36*
X437964Y332500D02*
X435000D01*
Y329536D01*
X435414Y329590D01*
X436265Y329943D01*
X436996Y330504D01*
X437557Y331235D01*
X437910Y332086D01*
X437964Y332500D01*
D02*
G37*
G36*
X188723Y438000D02*
X185500D01*
Y434777D01*
X185980Y434841D01*
X186894Y435219D01*
X187679Y435821D01*
X188281Y436606D01*
X188659Y437520D01*
X188723Y438000D01*
D02*
G37*
G36*
X397000Y345500D02*
X394036D01*
X394090Y345086D01*
X394443Y344235D01*
X395004Y343504D01*
X395735Y342943D01*
X396586Y342590D01*
X397000Y342536D01*
Y345500D01*
D02*
G37*
G36*
X176618Y442256D02*
X173953D01*
Y439000D01*
X176618D01*
Y442256D01*
D02*
G37*
G36*
X184500Y438000D02*
X181278D01*
X181341Y437520D01*
X181719Y436606D01*
X182321Y435821D01*
X183106Y435219D01*
X184019Y434841D01*
X184500Y434777D01*
Y438000D01*
D02*
G37*
G36*
X472776Y236489D02*
X469520D01*
Y233823D01*
X472776D01*
Y236489D01*
D02*
G37*
G36*
X336618Y236457D02*
X333953D01*
Y233201D01*
X336618D01*
Y236457D01*
D02*
G37*
G36*
X466394Y236441D02*
X463728D01*
Y233185D01*
X466394D01*
Y236441D01*
D02*
G37*
G36*
X185500Y442222D02*
Y439000D01*
X188723D01*
X188659Y439480D01*
X188281Y440394D01*
X187679Y441179D01*
X186894Y441781D01*
X185980Y442159D01*
X185500Y442222D01*
D02*
G37*
G36*
X385000Y343547D02*
X381744D01*
Y340882D01*
X385000D01*
Y343547D01*
D02*
G37*
G36*
X273992Y348608D02*
X266000D01*
Y340616D01*
X267166Y340731D01*
X268769Y341217D01*
X270245Y342006D01*
X271539Y343069D01*
X272602Y344363D01*
X273391Y345840D01*
X273877Y347442D01*
X273992Y348608D01*
D02*
G37*
G36*
X176618Y227864D02*
X173953D01*
Y224608D01*
X176618D01*
Y227864D01*
D02*
G37*
G36*
X184500Y442222D02*
X184019Y442159D01*
X183106Y441781D01*
X182321Y441179D01*
X181719Y440394D01*
X181341Y439480D01*
X181278Y439000D01*
X184500D01*
Y442222D01*
D02*
G37*
G36*
X185500Y227831D02*
Y224608D01*
X188723D01*
X188659Y225089D01*
X188281Y226002D01*
X187679Y226787D01*
X186894Y227389D01*
X185980Y227767D01*
X185500Y227831D01*
D02*
G37*
G36*
X184500D02*
X184019Y227767D01*
X183106Y227389D01*
X182321Y226787D01*
X181719Y226002D01*
X181341Y225089D01*
X181278Y224608D01*
X184500D01*
Y227831D01*
D02*
G37*
G36*
X445500Y357500D02*
X437508D01*
X437623Y356334D01*
X438109Y354731D01*
X438898Y353255D01*
X439960Y351960D01*
X441255Y350898D01*
X442732Y350109D01*
X444334Y349623D01*
X445500Y349508D01*
Y357500D01*
D02*
G37*
G36*
X474500Y368992D02*
X473334Y368877D01*
X471732Y368391D01*
X470255Y367602D01*
X468961Y366540D01*
X467898Y365245D01*
X467109Y363769D01*
X466623Y362166D01*
X466508Y361000D01*
X474500D01*
Y368992D01*
D02*
G37*
G36*
X273992Y277108D02*
X266000D01*
Y269116D01*
X267166Y269231D01*
X268769Y269717D01*
X270245Y270507D01*
X271539Y271569D01*
X272602Y272863D01*
X273391Y274340D01*
X273877Y275942D01*
X273992Y277108D01*
D02*
G37*
G36*
X265000D02*
X257008D01*
X257123Y275942D01*
X257609Y274340D01*
X258398Y272863D01*
X259460Y271569D01*
X260755Y270507D01*
X262231Y269717D01*
X263834Y269231D01*
X265000Y269116D01*
Y277108D01*
D02*
G37*
G36*
X204400Y363868D02*
X201500D01*
Y362318D01*
X204400D01*
Y363868D01*
D02*
G37*
G36*
X300590Y287713D02*
X297925D01*
Y284457D01*
X300590D01*
Y287713D01*
D02*
G37*
G36*
X430047Y287756D02*
X427382D01*
Y284500D01*
X430047D01*
Y287756D01*
D02*
G37*
G36*
X204400Y292368D02*
X201500D01*
Y290818D01*
X204400D01*
Y292368D01*
D02*
G37*
G36*
X351193Y265953D02*
X347937D01*
Y262500D01*
X351193D01*
Y265953D01*
D02*
G37*
G36*
X480969Y265937D02*
X477713D01*
Y262485D01*
X480969D01*
Y265937D01*
D02*
G37*
G36*
X176618Y299364D02*
X173953D01*
Y296108D01*
X176618D01*
Y299364D01*
D02*
G37*
G36*
Y295108D02*
X173953D01*
Y291852D01*
X176618D01*
Y295108D01*
D02*
G37*
G36*
X184500Y295108D02*
X181278D01*
X181341Y294628D01*
X181719Y293714D01*
X182321Y292929D01*
X183106Y292327D01*
X184019Y291949D01*
X184500Y291886D01*
Y295108D01*
D02*
G37*
G36*
X188723D02*
X185500D01*
Y291886D01*
X185980Y291949D01*
X186894Y292327D01*
X187679Y292929D01*
X188281Y293714D01*
X188659Y294628D01*
X188723Y295108D01*
D02*
G37*
G36*
X185500Y370831D02*
Y367608D01*
X188723D01*
X188659Y368089D01*
X188281Y369002D01*
X187679Y369787D01*
X186894Y370389D01*
X185980Y370767D01*
X185500Y370831D01*
D02*
G37*
G36*
X472500Y372547D02*
X469244D01*
Y369882D01*
X472500D01*
Y372547D01*
D02*
G37*
G36*
X476756D02*
X473500D01*
Y369882D01*
X476756D01*
Y372547D01*
D02*
G37*
G36*
X265000Y286100D02*
X263834Y285985D01*
X262231Y285499D01*
X260755Y284710D01*
X259460Y283648D01*
X258398Y282353D01*
X257609Y280877D01*
X257123Y279274D01*
X257008Y278108D01*
X265000D01*
Y286100D01*
D02*
G37*
G36*
X266000D02*
Y278108D01*
X273992D01*
X273877Y279274D01*
X273391Y280877D01*
X272602Y282353D01*
X271539Y283648D01*
X270245Y284710D01*
X268769Y285499D01*
X267166Y285985D01*
X266000Y286100D01*
D02*
G37*
G36*
X432095Y370500D02*
X427264D01*
Y368819D01*
X432095D01*
Y370500D01*
D02*
G37*
G36*
X184500Y370831D02*
X184019Y370767D01*
X183106Y370389D01*
X182321Y369787D01*
X181719Y369002D01*
X181341Y368089D01*
X181278Y367608D01*
X184500D01*
Y370831D01*
D02*
G37*
G36*
X188723Y366608D02*
X185500D01*
Y363386D01*
X185980Y363449D01*
X186894Y363827D01*
X187679Y364429D01*
X188281Y365214D01*
X188659Y366128D01*
X188723Y366608D01*
D02*
G37*
G36*
X184500D02*
X181278D01*
X181341Y366128D01*
X181719Y365214D01*
X182321Y364429D01*
X183106Y363827D01*
X184019Y363449D01*
X184500Y363386D01*
Y366608D01*
D02*
G37*
G36*
X176618Y366608D02*
X173953D01*
Y363352D01*
X176618D01*
Y366608D01*
D02*
G37*
G36*
Y370864D02*
X173953D01*
Y367608D01*
X176618D01*
Y370864D01*
D02*
G37*
G36*
X300590Y283457D02*
X297925D01*
Y280201D01*
X300590D01*
Y283457D01*
D02*
G37*
G36*
X430047Y283500D02*
X427382D01*
Y280244D01*
X430047D01*
Y283500D01*
D02*
G37*
G36*
X184500Y299331D02*
X184019Y299267D01*
X183106Y298889D01*
X182321Y298287D01*
X181719Y297502D01*
X181341Y296589D01*
X181278Y296108D01*
X184500D01*
Y299331D01*
D02*
G37*
G36*
X497740Y257485D02*
X494776D01*
Y254520D01*
X495189Y254575D01*
X496041Y254927D01*
X496772Y255488D01*
X497333Y256219D01*
X497685Y257071D01*
X497740Y257485D01*
D02*
G37*
G36*
X493776D02*
X490811D01*
X490866Y257071D01*
X491218Y256219D01*
X491779Y255488D01*
X492511Y254927D01*
X493362Y254575D01*
X493776Y254520D01*
Y257485D01*
D02*
G37*
G36*
X443000Y307000D02*
X435008D01*
X435123Y305834D01*
X435609Y304231D01*
X436398Y302755D01*
X437461Y301461D01*
X438755Y300398D01*
X440232Y299609D01*
X441834Y299123D01*
X443000Y299008D01*
Y307000D01*
D02*
G37*
G36*
X474500Y360000D02*
X466508D01*
X466623Y358834D01*
X467109Y357231D01*
X467898Y355755D01*
X468961Y354461D01*
X470255Y353398D01*
X471732Y352609D01*
X473334Y352123D01*
X474500Y352008D01*
Y360000D01*
D02*
G37*
G36*
X367964Y257500D02*
X365000D01*
Y254536D01*
X365414Y254590D01*
X366265Y254943D01*
X366996Y255504D01*
X367557Y256235D01*
X367910Y257086D01*
X367964Y257500D01*
D02*
G37*
G36*
X364000D02*
X361036D01*
X361090Y257086D01*
X361443Y256235D01*
X362004Y255504D01*
X362735Y254943D01*
X363586Y254590D01*
X364000Y254536D01*
Y257500D01*
D02*
G37*
G36*
X451992Y307000D02*
X444000D01*
Y299008D01*
X445166Y299123D01*
X446769Y299609D01*
X448245Y300398D01*
X449540Y301461D01*
X450602Y302755D01*
X451391Y304231D01*
X451877Y305834D01*
X451992Y307000D01*
D02*
G37*
G36*
X454492Y357500D02*
X446500D01*
Y349508D01*
X447666Y349623D01*
X449268Y350109D01*
X450745Y350898D01*
X452039Y351960D01*
X453102Y353255D01*
X453891Y354731D01*
X454377Y356334D01*
X454492Y357500D01*
D02*
G37*
G36*
X361547Y245756D02*
X358882D01*
Y242500D01*
X361547D01*
Y245756D01*
D02*
G37*
G36*
X491323Y245740D02*
X488658D01*
Y242484D01*
X491323D01*
Y245740D01*
D02*
G37*
G36*
X410193Y407000D02*
X406937D01*
Y403547D01*
X410193D01*
Y407000D01*
D02*
G37*
G36*
X266000Y357600D02*
Y349608D01*
X273992D01*
X273877Y350774D01*
X273391Y352377D01*
X272602Y353853D01*
X271539Y355148D01*
X270245Y356210D01*
X268769Y356999D01*
X267166Y357485D01*
X266000Y357600D01*
D02*
G37*
G36*
X265000D02*
X263834Y357485D01*
X262231Y356999D01*
X260755Y356210D01*
X259460Y355148D01*
X258398Y353853D01*
X257609Y352377D01*
X257123Y350774D01*
X257008Y349608D01*
X265000D01*
Y357600D01*
D02*
G37*
G36*
X372000Y401000D02*
X369036D01*
X369090Y400586D01*
X369443Y399735D01*
X370004Y399004D01*
X370735Y398443D01*
X371586Y398090D01*
X372000Y398036D01*
Y401000D01*
D02*
G37*
G36*
X375964D02*
X373000D01*
Y398036D01*
X373414Y398090D01*
X374265Y398443D01*
X374996Y399004D01*
X375557Y399735D01*
X375910Y400586D01*
X375964Y401000D01*
D02*
G37*
G36*
X365000Y261464D02*
Y258500D01*
X367964D01*
X367910Y258914D01*
X367557Y259765D01*
X366996Y260496D01*
X366265Y261057D01*
X365414Y261410D01*
X365000Y261464D01*
D02*
G37*
G36*
X379300Y395100D02*
X374900D01*
Y393500D01*
X379300D01*
Y395100D01*
D02*
G37*
G36*
X384700D02*
X380300D01*
Y393500D01*
X384700D01*
Y395100D01*
D02*
G37*
G36*
X185500Y299331D02*
Y296108D01*
X188723D01*
X188659Y296589D01*
X188281Y297502D01*
X187679Y298287D01*
X186894Y298889D01*
X185980Y299267D01*
X185500Y299331D01*
D02*
G37*
G36*
X364000Y261464D02*
X363586Y261410D01*
X362735Y261057D01*
X362004Y260496D01*
X361443Y259765D01*
X361090Y258914D01*
X361036Y258500D01*
X364000D01*
Y261464D01*
D02*
G37*
G36*
X480969Y261485D02*
X477713D01*
Y258032D01*
X480969D01*
Y261485D01*
D02*
G37*
G36*
X359000Y401118D02*
X355744D01*
Y398453D01*
X359000D01*
Y401118D01*
D02*
G37*
G36*
X363256D02*
X360000D01*
Y398453D01*
X363256D01*
Y401118D01*
D02*
G37*
G36*
X494776Y261449D02*
Y258485D01*
X497740D01*
X497685Y258898D01*
X497333Y259750D01*
X496772Y260481D01*
X496041Y261042D01*
X495189Y261394D01*
X494776Y261449D01*
D02*
G37*
G36*
X493776D02*
X493362Y261394D01*
X492511Y261042D01*
X491779Y260481D01*
X491218Y259750D01*
X490866Y258898D01*
X490811Y258485D01*
X493776D01*
Y261449D01*
D02*
G37*
G36*
X351193Y261500D02*
X347937D01*
Y258047D01*
X351193D01*
Y261500D01*
D02*
G37*
%LPD*%
D10*
X204900Y443240D02*
D03*
Y439500D02*
D03*
Y435760D02*
D03*
X214100D02*
D03*
Y439500D02*
D03*
Y443240D02*
D03*
X204900Y371848D02*
D03*
Y368108D02*
D03*
Y364368D02*
D03*
X214100D02*
D03*
Y368108D02*
D03*
Y371848D02*
D03*
X204900Y300348D02*
D03*
Y296608D02*
D03*
Y292868D02*
D03*
X214100D02*
D03*
Y296608D02*
D03*
Y300348D02*
D03*
X204900Y228848D02*
D03*
Y225108D02*
D03*
Y221368D02*
D03*
X214100D02*
D03*
Y225108D02*
D03*
Y228848D02*
D03*
D11*
X447236Y386000D02*
D03*
Y381000D02*
D03*
Y376000D02*
D03*
Y371000D02*
D03*
X426764D02*
D03*
Y376000D02*
D03*
Y381000D02*
D03*
Y386000D02*
D03*
D12*
X359500Y392047D02*
D03*
Y397953D02*
D03*
X473000Y378953D02*
D03*
Y373047D02*
D03*
X385500Y349953D02*
D03*
Y344047D02*
D03*
X310500Y427047D02*
D03*
Y432953D02*
D03*
X512776Y242437D02*
D03*
Y236532D02*
D03*
X383000Y242453D02*
D03*
Y236547D02*
D03*
X469776Y277894D02*
D03*
Y271989D02*
D03*
X340000Y277909D02*
D03*
Y272004D02*
D03*
X489276Y271989D02*
D03*
Y277894D02*
D03*
X359500Y272004D02*
D03*
Y277909D02*
D03*
X473276Y236988D02*
D03*
Y242894D02*
D03*
X343500Y237004D02*
D03*
Y242910D02*
D03*
D13*
X502453Y301500D02*
D03*
X496547D02*
D03*
X173453Y438500D02*
D03*
X167547D02*
D03*
X173453Y367108D02*
D03*
X167547D02*
D03*
X173453Y295608D02*
D03*
X167547D02*
D03*
X173453Y224108D02*
D03*
X167547D02*
D03*
X441323Y236984D02*
D03*
X447228D02*
D03*
X311547Y237000D02*
D03*
X317453D02*
D03*
X436453Y284000D02*
D03*
X430547D02*
D03*
X306996Y283957D02*
D03*
X301091D02*
D03*
X497728Y241985D02*
D03*
X491823D02*
D03*
X367953Y242000D02*
D03*
X362047D02*
D03*
X457323Y236941D02*
D03*
X463228D02*
D03*
X327547Y236957D02*
D03*
X333453D02*
D03*
D14*
X399200Y378000D02*
D03*
Y383000D02*
D03*
Y388000D02*
D03*
Y393000D02*
D03*
X379800D02*
D03*
Y388000D02*
D03*
Y383000D02*
D03*
Y378000D02*
D03*
D15*
X514000Y319400D02*
D03*
X524000D02*
D03*
X534000D02*
D03*
D16*
X524000Y352600D02*
D03*
D17*
X229000Y449268D02*
D03*
X234000D02*
D03*
X239000D02*
D03*
X244000D02*
D03*
Y427732D02*
D03*
X239000D02*
D03*
X234000D02*
D03*
X229000D02*
D03*
Y377876D02*
D03*
X234000D02*
D03*
X239000D02*
D03*
X244000D02*
D03*
Y356340D02*
D03*
X239000D02*
D03*
X234000D02*
D03*
X229000D02*
D03*
Y306376D02*
D03*
X234000D02*
D03*
X239000D02*
D03*
X244000D02*
D03*
Y284840D02*
D03*
X239000D02*
D03*
X234000D02*
D03*
X229000D02*
D03*
Y234876D02*
D03*
X234000D02*
D03*
X239000D02*
D03*
X244000D02*
D03*
Y213340D02*
D03*
X239000D02*
D03*
X234000D02*
D03*
X229000D02*
D03*
D18*
X442276Y266985D02*
D03*
X312500Y267000D02*
D03*
D19*
X450551Y271907D02*
D03*
Y269938D02*
D03*
Y267969D02*
D03*
Y266000D02*
D03*
Y264031D02*
D03*
Y262062D02*
D03*
X434000D02*
D03*
Y264031D02*
D03*
Y266000D02*
D03*
Y267969D02*
D03*
Y269938D02*
D03*
Y271907D02*
D03*
X320776Y271922D02*
D03*
Y269953D02*
D03*
Y267985D02*
D03*
Y266016D02*
D03*
Y264047D02*
D03*
Y262077D02*
D03*
X304224D02*
D03*
Y264047D02*
D03*
Y266016D02*
D03*
Y267985D02*
D03*
Y269953D02*
D03*
Y271922D02*
D03*
D20*
X447197Y258709D02*
D03*
X445228D02*
D03*
X443260D02*
D03*
X441291D02*
D03*
X439323D02*
D03*
X437354D02*
D03*
Y275260D02*
D03*
X439323D02*
D03*
X441291D02*
D03*
X443260D02*
D03*
X445228D02*
D03*
X447197D02*
D03*
X317421Y258724D02*
D03*
X315453D02*
D03*
X313484D02*
D03*
X311516D02*
D03*
X309547D02*
D03*
X307579D02*
D03*
Y275276D02*
D03*
X309547D02*
D03*
X311516D02*
D03*
X313484D02*
D03*
X315453D02*
D03*
X317421D02*
D03*
D21*
X386650Y364500D02*
D03*
X380350D02*
D03*
X423126Y246985D02*
D03*
X429425D02*
D03*
X293350Y247000D02*
D03*
X299650D02*
D03*
D22*
X412500Y382563D02*
D03*
Y390437D02*
D03*
X330000Y426063D02*
D03*
Y433937D02*
D03*
X524819Y243378D02*
D03*
Y235504D02*
D03*
X395043Y243394D02*
D03*
Y235520D02*
D03*
X506276Y278378D02*
D03*
Y270504D02*
D03*
X376500Y278394D02*
D03*
Y270520D02*
D03*
X524776Y279878D02*
D03*
Y272004D02*
D03*
X395000Y279894D02*
D03*
Y272020D02*
D03*
X524819Y260878D02*
D03*
Y253004D02*
D03*
X395043Y260894D02*
D03*
Y253020D02*
D03*
D23*
X343563Y333500D02*
D03*
X351437D02*
D03*
X440937Y397500D02*
D03*
X433063D02*
D03*
X342937Y393500D02*
D03*
X335063D02*
D03*
X351437Y324500D02*
D03*
X343563D02*
D03*
X451063Y396000D02*
D03*
X458937D02*
D03*
X450563Y406500D02*
D03*
X458437D02*
D03*
X398563Y407500D02*
D03*
X406437D02*
D03*
X366437Y324500D02*
D03*
X358563D02*
D03*
X469339Y261984D02*
D03*
X477213D02*
D03*
X339563Y262000D02*
D03*
X347437D02*
D03*
D24*
X454469Y264031D02*
X457500Y261000D01*
X450551Y264031D02*
X454469D01*
X434000Y269938D02*
Y271907D01*
Y262062D02*
Y264031D01*
X324954Y264047D02*
X328000Y261000D01*
X320776Y264047D02*
X324954D01*
X304224Y269953D02*
Y271922D01*
Y262077D02*
Y264047D01*
X204900Y435760D02*
Y438440D01*
Y364368D02*
Y367048D01*
Y292868D02*
Y295548D01*
Y221368D02*
Y224048D01*
X488500Y301500D02*
X496537D01*
X393500Y271504D02*
X395000Y273004D01*
X523276Y271488D02*
X524776Y272989D01*
D25*
X167547Y289364D02*
Y295608D01*
Y289364D02*
X176803Y280108D01*
X188067D01*
X167547Y295608D02*
Y308155D01*
X185000Y325608D01*
X188067Y271608D02*
Y280108D01*
X212500D01*
X215000Y282608D01*
Y292108D01*
X185000Y325608D02*
X258000D01*
X266000Y317608D01*
X233933Y271608D02*
Y284458D01*
X229000Y284840D02*
X234000D01*
X233933Y284458D02*
X234000Y284525D01*
Y284840D02*
X239000D01*
Y306376D02*
X244000D01*
X234000D02*
X239000D01*
X229000D02*
X234000D01*
X215126Y301374D02*
X220128Y306376D01*
X229000D01*
X352000Y291500D02*
Y305567D01*
X313500Y291457D02*
X352000D01*
X313500Y283957D02*
Y291457D01*
X307587Y283957D02*
X313500D01*
X383043Y253413D02*
X395043D01*
X502453Y301500D02*
X516500D01*
X516500Y301500D02*
X534000D01*
X474000Y442500D02*
Y467000D01*
X473500Y467500D02*
X474000Y467000D01*
X516500Y293500D02*
Y301500D01*
X243500Y434500D02*
X280500D01*
Y441000D02*
X307000Y467500D01*
X373500D01*
X185000Y254108D02*
X258000D01*
X266000Y246108D01*
X167547Y217864D02*
Y224108D01*
X176803Y208608D02*
X188067D01*
X167547Y217864D02*
X176803Y208608D01*
X188067Y200108D02*
Y208608D01*
X212500D01*
X215000Y211108D01*
Y220608D01*
X215126Y229874D02*
X220128Y234876D01*
X229000D01*
X234000D01*
X239000D01*
X244000D01*
X234000Y213340D02*
X239000D01*
X233933Y212958D02*
X234000Y213025D01*
X229000Y213340D02*
X234000D01*
X233933Y200108D02*
Y212958D01*
X167547Y224108D02*
Y236655D01*
X185000Y254108D01*
X242000Y366000D02*
X280500D01*
Y297000D02*
Y366000D01*
Y434500D01*
Y441000D01*
X240000Y297000D02*
X280500D01*
Y226500D02*
Y297000D01*
X241500Y226500D02*
X280500D01*
X304500Y442500D02*
X474000D01*
X383000Y242453D02*
Y253413D01*
X367953Y242453D02*
X383000D01*
X403500Y285000D02*
Y308000D01*
X367953Y226500D02*
Y241000D01*
X309547Y256898D02*
Y258724D01*
X300000Y226500D02*
X367953D01*
X293350Y233150D02*
X300000Y226500D01*
X293350Y233150D02*
Y247000D01*
X301547D02*
X311547Y237000D01*
X300598Y247949D02*
X309547Y256898D01*
X367953Y226500D02*
X409000D01*
Y285000D01*
X403500D02*
X409000D01*
X306996Y275858D02*
X307579Y275276D01*
X306996Y275858D02*
Y283957D01*
X307579Y275276D02*
X309547D01*
X311516D01*
X352933Y306100D02*
X383922D01*
X398322Y320500D01*
X436453Y284000D02*
Y293047D01*
X409000Y320500D02*
X436453Y293047D01*
X400992Y320500D02*
X406331D01*
X398322D02*
X400992D01*
X406331D02*
X409000D01*
X534000Y301000D02*
Y317900D01*
Y301000D02*
X538776Y296224D01*
Y226484D02*
Y296224D01*
X454000Y318500D02*
Y332000D01*
Y318500D02*
X479000Y293500D01*
X516500D01*
X290000Y323167D02*
X307067Y306100D01*
X290000Y323167D02*
Y428000D01*
X304500Y442500D01*
X185000Y397108D02*
X258000D01*
X266000Y389108D01*
X167547Y360864D02*
Y367108D01*
X176803Y351608D02*
X188067D01*
X167547Y360864D02*
X176803Y351608D01*
X188067Y343108D02*
Y351608D01*
X212500D01*
X215000Y354108D01*
Y363608D01*
X215126Y372874D02*
X220128Y377876D01*
X229000D01*
X234000D01*
X239000D01*
X244000D01*
X234000Y356340D02*
X239000D01*
X233933Y343108D02*
Y355958D01*
X229000Y356340D02*
X234000D01*
X233933Y355958D02*
X234000Y356025D01*
X167547Y367108D02*
Y379655D01*
X185000Y397108D01*
Y468500D02*
X258000D01*
X266000Y460500D01*
X167547Y432256D02*
Y438500D01*
X176803Y423000D02*
X188067D01*
X167547Y432256D02*
X176803Y423000D01*
X188067Y414500D02*
Y423000D01*
X212500D01*
X215000Y425500D01*
Y435000D01*
X215126Y444266D02*
X220128Y449268D01*
X229000D01*
X234000D01*
X239000D01*
X244000D01*
X234000Y427732D02*
X239000D01*
X233933Y414500D02*
Y427350D01*
X229000Y427732D02*
X234000D01*
X233933Y427350D02*
X234000Y427417D01*
X167547Y438500D02*
Y451047D01*
X185000Y468500D01*
X497728Y242437D02*
X512776D01*
X431323Y246985D02*
X441323Y236984D01*
X497728Y226484D02*
X538776D01*
X497728D02*
Y240985D01*
X429776Y226484D02*
X497728D01*
X423126Y233134D02*
Y246985D01*
Y233134D02*
X429776Y226484D01*
X512819Y253398D02*
X524819D01*
X512776Y242437D02*
Y253398D01*
X437354Y275260D02*
X441291D01*
X436772Y275843D02*
X437354Y275260D01*
X436772Y275843D02*
Y283941D01*
X439323Y256882D02*
Y258709D01*
X430374Y247933D02*
X439323Y256882D01*
D26*
X218760Y296608D02*
X224220Y291147D01*
Y272195D02*
X231260Y265155D01*
X224220Y272195D02*
Y291147D01*
X214100Y296608D02*
X218760D01*
X231260Y265155D02*
X236606D01*
X243779Y272329D01*
Y284620D01*
X244000Y284840D01*
X366043Y324500D02*
Y333543D01*
X365453Y324500D02*
Y324500D01*
X358957D02*
X359547D01*
X350453D02*
X358957D01*
X366043Y333543D02*
X375000Y342500D01*
X327000Y371000D02*
X336000D01*
X327000D02*
Y393500D01*
X327000Y393500D01*
X334957D01*
X310500Y411500D02*
Y427047D01*
X352500Y305667D02*
X352933Y306100D01*
X317500Y237543D02*
Y253000D01*
Y237543D02*
X318087Y236957D01*
X326957Y236957D02*
Y241500D01*
X359500Y272413D02*
X360457Y271457D01*
Y270457D02*
X376500D01*
X333500Y270000D02*
X334957Y271457D01*
X339957D01*
Y272457D02*
X340000Y272413D01*
X340000Y272413D02*
X340457Y271957D01*
Y270957D02*
X349500D01*
Y278457D01*
X349543Y278500D02*
X359500D01*
X320878Y265913D02*
X335650D01*
X322319Y272005D02*
X324613D01*
X324661Y271957D01*
X328500D01*
Y285370D01*
X366000Y361000D02*
X375000Y352000D01*
X433457Y391543D02*
Y397500D01*
Y391543D02*
X437000Y388000D01*
Y376000D02*
Y388000D01*
X426764Y376000D02*
X437000D01*
X450957Y396500D02*
Y406500D01*
Y396500D02*
X451457Y396000D01*
X432500Y406500D02*
X450957D01*
X426764Y400764D02*
X432500Y406500D01*
X426764Y386000D02*
Y400764D01*
Y381000D02*
Y386000D01*
X458043Y406500D02*
X471500D01*
X474000Y404000D01*
X459043Y395500D02*
X485399D01*
X458543Y396000D02*
X459043Y395500D01*
X341024Y432976D02*
X366500Y407500D01*
X398957D01*
X398957Y407500D01*
X375000Y342500D02*
Y352000D01*
X358957Y324500D02*
X359000Y324543D01*
X398957Y393243D02*
Y407500D01*
Y393243D02*
X399200Y393000D01*
Y383000D02*
X412457D01*
X412500Y382957D01*
X418500Y376000D02*
X426764D01*
X366000Y371000D02*
X373457D01*
X379957Y364500D01*
X387043D02*
Y370757D01*
X379800Y378000D02*
X387043Y370757D01*
X342543Y387457D02*
Y393500D01*
Y387457D02*
X353000Y377000D01*
Y371000D02*
Y377000D01*
Y371000D02*
X366000D01*
X310500Y427047D02*
X328410D01*
X328410Y427047D01*
X310500Y432953D02*
X341024D01*
X327000Y327500D02*
X333000Y333500D01*
X344547D01*
X336000Y361000D02*
X359000Y338000D01*
Y324543D02*
Y338000D01*
X322322Y269957D02*
X333500D01*
X322319Y269953D02*
X322322Y269957D01*
X312835Y258500D02*
X313559Y259224D01*
X317421Y258724D02*
X317753D01*
X309547D02*
X311516D01*
X313484D01*
X224220Y200695D02*
Y219647D01*
Y200695D02*
X231260Y193655D01*
X218760Y225108D02*
X224220Y219647D01*
X214100Y225108D02*
X218760D01*
X231260Y193655D02*
X236606D01*
X243779Y200829D01*
Y213120D01*
X244000Y213340D01*
X340000Y278500D02*
Y283000D01*
X376500D01*
Y278000D02*
Y283000D01*
X328500Y285370D02*
X395000D01*
Y279500D02*
Y285370D01*
X376500Y270457D02*
X386043Y280000D01*
X393500D01*
X395000Y278500D01*
X395043Y260894D02*
X402000D01*
X395043Y235520D02*
Y236547D01*
X383000D02*
X395043D01*
X317753Y258724D02*
X319547Y256930D01*
Y248909D02*
X326957Y241500D01*
X319547Y248909D02*
Y256930D01*
X315500Y255000D02*
X317500Y253000D01*
X315453Y255000D02*
X315500D01*
X315453D02*
Y258724D01*
X313559Y259224D02*
X315445D01*
X335650Y265913D02*
X339563Y262000D01*
X338090Y242910D02*
X343500D01*
X322319Y258681D02*
X338090Y242910D01*
X322319Y258681D02*
Y262077D01*
X395043Y243000D02*
X402000D01*
Y279500D01*
X395000D02*
X402000D01*
X365453Y324500D02*
X366437D01*
X378000D01*
X418500Y353000D02*
Y376000D01*
X403500Y338000D02*
X418500Y353000D01*
X378000Y324500D02*
X391500Y338000D01*
X403500D01*
X498000Y411000D02*
X504500D01*
X512000Y403500D01*
X485399Y395500D02*
X493000Y403100D01*
Y406000D01*
X498000Y411000D01*
X340563Y321500D02*
X343563Y324500D01*
X344547D01*
X298000Y337000D02*
X313500Y321500D01*
X340563D01*
X318500Y327500D02*
X327000D01*
X359500Y392047D02*
X366347Y385200D01*
X367740D01*
X370200Y382740D01*
Y382650D02*
Y382740D01*
Y382650D02*
X374850Y378000D01*
X379800D01*
X355294Y392287D02*
X359260D01*
X340500Y407082D02*
Y411500D01*
Y407082D02*
X355294Y392287D01*
X359260D02*
X359500Y392047D01*
X399200Y388000D02*
X410457D01*
X412500Y390043D01*
X224220Y343695D02*
Y362647D01*
Y343695D02*
X231260Y336655D01*
X218760Y368108D02*
X224220Y362647D01*
X214100Y368108D02*
X218760D01*
X231260Y336655D02*
X236606D01*
X243779Y343829D01*
Y356120D01*
X244000Y356340D01*
X224220Y415087D02*
Y434039D01*
Y415087D02*
X231260Y408047D01*
X218760Y439500D02*
X224220Y434039D01*
X214100Y439500D02*
X218760D01*
X231260Y408047D02*
X236606D01*
X243779Y415221D01*
Y427512D01*
X244000Y427732D01*
X479319Y278485D02*
X489276D01*
X479276Y270941D02*
Y278441D01*
X470232Y270941D02*
X479276D01*
X447276Y237528D02*
X447862Y236941D01*
X524819Y235504D02*
Y236532D01*
X512776D02*
X524819D01*
X489276Y272398D02*
X490232Y271441D01*
Y270441D02*
X506276D01*
X506276Y277984D02*
Y282984D01*
X469776D02*
X506276D01*
X469776Y278485D02*
Y282984D01*
X523276Y279984D02*
X524776Y278485D01*
X515819Y279984D02*
X523276D01*
X506276Y270441D02*
X515819Y279984D01*
X524776Y279485D02*
X531776D01*
X524819Y260878D02*
X531776D01*
Y242985D02*
Y279485D01*
X524819Y242985D02*
X531776D01*
X441291Y258709D02*
X443260D01*
X439323D02*
X441291D01*
X445276Y254984D02*
X447276Y252984D01*
X445228Y254984D02*
X445276D01*
X447276Y237528D02*
Y252984D01*
X445228Y254984D02*
Y258709D01*
X449323Y248894D02*
X456732Y241484D01*
X449323Y248894D02*
Y256914D01*
X456732Y236941D02*
Y241484D01*
X447528Y258709D02*
X449323Y256914D01*
X447197Y258709D02*
X447528D01*
X467866Y242894D02*
X473276D01*
X452095Y258666D02*
X467866Y242894D01*
X452095Y258666D02*
Y262062D01*
X465425Y265898D02*
X469339Y261984D01*
X450653Y265898D02*
X465425D01*
X469732Y272441D02*
X469776Y272398D01*
X469776Y272398D02*
X470232Y271941D01*
X463276Y269985D02*
X464732Y271441D01*
X469732D01*
X452098Y269941D02*
X463276D01*
X452095Y269938D02*
X452098Y269941D01*
X524776Y279485D02*
Y285355D01*
X458276Y271941D02*
Y285355D01*
X524776D01*
X454437Y271941D02*
X458276D01*
X452095Y271989D02*
X454389D01*
X454437Y271941D01*
X347500Y195999D02*
Y192000D01*
X349499D01*
X350166Y192666D01*
Y195332D01*
X349499Y195999D01*
X347500D01*
X351499Y192000D02*
Y194666D01*
X352832Y195999D01*
X354165Y194666D01*
Y192000D01*
Y193999D01*
X351499D01*
X355497Y192000D02*
Y195999D01*
X358163Y192000D01*
Y195999D01*
X359496D02*
X360829D01*
X360163D01*
Y192000D01*
X359496D01*
X360829D01*
X365494Y195999D02*
X362828D01*
Y192000D01*
X365494D01*
X362828Y193999D02*
X364161D01*
X366827Y195999D02*
Y192000D01*
X369493D01*
X377490Y195999D02*
X376157D01*
X376824D01*
Y192666D01*
X376157Y192000D01*
X375491D01*
X374825Y192666D01*
X381489Y195999D02*
X378823D01*
Y192000D01*
X381489D01*
X378823Y193999D02*
X380156D01*
X382822Y192000D02*
Y195999D01*
X385488Y192000D01*
Y195999D01*
X389487Y195332D02*
X388820Y195999D01*
X387487D01*
X386821Y195332D01*
Y194666D01*
X387487Y193999D01*
X388820D01*
X389487Y193333D01*
Y192666D01*
X388820Y192000D01*
X387487D01*
X386821Y192666D01*
X393485Y195999D02*
X390819D01*
Y192000D01*
X393485D01*
X390819Y193999D02*
X392152D01*
X394818Y192000D02*
Y195999D01*
X397484Y192000D01*
Y195999D01*
X399483Y191333D02*
X400150Y192000D01*
Y192666D01*
X399483D01*
Y192000D01*
X400150D01*
X399483Y191333D01*
X398817Y190667D01*
X406814Y195999D02*
Y192000D01*
Y193333D01*
X409480Y195999D01*
X407481Y193999D01*
X409480Y192000D01*
X413479Y195999D02*
X410813D01*
Y192000D01*
X413479D01*
X410813Y193999D02*
X412146D01*
X414812Y195999D02*
Y193333D01*
X416145Y192000D01*
X417477Y193333D01*
Y195999D01*
X418810D02*
X420143D01*
X419477D01*
Y192000D01*
X418810D01*
X420143D01*
X422143D02*
Y195999D01*
X424808Y192000D01*
Y195999D01*
X432806D02*
X430140D01*
Y193999D01*
X431473D01*
X430140D01*
Y192000D01*
X434139D02*
Y195999D01*
X436138D01*
X436804Y195332D01*
Y193999D01*
X436138Y193333D01*
X434139D01*
X435472D02*
X436804Y192000D01*
X440803Y195999D02*
X438137D01*
Y192000D01*
X440803D01*
X438137Y193999D02*
X439470D01*
X442136Y192000D02*
Y195999D01*
X444802Y192000D01*
Y195999D01*
X448801Y195332D02*
X448134Y195999D01*
X446801D01*
X446135Y195332D01*
Y192666D01*
X446801Y192000D01*
X448134D01*
X448801Y192666D01*
X450134Y195999D02*
Y192000D01*
Y193999D01*
X452799D01*
Y195999D01*
Y192000D01*
X347500Y207999D02*
X348833D01*
X348166D01*
Y204000D01*
X347500D01*
X348833D01*
X350832D02*
Y207999D01*
X353498Y204000D01*
Y207999D01*
X354831D02*
Y205333D01*
X356164Y204000D01*
X357497Y205333D01*
Y207999D01*
X361495D02*
X358830D01*
Y204000D01*
X361495D01*
X358830Y205999D02*
X360163D01*
X365494Y207332D02*
X364828Y207999D01*
X363495D01*
X362828Y207332D01*
Y206666D01*
X363495Y205999D01*
X364828D01*
X365494Y205333D01*
Y204666D01*
X364828Y204000D01*
X363495D01*
X362828Y204666D01*
X366827Y207999D02*
X369493D01*
X368160D01*
Y204000D01*
X370826Y207999D02*
X372159D01*
X371492D01*
Y204000D01*
X370826D01*
X372159D01*
X376824Y207332D02*
X376157Y207999D01*
X374825D01*
X374158Y207332D01*
Y204666D01*
X374825Y204000D01*
X376157D01*
X376824Y204666D01*
Y205999D01*
X375491D01*
X378157Y204000D02*
Y206666D01*
X379490Y207999D01*
X380823Y206666D01*
Y204000D01*
Y205999D01*
X378157D01*
X382155Y207999D02*
X384821D01*
X383488D01*
Y204000D01*
X388154Y207999D02*
X386821D01*
X386154Y207332D01*
Y204666D01*
X386821Y204000D01*
X388154D01*
X388820Y204666D01*
Y207332D01*
X388154Y207999D01*
X390153Y204000D02*
Y207999D01*
X392152D01*
X392819Y207332D01*
Y205999D01*
X392152Y205333D01*
X390153D01*
X391486D02*
X392819Y204000D01*
X396817Y207332D02*
X396151Y207999D01*
X394818D01*
X394152Y207332D01*
Y206666D01*
X394818Y205999D01*
X396151D01*
X396817Y205333D01*
Y204666D01*
X396151Y204000D01*
X394818D01*
X394152Y204666D01*
X402149Y204000D02*
Y207999D01*
X404148D01*
X404815Y207332D01*
Y205999D01*
X404148Y205333D01*
X402149D01*
X408147Y207999D02*
X406814D01*
X406148Y207332D01*
Y204666D01*
X406814Y204000D01*
X408147D01*
X408813Y204666D01*
Y207332D01*
X408147Y207999D01*
X410147D02*
Y204000D01*
X411479Y205333D01*
X412812Y204000D01*
Y207999D01*
X416811D02*
X414145D01*
Y204000D01*
X416811D01*
X414145Y205999D02*
X415478D01*
X418144Y204000D02*
Y207999D01*
X420143D01*
X420810Y207332D01*
Y205999D01*
X420143Y205333D01*
X418144D01*
X419477D02*
X420810Y204000D01*
X426141Y207999D02*
Y204000D01*
X428141D01*
X428807Y204666D01*
Y205333D01*
X428141Y205999D01*
X426141D01*
X428141D01*
X428807Y206666D01*
Y207332D01*
X428141Y207999D01*
X426141D01*
X432139D02*
X430806D01*
X430140Y207332D01*
Y204666D01*
X430806Y204000D01*
X432139D01*
X432806Y204666D01*
Y207332D01*
X432139Y207999D01*
X434139Y204000D02*
Y206666D01*
X435472Y207999D01*
X436804Y206666D01*
Y204000D01*
Y205999D01*
X434139D01*
X438137Y204000D02*
Y207999D01*
X440137D01*
X440803Y207332D01*
Y205999D01*
X440137Y205333D01*
X438137D01*
X439470D02*
X440803Y204000D01*
X442136Y207999D02*
Y204000D01*
X444136D01*
X444802Y204666D01*
Y207332D01*
X444136Y207999D01*
X442136D01*
X450134D02*
Y205333D01*
X451467Y204000D01*
X452799Y205333D01*
Y207999D01*
X454132Y204000D02*
X455465D01*
X454799D01*
Y207999D01*
X454132Y207332D01*
D27*
X440543Y392693D02*
Y397500D01*
Y392693D02*
X447236Y386000D01*
X455000D01*
X502000Y392500D02*
Y403500D01*
X474500Y320500D02*
X485500Y309500D01*
X474500Y320500D02*
X487000Y333000D01*
Y377500D02*
X502000Y392500D01*
X472000Y378547D02*
X487000D01*
Y333000D02*
Y378547D01*
X485500Y309500D02*
X524000D01*
Y319400D01*
X455000Y386000D02*
X462453Y378547D01*
X472000D01*
D28*
X368000Y366000D02*
X384000Y350000D01*
X379800Y383000D02*
X386500D01*
X393500Y357953D02*
Y372500D01*
X391500Y374500D02*
X393500Y372500D01*
X391500Y374500D02*
Y378000D01*
X386500Y383000D02*
X391500Y378000D01*
X385500Y349953D02*
X393500Y357953D01*
X405453D01*
X318500Y347500D02*
X327000Y356000D01*
X329500Y366000D02*
X368000D01*
X327000Y363500D02*
X329500Y366000D01*
X327000Y356000D02*
Y363500D01*
D29*
X378000Y324500D02*
D03*
X307067Y306100D02*
D03*
X188067Y414500D02*
D03*
Y343108D02*
D03*
Y271608D02*
D03*
Y200108D02*
D03*
D30*
X529000Y198500D02*
D03*
X296000D02*
D03*
X168840Y196500D02*
D03*
X156500Y477000D02*
D03*
X296000D02*
D03*
X529000Y475500D02*
D03*
D31*
X512000Y403500D02*
D03*
X502000D02*
D03*
X484000Y404000D02*
D03*
X474000D02*
D03*
D32*
X352933Y306100D02*
D03*
X233933Y414500D02*
D03*
Y343108D02*
D03*
Y271608D02*
D03*
Y200108D02*
D03*
D33*
X336000Y381000D02*
D03*
D34*
Y371000D02*
D03*
Y361000D02*
D03*
Y351000D02*
D03*
X366000D02*
D03*
Y361000D02*
D03*
Y371000D02*
D03*
Y381000D02*
D03*
D35*
X406000Y358500D02*
D03*
X446000Y358000D02*
D03*
X474500Y320500D02*
D03*
X475000Y360500D02*
D03*
X403500Y308000D02*
D03*
X443500Y307500D02*
D03*
X454000Y332000D02*
D03*
X414000Y332500D02*
D03*
X265500Y420500D02*
D03*
X266000Y460500D02*
D03*
X265500Y349108D02*
D03*
X266000Y389108D02*
D03*
X265500Y277608D02*
D03*
X266000Y317608D02*
D03*
X265500Y206108D02*
D03*
X266000Y246108D02*
D03*
D36*
X373500Y467500D02*
D03*
X473500D02*
D03*
D37*
X318500Y347500D02*
D03*
Y327500D02*
D03*
X298500Y337500D02*
D03*
D38*
X445376Y263884D02*
D03*
X442276D02*
D03*
X439176D02*
D03*
X445376Y266985D02*
D03*
X442276D02*
D03*
X439176D02*
D03*
X445376Y270085D02*
D03*
X442276D02*
D03*
X439176D02*
D03*
X315600Y263900D02*
D03*
X312500D02*
D03*
X309400D02*
D03*
X315600Y267000D02*
D03*
X312500D02*
D03*
X309400D02*
D03*
X315600Y270100D02*
D03*
X312500D02*
D03*
X309400D02*
D03*
D39*
X340500Y411500D02*
D03*
X310500D02*
D03*
X185000Y438500D02*
D03*
Y468500D02*
D03*
Y367108D02*
D03*
Y397108D02*
D03*
Y295608D02*
D03*
Y325608D02*
D03*
Y224108D02*
D03*
Y254108D02*
D03*
D40*
X488500Y301500D02*
D03*
X364500Y258000D02*
D03*
X494276Y257984D02*
D03*
X434500Y333000D02*
D03*
X397500Y346000D02*
D03*
X372500Y401500D02*
D03*
M02*
