G04 Layer_Color=16711935*
%FSLAX25Y25*%
%MOIN*%
G70*
G01*
G75*
%ADD60R,0.06706X0.06706*%
%ADD61C,0.06800*%
%ADD62C,0.00800*%
%ADD63C,0.07800*%
%ADD64C,0.06706*%
%ADD65R,0.06200X0.06200*%
%ADD66C,0.06200*%
%ADD67C,0.15800*%
G04:AMPARAMS|DCode=68|XSize=298mil|YSize=88mil|CornerRadius=24mil|HoleSize=0mil|Usage=FLASHONLY|Rotation=90.000|XOffset=0mil|YOffset=0mil|HoleType=Round|Shape=RoundedRectangle|*
%AMROUNDEDRECTD68*
21,1,0.29800,0.04000,0,0,90.0*
21,1,0.25000,0.08800,0,0,90.0*
1,1,0.04800,0.02000,0.12500*
1,1,0.04800,0.02000,-0.12500*
1,1,0.04800,-0.02000,-0.12500*
1,1,0.04800,-0.02000,0.12500*
%
%ADD68ROUNDEDRECTD68*%
%ADD69C,0.06800*%
%ADD70C,0.02800*%
%ADD71C,0.06312*%
%ADD72C,0.05800*%
D60*
X232000Y137500D02*
D03*
X161067Y119100D02*
D03*
X42067Y227500D02*
D03*
Y156108D02*
D03*
Y84608D02*
D03*
Y12000D02*
D03*
D61*
X383000Y11500D02*
D03*
X150000D02*
D03*
X10500Y290000D02*
D03*
X150000D02*
D03*
X383000Y288500D02*
D03*
D62*
X22840Y9500D02*
D03*
D63*
X385500Y227000D02*
D03*
X375500D02*
D03*
X359500Y257000D02*
D03*
X349500D02*
D03*
D64*
X206933Y119100D02*
D03*
X87933Y227500D02*
D03*
Y156108D02*
D03*
Y84608D02*
D03*
Y12000D02*
D03*
D65*
X190500Y194000D02*
D03*
X292000Y234500D02*
D03*
D66*
X190500Y184000D02*
D03*
Y174000D02*
D03*
Y164000D02*
D03*
X220500D02*
D03*
Y174000D02*
D03*
Y184000D02*
D03*
Y194000D02*
D03*
X292000Y224500D02*
D03*
Y214500D02*
D03*
Y204500D02*
D03*
X322000D02*
D03*
Y214500D02*
D03*
Y224500D02*
D03*
Y234500D02*
D03*
D67*
X260000Y171500D02*
D03*
X300000Y171000D02*
D03*
X327500Y133500D02*
D03*
X328000Y173500D02*
D03*
X257500Y121000D02*
D03*
X297500Y120500D02*
D03*
X308000Y145000D02*
D03*
X268000Y145500D02*
D03*
X119500Y233500D02*
D03*
X120000Y273500D02*
D03*
X120500Y161000D02*
D03*
X121000Y201000D02*
D03*
X119000Y89000D02*
D03*
X119500Y129000D02*
D03*
Y19500D02*
D03*
X120000Y59500D02*
D03*
D68*
X227500Y280500D02*
D03*
X327500D02*
D03*
D69*
X172500Y160500D02*
D03*
Y140500D02*
D03*
X152500Y150500D02*
D03*
D70*
X299376Y76885D02*
D03*
X296276D02*
D03*
X293176D02*
D03*
X299376Y79984D02*
D03*
X296276D02*
D03*
X293176D02*
D03*
X299376Y83084D02*
D03*
X296276D02*
D03*
X293176D02*
D03*
X169600Y76900D02*
D03*
X166500D02*
D03*
X163400D02*
D03*
X169600Y80000D02*
D03*
X166500D02*
D03*
X163400D02*
D03*
X169600Y83100D02*
D03*
X166500D02*
D03*
X163400D02*
D03*
D71*
X194500Y224500D02*
D03*
X164500D02*
D03*
X39000Y251500D02*
D03*
Y281500D02*
D03*
Y180108D02*
D03*
Y210108D02*
D03*
Y108608D02*
D03*
Y138608D02*
D03*
Y37108D02*
D03*
Y67108D02*
D03*
D72*
X342500Y114500D02*
D03*
X218500Y71000D02*
D03*
X348276Y70985D02*
D03*
X251500Y159000D02*
D03*
X211500Y217500D02*
D03*
X349000Y135500D02*
D03*
M02*
