G04 Layer_Color=16711935*
%FSLAX25Y25*%
%MOIN*%
G70*
G01*
G75*
%ADD74C,0.00394*%
D74*
X166646Y215331D02*
X172354D01*
X166646Y206669D02*
X172354D01*
Y215331D01*
X166646Y206669D02*
Y215331D01*
X357831Y111646D02*
Y117354D01*
X349169Y111646D02*
Y117354D01*
Y111646D02*
X357831D01*
X349169Y117354D02*
X357831D01*
X324146Y193331D02*
X329854D01*
X324146Y184669D02*
X329854D01*
Y193331D01*
X324146Y184669D02*
Y193331D01*
X236646Y164331D02*
X242354D01*
X236646Y155669D02*
X242354D01*
Y164331D01*
X236646Y155669D02*
Y164331D01*
X161646Y238669D02*
X167354D01*
X161646Y247331D02*
X167354D01*
X161646Y238669D02*
Y247331D01*
X167354Y238669D02*
Y247331D01*
X241732Y174744D02*
Y180256D01*
X233268Y174744D02*
Y180256D01*
Y174744D02*
X241732D01*
X233268Y180256D02*
X241732D01*
X276043Y57229D02*
Y62740D01*
X284508Y57229D02*
Y62740D01*
X276043D02*
X284508D01*
X276043Y57229D02*
X284508D01*
X146268Y57244D02*
Y62756D01*
X154732Y57244D02*
Y62756D01*
X146268D02*
X154732D01*
X146268Y57244D02*
X154732D01*
X273744Y198268D02*
Y206732D01*
X279256Y198268D02*
Y206732D01*
X273744Y198268D02*
X279256D01*
X273744Y206732D02*
X279256D01*
X197268Y149256D02*
X205732D01*
X197268Y143744D02*
X205732D01*
X197268D02*
Y149256D01*
X205732Y143744D02*
Y149256D01*
X302268Y186244D02*
X310732D01*
X302268Y191756D02*
X310732D01*
Y186244D02*
Y191756D01*
X302268Y186244D02*
Y191756D01*
X188768Y203744D02*
X197232D01*
X188768Y209256D02*
X197232D01*
Y203744D02*
Y209256D01*
X188768Y203744D02*
Y209256D01*
X197268Y134744D02*
X205732D01*
X197268Y140256D02*
X205732D01*
Y134744D02*
Y140256D01*
X197268Y134744D02*
Y140256D01*
X366256Y199268D02*
Y207732D01*
X360744Y199268D02*
Y207732D01*
X366256D01*
X360744Y199268D02*
X366256D01*
X349744Y207268D02*
Y215732D01*
X355256Y207268D02*
Y215732D01*
X349744Y207268D02*
X355256D01*
X349744Y215732D02*
X355256D01*
X181244Y238768D02*
Y247232D01*
X186756Y238768D02*
Y247232D01*
X181244Y238768D02*
X186756D01*
X181244Y247232D02*
X186756D01*
X252268Y223256D02*
X260732D01*
X252268Y217744D02*
X260732D01*
X252268D02*
Y223256D01*
X260732Y217744D02*
Y223256D01*
X381575Y48209D02*
Y56674D01*
X376063Y48209D02*
Y56674D01*
X381575D01*
X376063Y48209D02*
X381575D01*
X251799Y48224D02*
Y56689D01*
X246287Y48224D02*
Y56689D01*
X251799D01*
X246287Y48224D02*
X251799D01*
X363032Y83209D02*
Y91673D01*
X357520Y83209D02*
Y91673D01*
X363032D01*
X357520Y83209D02*
X363032D01*
X233256Y83224D02*
Y91689D01*
X227744Y83224D02*
Y91689D01*
X233256D01*
X227744Y83224D02*
X233256D01*
X381532Y84709D02*
Y93173D01*
X376020Y84709D02*
Y93173D01*
X381532D01*
X376020Y84709D02*
X381532D01*
X251756Y84724D02*
Y93189D01*
X246244Y84724D02*
Y93189D01*
X251756D01*
X246244Y84724D02*
X251756D01*
X381575Y65709D02*
Y74173D01*
X376063Y65709D02*
Y74173D01*
X381575D01*
X376063Y65709D02*
X381575D01*
X251799Y65724D02*
Y74189D01*
X246287Y65724D02*
Y74189D01*
X251799D01*
X246287Y65724D02*
X251799D01*
X212268Y134744D02*
X220732D01*
X212268Y140256D02*
X220732D01*
Y134744D02*
Y140256D01*
X212268Y134744D02*
Y140256D01*
X323043Y77740D02*
X331508D01*
X323043Y72229D02*
X331508D01*
X323043D02*
Y77740D01*
X331508Y72229D02*
Y77740D01*
X193268Y77756D02*
X201732D01*
X193268Y72244D02*
X201732D01*
X193268D02*
Y77756D01*
X201732Y72244D02*
Y77756D01*
X28831Y248646D02*
Y254354D01*
X20169Y248646D02*
Y254354D01*
Y248646D02*
X28831D01*
X20169Y254354D02*
X28831D01*
Y177254D02*
Y182963D01*
X20169Y177254D02*
Y182963D01*
Y177254D02*
X28831D01*
X20169Y182963D02*
X28831D01*
Y105754D02*
Y111462D01*
X20169Y105754D02*
Y111462D01*
Y105754D02*
X28831D01*
X20169Y111462D02*
X28831D01*
Y34254D02*
Y39963D01*
X20169Y34254D02*
Y39963D01*
Y34254D02*
X28831D01*
X20169Y39963D02*
X28831D01*
X363921Y56815D02*
X369630D01*
X363921Y48154D02*
X369630D01*
Y56815D01*
X363921Y48154D02*
Y56815D01*
X234146Y56831D02*
X239854D01*
X234146Y48169D02*
X239854D01*
Y56831D01*
X234146Y48169D02*
Y56831D01*
X320921Y92272D02*
X326630D01*
X320921Y83610D02*
X326630D01*
Y92272D01*
X320921Y83610D02*
Y92272D01*
X191146Y92287D02*
X196854D01*
X191146Y83626D02*
X196854D01*
Y92287D01*
X191146Y83626D02*
Y92287D01*
X340421Y83610D02*
X346130D01*
X340421Y92272D02*
X346130D01*
X340421Y83610D02*
Y92272D01*
X346130Y83610D02*
Y92272D01*
X210646Y83626D02*
X216354D01*
X210646Y92287D02*
X216354D01*
X210646Y83626D02*
Y92287D01*
X216354Y83626D02*
Y92287D01*
X293945Y47130D02*
Y52839D01*
X302606Y47130D02*
Y52839D01*
X293945D02*
X302606D01*
X293945Y47130D02*
X302606D01*
X164169Y47146D02*
Y52854D01*
X172831Y47146D02*
Y52854D01*
X164169D02*
X172831D01*
X164169Y47146D02*
X172831D01*
X291831Y94146D02*
Y99854D01*
X283169Y94146D02*
Y99854D01*
Y94146D02*
X291831D01*
X283169Y99854D02*
X291831D01*
X162374Y94102D02*
Y99811D01*
X153713Y94102D02*
Y99811D01*
Y94102D02*
X162374D01*
X153713Y99811D02*
X162374D01*
X353106Y52130D02*
Y57839D01*
X344445Y52130D02*
Y57839D01*
Y52130D02*
X353106D01*
X344445Y57839D02*
X353106D01*
X223331Y52146D02*
Y57854D01*
X214669Y52146D02*
Y57854D01*
Y52146D02*
X223331D01*
X214669Y57854D02*
X223331D01*
X324421Y48610D02*
X330130D01*
X324421Y57272D02*
X330130D01*
X324421Y48610D02*
Y57272D01*
X330130Y48610D02*
Y57272D01*
X194646Y48626D02*
X200354D01*
X194646Y57287D02*
X200354D01*
X194646Y48626D02*
Y57287D01*
X200354Y48626D02*
Y57287D01*
X309945Y47087D02*
Y52796D01*
X318606Y47087D02*
Y52796D01*
X309945D02*
X318606D01*
X309945Y47087D02*
X318606D01*
X180169Y47102D02*
Y52811D01*
X188831Y47102D02*
Y52811D01*
X180169D02*
X188831D01*
X180169Y47102D02*
X188831D01*
M02*
